<svg xmlns="http://www.w3.org/2000/svg" width="66" height="56" viewBox="0 0 66 56" fill="none"><path d="M61.0247 0H4.75351C3.49324 0.00142815 2.28499 0.502701 1.39385 1.39385C0.502701 2.28499 0.00142815 3.49324 0 4.75351L0 43.8266C0.00139421 45.0868 0.502656 46.2951 1.39381 47.1863C2.28496 48.0774 3.49323 48.5787 4.75351 48.5801H26.9366V52.7856H23.8906C23.4817 52.7856 23.0896 52.9481 22.8005 53.2372C22.5114 53.5263 22.3489 53.9184 22.3489 54.3273C22.3489 54.7362 22.5114 55.1283 22.8005 55.4174C23.0896 55.7066 23.4817 55.869 23.8906 55.869H41.8876C42.2965 55.869 42.6887 55.7066 42.9778 55.4174C43.2669 55.1283 43.4293 54.7362 43.4293 54.3273C43.4293 53.9184 43.2669 53.5263 42.9778 53.2372C42.6887 52.9481 42.2965 52.7856 41.8876 52.7856H38.8417V48.5801H61.0247C62.285 48.5787 63.4933 48.0774 64.3844 47.1863C65.2756 46.2951 65.7769 45.0868 65.7783 43.8266V4.75351C65.7768 3.49324 65.2756 2.28499 64.3844 1.39385C63.4933 0.502701 62.285 0.00142815 61.0247 0ZM4.75351 3.08336H61.0247C61.4675 3.08387 61.8921 3.25999 62.2052 3.57309C62.5183 3.8862 62.6944 4.31071 62.6949 4.75351V37.6263H3.08336V4.75351C3.08387 4.31071 3.25999 3.8862 3.57309 3.57309C3.8862 3.25999 4.31071 3.08387 4.75351 3.08336ZM35.7583 52.7855H30.0199V48.5801H35.7583V52.7855ZM61.0247 45.4967H4.75351C4.31071 45.4962 3.8862 45.3201 3.57309 45.007C3.25999 44.6939 3.08387 44.2694 3.08336 43.8266V40.7098H62.6949V43.8266C62.6944 44.2694 62.5183 44.6939 62.2052 45.007C61.8921 45.3201 61.4675 45.4962 61.0247 45.4967ZM23.5877 15.8747V24.835C23.5877 25.1056 23.6589 25.3715 23.7942 25.6059C23.9295 25.8403 24.1241 26.0349 24.3585 26.1702L32.1183 30.6505C32.3526 30.7858 32.6185 30.857 32.8891 30.857C33.1597 30.857 33.4256 30.7858 33.66 30.6505L41.4197 26.1702C41.6541 26.0349 41.8487 25.8403 41.9841 25.6059C42.1194 25.3715 42.1906 25.1056 42.1906 24.835V15.8747C42.1906 15.604 42.1194 15.3381 41.9841 15.1038C41.8487 14.8694 41.6541 14.6748 41.4197 14.5394L33.66 10.0593C33.4256 9.92411 33.1597 9.85293 32.8891 9.85293C32.6185 9.85293 32.3527 9.92411 32.1183 10.0593L24.3585 14.5394C24.1241 14.6748 23.9295 14.8694 23.7942 15.1038C23.6589 15.3381 23.5877 15.604 23.5877 15.8747ZM26.671 18.545L31.3474 21.245V26.6449L26.671 23.9448V18.545ZM34.4308 26.6449V21.245L39.1072 18.545V23.945L34.4308 26.6449ZM32.8891 13.1747L37.5655 15.8747L32.8891 18.5746L28.2127 15.8747L32.8891 13.1747ZM47.8096 28.1289V33.7337C47.8096 34.1426 47.6472 34.5347 47.3581 34.8238C47.0689 35.113 46.6768 35.2754 46.2679 35.2754H40.6636C40.2547 35.2754 39.8625 35.113 39.5734 34.8238C39.2843 34.5347 39.1219 34.1426 39.1219 33.7337C39.1219 33.3248 39.2843 32.9327 39.5734 32.6436C39.8625 32.3545 40.2547 32.192 40.6636 32.192H44.7263V28.1292C44.7263 27.7203 44.8887 27.3282 45.1778 27.0391C45.4669 26.7499 45.8591 26.5875 46.2679 26.5875C46.6768 26.5875 47.0689 26.7499 47.3581 27.0391C47.6472 27.3282 47.8096 27.7203 47.8096 28.1292V28.1289ZM17.9686 12.5805V6.97609C17.9686 6.56721 18.1311 6.17508 18.4202 5.88596C18.7093 5.59684 19.1014 5.43441 19.5103 5.43441H25.1147C25.5236 5.43441 25.9157 5.59684 26.2048 5.88596C26.494 6.17508 26.6564 6.56721 26.6564 6.97609C26.6564 7.38497 26.494 7.7771 26.2048 8.06622C25.9157 8.35534 25.5236 8.51777 25.1147 8.51777H21.052V12.5805C21.052 12.9894 20.8896 13.3815 20.6004 13.6706C20.3113 13.9597 19.9192 14.1222 19.5103 14.1222C19.1014 14.1222 18.7093 13.9597 18.4202 13.6706C18.1311 13.3815 17.9686 12.9894 17.9686 12.5805ZM17.9686 33.7337V28.1292C17.9686 27.7203 18.1311 27.3282 18.4202 27.0391C18.7093 26.7499 19.1014 26.5875 19.5103 26.5875C19.9192 26.5875 20.3113 26.7499 20.6004 27.0391C20.8896 27.3282 21.052 27.7203 21.052 28.1292V32.192H25.1147C25.5236 32.192 25.9157 32.3545 26.2048 32.6436C26.494 32.9327 26.6564 33.3248 26.6564 33.7337C26.6564 34.1426 26.494 34.5347 26.2048 34.8238C25.9157 35.113 25.5236 35.2754 25.1147 35.2754H19.5103C19.1014 35.2754 18.7093 35.113 18.4202 34.8238C18.1311 34.5347 17.9686 34.1426 17.9686 33.7337ZM39.1219 6.97609C39.1219 6.56721 39.2843 6.17508 39.5734 5.88596C39.8625 5.59684 40.2547 5.43441 40.6636 5.43441H46.2679C46.6768 5.43441 47.0689 5.59684 47.3581 5.88596C47.6472 6.17508 47.8096 6.56721 47.8096 6.97609V12.5805C47.8096 12.9894 47.6472 13.3815 47.3581 13.6706C47.0689 13.9597 46.6768 14.1222 46.2679 14.1222C45.8591 14.1222 45.4669 13.9597 45.1778 13.6706C44.8887 13.3815 44.7263 12.9894 44.7263 12.5805V8.51777H40.6636C40.2547 8.51777 39.8625 8.35534 39.5734 8.06622C39.2843 7.7771 39.1219 7.38497 39.1219 6.97609Z" fill="#0369CA"></path></svg>