<svg xmlns="http://www.w3.org/2000/svg" width="72" height="69" viewBox="0 0 72 69" fill="none"><path d="M66.5587 59.7853H42.6446C42.1975 59.7853 41.8331 59.4209 41.8331 58.9738C41.8331 58.5266 42.1975 58.1623 42.6446 58.1623H66.5422C68.2148 58.1623 69.5728 56.8043 69.5728 55.1316V4.65365C69.5728 2.98098 68.2148 1.63954 66.5422 1.63954H4.67021C2.96442 1.63954 1.63954 2.96442 1.63954 4.65365V55.1316C1.63954 56.8043 2.99754 58.1623 4.67021 58.1623H28.5181C28.9652 58.1623 29.3296 58.5266 29.3296 58.9738C29.3296 59.4209 28.9652 59.7853 28.5181 59.7853H4.67021C2.08669 59.7853 0 57.682 0 55.1151V4.65365C0.016561 2.08669 2.10325 0 4.67021 0H66.5587C69.1422 0 71.2289 2.08669 71.2289 4.65365V55.1316C71.2124 57.682 69.1257 59.7853 66.5587 59.7853Z" fill="#0458B9"></path><path d="M70.4009 14.6425H0.828092C0.380944 14.6425 0.0166016 14.2782 0.0166016 13.831C0.0166016 13.3839 0.380944 13.0195 0.828092 13.0195H70.4175C70.8646 13.0195 71.229 13.3839 71.229 13.831C71.2124 14.2782 70.8481 14.6425 70.4009 14.6425Z" fill="#0458B9"></path><path d="M19.1142 10.5117C17.3588 10.5117 15.918 9.08745 15.918 7.31542C15.918 5.55995 17.3422 4.11914 19.1142 4.11914C20.8697 4.11914 22.3105 5.54339 22.3105 7.31542C22.3105 9.08745 20.8697 10.5117 19.1142 10.5117ZM19.1142 5.75868C18.2365 5.75868 17.5409 6.4708 17.5409 7.33198C17.5409 8.20971 18.2531 8.90527 19.1142 8.90527C19.992 8.90527 20.6875 8.19315 20.6875 7.33198C20.6875 6.4708 19.9754 5.75868 19.1142 5.75868Z" fill="#0458B9"></path><path d="M10.206 10.5117C8.45057 10.5117 7.00977 9.08745 7.00977 7.31542C7.00977 5.55995 8.43401 4.11914 10.206 4.11914C11.9781 4.11914 13.4023 5.54339 13.4023 7.31542C13.4023 9.08745 11.9781 10.5117 10.206 10.5117ZM10.206 5.75868C9.32831 5.75868 8.63274 6.4708 8.63274 7.33198C8.63274 8.20971 9.34487 8.90527 10.206 8.90527C11.0838 8.90527 11.7793 8.19315 11.7793 7.33198C11.7793 6.45424 11.0672 5.75868 10.206 5.75868Z" fill="#0458B9"></path><path d="M28.0078 10.5117C26.2523 10.5117 24.8115 9.08745 24.8115 7.31542C24.8115 5.55995 26.2358 4.11914 28.0078 4.11914C29.7798 4.11914 31.2041 5.54339 31.2041 7.31542C31.2041 9.08745 29.7633 10.5117 28.0078 10.5117ZM28.0078 5.75868C27.1301 5.75868 26.4345 6.4708 26.4345 7.33198C26.4345 8.20971 27.1466 8.90527 28.0078 8.90527C28.869 8.90527 29.5811 8.19315 29.5811 7.33198C29.5811 6.45424 28.8855 5.75868 28.0078 5.75868Z" fill="#0458B9"></path><path d="M35.6066 68.0029C32.5593 68.0029 30.0752 65.5187 30.0752 62.4715V61.6103C30.0752 61.1632 30.4395 60.7988 30.8867 60.7988C31.3338 60.7988 31.6982 61.1632 31.6982 61.6103V62.4715C31.6982 64.641 33.4536 66.3965 35.6231 66.3965C36.6665 66.3965 37.6436 65.9824 38.3888 65.2372C39.1341 64.5085 39.5481 63.5148 39.5481 62.4715V61.6103C39.5481 61.1632 39.9124 60.7988 40.3596 60.7988C40.8067 60.7988 41.1711 61.1632 41.1711 61.6103V62.4715C41.1711 63.9454 40.5749 65.3697 39.5481 66.3799C38.4716 67.4232 37.0805 68.0029 35.6066 68.0029Z" fill="#0458B9"></path><path d="M42.6432 56.8749H28.5498C28.1026 56.8749 27.7383 56.5106 27.7383 56.0634C27.7383 55.6163 28.1026 55.252 28.5498 55.252H42.6432C43.0903 55.252 43.4547 55.6163 43.4547 56.0634C43.4547 56.5106 43.0903 56.8749 42.6432 56.8749Z" fill="#0458B9"></path><path d="M40.5236 62.4217H30.6367C29.0303 62.4217 27.7219 61.1133 27.7219 59.5069V53.8762C27.7219 51.922 26.8773 49.9843 25.4365 48.5601C22.6046 45.811 21.0479 42.1013 21.0479 38.1432C21.0479 34.1023 22.6708 30.3264 25.6187 27.5607C28.5831 24.7785 32.4584 23.3873 36.5158 23.6358C44.0677 24.0995 49.9468 30.1608 50.1455 37.7457C50.2615 41.8198 48.6385 45.7778 45.7072 48.6098C44.2664 50.0175 43.4549 51.8557 43.4549 53.7934V59.5069C43.4549 61.1133 42.1466 62.4217 40.5236 62.4217ZM35.605 25.2256C32.2762 25.2256 29.1627 26.4511 26.7283 28.7366C24.0951 31.2041 22.6708 34.5329 22.6708 38.1432C22.6708 41.6707 24.062 44.9663 26.5792 47.4174C28.3347 49.1397 29.3449 51.4914 29.3449 53.8927V59.5235C29.3449 60.2356 29.9246 60.8152 30.6367 60.8152H40.5236C41.2689 60.8152 41.8485 60.2522 41.8485 59.5235V53.8099C41.8485 51.4251 42.809 49.1563 44.5811 47.4505C47.1977 44.9332 48.6219 41.4057 48.5226 37.7954C48.3404 31.0551 43.1237 25.6893 36.4165 25.2587C36.1515 25.2256 35.87 25.2256 35.605 25.2256Z" fill="#0458B9"></path><path d="M35.6074 21.3977C35.1602 21.3977 34.7959 21.0333 34.7959 20.5862V18.6982C34.7959 18.2511 35.1602 17.8867 35.6074 17.8867C36.0545 17.8867 36.4189 18.2511 36.4189 18.6982V20.5862C36.4189 21.0333 36.0545 21.3977 35.6074 21.3977Z" fill="#0458B9"></path><path d="M42.3305 22.7227C42.2145 22.7227 42.1317 22.7061 42.0158 22.6565C41.6018 22.4743 41.4196 22.0106 41.5852 21.5966L42.3139 19.8742C42.4961 19.4602 42.9598 19.278 43.3738 19.4436C43.7878 19.6092 43.97 20.0895 43.8044 20.5035L43.0757 22.2259C42.9598 22.5405 42.6451 22.7227 42.3305 22.7227Z" fill="#0458B9"></path><path d="M48.0442 26.5311C47.8455 26.5311 47.6302 26.4483 47.4811 26.2993C47.1665 25.9846 47.1665 25.4712 47.4811 25.1566L48.806 23.8317C49.1207 23.517 49.634 23.517 49.9487 23.8317C50.2634 24.1464 50.2634 24.6597 49.9487 24.9744L48.6238 26.2993C48.4582 26.4649 48.2429 26.5311 48.0442 26.5311Z" fill="#0458B9"></path><path d="M51.8359 32.2296C51.5212 32.2296 51.2231 32.0474 51.0906 31.7162C50.9085 31.3022 51.1238 30.8384 51.5378 30.6563L53.2601 29.9442C53.6742 29.762 54.1379 29.9773 54.32 30.3913C54.5022 30.8053 54.2869 31.269 53.8729 31.4512L52.1505 32.1633C52.0512 32.213 51.9518 32.2296 51.8359 32.2296Z" fill="#0458B9"></path><path d="M55.0666 38.955H53.1787C52.7315 38.955 52.3672 38.5907 52.3672 38.1435C52.3672 37.6964 52.7315 37.332 53.1787 37.332H55.0666C55.5138 37.332 55.8781 37.6964 55.8781 38.1435C55.8781 38.5907 55.5138 38.955 55.0666 38.955Z" fill="#0458B9"></path><path d="M53.5757 46.4063C53.4764 46.4063 53.377 46.3897 53.2776 46.34L51.5553 45.6279C51.1413 45.4457 50.9425 44.982 51.1081 44.568C51.2738 44.154 51.754 43.9552 52.1681 44.1208L53.8904 44.833C54.3044 45.0151 54.5032 45.4788 54.3375 45.8929C54.2051 46.2075 53.8904 46.4063 53.5757 46.4063Z" fill="#0458B9"></path><path d="M49.37 52.7167C49.1713 52.7167 48.956 52.6339 48.807 52.4848L47.4821 51.16C47.1674 50.8453 47.1674 50.3319 47.4821 50.0172C47.7967 49.7026 48.3101 49.7026 48.6248 50.0172L49.9497 51.3421C50.2643 51.6568 50.2643 52.1702 49.9497 52.4848C49.7841 52.6339 49.5853 52.7167 49.37 52.7167Z" fill="#0458B9"></path><path d="M28.8992 22.7219C28.5845 22.7219 28.2864 22.5397 28.1539 22.2251L27.4252 20.5027C27.2431 20.0887 27.4418 19.625 27.8558 19.4428C28.2698 19.2606 28.7335 19.4594 28.9157 19.8734L29.6444 21.5957C29.8266 22.0098 29.6278 22.4735 29.2138 22.6556C29.1144 22.6888 28.9985 22.7219 28.8992 22.7219Z" fill="#0458B9"></path><path d="M23.1855 26.5311C22.9867 26.5311 22.7714 26.4483 22.6224 26.2993L21.2975 24.9744C20.9829 24.6597 20.9829 24.1464 21.2975 23.8317C21.6122 23.517 22.1256 23.517 22.4402 23.8317L23.7651 25.1566C24.0798 25.4712 24.0798 25.9846 23.7651 26.2993C23.5995 26.4649 23.3842 26.5311 23.1855 26.5311Z" fill="#0458B9"></path><path d="M19.3921 32.2305C19.2928 32.2305 19.1934 32.2139 19.094 32.1642L17.3717 31.4521C16.9577 31.2699 16.7589 30.8062 16.9246 30.3922C17.1067 29.9782 17.5704 29.7795 17.9845 29.9451L19.7068 30.6572C20.1208 30.8394 20.3196 31.3031 20.154 31.7171C20.0049 32.0649 19.7068 32.2305 19.3921 32.2305Z" fill="#0458B9"></path><path d="M18.052 38.955H16.164C15.7169 38.955 15.3525 38.5907 15.3525 38.1435C15.3525 37.6964 15.7169 37.332 16.164 37.332H18.052C18.4991 37.332 18.8635 37.6964 18.8635 38.1435C18.8635 38.5907 18.4826 38.955 18.052 38.955Z" fill="#0458B9"></path><path d="M17.6552 46.4073C17.3406 46.4073 17.0425 46.2251 16.91 45.8939C16.7278 45.4799 16.9431 45.0162 17.3571 44.834L19.0795 44.1219C19.4935 43.9397 19.9572 44.155 20.1394 44.569C20.3215 44.9831 20.1062 45.4468 19.6922 45.6289L17.9699 46.3411C17.8539 46.3907 17.7546 46.4073 17.6552 46.4073Z" fill="#0458B9"></path><path d="M21.8616 52.7167C21.6628 52.7167 21.4475 52.6339 21.2985 52.4848C20.9838 52.1702 20.9838 51.6568 21.2985 51.3421L22.6234 50.0172C22.938 49.7026 23.4514 49.7026 23.7661 50.0172C24.0807 50.3319 24.0807 50.8453 23.7661 51.16L22.4412 52.4848C22.2756 52.6339 22.0603 52.7167 21.8616 52.7167Z" fill="#0458B9"></path><path d="M35.603 49.0845C34.8246 49.0845 34.0794 48.7864 33.4998 48.2564C32.8704 47.6768 32.5061 46.8488 32.5061 45.971C32.5061 45.9545 32.5061 45.9213 32.5061 45.9048H29.7073C28.8792 45.9048 28.2168 45.2423 28.2168 44.4143V40.6218C28.2168 40.3568 28.3658 40.0919 28.5811 39.9428C28.7964 39.7772 29.0945 39.7606 29.3429 39.86C29.9391 40.1084 30.5685 39.9594 30.9659 39.5122C31.2475 39.2141 31.3965 38.8167 31.38 38.4026C31.3303 37.674 30.7341 37.0612 30.0054 37.0115C29.7901 36.995 29.5582 37.0446 29.3264 37.1274C29.078 37.2268 28.7964 37.1937 28.5811 37.0281C28.3658 36.8625 28.2334 36.6306 28.2334 36.3656V32.5897C28.2334 31.7617 28.8958 31.0992 29.7239 31.0992H32.5061C32.5061 31.0827 32.5061 31.0496 32.5061 31.033C32.5061 30.1884 32.8539 29.3769 33.4832 28.7807C34.096 28.2011 34.9571 27.903 35.8017 27.9361C37.375 28.052 38.6171 29.3106 38.6834 30.8839V31.0827H41.4822C42.3102 31.0827 42.9727 31.7451 42.9727 32.5732V36.3656C42.9727 36.6306 42.8236 36.8956 42.6083 37.0446C42.393 37.1937 42.0949 37.2268 41.8465 37.1274C41.6478 37.0446 41.4325 36.995 41.2338 37.0281C41.2172 37.0281 41.2172 37.0281 41.2006 37.0281C40.4719 37.0778 39.8758 37.674 39.8261 38.4192C39.8095 38.8332 39.9586 39.2307 40.2401 39.5288C40.6541 39.9594 41.2669 40.1084 41.8631 39.86C42.1115 39.7441 42.393 39.7772 42.6249 39.9428C42.8402 40.0919 42.9892 40.3403 42.9892 40.6218V44.4309C42.9892 45.2589 42.3268 45.9213 41.4987 45.9213H38.6834V46.1366C38.6171 47.7099 37.3916 48.9686 35.8017 49.0845C35.7521 49.0845 35.6858 49.0845 35.603 49.0845ZM29.8563 44.3149H33.5163C33.7813 44.3149 34.0463 44.464 34.1953 44.6793C34.3444 44.8946 34.3775 45.1927 34.2781 45.4411C34.1953 45.6232 34.1622 45.822 34.1622 46.0041C34.1622 46.4182 34.3444 46.8156 34.6425 47.0972C34.9406 47.3787 35.338 47.5112 35.7521 47.4946C36.4973 47.445 37.0935 46.8322 37.1266 46.1035C37.1432 45.8882 37.0935 45.6729 37.0107 45.4742C36.8948 45.2258 36.9279 44.9442 37.0935 44.7124C37.2425 44.4971 37.491 44.348 37.7725 44.348H41.449V41.6817C40.5713 41.6983 39.7433 41.3671 39.1471 40.7377C38.5674 40.125 38.2693 39.2969 38.2859 38.4358C38.3853 36.8625 39.6108 35.6038 41.1675 35.5045C41.2503 35.5045 41.3497 35.4879 41.4159 35.4879V32.805H37.7559C37.491 32.805 37.226 32.656 37.0769 32.4407C36.9279 32.2254 36.8948 31.9273 36.9941 31.6789C37.0935 31.4801 37.1266 31.2648 37.1101 31.0496C37.0769 30.3209 36.4807 29.7081 35.7355 29.6584C35.3215 29.6253 34.924 29.7909 34.6259 30.0725C34.3278 30.354 34.1622 30.7349 34.1622 31.1489C34.1622 31.3311 34.1953 31.5298 34.2781 31.712C34.3941 31.9604 34.3609 32.2419 34.1953 32.4738C34.0297 32.6891 33.7979 32.8381 33.5163 32.8381H29.8729V35.521H30.1048C31.6781 35.6204 32.9201 36.8625 33.0195 38.4358C33.0692 39.3135 32.7711 40.125 32.1583 40.7377C31.5621 41.3671 30.7175 41.7148 29.8563 41.6983V44.3149Z" fill="#0458B9"></path></svg>