<svg xmlns="http://www.w3.org/2000/svg" width="57" height="57" viewBox="0 0 57 57" fill="none"><path d="M15.6285 47.8064C21.2044 47.8064 25.7414 43.2694 25.7414 37.6935C25.7414 32.1176 21.2044 27.5806 15.6285 27.5806C10.0526 27.5806 5.51562 32.1176 5.51562 37.6935C5.51562 43.2694 10.0526 47.8064 15.6285 47.8064ZM7.40858 38.6128H11.1246C11.4914 40.4111 12.9109 41.8306 14.7092 42.1974V45.9134C10.8801 45.4878 7.83424 42.4419 7.40858 38.6128ZM15.6285 34.9354C17.1491 34.9354 18.3866 36.1729 18.3866 37.6935C18.3866 39.2141 17.1491 40.4515 15.6285 40.4515C14.1079 40.4515 12.8705 39.2141 12.8705 37.6935C12.8705 36.1729 14.1079 34.9354 15.6285 34.9354ZM16.5479 45.9134V42.1974C18.3461 41.8306 19.7656 40.4111 20.1324 38.6128H23.8485C23.4228 42.4419 20.377 45.4878 16.5479 45.9134ZM23.8485 36.7741H20.1324C19.7656 34.9759 18.3461 33.5564 16.5479 33.1896V29.4735C20.377 29.8992 23.4228 32.945 23.8485 36.7741ZM14.7092 29.4735V33.1896C12.9109 33.5564 11.4914 34.9759 11.1246 36.7741H7.40858C7.83424 32.945 10.8801 29.8992 14.7092 29.4735Z" fill="#047BDC"></path><path d="M31.2578 18.3872C31.2578 24.4706 36.2067 29.4195 42.2901 29.4195C48.3734 29.4195 53.3223 24.4706 53.3223 18.3872C53.3223 12.3039 48.3734 7.35498 42.2901 7.35498C36.2067 7.35498 31.2578 12.3039 31.2578 18.3872ZM51.4836 18.3872C51.4836 23.4566 47.3594 27.5808 42.2901 27.5808C37.2207 27.5808 33.0965 23.4566 33.0965 18.3872C33.0965 13.3179 37.2207 9.19369 42.2901 9.19369C47.3594 9.19369 51.4836 13.3179 51.4836 18.3872Z" fill="#047BDC"></path><path d="M45.9677 32.6123C52.3012 30.9731 57 25.2262 57 18.3871C57 10.5864 50.8918 4.20237 43.2097 3.72431V0H4.59677V26.6227L2.15313 29.0663L3.35932 31.4098C3.02652 32.0625 2.74335 32.7483 2.51444 33.459L0 34.2653V41.1227L2.51352 41.9281C2.74244 42.6397 3.0256 43.3264 3.3584 43.9773L2.15221 46.3208L4.59677 48.7644V57H43.2097V49.5523C45.3049 49.1248 46.8871 47.2686 46.8871 45.0484V37.6936C46.8871 36.7144 46.3704 35.8576 45.5991 35.3685C45.8271 34.9667 45.9677 34.5098 45.9677 34.0161V32.6123ZM43.2097 34.9355H41.371C40.8635 34.9355 40.4516 34.5236 40.4516 34.0161V32.969C41.0556 33.0453 41.6661 33.0968 42.2903 33.0968C42.9146 33.0968 43.525 33.0453 44.129 32.969V34.0161C44.129 34.5236 43.7172 34.9355 43.2097 34.9355ZM55.1613 18.3871C55.1613 25.4845 49.3877 31.2581 42.2903 31.2581C35.1929 31.2581 29.4194 25.4845 29.4194 18.3871C29.4194 11.2897 35.1929 5.51613 42.2903 5.51613C49.3877 5.51613 55.1613 11.2897 55.1613 18.3871ZM5.19803 43.5204C4.75306 42.7243 4.39635 41.8591 4.13894 40.949L4.00471 40.4737L1.83871 39.7814V35.6066L4.00471 34.9134L4.13894 34.4381C4.39544 33.5298 4.75215 32.6638 5.19895 31.8667L5.43982 31.4355L4.40095 29.4184L7.35392 26.4655L9.37098 27.5043L9.80216 27.2635C10.5992 26.8167 11.4653 26.46 12.3736 26.2035L12.8489 26.0692L13.5412 23.9032H17.716L18.4092 26.0692L18.8845 26.2035C19.7928 26.46 20.6588 26.8167 21.4559 27.2635L21.8871 27.5043L23.9041 26.4655L26.8571 29.4184L25.8182 31.4355L26.0591 31.8667C26.5059 32.6638 26.8626 33.5298 27.1191 34.4381L27.2534 34.9134L29.4194 35.6057V39.7805L27.2534 40.4737L27.1191 40.949C26.8617 41.8591 26.505 42.7243 26.06 43.5204L25.8182 43.9507L26.8571 45.9687L23.9041 48.9207L21.8862 47.8828L21.4559 48.1245C20.6597 48.5695 19.7946 48.9262 18.8845 49.1836L18.4092 49.3179L17.7169 51.4839H13.5421L12.8489 49.3179L12.3736 49.1836C11.4634 48.9262 10.5983 48.5695 9.80216 48.1245L9.3719 47.8828L7.35392 48.9207L4.40095 45.9687L5.43982 43.9507L5.19803 43.5204ZM6.43548 55.1613V50.6022L7.00181 51.1685L9.34524 49.9633C9.99615 50.2961 10.6829 50.5792 11.3945 50.8081L12.2008 53.3226H19.0582L19.8636 50.8091C20.5752 50.5801 21.2619 50.297 21.9128 49.9642L24.2563 51.1695L29.1049 46.3217L27.8987 43.9783C28.2316 43.3264 28.5147 42.6406 28.7436 41.929L31.2581 41.1218V34.2644L28.7445 33.459C28.5156 32.7483 28.2325 32.0616 27.8997 31.4098L29.1059 29.0663L24.2572 24.2176L21.9137 25.4238C21.261 25.091 20.5752 24.8079 19.8645 24.579L19.0573 22.0645H12.1998L11.3945 24.578C10.6838 24.807 9.99706 25.0901 9.34524 25.4229L7.00181 24.2167L6.43548 24.784V1.83871H41.371V3.72431C33.6888 4.20237 27.5806 10.5864 27.5806 18.3871C27.5806 25.2262 32.2795 30.9731 38.6129 32.6123V34.0161C38.6129 34.5098 38.7536 34.9667 38.9816 35.3685C38.2102 35.8576 37.6936 36.7144 37.6936 37.6936V45.0484C37.6936 47.2677 39.2758 49.1248 41.371 49.5523V55.1613H6.43548ZM45.0484 45.0484C45.0484 46.569 43.8109 47.8065 42.2903 47.8065C40.7697 47.8065 39.5323 46.569 39.5323 45.0484V37.6936C39.5323 37.1861 39.9441 36.7742 40.4516 36.7742H41.371H43.2097H44.129C44.6365 36.7742 45.0484 37.1861 45.0484 37.6936V45.0484Z" fill="#047BDC"></path><path d="M37.425 18.6568L36.125 19.9567L39.533 23.3648L48.4572 14.4406L47.1573 13.1406L39.533 20.7648L37.425 18.6568Z" fill="#047BDC"></path><path d="M8.27539 12.8708H26.6625V3.67725H8.27539V12.8708ZM10.1141 5.51596H24.8238V11.0321H10.1141V5.51596Z" fill="#047BDC"></path><path d="M8.27539 14.7095H10.1141V16.5482H8.27539V14.7095Z" fill="#047BDC"></path><path d="M11.9531 14.7095H25.7434V16.5482H11.9531V14.7095Z" fill="#047BDC"></path><path d="M8.27539 18.3867H25.7431V20.2254H8.27539V18.3867Z" fill="#047BDC"></path><path d="M29.4199 51.4839H36.7748V53.3226H29.4199V51.4839Z" fill="#047BDC"></path><path d="M29.4199 47.8062H36.7748V49.6449H29.4199V47.8062Z" fill="#047BDC"></path></svg>