<svg xmlns="http://www.w3.org/2000/svg" width="74" height="74" viewBox="0 0 74 74" fill="none"><path d="M17.3636 43.5611C15.5556 43.5611 14.0908 42.0963 14.0908 40.2884C14.0908 38.4826 15.5541 37.0156 17.3636 37.0156H21.7272" stroke="#047BDC" stroke-width="2" stroke-miterlimit="10" stroke-linecap="round" stroke-linejoin="round"></path><path d="M21.7266 37.0145L26.3505 34.1243C28.1367 33.0087 30.4538 34.2931 30.4538 36.3992V44.1752C30.4538 46.2815 28.1367 47.5657 26.3505 46.4501L21.7266 43.56V37.0145Z" stroke="#047BDC" stroke-width="2" stroke-miterlimit="10" stroke-linecap="round" stroke-linejoin="round"></path><path d="M17.3633 43.5605V49.015C17.3633 50.2195 18.3407 51.1969 19.5452 51.1969C20.7495 51.1969 21.727 50.2195 21.727 49.015V43.5605H17.3633Z" stroke="#047BDC" stroke-width="2" stroke-miterlimit="10" stroke-linecap="round" stroke-linejoin="round"></path><path d="M26.7983 73H59.1824C66.8141 73 73 66.8141 73 59.1824C73 57.315 73 17.066 73 14.8176C73 7.18591 66.8141 1 59.1824 1H14.8176C7.18591 1 1 7.18591 1 14.8176C1 17.066 1 57.315 1 59.1824C1 66.8141 7.18591 73 14.8176 73H21.7279" stroke="#047BDC" stroke-width="2" stroke-miterlimit="10" stroke-linecap="round" stroke-linejoin="round"></path><path d="M1 16.2715H73" stroke="#047BDC" stroke-width="2" stroke-miterlimit="10" stroke-linecap="round" stroke-linejoin="round"></path><path d="M61.0002 10.8169C62.2053 10.8169 63.1821 9.84002 63.1821 8.635C63.1821 7.42998 62.2053 6.45312 61.0002 6.45312C59.7952 6.45312 58.8184 7.42998 58.8184 8.635C58.8184 9.84002 59.7952 10.8169 61.0002 10.8169Z" stroke="#047BDC" stroke-width="2" stroke-miterlimit="10" stroke-linecap="round" stroke-linejoin="round"></path><path d="M51.1819 10.8169C52.3869 10.8169 53.3637 9.84002 53.3637 8.635C53.3637 7.42998 52.3869 6.45312 51.1819 6.45312C49.9769 6.45312 49 7.42998 49 8.635C49 9.84002 49.9769 10.8169 51.1819 10.8169Z" stroke="#047BDC" stroke-width="2" stroke-miterlimit="10" stroke-linecap="round" stroke-linejoin="round"></path><path d="M41.3635 10.8169C42.5685 10.8169 43.5454 9.84002 43.5454 8.635C43.5454 7.42998 42.5685 6.45312 41.3635 6.45312C40.1585 6.45312 39.1816 7.42998 39.1816 8.635C39.1816 9.84002 40.1585 10.8169 41.3635 10.8169Z" stroke="#047BDC" stroke-width="2" stroke-miterlimit="10" stroke-linecap="round" stroke-linejoin="round"></path><path d="M51.8879 23.9082H58.5519C62.3127 23.9082 65.3636 26.9577 65.3636 30.72V54.1873C65.3636 57.9481 62.3127 60.9991 58.5519 60.9991H44.7893C42.9335 60.9991 41.1574 61.735 39.8449 63.0461L36.9997 65.8913L34.1545 63.0461C32.8419 61.735 31.0658 60.9991 29.2101 60.9991H15.4475C11.6867 60.9991 8.63574 57.9481 8.63574 54.1873V30.72C8.63574 26.9577 11.6867 23.9082 15.4475 23.9082H46.8175" stroke="#047BDC" stroke-width="2" stroke-miterlimit="10" stroke-linecap="round" stroke-linejoin="round"></path><path d="M55.3637 54.4551H40.4546C37.944 54.4551 35.9092 52.4201 35.9092 49.9097V35.0005C35.9092 32.4899 37.9442 30.4551 40.4546 30.4551H55.3637C57.8743 30.4551 59.9091 32.4899 59.9091 35.0005V49.9096C59.9091 52.4201 57.8743 54.4551 55.3637 54.4551Z" stroke="#047BDC" stroke-width="2" stroke-miterlimit="10" stroke-linecap="round" stroke-linejoin="round"></path><path d="M40.2725 43.5465C44.428 33.85 43.2527 36.5926 43.5452 35.9102C43.8375 36.5923 42.6624 33.8501 46.8179 43.5465" stroke="#047BDC" stroke-width="2" stroke-miterlimit="10" stroke-linecap="round" stroke-linejoin="round"></path><path d="M51.7271 43.5465H51.1816V35.9102H51.7271C53.8362 35.9102 55.5452 37.6193 55.5452 39.7283C55.5452 40.7828 55.1176 41.7371 54.4267 42.428C53.7358 43.1188 52.7816 43.5465 51.7271 43.5465Z" stroke="#047BDC" stroke-width="2" stroke-miterlimit="10" stroke-linecap="round" stroke-linejoin="round"></path><path d="M45.8829 41.3633H41.208" stroke="#047BDC" stroke-width="2" stroke-miterlimit="10" stroke-linecap="round" stroke-linejoin="round"></path><path d="M40.2725 48.998H55.5452" stroke="#047BDC" stroke-width="2" stroke-miterlimit="10" stroke-linecap="round" stroke-linejoin="round"></path></svg>