<svg xmlns="http://www.w3.org/2000/svg" width="69" height="70" viewBox="0 0 69 70" fill="none"><path d="M53.5165 39.4693C48.7284 39.4693 44.4488 41.6859 41.6479 45.1459L29.9926 38.4168C30.3554 37.1141 30.5502 35.7424 30.5502 34.3257C30.5502 32.909 30.3554 31.5371 29.9926 30.2344L40.9432 23.9121C41.5351 24.7701 42.212 25.5652 42.9624 26.2843C43.0176 26.3487 43.0803 26.4074 43.1499 26.46C45.8743 28.9847 49.5179 30.5307 53.5164 30.5307C57.5151 30.5307 61.1588 28.9845 63.8833 26.4594C63.9524 26.4071 64.0147 26.3487 64.0695 26.2847C66.9717 23.5042 68.7816 19.5922 68.7816 15.2651C68.7818 6.84798 61.9338 0 53.5165 0C45.0992 0 38.2511 6.84798 38.2511 15.2653C38.2511 17.6151 38.7853 19.8424 39.7378 21.8329L29.1509 27.9453C26.7302 22.7055 21.4257 19.0603 15.2849 19.0603C6.86766 19.0603 0.0195312 25.9084 0.0195312 34.3257C0.0195312 38.6526 1.82947 42.5647 4.73161 45.3451C4.78659 45.4091 4.84893 45.4677 4.91818 45.52C7.64262 48.0448 11.2864 49.5909 15.2851 49.5909C19.2835 49.5909 22.9273 48.0449 25.6516 45.5203C25.7211 45.4677 25.7837 45.409 25.839 45.3445C27.2139 44.027 28.3431 42.4553 29.1512 40.7061L40.2825 47.1327C38.9909 49.3724 38.2514 51.9688 38.2514 54.7347C38.2514 59.0614 40.061 62.9733 42.9629 65.7537C43.018 65.8182 43.0808 65.8769 43.1503 65.9295C45.8745 68.454 49.5181 70 53.5165 70C57.5148 70 61.1582 68.4541 63.8827 65.9295C63.9525 65.8768 64.0156 65.8177 64.0709 65.753C66.9723 62.9725 68.7818 59.0609 68.7818 54.7346C68.7818 46.3173 61.9338 39.4693 53.5165 39.4693ZM45.4222 25.2514C47.2125 22.5513 50.2325 20.9082 53.5131 20.907C53.5143 20.907 53.5153 20.9072 53.5165 20.9072C53.5177 20.9072 53.5188 20.907 53.52 20.907C56.8002 20.9082 59.8204 22.5511 61.6108 25.2512C59.3986 27.0478 56.5818 28.1272 53.5165 28.1272C50.4512 28.1272 47.6344 27.0478 45.4222 25.2514ZM48.9294 13.9166C48.9294 11.3873 50.9872 9.32953 53.5165 9.32953C56.0458 9.32953 58.1035 11.3873 58.1035 13.9166C58.1035 16.4447 56.0476 18.5018 53.52 18.5036C53.5188 18.5036 53.5177 18.5036 53.5165 18.5036C53.5153 18.5036 53.5143 18.5036 53.5131 18.5036C50.9852 18.5016 48.9294 16.4447 48.9294 13.9166ZM53.5165 2.40343C60.6086 2.40343 66.3783 8.17318 66.3783 15.2653C66.3783 18.4154 65.2381 21.3031 63.3512 23.5418C61.9745 21.627 60.086 20.1752 57.9298 19.3331C59.5014 18.0501 60.507 16.0988 60.507 13.9166C60.507 10.0621 57.3712 6.9261 53.5167 6.9261C49.6622 6.9261 46.5261 10.0621 46.5261 13.9166C46.5261 16.0988 47.5318 18.0501 49.1034 19.3331C46.947 20.1752 45.0587 21.627 43.682 23.5419C41.795 21.3033 40.6547 18.4156 40.6547 15.2654C40.6545 8.17318 46.4244 2.40343 53.5165 2.40343ZM15.2849 21.4637C22.377 21.4637 28.1468 27.2336 28.1468 34.3257C28.1468 37.4758 27.0065 40.3634 25.1196 42.6021C23.7429 40.6873 21.8546 39.2355 19.6981 38.3933C21.2698 37.1104 22.2755 35.1591 22.2755 32.9769C22.2755 29.1224 19.1394 25.9865 15.2849 25.9865C11.4304 25.9865 8.2944 29.1224 8.2944 32.9769C8.2944 35.1591 9.30009 37.1105 10.8718 38.3933C8.7153 39.2355 6.82696 40.6873 5.45024 42.6022C3.56324 40.3636 2.42296 37.476 2.42296 34.3257C2.42296 27.2336 8.19286 21.4637 15.2849 21.4637ZM10.6978 32.9768C10.6978 30.4474 12.7556 28.3898 15.2849 28.3898C17.8143 28.3898 19.872 30.4474 19.872 32.9768C19.872 35.5061 17.8143 37.5639 15.2849 37.5639C12.7556 37.5639 10.6978 35.5061 10.6978 32.9768ZM7.19063 44.3115C8.98148 41.6105 12.0031 39.9673 15.2849 39.9673C18.5668 39.9673 21.5884 41.6105 23.3793 44.3115C21.167 46.1081 18.3502 47.1875 15.2849 47.1875C12.2197 47.1875 9.40284 46.1081 7.19063 44.3115ZM45.4222 64.7207C47.2125 62.0206 50.2325 60.3776 53.5131 60.3764C53.5143 60.3764 53.5153 60.3765 53.5165 60.3765C53.5177 60.3765 53.5188 60.3764 53.52 60.3764C56.8002 60.3776 59.8203 62.0205 61.6107 64.7206C59.3986 66.5171 56.5816 67.5966 53.5165 67.5966C50.4512 67.5966 47.6344 66.5171 45.4222 64.7207ZM48.9294 53.3858C48.9294 50.8565 50.9872 48.7987 53.5165 48.7987C56.0458 48.7987 58.1035 50.8565 58.1035 53.3858C58.1035 55.9139 56.0476 57.971 53.52 57.9728C53.5188 57.9728 53.5177 57.9728 53.5165 57.9728C53.5153 57.9728 53.5143 57.9728 53.5131 57.9728C50.9852 57.971 48.9294 55.9141 48.9294 53.3858ZM63.3511 63.0111C61.9743 61.0963 60.0858 59.6444 57.9297 58.8023C59.5012 57.5193 60.5069 55.568 60.5069 53.3858C60.5069 49.5313 57.371 46.3953 53.5165 46.3953C49.662 46.3953 46.526 49.5313 46.526 53.3858C46.526 55.568 47.5317 57.5193 49.1032 58.8023C46.9469 59.6444 45.0585 61.0962 43.6818 63.0111C41.7948 60.7725 40.6545 57.8847 40.6545 54.7346C40.6545 47.6425 46.4244 41.8728 53.5165 41.8728C60.6086 41.8728 66.3783 47.6425 66.3783 54.7346C66.3783 57.8847 65.2381 60.7725 63.3511 63.0111Z" fill="#0369CA"></path></svg>