<svg xmlns="http://www.w3.org/2000/svg" width="63" height="59" viewBox="0 0 63 59" fill="none"><path d="M57.0965 0H5.59546C2.75514 0 0.445312 2.38862 0.445312 5.32585V53.2581C0.445312 56.1953 2.75514 58.584 5.59546 58.584H57.0966C59.9368 58.584 62.2466 56.1953 62.2466 53.2581V5.32585C62.2466 2.38862 59.9368 0 57.0965 0ZM59.6716 53.2581C59.6716 54.7267 58.5167 55.921 57.0966 55.921H5.59546C4.17536 55.921 3.02045 54.7267 3.02045 53.2581V5.32585C3.02045 3.8573 4.17536 2.66299 5.59546 2.66299H57.0966C58.5167 2.66299 59.6716 3.8573 59.6716 5.32585V53.2581Z" fill="#047BDC"></path><path d="M9.45795 5.32812H8.17038C7.45967 5.32812 6.88281 5.92328 6.88281 6.65962C6.88281 7.39595 7.45967 7.99111 8.17038 7.99111H9.45795C10.1687 7.99111 10.7455 7.39595 10.7455 6.65962C10.7454 5.92328 10.1687 5.32812 9.45795 5.32812Z" fill="#047BDC"></path><path d="M15.8954 5.32812H14.6079C13.8972 5.32812 13.3203 5.92328 13.3203 6.65962C13.3203 7.39595 13.8972 7.99111 14.6079 7.99111H15.8954C16.6062 7.99111 17.183 7.39595 17.183 6.65962C17.183 5.92328 16.6062 5.32812 15.8954 5.32812Z" fill="#047BDC"></path><path d="M54.5165 5.32812H53.229C52.5169 5.32812 51.9414 5.92328 51.9414 6.65962C51.9414 7.39595 52.5169 7.99111 53.229 7.99111H54.5165C55.2286 7.99111 55.8041 7.39595 55.8041 6.65962C55.8041 5.92328 55.2286 5.32812 54.5165 5.32812Z" fill="#047BDC"></path><path d="M55.8074 10.6504H6.88132C6.1706 10.6504 5.59375 11.2455 5.59375 11.9819C5.59375 12.7182 6.1706 13.3134 6.88132 13.3134H55.8073C56.5194 13.3134 57.0949 12.7182 57.0949 11.9819C57.0949 11.2455 56.5194 10.6504 55.8074 10.6504Z" fill="#047BDC"></path><path d="M42.9282 25.2949C42.2161 25.2949 41.6406 25.8901 41.6406 26.6264V39.941C41.6406 40.6773 42.2161 41.2725 42.9282 41.2725C43.6402 41.2725 44.2158 40.6773 44.2158 39.941V26.6264C44.2158 25.8901 43.6402 25.2949 42.9282 25.2949Z" fill="#047BDC"></path><path d="M33.9158 25.2949H30.0532C29.3425 25.2949 28.7656 25.8901 28.7656 26.6264V39.941C28.7656 40.6773 29.3425 41.2725 30.0532 41.2725C30.7639 41.2725 31.3408 40.6772 31.3408 39.9408V35.9465H33.9158C36.7496 35.9465 37.7784 33.5579 37.7784 31.9521V29.2893C37.7784 26.3588 35.4685 25.2949 33.9158 25.2949ZM35.2033 31.9362C35.1879 32.5513 34.9536 33.2836 33.9158 33.2836H31.3408V27.9578H33.9003C34.4952 27.9738 35.2033 28.2162 35.2033 29.2893V31.9362Z" fill="#047BDC"></path><path d="M45.5041 25.2949H40.354C39.6419 25.2949 39.0664 25.8901 39.0664 26.6264C39.0664 27.3628 39.6419 27.9579 40.354 27.9579H45.5041C46.2162 27.9579 46.7917 27.3628 46.7917 26.6264C46.7917 25.8901 46.2162 25.2949 45.5041 25.2949Z" fill="#047BDC"></path><path d="M45.5041 38.6113H40.354C39.6419 38.6113 39.0664 39.2065 39.0664 39.9428C39.0664 40.6792 39.6419 41.2743 40.354 41.2743H45.5041C46.2162 41.2743 46.7917 40.6792 46.7917 39.9428C46.7917 39.2065 46.2162 38.6113 45.5041 38.6113Z" fill="#047BDC"></path><path d="M21.0447 25.2949C18.2044 25.2949 15.8945 27.6835 15.8945 30.6208V39.941C15.8945 40.6773 16.4714 41.2725 17.1821 41.2725C17.8928 41.2725 18.4697 40.6773 18.4697 39.941V30.6208C18.4697 29.1522 19.6246 27.9579 21.0447 27.9579C22.4648 27.9579 23.6197 29.1522 23.6197 30.6208V39.941C23.6197 40.6773 24.1965 41.2725 24.9073 41.2725C25.618 41.2725 26.1948 40.6773 26.1948 39.941V30.6208C26.1947 27.6835 23.8849 25.2949 21.0447 25.2949Z" fill="#047BDC"></path><path d="M24.9073 33.2871H17.1821C16.4714 33.2871 15.8945 33.8823 15.8945 34.6186C15.8945 35.3549 16.4714 35.9501 17.1821 35.9501H24.9073C25.618 35.9501 26.1948 35.3549 26.1948 34.6186C26.1947 33.8823 25.618 33.2871 24.9073 33.2871Z" fill="#047BDC"></path></svg>