<svg xmlns="http://www.w3.org/2000/svg" width="74" height="64" viewBox="0 0 74 64" fill="none"><path d="M3.44894 14.8981H3.24894V15.0981V59.3281C3.24894 60.4723 4.19252 61.398 5.34651 61.398H68.6572C69.8112 61.398 70.7548 60.4723 70.7548 59.3281V44.1056C70.7548 43.4452 71.2987 42.9046 71.9765 42.9046C72.6543 42.9046 73.1983 43.4452 73.1983 44.1056V59.3281C73.1983 61.7909 71.1633 63.8 68.6572 63.8H5.34651C2.8404 63.8 0.805469 61.7909 0.805469 59.3281V4.67194C0.805469 2.20948 2.84042 0.2 5.34651 0.2H68.6572C71.1633 0.2 73.1983 2.20948 73.1983 4.67194V28.1341C73.1983 28.7949 72.6544 29.3351 71.9765 29.3351C71.2987 29.3351 70.7548 28.7949 70.7548 28.1341V15.0981V14.8981H70.5548H3.44894ZM3.24894 12.2961V12.4961H3.44894H70.5548H70.7548V12.2961V4.67194C70.7548 3.52767 69.8112 2.60203 68.6572 2.60203H5.34651C4.19252 2.60203 3.24894 3.52767 3.24894 4.67194V12.2961Z" fill="#0369CA" stroke="#FFFCFC" stroke-width="0.4"></path><path d="M12.31 8.74997H11.078C10.4006 8.74997 9.85625 8.20937 9.85625 7.54896C9.85625 6.88816 10.4006 6.34795 11.078 6.34795H12.31C12.9874 6.34795 13.5317 6.88816 13.5317 7.54896C13.5317 8.20937 12.9874 8.74997 12.31 8.74997Z" fill="#0369CA" stroke="#FFFCFC" stroke-width="0.4"></path><path d="M19.3256 8.74997H18.0936C17.4162 8.74997 16.8719 8.20937 16.8719 7.54896C16.8719 6.88816 17.4162 6.34795 18.0936 6.34795H19.3256C20.0035 6.34795 20.5474 6.88812 20.5474 7.54896C20.5474 8.20941 20.0034 8.74997 19.3256 8.74997Z" fill="#0369CA" stroke="#FFFCFC" stroke-width="0.4"></path><path d="M26.3417 8.74997H25.1092C24.4323 8.74997 23.8875 8.20933 23.8875 7.54896C23.8875 6.8882 24.4322 6.34795 25.1092 6.34795H26.3417C27.0191 6.34795 27.5634 6.88816 27.5634 7.54896C27.5634 8.20937 27.0191 8.74997 26.3417 8.74997Z" fill="#0369CA" stroke="#FFFCFC" stroke-width="0.4"></path><path d="M57.1462 8.74997H33.7342C33.0568 8.74997 32.5125 8.20937 32.5125 7.54896C32.5125 6.88816 33.0568 6.34795 33.7342 6.34795H57.1462C57.824 6.34795 58.3679 6.88812 58.3679 7.54896C58.3679 8.20941 57.824 8.74997 57.1462 8.74997Z" fill="#0369CA" stroke="#FFFCFC" stroke-width="0.4"></path><path d="M62.6855 8.72571L62.6853 8.72568C62.6061 8.71007 62.5295 8.68742 62.4577 8.65779L62.457 8.65751C62.3836 8.62753 62.3121 8.58971 62.2441 8.54575C62.1794 8.50356 62.1175 8.45302 62.0587 8.3963C62.005 8.3436 61.9553 8.28211 61.9079 8.21398C61.8641 8.14808 61.8264 8.07822 61.7961 8.00647C61.7658 7.93488 61.7426 7.85966 61.727 7.78277L61.7269 7.7824C61.7112 7.70555 61.7039 7.62756 61.7039 7.54935C61.7039 7.46926 61.7112 7.39128 61.7269 7.31455L61.727 7.31418C61.7425 7.23809 61.7655 7.16397 61.7963 7.08996C61.8268 7.01784 61.8645 6.94823 61.9078 6.88429C61.9537 6.81716 62.0036 6.75631 62.0597 6.69973C62.1164 6.64516 62.1781 6.59584 62.2455 6.55033C62.3121 6.50735 62.3831 6.47051 62.457 6.44031L62.457 6.44031L62.4577 6.44004C62.5306 6.40994 62.6073 6.38664 62.6853 6.37127L62.6858 6.37116C62.844 6.33955 63.0061 6.33959 63.163 6.37113L63.1639 6.3713C63.2423 6.38666 63.319 6.40997 63.3926 6.44018L63.3929 6.44031C63.4678 6.4709 63.5396 6.50787 63.6045 6.55032C63.6732 6.59615 63.7349 6.6453 63.7895 6.69901C63.8467 6.75661 63.8971 6.81727 63.9405 6.88254L63.9405 6.88255L63.942 6.88474C63.9852 6.94789 64.0224 7.01723 64.0532 7.08997C64.0842 7.16447 64.1076 7.23848 64.1229 7.31388C64.1388 7.39367 64.1474 7.47188 64.1474 7.54935C64.1474 7.62495 64.1388 7.70313 64.1229 7.78306C64.1074 7.85925 64.0839 7.9344 64.0534 8.00647C64.0227 8.07919 63.9852 8.14917 63.9412 8.21457C63.8963 8.28105 63.8456 8.34302 63.7907 8.39676L63.7902 8.39723C63.7349 8.4518 63.6717 8.50249 63.6058 8.54576C63.537 8.59 63.4659 8.62771 63.3929 8.65751L63.3926 8.65765C63.3201 8.6874 63.2435 8.71005 63.1639 8.72564L63.1632 8.72579C63.0828 8.74187 63.0031 8.75036 62.9256 8.75036C62.8464 8.75036 62.7671 8.74187 62.6855 8.72571Z" fill="#0369CA" stroke="#FFFCFC" stroke-width="0.4"></path><path d="M71.1874 37.4907C71.2638 37.541 71.3464 37.5844 71.4335 37.6194C71.5188 37.6544 71.6081 37.6811 71.6992 37.6995L71.1874 37.4907ZM71.1874 37.4907C71.1092 37.4403 71.0367 37.3812 70.9714 37.3169M71.1874 37.4907L70.9714 37.3169M70.9714 37.3169C70.9057 37.2529 70.8461 37.1811 70.795 37.1041M70.9714 37.3169L70.795 37.1041M70.795 37.1041C70.7435 37.0283 70.6995 36.9469 70.664 36.8615M70.795 37.1041L70.664 36.8615M70.664 36.8615C70.6284 36.7779 70.6 36.689 70.5831 36.5997M70.664 36.8615L70.5831 36.5997M70.5831 36.5997C70.5645 36.51 70.5547 36.4176 70.5547 36.3261C70.5547 36.2354 70.5645 36.1431 70.5831 36.0533M70.5831 36.5997V36.0533M70.5831 36.0533C70.6 35.9636 70.6284 35.8751 70.664 35.7915M70.5831 36.0533L70.664 35.7915M70.664 35.7915C70.6995 35.7061 70.7435 35.6247 70.795 35.549L70.664 35.7915ZM71.7383 37.5034C71.6593 37.4874 71.5824 37.4643 71.5095 37.4344L71.5095 37.4344L71.5081 37.4338C71.4334 37.4038 71.3626 37.3666 71.2974 37.3237L71.2974 37.3237L71.2956 37.3225C71.23 37.2802 71.1682 37.23 71.1118 37.1744L71.1108 37.1734C71.0554 37.1195 71.005 37.0588 70.9617 36.9936L70.9617 36.9935L70.9604 36.9916C70.9166 36.9272 70.879 36.8577 70.8486 36.7847L70.8486 36.7847L70.848 36.7833C70.8173 36.7109 70.7935 36.6358 70.7796 36.5626L70.7797 36.5626L70.7789 36.559C70.763 36.4822 70.7547 36.4035 70.7547 36.3261C70.7547 36.2496 70.763 36.1709 70.7789 36.094L70.779 36.094L70.7797 36.0903C70.7935 36.0169 70.8172 35.9423 70.848 35.8697L70.8481 35.8697L70.8486 35.8684C70.879 35.7953 70.9166 35.7259 70.9604 35.6615L70.9604 35.6615L70.9617 35.6595C71.005 35.5942 71.0554 35.5335 71.1108 35.4796L71.1108 35.4796L71.1118 35.4786C71.1678 35.4234 71.2298 35.3728 71.2965 35.3287C71.3626 35.2863 71.4339 35.249 71.5075 35.2189C71.5843 35.1879 71.6606 35.1642 71.736 35.1501L71.736 35.1501L71.738 35.1497C71.896 35.1184 72.0587 35.1185 72.2144 35.1496L72.2168 35.1501C72.2924 35.1643 72.3686 35.1879 72.4434 35.2187L72.4434 35.2187L72.4447 35.2192C72.5191 35.2491 72.5902 35.2863 72.6563 35.3287C72.723 35.3728 72.785 35.4234 72.841 35.4786L72.8412 35.4787C73.0681 35.702 73.1982 36.012 73.1982 36.3261C73.1982 36.4055 73.1908 36.4841 73.1752 36.559L73.1751 36.5599C73.1598 36.6353 73.1356 36.7108 73.1048 36.7833L73.1048 36.7833L73.1042 36.7847C73.0738 36.8577 73.0363 36.9272 72.9924 36.9916L72.9924 36.9916L72.9911 36.9936C72.9483 37.0581 72.8978 37.1184 72.841 37.1744C72.7847 37.23 72.7229 37.2802 72.6572 37.3225L72.6572 37.3225L72.6554 37.3237C72.5903 37.3666 72.5195 37.4038 72.4447 37.4338L72.4447 37.4338L72.4434 37.4344C72.3705 37.4643 72.2936 37.4874 72.2145 37.5034C72.1356 37.5189 72.055 37.5271 71.9764 37.5271C71.8979 37.5271 71.8172 37.5189 71.7383 37.5034Z" fill="#0369CA" stroke="#FFFCFC" stroke-width="0.4"></path><path d="M11.0061 38.5959L11.0061 38.5959L21.6154 28.1422C21.6154 28.1422 21.6154 28.1422 21.6154 28.1422C21.9818 27.7811 22.4691 27.582 22.9864 27.582C23.5033 27.582 23.991 27.7811 24.3575 28.1422C24.7241 28.5035 24.9267 28.9855 24.9267 29.4974C24.9267 30.0093 24.7241 30.4913 24.3575 30.8526L24.2171 30.7101L24.3575 30.8526L15.984 39.1031C15.7553 39.3289 15.6277 39.6342 15.6277 39.9511C15.6277 40.269 15.7553 40.5742 15.984 40.8L24.3575 49.0505L24.2171 49.193L24.3575 49.0505C24.7241 49.4118 24.9267 49.8938 24.9267 50.4057C24.9267 50.9176 24.7241 51.3996 24.3575 51.7609C23.991 52.122 23.5033 52.3211 22.9864 52.3211C22.4686 52.3211 21.9818 52.122 21.6154 51.7609L11.0063 41.3065L11.0061 38.5959ZM11.0061 38.5959C10.6396 38.9571 10.4364 39.4391 10.4364 39.9511M11.0061 38.5959L10.4364 39.9511M10.4364 39.9511C10.4364 40.4638 10.6394 40.9459 11.0061 41.3063L10.4364 39.9511ZM19.8853 53.4572L19.8852 53.4571L9.27644 43.0034C8.44832 42.1874 7.99297 41.1041 7.99297 39.9511C7.99297 38.799 8.44831 37.7158 9.27644 36.8997L19.8852 26.4455C20.7134 25.6294 21.8136 25.18 22.9864 25.18C24.1588 25.18 25.2594 25.6294 26.0876 26.4459L26.0876 26.446C26.9152 27.2611 27.3702 28.3447 27.3702 29.4974C27.3702 30.65 26.9153 31.7328 26.0875 32.5493L18.7199 39.8086L18.5753 39.9511L18.7199 40.0936L26.0876 47.3538C26.0876 47.3539 26.0876 47.3539 26.0876 47.3539C26.9153 48.1699 27.3706 49.2532 27.3706 50.4057C27.3706 51.5583 26.9153 52.6411 26.0876 53.4571C25.2594 54.2733 24.1587 54.7231 22.9864 54.7231C21.8136 54.7231 20.713 54.2733 19.8853 53.4572Z" fill="#0369CA" stroke="#FFFCFC" stroke-width="0.4"></path><path d="M49.6463 30.8526L49.6463 30.8526C49.2796 30.4913 49.0771 30.0093 49.0771 29.4974C49.0771 28.9855 49.2796 28.5035 49.6463 28.1422C50.0127 27.7811 50.5005 27.582 51.0174 27.582C51.5348 27.582 52.0219 27.7811 52.3891 28.142L52.3893 28.1422L62.9977 38.5959C63.3642 38.9571 63.5673 39.4391 63.5673 39.9511C63.5673 40.4638 63.3644 40.9459 62.9977 41.3063L49.6463 30.8526ZM49.6463 30.8526L58.0197 39.1031C58.2485 39.3289 58.3761 39.6342 58.3761 39.9511C58.3761 40.269 58.2485 40.5742 58.0197 40.8L49.6463 49.0505L49.7867 49.193L49.6463 49.0505C49.2796 49.4118 49.0771 49.8938 49.0771 50.4057C49.0771 50.9176 49.2796 51.3996 49.6463 51.7609C50.0127 52.122 50.5005 52.3211 51.0174 52.3211C51.5352 52.3211 52.022 52.122 52.3884 51.7609L62.9975 41.3065L49.6463 30.8526ZM55.2843 40.0936L55.4289 39.9511L55.2843 39.8087L47.9171 32.5492C47.9171 32.5492 47.9171 32.5492 47.9171 32.5492C47.0889 31.7332 46.6336 30.6495 46.6336 29.4974C46.6336 28.3448 47.089 27.2611 47.917 26.4456L47.9171 26.4455C48.7448 25.6294 49.8459 25.18 51.0174 25.18C52.1902 25.18 53.2908 25.6294 54.119 26.4455L64.7273 36.8997L64.8677 36.7572L64.7273 36.8997C65.5555 37.7158 66.0108 38.799 66.0108 39.9511C66.0108 41.1041 65.5555 42.1874 64.7273 43.0034L54.119 53.4571C53.2908 54.2733 52.1901 54.7231 51.0174 54.7231C49.845 54.7231 48.7444 54.2733 47.9171 53.4572L47.9171 53.4571C47.0889 52.6411 46.6336 51.5583 46.6336 50.4057C46.6336 49.2531 47.0889 48.1699 47.9171 47.3539L47.7767 47.2114L47.9171 47.3539L55.2843 40.0936Z" fill="#0369CA" stroke="#FFFCFC" stroke-width="0.4"></path><path d="M35.3012 29.1292L35.3012 29.1292L30.7396 48.8581L30.5448 48.813L30.7396 48.8581C30.2036 51.1761 31.6811 53.4961 34.0398 54.0258C34.3611 54.0979 34.6899 54.1348 35.017 54.1348C37.0769 54.1348 38.8315 52.7517 39.2891 50.7749L43.8502 31.0452C44.1099 29.9217 43.9103 28.7662 43.2877 27.7903C42.6642 26.8139 41.6924 26.1348 40.55 25.8779L35.3012 29.1292ZM35.3012 29.1292C35.837 26.8097 38.1903 25.3481 40.5499 25.8779L35.3012 29.1292ZM33.1223 49.3906L33.1223 49.3905L37.6838 29.6613C37.6838 29.6612 37.6838 29.6612 37.6838 29.6612C37.8892 28.7723 38.6921 28.1723 39.5755 28.1723C39.7173 28.1723 39.8613 28.1874 40.0064 28.2201M33.1223 49.3906L39.9624 28.4152M33.1223 49.3906C32.884 50.4231 33.542 51.4502 34.584 51.6841L34.5841 51.6841C34.7267 51.7161 34.872 51.7327 35.017 51.7327C35.9115 51.7327 36.706 51.1082 36.9064 50.2425L36.9064 50.2425L41.4675 30.5131L41.4675 30.5131C41.5827 30.0141 41.4941 29.4995 41.2178 29.0668M33.1223 49.3906L41.0492 29.1743M40.0064 28.2201L39.9624 28.4152M40.0064 28.2201C40.0064 28.22 40.0064 28.22 40.0064 28.22L39.9624 28.4152M40.0064 28.2201C40.5103 28.3335 40.9415 28.6338 41.2178 29.0668M39.9624 28.4152C40.4156 28.5172 40.8017 28.7864 41.0492 29.1743M41.2178 29.0668C41.2178 29.0667 41.2177 29.0667 41.2177 29.0667L41.0492 29.1743M41.2178 29.0668L41.0492 29.1743" fill="#0369CA" stroke="#FFFCFC" stroke-width="0.4"></path></svg>