<svg xmlns="http://www.w3.org/2000/svg" width="67" height="68" viewBox="0 0 67 68" fill="none"><path d="M65.8951 0H26.9823V0.00191935C26.7478 0.00191935 26.5163 0.0743065 26.3235 0.216339C26.0428 0.423218 25.8774 0.749782 25.8774 1.09677V8.6689H16.997C16.3868 8.6689 15.8921 9.15998 15.8921 9.76568V32.7738C6.9714 33.7196 0 41.2347 0 50.3363C0 60.0761 7.98285 68 17.7954 68C23.6097 68 28.7815 65.2176 32.0308 60.9239H55.9098C56.52 60.9239 57.0147 60.4328 57.0147 59.8271V52.255H65.8951C66.5053 52.255 67 51.7639 67 51.1582V1.09677C67 0.491081 66.5054 0 65.8951 0ZM28.0873 2.57358L48.4269 8.6689H28.0873V2.57358ZM17.7954 65.8064C9.20147 65.8064 2.2099 58.8665 2.2099 50.3363C2.2099 41.8062 9.20147 34.8662 17.7954 34.8662C26.3892 34.8662 33.3808 41.806 33.3808 50.3363C33.3808 58.8666 26.3892 65.8064 17.7954 65.8064ZM54.8048 58.7303H33.4496C34.2574 57.2519 34.8585 55.6466 35.2149 53.9532H47.6739C48.2841 53.9532 48.7788 53.4621 48.7788 52.8564C48.7788 52.2507 48.2841 51.7597 47.6739 51.7597H35.5327C35.5705 51.29 35.5907 50.8153 35.5907 50.3362C35.5907 49.3319 35.5045 48.3476 35.3415 47.3886H47.674C48.2842 47.3886 48.779 46.8975 48.779 46.2918C48.779 45.6861 48.2842 45.195 47.674 45.195H34.8211C34.3425 43.6364 33.653 42.1681 32.7843 40.824H47.674C48.2842 40.824 48.779 40.3329 48.779 39.7272C48.779 39.1215 48.2842 38.6304 47.674 38.6304H31.1096C27.9102 35.0492 23.2712 32.7635 18.1018 32.6763V10.8625H54.8048V58.7303ZM64.7901 50.0614H57.0147V9.76568C57.0147 9.27021 56.6835 8.85179 56.229 8.71579L34.4652 2.19355H64.7901V50.0614ZM27.8631 34.147H45.0435C46.3481 34.147 47.4094 33.0935 47.4094 31.7986V17.2486C47.4094 15.9537 46.3481 14.9004 45.0435 14.9004H27.8631C26.5586 14.9004 25.4974 15.9538 25.4974 17.2486V31.7986C25.4974 33.0935 26.5587 34.147 27.8631 34.147ZM45.0435 31.9534H27.8631C27.7786 31.9534 27.7073 31.8825 27.7073 31.7986V28.3312L32.283 24.8892L34.4034 27.2635L33.4308 28.1445C32.98 28.5527 32.9481 29.2464 33.3594 29.6939C33.5773 29.931 33.8761 30.0513 34.176 30.0513C34.4418 30.0513 34.7085 29.9566 34.9204 29.7647L41.756 23.573L45.1993 28.1504V31.7985C45.1995 31.8825 45.1281 31.9534 45.0435 31.9534ZM27.8631 17.0938H45.0435C45.1281 17.0938 45.1995 17.1647 45.1995 17.2484V24.4841L42.7973 21.2909C42.6107 21.0427 42.3272 20.8845 42.0167 20.8552C41.706 20.8257 41.3976 20.9282 41.1672 21.1369L36.036 25.7847L33.258 22.6742C32.875 22.2453 32.2239 22.1814 31.7638 22.5276L27.7073 25.579V17.2486C27.7073 17.1647 27.7787 17.0938 27.8631 17.0938ZM34.6795 21.4884C34.6795 20.7281 35.3005 20.1117 36.0665 20.1117C36.8325 20.1117 37.4535 20.7281 37.4535 21.4884C37.4535 22.2488 36.8325 22.8651 36.0665 22.8651C35.3005 22.865 34.6795 22.2488 34.6795 21.4884ZM27.5663 49.1096C27.5663 47.5615 26.5268 46.2504 25.1028 45.8261V41.6711C25.1028 40.847 24.6749 40.1066 23.9581 39.6902C23.2412 39.2741 22.3813 39.2667 21.6576 39.6707C21.2159 39.9172 20.762 40.1773 20.2972 40.4437C17.8618 41.8396 15.1054 43.4195 12.3127 44.0156L8.25066 44.0155C5.44961 44.0155 3.17065 46.2776 3.17065 49.0579C3.17065 51.8383 5.44961 54.1003 8.25066 54.1003H8.37358V58.0355C8.37358 59.8359 9.84925 61.3005 11.6629 61.3005H12.4274C13.0376 61.3005 13.5323 60.8094 13.5323 60.2037V54.3587C16.4143 55.0975 18.9767 56.6081 21.5533 58.2283C21.9355 58.4685 22.3611 58.5893 22.7883 58.5893C23.1694 58.5893 23.5516 58.4932 23.905 58.3001C24.6547 57.8906 25.1022 57.1389 25.1022 56.2896V52.3932C26.526 51.9698 27.5663 50.6584 27.5663 49.1096ZM13.5327 45.9762C15.6948 45.4017 17.747 44.3874 19.6474 43.3366V54.5357C17.7499 53.4942 15.7317 52.5983 13.5327 52.1054V45.9762ZM5.38069 49.058C5.38069 47.4872 6.66823 46.2092 8.25066 46.2092L11.3228 46.2093L11.3227 51.9069H8.2508C6.66823 51.9069 5.38069 50.6289 5.38069 49.058ZM10.5836 58.0357V54.1004H11.3227V59.0527C10.8937 58.9108 10.5836 58.5085 10.5836 58.0357ZM22.8929 56.2899C22.8929 56.3385 22.883 56.3551 22.84 56.3786C22.7969 56.402 22.7777 56.4015 22.7363 56.3754C22.4459 56.1928 22.1524 56.0105 21.8573 55.829V42.0834C22.1562 41.9125 22.452 41.744 22.7408 41.5828C22.7825 41.5594 22.8008 41.5595 22.8422 41.5836C22.8839 41.6079 22.8929 41.6234 22.8929 41.6712V56.2899ZM25.1028 49.854V48.3654C25.2612 48.5726 25.3564 48.8299 25.3564 49.1096C25.3564 49.3893 25.2611 49.6467 25.1028 49.854ZM27.2791 45.906C26.8475 45.4777 26.8475 44.7833 27.2791 44.3551L28.4511 43.1918C28.8826 42.7635 29.5821 42.7635 30.0136 43.1918C30.4452 43.6201 30.4452 44.3145 30.0136 44.7428L28.8417 45.906C28.6259 46.1202 28.3432 46.2273 28.0603 46.2273C27.7775 46.2273 27.4949 46.1202 27.2791 45.906ZM32.4198 49.1096C32.4198 49.7153 31.925 50.2063 31.3148 50.2063H29.6574C29.0472 50.2063 28.5525 49.7153 28.5525 49.1096C28.5525 48.5039 29.0472 48.0128 29.6574 48.0128H31.3148C31.9252 48.0128 32.4198 48.5037 32.4198 49.1096ZM29.8298 53.401C30.2614 53.8293 30.2614 54.5237 29.8298 54.952C29.614 55.1661 29.3313 55.2732 29.0484 55.2732C28.7656 55.2732 28.4828 55.1661 28.2671 54.952L27.0952 53.7887C26.6635 53.3604 26.6635 52.666 27.0952 52.2377C27.5266 51.8094 28.2262 51.8094 28.6577 52.2377L29.8298 53.401Z" fill="#047BDC"></path></svg>