<svg xmlns="http://www.w3.org/2000/svg" width="57" height="57" viewBox="0 0 57 57" fill="none"><path d="M28.5003 35.8542C32.5556 35.8542 35.8552 32.5546 35.8552 28.4994C35.8552 24.4441 32.5556 21.1445 28.5003 21.1445C24.4451 21.1445 21.1455 24.4441 21.1455 28.4994C21.1455 32.5546 24.4451 35.8542 28.5003 35.8542ZM28.5003 22.9832C31.5425 22.9832 34.0165 25.4572 34.0165 28.4994C34.0165 31.5415 31.5425 34.0155 28.5003 34.0155C25.4582 34.0155 22.9842 31.5415 22.9842 28.4994C22.9842 25.4572 25.4582 22.9832 28.5003 22.9832Z" fill="#047BDC"></path><path d="M28.4997 32.1771C30.5278 32.1771 32.1771 30.5278 32.1771 28.4997C32.1771 26.4716 30.5278 24.8223 28.4997 24.8223C26.4716 24.8223 24.8223 26.4716 24.8223 28.4997C24.8223 30.5278 26.4716 32.1771 28.4997 32.1771ZM28.4997 26.661C29.5137 26.661 30.3384 27.4856 30.3384 28.4997C30.3384 29.5137 29.5137 30.3384 28.4997 30.3384C27.4856 30.3384 26.661 29.5137 26.661 28.4997C26.661 27.4856 27.4856 26.661 28.4997 26.661Z" fill="#047BDC"></path><path d="M22.4593 39.3617L24.0663 38.5931C24.2098 38.6566 24.3541 38.7172 24.4994 38.7733L25.0905 40.4521H31.9075L32.5005 38.7733C32.6448 38.7163 32.7892 38.6566 32.9335 38.5931L34.5405 39.3617L39.3616 34.5406L38.5931 32.9336C38.6565 32.7901 38.7172 32.6458 38.7733 32.5006L40.4511 31.9094V25.0924L38.7723 24.4994C38.7153 24.3551 38.6556 24.2107 38.5921 24.0664L39.3607 22.4594L34.5396 17.6383L32.9326 18.4068C32.7892 18.3434 32.6448 18.2827 32.4996 18.2267L31.9084 16.5488H25.0914L24.4984 18.2276C24.3541 18.2846 24.2098 18.3443 24.0654 18.4078L22.4584 17.6392L17.6373 22.4603L18.4059 24.0673C18.3424 24.2107 18.2818 24.3551 18.2257 24.5003L16.5479 25.0915V31.9085L18.2266 32.5015C18.2836 32.6458 18.3434 32.7902 18.4068 32.9345L17.6382 34.5415L22.4593 39.3617ZM18.3866 30.6076V26.3924L19.6663 25.941L19.8106 25.5199C19.9311 25.1678 20.0791 24.8129 20.2501 24.4654L20.4459 24.0655L19.8594 22.8391L22.8399 19.8585L24.0663 20.4451L24.4663 20.2492C24.8138 20.0782 25.1686 19.9311 25.5208 19.8098L25.9418 19.6654L26.3923 18.3875H30.6075L31.0589 19.6673L31.48 19.8116C31.8321 19.9321 32.187 20.0801 32.5345 20.2511L32.9344 20.4469L34.1609 19.8603L37.1414 22.8409L36.5549 24.0673L36.7507 24.4672C36.9217 24.8147 37.0688 25.1696 37.1901 25.5217L37.3345 25.9428L38.6124 26.3933V30.6085L37.3326 31.0599L37.1883 31.481C37.0679 31.8331 36.9198 32.188 36.7488 32.5355L36.553 32.9354L37.1396 34.1618L34.159 37.1424L32.9326 36.5558L32.5327 36.7516C32.1852 36.9226 31.8303 37.0697 31.4782 37.1911L31.0571 37.3354L30.6066 38.6133H26.3914L25.94 37.3336L25.5189 37.1893C25.1668 37.0688 24.8119 36.9208 24.4644 36.7498L24.0645 36.554L22.8381 37.1405L19.8575 34.16L20.4441 32.9336L20.2483 32.5337C20.0773 32.1861 19.9302 31.8313 19.8088 31.4792L19.6645 31.0581L18.3866 30.6076Z" fill="#047BDC"></path><path d="M11.9516 42.291H2.75806C1.23745 42.291 0 43.5285 0 45.0491V54.2426C0 55.7632 1.23745 57.0007 2.75806 57.0007H11.9516C13.4722 57.0007 14.7097 55.7632 14.7097 54.2426V45.0491C14.7097 43.5285 13.4722 42.291 11.9516 42.291ZM12.871 54.2426C12.871 54.7492 12.4582 55.162 11.9516 55.162H2.75806C2.2515 55.162 1.83871 54.7492 1.83871 54.2426V45.0491C1.83871 44.5425 2.2515 44.1297 2.75806 44.1297H11.9516C12.4582 44.1297 12.871 44.5425 12.871 45.0491V54.2426Z" fill="#047BDC"></path><path d="M54.2417 21.1445H45.0481C43.5275 21.1445 42.29 22.382 42.29 23.9026V33.0961C42.29 34.6168 43.5275 35.8542 45.0481 35.8542H54.2417C55.7623 35.8542 56.9997 34.6168 56.9997 33.0961V23.9026C56.9997 22.382 55.7623 21.1445 54.2417 21.1445ZM55.161 33.0961C55.161 33.6027 54.7482 34.0155 54.2417 34.0155H45.0481C44.5415 34.0155 44.1287 33.6027 44.1287 33.0961V23.9026C44.1287 23.396 44.5415 22.9832 45.0481 22.9832H54.2417C54.7482 22.9832 55.161 23.396 55.161 23.9026V33.0961Z" fill="#047BDC"></path><path d="M8.27369 14.7097H17.4672C18.9879 14.7097 20.2253 13.4722 20.2253 11.9516V2.75806C20.2253 1.23745 18.9879 0 17.4672 0H8.27369C6.75308 0 5.51562 1.23745 5.51562 2.75806V11.9516C5.51562 13.4722 6.75308 14.7097 8.27369 14.7097ZM7.35433 2.75806C7.35433 2.2515 7.76713 1.83871 8.27369 1.83871H17.4672C17.9738 1.83871 18.3866 2.2515 18.3866 2.75806V11.9516C18.3866 12.4582 17.9738 12.871 17.4672 12.871H8.27369C7.76713 12.871 7.35433 12.4582 7.35433 11.9516V2.75806Z" fill="#047BDC"></path><path d="M5.51604 51.1025L4.32731 49.9137L3.02734 51.2137L5.51604 53.7024L11.6821 47.5363L10.3822 46.2363L5.51604 51.1025Z" fill="#047BDC"></path><path d="M17.1978 5.24723L15.8978 3.94727L11.0317 8.81341L9.84294 7.62468L8.54297 8.92465L11.0317 11.4133L17.1978 5.24723Z" fill="#047BDC"></path><path d="M47.8061 29.9579L46.6174 28.7692L45.3174 30.0692L47.8061 32.5579L53.9722 26.3918L52.6722 25.0918L47.8061 29.9579Z" fill="#047BDC"></path><path d="M42.0669 40.4793L42.5128 42.2628L47.7384 40.9564C43.5176 47.4949 36.332 51.484 28.5 51.484C25.1361 51.484 21.8944 50.7742 18.8661 49.374L18.0947 51.0427C21.3667 52.5559 24.8676 53.3227 28.5 53.3227C36.8284 53.3227 44.4775 49.1488 49.0632 42.2867L49.6525 47.0012L51.4765 46.7732L50.4284 38.3887L42.0669 40.4793Z" fill="#047BDC"></path><path d="M10.0884 32.3904L8.30021 31.9629L7.1786 36.6572C6.07905 33.9359 5.51641 31.2008 5.51641 28.4997C5.51641 25.1073 6.2381 21.8408 7.66126 18.7895L5.99447 18.0117C4.45731 21.3085 3.6777 24.837 3.6777 28.4997C3.6777 31.426 4.27988 34.3781 5.45665 37.3062L1.36368 35.0492L0.475586 36.6599L8.06762 40.8448L10.0884 32.3904Z" fill="#047BDC"></path><path d="M29.9291 7.50914L26.9393 5.51597H28.4995C37.1001 5.51597 44.9155 10.258 48.8945 17.8914L50.5245 17.041C46.2283 8.79807 37.7886 3.67726 28.4995 3.67726H26.9393L29.9291 1.6841L28.9095 0.154297L22.2451 4.59662L28.9086 9.03894L29.9291 7.50914Z" fill="#047BDC"></path></svg>