<svg xmlns="http://www.w3.org/2000/svg" width="63" height="63" viewBox="0 0 63 63" fill="none"><mask id="mask0_232_406" style="mask-type:luminance" maskUnits="userSpaceOnUse" x="0" y="0" width="63" height="63"><path d="M0 0H63V63H0V0Z" fill="white"></path><path fill-rule="evenodd" clip-rule="evenodd" d="M63 0H0V63H63V0ZM61.5 61.5H1.5V1.5H61.5V61.5Z" fill="white"></path></mask><g mask="url(#mask0_232_406)"><path fill-rule="evenodd" clip-rule="evenodd" d="M26.7315 14.6674C27.1433 14.7122 27.5134 14.4146 27.5582 14.0028C28.0895 9.11394 32.2299 5.30917 37.2592 5.30917C40.6876 5.30917 43.7043 7.07666 45.4456 9.75344C45.6715 10.1007 46.1361 10.199 46.4833 9.97315C46.8305 9.74727 46.9289 9.2827 46.703 8.93549C44.6966 5.85121 41.2161 3.80917 37.2592 3.80917C31.4555 3.80917 26.68 8.19933 26.067 13.8408C26.0222 14.2526 26.3197 14.6227 26.7315 14.6674Z" fill="#047BDC"></path><path fill-rule="evenodd" clip-rule="evenodd" d="M42.4948 24.2132C42.7258 24.557 43.1918 24.6484 43.5356 24.4173C46.5408 22.3976 48.5195 18.9633 48.5195 15.0696C48.5195 14.2135 48.4234 13.3789 48.2413 12.5768C48.1496 12.1728 47.7478 11.9197 47.3439 12.0114C46.94 12.1031 46.6868 12.5048 46.7785 12.9088C46.9361 13.6029 47.0195 14.3261 47.0195 15.0696C47.0195 18.4431 45.3069 21.4195 42.6989 23.1724C42.3551 23.4034 42.2637 23.8694 42.4948 24.2132Z" fill="#047BDC"></path><path fill-rule="evenodd" clip-rule="evenodd" d="M43.0244 28.0133C43.2131 28.3821 43.665 28.5281 44.0337 28.3394C48.8541 25.8733 52.1567 20.858 52.1567 15.069C52.1567 6.84144 45.4869 0.171694 37.2594 0.171694C29.033 0.171694 22.3633 6.84148 22.3633 15.069L22.3633 15.0726C22.3633 15.1136 22.3633 15.1659 22.3648 15.2199C22.3766 15.634 22.7218 15.9601 23.1359 15.9483C23.5499 15.9365 23.876 15.5913 23.8642 15.1772C23.8633 15.1465 23.8633 15.114 23.8633 15.069C23.8633 7.66983 29.8615 1.67169 37.2594 1.67169C44.6585 1.67169 50.6567 7.66987 50.6567 15.069C50.6567 20.2728 47.6895 24.7842 43.3505 27.004C42.9818 27.1927 42.8358 27.6445 43.0244 28.0133Z" fill="#047BDC"></path><path fill-rule="evenodd" clip-rule="evenodd" d="M38.3555 11.1816C38.7697 11.1816 39.1055 10.8459 39.1055 10.4316V8.08649C39.1055 7.67228 38.7697 7.33649 38.3555 7.33649C37.9413 7.33649 37.6055 7.67228 37.6055 8.08649V10.4316C37.6055 10.8459 37.9413 11.1816 38.3555 11.1816Z" fill="#047BDC"></path><path fill-rule="evenodd" clip-rule="evenodd" d="M35.6367 11.1816C36.0509 11.1816 36.3867 10.8459 36.3867 10.4316V8.08649C36.3867 7.67228 36.0509 7.33649 35.6367 7.33649C35.2225 7.33649 34.8867 7.67228 34.8867 8.08649V10.4316C34.8867 10.8459 35.2225 11.1816 35.6367 11.1816Z" fill="#047BDC"></path><path fill-rule="evenodd" clip-rule="evenodd" d="M33.832 14.5566C33.832 14.9709 34.1678 15.3066 34.582 15.3066H38.3553C39.9086 15.3066 41.1679 14.0474 41.1679 12.494C41.1679 10.9406 39.9086 9.68137 38.3553 9.68137H34.582C34.1678 9.68137 33.832 10.0172 33.832 10.4314V14.5566ZM35.332 13.8066V11.1814H38.3553C39.0802 11.1814 39.6679 11.7691 39.6679 12.494C39.6679 13.219 39.0802 13.8066 38.3553 13.8066H35.332Z" fill="#047BDC"></path><path fill-rule="evenodd" clip-rule="evenodd" d="M40.1882 19.6597C40.4296 19.9963 40.8981 20.0735 41.2347 19.8321C41.3815 19.7268 41.5188 19.6102 41.6463 19.4827L41.1159 18.9524L41.6456 19.4834C42.2475 18.8831 42.621 18.0502 42.621 17.1314C42.621 15.2932 41.1314 13.8053 39.2948 13.8053H34.582C34.1678 13.8053 33.832 14.1411 33.832 14.5553V14.5788C33.832 14.993 34.1678 15.3288 34.582 15.3288C34.6466 15.3288 34.7093 15.3207 34.769 15.3053H39.2948C40.3034 15.3053 41.121 16.1221 41.121 17.1314C41.121 17.6363 40.9171 18.0914 40.5863 18.4214L40.5856 18.4221C40.5157 18.4919 40.4408 18.5555 40.3605 18.6131C40.0239 18.8546 39.9468 19.3231 40.1882 19.6597Z" fill="#047BDC"></path><path fill-rule="evenodd" clip-rule="evenodd" d="M32.2266 10.4316C32.2266 10.8459 32.5623 11.1816 32.9766 11.1816H34.5788C34.993 11.1816 35.3288 10.8459 35.3288 10.4316C35.3288 10.0174 34.993 9.68164 34.5788 9.68164H32.9766C32.5623 9.68164 32.2266 10.0174 32.2266 10.4316Z" fill="#047BDC"></path><path fill-rule="evenodd" clip-rule="evenodd" d="M19.8447 31.922C20.2365 31.7875 20.445 31.3609 20.3105 30.9692C19.9704 29.9784 19.7852 28.9139 19.7852 27.8043C19.7852 22.4144 24.1548 18.0449 29.5446 18.0449C34.9345 18.0449 39.304 22.4144 39.304 27.8043C39.304 28.9139 39.1188 29.9784 38.7787 30.9692C38.6442 31.3609 38.8527 31.7875 39.2445 31.922C39.6362 32.0565 40.0629 31.848 40.1974 31.4562C40.5906 30.3109 40.804 29.0818 40.804 27.8043C40.804 21.586 35.7629 16.5449 29.5446 16.5449C23.3264 16.5449 18.2852 21.5859 18.2852 27.8043C18.2852 29.0818 18.4986 30.3109 18.8918 31.4562C19.0263 31.848 19.4529 32.0565 19.8447 31.922Z" fill="#047BDC"></path><path fill-rule="evenodd" clip-rule="evenodd" d="M43.0958 31.9405C43.4978 32.0406 43.9048 31.796 44.0049 31.394C44.2917 30.2432 44.442 29.0404 44.442 27.8043C44.442 19.5766 37.7716 12.9076 29.5453 12.9076C24.4875 12.9076 20.0183 15.429 17.3271 19.2806M43.0958 31.9405C42.6939 31.8403 42.4493 31.4333 42.5494 31.0314ZM15.9642 31.8422C16.3669 31.7451 16.6147 31.34 16.5176 30.9373C16.2756 29.9331 16.1484 28.8846 16.1484 27.8043C16.1484 24.952 17.0385 22.3117 18.5565 20.14L18.5566 20.1399C20.9792 16.6727 24.998 14.4076 29.5453 14.4076C36.9432 14.4076 42.942 20.4051 42.942 27.8043C42.942 28.9184 42.8065 29.9994 42.5494 31.0314M15.9642 31.8422C15.5615 31.9392 15.1564 31.6915 15.0594 31.2888ZM15.0594 31.2888C14.7895 30.1692 14.6484 29.0028 14.6484 27.8043ZM14.6484 27.8043C14.6484 24.6348 15.6387 21.6962 17.327 19.2807Z" fill="#047BDC"></path><path fill-rule="evenodd" clip-rule="evenodd" d="M30.6406 23.9141C31.0548 23.9141 31.3906 23.5783 31.3906 23.1641V20.8189C31.3906 20.4047 31.0548 20.0689 30.6406 20.0689C30.2264 20.0689 29.8906 20.4047 29.8906 20.8189V23.1641C29.8906 23.5783 30.2264 23.9141 30.6406 23.9141Z" fill="#047BDC"></path><path fill-rule="evenodd" clip-rule="evenodd" d="M27.9219 23.9141C28.3361 23.9141 28.6719 23.5783 28.6719 23.1641V20.8189C28.6719 20.4047 28.3361 20.0689 27.9219 20.0689C27.5077 20.0689 27.1719 20.4047 27.1719 20.8189V23.1641C27.1719 23.5783 27.5077 23.9141 27.9219 23.9141Z" fill="#047BDC"></path><path fill-rule="evenodd" clip-rule="evenodd" d="M26.1172 27.2891C26.1172 27.7033 26.453 28.0391 26.8672 28.0391H30.6403C32.1936 28.0391 33.4531 26.7799 33.4531 25.2264C33.4531 23.673 32.1936 22.4138 30.6403 22.4138H26.8672C26.453 22.4138 26.1172 22.7496 26.1172 23.1638V27.2891ZM27.6172 26.5391V23.9138H30.6403C31.3653 23.9138 31.9531 24.5015 31.9531 25.2264C31.9531 25.9513 31.3653 26.5391 30.6403 26.5391H27.6172Z" fill="#047BDC"></path><path fill-rule="evenodd" clip-rule="evenodd" d="M33.3793 31.8507C33.7316 32.0685 34.1938 31.9595 34.4116 31.6072C34.7246 31.1009 34.905 30.5035 34.905 29.8668C34.905 28.03 33.4157 26.5407 31.5789 26.5407H26.8672C26.453 26.5407 26.1172 26.8765 26.1172 27.2907V31.2128C26.1172 31.627 26.453 31.9628 26.8672 31.9628C27.2814 31.9628 27.6172 31.627 27.6172 31.2128V28.0407H31.5789C32.5872 28.0407 33.405 28.8584 33.405 29.8668C33.405 30.2172 33.3063 30.5425 33.1358 30.8184C32.9179 31.1707 33.027 31.6329 33.3793 31.8507Z" fill="#047BDC"></path><path fill-rule="evenodd" clip-rule="evenodd" d="M24.5156 23.1641C24.5156 23.5783 24.8514 23.9141 25.2656 23.9141H26.8678C27.282 23.9141 27.6178 23.5783 27.6178 23.1641C27.6178 22.7498 27.282 22.4141 26.8678 22.4141H25.2656C24.8514 22.4141 24.5156 22.7498 24.5156 23.1641Z" fill="#047BDC"></path><path fill-rule="evenodd" clip-rule="evenodd" d="M4.90303 21.6843C4.25006 21.7959 3.63924 21.3311 3.57275 20.6722L3.50211 19.9743C3.50211 19.9742 3.50212 19.9743 3.50211 19.9743C3.43561 19.3152 3.94116 18.7375 4.60312 18.7162L7.66375 18.6175C7.66377 18.6175 7.66372 18.6175 7.66375 18.6175C8.26467 18.5982 8.77803 19.0475 8.83844 19.6456L8.86685 19.9263C8.86686 19.9264 8.86685 19.9263 8.86685 19.9263C8.92706 20.5246 8.51415 21.0674 7.92151 21.1688C7.92149 21.1688 7.92153 21.1687 7.92151 21.1688L4.90303 21.6843ZM5.1556 23.1629C3.64647 23.4207 2.23423 22.3466 2.08035 20.823C2.08036 20.8231 2.08035 20.8229 2.08035 20.823L2.00972 20.1252C1.85581 18.6017 3.02439 17.2663 4.55483 17.217L7.61547 17.1183C9.00443 17.0737 10.1912 18.112 10.3308 19.4949L10.3593 19.7755C10.4987 21.1582 9.54421 22.4132 8.17412 22.6473L5.1556 23.1629C5.15561 23.1629 5.15559 23.1629 5.1556 23.1629Z" fill="#047BDC"></path><path fill-rule="evenodd" clip-rule="evenodd" d="M10.1295 12.4894C9.88274 13.0375 9.2536 13.3011 8.68971 13.0924L5.81794 12.0298C5.81793 12.0298 5.81796 12.0298 5.81794 12.0298C5.19668 11.7999 4.9001 11.0918 5.17191 10.4879L5.4597 9.84833C5.45971 9.8483 5.45969 9.84835 5.4597 9.84833C5.73166 9.24425 6.45819 8.99675 7.04229 9.30928C7.0423 9.30929 7.04227 9.30927 7.04229 9.30928L9.74206 10.7542C10.2721 11.0378 10.4921 11.6835 10.2453 12.2318L10.1295 12.4894C10.1294 12.4894 10.1295 12.4893 10.1295 12.4894ZM8.16915 14.4992C9.47258 14.9815 10.9271 14.3723 11.4974 13.1048L11.6131 12.8475C11.6132 12.8474 11.6131 12.8475 11.6131 12.8475C12.1835 11.5802 11.6753 10.0874 10.4499 9.43172C10.4498 9.4317 10.4499 9.43173 10.4499 9.43172L7.7501 7.98678C6.39993 7.26429 4.72039 7.8363 4.09188 9.23265L3.80405 9.87228C3.80405 9.8723 3.80406 9.87227 3.80405 9.87228C3.17569 11.2686 3.86127 12.9051 5.29731 13.4366L8.16915 14.4992C8.16915 14.4992 8.16914 14.4992 8.16915 14.4992Z" fill="#047BDC"></path><path fill-rule="evenodd" clip-rule="evenodd" d="M13.1882 6.31326C13.1882 6.31324 13.1882 6.31329 13.1882 6.31326L11.2326 3.95699C10.8095 3.44736 10.9066 2.68592 11.4441 2.29873L12.0132 1.88873C12.5506 1.5015 13.3035 1.65043 13.6532 2.21314C13.6532 2.21316 13.6531 2.21311 13.6532 2.21314L15.2688 4.81435C15.5861 5.32517 15.4536 5.99434 14.9659 6.34571L14.7368 6.51075C14.2491 6.86213 13.5723 6.77583 13.1882 6.31326ZM12.0341 7.2714C12.9218 8.3407 14.486 8.54017 15.6136 7.72779L15.8426 7.56282C15.8426 7.56279 15.8425 7.56284 15.8426 7.56282C16.9703 6.75039 17.2762 5.20347 16.543 4.02293C16.543 4.02292 16.543 4.02293 16.543 4.02293L14.9274 1.42172C14.1194 0.121055 12.3788 -0.223469 11.1363 0.671677M11.1363 0.671677L10.5673 1.08166C10.5673 1.08166 10.5673 1.08166 10.5673 1.08166C9.325 1.97661 9.10022 3.73666 10.0783 4.91498C10.0784 4.915 10.0783 4.91496 10.0783 4.91498L12.0341 7.2714" fill="#047BDC"></path><path fill-rule="evenodd" clip-rule="evenodd" d="M56.4197 39.0859C56.8339 39.0859 57.1697 38.7502 57.1697 38.3359V26.8324C57.1697 22.9699 54.3902 19.7592 50.7215 19.0882C50.314 19.0137 49.9233 19.2836 49.8488 19.6911C49.7743 20.0985 50.0441 20.4892 50.4516 20.5638C53.4206 21.1068 55.6697 23.7071 55.6697 26.8324V33.712C54.2385 31.7426 51.9168 30.4623 49.296 30.4623H16.8572C16.539 30.4623 16.23 30.4331 15.9332 30.3759L15.929 30.3751C13.6102 29.9418 11.8555 27.9059 11.8555 25.4606C11.8555 24.0798 12.4145 22.8298 13.3196 21.9234C14.2262 21.0179 15.4763 20.4589 16.8572 20.4589H17.9442C18.3584 20.4589 18.6942 20.1231 18.6942 19.7089C18.6942 19.2946 18.3584 18.9589 17.9442 18.9589H16.8572C15.0625 18.9589 13.4356 19.6875 12.2595 20.8622C11.0849 22.0382 10.3555 23.6657 10.3555 25.4606C10.3555 28.6402 12.6364 31.2848 15.6514 31.8492C16.0446 31.9248 16.4481 31.9623 16.8572 31.9623H49.296C52.8162 31.9623 55.6697 34.8157 55.6697 38.3359C55.6697 38.7502 56.0055 39.0859 56.4197 39.0859Z" fill="#047BDC"></path><path fill-rule="evenodd" clip-rule="evenodd" d="M56.4219 41.1777C56.8361 41.1777 57.1719 40.8419 57.1719 40.4277V38.3347C57.1719 37.9205 56.8361 37.5847 56.4219 37.5847C56.0077 37.5847 55.6719 37.9205 55.6719 38.3347V40.4277C55.6719 40.8419 56.0077 41.1777 56.4219 41.1777Z" fill="#047BDC"></path><path fill-rule="evenodd" clip-rule="evenodd" d="M16.8579 61.3262C15.4762 61.3262 14.2263 60.7673 13.3203 59.8613C12.4143 58.9554 11.8555 57.7055 11.8555 56.3237V25.4599C11.8555 25.0457 11.5197 24.7099 11.1055 24.7099C10.6913 24.7099 10.3555 25.0457 10.3555 25.4599V56.3237C10.3555 58.119 11.0837 59.746 12.2597 60.922C13.4356 62.098 15.0628 62.8262 16.8579 62.8262H49.2969C50.7602 62.8262 52.1323 62.4263 53.3069 61.7294C53.6631 61.5181 53.7806 61.058 53.5692 60.7017C53.3579 60.3455 52.8977 60.228 52.5415 60.4394C51.5923 61.0025 50.4837 61.3262 49.2969 61.3262H16.8579Z" fill="#047BDC"></path><path fill-rule="evenodd" clip-rule="evenodd" d="M55.1212 59.1184C55.4811 59.3234 55.939 59.1978 56.144 58.8378C56.7977 57.69 57.1689 56.364 57.1689 54.9524V53.2889C57.1689 52.8746 56.8331 52.5389 56.4189 52.5389C56.0046 52.5389 55.6689 52.8746 55.6689 53.2889V54.9524C55.6689 56.0978 55.3684 57.1687 54.8406 58.0955C54.6356 58.4554 54.7612 58.9134 55.1212 59.1184Z" fill="#047BDC"></path><path fill-rule="evenodd" clip-rule="evenodd" d="M51.7349 52.5391C48.5978 52.5391 46.0547 49.996 46.0547 46.859C46.0547 43.7221 48.5983 41.1789 51.7355 41.1789H57.0218C57.9581 41.1789 58.8187 40.8554 59.498 40.3139V50.0624C59.498 51.4302 58.389 52.5391 57.0211 52.5391H51.7349ZM60.9978 37.1871C60.9979 37.1921 60.998 37.1971 60.998 37.2022V50.0624C60.998 52.2588 59.2173 54.0391 57.0211 54.0391H51.7349C47.7694 54.0391 44.5547 50.8245 44.5547 46.859C44.5547 42.8934 47.7701 39.6789 51.7355 39.6789H57.0218C58.3891 39.6789 59.4979 38.5706 59.4979 37.2015C59.4979 36.5183 59.2212 35.8996 58.7724 35.4508C58.3237 35.0021 57.705 34.7255 57.0218 34.7255H56.4214C56.0071 34.7255 55.6714 34.3897 55.6714 33.9755C55.6714 33.5613 56.0071 33.2255 56.4214 33.2255H57.0218C58.1189 33.2255 59.1146 33.6717 59.8331 34.3902C60.5483 35.1054 60.9939 36.0955 60.9978 37.1871Z" fill="#047BDC"></path><path fill-rule="evenodd" clip-rule="evenodd" d="M51.7343 48.7422C50.6945 48.7422 49.8516 47.8992 49.8516 46.8595C49.8516 45.8196 50.6944 44.9768 51.7343 44.9768C52.7741 44.9768 53.617 45.8196 53.617 46.8595C53.617 47.8992 52.7741 48.7422 51.7343 48.7422ZM48.3516 46.8595C48.3516 48.7276 49.866 50.2422 51.7343 50.2422C53.6026 50.2422 55.117 48.7276 55.117 46.8595C55.117 44.9912 53.6025 43.4768 51.7343 43.4768C49.866 43.4768 48.3516 44.9912 48.3516 46.8595Z" fill="#047BDC"></path><path fill-rule="evenodd" clip-rule="evenodd" d="M17.4022 49.8359C16.3624 49.8359 15.5195 48.9931 15.5195 47.9532C15.5195 46.9134 16.3624 46.0705 17.4022 46.0705C18.4421 46.0705 19.285 46.9134 19.285 47.9532C19.285 48.9931 18.4421 49.8359 17.4022 49.8359ZM14.0195 47.9532C14.0195 49.8215 15.534 51.3359 17.4022 51.3359C19.2705 51.3359 20.785 49.8215 20.785 47.9532C20.785 46.085 19.2705 44.5705 17.4022 44.5705C15.534 44.5705 14.0195 46.085 14.0195 47.9532Z" fill="#047BDC"></path><path fill-rule="evenodd" clip-rule="evenodd" d="M27.2302 43.1309C26.1906 43.1309 25.3477 42.288 25.3477 41.2481C25.3477 40.2084 26.1906 39.3654 27.2302 39.3654C28.2701 39.3654 29.113 40.2084 29.113 41.2481C29.113 42.288 28.2701 43.1309 27.2302 43.1309ZM23.8477 41.2481C23.8477 43.1164 25.3621 44.6309 27.2302 44.6309C29.0985 44.6309 30.613 43.1164 30.613 41.2481C30.613 39.38 29.0985 37.8654 27.2302 37.8654C25.3621 37.8654 23.8477 39.3801 23.8477 41.2481Z" fill="#047BDC"></path><path fill-rule="evenodd" clip-rule="evenodd" d="M22.4931 62.8262C22.9073 62.8262 23.2431 62.4904 23.2431 62.0762V53.0458C23.2431 52.8468 23.164 52.6561 23.0234 52.5154L19.792 49.2842C19.4991 48.9913 19.0243 48.9913 18.7314 49.2842C18.4385 49.5771 18.4385 50.052 18.7314 50.3449L21.7431 53.3564V62.0762C21.7431 62.4904 22.0788 62.8262 22.4931 62.8262Z" fill="#047BDC"></path><path fill-rule="evenodd" clip-rule="evenodd" d="M27.2305 62.8262C27.6447 62.8262 27.9805 62.4904 27.9805 62.0762V43.88C27.9805 43.4658 27.6447 43.13 27.2305 43.13C26.8163 43.13 26.4805 43.4658 26.4805 43.88V62.0762C26.4805 62.4904 26.8163 62.8262 27.2305 62.8262Z" fill="#047BDC"></path></g></svg>