<svg xmlns="http://www.w3.org/2000/svg" width="47" height="53" viewBox="0 0 47 53" fill="none"><path d="M44.8914 33.8198C44.0356 33.3265 43.0342 33.1495 42.0615 33.3197C41.0888 33.4898 40.2065 33.9963 39.5682 34.751L33.9055 31.7974V21.2026L39.5722 18.2467C40.2517 19.0431 41.2034 19.5568 42.241 19.6872C43.2787 19.8176 44.3275 19.5553 45.1823 18.9517C46.0371 18.3481 46.6362 17.4467 46.8625 16.4238C47.0888 15.4009 46.9259 14.3303 46.4057 13.4214C45.8855 12.5125 45.0455 11.8309 44.05 11.5098C43.0546 11.1888 41.9754 11.2515 41.0236 11.6857C40.0719 12.1199 39.3162 12.8943 38.9044 13.8573C38.4926 14.8204 38.4543 15.9027 38.7971 16.8925L33.1269 19.8501L24.3082 15.2508V8.37449C25.3405 8.18013 26.2633 7.60667 26.8957 6.76642C27.5281 5.92617 27.8246 4.87966 27.7272 3.83185C27.6298 2.78404 27.1454 1.81041 26.369 1.10163C25.5925 0.392857 24.58 0 23.5296 0C22.4792 0 21.4666 0.392857 20.6902 1.10163C19.9138 1.81041 19.4294 2.78404 19.332 3.83185C19.2346 4.87966 19.5311 5.92617 20.1635 6.76642C20.7959 7.60667 21.7186 8.18013 22.7509 8.37449V15.2508L13.9323 19.8501L8.26203 16.8925C8.61162 15.8906 8.57508 14.7939 8.15955 13.8175C7.74402 12.8412 6.97948 12.0555 6.01579 11.6145C5.0521 11.1735 3.95876 11.109 2.95008 11.4337C1.9414 11.7583 1.09013 12.4487 0.563122 13.3695C0.036117 14.2903 -0.128613 15.3751 0.101222 16.4112C0.331057 17.4474 0.938884 18.3601 1.80555 18.9706C2.67222 19.5811 3.73524 19.8453 4.78623 19.7114C5.83722 19.5775 6.8004 19.0551 7.48695 18.2467L13.1537 21.2026V31.7974L7.49051 34.751C6.81156 33.9501 5.85867 33.432 4.81841 33.298C3.77815 33.164 2.72543 33.4239 1.86638 34.0267C1.00733 34.6296 0.403806 35.5319 0.173982 36.5571C-0.0558426 37.5824 0.104583 38.6566 0.623847 39.5696C1.14311 40.4825 1.98382 41.1684 2.98136 41.4929C3.9789 41.8175 5.06144 41.7573 6.01701 41.3242C6.97258 40.891 7.73238 40.1162 8.14763 39.1513C8.56287 38.1864 8.60367 37.1009 8.26203 36.1075L13.9323 33.1499L22.7509 37.7492V44.6255C21.7186 44.8199 20.7959 45.3933 20.1635 46.2336C19.5311 47.0738 19.2346 48.1203 19.332 49.1681C19.4294 50.216 19.9138 51.1896 20.6902 51.8984C21.4666 52.6071 22.4792 53 23.5296 53C24.58 53 25.5925 52.6071 26.369 51.8984C27.1454 51.1896 27.6298 50.216 27.7272 49.1681C27.8246 48.1203 27.5281 47.0738 26.8957 46.2336C26.2633 45.3933 25.3405 44.8199 24.3082 44.6255V37.7492L33.1269 33.1499L38.7971 36.1075C38.538 36.8647 38.4991 37.6801 38.6848 38.4587C38.8706 39.2373 39.2734 39.9469 39.8463 40.5049C40.4192 41.0629 41.1386 41.4463 41.9206 41.6104C42.7026 41.7745 43.5151 41.7125 44.2634 41.4317C45.0116 41.1509 45.6648 40.6628 46.1468 40.0243C46.6287 39.3859 46.9196 38.6233 46.9856 37.8256C47.0516 37.0278 46.8899 36.2277 46.5193 35.5185C46.1488 34.8093 45.5847 34.2202 44.8928 33.8198H44.8914ZM41.4543 13.2163C41.9096 12.9528 42.4327 12.8304 42.9575 12.8648C43.4822 12.8991 43.985 13.0885 44.4023 13.4092C44.8195 13.7298 45.1325 14.1672 45.3016 14.6661C45.4707 15.1649 45.4883 15.7028 45.3522 16.2117C45.2161 16.7206 44.9325 17.1776 44.5371 17.525C44.1417 17.8724 43.6524 18.0944 43.1311 18.1632C42.6097 18.2319 42.0797 18.1442 41.6081 17.9111C41.1365 17.678 40.7445 17.3101 40.4817 16.8537C40.3052 16.5514 40.1904 16.217 40.1438 15.8699C40.0972 15.5229 40.1197 15.17 40.2102 14.8317C40.3007 14.4934 40.4572 14.1764 40.6707 13.8992C40.8843 13.6219 41.1506 13.3898 41.4543 13.2163ZM20.8711 4.22625C20.8711 3.69947 21.027 3.18453 21.3191 2.74653C21.6112 2.30854 22.0264 1.96716 22.5122 1.76557C22.998 1.56398 23.5325 1.51124 24.0482 1.61401C24.5639 1.71678 25.0376 1.97044 25.4094 2.34293C25.7812 2.71541 26.0344 3.18999 26.137 3.70664C26.2396 4.22329 26.1869 4.75882 25.9857 5.24549C25.7845 5.73217 25.4437 6.14814 25.0066 6.4408C24.5694 6.73346 24.0554 6.88967 23.5296 6.88967C22.8247 6.88896 22.1489 6.60812 21.6505 6.10879C21.1521 5.60945 20.8718 4.93241 20.8711 4.22625ZM23.5296 16.6041L31.4405 20.7305L23.5296 24.8565L15.6186 20.7296L23.5296 16.6041ZM2.94637 17.83C2.49091 17.5668 2.12358 17.1741 1.89084 16.7018C1.65809 16.2294 1.57039 15.6985 1.63882 15.1762C1.70725 14.6539 1.92874 14.1637 2.27528 13.7675C2.62182 13.3713 3.07784 13.087 3.58568 12.9504C4.09352 12.8139 4.63036 12.8313 5.12833 13.0005C5.62629 13.1696 6.06301 13.4829 6.38325 13.9007C6.70349 14.3185 6.89287 14.8221 6.92745 15.3477C6.96203 15.8733 6.84024 16.3975 6.5775 16.8537C6.22436 17.4647 5.64383 17.9105 4.96315 18.0933C4.28248 18.2761 3.55722 18.1811 2.94637 17.8291V17.83ZM5.60487 39.7837C5.14954 40.0472 4.62642 40.1696 4.10168 40.1352C3.57694 40.1009 3.07415 39.9115 2.6569 39.5908C2.23965 39.2702 1.92668 38.8328 1.75759 38.3339C1.5885 37.8351 1.57088 37.2972 1.70695 36.7883C1.84303 36.2794 2.12669 35.8224 2.52206 35.475C2.91742 35.1276 3.40673 34.9056 3.9281 34.8368C4.44946 34.7681 4.97946 34.8558 5.45106 35.0889C5.92266 35.322 6.31466 35.6899 6.5775 36.1463C6.75395 36.4486 6.8688 36.783 6.9154 37.13C6.96199 37.4771 6.93941 37.83 6.84895 38.1683C6.7585 38.5066 6.60196 38.8236 6.38841 39.1008C6.17487 39.3781 5.90855 39.6102 5.60487 39.7837ZM14.7109 22.0148L22.7509 26.2085V35.9907L14.7109 31.7974V22.0148ZM26.1881 48.7738C26.1881 49.3005 26.0322 49.8155 25.74 50.2535C25.4479 50.6915 25.0327 51.0328 24.5469 51.2344C24.0612 51.436 23.5266 51.4888 23.0109 51.386C22.4952 51.2832 22.0215 51.0296 21.6497 50.6571C21.2779 50.2846 21.0247 49.81 20.9222 49.2934C20.8196 48.7767 20.8722 48.2412 21.0734 47.7545C21.2747 47.2678 21.6154 46.8519 22.0526 46.5592C22.4898 46.2665 23.0038 46.1103 23.5296 46.1103C24.2344 46.111 24.9102 46.3919 25.4086 46.8912C25.907 47.3905 26.1874 48.0676 26.1881 48.7738ZM24.3082 35.9907V26.2085L32.3482 22.0148V31.7974L24.3082 35.9907ZM45.0867 38.8092C44.8238 39.2654 44.4318 39.6333 43.9602 39.8663C43.4887 40.0992 42.9587 40.1869 42.4374 40.1181C41.9161 40.0494 41.4269 39.8273 41.0316 39.48C40.6362 39.1327 40.3526 38.6757 40.2165 38.1669C40.0804 37.658 40.098 37.1202 40.267 36.6214C40.436 36.1226 40.7489 35.6852 41.166 35.3645C41.5832 35.0438 42.0859 34.8543 42.6106 34.8198C43.1352 34.7853 43.6583 34.9075 44.1137 35.1709C44.4178 35.344 44.6846 35.576 44.8985 35.8533C45.1124 36.1306 45.2691 36.4478 45.3596 36.7863C45.45 37.1248 45.4724 37.478 45.4254 37.8253C45.3784 38.1726 45.263 38.507 45.0859 38.8092H45.0867Z" fill="#047BDC"></path></svg>