<svg xmlns="http://www.w3.org/2000/svg" width="65" height="65" viewBox="0 0 65 65" fill="none"><path d="M17.6494 46.2661L19.1815 44.7339L6.94751 32.5L37.2808 2.16667H55.2487V6.5H52.8957C52.6402 5.77718 52.1373 5.16798 51.476 4.78007C50.8148 4.39215 50.0376 4.25049 49.282 4.38014C48.5264 4.50978 47.8409 4.90238 47.3468 5.48854C46.8526 6.07469 46.5816 6.81667 46.5816 7.58333C46.5816 8.34999 46.8526 9.09197 47.3468 9.67813C47.8409 10.2643 48.5264 10.6569 49.282 10.7865C50.0376 10.9162 50.8148 10.7745 51.476 10.3866C52.1373 9.99868 52.6402 9.38948 52.8957 8.66667H55.2487V20.1346L33.8993 41.4839L35.4315 43.0161L57.0981 21.3494C57.1987 21.2488 57.2785 21.1294 57.3329 20.9979C57.3874 20.8665 57.4154 20.7256 57.4154 20.5833V15.1667H60.6654C61.8147 15.1667 62.9169 14.7101 63.7295 13.8975C64.5422 13.0848 64.9987 11.9826 64.9987 10.8333C64.9987 9.68406 64.5422 8.58186 63.7295 7.7692C62.9169 6.95655 61.8147 6.5 60.6654 6.5H57.4154V1.08333C57.4154 0.796016 57.3013 0.520465 57.0981 0.317301C56.8949 0.114137 56.6194 7.19234e-10 56.3321 7.19233e-10H36.8321C36.6898 -5.18314e-06 36.5489 0.0280116 36.4175 0.0824508C36.286 0.13689 36.1666 0.216686 36.066 0.317281L4.64935 31.7339C4.54875 31.8345 4.46895 31.954 4.4145 32.0854C4.36005 32.2169 4.33203 32.3577 4.33203 32.5C4.33203 32.6423 4.36005 32.7831 4.4145 32.9146C4.46895 33.046 4.54875 33.1655 4.64935 33.2661L17.6494 46.2661ZM48.7487 7.58333C48.7491 7.29611 48.8633 7.02075 49.0664 6.81766C49.2695 6.61456 49.5448 6.50032 49.8321 6.5V8.66667C49.5448 8.66634 49.2695 8.5521 49.0664 8.34901C48.8633 8.14592 48.7491 7.87055 48.7487 7.58333ZM60.6654 8.66667C61.24 8.66667 61.7911 8.89494 62.1975 9.30127C62.6038 9.7076 62.8321 10.2587 62.8321 10.8333C62.8321 11.408 62.6038 11.9591 62.1975 12.3654C61.7911 12.7717 61.24 13 60.6654 13H57.4154V8.66667H60.6654Z" fill="#0369CA"></path><path d="M29.4119 21.3759C29.5756 21.8988 29.8614 22.3754 30.2457 22.766C30.6299 23.1567 31.1017 23.4503 31.6219 23.6226C31.6364 24.1372 31.769 24.6416 32.0094 25.0969C32.2497 25.5521 32.5915 25.9461 33.0083 26.2483C33.4559 26.5868 33.977 26.815 34.5293 26.9143C35.0816 27.0136 35.6496 26.9812 36.1871 26.8197C36.5258 27.2402 36.9544 27.5794 37.4414 27.8124C37.9284 28.0455 38.4614 28.1664 39.0013 28.1664C39.5412 28.1664 40.0742 28.0455 40.5612 27.8124C41.0482 27.5794 41.4768 27.2402 41.8155 26.8197C42.353 26.9812 42.9209 27.0136 43.4733 26.9143C44.0256 26.815 44.5467 26.5868 44.9943 26.2483C45.4111 25.9461 45.7529 25.5521 45.9932 25.0969C46.2336 24.6416 46.3662 24.1372 46.3807 23.6226C46.9009 23.4503 47.3727 23.1567 47.7569 22.766C48.1412 22.3754 48.427 21.8988 48.5907 21.3759C48.7531 20.8818 48.797 20.3565 48.7188 19.8424C48.6406 19.3283 48.4424 18.8398 48.1404 18.4165C48.4424 17.9931 48.6406 17.5046 48.7188 16.9905C48.797 16.4764 48.7531 15.9511 48.5907 15.4571C48.427 14.9341 48.1412 14.4576 47.7569 14.0669C47.3727 13.6762 46.9009 13.3826 46.3807 13.2104C46.3662 12.6957 46.2336 12.1913 45.9932 11.7361C45.7529 11.2808 45.4111 10.8869 44.9943 10.5846C44.5467 10.2461 44.0256 10.0179 43.4733 9.91856C42.9209 9.81927 42.353 9.85168 41.8155 10.0132C41.4768 9.59275 41.0482 9.25356 40.5612 9.02051C40.0742 8.78747 39.5412 8.6665 39.0013 8.6665C38.4614 8.6665 37.9284 8.78747 37.4414 9.02051C36.9544 9.25356 36.5258 9.59275 36.1871 10.0132C35.6496 9.85173 35.0816 9.81933 34.5293 9.91863C33.977 10.0179 33.4559 10.2461 33.0083 10.5846C32.5915 10.8869 32.2497 11.2808 32.0094 11.7361C31.769 12.1913 31.6364 12.6957 31.6219 13.2104C31.1017 13.3826 30.6299 13.6762 30.2457 14.0669C29.8614 14.4576 29.5756 14.9341 29.4119 15.4571C29.2495 15.9511 29.2056 16.4764 29.2838 16.9905C29.362 17.5046 29.5601 17.9931 29.8622 18.4165C29.5601 18.8398 29.362 19.3283 29.2838 19.8424C29.2056 20.3565 29.2495 20.8818 29.4119 21.3759ZM32.0015 17.5128C31.7673 17.3735 31.5877 17.1583 31.4926 16.9029C31.3974 16.6475 31.3924 16.3673 31.4782 16.1087C31.5664 15.826 31.7475 15.5815 31.9922 15.4148C32.2369 15.2481 32.5307 15.169 32.826 15.1903C33.003 15.195 33.1784 15.1563 33.3369 15.0776C33.4954 14.9989 33.6322 14.8825 33.7354 14.7387C33.8385 14.5949 33.9049 14.4279 33.9286 14.2525C33.9523 14.0771 33.9327 13.8986 33.8714 13.7325C33.7759 13.4821 33.7669 13.207 33.8458 12.9508C33.9247 12.6947 34.0869 12.4723 34.3068 12.3191C34.5491 12.1287 34.8482 12.0248 35.1563 12.0238C35.4645 12.0229 35.7641 12.1249 36.0076 12.3138C36.147 12.4172 36.3091 12.4857 36.4804 12.5135C36.6517 12.5412 36.8272 12.5274 36.9921 12.4731C37.1569 12.4189 37.3064 12.3259 37.4277 12.2018C37.5491 12.0778 37.639 11.9264 37.6896 11.7605C37.8985 11.0769 38.5042 10.8331 39.0013 10.8331C39.4984 10.8331 40.1041 11.0769 40.3129 11.7605C40.3636 11.9264 40.4535 12.0778 40.5748 12.2018C40.6962 12.3259 40.8457 12.4189 41.0105 12.4731C41.1754 12.5274 41.3508 12.5412 41.5222 12.5135C41.6935 12.4857 41.8556 12.4172 41.995 12.3138C42.2384 12.1248 42.5381 12.0226 42.8463 12.0236C43.1545 12.0245 43.4535 12.1285 43.6958 12.3191C43.9156 12.4723 44.0779 12.6947 44.1568 12.9508C44.2357 13.207 44.2267 13.4821 44.1311 13.7325C44.0699 13.8986 44.0503 14.0771 44.074 14.2525C44.0977 14.4279 44.1641 14.5949 44.2672 14.7387C44.3704 14.8825 44.5072 14.9989 44.6657 15.0776C44.8242 15.1563 44.9996 15.195 45.1766 15.1903C45.4718 15.1695 45.7654 15.2488 46.01 15.4154C46.2545 15.5821 46.4358 15.8263 46.5244 16.1087C46.6102 16.3673 46.6052 16.6475 46.51 16.9029C46.4149 17.1583 46.2353 17.3735 46.0011 17.5128C45.8518 17.6116 45.7292 17.7458 45.6445 17.9035C45.5597 18.0612 45.5153 18.2374 45.5153 18.4165C45.5153 18.5955 45.5597 18.7717 45.6445 18.9294C45.7292 19.0871 45.8518 19.2213 46.0011 19.3201C46.2353 19.4595 46.4149 19.6747 46.51 19.93C46.6052 20.1854 46.6102 20.4656 46.5244 20.7242C46.4361 21.0068 46.2549 21.2513 46.0103 21.418C45.7656 21.5847 45.4718 21.6638 45.1766 21.6426C44.9996 21.6379 44.8242 21.6766 44.6657 21.7553C44.5072 21.834 44.3704 21.9504 44.2672 22.0942C44.1641 22.2381 44.0977 22.405 44.074 22.5804C44.0503 22.7558 44.0699 22.9343 44.1311 23.1004C44.2267 23.3508 44.2357 23.626 44.1568 23.8821C44.0779 24.1382 43.9156 24.3606 43.6958 24.5139C43.4534 24.7042 43.1544 24.8081 42.8463 24.8091C42.5381 24.8101 42.2385 24.708 41.995 24.5192C41.8556 24.4157 41.6935 24.3472 41.5222 24.3195C41.3508 24.2917 41.1754 24.3056 41.0105 24.3598C40.8457 24.414 40.6962 24.5071 40.5748 24.6311C40.4535 24.7551 40.3636 24.9065 40.3129 25.0725C40.1041 25.756 39.4984 25.9998 39.0013 25.9998C38.5042 25.9998 37.8985 25.756 37.6896 25.0725C37.639 24.9065 37.5491 24.7551 37.4277 24.6311C37.3064 24.5071 37.1569 24.414 36.9921 24.3598C36.8272 24.3056 36.6517 24.2917 36.4804 24.3195C36.3091 24.3472 36.147 24.4157 36.0076 24.5192C35.7641 24.708 35.4645 24.81 35.1563 24.809C34.8482 24.8081 34.5492 24.7042 34.3068 24.5139C34.0869 24.3606 33.9247 24.1382 33.8458 23.8821C33.7669 23.626 33.7759 23.3508 33.8714 23.1004C33.9327 22.9343 33.9523 22.7558 33.9286 22.5804C33.9049 22.405 33.8385 22.2381 33.7354 22.0942C33.6322 21.9504 33.4954 21.834 33.3369 21.7553C33.1784 21.6766 33.003 21.6379 32.826 21.6426C32.5307 21.6642 32.2367 21.5852 31.992 21.4184C31.7473 21.2517 31.5662 21.007 31.4782 20.7242C31.3924 20.4656 31.3974 20.1854 31.4926 19.93C31.5877 19.6747 31.7673 19.4595 32.0015 19.3201C32.1508 19.2213 32.2733 19.0871 32.3581 18.9294C32.4429 18.7717 32.4873 18.5955 32.4873 18.4165C32.4873 18.2374 32.4429 18.0612 32.3581 17.9035C32.2733 17.7458 32.1508 17.6116 32.0015 17.5128Z" fill="#0369CA"></path><path d="M16.5664 26.3174L10.0664 32.8174L11.5985 34.3494L18.0984 27.8495L16.5664 26.3174Z" fill="#0369CA"></path><path d="M19.8203 29.5669L13.3203 36.0669L14.8524 37.599L21.3524 31.099L19.8203 29.5669Z" fill="#0369CA"></path><path d="M23.0664 32.8169L16.5664 39.3169L18.0985 40.849L24.5984 34.349L23.0664 32.8169Z" fill="#0369CA"></path><path d="M26.3164 36.0674L19.8164 42.5674L21.3485 44.0994L27.8484 37.5995L26.3164 36.0674Z" fill="#0369CA"></path><path d="M29.5664 39.3174L26.3164 42.5674L27.8485 44.0994L31.0985 40.8495L29.5664 39.3174Z" fill="#0369CA"></path><path d="M24.5985 20.9006L23.0664 22.4326L25.707 25.0732L27.2391 23.5412L24.5985 20.9006Z" fill="#0369CA"></path><path d="M28.661 24.9631L27.1289 26.4951L33.8998 33.266L35.4318 31.7339L28.661 24.9631Z" fill="#0369CA"></path><path d="M11.6525 7.55085C12.7716 7.82934 13.7937 8.40731 14.6091 9.22273C15.4245 10.0381 16.0025 11.0602 16.2809 12.1793C16.3396 12.4136 16.4748 12.6217 16.6653 12.7704C16.8557 12.919 17.0903 12.9998 17.3319 12.9998C17.5735 12.9998 17.8082 12.919 17.9986 12.7704C18.189 12.6217 18.3243 12.4136 18.3829 12.1793C18.6614 11.0602 19.2393 10.0381 20.0548 9.22273C20.8702 8.40731 21.8923 7.82934 23.0113 7.55085C23.2457 7.49224 23.4537 7.35698 23.6024 7.16655C23.7511 6.97613 23.8318 6.74147 23.8318 6.49989C23.8318 6.2583 23.7511 6.02364 23.6024 5.83322C23.4537 5.64279 23.2457 5.50753 23.0113 5.44892C21.8923 5.17043 20.8702 4.59246 20.0548 3.77704C19.2393 2.96163 18.6614 1.93955 18.3829 0.82051C18.3243 0.586142 18.189 0.378088 17.9986 0.22942C17.8082 0.0807518 17.5735 0 17.3319 0C17.0903 0 16.8557 0.0807518 16.6653 0.22942C16.4748 0.378088 16.3396 0.586142 16.2809 0.82051C16.0025 1.93955 15.4245 2.96163 14.6091 3.77704C13.7937 4.59246 12.7716 5.17043 11.6525 5.44892C11.4182 5.50753 11.2101 5.64279 11.0615 5.83322C10.9128 6.02364 10.832 6.2583 10.832 6.49989C10.832 6.74147 10.9128 6.97613 11.0615 7.16655C11.2101 7.35698 11.4182 7.49224 11.6525 7.55085ZM17.3319 3.81593C18.0129 4.9014 18.9304 5.81891 20.0159 6.49989C18.9304 7.18086 18.0129 8.09837 17.3319 9.18384C16.6509 8.09837 15.7334 7.18086 14.648 6.49989C15.7334 5.81891 16.6509 4.9014 17.3319 3.81593Z" fill="#0369CA"></path><path d="M51.8225 30.0638L43.6523 38.2339L45.1844 39.766L53.3545 31.5958L51.8225 30.0638Z" fill="#0369CA"></path><path d="M55.5651 26.3173L53.3984 28.4839L54.9305 30.016L57.0971 27.8493L55.5651 26.3173Z" fill="#0369CA"></path><path d="M63.9168 43.3334H54.1668C53.8795 43.3334 53.6039 43.4475 53.4007 43.6507C53.1976 43.8538 53.0834 44.1294 53.0834 44.4167V45.4434C50.4542 43.554 47.3399 42.4551 44.1072 42.276C40.8745 42.0969 37.6579 42.8452 34.836 44.4327L32.9386 45.5H23.8334C22.8477 45.4996 21.8805 45.7683 21.0362 46.2772C20.1919 46.786 19.5026 47.5158 19.0425 48.3876C18.5825 49.2594 18.3692 50.2403 18.4257 51.2245C18.4821 52.2086 18.8062 53.1587 19.3629 53.9722L7.8081 48.2316C7.11695 47.8895 6.35735 47.7081 5.58618 47.7011L5.12048 47.6976C3.97245 47.6888 2.85526 48.069 1.95094 48.7763C1.04662 49.4836 0.408457 50.4762 0.140427 51.5926C-0.127603 52.7089 -0.00970577 53.8831 0.474912 54.9239C0.959529 55.9647 1.7823 56.8107 2.80919 57.3241L16.1024 63.9709C17.4568 64.6461 18.9493 64.9983 20.4628 65H63.9168C64.2041 65 64.4796 64.8859 64.6828 64.6827C64.886 64.4796 65.0001 64.204 65.0001 63.9167V44.4167C65.0001 44.1294 64.886 43.8538 64.6828 43.6507C64.4796 43.4475 64.2041 43.3334 63.9168 43.3334ZM17.0713 62.0328L3.77823 55.3861C3.19094 55.0925 2.71998 54.6092 2.44165 54.0145C2.16333 53.4198 2.09394 52.7486 2.24473 52.1095C2.39552 51.4705 2.75766 50.9011 3.27247 50.4935C3.78728 50.086 4.42461 49.8642 5.08121 49.8641H5.1041L5.56952 49.8676C6.01188 49.8717 6.44759 49.9757 6.84407 50.1719L19.018 56.2201C19.1678 56.2945 19.3328 56.3333 19.5001 56.3334H33.5834C33.8708 56.3334 34.1463 56.2192 34.3495 56.0161C34.5526 55.8129 34.6668 55.5373 34.6668 55.25C34.6668 54.9627 34.5526 54.6872 34.3495 54.484C34.1463 54.2808 33.8708 54.1667 33.5834 54.1667H23.8334C22.9715 54.1667 22.1448 53.8243 21.5353 53.2148C20.9258 52.6053 20.5834 51.7786 20.5834 50.9167C20.5834 50.0547 20.9258 49.2281 21.5353 48.6186C22.1448 48.0091 22.9715 47.6667 23.8334 47.6667H33.2223C33.4083 47.6667 33.5912 47.6188 33.7534 47.5276L35.8983 46.321C38.4744 44.872 41.4249 44.226 44.3709 44.4657C47.3169 44.7055 50.124 45.8202 52.432 47.6667L53.0834 48.1874V62.8334H20.4627C19.2855 62.8319 18.1247 62.5579 17.0713 62.0328ZM62.8334 62.8334H55.2501V45.5H62.8334V62.8334Z" fill="#0369CA"></path><path d="M59.0391 59.5835C59.3605 59.5835 59.6746 59.4882 59.9419 59.3096C60.2091 59.1311 60.4174 58.8773 60.5404 58.5804C60.6634 58.2834 60.6955 57.9567 60.6328 57.6415C60.5701 57.3263 60.4154 57.0367 60.1881 56.8094C59.9609 56.5822 59.6713 56.4274 59.3561 56.3647C59.0409 56.302 58.7141 56.3342 58.4172 56.4572C58.1203 56.5802 57.8665 56.7885 57.6879 57.0557C57.5094 57.3229 57.4141 57.6371 57.4141 57.9585C57.4145 58.3893 57.5859 58.8024 57.8905 59.107C58.1952 59.4117 58.6082 59.583 59.0391 59.5835Z" fill="#0369CA"></path><path d="M22.4305 25.234L20.8984 26.7661L29.5651 35.4328L31.0972 33.9007L22.4305 25.234Z" fill="#0369CA"></path></svg>