<svg xmlns="http://www.w3.org/2000/svg" width="65" height="65" viewBox="0 0 65 65" fill="none"><path d="M23.3743 27.4983H16.4851C15.9114 27.4983 15.4463 27.9635 15.4463 28.5371V50.5264C15.4463 51.1001 15.9114 51.5652 16.4851 51.5652H23.3743C23.948 51.5652 24.4131 51.1001 24.4131 50.5264V28.5371C24.4131 27.9635 23.948 27.4983 23.3743 27.4983ZM22.3356 49.4876H17.5239V29.5759H22.3356V49.4876ZM31.7275 50.5264C31.7275 51.1001 31.2624 51.5652 30.6887 51.5652H29.2773C28.7036 51.5652 28.2385 51.1001 28.2385 50.5264V31.4086C28.2385 30.8349 28.7036 30.3698 29.2773 30.3698H36.1665C36.7402 30.3698 37.2053 30.8349 37.2053 31.4086V34.9076C37.2053 35.4813 36.7402 35.9464 36.1665 35.9464C35.5929 35.9464 35.1277 35.4813 35.1277 34.9076V32.4474H30.3161V49.4876H30.6887C31.2624 49.4876 31.7275 49.9527 31.7275 50.5264ZM42.0691 18.4615H48.9585C49.5321 18.4615 49.9972 18.9266 49.9972 19.5003V28.9545C49.9972 29.5281 49.5321 29.9933 48.9585 29.9933C48.3848 29.9933 47.9197 29.5281 47.9197 28.9545V20.5391H43.1079V30.2371C43.1079 30.8108 42.6427 31.2759 42.0691 31.2759C41.4954 31.2759 41.0303 30.8108 41.0303 30.2371V19.5003C41.0303 18.9266 41.4954 18.4615 42.0691 18.4615ZM10.5822 36.028H3.69303C3.11936 36.028 2.65424 36.4931 2.65424 37.0668V50.5262C2.65424 51.0999 3.11936 51.565 3.69303 51.565H10.5822C11.1558 51.565 11.6209 51.0999 11.6209 50.5262V37.0668C11.6209 36.4931 11.1558 36.028 10.5822 36.028ZM9.54337 49.4875H4.73182V38.1056H9.54337V49.4875ZM6.49932 28.0206C6.04667 28.3731 5.96551 29.0258 6.31792 29.4785C6.52282 29.7415 6.82901 29.8791 7.13831 29.8791C7.36139 29.8791 7.58603 29.8076 7.77574 29.6599L11.6621 26.6338H18.1688C18.7425 26.6338 19.2076 26.1687 19.2076 25.595V21.6676C19.2076 21.3984 19.1044 21.1539 18.9364 20.9694L20.1333 20.0374L32.4016 24.0136C32.5067 24.0477 32.6148 24.0642 32.7218 24.0642C32.9946 24.0642 33.2613 23.9567 33.4596 23.7569L44.1499 12.9753L44.0171 14.1633C43.9533 14.7334 44.3638 15.2472 44.9341 15.311C44.9733 15.3154 45.0122 15.3176 45.0507 15.3176C45.5728 15.3176 46.0223 14.9251 46.0817 14.3941L46.5461 10.2399C46.5808 9.93032 46.4746 9.62154 46.257 9.39872C46.0395 9.1759 45.7338 9.06228 45.4229 9.08955L41.2588 9.45468C40.6873 9.50493 40.2647 10.0089 40.3147 10.5803C40.3649 11.1518 40.8673 11.5745 41.4403 11.5245L42.7789 11.4071L32.4342 21.8403L20.2499 17.8913C19.9219 17.7851 19.5633 17.8482 19.2914 18.06L17.2934 19.6157V18.4827C17.2934 18.084 17.135 17.7123 16.848 17.4365L13.8038 14.508V13.5201C14.7189 13.3753 15.684 13.0001 16.3432 12.2866H19.1114C19.9117 12.2866 20.5629 11.6354 20.5629 10.8351V9.41962C20.5629 7.91377 19.7144 6.58463 18.3485 5.95058C18.3424 5.94785 18.3365 5.94513 18.3304 5.94253L13.6763 3.88988V1.61597C13.6763 0.724946 12.9514 0 12.0605 0C9.61452 0 7.59083 1.84255 7.30477 4.21269C5.9637 4.81648 4.70507 6.01304 3.70264 7.65342C2.54919 9.54051 1.9141 11.7259 1.9141 13.8068V20.6288H1.03879C0.465118 20.6288 0 21.0939 0 21.6676V25.595C0 26.1687 0.465118 26.6338 1.03879 26.6338H8.28033L6.49932 28.0206ZM3.99168 13.8068C3.99168 10.1194 6.46569 6.55347 8.59391 5.94643C9.0402 5.81917 9.34782 5.41145 9.34782 4.9475V4.79038C9.34782 3.45177 10.3222 2.33676 11.5989 2.11693V4.56704C11.5989 4.97866 11.8418 5.35146 12.2184 5.51741L17.4821 7.83897C18.1198 8.1384 18.4853 8.71402 18.4853 9.41962V10.209H15.8292C15.4615 10.209 15.1213 10.4034 14.9344 10.7201C14.6114 11.2682 13.5918 11.539 12.7972 11.513C12.5137 11.5029 12.2436 11.6099 12.042 11.8055C11.8401 12.0011 11.7263 12.2702 11.7263 12.5513V14.9503C11.7263 15.2328 11.8413 15.503 12.0449 15.699L15.2158 18.7493V20.629H3.99168V13.8068ZM2.07758 22.7064H15.8739C16.1164 22.8018 16.3898 22.8044 16.637 22.7064H17.13V24.5562H2.07758V22.7064ZM63.1311 57.0982C63.2884 57.6499 62.9688 58.2247 62.4172 58.3822L59.7298 59.149C59.6361 59.1756 59.5401 59.1889 59.4448 59.1889C59.2278 59.1889 59.0136 59.1208 58.8341 58.9904C58.5758 58.8027 58.4182 58.5065 58.4066 58.1873L58.3064 55.3945C58.2859 54.8213 58.734 54.3398 59.3073 54.3191C59.8273 54.3032 60.265 54.6632 60.3622 55.1537C63.5531 49.7264 62.7692 42.5763 58.1956 38.0029C53.6698 33.4771 46.6505 32.563 41.1266 35.7792C40.6305 36.0678 39.9947 35.9 39.7063 35.4042C39.4176 34.9084 39.5854 34.2724 40.0813 33.9839C46.4199 30.2932 54.4726 31.342 59.6647 36.5337C62.5441 39.4133 64.2228 43.2382 64.3911 47.3042C64.5239 50.5109 63.711 53.6452 62.0768 56.3466C62.55 56.3209 62.9954 56.623 63.1311 57.0982ZM56.7309 60.555C57.0196 61.0508 56.8517 61.6868 56.3558 61.9754C53.8245 63.4491 51.0194 64.167 48.2327 64.167C44.0415 64.167 39.8915 62.5435 36.7729 59.425C33.8937 56.5455 32.2151 52.7207 32.0467 48.6549C31.9137 45.448 32.7266 42.3136 34.3609 39.6121C33.8876 39.6374 33.4424 39.3354 33.3067 38.8605C33.1494 38.3088 33.4691 37.7339 34.0206 37.5764L36.708 36.8097C37.015 36.7224 37.3454 36.7806 37.6037 36.9683C37.862 37.1561 38.0196 37.4523 38.0312 37.7715L38.1314 40.5642C38.1519 41.1375 37.7038 41.619 37.1305 41.6397C37.1178 41.64 37.1052 41.6403 37.0926 41.6403C36.5924 41.6403 36.1708 41.284 36.0755 40.805C32.8847 46.2321 33.6685 53.3827 38.2419 57.9559C42.7674 62.4817 49.7862 63.396 55.3101 60.18C55.8064 59.8912 56.4423 60.0594 56.7309 60.555ZM58.7866 50.3285C59.1876 50.1742 59.4522 49.7888 59.4522 49.359V46.5998C59.4522 46.17 59.1876 45.7847 58.7866 45.6303L57.5902 45.1697C57.4003 44.5355 57.1465 43.9233 56.8317 43.3403L57.3524 42.168C57.5268 41.7753 57.4415 41.3158 57.1376 41.0118L55.1865 39.0607C54.8825 38.757 54.4231 38.6717 54.0303 38.846L52.8576 39.3669C52.2745 39.0522 51.6624 38.7984 51.0286 38.6086L50.5681 37.4119C50.4138 37.0108 50.0284 36.7462 49.5986 36.7462H46.8392C46.4094 36.7462 46.0241 37.0108 45.8697 37.4118L45.409 38.6086C44.7752 38.7984 44.1633 39.0522 43.5802 39.3669L42.4075 38.846C42.0147 38.6713 41.5554 38.7569 41.2513 39.0607L39.3002 41.0118C38.9963 41.3158 38.911 41.7753 39.0854 42.168L39.6064 43.3407C39.2915 43.9237 39.0377 44.5358 38.8479 45.1697L37.6514 45.6303C37.2502 45.7846 36.9856 46.17 36.9856 46.5998V49.359C36.9856 49.7888 37.2501 50.174 37.6512 50.3285L38.8476 50.7891C39.0375 51.4231 39.2913 52.0355 39.6062 52.6186L39.0854 53.7909C38.911 54.1836 38.9963 54.6431 39.3002 54.9471L41.2513 56.8982C41.5553 57.2019 42.0147 57.2872 42.4075 57.113L43.5804 56.592C44.1634 56.9068 44.7754 57.1604 45.409 57.3502L45.8697 58.5471C46.024 58.9481 46.4094 59.2127 46.8392 59.2127H49.5986C50.0284 59.2127 50.4137 58.9481 50.5681 58.5471L51.0286 57.3507C51.6628 57.1609 52.2751 56.907 52.8581 56.5923L54.0303 57.113C54.4229 57.2873 54.8824 57.202 55.1865 56.8982L57.1376 54.9471C57.4415 54.6431 57.5268 54.1836 57.3524 53.7909L56.8314 52.618C57.1462 52.0348 57.4001 51.4227 57.5898 50.7892L58.7866 50.3285ZM57.3746 48.6458L56.3507 49.0399C56.0311 49.1628 55.7927 49.4356 55.7134 49.7688C55.5249 50.5612 55.212 51.316 54.7832 52.0122C54.6036 52.304 54.5795 52.6654 54.7184 52.9784L55.1642 53.982L54.2217 54.9246L53.2185 54.479C52.9057 54.3399 52.544 54.3643 52.2521 54.5439C51.5565 54.9725 50.8014 55.2855 50.0083 55.4741C49.6751 55.5535 49.4023 55.7919 49.2793 56.1116L48.8853 57.135H47.5524L47.1584 56.1112C47.0354 55.7916 46.7627 55.5531 46.4295 55.4739C45.6369 55.2852 44.8821 54.9721 44.1859 54.5436C43.8942 54.3639 43.5326 54.3399 43.2198 54.4788L42.2162 54.9246L41.2737 53.9822L41.7194 52.979C41.8583 52.6659 41.8342 52.3044 41.6545 52.0126C41.2258 51.3166 40.9128 50.5616 40.7241 49.7687C40.6449 49.4355 40.4065 49.1627 40.0868 49.0397L39.0633 48.6458V47.3129L40.0869 46.9189C40.4066 46.796 40.6451 46.5231 40.7243 46.1899C40.913 45.3971 41.226 44.6422 41.6546 43.9464C41.8343 43.6548 41.8586 43.2932 41.7195 42.9801L41.2737 41.9765L42.2162 41.034L43.2198 41.4798C43.5326 41.6187 43.8942 41.5949 44.1861 41.4149C44.882 40.9864 45.6368 40.6735 46.4294 40.4848C46.7626 40.4056 47.0354 40.1672 47.1584 39.8475L47.5524 38.8236H48.8853L49.2793 39.8474C49.4023 40.167 49.6751 40.4056 50.0083 40.4848C50.801 40.6735 51.5558 40.9864 52.2517 41.4149C52.5436 41.5949 52.9052 41.6187 53.218 41.4798L54.2216 41.034L55.1641 41.9765L54.7184 42.9797C54.5793 43.2928 54.6036 43.6544 54.7833 43.9462C55.212 44.6418 55.5249 45.3968 55.7136 46.1899C55.7929 46.5231 56.0313 46.796 56.351 46.9189L57.3745 47.3129V48.6458H57.3746ZM48.2188 42.1284C44.9926 42.1284 42.3679 44.7532 42.3679 47.9794C42.3679 51.2057 44.9926 53.8305 48.2188 53.8305C51.4452 53.8305 54.07 51.2057 54.07 47.9794C54.0698 44.7532 51.4451 42.1284 48.2188 42.1284ZM48.2188 51.7528C46.1383 51.7528 44.4454 50.0601 44.4454 47.9793C44.4454 45.8987 46.1381 44.2059 48.2188 44.2059C50.2995 44.2059 51.9924 45.8986 51.9924 47.9793C51.9922 50.0601 50.2995 51.7528 48.2188 51.7528Z" fill="#0458B9"></path></svg>