<svg xmlns="http://www.w3.org/2000/svg" width="53" height="53" viewBox="0 0 53 53" fill="none"><mask id="mask0_298_110" style="mask-type:luminance" maskUnits="userSpaceOnUse" x="0" y="0" width="53" height="53"><path d="M52.0686 52.068V0.599388H0.6V52.068H52.0686Z" fill="white" stroke="white" stroke-width="1.2"></path></mask><g mask="url(#mask0_298_110)"><path d="M30.6816 19.1466C26.7117 15.1767 20.2753 15.1767 16.3055 19.1466C12.3357 23.1164 12.3357 29.5528 16.3055 33.5227C20.2753 37.4924 26.7117 37.4924 30.6816 33.5227C34.6514 29.5528 34.6514 23.1164 30.6816 19.1466Z" stroke="#047BDC" stroke-width="1.2" stroke-miterlimit="10" stroke-linecap="round" stroke-linejoin="round"></path><path d="M29.0001 24.5996H25.2207V20.8202C25.2207 20.2821 24.7846 19.8459 24.2464 19.8459H22.7319C22.1938 19.8459 21.7577 20.2821 21.7577 20.8202V24.5996H17.9782C17.4402 24.5996 17.0039 25.0359 17.0039 25.574V27.0884C17.0039 27.6265 17.4402 28.0628 17.9782 28.0628H21.7577V31.842C21.7577 32.3802 22.1938 32.8164 22.7319 32.8164H24.2464C24.7846 32.8164 25.2207 32.3802 25.2207 31.842V28.0628H29.0001C29.5382 28.0628 29.9745 27.6265 29.9745 27.0884V25.574C29.9745 25.0359 29.5382 24.5996 29.0001 24.5996Z" stroke="#047BDC" stroke-width="1.2" stroke-miterlimit="10" stroke-linecap="round" stroke-linejoin="round"></path><path d="M28.2592 6.18164H17.4688C16.5216 6.18164 15.7539 5.41383 15.7539 4.46662V2.48682C15.7539 1.53961 16.5216 0.771693 17.4688 0.771693H28.2592C29.2063 0.771693 29.9742 1.53961 29.9742 2.48682V4.46662C29.9742 5.41383 29.2063 6.18164 28.2592 6.18164Z" stroke="#047BDC" stroke-width="1.2" stroke-miterlimit="10" stroke-linecap="round" stroke-linejoin="round"></path><path d="M15.7532 3.41917H7.68291C5.71792 3.41917 4.125 5.01209 4.125 6.97697V48.3386C4.125 50.3036 5.71792 51.8965 7.68291 51.8965H38.0439C40.0089 51.8965 41.6018 50.3036 41.6018 48.3386V30.2875" stroke="#047BDC" stroke-width="1.2" stroke-miterlimit="10" stroke-linecap="round" stroke-linejoin="round"></path><path d="M41.6048 20.291V6.97667C41.6048 5.01178 40.0119 3.41886 38.0469 3.41886H29.9766" stroke="#047BDC" stroke-width="1.2" stroke-miterlimit="10" stroke-linecap="round" stroke-linejoin="round"></path><path d="M7.68359 43.2361V47.0625C7.68359 47.9555 8.41067 48.6778 9.30377 48.6718L29.6022 48.542" stroke="#047BDC" stroke-width="1.2" stroke-miterlimit="10" stroke-linecap="round" stroke-linejoin="round"></path><path d="M7.6837 3.41734H7.68359V40.1504" stroke="#047BDC" stroke-width="1.2" stroke-miterlimit="10" stroke-linecap="round" stroke-linejoin="round"></path><path d="M38.043 10.3125V3.4195" stroke="#047BDC" stroke-width="1.2" stroke-miterlimit="10" stroke-linecap="round" stroke-linejoin="round"></path><path d="M38.043 28.0898V13.3996" stroke="#047BDC" stroke-width="1.2" stroke-miterlimit="10" stroke-linecap="round" stroke-linejoin="round"></path><path d="M32.6719 48.5254L36.4454 48.5013C37.33 48.4954 38.0441 47.7765 38.0441 46.8918V38.0855" stroke="#047BDC" stroke-width="1.2" stroke-miterlimit="10" stroke-linecap="round" stroke-linejoin="round"></path><path d="M33.9981 46.7347L30.413 51.5855C29.9257 52.2448 28.8842 51.769 29.0635 50.9691L30.3827 45.0833C30.4455 44.8028 30.5374 44.5296 30.6569 44.2681L44.6307 13.6759C44.949 12.9789 45.7721 12.672 46.469 12.9904L47.723 13.5632C48.4199 13.8815 48.7269 14.7045 48.4085 15.4015L34.4347 45.9938C34.3152 46.2552 34.1688 46.5036 33.9981 46.7347Z" stroke="#047BDC" stroke-width="1.2" stroke-miterlimit="10" stroke-linecap="round" stroke-linejoin="round"></path><path d="M33.9943 46.7344L30.3789 45.0829" stroke="#047BDC" stroke-width="1.2" stroke-miterlimit="10" stroke-linecap="round" stroke-linejoin="round"></path><path d="M47.4067 17.5859L43.6289 15.8603" stroke="#047BDC" stroke-width="1.2" stroke-miterlimit="10" stroke-linecap="round" stroke-linejoin="round"></path><path d="M42.5547 18.2177L46.3325 19.9434" stroke="#047BDC" stroke-width="1.2" stroke-miterlimit="10" stroke-linecap="round" stroke-linejoin="round"></path></g></svg>