<svg xmlns="http://www.w3.org/2000/svg" width="64" height="77" viewBox="0 0 64 77" fill="none"><path d="M58.0386 17.8754H54.5775C53.8589 15.3202 51.9589 13.2025 49.4254 12.2396C48.4426 6.71402 43.6415 2.64155 37.9435 2.64155C36.8461 2.64155 35.7667 2.79278 34.7241 3.09185C32.4042 1.09262 29.4718 0 26.387 0C19.3707 0 13.656 5.68001 13.5997 12.6833C11.5288 13.7845 10.0331 15.6668 9.41848 17.8754H5.96155C2.67431 17.8754 0 20.5497 0 23.837V56.3829C0 59.6701 2.67431 62.3445 5.96155 62.3445H21.099V67.3991H15.1287C12.2254 67.3991 9.86341 69.3972 9.86341 71.8533V75.0771C9.86341 75.7568 10.4145 76.3079 11.0942 76.3079H52.9057C53.5854 76.3079 54.1364 75.7568 54.1364 75.0771V71.8536C54.1364 69.3976 51.7744 67.3994 48.8712 67.3994H42.9009V62.3448H58.0384C61.3257 62.3448 64 59.6705 64 56.3832V23.8371C64.0002 20.5497 61.3258 17.8754 58.0386 17.8754ZM16.073 28.4785C16.2451 30.9896 17.0068 33.4265 18.302 35.5852C18.5328 35.9698 18.9404 36.1829 19.3585 36.1829C19.5739 36.1829 19.7924 36.1262 19.9905 36.0073C20.5733 35.6576 20.7624 34.9015 20.4125 34.3187C19.1593 32.2298 18.4967 29.8313 18.4967 27.3825C18.4967 19.9368 24.5542 13.8793 31.9999 13.8793C34.2839 13.8793 36.5129 14.46 38.4879 15.5422C38.1484 15.772 37.9304 16.1653 37.9462 16.6053C37.9701 17.2696 38.5161 17.7919 39.1755 17.7919C39.1904 17.7919 39.2053 17.7917 39.2204 17.7911L41.9369 17.6936C42.315 17.68 42.6658 17.4933 42.8884 17.1871C43.1107 16.8811 43.1801 16.4897 43.0764 16.1259L42.3306 13.5119C42.1441 12.858 41.4626 12.4791 40.8092 12.666C40.3735 12.7903 40.0612 13.135 39.9558 13.5442C37.5512 12.1616 34.8109 11.4176 32.0001 11.4176C23.6751 11.4176 16.8193 17.823 16.099 25.9639C13.5133 25.2942 11.57 22.9054 11.57 20.1513C11.57 17.7071 13.0405 15.5257 15.316 14.5939C15.8022 14.3948 16.1083 13.9091 16.0785 13.3846C16.0668 13.1796 16.0608 12.9788 16.0608 12.7879C16.0608 7.09402 20.6931 2.4617 26.387 2.4617C29.0805 2.4617 31.6299 3.49324 33.5659 5.36632C33.9029 5.69232 34.3958 5.79848 34.8372 5.64032C35.8312 5.28386 36.8762 5.10309 37.9435 5.10309C42.6532 5.10309 46.5864 8.62879 47.0924 13.304C47.1469 13.8076 47.5043 14.2263 47.993 14.3593C50.6055 15.0699 52.4303 17.4516 52.4303 20.1511C52.4303 22.9057 50.4864 25.2948 47.9003 25.9641C47.693 23.6354 46.9798 21.3748 45.8033 19.3557C45.4612 18.7684 44.7078 18.5696 44.1204 18.9119C43.5332 19.254 43.3344 20.0076 43.6766 20.5948C44.872 22.6462 45.5037 24.9933 45.5037 27.3824C45.5037 34.8281 39.4461 40.8856 32.0004 40.8856C29.7219 40.8856 27.4902 40.3035 25.5141 39.2216C25.8527 38.9916 26.0699 38.5989 26.0542 38.1596C26.0298 37.4804 25.4642 36.9467 24.7801 36.9738L22.0636 37.0713C21.6854 37.0849 21.3347 37.2716 21.1121 37.5778C20.8897 37.8838 20.8204 38.2752 20.9241 38.639L21.6699 41.2529C21.8242 41.7938 22.3171 42.1463 22.8528 42.1463C22.9647 42.1463 23.0784 42.1309 23.1911 42.0987C23.6261 41.9746 23.9381 41.631 24.0439 41.2227C26.4499 42.6049 29.1961 43.3472 32.0002 43.3472C40.4347 43.3472 47.3615 36.7722 47.9267 28.4787C49.6686 28.1659 51.2709 27.3122 52.5237 26.0096C53.0267 25.4867 53.4535 24.9093 53.8021 24.2931H57.5826V51.9143H6.41755V24.2931H10.198C10.5466 24.9094 10.9736 25.4867 11.4765 26.0096C12.7293 27.3121 14.3313 28.1658 16.073 28.4785ZM51.675 71.8536V73.8463H12.325V71.8536C12.325 70.7734 13.609 69.8609 15.1287 69.8609H48.8713C50.391 69.8609 51.675 70.7734 51.675 71.8536ZM40.4395 67.3994H23.5605V62.3448H40.4396V67.3994H40.4395ZM61.5386 56.3831C61.5386 58.3129 59.9685 59.8831 58.0386 59.8831H5.96155C4.0317 59.8831 2.46154 58.3129 2.46154 56.3831V23.8371C2.46154 21.9071 4.0317 20.3371 5.96155 20.3371H9.11295C9.12402 20.8434 9.17879 21.3431 9.27787 21.8316H5.84294C4.80247 21.8316 3.95601 22.6781 3.95601 23.7185V53.1451C3.95601 53.8247 4.50709 54.3758 5.18678 54.3758H58.8132C59.4929 54.3758 60.044 53.8247 60.044 53.1451V23.7184C60.044 22.6779 59.1975 21.8314 58.1571 21.8314H54.7221C54.8212 21.343 54.876 20.8431 54.8871 20.337H58.0384C59.9683 20.337 61.5385 21.9071 61.5385 23.837V56.3831H61.5386ZM21.7321 29.8608L22.7807 30.2645C22.953 30.8162 23.1745 31.3507 23.4434 31.863L22.9868 32.8907C22.7802 33.3561 22.8813 33.9005 23.2414 34.2607L25.1222 36.1413C25.4822 36.5013 26.0268 36.6027 26.4919 36.3958L27.5202 35.9392C28.0324 36.2079 28.5665 36.4295 29.1179 36.6016L29.5218 37.6509C29.7045 38.1259 30.1611 38.4395 30.6704 38.4395H33.3299C33.8392 38.4395 34.2956 38.1259 34.4785 37.6509L34.8822 36.6021C35.4339 36.4298 35.9686 36.2082 36.4809 35.9393L37.5086 36.3958C37.9739 36.6026 38.5186 36.5012 38.8784 36.1413L40.759 34.2607C41.119 33.9007 41.2201 33.3562 41.0135 32.8909L40.5567 31.8625C40.8255 31.3502 41.0472 30.8161 41.2193 30.2648L42.2684 29.861C42.7435 29.6782 43.057 29.2216 43.057 28.7124V26.0527C43.057 25.5434 42.7435 25.087 42.2684 24.9041L41.2196 24.5004C41.0475 23.9487 40.8258 23.4144 40.557 22.9021L41.0135 21.8744C41.2201 21.4091 41.119 20.8645 40.759 20.5045L38.8784 18.6239C38.5184 18.2639 37.9739 18.1627 37.5086 18.3693L36.4801 18.826C35.9679 18.5573 35.4338 18.3357 34.8824 18.1636L34.4785 17.1143C34.2958 16.6393 33.8392 16.3257 33.3299 16.3257H30.6704C30.1611 16.3257 29.7047 16.6393 29.5218 17.1143L29.1179 18.1636C28.5665 18.3359 28.0322 18.5573 27.5201 18.826L26.4918 18.3693C26.0264 18.1625 25.4818 18.2637 25.1219 18.6239L23.2413 20.5045C22.8813 20.8645 22.7802 21.409 22.9868 21.8742L23.4434 22.9024C23.1747 23.4147 22.953 23.949 22.7808 24.5004L21.7319 24.9042C21.2568 25.0871 20.9433 25.5436 20.9433 26.0528V28.7125C20.9433 29.2215 21.2568 29.6779 21.7321 29.8608ZM23.4048 26.8976L24.2444 26.5744C24.6231 26.4285 24.9056 26.1054 24.9994 25.7107C25.1758 24.9705 25.4679 24.2656 25.8682 23.6154C26.081 23.2699 26.1096 22.8416 25.945 22.4707L25.5794 21.6473L26.265 20.9617L27.0884 21.3274C27.459 21.4919 27.8875 21.4634 28.2331 21.2505C28.8831 20.8502 29.5882 20.5581 30.3284 20.3819C30.7232 20.2879 31.0462 20.0054 31.1919 19.6267L31.5153 18.787H32.4847L32.8081 19.6267C32.9538 20.0053 33.2768 20.2879 33.6716 20.3819C34.4118 20.5581 35.1167 20.8504 35.7669 21.2507C36.1127 21.4636 36.541 21.4919 36.9116 21.3274L37.735 20.9617L38.4206 21.6473L38.0552 22.4701C37.8906 22.841 37.9192 23.2693 38.1319 23.615C38.5322 24.2648 38.8246 24.9701 39.0009 25.7108C39.0947 26.1056 39.3773 26.4287 39.7559 26.5744L40.5952 26.8974V27.867L39.7555 28.1902C39.3767 28.3359 39.0943 28.6591 39.0004 29.0539C38.8243 29.7939 38.5319 30.4988 38.1316 31.1492C37.9189 31.4948 37.8902 31.9232 38.0549 32.2939L38.4206 33.1173L37.7352 33.8029L36.9122 33.4375C36.5416 33.2727 36.1132 33.3013 35.7673 33.5142C35.1173 33.9145 34.4122 34.2069 33.6716 34.383C33.2768 34.477 32.9536 34.7595 32.8079 35.1382L32.4847 35.9776H31.5153L31.1919 35.1379C31.0462 34.7593 30.7232 34.4767 30.3284 34.3827C29.5881 34.2065 28.8831 33.9142 28.2331 33.5141C27.8873 33.3012 27.459 33.2725 27.0884 33.4373L26.265 33.8029L25.5794 33.1173L25.945 32.2945C26.1098 31.9235 26.081 31.495 25.8681 31.1495C25.4678 30.4998 25.1756 29.7947 24.9994 29.0539C24.9054 28.6591 24.623 28.3359 24.2441 28.1901L23.4048 27.867V26.8976ZM32.0001 33.2515C35.2362 33.2515 37.8692 30.6185 37.8692 27.3824C37.8692 24.1462 35.2362 21.5134 32.0001 21.5134C28.7639 21.5134 26.1311 24.1462 26.1311 27.3824C26.1311 30.6185 28.7639 33.2515 32.0001 33.2515ZM32.0001 23.975C33.879 23.975 35.4076 25.5036 35.4076 27.3824C35.4076 29.2611 33.8789 30.7899 32.0001 30.7899C30.1213 30.7899 28.5927 29.2613 28.5927 27.3824C28.5927 25.5034 30.1212 23.975 32.0001 23.975ZM48.4955 34.8142L50.4278 32.3399C50.661 32.0413 51.0189 31.8667 51.3978 31.8667C51.7767 31.8667 52.1346 32.0413 52.3678 32.3399L54.3001 34.8142C54.7186 35.3499 54.6235 36.1235 54.0877 36.5418C53.8627 36.7175 53.596 36.8026 53.3311 36.8026C53.0829 36.8026 52.8374 36.7261 52.6287 36.581V43.1098C52.6287 43.7895 52.0777 44.3406 51.398 44.3406C50.7183 44.3406 50.1672 43.7895 50.1672 43.1098V36.5835C49.736 36.8827 49.1437 36.8819 48.7083 36.5418C48.1721 36.1235 48.077 35.3501 48.4955 34.8142ZM11.3716 39.6236V33.0975C11.3716 32.4178 11.9226 31.8667 12.6023 31.8667C13.282 31.8667 13.8331 32.4178 13.8331 33.0975V39.6239C14.2643 39.3247 14.8568 39.3253 15.2922 39.6655C15.8279 40.0839 15.9231 40.8573 15.5047 41.393L13.5722 43.8673C13.339 44.166 12.9811 44.3406 12.6022 44.3406C12.2231 44.3406 11.8654 44.166 11.632 43.8673L9.69987 41.393C9.28156 40.8573 9.37664 40.0838 9.91249 39.6655C10.3483 39.3255 10.9405 39.3247 11.3716 39.6236Z" fill="#047BDC"></path></svg>