<svg xmlns="http://www.w3.org/2000/svg" width="71" height="70" viewBox="0 0 71 70" fill="none"><path d="M61.3063 57.5768H8.88286C8.22482 57.5768 7.78613 57.1382 7.78613 56.4801V23.1397C7.78613 22.4817 8.22482 22.043 8.88286 22.043H15.5729C16.2309 22.043 16.6696 22.4817 16.6696 23.1397C16.6696 23.7977 16.2309 24.2364 15.5729 24.2364H9.97958V55.3834H60.2096V24.2364H54.2873C53.6292 24.2364 53.1905 23.7977 53.1905 23.1397C53.1905 22.4817 53.6292 22.043 54.2873 22.043H61.3063C61.9643 22.043 62.403 22.4817 62.403 23.1397V56.4801C62.403 57.1382 61.9643 57.5768 61.3063 57.5768Z" fill="#048DEF"></path><path d="M64.5971 69.0956H5.5933C2.41279 69.0956 0 66.6828 0 63.5023V60.8702C0 60.2121 0.43869 59.7734 1.09672 59.7734H27.8568C28.5148 59.7734 28.9535 60.2121 28.9535 60.8702V61.7475C28.9535 62.4056 29.5019 62.7346 29.9406 62.7346H40.2498C40.9078 62.7346 41.2368 62.1862 41.2368 61.7475V60.8702C41.2368 60.2121 41.6755 59.7734 42.3336 59.7734H69.0936C69.7517 59.7734 70.1904 60.2121 70.1904 60.8702V63.5023C70.1904 66.6828 67.7776 69.0956 64.5971 69.0956ZM2.19345 61.9669V63.5023C2.19345 65.3667 3.72886 66.9021 5.5933 66.9021H64.5971C66.4615 66.9021 67.9969 65.3667 67.9969 63.5023V61.9669H43.4303C43.3206 63.612 41.8949 64.928 40.2498 64.928H29.9406C28.2955 64.928 26.8698 63.612 26.7601 61.9669H2.19345Z" fill="#048DEF"></path><path d="M27.0895 26.6504H21.0575C16.6707 26.6504 13.1611 23.1409 13.1611 18.754C13.1611 14.9155 16.0126 11.6253 19.7415 10.9672C19.6318 10.4189 19.5221 9.87052 19.5221 9.32216C19.5221 4.16755 23.6897 0 28.8443 0C32.9022 0 36.302 2.52247 37.6181 6.03198C38.9342 4.93526 40.5792 4.27723 42.4437 4.27723C46.6112 4.27723 50.0111 7.67707 50.0111 11.8446C50.0111 12.5027 49.5724 12.9413 48.9143 12.9413C48.2563 12.9413 47.8176 12.5027 47.8176 11.8446C47.8176 8.88347 45.4048 6.47067 42.4437 6.47067C40.6889 6.47067 39.2632 7.23838 38.1665 8.55445V9.32216C38.1665 9.98019 37.7278 10.4189 37.0697 10.4189C36.4117 10.4189 35.973 9.98019 35.973 9.32216C35.973 5.37395 32.7925 2.19345 28.8443 2.19345C24.8961 2.19345 21.7156 5.37395 21.7156 9.32216C21.7156 10.1995 21.9349 10.9672 22.1543 11.6253C22.2639 11.9543 22.1543 12.2833 21.9349 12.6123C21.7156 12.9413 21.3866 13.051 21.0575 13.051C17.877 13.051 15.3546 15.5735 15.3546 18.754C15.3546 21.9345 17.877 24.457 21.0575 24.457H27.0895C27.7476 24.457 28.1863 24.8956 28.1863 25.5537C28.1863 26.2117 27.7476 26.6504 27.0895 26.6504Z" fill="#048DEF"></path><path d="M49.0229 26.5389H43.1006C42.4426 26.5389 42.0039 26.1002 42.0039 25.4422C42.0039 24.7842 42.4426 24.3455 43.1006 24.3455H49.0229C52.2034 24.3455 54.7259 21.823 54.7259 18.6425C54.7259 15.462 52.2034 12.9395 49.0229 12.9395C48.3649 12.9395 47.4875 13.1589 46.8295 13.3782C46.2811 13.5976 45.6231 13.3782 45.4038 12.8299C45.1844 12.2815 45.4038 11.6235 45.9521 11.4041C46.8295 10.9654 48.0359 10.7461 49.0229 10.7461C53.4098 10.7461 56.9194 14.2556 56.9194 18.6425C56.9194 23.0294 53.4098 26.5389 49.0229 26.5389Z" fill="#048DEF"></path><path d="M35.9722 32.1342C35.4238 32.1342 34.9852 31.8052 34.8755 31.2568C34.7658 30.9278 34.6561 30.4891 34.3271 30.3795C34.2175 30.3795 33.8884 30.5988 33.7788 31.0375C33.5594 31.5858 33.0111 31.8052 32.4627 31.6955C31.1466 31.3665 29.8306 30.7085 28.7338 29.7214C28.2951 29.3924 28.2951 28.844 28.5145 28.4053C28.7338 27.9667 28.8435 27.528 28.7338 27.4183C28.6242 27.3086 28.2951 27.199 27.7468 27.4183C27.1984 27.6376 26.6501 27.4183 26.4307 26.8699C25.7727 25.7732 25.4437 24.4571 25.334 22.9217C25.334 22.3734 25.663 21.9347 26.2114 21.7153C26.5404 21.6057 26.9791 21.496 27.0887 21.167C27.0887 21.0573 26.8694 20.7283 26.4307 20.6186C25.8823 20.3993 25.663 19.8509 25.7727 19.3025C26.1017 17.9865 26.7597 16.6704 27.7468 15.5737C28.0758 15.135 28.6242 15.135 29.0628 15.3543C29.6112 15.6833 29.9402 15.5737 30.0499 15.5737C30.1596 15.464 30.2692 15.135 30.0499 14.5866C29.8306 14.0383 30.0499 13.4899 30.5983 13.2706C31.695 12.6125 33.0111 12.2835 34.5465 12.1738C35.0948 12.1738 35.5335 12.5028 35.7529 13.0512C35.8625 13.3802 35.9722 13.8189 36.3012 13.9286C36.4109 13.9286 36.7399 13.7092 36.8496 13.2706C37.0689 12.7222 37.6173 12.5028 38.1657 12.6125C39.4817 12.9415 40.7978 13.5996 41.8945 14.5866C42.3332 14.9156 42.3332 15.464 42.1139 15.9027C41.6752 16.4511 41.6752 16.8897 41.7848 16.9994C41.8945 17.1091 42.2235 17.2188 42.7719 16.9994C43.3203 16.7801 43.8686 16.9994 44.088 17.5478C44.746 18.6445 45.075 19.9606 45.1847 21.496C45.1847 22.0443 44.8557 22.5927 44.1976 22.7024C43.759 22.8121 43.5396 23.0314 43.5396 23.0314V23.2507C43.5396 23.3604 43.759 23.6894 44.1976 23.7991C44.746 24.0185 44.9654 24.5668 44.8557 25.1152C44.5267 26.4312 43.8686 27.7473 42.8816 28.844C42.5526 29.2827 42.0042 29.2827 41.5655 29.0634C41.0171 28.7344 40.6881 28.844 40.5785 28.844C40.4688 28.9537 40.3591 29.2827 40.5785 29.8311C40.7978 30.3795 40.5785 30.9278 40.0301 31.1472C38.9334 31.5859 37.6173 32.0245 35.9722 32.1342ZM34.3271 28.2957H34.6561C35.2045 28.4053 36.0819 28.6247 36.6302 29.8311C37.1786 29.7214 37.727 29.6117 38.1657 29.3924C38.056 28.4053 38.385 27.528 39.043 26.9796C39.7011 26.4312 40.5785 26.3216 41.5655 26.6506C41.8945 26.2119 42.1139 25.6635 42.3332 25.2248C41.5655 24.6765 41.1268 23.6894 41.2365 22.9217C41.2365 22.0443 41.8945 21.2766 42.7719 20.838C42.6622 20.2896 42.5526 19.8509 42.3332 19.4122C41.3462 19.5219 40.4688 19.1929 39.9204 18.5348C39.3721 17.8768 39.2624 16.9994 39.5914 16.0124C39.1527 15.6833 38.6043 15.464 38.1657 15.2447C37.5076 16.0124 36.6302 16.4511 35.7529 16.3414C35.2045 16.2317 34.3271 16.0124 33.7788 14.806C33.2304 14.9156 32.682 15.0253 32.2433 15.2447C32.353 16.2317 32.024 17.1091 31.366 17.6575C30.7079 18.2058 29.7209 18.3155 28.8435 17.9865C28.5145 18.4252 28.2951 18.9735 28.0758 19.4122C28.8435 20.0702 29.2822 20.9476 29.1725 21.825C29.0628 22.3734 28.8435 23.2507 27.6371 23.7991C27.7468 24.3475 27.8565 24.8958 28.0758 25.3345C29.0628 25.2248 29.9402 25.5539 30.4886 26.2119C31.037 26.8699 31.1466 27.7473 30.8176 28.7344C31.2563 29.0634 31.8047 29.2827 32.2433 29.5021C32.7917 28.7344 33.5594 28.2957 34.3271 28.2957Z" fill="#048DEF"></path><path d="M35.3145 26.7577C35.0952 26.7577 34.9855 26.7577 34.7661 26.7577C32.2437 26.4286 30.3792 24.1255 30.5986 21.6031C30.9276 19.0806 33.2307 17.2162 35.7532 17.4355C38.2757 17.7645 40.1401 20.0676 39.9207 22.5901C39.7014 25.0029 37.6176 26.7577 35.3145 26.7577ZM35.2048 19.6289C33.9984 19.6289 32.9017 20.616 32.792 21.8224C32.6824 23.1385 33.6694 24.4545 34.9855 24.5642C35.6435 24.6739 36.3016 24.4545 36.8499 24.0158C37.3983 23.5772 37.7273 23.0288 37.7273 22.3708C37.837 21.0547 36.8499 19.7386 35.5338 19.6289C35.4242 19.6289 35.3145 19.6289 35.2048 19.6289Z" fill="#048DEF"></path><path d="M54.7265 51.1077H49.3525C48.6945 51.1077 48.2558 50.669 48.2558 50.0109V42.3339H46.172C45.7334 42.3339 45.4043 42.1145 45.185 41.6758C44.9656 41.2372 45.0753 40.7985 45.2947 40.4694L51.1073 33.4504C51.3266 33.2311 51.6557 33.0117 51.9847 33.0117C52.3137 33.0117 52.6427 33.1214 52.8621 33.4504L58.6747 40.4694C58.894 40.7985 59.0037 41.2372 58.7844 41.6758C58.565 42.1145 58.236 42.3339 57.7973 42.3339H55.8232V50.0109C55.8232 50.669 55.3845 51.1077 54.7265 51.1077ZM50.4493 48.9142H53.6298V41.2372C53.6298 40.5791 54.0685 40.1404 54.7265 40.1404H55.4942L51.9847 35.9729L48.4752 40.1404H49.3525C50.0106 40.1404 50.4493 40.5791 50.4493 41.2372V48.9142Z" fill="#048DEF"></path><path d="M18.2054 51.1077C17.8764 51.1077 17.5474 50.998 17.328 50.669L11.5154 43.6499C11.296 43.3209 11.1863 42.8822 11.4057 42.4436C11.625 42.0049 11.9541 41.7855 12.3927 41.7855H14.3669V34.1084C14.3669 33.4504 14.8055 33.0117 15.4636 33.0117H20.8375C21.4956 33.0117 21.9342 33.4504 21.9342 34.1084V41.7855H24.018C24.4567 41.7855 24.7857 42.0049 25.0051 42.4436C25.2244 42.8822 25.1147 43.3209 24.8954 43.6499L19.0828 50.669C18.8634 50.998 18.5344 51.1077 18.2054 51.1077ZM14.6959 44.0886L18.2054 48.2562L21.7149 44.0886H20.8375C20.1795 44.0886 19.7408 43.6499 19.7408 42.9919V35.3148H16.5603V42.9919C16.5603 43.6499 16.1216 44.0886 15.4636 44.0886H14.6959Z" fill="#048DEF"></path><path d="M41.7844 52.7529H28.4043C27.7463 52.7529 27.3076 52.3142 27.3076 51.6562V34.7666C27.3076 34.1086 27.7463 33.6699 28.4043 33.6699H37.6168C37.9458 33.6699 38.1652 33.7796 38.3845 33.9989L42.5521 38.1665C42.7714 38.3858 42.8811 38.6052 42.8811 38.9342V51.6562C42.8811 52.3142 42.4424 52.7529 41.7844 52.7529ZM29.5011 50.5595H40.6877V39.3729L37.1781 35.8634H29.5011V50.5595Z" fill="#048DEF"></path><path d="M65.6948 61.9659H43.212C42.5539 61.9659 42.1152 61.5272 42.1152 60.8691C42.1152 60.2111 42.5539 59.7724 43.212 59.7724H64.5981V22.7031C64.5981 21.058 63.3917 19.8517 61.7466 19.8517H56.4823C55.8243 19.8517 55.3856 19.413 55.3856 18.7549C55.3856 18.0969 55.8243 17.6582 56.4823 17.6582H61.7466C64.4884 17.6582 66.7915 19.9613 66.7915 22.7031V60.8691C66.7915 61.5272 66.3528 61.9659 65.6948 61.9659Z" fill="#048DEF"></path><path d="M26.7596 61.9659H4.49614C3.8381 61.9659 3.39941 61.5272 3.39941 60.8691V22.7031C3.39941 19.9613 5.70254 17.6582 8.44435 17.6582H13.7086C14.3667 17.6582 14.8053 18.0969 14.8053 18.7549C14.8053 19.413 14.3667 19.8517 13.7086 19.8517H8.44435C6.79926 19.8517 5.59286 21.058 5.59286 22.7031V59.7724H26.7596C27.4177 59.7724 27.8564 60.2111 27.8564 60.8691C27.8564 61.5272 27.4177 61.9659 26.7596 61.9659Z" fill="#048DEF"></path><path d="M35.0958 40.0313H32.9024C32.2444 40.0313 31.8057 39.5926 31.8057 38.9346C31.8057 38.2766 32.2444 37.8379 32.9024 37.8379H35.0958C35.7539 37.8379 36.1926 38.2766 36.1926 38.9346C36.1926 39.5926 35.7539 40.0313 35.0958 40.0313Z" fill="#048DEF"></path><path d="M37.2893 44.3067H32.9024C32.2444 44.3067 31.8057 43.868 31.8057 43.21C31.8057 42.552 32.2444 42.1133 32.9024 42.1133H37.2893C37.9473 42.1133 38.386 42.552 38.386 43.21C38.386 43.868 37.9473 44.3067 37.2893 44.3067Z" fill="#048DEF"></path><path d="M37.2893 48.5841H32.9024C32.2444 48.5841 31.8057 48.1454 31.8057 47.4873C31.8057 46.8293 32.2444 46.3906 32.9024 46.3906H37.2893C37.9473 46.3906 38.386 46.8293 38.386 47.4873C38.386 48.1454 37.9473 48.5841 37.2893 48.5841Z" fill="#048DEF"></path></svg>