<svg xmlns="http://www.w3.org/2000/svg" width="64" height="68" viewBox="0 0 64 68" fill="none"><path d="M21.1211 20.4019H33.7936V22.6685H21.1211V20.4019Z" fill="#047BDC"></path><path d="M35.9062 20.4019H38.0187V22.6688H35.9062V20.4019Z" fill="#047BDC"></path><path d="M40.125 20.4019H42.2374V22.6688H40.125V20.4019Z" fill="#047BDC"></path><path d="M21.1211 29.4683H33.7936V31.7349H21.1211V29.4683Z" fill="#047BDC"></path><path d="M35.9062 29.4683H38.0187V31.7353H35.9062V29.4683Z" fill="#047BDC"></path><path d="M40.125 29.4683H42.2374V31.7353H40.125V29.4683Z" fill="#047BDC"></path><path d="M21.1211 38.5347H33.7936V40.8013H21.1211V38.5347Z" fill="#047BDC"></path><path d="M35.9062 38.5347H38.0187V40.8017H35.9062V38.5347Z" fill="#047BDC"></path><path d="M40.125 38.5347H42.2374V40.8017H40.125V38.5347Z" fill="#047BDC"></path><path d="M59.1385 46.4676C58.2023 46.4689 57.2929 46.8033 56.5527 47.4186C55.8126 48.0338 55.2834 48.8951 55.0481 49.8675H43.2979V45.3343C44.1378 45.3333 44.9431 44.9747 45.537 44.3373C46.1309 43.7 46.465 42.8358 46.466 41.9344V38.5345H52.8023C54.2612 38.5333 55.7042 38.2078 57.0401 37.5783C58.3759 36.9489 59.5758 36.0292 60.564 34.8773C61.5521 33.7254 62.3072 32.3663 62.7815 30.8856C63.2557 29.405 63.439 27.8349 63.3197 26.2744C63.2003 24.714 62.781 23.197 62.0881 21.8191C61.3952 20.4412 60.4438 19.2324 59.2938 18.2688C58.1439 17.3052 56.8204 16.6078 55.4067 16.2205C53.9931 15.8332 52.52 15.7645 51.0804 16.0187C50.0473 11.8364 47.8644 8.08508 44.8162 5.25337C41.7679 2.42165 37.9955 0.640874 33.9906 0.143053C29.9856 -0.354768 25.9338 0.453449 22.3631 2.4624C18.7923 4.47135 15.8682 7.58789 13.9716 11.406C13.54 11.3588 13.1064 11.3352 12.6725 11.3351C9.31158 11.3351 6.08827 12.7679 3.7117 15.3184C1.33514 17.8688 0 21.3279 0 24.9348C0 28.5417 1.33514 32.0008 3.7117 34.5512C6.08827 37.1017 9.31158 38.5345 12.6725 38.5345H16.8967V41.9344C16.8977 42.8358 17.2318 43.7 17.8257 44.3373C18.4197 44.9747 19.2249 45.3333 20.0649 45.3343V49.8675H8.31464C8.05761 48.7992 7.44633 47.8682 6.59539 47.2489C5.74445 46.6297 4.71227 46.3647 3.69233 46.5038C2.67239 46.6428 1.7347 47.1762 1.05505 48.0041C0.375386 48.832 0.000413676 49.8975 0.000413676 51.0009C0.000413676 52.1042 0.375386 53.1697 1.05505 53.9976C1.7347 54.8255 2.67239 55.3589 3.69233 55.4979C4.71227 55.637 5.74445 55.372 6.59539 54.7528C7.44633 54.1335 8.05761 53.2025 8.31464 52.1342H21.1209C21.401 52.1342 21.6696 52.0148 21.8676 51.8022C22.0657 51.5897 22.177 51.3014 22.177 51.0009V45.3343H24.289V54.4008H15.8407C15.5606 54.4008 15.292 54.5202 15.0939 54.7327C14.8959 54.9452 14.7846 55.2335 14.7846 55.5341V59.0775C13.7891 59.3533 12.9216 60.0093 12.3445 60.9225C11.7675 61.8357 11.5206 62.9434 11.6502 64.038C11.7797 65.1325 12.2768 66.1388 13.0483 66.8682C13.8197 67.5976 14.8125 68 15.8407 68C16.8688 68 17.8617 67.5976 18.6331 66.8682C19.4046 66.1388 19.9016 65.1325 20.0312 64.038C20.1607 62.9434 19.9139 61.8357 19.3368 60.9225C18.7598 60.0093 17.8922 59.3533 16.8967 59.0775V56.6674H25.3451C25.6252 56.6674 25.8938 56.548 26.0918 56.3354C26.2899 56.1229 26.4011 55.8346 26.4011 55.5341V45.3343H30.6253V56.8109C29.6298 57.0867 28.7623 57.7427 28.1852 58.6559C27.6082 59.5691 27.3613 60.6768 27.4909 61.7714C27.6204 62.8659 28.1175 63.8722 28.8889 64.6016C29.6604 65.331 30.6532 65.7334 31.6814 65.7334C32.7095 65.7334 33.7024 65.331 34.4738 64.6016C35.2452 63.8722 35.7423 62.8659 35.8719 61.7714C36.0014 60.6768 35.7545 59.5691 35.1775 58.6559C34.6005 57.7427 33.7329 57.0867 32.7374 56.8109V45.3343H36.9616V55.5341C36.9616 55.8346 37.0729 56.1229 37.2709 56.3354C37.4689 56.548 37.7376 56.6674 38.0176 56.6674H46.466V59.0775C45.4705 59.3533 44.6029 60.0093 44.0259 60.9225C43.4489 61.8357 43.202 62.9434 43.3315 64.038C43.4611 65.1325 43.9582 66.1388 44.7296 66.8682C45.5011 67.5976 46.4939 68 47.522 68C48.5502 68 49.543 67.5976 50.3145 66.8682C51.0859 66.1388 51.583 65.1325 51.7126 64.038C51.8421 62.9434 51.5952 61.8357 51.0182 60.9225C50.4412 60.0093 49.5736 59.3533 48.5781 59.0775V55.5341C48.5781 55.2335 48.4668 54.9452 48.2688 54.7327C48.0707 54.5202 47.8021 54.4008 47.522 54.4008H39.0737V45.3343H41.1858V51.0009C41.1858 51.3014 41.297 51.5897 41.4951 51.8022C41.6931 52.0148 41.9617 52.1342 42.2418 52.1342H55.0481C55.2456 52.9551 55.6537 53.7001 56.226 54.2846C56.7983 54.8691 57.5118 55.2697 58.2856 55.4408C59.0594 55.6119 59.8624 55.5467 60.6034 55.2526C61.3444 54.9585 61.9937 54.4473 62.4775 53.7771C62.9614 53.1068 63.2603 52.3044 63.3405 51.4609C63.4207 50.6174 63.2788 49.7667 62.9311 49.0054C62.5833 48.2441 62.0436 47.6028 61.3732 47.1542C60.7028 46.7056 59.9286 46.4677 59.1385 46.4676ZM4.22418 53.2675C3.80645 53.2675 3.3981 53.1345 3.05077 52.8855C2.70344 52.6364 2.43272 52.2824 2.27286 51.8682C2.11301 51.4541 2.07118 50.9983 2.15267 50.5587C2.23417 50.119 2.43533 49.7151 2.73071 49.3981C3.02609 49.0811 3.40243 48.8652 3.81213 48.7778C4.22184 48.6903 4.64651 48.7352 5.03244 48.9068C5.41838 49.0783 5.74824 49.3688 5.98032 49.7416C6.2124 50.1143 6.33627 50.5526 6.33627 51.0009C6.33561 51.6018 6.11287 52.1779 5.71692 52.6028C5.32097 53.0277 4.78414 53.2668 4.22418 53.2675ZM17.9528 63.4672C17.9528 63.9155 17.8289 64.3537 17.5968 64.7265C17.3647 65.0992 17.0349 65.3897 16.6489 65.5613C16.263 65.7329 15.8383 65.7777 15.4286 65.6903C15.0189 65.6028 14.6426 65.387 14.3472 65.07C14.0518 64.753 13.8507 64.3491 13.7692 63.9094C13.6877 63.4697 13.7295 63.014 13.8894 62.5998C14.0492 62.1857 14.3199 61.8317 14.6673 61.5826C15.0146 61.3335 15.423 61.2006 15.8407 61.2006C16.4006 61.2013 16.9375 61.4404 17.3334 61.8653C17.7294 62.2902 17.9521 62.8663 17.9528 63.4672ZM33.7935 61.2006C33.7935 61.6489 33.6696 62.0871 33.4375 62.4599C33.2054 62.8326 32.8756 63.1231 32.4896 63.2947C32.1037 63.4662 31.679 63.5111 31.2693 63.4237C30.8596 63.3362 30.4833 63.1203 30.1879 62.8033C29.8925 62.4864 29.6914 62.0825 29.6099 61.6428C29.5284 61.2031 29.5702 60.7474 29.73 60.3332C29.8899 59.919 30.1606 59.565 30.5079 59.316C30.8553 59.0669 31.2636 58.934 31.6814 58.934C32.2413 58.9347 32.7782 59.1737 33.1741 59.5987C33.5701 60.0236 33.7928 60.5997 33.7935 61.2006ZM49.6341 63.4672C49.6341 63.9155 49.5103 64.3537 49.2782 64.7265C49.0461 65.0992 48.7162 65.3897 48.3303 65.5613C47.9444 65.7329 47.5197 65.7777 47.11 65.6903C46.7003 65.6028 46.324 65.387 46.0286 65.07C45.7332 64.753 45.532 64.3491 45.4505 63.9094C45.369 63.4697 45.4109 63.014 45.5707 62.5998C45.7306 62.1857 46.0013 61.8317 46.3486 61.5826C46.696 61.3335 47.1043 61.2006 47.522 61.2006C48.082 61.2013 48.6188 61.4404 49.0148 61.8653C49.4107 62.2902 49.6335 62.8663 49.6341 63.4672ZM19.0088 23.8015V19.2683C19.0091 18.9678 19.1205 18.6797 19.3185 18.4673C19.5165 18.2548 19.7849 18.1353 20.0649 18.135H43.2979C43.5779 18.1353 43.8463 18.2548 44.0443 18.4673C44.2422 18.6797 44.3536 18.9678 44.3539 19.2683V23.8015C44.3536 24.102 44.2422 24.39 44.0443 24.6025C43.8463 24.815 43.5779 24.9345 43.2979 24.9348H20.0649C19.7849 24.9345 19.5165 24.815 19.3185 24.6025C19.1205 24.39 19.0091 24.102 19.0088 23.8015ZM19.0088 32.8679V28.3347C19.0091 28.0343 19.1205 27.7462 19.3185 27.5337C19.5165 27.3213 19.7849 27.2018 20.0649 27.2014H43.2979C43.5779 27.2018 43.8463 27.3213 44.0443 27.5337C44.2422 27.7462 44.3536 28.0343 44.3539 28.3347V32.8679C44.3536 33.1684 44.2422 33.4565 44.0443 33.6689C43.8463 33.8814 43.5779 34.0009 43.2979 34.0013H20.0649C19.7849 34.0009 19.5165 33.8814 19.3185 33.6689C19.1205 33.4565 19.0091 33.1684 19.0088 32.8679ZM2.11209 24.9348C2.11527 21.9301 3.22891 19.0495 5.20869 16.9249C7.18847 14.8003 9.87271 13.6051 12.6725 13.6017C13.2518 13.6016 13.8302 13.652 14.4018 13.7525C14.6265 13.7924 14.8571 13.7533 15.0594 13.6409C15.2616 13.5286 15.4246 13.3491 15.5239 13.1291C17.1592 9.51123 19.808 6.53288 23.0995 4.61131C26.3909 2.68973 30.16 1.92119 33.8788 2.41333C37.5975 2.90548 41.0797 4.63366 43.8376 7.35579C46.5954 10.0779 48.4907 13.6576 49.2579 17.5935C49.2873 17.7452 49.3453 17.8889 49.4285 18.0156C49.5116 18.1422 49.6181 18.2493 49.7413 18.3301C49.8645 18.4109 50.0018 18.4637 50.1448 18.4853C50.2878 18.5068 50.4334 18.4967 50.5726 18.4555C51.7342 18.1149 52.9503 18.0448 54.1392 18.2497C55.3282 18.4547 56.4626 18.9301 57.4664 19.644C58.4702 20.3579 59.3201 21.2938 59.9593 22.389C60.5985 23.4843 61.0121 24.7135 61.1724 25.9943C61.3328 27.2751 61.2361 28.5779 60.8889 29.8153C60.5417 31.0528 59.9521 32.1963 59.1594 33.1691C58.3668 34.142 57.3895 34.9218 56.2931 35.4563C55.1967 35.9907 54.0065 36.2674 52.8023 36.2679H46.2844C46.146 35.8498 45.9328 35.4648 45.6567 35.1346C46.1782 34.5123 46.4665 33.7049 46.466 32.8679V28.3347C46.4665 27.4978 46.1782 26.6903 45.6567 26.0681C46.1782 25.4459 46.4665 24.6384 46.466 23.8015V19.2683C46.465 18.3669 46.1309 17.5027 45.537 16.8653C44.9431 16.2279 44.1378 15.8694 43.2979 15.8683H20.0649C19.2249 15.8694 18.4197 16.2279 17.8257 16.8653C17.2318 17.5027 16.8977 18.3669 16.8967 19.2683V23.8015C16.8962 24.6384 17.1845 25.4459 17.7061 26.0681C17.1845 26.6903 16.8962 27.4978 16.8967 28.3347V32.8679C16.8962 33.7049 17.1845 34.5123 17.7061 35.1346C17.43 35.4648 17.2167 35.8498 17.0784 36.2679H12.6725C9.87271 36.2645 7.18847 35.0693 5.20869 32.9447C3.22891 30.8201 2.11527 27.9395 2.11209 24.9348ZM19.0088 41.9344V37.4012C19.0091 37.1007 19.1205 36.8126 19.3185 36.6002C19.5165 36.3877 19.7849 36.2682 20.0649 36.2679H43.2979C43.5779 36.2682 43.8463 36.3877 44.0443 36.6002C44.2422 36.8126 44.3536 37.1007 44.3539 37.4012V41.9344C44.3536 42.2349 44.2422 42.5229 44.0443 42.7354C43.8463 42.9479 43.5779 43.0674 43.2979 43.0677H20.0649C19.7849 43.0674 19.5165 42.9479 19.3185 42.7354C19.1205 42.5229 19.0091 42.2349 19.0088 41.9344ZM59.1385 53.2675C58.7208 53.2675 58.3125 53.1345 57.9651 52.8855C57.6178 52.6364 57.3471 52.2824 57.1872 51.8682C57.0274 51.4541 56.9855 50.9983 57.067 50.5587C57.1485 50.119 57.3497 49.7151 57.6451 49.3981C57.9405 49.0811 58.3168 48.8652 58.7265 48.7778C59.1362 48.6903 59.5609 48.7352 59.9468 48.9068C60.3327 49.0783 60.6626 49.3688 60.8947 49.7416C61.1268 50.1143 61.2506 50.5526 61.2506 51.0009C61.25 51.6018 61.0272 52.1779 60.6313 52.6028C60.2353 53.0277 59.6985 53.2668 59.1385 53.2675Z" fill="#047BDC"></path></svg>