<svg xmlns="http://www.w3.org/2000/svg" width="63" height="72" viewBox="0 0 63 72" fill="none"><path d="M29.2563 55.0989L37.039 58.2321L50.6708 50.1985C52.435 49.1588 54.6272 49.9477 55.5425 51.9517C56 52.9537 55.6525 54.1989 54.7706 54.7185L46.3511 59.6803M44.7472 60.6256L36.3276 65.5874L22.3315 64.0694L10.7452 69.9999H8.03516V55.7244H10.7454L22.3339 48.4018L34.8972 47.564C36.3851 47.4647 37.8347 48.0751 38.2337 49.7062C38.6328 51.3376 37.7623 52.9637 36.3479 53.4963L24.5051 56.1728" stroke="#047BDC" stroke-width="2.2" stroke-miterlimit="22.9256"></path><path d="M38.332 50.5351L43.8102 47.3067C45.5744 46.267 47.7665 47.056 48.6818 49.0599C49.1393 50.0619 48.7918 51.3071 47.91 51.8267" stroke="#047BDC" stroke-width="2.2" stroke-miterlimit="22.9256"></path><path fill-rule="evenodd" clip-rule="evenodd" d="M23.7617 8.15693L29.1819 2H40.0225V25.6017H23.7617V8.15693Z" stroke="#047BDC" stroke-width="2.2" stroke-miterlimit="22.9256"></path><path d="M26.4727 20.4708H37.3133M26.4727 12.2617H37.3133M26.4727 16.3663H30.9897M32.7964 16.3663H37.3133" stroke="#047BDC" stroke-width="2.2" stroke-miterlimit="22.9256"></path><path d="M35.508 6.10449H37.3147M31.8945 6.10449H33.7012" stroke="#047BDC" stroke-width="2.2" stroke-miterlimit="22.9256"></path><path fill-rule="evenodd" clip-rule="evenodd" d="M45.5625 8.15693L50.9827 2H61.8233V25.6017H45.5625V8.15693Z" stroke="#047BDC" stroke-width="2.2" stroke-miterlimit="22.9256"></path><path d="M48.2734 20.4708H52.7904M54.5971 20.4708H59.1141M48.2734 12.2617H59.1141M48.2734 16.3663H59.1141" stroke="#047BDC" stroke-width="2.2" stroke-miterlimit="22.9256"></path><path d="M57.3048 6.10449H59.1116M53.6914 6.10449H55.4981" stroke="#047BDC" stroke-width="2.2" stroke-miterlimit="22.9256"></path><path d="M1.96094 13.2877V8.15693L7.38109 2H18.2218V25.6017H1.96094V15.34" stroke="#047BDC" stroke-width="2.2" stroke-miterlimit="22.9256"></path><path d="M4.66797 20.4708H15.5086M4.66797 12.2617H9.18501M10.9917 12.2617H15.5086M4.66797 16.3663H15.5086" stroke="#047BDC" stroke-width="2.2" stroke-miterlimit="22.9256"></path><path d="M13.7072 6.10449H15.5139M10.0938 6.10449H11.9005" stroke="#047BDC" stroke-width="2.2" stroke-miterlimit="22.9256"></path><path d="M34.4462 40.2261L31.8911 43.1284L29.3359 40.2261" stroke="#047BDC" stroke-width="2.2" stroke-miterlimit="22.9256"></path><path d="M31.8945 43.1289V28.6802" stroke="#047BDC" stroke-width="2.2" stroke-miterlimit="22.9256"></path><path d="M53.6955 28.6802V33.9478H10.0938V28.6802" stroke="#047BDC" stroke-width="2.2" stroke-miterlimit="22.9256"></path></svg>