<svg xmlns="http://www.w3.org/2000/svg" width="76" height="83" viewBox="0 0 76 83" fill="none"><path d="M45.3458 72.3619L45.3073 72.3748H45.2667H45.2657H45.2648H45.2638H45.2628H45.2618H45.2609H45.2599H45.2589H45.258H45.257H45.2561H45.2551H45.2542H45.2532H45.2523H45.2514H45.2504H45.2495H45.2486H45.2477H45.2468H45.2459H45.2449H45.244H45.2431H45.2423H45.2414H45.2405H45.2396H45.2387H45.2378H45.2369H45.2361H45.2352H45.2343H45.2335H45.2326H45.2318H45.2309H45.2301H45.2292H45.2284H45.2275H45.2267H45.2259H45.225H45.2242H45.2234H45.2226H45.2217H45.2209H45.2201H45.2193H45.2185H45.2177H45.2169H45.2161H45.2153H45.2145H45.2137H45.213H45.2122H45.2114H45.2106H45.2099H45.2091H45.2083H45.2076H45.2068H45.206H45.2053H45.2045H45.2038H45.203H45.2023H45.2016H45.2008H45.2001H45.1993H45.1986H45.1979H45.1972H45.1964H45.1957H45.195H45.1943H45.1936H45.1929H45.1922H45.1915H45.1908H45.1901H45.1894H45.1887H45.188H45.1873H45.1866H45.1859H45.1852H45.1846H45.1839H45.1832H45.1825H45.1819H45.1812H45.1805H45.1799H45.1792H45.1785H45.1779H45.1772H45.1766H45.1759H45.1753H45.1746H45.174H45.1733H45.1727H45.1721H45.1714H45.1708H45.1702H45.1695H45.1689H45.1683H45.1677H45.167H45.1664H45.1658H45.1652H45.1646H45.164H45.1633H45.1627H45.1621H45.1615H45.1609H45.1603H45.1597H45.1591H45.1585H45.1579H45.1573H45.1568H45.1562H45.1556H45.155H45.1544H45.1538H45.1532H45.1527H45.1521H45.1515H45.1509H45.1504H45.1498H45.1492H45.1487H45.1481H45.1475H45.147H45.1464H45.1458H45.1453H45.1447H45.1442H45.1436H45.1431H45.1425H45.1419H45.1414H45.1408H45.1403H45.1398H45.1392H45.1387H45.1381H45.1376H45.137H45.1365H45.136H45.1354H45.1349H45.1344H45.1338H45.1333H45.1328H45.1322H45.1317H45.1312H45.1306H45.1301H45.1296H45.1291H45.1285H45.128H45.1275H45.127H45.1265H45.1259H45.1254H45.1249H45.1244H45.1239H45.1234H45.1228H45.1223H45.1218H45.1213H45.1208H45.1203H45.1198H45.1193H45.1188H45.1182H45.1177H45.1172H45.1167H45.1162H45.1157H45.1152H45.1147H45.1142H45.1137H45.1132H45.1127H45.1122H45.1117H45.1112H45.1107H45.1102H45.1097H45.1092H45.1087H45.1082H45.1077H45.1072H45.1067H45.1062H45.1057H45.1052H45.1047H45.1042H45.1037H45.1032H45.1027H45.1022H45.1017H45.1012H45.1008H45.1003H45.0998H45.0993H45.0988H45.0983H45.0978H45.0973H45.0968H45.0963H45.0958H45.0953H45.0948H45.0943H45.0938H45.0933H45.0928H45.0923H45.0918H45.0913H45.0908H45.0903H45.0899H45.0894H45.0889H45.0884H45.0879H45.0874H45.0869H45.0864H45.0859H45.0854H45.0849H45.0844H45.0839H45.0834H45.0829H45.0824H45.0819H45.0814H45.0809H45.0804H45.0798H45.0793H45.0788H45.0783H45.0778H45.0773H45.0768H45.0763H45.0758H45.0753H45.0748H45.0743H45.0737H45.0732H45.0727H45.0722H45.0717H45.0712H45.0707H45.0701H45.0696H45.0691H45.0686H45.0681H45.0675H45.067H45.0665H45.066H45.0654H45.0649H45.0644H45.0639H45.0633H45.0628H45.0623H45.0617H45.0612H45.0607H45.0601H45.0596H45.0591H45.0585H45.058H45.0574H45.0569H45.0564H45.0558H45.0553H45.0547H45.0542H45.0536H45.0531H45.0525H45.052H45.0514H45.0508H45.0503H45.0497H45.0492H45.0486H45.048H45.0475H45.0469H45.0463H45.0458H45.0452H45.0446H45.0441H45.0435H45.0429H45.0423H45.0417H45.0412H45.0406H45.04H45.0394H45.0388H45.0382H45.0376H45.037H45.0364H45.0358H45.0352H45.0346H45.034H45.0334H45.0328H45.0322H45.0316H45.031H45.0304H45.0298H45.0291H45.0285H45.0279H45.0273H45.0267H45.026H45.0254H45.0248H45.0241H45.0235H45.0229H45.0222H45.0216H45.0209H45.0203H45.0196H45.019H45.0183H45.0177H45.017H45.0164H45.0157H45.015H45.0144H45.0137H45.013H45.0124H45.0117H45.011H45.0103H45.0096H45.009H45.0083H45.0076H45.0069H45.0062H45.0055H45.0048H45.0041H45.0034H45.0027H45.002H45.0013H45.0006H44.9998H44.9991H44.9984H44.9977H44.9969H44.9962H44.9955H44.9947H44.994H44.9933H44.9925H44.9918H44.991H44.9903H44.9895H44.9888H44.988H44.9872H44.9865H44.9857H44.9849H44.9842H44.9834H44.9826H44.9818H44.981H44.9802H44.9794H44.9787H44.9779H44.9771H44.9762H44.9754H44.9746H44.9738H44.973H44.9722H44.9714H44.9705H44.9697H44.9689H44.968H44.9672H44.9663H44.9655H44.9647H44.9638H44.9629H44.9621H44.9612H44.9604H44.9595H44.9586H44.9577H44.9569H44.956H44.9551H44.9542H44.9533H44.9524H44.9515H44.9506H44.9497H44.9488H44.9479H44.947H44.946H44.9451H44.9442H44.9433H44.9423H44.9414H44.9404H44.9395H44.9385H44.9376H44.9366H44.9357H44.9347H44.9337H44.9328H44.9318H44.9308H44.9298H44.9288C44.6815 72.3748 44.4599 72.2539 44.2978 72.1381C44.1331 72.0205 43.9944 71.8818 43.9106 71.7979L43.9073 71.7947L43.8713 71.7587L43.8523 71.7115L36.4187 53.2966L36.4158 53.2894L36.4134 53.2821C36.3137 52.9828 36.3083 52.6675 36.4184 52.3921C36.5306 52.1117 36.7562 51.8906 37.0783 51.7832C37.3776 51.6835 37.6929 51.6781 37.9683 51.7883C38.2464 51.8995 38.4662 52.1224 38.5746 52.4404L46.0054 70.8486L46.0083 70.8558L46.0107 70.8631C46.1105 71.1623 46.1158 71.4776 46.0057 71.753C45.8935 72.0335 45.668 72.2545 45.3458 72.3619Z" fill="#048DEF" stroke="#048DEF" stroke-width="0.5"></path><path d="M38.5704 44.1696L38.5661 44.1809L38.5607 44.1917C38.3435 44.626 37.9111 44.8367 37.4923 44.8367H37.3234H37.2828L37.2443 44.8239C36.9544 44.7272 36.7175 44.5676 36.593 44.3184C36.4684 44.0692 36.4827 43.784 36.5794 43.494L36.5791 43.4939L36.5832 43.4833L40.8049 32.507C40.9017 32.2196 41.0609 31.985 41.3085 31.8612C41.5577 31.7366 41.8429 31.751 42.1329 31.8477C42.4229 31.9443 42.6597 32.104 42.7843 32.3532C42.9089 32.6023 42.8945 32.8876 42.7978 33.1776L42.7981 33.1776L42.794 33.1883L38.5704 44.1696Z" fill="#048DEF" stroke="#048DEF" stroke-width="0.5"></path><path d="M54.6105 23.0189L54.6184 23.0348L54.624 23.0517C54.8172 23.6313 54.6478 24.2925 54.1619 24.5364L47.3386 28.0312C47.3264 28.0593 47.3106 28.0865 47.2905 28.1123C47.2327 28.1867 47.158 28.2254 47.0957 28.2462C46.9924 28.2806 46.871 28.2803 46.7983 28.2801C46.7934 28.2801 46.7888 28.2801 46.7844 28.2801C46.6341 28.2801 46.4612 28.2119 46.3013 28.1205C46.1323 28.0239 45.9459 27.8831 45.7629 27.7001L45.7211 27.6583L45.7025 27.6023C45.5093 27.0227 45.6787 26.3615 46.1645 26.1177C46.1649 26.1175 46.1653 26.1173 46.1657 26.1171L53.0903 22.5703L53.1072 22.5617L53.1252 22.5557C53.7053 22.3623 54.3671 22.5322 54.6105 23.0189Z" fill="#048DEF" stroke="#048DEF" stroke-width="0.5"></path><path d="M46.6235 31.9107L46.6385 31.9257L46.6507 31.9429L56.1003 45.2736C56.3244 45.5085 56.3763 45.8017 56.3217 46.0744C56.2676 46.3448 56.1106 46.5983 55.9155 46.7935C55.6731 47.0359 55.4137 47.0357 55.241 47.0357L55.2318 47.0357C55.025 47.0357 54.8177 46.9848 54.6554 46.9037C54.5745 46.8632 54.4945 46.8101 54.4314 46.7424C54.3862 46.694 54.3401 46.6274 54.3186 46.5451L44.9025 33.2617C44.6784 33.0268 44.6265 32.7336 44.6811 32.4608C44.7352 32.1905 44.8922 31.9369 45.0873 31.7418C45.3249 31.5043 45.6254 31.4486 45.9045 31.5045C46.1748 31.5585 46.4283 31.7156 46.6235 31.9107Z" fill="#048DEF" stroke="#048DEF" stroke-width="0.5"></path><path d="M63.7627 29.3857H63.7627L63.7627 29.3887L63.5937 43.5786C63.5934 43.8882 63.4889 44.1656 63.2882 44.3663C63.0872 44.5673 62.8093 44.6718 62.499 44.6718C62.1888 44.6718 61.9108 44.5673 61.7098 44.3663C61.5088 44.1652 61.4043 43.8873 61.4043 43.5771L61.4043 43.5741L61.5733 29.3842C61.5738 29.0428 61.7453 28.768 61.9543 28.5852C62.1589 28.4062 62.4265 28.291 62.668 28.291C62.9782 28.291 63.2562 28.3955 63.4572 28.5965C63.6582 28.7976 63.7627 29.0755 63.7627 29.3857Z" fill="#048DEF" stroke="#048DEF" stroke-width="0.5"></path><path d="M25.8517 60.8033L25.8518 60.8035L25.8443 60.811C25.7351 60.9202 25.5837 61.019 25.4414 61.0901C25.3071 61.1573 25.1369 61.2221 24.9917 61.2221C24.9883 61.2221 24.9847 61.2221 24.981 61.2221C24.9009 61.2223 24.7647 61.2226 24.6265 61.1535C24.486 61.0832 24.3743 60.9596 24.2796 60.7814C23.8741 60.3472 23.8823 59.7046 24.3042 59.2788L31.9033 51.0042L31.9031 51.0041L31.9106 50.9966C32.3462 50.561 33.0113 50.561 33.4468 50.9966C33.881 51.4308 33.8823 52.0932 33.4508 52.5287L25.8517 60.8033Z" fill="#048DEF" stroke="#048DEF" stroke-width="0.5"></path><path d="M51.2439 51.6098L51.267 51.6162L51.2885 51.627C51.483 51.7242 51.6944 51.8777 51.8322 52.0982C51.9762 52.3285 52.0295 52.6171 51.9207 52.9433C51.8227 53.2373 51.6682 53.454 51.4699 53.5956C51.2721 53.7369 51.0498 53.79 50.8389 53.79V53.5621C50.8389 53.79 50.8387 53.79 50.8386 53.79L50.8384 53.79L50.8378 53.79L50.8368 53.79L50.8343 53.79L50.8286 53.7898C50.8244 53.7897 50.8195 53.7895 50.8138 53.7891C50.8025 53.7883 50.7881 53.7868 50.7714 53.784C50.7392 53.7786 50.6924 53.7674 50.6426 53.7425C50.5918 53.7171 50.5334 53.6751 50.4883 53.6074C50.4812 53.5967 50.4746 53.5858 50.4686 53.5745L40.2972 50.7399L40.274 50.7334L40.2525 50.7226C40.058 50.6254 39.8466 50.4719 39.7088 50.2514C39.5649 50.0211 39.5116 49.7325 39.6203 49.4063L39.6259 49.3895L39.6339 49.3736C39.7311 49.1791 39.8846 48.9677 40.1051 48.8299C40.3339 48.6869 40.6203 48.6333 40.9439 48.7393L51.2439 51.6098Z" fill="#048DEF" stroke="#048DEF" stroke-width="0.5"></path><path d="M32.7509 44.5638L32.7619 44.5726L32.7719 44.5826C32.9671 44.7777 33.1241 45.0313 33.1782 45.3016C33.234 45.5807 33.1784 45.8812 32.9408 46.1187C32.8316 46.2279 32.6802 46.3267 32.538 46.3978C32.4037 46.465 32.2334 46.5298 32.0883 46.5298L32.0792 46.5298C31.909 46.5299 31.6547 46.53 31.4155 46.2983L22.3027 39.0418L22.2917 39.033L22.2817 39.0231C22.0865 38.8279 21.9295 38.5744 21.8754 38.304C21.8196 38.0249 21.8752 37.7244 22.1127 37.4869C22.3079 37.2917 22.5614 37.1347 22.8318 37.0806C23.1067 37.0257 23.4023 37.0788 23.6381 37.3073L32.7509 44.5638Z" fill="#048DEF" stroke="#048DEF" stroke-width="0.5"></path><path d="M26.1887 31.1559L26.1887 31.1562H26.1759C25.8656 31.1562 25.5877 31.0517 25.3867 30.8507C25.1856 30.6497 25.0811 30.3717 25.0811 30.0615C25.0811 29.82 25.1963 29.5524 25.3753 29.3478C25.5572 29.1399 25.8301 28.9691 26.169 28.9668L39.3407 28.2913L39.3407 28.291H39.3535C39.6637 28.291 39.9417 28.3955 40.1427 28.5965C40.3437 28.7976 40.4482 29.0755 40.4482 29.3857C40.4482 29.6272 40.3331 29.8948 40.1541 30.0994C39.9722 30.3074 39.6993 30.4782 39.3604 30.4804L26.1887 31.1559Z" fill="#048DEF" stroke="#048DEF" stroke-width="0.5"></path><path d="M42.2756 25.0351L42.2867 25.0552L42.2939 25.077C42.472 25.6112 42.342 26.2148 41.9401 26.497C41.9274 26.5292 41.91 26.5604 41.8872 26.5898C41.8294 26.6641 41.7546 26.7029 41.6923 26.7237C41.5891 26.7581 41.4677 26.7578 41.395 26.7576C41.3901 26.7576 41.3854 26.7576 41.381 26.7576C40.9638 26.7576 40.5331 26.5485 40.3151 26.1174L33.2218 13.2819L33.2107 13.2618L33.2034 13.2401C33.0101 12.66 33.18 11.9981 33.6667 11.7548L33.6826 11.7468L33.6994 11.7412C34.2775 11.5485 34.9368 11.7166 35.1822 12.1995L42.2756 25.0351Z" fill="#048DEF" stroke="#048DEF" stroke-width="0.5"></path><path d="M17.975 57.5658L17.9766 57.5797V57.5937C17.9766 57.8995 17.8754 58.2077 17.6916 58.444C17.5057 58.6831 17.2263 58.8573 16.8818 58.8573C16.2806 58.8573 15.7969 58.4505 15.7873 57.9469L14.102 42.9479C13.91 42.3197 14.3182 41.6586 14.9828 41.6326C15.6156 41.4469 16.2774 41.8671 16.287 42.5427L17.975 57.5658Z" fill="#048DEF" stroke="#048DEF" stroke-width="0.5"></path><path d="M42.2923 73.5784L42.3157 73.5849L42.3374 73.5957C42.5319 73.693 42.7432 73.8465 42.8811 74.067C43.025 74.2973 43.0783 74.5858 42.9696 74.9121C42.8716 75.2061 42.717 75.4227 42.5187 75.5644C42.321 75.7056 42.0987 75.7588 41.8877 75.7588C41.8852 75.7588 41.8827 75.7588 41.8801 75.7588C41.8449 75.7588 41.8005 75.7588 41.7624 75.7546C41.7234 75.7503 41.6356 75.7369 41.5631 75.6644C41.5209 75.6222 41.4987 75.5749 41.4867 75.535L27.6296 71.695L27.6062 71.6886L27.5846 71.6777C27.3901 71.5805 27.1787 71.427 27.0409 71.2065C26.8969 70.9762 26.8436 70.6876 26.9524 70.3614L26.958 70.3445L26.9659 70.3286C27.0632 70.1342 27.2167 69.9228 27.4371 69.785C27.6659 69.642 27.9522 69.5884 28.2758 69.6943L42.2923 73.5784Z" fill="#048DEF" stroke="#048DEF" stroke-width="0.5"></path><path d="M50.8671 72.6177L50.8578 72.6295L50.8471 72.6402C50.7379 72.7494 50.5865 72.8482 50.4443 72.9193C50.3099 72.9865 50.1397 73.0513 49.9946 73.0513C49.849 73.0513 49.7165 72.9844 49.6429 72.9473C49.6381 72.9449 49.6336 72.9426 49.6293 72.9405C49.5304 72.891 49.5017 72.8824 49.4877 72.8824H49.3842L49.311 72.8092C49.1158 72.614 48.9588 72.3605 48.9047 72.0901C48.8498 71.8155 48.9027 71.5202 49.1306 71.2846L54.0214 65.0446L54.0307 65.0327L54.0414 65.022C54.2366 64.8269 54.4901 64.6699 54.7605 64.6158C55.0395 64.56 55.34 64.6156 55.5776 64.8531C55.7727 65.0483 55.9297 65.3018 55.9838 65.5722C56.0387 65.8467 55.9858 66.142 55.7579 66.3777L50.8671 72.6177Z" fill="#048DEF" stroke="#048DEF" stroke-width="0.5"></path><path d="M21.8141 21.9331L21.8033 21.9477L21.7905 21.9605L21.7834 21.9676C21.6125 22.1386 21.3796 22.3716 20.9379 22.3716L20.9288 22.3716C20.7561 22.3717 20.4967 22.3718 20.2543 22.1295C20.0592 21.9343 19.9021 21.6808 19.8481 21.4104C19.7933 21.1367 19.8457 20.8425 20.0718 20.6072L26.9884 11.3287L26.9993 11.3142L27.0121 11.3013C27.2073 11.1062 27.4608 10.9492 27.7312 10.8951C28.0102 10.8393 28.3107 10.8949 28.5483 11.1324C28.7434 11.3276 28.9004 11.5811 28.9545 11.8515C29.0093 12.1251 28.9568 12.4194 28.7308 12.6547L21.8141 21.9331Z" fill="#048DEF" stroke="#048DEF" stroke-width="0.5"></path><path d="M54.2881 15.7781L54.2825 15.795L54.2745 15.8109C54.0574 16.2452 53.6249 16.4559 53.2062 16.4559H53.2052H53.2042H53.2032H53.2023H53.2013H53.2003H53.1993H53.1984H53.1974H53.1965H53.1955H53.1946H53.1936H53.1927H53.1918H53.1908H53.1899H53.189H53.1881H53.1871H53.1862H53.1853H53.1844H53.1835H53.1826H53.1817H53.1808H53.1799H53.179H53.1782H53.1773H53.1764H53.1755H53.1747H53.1738H53.1729H53.1721H53.1712H53.1704H53.1695H53.1687H53.1678H53.167H53.1662H53.1653H53.1645H53.1637H53.1628H53.162H53.1612H53.1604H53.1596H53.1588H53.158H53.1572H53.1564H53.1556H53.1548H53.154H53.1532H53.1524H53.1516H53.1509H53.1501H53.1493H53.1485H53.1478H53.147H53.1463H53.1455H53.1447H53.144H53.1432H53.1425H53.1418H53.141H53.1403H53.1395H53.1388H53.1381H53.1373H53.1366H53.1359H53.1352H53.1345H53.1337H53.133H53.1323H53.1316H53.1309H53.1302H53.1295H53.1288H53.1281H53.1274H53.1267H53.1261H53.1254H53.1247H53.124H53.1233H53.1227H53.122H53.1213H53.1206H53.12H53.1193H53.1187H53.118H53.1173H53.1167H53.116H53.1154H53.1147H53.1141H53.1134H53.1128H53.1122H53.1115H53.1109H53.1102H53.1096H53.109H53.1084H53.1077H53.1071H53.1065H53.1059H53.1053H53.1046H53.104H53.1034H53.1028H53.1022H53.1016H53.101H53.1004H53.0998H53.0992H53.0986H53.098H53.0974H53.0968H53.0962H53.0956H53.095H53.0944H53.0939H53.0933H53.0927H53.0921H53.0915H53.091H53.0904H53.0898H53.0892H53.0887H53.0881H53.0875H53.087H53.0864H53.0859H53.0853H53.0847H53.0842H53.0836H53.0831H53.0825H53.082H53.0814H53.0809H53.0803H53.0798H53.0792H53.0787H53.0781H53.0776H53.077H53.0765H53.076H53.0754H53.0749H53.0743H53.0738H53.0733H53.0727H53.0722H53.0717H53.0712H53.0706H53.0701H53.0696H53.069H53.0685H53.068H53.0675H53.067H53.0664H53.0659H53.0654H53.0649H53.0644H53.0638H53.0633H53.0628H53.0623H53.0618H53.0613H53.0608H53.0602H53.0597H53.0592H53.0587H53.0582H53.0577H53.0572H53.0567H53.0562H53.0557H53.0552H53.0547H53.0542H53.0537H53.0532H53.0527H53.0522H53.0517H53.0512H53.0507H53.0501H53.0496H53.0492H53.0487H53.0482H53.0477H53.0472H53.0467H53.0462H53.0457H53.0452H53.0447H53.0442H53.0437H53.0432H53.0427H53.0422H53.0417H53.0412H53.0407H53.0402H53.0397H53.0392H53.0387H53.0382H53.0377H53.0372H53.0367H53.0362H53.0358H53.0353H53.0348H53.0343H53.0338H53.0333H53.0328H53.0323H53.0318H53.0313H53.0308H53.0303H53.0298H53.0293H53.0288H53.0283H53.0278H53.0273H53.0268H53.0263H53.0258H53.0253H53.0248H53.0243H53.0238H53.0233H53.0228H53.0223H53.0218H53.0213H53.0208H53.0203H53.0198H53.0193H53.0188H53.0183H53.0178H53.0173H53.0168H53.0163H53.0158H53.0152H53.0147H53.0142H53.0137H53.0132H53.0127H53.0122H53.0117H53.0111H53.0106H53.0101H53.0096H53.0091H53.0086H53.008H53.0075H53.007H53.0065H53.0059H53.0054H53.0049H53.0044H53.0038H53.0033H53.0028H53.0023H53.0017H53.0012H53.0007H53.0001H52.9996H52.9991H52.9985H52.998H52.9974H52.9969H52.9964H52.9958H52.9953H52.9947H52.9942H52.9936H52.9931H52.9925H52.992H52.9914H52.9909H52.9903H52.9897H52.9892H52.9886H52.9881H52.9875H52.9869H52.9864H52.9858H52.9852H52.9847H52.9841H52.9835H52.9829H52.9824H52.9818H52.9812H52.9806H52.98H52.9794H52.9789H52.9783H52.9777H52.9771H52.9765H52.9759H52.9753H52.9747H52.9741H52.9735H52.9729H52.9723H52.9717H52.9711H52.9704H52.9698H52.9692H52.9686H52.968H52.9674H52.9667H52.9661H52.9655H52.9649H52.9642H52.9636H52.963H52.9623H52.9617H52.961H52.9604H52.9597H52.9591H52.9584H52.9578H52.9571H52.9565H52.9558H52.9552H52.9545H52.9538H52.9532H52.9525H52.9518H52.9511H52.9505H52.9498H52.9491H52.9484H52.9477H52.947H52.9464H52.9457H52.945H52.9443H52.9436H52.9429H52.9421H52.9414H52.9407H52.94H52.9393H52.9386H52.9379H52.9371H52.9364H52.9357H52.9349H52.9342H52.9335H52.9327H52.932H52.9312H52.9305H52.9297H52.929H52.9282H52.9275H52.9267H52.9259H52.9252H52.9244H52.9236H52.9228H52.9221H52.9213H52.9205H52.9197H52.9189H52.9181H52.9173H52.9165H52.9157H52.9149H52.9141H52.9133H52.9125H52.9116H52.9108H52.91H52.9092H52.9083H52.9075H52.9066H52.9058H52.905H52.9041H52.9033H52.9024H52.9015H52.9007H52.8998H52.8989H52.8981H52.8972H52.8963H52.8954H52.8945H52.8937H52.8928H52.8919H52.891H52.8901H52.8892H52.8883H52.8873H52.8864H52.8855H52.8846H52.8836H52.8827H52.8818H52.8808H52.8799H52.8789H52.878H52.877H52.8761H52.8751H52.8742H52.8732H52.8722H52.8712H52.8703H52.8693H52.8683H52.8241L52.7827 16.4408L36.5672 10.5289C36.2787 10.4321 36.0433 10.2727 35.9192 10.0245C35.7946 9.77535 35.809 9.49009 35.9056 9.20012C36.0023 8.91014 36.162 8.67331 36.4111 8.54873C36.6603 8.42415 36.9455 8.43851 37.2355 8.53517L37.2355 8.5351L37.2413 8.53718L53.6261 14.4492C53.9147 14.546 54.1504 14.7054 54.2745 14.9537C54.3991 15.2029 54.3847 15.4881 54.2881 15.7781Z" fill="#048DEF" stroke="#048DEF" stroke-width="0.5"></path><path d="M75.25 56.0781C75.25 63.1407 69.5651 68.9989 62.3292 68.9989C55.089 68.9989 49.4083 62.9674 49.4083 55.9091C49.4083 48.8443 55.2644 42.9883 62.3292 42.9883C69.3982 42.9883 75.25 49.0176 75.25 56.0781ZM73.0606 55.9091C73.0606 49.9652 68.2731 45.1777 62.3292 45.1777C56.3852 45.1777 51.5978 49.9652 51.5978 55.9091C51.5978 61.853 56.3852 66.6405 62.3292 66.6405C68.2731 66.6405 73.0606 61.853 73.0606 55.9091Z" fill="#048DEF" stroke="#048DEF" stroke-width="0.5"></path><path d="M75.25 56.0781C75.25 63.1407 69.5651 68.9989 62.3292 68.9989C55.089 68.9989 49.4083 62.9674 49.4083 55.9091C49.4083 48.8443 55.2644 42.9883 62.3292 42.9883C69.3982 42.9883 75.25 49.0176 75.25 56.0781ZM73.0606 55.9091C73.0606 49.9652 68.2731 45.1777 62.3292 45.1777C56.3852 45.1777 51.5978 49.9652 51.5978 55.9091C51.5978 61.853 56.3852 66.6405 62.3292 66.6405C68.2731 66.6405 73.0606 61.853 73.0606 55.9091Z" fill="#048DEF" stroke="#048DEF" stroke-width="0.5"></path><path d="M73.9001 18.9136C73.8982 25.132 68.8876 30.1415 62.6687 30.1415C56.4486 30.1415 51.4373 25.1302 51.4373 18.9101C51.4373 12.5261 56.2747 7.50977 62.6687 7.50977C69.0576 7.50977 74.071 12.6908 73.9001 18.9136ZM71.7106 18.9101C71.7106 13.805 67.762 9.69921 62.6687 9.69921C57.7413 9.69921 53.6267 13.808 53.6267 18.9101C53.6267 23.8404 57.7384 27.952 62.6687 27.952C67.6019 27.952 71.7106 24.0063 71.7106 18.9101Z" fill="#048DEF" stroke="#048DEF" stroke-width="0.5"></path><path d="M29.2988 67.8974C29.2988 74.1175 24.2875 79.1288 18.0674 79.1288C11.8474 79.1288 6.83606 74.1175 6.83606 67.8974C6.83606 61.6773 11.8474 56.666 18.0674 56.666C24.2875 56.666 29.2988 61.6773 29.2988 67.8974ZM27.1094 67.7285C27.1094 62.7952 23.1637 58.6865 18.0674 58.6865C12.9712 58.6865 9.0255 62.7952 9.0255 67.7285C9.0255 72.6587 13.1372 76.7704 18.0674 76.7704C22.9977 76.7704 27.1094 72.6587 27.1094 67.7285Z" fill="#048DEF" stroke="#048DEF" stroke-width="0.5"></path><path d="M46.7947 25.4924L46.7949 25.4922L46.8022 25.5003C48.7442 27.6188 48.7547 30.8126 46.7947 32.7727C45.8985 33.6689 44.4812 34.1975 43.239 34.1975C41.9841 34.1975 40.7508 33.66 39.5459 32.7993L39.5246 32.7841L39.5069 32.7648C37.5649 30.6463 37.5544 27.4524 39.5144 25.4924L39.5143 25.4922L39.5223 25.4849C41.6408 23.5429 44.8347 23.5324 46.7947 25.4924ZM45.2585 27.0286C44.804 26.574 44.0255 26.2571 43.239 26.2571C42.6412 26.2571 41.8582 26.5574 41.0366 27.0458C39.9581 28.3072 39.9798 30.1591 41.0447 31.2306C42.3065 32.3292 44.1745 32.3138 45.2527 31.2424C46.3532 29.9783 46.3357 28.1058 45.2585 27.0286Z" fill="#048DEF" stroke="#048DEF" stroke-width="0.5"></path><path d="M33.2796 50.9987L33.2894 51.0085L33.298 51.0193C33.9134 51.7886 34.8448 52.1081 35.8059 52.1081C36.7416 52.1081 37.6944 51.6366 38.3323 50.9987C39.7551 49.5758 39.7551 47.3689 38.3323 45.946C36.9033 44.517 34.5363 44.5329 33.2897 45.9354L33.2848 45.9409L33.2796 45.946C31.8567 47.3689 31.8567 49.5758 33.2796 50.9987ZM39.696 44.4064C41.9976 46.5349 41.9881 50.239 39.7063 52.5281C38.638 53.77 37.2145 54.2976 35.637 54.2976C34.2138 54.2976 32.6334 53.5919 31.578 52.5384C29.2753 50.4089 29.2859 46.7023 31.571 44.4134C33.7005 42.1107 37.4071 42.1213 39.696 44.4064Z" fill="#048DEF" stroke="#048DEF" stroke-width="0.5"></path><path d="M42.2285 80.42L42.2222 80.4145L42.2163 80.4087C39.7535 77.9458 39.7535 73.9018 42.2163 71.4389C44.6792 68.9761 48.7232 68.9761 51.1861 71.4389C53.6467 73.8995 53.6489 77.9384 51.1928 80.4019C50.128 81.6396 48.5388 82.3403 46.7857 82.3403C45.1894 82.3403 43.6127 81.6312 42.2285 80.42ZM44.0994 73.1345L44.0986 73.1354C42.4915 74.9033 42.503 77.454 44.0904 79.0414C44.8981 79.8491 45.8511 80.3198 46.9546 80.3198C48.0562 80.3198 49.0078 79.8508 49.8146 79.0456C51.4178 77.278 51.405 74.7302 49.8188 73.144C48.2216 71.5468 45.5157 71.5609 44.0994 73.1345Z" fill="#048DEF" stroke="#048DEF" stroke-width="0.5"></path><path d="M36.1494 12.4961L36.1436 12.5019L36.1373 12.5074C34.7447 13.7259 32.998 14.4277 31.2422 14.4277C29.6549 14.4277 27.8987 13.725 26.667 12.3212C24.0411 9.68878 24.0431 5.31145 26.6729 2.68161C27.9043 1.45021 29.6582 0.75 31.4112 0.75C33.164 0.75 34.9255 1.45086 36.1604 3.03052C37.385 4.26135 38.0811 6.01 38.0811 7.75778C38.0811 9.51078 37.3808 11.2647 36.1494 12.4961ZM34.6058 10.6298L34.6056 10.6297L34.6133 10.622C35.4096 9.82564 35.8916 8.70725 35.8916 7.41989C35.8916 6.29681 35.4065 5.01103 34.6133 4.21778C33.8169 3.42141 32.6985 2.93944 31.4112 2.93944C30.1311 2.93944 29.0065 3.41656 28.0321 4.22576C26.2794 5.98775 26.282 9.03284 28.0401 10.7909C29.7996 12.5504 32.8452 12.5505 34.6058 10.6298Z" fill="#048DEF" stroke="#048DEF" stroke-width="0.5"></path><path d="M26.5928 30.7333C26.5928 37.9627 20.91 43.8231 13.6719 43.8231C6.60288 43.8231 0.75111 37.7938 0.75111 30.7333C0.75111 23.6685 6.60715 17.8125 13.6719 17.8125C20.7346 17.8125 26.5928 23.4974 26.5928 30.7333ZM24.4033 30.7333C24.4033 24.7894 19.6159 20.0019 13.6719 20.0019C7.72801 20.0019 2.94055 24.7894 2.94055 30.7333C2.94055 36.8487 7.7305 41.6337 13.6719 41.6337C19.6109 41.6337 24.4033 36.6822 24.4033 30.7333Z" fill="#048DEF" stroke="#048DEF" stroke-width="0.5"></path><path d="M10.6471 30.9291L10.6254 30.9117L10.608 30.89C9.9105 30.0181 9.37065 28.9508 9.37065 27.6928C9.37065 26.4567 9.72658 25.375 10.6265 24.4751C12.4136 22.688 15.106 22.688 16.8931 24.4751C18.6802 26.2621 18.6802 28.9546 16.8931 30.7417C15.9901 31.6446 14.7373 31.9975 13.6753 31.9975C12.6058 31.9975 11.5369 31.6409 10.6471 30.9291ZM15.3569 29.2055C16.273 28.2895 16.273 26.9273 15.3569 26.0112C14.4467 25.101 13.0958 25.0952 12.18 25.994C11.8558 26.485 11.5601 27.1006 11.5601 27.6928C11.5601 28.1524 11.7146 28.7575 12.1626 29.2055C13.0787 30.1216 14.4409 30.1216 15.3569 29.2055Z" fill="#048DEF" stroke="#048DEF" stroke-width="0.5"></path><path d="M16.208 28.7946H16.2456L16.2815 28.8056C17.4181 29.1554 18.3109 29.7297 18.919 30.518C19.5279 31.3073 19.8369 32.2925 19.8369 33.4371V33.4417C19.8369 33.9475 19.8369 34.4776 19.6625 35.1794C19.296 37.1715 17.4878 38.4176 15.5323 38.4176H11.8155C9.83718 38.4176 8.23224 37.1546 7.52586 35.212L7.52142 35.1998L7.51827 35.1872C7.34186 34.4816 7.34186 33.9494 7.34187 33.4417V33.4371C7.34187 32.2925 7.65084 31.3073 8.25976 30.518C8.86456 29.734 9.75098 29.1616 10.8787 28.8114C11.3452 28.5909 11.7869 28.8314 11.9923 29.0368C12.9083 29.9528 14.2705 29.9528 15.1865 29.0368C15.3287 28.8946 15.5214 28.8419 15.687 28.8182C15.8525 28.7946 16.0364 28.7946 16.1984 28.7946L16.208 28.7946ZM17.4819 34.7476L17.4836 34.7377L17.486 34.7281C17.6475 34.0821 17.6475 33.7661 17.6475 33.442V33.4371C17.6475 32.8819 17.5288 32.4255 17.2866 32.0529C17.0653 31.7124 16.7294 31.4244 16.2481 31.1953C14.8116 32.3429 12.6197 32.3093 10.7752 31.3412C10.2828 31.4997 9.94501 31.7539 9.72322 32.0951C9.48407 32.463 9.36237 32.9589 9.36237 33.6061C9.36237 33.9367 9.36256 34.2419 9.51848 34.7096C9.82372 35.6253 10.5758 36.2281 11.6465 36.2281H15.3633C16.4661 36.2281 17.3393 35.6032 17.4819 34.7476Z" fill="#048DEF" stroke="#048DEF" stroke-width="0.5"></path><path d="M65.5449 55.914L65.5352 55.9238L65.5243 55.9325C64.6524 56.63 63.5852 57.1699 62.3272 57.1699C61.091 57.1699 60.0093 56.8139 59.1094 55.914L59.0996 55.9043L59.091 55.8934C58.3934 55.0215 57.8536 53.9543 57.8536 52.6963C57.8536 51.4601 58.2095 50.3784 59.1094 49.4785L59.1192 49.4687L59.13 49.46C60.0019 48.7625 61.0692 48.2227 62.3272 48.2227C63.5633 48.2227 64.645 48.5786 65.5449 49.4785L65.5547 49.4883L65.5634 49.4991C66.2609 50.371 66.8008 51.4383 66.8008 52.6963C66.8008 53.9324 66.4449 55.0141 65.5449 55.914ZM63.8398 51.0147C63.5457 50.7205 62.9323 50.4121 62.3272 50.4121C61.7435 50.4121 61.1371 50.6994 60.6497 51.018C60.5018 51.2484 60.3525 51.5503 60.2383 51.8549C60.1153 52.1826 60.043 52.4874 60.043 52.6963C60.043 53.1558 60.1975 53.7609 60.6456 54.2089C60.9397 54.5031 61.5531 54.8115 62.1582 54.8115C62.478 54.8115 62.8318 54.7712 63.1396 54.675C63.4518 54.5775 63.6849 54.4326 63.8086 54.247C63.9652 54.0121 64.1259 53.6919 64.2471 53.3687C64.3701 53.0409 64.4424 52.7362 64.4424 52.5273C64.4424 52.0678 64.2879 51.4627 63.8398 51.0147Z" fill="#048DEF" stroke="#048DEF" stroke-width="0.5"></path><path d="M64.8623 53.9684H64.8999L64.9358 53.9795C66.0724 54.3292 66.9652 54.9035 67.5733 55.6918C68.1822 56.4811 68.4912 57.4663 68.4912 58.611V58.6155C68.4912 59.1213 68.4912 59.6514 68.3168 60.3532C67.9503 62.3453 66.1421 63.5914 64.1865 63.5914H60.4698C58.5064 63.5914 56.7124 62.3406 56.1739 60.3662L56.1739 60.3662L56.1726 60.361C55.9962 59.6554 55.9962 59.1232 55.9962 58.6155V58.611C55.9962 57.4663 56.3051 56.4811 56.9141 55.6918C57.5189 54.9078 58.4053 54.3354 59.533 53.9852C59.9995 53.7648 60.4412 54.0053 60.6465 54.2106C61.5626 55.1266 62.9248 55.1266 63.8408 54.2106C63.983 54.0684 64.1757 54.0157 64.3413 53.992C64.5068 53.9684 64.6907 53.9684 64.8527 53.9684L64.8623 53.9684ZM66.1362 59.9214L66.1379 59.9116L66.1403 59.9019C66.3018 59.2559 66.3018 58.94 66.3018 58.6159V58.611C66.3018 58.0558 66.1831 57.5993 65.9409 57.2267C65.7183 56.8843 65.38 56.595 64.8943 56.3653C63.3175 57.5065 61.1313 57.4934 59.4242 56.5168C58.9346 56.6754 58.5985 56.929 58.3775 57.269C58.1384 57.6369 58.0167 58.1327 58.0167 58.7799C58.0167 59.1105 58.0169 59.4157 58.1728 59.8835C58.478 60.7992 59.2301 61.402 60.3008 61.402H64.0176C65.1204 61.402 65.9936 60.7771 66.1362 59.9214Z" fill="#048DEF" stroke="#048DEF" stroke-width="0.5"></path><path d="M65.7161 19.0857L65.7063 19.0955L65.6955 19.1041C64.8141 19.8093 63.9157 20.1726 62.8362 20.1726C61.7553 20.1726 60.6826 19.6396 60.1305 19.0909C58.4992 17.6352 58.515 15.1105 60.1201 13.5C61.5758 11.8688 64.1005 11.8846 65.7109 13.4897C67.3439 14.9469 67.3263 17.4755 65.7161 19.0857ZM64.011 17.3806C64.391 17.0006 64.5713 16.5557 64.5713 16.1213C64.5713 15.6869 64.391 15.2421 64.011 14.8621C63.2887 14.1398 62.2623 14.2547 61.4828 14.8719C61.1094 15.2497 60.9322 15.6907 60.9322 16.1213C60.9322 16.5557 61.1125 17.0006 61.4925 17.3806C61.8725 17.7606 62.3174 17.9409 62.7517 17.9409C63.1861 17.9409 63.631 17.7606 64.011 17.3806Z" fill="#048DEF" stroke="#048DEF" stroke-width="0.5"></path><path d="M65.0342 17.1383H65.065L65.0948 17.1458C66.1503 17.4097 66.9643 17.8997 67.5126 18.608C68.0608 19.316 68.3252 20.2184 68.3252 21.2741L68.3252 21.2824C68.3252 21.6164 68.3252 22.1512 68.1475 22.6924C67.7767 24.3302 66.1509 25.5787 64.3584 25.5787H61.1485C59.3505 25.5787 57.904 24.4953 57.3635 22.8736C57.1817 22.3282 57.1817 21.7867 57.1817 21.2899V21.2741C57.1817 20.2184 57.4461 19.316 57.9943 18.608C58.5383 17.9053 59.3437 17.4174 60.3871 17.1521C60.8512 16.9369 61.2898 17.1761 61.4942 17.3805C62.0859 17.9722 63.2787 18.1145 64.0127 17.3805C64.1549 17.2384 64.3475 17.1856 64.5131 17.162C64.6787 17.1383 64.8626 17.1383 65.0246 17.1383L65.0342 17.1383ZM65.9717 22.2387L65.9782 22.2059L65.9932 22.1759C66.1321 21.8981 66.1358 21.6182 66.1358 21.2741C66.1358 20.8117 66.021 20.4372 65.8169 20.1217C65.6353 19.8412 65.3765 19.597 65.0436 19.3787C63.6568 20.3299 61.8291 20.3268 60.4533 19.5269C60.1233 19.6781 59.8661 19.8868 59.6862 20.1486C59.4866 20.4389 59.3711 20.8102 59.3711 21.2741C59.3711 21.6182 59.3748 21.8981 59.5137 22.1759L59.526 22.2005L59.5326 22.2271C59.5994 22.4943 59.8099 22.7874 60.1159 23.0169C60.4197 23.2448 60.7907 23.3893 61.1485 23.3893H64.3584C65.1222 23.3893 65.8328 22.9328 65.9717 22.2387Z" fill="#048DEF" stroke="#048DEF" stroke-width="0.5"></path><path d="M20.9466 67.9138L20.9368 67.9236L20.926 67.9322C20.0445 68.6374 19.1462 69.0007 18.0667 69.0007C17.0245 69.0007 15.9263 68.6586 15.348 67.9074C13.7298 66.4499 13.7498 63.9343 15.3506 62.3282C16.8062 60.6969 19.331 60.7128 20.9414 62.3178C22.5744 63.775 22.5567 66.3036 20.9466 67.9138ZM19.2415 66.3776C19.6215 65.9976 19.8018 65.5528 19.8018 65.1184C19.8018 64.684 19.6215 64.2391 19.2415 63.8591C18.8614 63.4791 18.4166 63.2988 17.9822 63.2988C17.5478 63.2988 17.103 63.4791 16.7229 63.8591C16.3429 64.2391 16.1626 64.684 16.1626 65.1184C16.1626 65.5528 16.3429 65.9976 16.7229 66.3776C17.103 66.7577 17.5478 66.938 17.9822 66.938C18.4166 66.938 18.8614 66.7577 19.2415 66.3776Z" fill="#048DEF" stroke="#048DEF" stroke-width="0.5"></path><path d="M12.5931 71.8784L12.593 71.8785L12.59 71.8697C12.4082 71.3243 12.4082 70.7829 12.4083 70.286V70.2702C12.4083 68.1323 13.6619 66.6917 15.4391 66.1508C15.9052 65.9311 16.3466 66.1714 16.5518 66.3766C17.1435 66.9683 18.3363 67.1106 19.0703 66.3766C19.2747 66.1722 19.7133 65.933 20.1774 66.1482C21.2208 66.4135 22.0262 66.9014 22.5702 67.6041C23.1184 68.3121 23.3828 69.2145 23.3828 70.2702C23.3828 70.6196 23.382 70.9789 23.2072 71.6792C22.8404 73.3215 21.2119 74.5748 19.416 74.5748H16.375C14.5645 74.5748 13.1302 73.3107 12.5931 71.8784ZM21.1982 71.2348L21.2131 71.1606L21.2665 71.1071C21.2665 71.1071 21.271 71.1024 21.278 71.0891C21.2853 71.0751 21.2938 71.055 21.3023 71.0276C21.3196 70.9719 21.3331 70.8993 21.3427 70.8127C21.362 70.6388 21.3623 70.4417 21.3623 70.2702C21.3623 69.8078 21.2476 69.4333 21.0434 69.1178C20.8619 68.8373 20.603 68.5931 20.2701 68.3748C18.8946 69.3182 17.0762 69.3288 15.8409 68.5267C15.5147 68.6776 15.2602 68.885 15.0817 69.1447C14.8821 69.435 14.7666 69.8062 14.7666 70.2702C14.7666 70.6143 14.7703 70.8942 14.9092 71.172L14.9215 71.1966L14.9281 71.2232C14.9949 71.4904 15.2054 71.7835 15.5114 72.013C15.8152 72.2409 16.1862 72.3854 16.544 72.3854H19.585C20.3487 72.3854 21.0594 71.9289 21.1982 71.2348Z" fill="#048DEF" stroke="#048DEF" stroke-width="0.5"></path></svg>