<svg xmlns="http://www.w3.org/2000/svg" width="76" height="81" viewBox="0 0 76 81" fill="none"><path d="M3.50292 79.6695C3.54071 79.9621 3.68577 80.2304 3.91 80.4222C4.13423 80.6141 4.42168 80.7159 4.71668 80.708H20.439C20.6275 80.7164 20.8152 80.6792 20.9863 80.5996C21.1574 80.5199 21.3067 80.4001 21.4216 80.2504C21.5365 80.1008 21.6135 79.9255 21.6462 79.7397C21.6789 79.5539 21.6663 79.3629 21.6094 79.1829L19.598 72.5946L25.8644 68.6368C26.6694 68.1948 27.6121 68.0746 28.5022 68.3003C28.5274 68.3068 28.5529 68.3134 28.5786 68.3178L41.6646 70.7285C45.2728 71.3742 48.993 70.8491 52.2815 69.2299C52.3334 69.2044 52.3834 69.1752 52.4311 69.1425L75.0636 53.6028C75.3205 53.4264 75.5004 53.1585 75.5665 52.854C75.6325 52.5494 75.5798 52.2312 75.4191 51.9642C74.5631 50.5381 73.1899 49.4973 71.5856 49.0586C69.9812 48.6198 68.2695 48.8168 66.8068 49.6086L66.5961 49.7223C64.9488 47.8624 62.2114 47.1676 60.1112 48.2324L60.084 48.2467L59.3195 48.6585C58.1953 47.7514 56.8232 47.2055 55.3832 47.0923C53.9431 46.9792 52.5025 47.304 51.2505 48.0243L46.4049 50.661H39.9413C38.5653 50.6587 37.2075 50.347 35.9682 49.7491L35.0708 49.3143C32.4742 48.0507 29.5786 47.5305 26.7045 47.8111C23.8305 48.0916 21.0901 49.1621 18.7869 50.904C18.76 50.9242 18.7345 50.9452 18.709 50.9674L16.5418 52.897C15.8119 53.5461 14.9587 54.0416 14.0332 54.3538L12.8739 50.5153C12.7994 50.2605 12.646 50.036 12.4359 49.8739C12.2258 49.7117 11.9697 49.6203 11.7044 49.6128H1.22284C1.0474 49.6196 0.875329 49.663 0.717658 49.7402C0.559988 49.8175 0.420204 49.9268 0.307277 50.0612C0.192479 50.1908 0.106527 50.3433 0.0551172 50.5085C0.0037074 50.6738 -0.0119859 50.8481 0.00907716 51.0199L3.50292 79.6695ZM61.2296 50.4085C62.2217 49.9136 63.4482 50.2466 64.3293 50.9462L56.0622 55.4063L55.8063 55.5413C55.5675 54.9354 55.2526 54.3622 54.8692 53.8356L61.2296 50.4085ZM52.4331 50.164C52.4429 50.1587 52.4527 50.1533 52.4621 50.1479C53.1271 49.7632 53.876 49.5469 54.6437 49.5178C55.4113 49.4886 56.1745 49.6476 56.8667 49.9807L53.0409 52.0421C52.3869 51.5843 51.6654 51.2315 50.9025 50.9964L52.4331 50.164ZM18.168 54.7234L20.2968 52.8282C22.2402 51.3696 24.5483 50.4753 26.9671 50.2437C29.3859 50.0121 31.8217 50.452 34.0066 51.5152L34.9042 51.9507C36.4754 52.7087 38.1968 53.1037 39.9413 53.1066H48.6458C49.8136 53.1079 50.9478 53.4979 51.8693 54.2151C52.7909 54.9324 53.4474 55.936 53.7353 57.0678L47.7479 56.7961C45.4392 56.6918 43.1258 56.7985 40.8366 57.115C40.5193 57.1639 40.234 57.3357 40.0423 57.5932C39.8506 57.8507 39.7678 58.1732 39.8119 58.4912C39.8559 58.8092 40.0232 59.0971 40.2777 59.2928C40.5321 59.4885 40.8533 59.5763 41.172 59.5372C43.3135 59.2413 45.4776 59.1413 47.6373 59.2385L55.0617 59.5744C55.0792 59.5744 55.0986 59.5757 55.1169 59.5757C55.4413 59.5757 55.7523 59.4468 55.9816 59.2175C56.211 58.9882 56.3398 58.6771 56.3398 58.3528C56.3398 58.2438 56.3361 58.1355 56.3317 58.0276L57.212 57.5634L67.9678 51.7608C68.7025 51.3629 69.5429 51.204 70.3721 51.3063C71.2013 51.4086 71.9779 51.767 72.5938 52.3315L51.1196 67.0756C48.3215 68.4335 45.1651 68.8702 42.1034 68.3229L29.0574 65.9205C27.5629 65.5536 25.9848 65.7684 24.6428 66.5214C24.6237 66.5323 24.6047 66.5434 24.5863 66.5551L18.8564 70.1774L14.7459 56.6948C16.0095 56.2788 17.1742 55.6079 18.168 54.7236V54.7234ZM10.7988 52.0585L18.7878 78.2623H5.79942L2.60378 52.0585H10.7988Z" fill="#048DEF"></path><path d="M11.7537 77.8649C12.4102 77.8649 13.0519 77.6702 13.5977 77.3055C14.1436 76.9408 14.569 76.4224 14.8202 75.8159C15.0714 75.2094 15.1372 74.542 15.0091 73.8982C14.881 73.2543 14.5649 72.6629 14.1007 72.1987C13.6365 71.7345 13.0451 71.4184 12.4013 71.2903C11.7574 71.1623 11.09 71.228 10.4835 71.4792C9.87704 71.7304 9.35866 72.1559 8.99395 72.7017C8.62924 73.2475 8.43457 73.8892 8.43457 74.5457C8.43559 75.4257 8.78561 76.2693 9.40785 76.8916C10.0301 77.5138 10.8737 77.8638 11.7537 77.8649ZM11.7537 73.6723C11.9265 73.6723 12.0954 73.7235 12.239 73.8195C12.3826 73.9154 12.4946 74.0519 12.5607 74.2115C12.6268 74.3711 12.6441 74.5467 12.6104 74.7161C12.5767 74.8856 12.4935 75.0412 12.3714 75.1633C12.2492 75.2855 12.0936 75.3687 11.9241 75.4024C11.7547 75.4361 11.5791 75.4188 11.4195 75.3527C11.2599 75.2866 11.1234 75.1746 11.0275 75.031C10.9315 74.8873 10.8803 74.7185 10.8803 74.5457C10.8805 74.3141 10.9727 74.0921 11.1364 73.9284C11.3001 73.7646 11.5222 73.6725 11.7537 73.6723Z" fill="#048DEF"></path><path d="M18.4639 24.4299L21.782 24.7498C22.1587 26.1161 22.7106 27.4279 23.4241 28.6526L21.3167 31.1972C21.1223 31.4317 21.0224 31.7304 21.0367 32.0348C21.0509 32.3391 21.1783 32.6272 21.3938 32.8426L25.3729 36.8217C25.5882 37.0371 25.8762 37.1643 26.1803 37.1786C26.4845 37.1929 26.7831 37.0932 27.0177 36.8989L29.5682 34.786C30.7918 35.4975 32.1008 36.0508 33.4638 36.4327L33.7837 39.7625C33.8126 40.0664 33.9532 40.3487 34.1783 40.5548C34.4035 40.761 34.6971 40.8763 35.0023 40.8784H40.6438C40.9489 40.8759 41.2423 40.7604 41.4671 40.5541C41.692 40.3479 41.8323 40.0656 41.8611 39.7618L42.1809 36.4383C43.5473 36.0606 44.859 35.5079 46.0836 34.7937L48.6283 36.8996C48.8629 37.0937 49.1615 37.1933 49.4656 37.1789C49.7698 37.1645 50.0576 37.0371 50.2728 36.8217L54.2515 32.8426C54.4669 32.6273 54.5942 32.3393 54.6085 32.0351C54.6228 31.7309 54.5231 31.4323 54.3288 31.1977L52.2151 28.6461C52.9268 27.4221 53.4802 26.1127 53.8621 24.7493L57.1316 24.4301C57.4339 24.4006 57.7144 24.2596 57.9185 24.0347C58.1226 23.8097 58.2357 23.5168 58.2357 23.213V17.5713C58.2357 17.2673 58.1225 16.9742 57.9181 16.7492C57.7137 16.5241 57.4328 16.3833 57.1302 16.3541L53.8121 16.0344C53.4354 14.6681 52.8834 13.3563 52.17 12.1316L54.2773 9.58687C54.4706 9.35339 54.5704 9.05643 54.5571 8.75359C54.5439 8.45076 54.4186 8.16363 54.2057 7.94791L50.2777 3.96859C50.0629 3.75115 49.7744 3.62206 49.4691 3.60676C49.1638 3.59147 48.8638 3.69108 48.6283 3.88596L46.0778 5.99974C44.8541 5.28829 43.5451 4.73499 42.1822 4.35309L41.8623 1.07062C41.8316 0.771345 41.689 0.494723 41.4629 0.296243C41.2368 0.0977636 40.944 -0.00789505 40.6433 0.000460278H35.0023C34.702 -0.00746628 34.4098 0.0982734 34.1841 0.296529C33.9584 0.494784 33.8159 0.770937 33.7851 1.06975L33.465 4.36951C32.0991 4.74309 30.7873 5.29194 29.5624 6.00236L27.0175 3.89051C26.7832 3.69598 26.4848 3.59585 26.1806 3.60971C25.8764 3.62357 25.5884 3.75042 25.3728 3.96545L21.3938 7.94336C21.1786 8.15864 21.0515 8.44642 21.0372 8.75044C21.0229 9.05447 21.1225 9.3529 21.3166 9.58739L23.4303 12.1379C22.7189 13.3616 22.1656 14.6706 21.7837 16.0335L18.4645 16.3534C18.1617 16.3824 17.8806 16.5233 17.676 16.7485C17.4715 16.9737 17.3582 17.2671 17.3584 17.5713V23.2127C17.3584 23.5167 17.4716 23.8098 17.676 24.0348C17.8804 24.2599 18.1612 24.4008 18.4639 24.4299ZM19.8041 18.682L22.8787 18.3851C23.1367 18.3601 23.3802 18.2538 23.5739 18.0815C23.7676 17.9092 23.9015 17.6798 23.9563 17.4264C24.3318 15.7411 25.0091 14.1377 25.9553 12.6936C26.0962 12.4752 26.1639 12.2176 26.1485 11.9582C26.1331 11.6988 26.0355 11.451 25.8697 11.2508L23.9102 8.88443L26.315 6.47962L28.6811 8.43914C28.8837 8.60696 29.135 8.70497 29.3977 8.71863C29.6604 8.73229 29.9205 8.66086 30.1394 8.51496C31.575 7.56511 33.1749 6.89084 34.8573 6.52661C35.1081 6.47972 35.337 6.35294 35.5098 6.16522C35.6826 5.9775 35.79 5.73891 35.816 5.48509L36.113 2.44545H39.5335L39.8304 5.48509C39.8559 5.74105 39.9627 5.9821 40.1353 6.17284C40.3078 6.36357 40.537 6.49394 40.7892 6.54478C42.4744 6.91659 44.0783 7.59054 45.5233 8.534C45.7422 8.67429 46.0001 8.74117 46.2596 8.72493C46.519 8.70869 46.7666 8.61017 46.9663 8.44368L49.3269 6.48713L51.6913 8.88041L49.725 11.2506C49.5573 11.4532 49.4594 11.7045 49.4458 11.9671C49.4322 12.2298 49.5037 12.4898 49.6495 12.7086C50.5993 14.1442 51.2735 15.744 51.6377 17.4264C51.6925 17.6798 51.8264 17.9092 52.0202 18.0815C52.2139 18.2538 52.4573 18.3601 52.7154 18.3851L55.79 18.682V22.1034L52.7638 22.3988C52.506 22.4239 52.2628 22.5303 52.0693 22.7026C51.8759 22.8749 51.7421 23.1041 51.6873 23.3573C51.3123 25.043 50.6353 26.6469 49.689 28.0915C49.5481 28.3099 49.4804 28.5675 49.4958 28.827C49.5112 29.0864 49.6089 29.3342 49.7746 29.5344L51.735 31.8992L49.3302 34.3041L46.964 32.3445C46.7614 32.1767 46.5101 32.0787 46.2474 32.065C45.9847 32.0514 45.7246 32.1228 45.5057 32.2687C44.0701 33.2188 42.4702 33.8932 40.7878 34.2576C40.5336 34.3148 40.304 34.4509 40.1318 34.6465C39.9596 34.8421 39.8536 35.087 39.8291 35.3464L39.5328 38.4327H36.1123L35.8153 35.3464C35.7905 35.0878 35.6843 34.8436 35.5121 34.649C35.3398 34.4544 35.1104 34.3194 34.8566 34.2634C33.1711 33.8872 31.5676 33.2093 30.1233 32.2624C29.9051 32.1213 29.6475 32.0534 29.388 32.0686C29.1286 32.0838 28.8807 32.1812 28.6804 32.3468L26.3143 34.3056L23.9102 31.8992L25.8697 29.533C26.0376 29.3304 26.1355 29.079 26.1491 28.8163C26.1627 28.5535 26.0912 28.2934 25.9452 28.0745C24.9955 26.6389 24.3213 25.0391 23.957 23.3568C23.9022 23.1034 23.7683 22.874 23.5746 22.7016C23.3809 22.5293 23.1374 22.423 22.8794 22.3981L19.8048 22.1011L19.8041 18.682Z" fill="#048DEF"></path><path d="M37.8228 32.5988C40.2371 32.5988 42.5971 31.8829 44.6045 30.5416C46.6118 29.2003 48.1764 27.2939 49.1003 25.0634C50.0242 22.8329 50.2659 20.3786 49.7949 18.0107C49.3239 15.6429 48.1613 13.4678 46.4541 11.7607C44.747 10.0536 42.572 8.89105 40.2041 8.42008C37.8362 7.9491 35.3819 8.19086 33.1514 9.11478C30.921 10.0387 29.0146 11.6033 27.6733 13.6107C26.3321 15.6181 25.6162 17.9781 25.6162 20.3923C25.6199 23.6286 26.9071 26.7313 29.1955 29.0196C31.4839 31.308 34.5866 32.5952 37.8228 32.5988ZM37.8228 10.6314C39.7534 10.6314 41.6405 11.2039 43.2457 12.2764C44.8509 13.349 46.102 14.8734 46.8407 16.657C47.5795 18.4406 47.7728 20.4032 47.3962 22.2966C47.0196 24.19 46.0899 25.9293 44.7248 27.2944C43.3598 28.6594 41.6205 29.5891 39.7271 29.9657C37.8337 30.3423 35.8711 30.149 34.0875 29.4103C32.3039 28.6715 30.7795 27.4204 29.7069 25.8152C28.6344 24.21 28.0619 22.3229 28.0619 20.3923C28.065 17.8046 29.0944 15.3237 30.9243 13.4939C32.7541 11.6642 35.2351 10.6349 37.8228 10.6319V10.6314Z" fill="#048DEF"></path><path d="M35.6417 24.1236C35.8701 24.3466 36.1767 24.4715 36.4959 24.4715C36.8152 24.4715 37.1218 24.3466 37.3502 24.1236L43.2034 18.4089C43.3197 18.2971 43.4127 18.1633 43.4771 18.0154C43.5415 17.8674 43.5759 17.7082 43.5785 17.5468C43.581 17.3855 43.5516 17.2253 43.4919 17.0754C43.4323 16.9254 43.3435 16.7888 43.2308 16.6734C43.1181 16.5579 42.9837 16.4659 42.8352 16.4026C42.6868 16.3393 42.5273 16.3061 42.366 16.3047C42.2046 16.3034 42.0446 16.334 41.8952 16.3948C41.7457 16.4555 41.6097 16.5453 41.4951 16.6588L36.4959 21.5392L34.1011 19.2011C33.9865 19.0876 33.8505 18.9978 33.701 18.937C33.5516 18.8763 33.3916 18.8457 33.2302 18.847C33.0689 18.8484 32.9094 18.8816 32.7609 18.9449C32.6125 19.0082 32.4781 19.1002 32.3654 19.2156C32.2527 19.3311 32.1639 19.4677 32.1043 19.6176C32.0446 19.7676 32.0152 19.9278 32.0177 20.0891C32.0203 20.2505 32.0547 20.4097 32.1191 20.5577C32.1835 20.7056 32.2765 20.8394 32.3928 20.9512L35.6417 24.1236Z" fill="#048DEF"></path></svg>