<svg xmlns="http://www.w3.org/2000/svg" width="56" height="57" viewBox="0 0 56 57" fill="none"><path d="M17.4178 35.6979C17.1922 35.4322 16.863 35.2798 16.5145 35.2799C16.1659 35.28 15.8368 35.4326 15.6116 35.6979L11.7667 40.2262C11.4687 40.577 11.4009 41.0733 11.594 41.4908C11.7871 41.9083 12.2093 42.178 12.6696 42.178H13.6182V55.231C13.6182 55.7311 14.0236 56.1365 14.5236 56.1365H18.5058C19.0058 56.1365 19.4113 55.7311 19.4113 55.231V42.178H20.3598C20.8199 42.178 21.2421 41.9083 21.4353 41.4911C21.6285 41.0737 21.5608 40.5774 21.2629 40.2265L17.4178 35.6979ZM18.5058 40.3671C18.0058 40.3671 17.6004 40.7725 17.6004 41.2726V54.3256H15.4291V41.2726C15.4291 40.7725 15.0237 40.3671 14.5236 40.3671H14.0227L16.5147 37.4321L19.0068 40.3671H18.5058ZM5.93246 41.8823C5.70678 41.6165 5.37753 41.4643 5.02916 41.4644C4.68067 41.4644 4.35165 41.6169 4.12631 41.8823L0.281187 46.4109C-0.0165936 46.7618 -0.0842763 47.2581 0.108925 47.6755C0.302126 48.0928 0.72418 48.3624 1.18438 48.3624H2.13284V55.2311C2.13284 55.7312 2.53826 56.1366 3.03829 56.1366H7.02048C7.52051 56.1366 7.92593 55.7312 7.92593 55.2311V48.3624H8.87439C9.33459 48.3624 9.75676 48.0927 9.94996 47.6754C10.143 47.258 10.0754 46.7617 9.77747 46.4109L5.93246 41.8823ZM7.02059 46.5515C6.52055 46.5515 6.11514 46.9569 6.11514 47.4569V54.3257H3.94386V47.4569C3.94386 46.9569 3.53844 46.5515 3.03841 46.5515H2.53758L5.0295 43.6164L7.52153 46.5515H7.02059ZM28.9031 29.5134C28.6776 29.2477 28.3484 29.0955 28.0001 29.0955C27.9999 29.0955 27.9998 29.0955 27.9997 29.0955C27.6511 29.0956 27.322 29.2483 27.0971 29.5134L23.2521 34.0418C22.9542 34.3927 22.8865 34.8889 23.0796 35.3064C23.2727 35.7239 23.6949 35.9935 24.155 35.9935H25.1036V55.231C25.1036 55.7311 25.509 56.1365 26.0091 56.1365H29.9913C30.4913 56.1365 30.8967 55.7311 30.8967 55.231V35.9935H31.8452C32.3054 35.9935 32.7277 35.7238 32.9207 35.3064C33.1138 34.889 33.0461 34.3927 32.7484 34.0421L28.9031 29.5134ZM29.9911 34.1826C29.4911 34.1826 29.0857 34.5881 29.0857 35.0881V54.3256H26.9144V35.0881C26.9144 34.5881 26.509 34.1826 26.009 34.1826H25.5081L28.0001 31.2478L30.4921 34.1828L29.9911 34.1826ZM55.7188 46.4108L51.8737 41.8822V41.882C51.6481 41.6164 51.3189 41.4642 50.9704 41.4643C50.6219 41.4643 50.2929 41.6168 50.0675 41.8822L46.2225 46.4107C45.9246 46.7615 45.8569 47.2577 46.05 47.6751C46.2431 48.0926 46.6654 48.3623 47.1255 48.3623H48.0741V55.231C48.0741 55.7311 48.4795 56.1365 48.9795 56.1365H52.9617C53.4617 56.1365 53.8672 55.7311 53.8672 55.231V48.3623H54.8156C55.2757 48.3623 55.6978 48.0927 55.891 47.6755C56.0843 47.2582 56.0167 46.7619 55.7188 46.4108ZM52.9618 46.5515C52.4618 46.5515 52.0564 46.9569 52.0564 47.4569V54.3257H49.8851V47.4569C49.8851 46.9569 49.4797 46.5515 48.9796 46.5515H48.4787L50.9707 43.6164L53.4628 46.5515H52.9618ZM40.3885 35.6979C40.1629 35.4322 39.8338 35.2799 39.4853 35.2799C39.1366 35.2799 38.8073 35.4325 38.5823 35.6979L34.7375 40.2262C34.4395 40.577 34.3717 41.0733 34.5648 41.4908C34.7579 41.9083 35.1801 42.178 35.6404 42.178H36.589V55.231C36.589 55.7311 36.9944 56.1365 37.4944 56.1365H41.4766C41.9766 56.1365 42.382 55.7311 42.382 55.231V42.178H43.3305C43.7906 42.178 44.2128 41.9083 44.406 41.4911C44.5992 41.0737 44.5315 40.5774 44.2336 40.2265L40.3885 35.6979ZM41.4765 40.3671C40.9764 40.3671 40.571 40.7725 40.571 41.2726V54.3256H38.3997V41.2726C38.3997 40.7725 37.9943 40.3671 37.4943 40.3671H36.9934L39.4853 37.4322L41.9773 40.3671H41.4765ZM34.6997 30.994L36.0758 28.6259L38.7739 29.0974C39.1885 29.1699 39.6043 29.0074 39.8599 28.674C40.1156 28.3405 40.1641 27.8965 39.9867 27.515L36.8269 20.7279L37.4147 20.4762C38.7996 19.883 39.61 18.4795 39.4312 16.9837L39.2115 15.1457C39.1724 14.8187 39.2191 14.5539 39.3676 14.2602L40.2026 12.6083C40.8823 11.2637 40.6009 9.66761 39.5023 8.63664L38.1527 7.36991C37.9126 7.14456 37.7782 6.91175 37.7031 6.59111L37.2809 4.78891C36.9373 3.32208 35.6958 2.28036 34.1915 2.1966L32.3435 2.09383C32.0148 2.0755 31.7621 1.98359 31.4985 1.78632L30.0167 0.677138C28.8105 -0.225713 27.1899 -0.225713 25.9838 0.677138L24.5019 1.78632C24.2385 1.98359 23.9857 2.07561 23.657 2.09383L21.809 2.1966C20.3047 2.28036 19.0631 3.32208 18.7196 4.78891L18.2974 6.59099C18.2223 6.91164 18.0878 7.14456 17.8479 7.3698L16.4982 8.63641C15.3997 9.66738 15.1183 11.2635 15.7978 12.6081L16.6329 14.2601C16.7814 14.5539 16.8281 14.8187 16.789 15.1456L16.5693 16.9834C16.3904 18.4794 17.2008 19.8829 18.5857 20.4761L19.1737 20.7279L16.0138 27.515C15.8363 27.8962 15.8848 28.3403 16.1404 28.6739C16.3961 29.0073 16.8122 29.1698 17.2267 29.0974L19.9247 28.6259L21.3008 30.9942C21.5034 31.3426 21.8721 31.5534 22.2722 31.5534C22.2894 31.5534 22.3068 31.5531 22.3241 31.5523C22.7439 31.5332 23.1149 31.2845 23.2924 30.9034L26.2401 24.5719L27.5508 24.1758C27.8659 24.0805 28.1349 24.0805 28.45 24.1758L29.7606 24.5719L32.7084 30.9035C32.8859 31.2845 33.2569 31.5332 33.6767 31.5523C33.694 31.5531 33.7113 31.5534 33.7286 31.5534C34.1283 31.5535 34.4969 31.3427 34.6997 30.994ZM22.2054 28.9471L21.173 27.1706C20.9825 26.8428 20.6077 26.6687 20.2343 26.7336L18.2103 27.0873L20.7898 21.5467C20.8559 21.6164 20.9175 21.6938 20.9758 21.783L21.9889 23.3321C22.4995 24.113 23.2781 24.622 24.1392 24.7934L22.2054 28.9471ZM28.0001 22.2938C27.677 22.2938 27.3541 22.3434 27.0266 22.4423L25.2547 22.9778C24.5783 23.1826 23.8913 22.9323 23.5045 22.3407L22.4914 20.7917C22.1169 20.219 21.6291 19.8096 20.9999 19.5401L19.2984 18.8114C18.6488 18.5332 18.2832 17.9001 18.3671 17.1984L18.5867 15.3604C18.668 14.6809 18.5573 14.0537 18.2487 13.4431L17.4137 11.7912C17.0949 11.1605 17.2219 10.4405 17.7371 9.9569L19.0868 8.69017C19.5857 8.22194 19.9041 7.67041 20.0602 7.00411L20.4824 5.20191C20.6436 4.51388 21.2037 4.04395 21.9093 4.00468L23.7573 3.90191C24.4407 3.86388 25.0392 3.64601 25.5869 3.23595L27.0688 2.12677C27.6346 1.70336 28.3656 1.70336 28.9313 2.12677L30.4131 3.23584C30.9609 3.64601 31.5593 3.86377 32.2428 3.90191L34.0908 4.00468C34.7964 4.04395 35.3565 4.51388 35.5177 5.20191L35.9399 7.00399C36.0958 7.67029 36.4142 8.22183 36.9133 8.69017L38.263 9.9569C38.7783 10.4404 38.9052 11.1605 38.5864 11.7912L37.7513 13.4431C37.4426 14.0539 37.332 14.681 37.4133 15.3604L37.6329 17.1984C37.7168 17.9001 37.3512 18.5332 36.7016 18.8114L35.0001 19.5401C34.371 19.8095 33.8832 20.2189 33.5086 20.7916L32.4955 22.3407C32.1088 22.9322 31.4216 23.1825 30.7453 22.9778L28.9734 22.4423C28.646 22.3434 28.3231 22.2938 28.0001 22.2938ZM31.8609 24.7932C32.722 24.6216 33.5006 24.1126 34.0112 23.3319L35.0243 21.7828C35.0826 21.6936 35.1442 21.6162 35.2104 21.5465L37.7899 27.0871L35.7659 26.7334C35.3922 26.6685 35.0177 26.8425 34.8272 27.1704L33.7948 28.9469L31.8609 24.7932ZM35.3055 12.4288C35.3055 8.40054 32.0283 5.12337 28.0001 5.12337C23.9718 5.12337 20.6946 8.40065 20.6946 12.4288C20.6946 16.4569 23.9719 19.7342 28.0001 19.7342C32.0282 19.7342 35.3055 16.457 35.3055 12.4288ZM28.0001 17.9233C24.9703 17.9233 22.5055 15.4585 22.5055 12.4288C22.5055 9.39903 24.9703 6.93416 28.0001 6.93416C31.0298 6.93416 33.4946 9.39903 33.4946 12.4287C33.4946 15.4583 31.0298 17.9233 28.0001 17.9233Z" fill="#047BDC"></path></svg>