<svg xmlns="http://www.w3.org/2000/svg" width="52" height="52" viewBox="0 0 52 52" fill="none"><g clip-path="url(#clip0_297_56)"><path d="M48.2243 42.1225C49.0588 41.3783 49.5625 40.3049 49.5625 39.1488C49.5625 38.359 49.3309 37.5936 48.893 36.9371L48.0382 35.655L48.9686 33.3296C49.3626 32.3449 49.5625 31.3065 49.5625 30.2446C49.5625 25.6637 45.8364 21.9376 41.2555 21.9376H33.3117C31.9499 21.9376 30.7856 22.7817 30.303 23.9729C29.6969 23.7819 29.0729 23.6609 28.4375 23.604V20.8147L28.977 20.5449C31.6509 19.2076 33.3125 16.5198 33.3125 13.5298C33.3125 11.1955 32.2814 9.1025 30.6581 7.66437L31.9231 1.33744L27.7761 2.37419L25.1875 0.648438L22.5981 2.37419L18.4519 1.33744L19.3408 5.78506C17.1169 6.23681 15.4375 8.20712 15.4375 10.5626V11.3751C15.4375 12.5556 16.2809 13.5412 17.3973 13.7646L17.2876 13.984C17.1405 14.2781 17.0625 14.6072 17.0625 14.9354C17.0625 15.9356 17.7564 16.7766 18.6875 17.0024V19.6463C18.6875 20.9097 19.7153 21.9376 20.9779 21.9376C21.1291 21.9376 21.2802 21.9229 21.4281 21.8929L21.9375 21.7913V23.6032C20.6984 23.7153 19.5041 24.0809 18.4186 24.683C16.9788 23.006 14.8484 21.9376 12.4702 21.9376H8.79775C7.53269 21.9376 6.34319 21.4452 5.44944 20.5506L4.875 19.9762L3.68387 21.1665C2.88031 21.9717 2.4375 23.0409 2.4375 24.1776C2.4375 26.0382 3.64487 27.6072 5.3105 28.1865L4.28675 30.234C4.1405 30.5281 4.0625 30.8572 4.0625 31.1854C4.0625 32.1856 4.75638 33.0266 5.6875 33.2524V35.8963C5.6875 37.1597 6.71531 38.1876 7.97794 38.1876C8.12906 38.1876 8.28019 38.1729 8.42806 38.1429L8.9375 38.0413V39.854C4.38912 40.2659 0.8125 44.0961 0.8125 48.7501V51.1876H51.1875V48.7501C51.1875 46.12 50.0386 43.7589 48.2243 42.1225ZM33.3117 23.5626H41.2555C44.9402 23.5626 47.9375 26.5599 47.9375 30.2446C47.9375 31.0993 47.7766 31.9337 47.4589 32.7267L46.2118 35.8459L47.541 37.839C47.8002 38.2274 47.9375 38.6807 47.9375 39.1488C47.9375 39.9507 47.5296 40.6852 46.8756 41.1174C46.1216 40.6584 45.2961 40.3098 44.4186 40.0896C44.5851 39.7606 44.6875 39.3933 44.6875 39.0001V38.1876H43.0625V39.0001C43.0625 39.4478 42.6985 39.8126 42.25 39.8126C41.8015 39.8126 41.4375 39.4478 41.4375 39.0001C41.4375 38.5378 41.5017 38.0762 41.6292 37.6294L42.8667 33.2979C42.9959 32.8429 43.0617 32.3725 43.0617 31.9004C43.0625 29.0957 40.7794 26.8126 37.9738 26.8126H33.3125C32.4163 26.8126 31.6875 26.0837 31.6875 25.1868C31.6875 24.2906 32.4155 23.5626 33.3117 23.5626ZM39.1966 37.3507L38.8034 35.7744L35.7272 36.5431C35.3259 36.6471 34.9375 36.3302 34.9375 35.928V34.9376H35.75C37.0939 34.9376 38.1875 33.8439 38.1875 32.5001V31.6876H36.5625V32.5001C36.5625 32.9478 36.1985 33.3126 35.75 33.3126H34.9375V28.4376H37.9738C39.884 28.4376 41.4375 29.9911 41.4375 31.9013C41.4375 32.223 41.3928 32.5431 41.3042 32.8527L40.0668 37.1841C39.8978 37.7756 39.8125 38.3866 39.8125 39.0001C39.8125 39.2861 39.871 39.5574 39.962 39.8126H38.1875V37.6034L39.1966 37.3507ZM42.6205 43.0626H38.6279C38.4353 42.5409 38.3021 41.9974 38.2387 41.4376H42.25C42.5067 41.4376 42.7603 41.4514 43.0097 41.4774C42.9439 42.0234 42.8082 42.5531 42.6205 43.0626ZM41.7649 44.6876C41.5366 45.0085 41.2856 45.3156 41.0028 45.5992L40.625 45.9762L40.2472 45.5992C39.9636 45.3156 39.7134 45.0085 39.4851 44.6876H41.7649ZM25.4979 26.8126H24.8771L24.0646 25.1876H26.3104L25.4979 26.8126ZM22.2657 25.2233L23.4902 27.6714L23.2497 28.3141L21.1916 25.3744C21.5443 25.2972 21.9017 25.2469 22.2657 25.2233ZM25.1875 31.0831L24.3791 29.9285L24.9381 28.4376H25.4369L25.9959 29.9285L25.1875 31.0831ZM27.1261 28.3141L26.8856 27.6714L28.1149 25.2119C28.4797 25.2363 28.8405 25.281 29.1947 25.359L27.1261 28.3141ZM22.9019 4.12594L25.1875 2.60169L27.4731 4.12594L29.8261 3.53769L29.2061 6.63656C28.0954 6.03125 26.8223 5.68756 25.4702 5.68756H20.9788L20.5481 3.53769L22.9019 4.12594ZM17.875 12.1876C17.4265 12.1876 17.0625 11.8228 17.0625 11.3751V10.5626C17.0625 8.77019 18.5201 7.31256 20.3125 7.31256H25.4702C28.8982 7.31256 31.6875 10.1019 31.6875 13.5298C31.6875 15.8267 30.4436 17.8897 28.4375 18.9809V16.9228C29.3832 16.5872 30.0625 15.6838 30.0625 14.6243C30.0625 13.5258 29.3329 12.5954 28.3327 12.2916C28.0288 11.2922 27.0985 10.5626 26 10.5626H20.5042C19.5748 10.5626 18.7395 11.0785 18.3235 11.9097L18.1854 12.1876H17.875ZM25.3467 21.1088L25.0274 19.5155L21.1087 20.2996C20.7122 20.3776 20.3125 20.0583 20.3125 19.6463V18.6876H21.125C22.4689 18.6876 23.5625 17.5939 23.5625 16.2501V15.4376H21.9375V16.2501C21.9375 16.6978 21.5735 17.0626 21.125 17.0626H20.3125V15.4376H19.1896C18.9126 15.4376 18.6875 15.2125 18.6875 14.9354C18.6875 14.8582 18.7054 14.7803 18.7403 14.7112L19.7771 12.6369C19.9168 12.3598 20.1947 12.1876 20.5042 12.1876H26C26.4485 12.1876 26.8125 12.5524 26.8125 13.0001V13.8126H27.625C28.0735 13.8126 28.4375 14.1774 28.4375 14.6251C28.4375 15.0728 28.0735 15.4376 27.625 15.4376H26.8125V23.5626H23.5625V21.4663L25.3467 21.1088ZM4.0625 24.1776C4.0625 23.474 4.33631 22.8126 4.83356 22.3154L4.91075 22.2382C6.019 23.097 7.37262 23.5626 8.79775 23.5626H12.4702C15.8982 23.5626 18.6875 26.3519 18.6875 29.7798C18.6875 32.08 17.4476 34.1543 15.4375 35.2439V33.1736C16.3833 32.8381 17.0625 31.9346 17.0625 30.8751C17.0625 29.7766 16.3329 28.8463 15.3327 28.5424C15.0288 27.5422 14.0985 26.8126 13 26.8126H6.69662C5.24387 26.8126 4.0625 25.6304 4.0625 24.1776ZM12.3468 37.3588L12.0274 35.7655L8.10875 36.5496C7.71062 36.6251 7.3125 36.3083 7.3125 35.8963V34.9376H8.125C9.46887 34.9376 10.5625 33.8439 10.5625 32.5001V31.6876H8.9375V32.5001C8.9375 32.9478 8.5735 33.3126 8.125 33.3126H7.3125V31.6876H6.18962C5.91256 31.6876 5.6875 31.4625 5.6875 31.1854C5.6875 31.1082 5.70538 31.0302 5.74031 30.9612L7.00212 28.4376H13C13.4485 28.4376 13.8125 28.8024 13.8125 29.2501V30.0626H14.625C15.0735 30.0626 15.4375 30.4274 15.4375 30.8751C15.4375 31.3228 15.0735 31.6876 14.625 31.6876H13.8125V39.8126H10.5625V37.7163L12.3468 37.3588ZM11.9381 44.6876H12.4369L14.2651 49.5626H10.1099L11.9381 44.6876ZM12.4979 43.0626H11.8771L11.0646 41.4376H13.3104L12.4979 43.0626ZM2.4375 48.7501C2.4375 44.8834 5.45675 41.7162 9.26006 41.4627L10.4894 43.9222L8.37444 49.5626H2.4375V48.7501ZM21.9375 49.5626H16.0006L13.8848 43.9214L15.1141 41.4619C18.9182 41.7162 21.9375 44.8834 21.9375 48.7501V49.5626ZM28.4375 49.5626H23.5625V48.7501C23.5625 44.0961 19.9859 40.2659 15.4375 39.854V37.0655L15.977 36.7957C18.6509 35.4576 20.3125 32.7698 20.3125 29.7798C20.3125 28.4254 19.9672 27.1497 19.3594 26.0366C19.435 25.9968 19.5057 25.9464 19.5829 25.9099L24.375 32.756V39.8126H26V32.756L30.3599 26.5274C30.8718 27.6511 31.9995 28.4376 33.3125 28.4376V35.928C33.3125 37.1736 34.3265 38.1876 35.5721 38.1876C35.7557 38.1876 35.9385 38.1648 36.1197 38.1201L36.5625 38.0096V39.854C32.0141 40.2659 28.4375 44.0961 28.4375 48.7501V49.5626ZM49.5625 49.5626H30.0625V48.7501C30.0625 44.9784 32.9331 41.8657 36.6039 41.479C36.7973 43.4688 37.6659 45.3148 39.0983 46.7472L40.625 48.2739L42.1517 46.7481C43.4948 45.405 44.3381 43.6866 44.5973 41.8316C47.4801 42.8115 49.5625 45.5399 49.5625 48.7501V49.5626Z" fill="#0369CA"></path><path d="M27.625 36.5625H29.25V38.1875H27.625V36.5625Z" fill="#0369CA"></path><path d="M27.625 33.3125H29.25V34.9375H27.625V33.3125Z" fill="#0369CA"></path></g><defs><clipPath id="clip0_297_56"><rect width="52" height="52" fill="white"></rect></clipPath></defs></svg>