<svg xmlns="http://www.w3.org/2000/svg" width="60" height="60" viewBox="0 0 60 60" fill="none"><path d="M27.9989 0C27.4989 0 26.9989 0.333166 26.9989 0.999999V3C26.9989 4.33366 28.999 4.33366 28.999 3V0.999999C28.999 0.333169 28.499 0 27.9989 0ZM14.8598 7.27539L16.2739 8.68945C17.217 9.6325 18.6311 8.21843 17.6881 7.27539L16.2739 5.86133C16.0382 5.62556 15.7724 5.53606 15.522 5.55077C14.7705 5.59489 14.1525 6.56811 14.8598 7.27539ZM40.4759 5.55078C40.2255 5.53604 39.9597 5.62558 39.724 5.86135L38.3098 7.27541C37.3668 8.21845 38.7809 9.63251 39.724 8.68947L41.1381 7.27541C41.8454 6.56811 41.2273 5.59489 40.4759 5.55078ZM19.1901 45.3672C21.2759 46.742 23.6111 47.5768 25.9989 47.8763V58.9981C26 59.5538 26.4498 60.0021 27.0028 60H34.9953C35.5483 60.0021 35.9981 59.5538 35.9992 58.9981V45.9903C35.9991 45.9506 35.986 45.9153 35.9815 45.877C36.6821 45.4737 37.3535 45.0154 37.9991 44.4974V58.9981C38.0002 59.5538 38.45 60.0021 39.003 60H46.9955C47.5485 60.0021 47.9983 59.5538 47.9994 58.9981L48.0032 32.002C48.0024 31.4462 47.5527 30.9979 46.9996 31H43.978C43.741 27.2472 42.1825 23.5482 39.3138 20.6797C39.0727 20.4386 38.839 20.2113 38.5853 19.9922C38.8447 19.122 38.9974 18.1347 38.9974 16.957C38.9974 11.4616 34.5928 6.00195 27.999 6.00195C21.4051 6.00195 17.0006 11.4616 17.0006 16.957C17.0006 18.1337 17.1517 19.1206 17.4107 19.9902C17.1561 20.2096 16.9217 20.4382 16.6802 20.6797C11.215 26.1446 10.5154 34.5877 14.6313 40.8047L1.63087 51.2129C-0.632815 53.0492 -0.426177 56.4763 1.54885 58.4512C3.52387 60.4261 6.95095 60.6327 8.78737 58.3692L19.1901 45.3672ZM27.9989 8.00195C33.4435 8.00195 36.9973 12.5376 36.9973 16.957C36.9973 20.0863 35.7479 21.5731 34.2882 23.0391C33.5584 23.7721 32.7668 24.4935 32.1182 25.4316C31.6081 26.1695 31.2331 26.9965 31.0752 28H28.999V24.3457L31.6788 21.7266C32.3343 21.1078 31.9005 20.0066 30.999 20C30.7278 19.9963 30.4675 20.1025 30.2764 20.2949L27.995 22.5234L25.7157 20.2949C25.5245 20.1025 25.2622 19.9963 24.991 20C24.0896 20.0064 23.6577 21.1078 24.3133 21.7266L26.9989 24.3535V28H24.9227C24.7648 26.9965 24.3725 26.1445 23.8797 25.4316C23.2311 24.4935 22.4395 23.7721 21.7097 23.0391C20.25 21.5731 19.0006 20.0003 19.0006 16.957C19.0006 12.5376 22.5543 8.00195 27.9989 8.00195ZM27.9989 10C25.996 10 24.0868 10.8623 22.7585 12.3613C21.7884 13.3645 23.3816 14.7708 24.2566 13.6836C25.206 12.6122 26.5673 12 27.9989 12C29.3622 12.0302 29.3622 9.96976 27.9989 10ZM21.9968 15.9688C21.4445 15.9688 20.9968 16.4165 20.9968 16.9688C20.9968 17.521 21.4445 17.9687 21.9968 17.9688C22.5491 17.9687 22.9968 17.521 22.9968 16.9688C22.9968 16.4165 22.5491 15.9688 21.9968 15.9688ZM11.9984 18C10.6647 18 10.6647 20 11.9984 20H13.9985C15.3322 20 15.3322 18 13.9985 18H11.9984ZM41.9994 18C40.6657 18 40.6657 20 41.9994 20H43.9995C45.3332 20 45.3332 18 43.9995 18H41.9994ZM51.0036 18.9883C50.4506 18.9862 50.0008 19.4345 49.9997 19.9902V58.9981C50.0008 59.5538 50.4506 60.0021 51.0036 60H58.9961C59.5491 60.0021 59.9989 59.5538 60 58.9981V19.9902C59.9989 19.4345 59.5491 18.9862 58.9961 18.9883H51.0036ZM51.9998 21H58V57.9883H51.9998V21ZM18.2525 21.9356C18.6152 22.5501 19.0309 23.0848 19.4537 23.5625C14.8256 28.247 14.8307 35.8367 19.5045 40.4883C24.218 45.1794 31.8111 45.1683 36.4914 40.4883C41.1537 35.8263 41.1897 28.2798 36.5442 23.5723C36.9668 23.0949 37.3768 22.5555 37.7395 21.9414C37.7959 21.9951 37.8443 22.0383 37.8997 22.0938C43.3587 27.5602 43.3839 36.4242 37.9057 41.9024C32.4272 47.3805 23.534 47.3571 18.0906 41.9024C12.6472 36.4476 12.616 27.5719 18.0944 22.0938C18.1504 22.0378 18.1954 21.9898 18.2525 21.9356ZM20.8464 25.0098C21.3831 25.5474 21.8792 26.0565 22.2331 26.5684C22.543 27.0165 22.7716 27.464 22.8933 28.0117C21.6559 28.1406 21.7098 30 22.9988 30C22.9988 31.0249 22.9988 32.0965 22.9988 33C22.9998 34.2996 23.8352 35.4069 25.0067 35.8184C25.0067 36.0835 25.0066 36.3398 25.0067 37.002C25.008 38.6457 26.336 40 28.0009 40C29.6711 40 30.9952 38.6467 30.9952 37.002V35.8184C32.1672 35.4066 32.9991 34.2997 32.9991 33V30C34.2881 30 34.3151 28.133 33.1124 28.0078C33.2341 27.46 33.4549 27.0165 33.7648 26.5684C34.1182 26.0571 34.6137 25.5486 35.1496 25.0117C38.9704 28.9221 38.9633 35.1866 35.0754 39.0742C31.1593 42.99 24.8034 42.9744 20.9186 39.0742C17.0613 35.2017 17.0134 28.9316 20.8464 25.0098ZM24.9988 30H27.9989H30.999V33C30.999 33.5713 30.5508 33.9961 30.0029 33.9961H25.995C25.4237 33.9961 24.9993 33.541 24.9988 33C24.9989 31.9951 24.9989 31.0093 24.9988 30ZM43.9741 33H45.9996V57.9883H39.9994V42.5996C42.4227 39.8513 43.7606 36.4421 43.9741 33ZM27.0067 35.9981H28.9951V37.002C28.9951 37.5733 28.5468 37.9981 28.0009 37.9981C27.4315 37.9981 27.0072 37.543 27.0067 37.002C27.0067 36.3773 27.0067 36.1836 27.0067 35.9981ZM15.8462 42.4024C16.1132 42.7128 16.3795 43.0243 16.6743 43.3184C16.9715 43.6147 17.2845 43.8841 17.5982 44.1524L7.22481 57.1133C6.22065 58.3445 4.17554 58.2418 2.96685 57.0332C1.75607 55.8225 1.64671 53.7679 2.88484 52.7656L15.8462 42.4024ZM33.5831 47L33.9991 46.8438V57.9883H27.9989V48.0072C29.8934 48.0077 31.7856 47.667 33.5831 47Z" fill="#0369CA"></path></svg>