<svg xmlns="http://www.w3.org/2000/svg" width="82" height="82" viewBox="0 0 82 82" fill="none"><path d="M8.2002 5.4668H10.9335V8.20013H8.2002V5.4668Z" fill="#047BDC"></path><path d="M13.666 5.4668H16.3993V8.20013H13.666V5.4668Z" fill="#047BDC"></path><path d="M19.1338 5.4668H21.8671V8.20013H19.1338V5.4668Z" fill="#047BDC"></path><path d="M9.56686 35.5328H31.4335C31.796 35.5328 32.1436 35.3888 32.3999 35.1325C32.6562 34.8762 32.8002 34.5286 32.8002 34.1661V20.4995C32.8002 20.137 32.6562 19.7894 32.3999 19.5331C32.1436 19.2768 31.796 19.1328 31.4335 19.1328H9.56686C9.2044 19.1328 8.85678 19.2768 8.60048 19.5331C8.34418 19.7894 8.2002 20.137 8.2002 20.4995V34.1661C8.2002 34.5286 8.34418 34.8762 8.60048 35.1325C8.85678 35.3888 9.2044 35.5328 9.56686 35.5328ZM10.9335 21.8661H30.0669V32.7995H10.9335V21.8661Z" fill="#047BDC"></path><path d="M43.7334 20.5H65.6001V23.2333H43.7334V20.5Z" fill="#047BDC"></path><path d="M38.2666 25.9668H62.8666V28.7001H38.2666V25.9668Z" fill="#047BDC"></path><path d="M38.2666 31.4336H57.3999V34.1669H38.2666V31.4336Z" fill="#047BDC"></path><path d="M13.666 41H49.1993V43.7333H13.666V41Z" fill="#047BDC"></path><path d="M8.2002 46.4668H43.7335V49.2001H8.2002V46.4668Z" fill="#047BDC"></path><path d="M8.2002 51.9336H38.2669V54.6669H8.2002V51.9336Z" fill="#047BDC"></path><path d="M8.2002 57.4004H38.2669V60.1337H8.2002V57.4004Z" fill="#047BDC"></path><path d="M8.2002 62.8672H38.2669V65.6005H8.2002V62.8672Z" fill="#047BDC"></path><path d="M8.2002 41H10.9335V43.7333H8.2002V41Z" fill="#047BDC"></path><path d="M75.1667 8.2H73.8V6.83333C73.8 5.02102 73.0801 3.28294 71.7986 2.00144C70.5171 0.719938 68.779 0 66.9667 0H6.83333C5.02102 0 3.28294 0.719938 2.00144 2.00144C0.719938 3.28294 0 5.02102 0 6.83333V66.9667C0 68.779 0.719938 70.5171 2.00144 71.7986C3.28294 73.0801 5.02102 73.8 6.83333 73.8H8.2V75.1667C8.2 76.979 8.91994 78.7171 10.2014 79.9986C11.4829 81.2801 13.221 82 15.0333 82H75.1667C76.979 82 78.7171 81.2801 79.9986 79.9986C81.2801 78.7171 82 76.979 82 75.1667V15.0333C82 13.221 81.2801 11.4829 79.9986 10.2014C78.7171 8.91994 76.979 8.2 75.1667 8.2ZM72.7203 29.438L78.5287 35.2463L74.661 39.114L68.8527 33.3057L72.7203 29.438ZM48.011 56.9217L49.0907 54.12L53.8467 58.876L51.045 59.9557L48.011 56.9217ZM48.257 61.0217L46.1113 61.8553L46.945 59.7097L48.257 61.0217ZM52.4253 53.6007L50.4983 51.6737L66.9257 35.2463L68.8527 37.1733L52.4253 53.6007ZM70.7933 39.114L72.7203 41.041L56.293 57.4683L54.366 55.5413L70.7933 39.114ZM2.73333 6.83333C2.73658 5.74694 3.16958 4.70598 3.93778 3.93778C4.70598 3.16958 5.74694 2.73658 6.83333 2.73333H66.9667C68.0531 2.73658 69.094 3.16958 69.8622 3.93778C70.6304 4.70598 71.0634 5.74694 71.0667 6.83333V10.9333H2.73333V6.83333ZM6.83333 71.0667C5.74694 71.0634 4.70598 70.6304 3.93778 69.8622C3.16958 69.094 2.73658 68.0531 2.73333 66.9667V13.6667H71.0667V27.2377L47.601 50.7033C47.4641 50.8392 47.357 51.0021 47.2867 51.1817L42.4623 63.7413C42.3631 63.9876 42.3387 64.2577 42.3922 64.5178C42.4457 64.7779 42.5746 65.0165 42.763 65.2037C43.0215 65.4586 43.3703 65.6011 43.7333 65.6C43.9021 65.6014 44.0694 65.5688 44.2253 65.5043L56.785 60.68C56.9646 60.6097 57.1275 60.5026 57.2633 60.3657L71.0667 46.5623V66.9667C71.0634 68.0531 70.6304 69.094 69.8622 69.8622C69.094 70.6304 68.0531 71.0634 66.9667 71.0667H6.83333ZM79.2667 75.1667C79.2634 76.2531 78.8304 77.294 78.0622 78.0622C77.294 78.8304 76.2531 79.2634 75.1667 79.2667H15.0333C13.9469 79.2634 12.906 78.8304 12.1378 78.0622C11.3696 77.294 10.9366 76.2531 10.9333 75.1667V73.8H66.9667C68.779 73.8 70.5171 73.0801 71.7986 71.7986C73.0801 70.5171 73.8 68.779 73.8 66.9667V43.829L79.2667 38.3623V75.1667ZM79.2667 32.1167L73.8 26.65V21.8667H79.2667V32.1167ZM79.2667 19.1333H73.8V10.9333H75.1667C76.2531 10.9366 77.294 11.3696 78.0622 12.1378C78.8304 12.906 79.2634 13.9469 79.2667 15.0333V19.1333Z" fill="#047BDC"></path><path d="M38.2666 20.5H40.9999V23.2333H38.2666V20.5Z" fill="#047BDC"></path></svg>