<svg xmlns="http://www.w3.org/2000/svg" width="83" height="82" viewBox="0 0 83 82" fill="none"><path d="M39.7138 60.8392H42.359C43.0891 60.8392 43.6816 61.433 43.6816 62.1617H46.3267C46.3267 59.9742 44.5465 58.194 42.359 58.194V55.5488H39.7138V58.194C37.5263 58.194 35.7461 59.9742 35.7461 62.1617C35.7461 64.3493 37.5263 66.1295 39.7138 66.1295H42.359C43.0891 66.1295 43.6816 66.7233 43.6816 67.4521C43.6816 68.1808 43.0891 68.7746 42.359 68.7746H39.7138C38.9838 68.7746 38.3913 68.1808 38.3913 67.4521H35.7461C35.7461 69.6396 37.5263 71.4198 39.7138 71.4198V74.065H42.359V71.4198C44.5465 71.4198 46.3267 69.6396 46.3267 67.4521C46.3267 65.2645 44.5465 63.4843 42.359 63.4843H39.7138C38.9838 63.4843 38.3913 62.8905 38.3913 62.1617C38.3913 61.433 38.9851 60.8392 39.7138 60.8392Z" fill="#0369CA"></path><path d="M55.4322 60.2846C55.0328 60.1536 54.722 59.8666 54.5765 59.4936C54.509 59.3204 54.4389 59.1498 54.3649 58.9792C54.2088 58.6194 54.2273 58.1975 54.4151 57.8246C55.21 56.2533 54.9071 54.3607 53.6626 53.1135L52.7302 52.1824C52.295 51.7473 51.7779 51.4352 51.2251 51.2355L51.4737 48.999C52.3784 40.8506 55.4163 33.0738 60.2424 26.4516H63.5224V18.5161H60.8773V10.5806H52.9418V18.5161H50.2966V2.64516H42.3611V18.5161H39.716V0H31.7805V18.5161H29.1353V5.29032H21.1998V18.5161H18.5547V26.4516H21.8347C26.6595 33.0738 29.6988 40.8505 30.6047 49.0003L30.8534 51.2355C30.3005 51.4338 29.7847 51.746 29.3483 52.1811L28.4145 53.1135C27.1713 54.3594 26.8684 56.252 27.6633 57.8219C27.8524 58.1962 27.8696 58.6168 27.7122 58.9792C27.6395 59.1485 27.5694 59.3191 27.5006 59.495C27.3565 59.8653 27.0443 60.1523 26.6436 60.2832C24.9705 60.8334 23.8477 62.3848 23.8477 64.1465V65.4638C23.8477 67.2241 24.9732 68.7768 26.6462 69.327C27.0457 69.458 27.3565 69.745 27.5019 70.1179C27.5694 70.2912 27.6395 70.4618 27.7136 70.6324C27.8696 70.9922 27.8511 71.4141 27.6633 71.787C26.8684 73.3583 27.1713 75.2509 28.4158 76.4967L29.3483 77.4278C30.5928 78.6724 32.4841 78.9766 34.058 78.1817C34.4309 77.9926 34.8528 77.9767 35.2139 78.1315C35.3845 78.2055 35.5578 78.2769 35.731 78.3444C36.1 78.4872 36.387 78.8007 36.5193 79.2001C37.0642 80.8758 38.6169 82 40.3786 82H41.6959C43.4576 82 45.0103 80.8745 45.5591 79.2014C45.6914 78.802 45.9771 78.4899 46.3448 78.347C46.5207 78.2796 46.6939 78.2082 46.8659 78.1328C47.2269 77.9754 47.6475 77.9952 48.0205 78.183C49.5917 78.9779 51.4843 78.6737 52.7302 77.4292L53.6626 76.4967C54.9071 75.2509 55.21 73.3583 54.4151 71.7884C54.226 71.4141 54.2088 70.9935 54.3662 70.6311C54.4389 70.4618 54.509 70.2912 54.5778 70.1153C54.722 69.745 55.0341 69.458 55.4348 69.327C57.1079 68.7768 58.2308 67.2255 58.2308 65.4638V64.1465C58.2308 62.3875 57.1066 60.8347 55.4322 60.2846ZM33.5091 51.205L33.2327 48.708C32.992 46.5495 32.6071 44.4175 32.0913 42.3213H49.9832C49.4674 44.4175 49.0825 46.5495 48.8418 48.708L48.5654 51.205C48.3802 51.2672 48.1977 51.3386 48.0191 51.4285C47.6462 51.619 47.2256 51.6362 46.8632 51.4788C46.6926 51.4047 46.5193 51.3333 46.3461 51.2659C45.9771 51.123 45.6901 50.8096 45.5578 50.4102C45.0103 48.7371 43.4576 47.6129 41.6959 47.6129H40.3786C38.6169 47.6129 37.0642 48.7384 36.5153 50.4115C36.3831 50.8109 36.0974 51.123 35.7297 51.2659C35.5538 51.3333 35.3806 51.4047 35.2086 51.4801C34.8462 51.6349 34.4257 51.6177 34.054 51.4299C33.8768 51.3386 33.6943 51.2672 33.5091 51.205ZM29.3906 34.3871H52.6865C51.9366 36.1131 51.278 37.8761 50.7278 39.6774H31.348C30.7991 37.8761 30.1392 36.1131 29.3906 34.3871ZM55.5856 13.2258H58.2308V18.5161H55.5856V13.2258ZM45.005 5.29032H47.6501V18.5161H45.005V5.29032ZM34.4243 2.64516H37.0695V18.5161H34.4243V2.64516ZM23.8437 7.93548H26.4888V18.5161H23.8437V7.93548ZM21.1985 21.1613H60.8759V23.8065H21.1985V21.1613ZM57.0167 26.4516C55.8739 28.1525 54.8463 29.9207 53.9258 31.7419H28.15C27.2282 29.9207 26.2018 28.1525 25.0591 26.4516H57.0167ZM55.5856 65.4651C55.5856 66.0801 55.1915 66.6224 54.6082 66.8155C53.4536 67.1937 52.5437 68.0481 52.1138 69.1551C52.057 69.2979 51.9988 69.4408 51.9379 69.581C51.4671 70.6642 51.5094 71.9034 52.053 72.9826C52.3307 73.5315 52.2249 74.1941 51.7911 74.6279L50.8587 75.5604C50.4236 75.9942 49.7636 76.1026 49.2134 75.8236C48.1355 75.28 46.8976 75.2376 45.8131 75.7085C45.6742 75.768 45.534 75.8262 45.3898 75.8831C44.2802 76.3142 43.4271 77.2242 43.0476 78.3788C42.8545 78.962 42.3122 79.3548 41.6959 79.3548H40.3786C39.7623 79.3548 39.2213 78.962 39.0282 78.3748C38.6487 77.2215 37.7943 76.3129 36.6833 75.8804C36.5418 75.8249 36.4016 75.768 36.264 75.7085C35.7641 75.4903 35.2311 75.3818 34.6941 75.3818C34.0686 75.3818 33.4417 75.5299 32.861 75.8222C32.3108 76.1 31.6509 75.9942 31.2157 75.5577L30.2833 74.6266C29.8495 74.1915 29.7437 73.5302 30.0215 72.98C30.565 71.9021 30.6074 70.6615 30.1378 69.5797C30.0757 69.4395 30.0175 69.2966 29.9619 69.1551C29.5308 68.0454 28.6195 67.1924 27.4662 66.8128C26.8817 66.621 26.4888 66.0788 26.4888 65.4625V64.1452C26.4888 63.5302 26.883 62.9879 27.4662 62.7948C28.6208 62.4165 29.5308 61.5622 29.9606 60.4552C30.0175 60.3123 30.0757 60.1695 30.1365 60.0293C30.6074 58.9461 30.565 57.7068 30.0215 56.6276C29.7437 56.0787 29.8495 55.4161 30.2833 54.9823L31.2157 54.0499C31.6509 53.6161 32.3108 53.5076 32.861 53.7867C33.9403 54.3316 35.1782 54.3739 36.2614 53.9018C36.4003 53.8423 36.5405 53.7841 36.6846 53.7272C37.7943 53.296 38.6473 52.3861 39.0269 51.2315C39.22 50.6509 39.7623 50.2581 40.3786 50.2581H41.6959C42.3122 50.2581 42.8531 50.6509 43.0462 51.2381C43.4258 52.3914 44.2802 53.3 45.3912 53.7325C45.5327 53.788 45.6729 53.8449 45.8104 53.9044C46.8923 54.3753 48.1355 54.3343 49.2121 53.7894C49.7623 53.5103 50.4223 53.6187 50.8574 54.0539L51.7885 54.9837C52.2236 55.4201 52.3294 56.0814 52.0517 56.6316C51.5081 57.7095 51.4658 58.9501 51.9353 60.0319C51.9975 60.1721 52.0557 60.315 52.1112 60.4565C52.5424 61.5661 53.4536 62.4192 54.6069 62.7988C55.1915 62.9905 55.5843 63.5328 55.5843 64.1491L55.5856 65.4651Z" fill="#0369CA"></path><path d="M82.0757 32.2538L64.4814 28.7344L67.9994 46.3287L71.2741 43.054C71.3958 44.1504 71.458 45.2322 71.458 46.2903C71.458 54.444 68.3063 62.0965 62.5835 67.8378L62.1973 68.2293V68.7768C62.1986 70.1893 62.7488 71.5172 63.7487 72.5158C64.7472 73.513 66.0751 74.0619 67.4849 74.0619H67.4889H68.0431L68.4319 73.6651C75.3979 66.5589 79.3921 56.5813 79.3921 46.2916C79.3921 42.9534 78.9385 39.5901 78.0418 36.2863L82.0757 32.2538ZM66.9718 71.3691C66.4613 71.2699 65.9931 71.0212 65.6175 70.6456C65.2366 70.2634 64.9853 69.7873 64.8874 69.2662C70.835 63.0765 74.1031 54.9426 74.1031 46.2916C74.1031 44.2588 73.8968 42.1493 73.4881 40.0213L73.0186 37.5705L69.6262 40.963L67.8539 32.1056L76.7099 33.8779L75.0713 35.5166L75.2908 36.2691C76.2576 39.5756 76.7483 42.9481 76.7483 46.2916C76.747 55.6806 73.1919 64.7826 66.9718 71.3691Z" fill="#0369CA"></path><path d="M14.5907 27.7754C14.5894 27.7754 14.5881 27.7754 14.5867 27.7754H14.0326L13.6437 28.1722C6.67771 35.281 2.68219 45.2586 2.68219 55.5483C2.68219 58.8865 3.13584 62.2498 4.03255 65.5536L0 69.5861L17.5943 73.1055L14.0762 55.5112L10.8015 58.7859C10.6798 57.6882 10.6177 56.6063 10.6177 55.5483C10.6177 47.3946 13.7694 39.7421 19.4922 34.0008L19.8784 33.6093V33.0617C19.8771 31.6492 19.3269 30.3214 18.327 29.3228C17.3298 28.3256 16.0019 27.7754 14.5907 27.7754ZM7.97252 55.5483C7.97252 57.5824 8.17884 59.6906 8.58752 61.8186L9.05703 64.268L12.4495 60.8769L14.2217 69.7343L5.36439 67.9633L7.00306 66.3246L6.78484 65.5708C5.81803 62.2643 5.32735 58.8917 5.32735 55.5483C5.32735 46.1593 8.88245 37.0573 15.1039 30.4708C15.6144 30.57 16.0826 30.8187 16.4582 31.1943C16.8391 31.5765 17.0904 32.0526 17.1883 32.5737C11.2406 38.7634 7.97252 46.8973 7.97252 55.5483Z" fill="#0369CA"></path></svg>