<svg xmlns="http://www.w3.org/2000/svg" width="65" height="65" viewBox="0 0 65 65" fill="none"><path d="M63.6003 15.5294H61.1422C61.6167 13.6954 61.665 11.777 61.2834 9.9214C60.9018 8.06579 60.1004 6.32218 58.9406 4.82421C57.7809 3.32625 56.2936 2.11368 54.5927 1.27946C52.8918 0.445245 51.0225 0.0115132 49.1281 0.0115132C47.2336 0.0115132 45.3643 0.445245 43.6635 1.27946C41.9626 2.11368 40.4753 3.32625 39.3155 4.82421C38.1558 6.32218 37.3544 8.06579 36.9728 9.9214C36.5912 11.777 36.6395 13.6954 37.114 15.5294H24.7312L11.0216 1.81982C10.451 1.24464 9.77251 0.787794 9.02496 0.475504C8.2774 0.163213 7.47554 0.00162437 6.66537 1.2184e-05C5.85521 -0.0016 5.05271 0.156796 4.30392 0.466109C3.55513 0.775422 2.87479 1.22956 2.30195 1.80247C1.72911 2.37537 1.27505 3.05577 0.96583 3.80459C0.656606 4.55342 0.498305 5.35595 0.500014 6.16611C0.501722 6.97627 0.663406 7.77812 0.975785 8.52563C1.28817 9.27315 1.74509 9.95162 2.32034 10.5221L2.7764 10.9771C1.33074 12.5882 0.527016 14.6741 0.517834 16.8386V55.8609C0.516746 56.9476 0.729994 58.0239 1.14537 59.0281C1.56075 60.0324 2.1701 60.9448 2.93855 61.7133C3.70699 62.4817 4.61945 63.0911 5.62368 63.5064C6.62791 63.9218 7.7042 64.1351 8.79095 64.134H63.6003C63.8746 64.134 64.1377 64.025 64.3316 63.8311C64.5255 63.6371 64.6345 63.3741 64.6345 63.0998V16.5635C64.6345 16.2893 64.5255 16.0262 64.3316 15.8323C64.1377 15.6384 63.8746 15.5294 63.6003 15.5294ZM38.8503 11.2026C39.1555 8.57857 40.4533 6.17085 42.4774 4.47339C44.5016 2.77594 47.0986 1.91746 49.7356 2.0741C52.3727 2.23074 54.8498 3.39061 56.6588 5.31575C58.4677 7.24088 59.4714 9.78531 59.4638 12.427C59.472 14.7365 58.6974 16.9806 57.2662 18.7932C55.4288 21.1071 54.3862 23.9517 54.2931 26.9049H52.2248V20.7001H53.2589C53.8726 20.7001 54.4724 20.5182 54.9826 20.1773C55.4928 19.8364 55.8904 19.3518 56.1252 18.7849C56.36 18.218 56.4215 17.5942 56.3018 16.9924C56.182 16.3906 55.8866 15.8378 55.4527 15.4039C55.0188 14.9701 54.466 14.6746 53.8642 14.5549C53.2624 14.4352 52.6386 14.4966 52.0717 14.7314C51.5048 14.9662 51.0203 15.3639 50.6794 15.8741C50.3385 16.3843 50.1565 16.9841 50.1565 17.5977V18.6318H48.0883V17.5977C48.0883 16.9841 47.9063 16.3843 47.5654 15.8741C47.2245 15.3639 46.74 14.9662 46.1731 14.7314C45.6062 14.4966 44.9824 14.4352 44.3806 14.5549C43.7788 14.6746 43.226 14.9701 42.7921 15.4039C42.3582 15.8378 42.0627 16.3906 41.943 16.9924C41.8233 17.5942 41.8848 18.218 42.1196 18.7849C42.3544 19.3518 42.752 19.8364 43.2622 20.1773C43.7724 20.5182 44.3722 20.7001 44.9858 20.7001H46.02V26.9049H43.9517C43.8461 23.9216 42.7842 21.0513 40.9227 18.7177C39.277 16.5794 38.5332 13.8821 38.8503 11.2026ZM51.1907 33.1098C51.1907 33.6583 50.9728 34.1844 50.5849 34.5723C50.197 34.9602 49.6709 35.1781 49.1224 35.1781C48.5738 35.1781 48.0478 34.9602 47.6599 34.5723C47.272 34.1844 47.0541 33.6583 47.0541 33.1098H51.1907ZM44.9858 31.0415C44.7116 31.0415 44.4485 30.9326 44.2546 30.7386C44.0606 30.5447 43.9517 30.2816 43.9517 30.0074V28.9732H54.2931V30.0074C54.2931 30.2816 54.1841 30.5447 53.9902 30.7386C53.7963 30.9326 53.5332 31.0415 53.2589 31.0415H44.9858ZM46.02 18.6318H44.9858C44.7813 18.6318 44.5814 18.5712 44.4113 18.4575C44.2412 18.3439 44.1087 18.1824 44.0304 17.9934C43.9521 17.8045 43.9317 17.5965 43.9716 17.3959C44.0115 17.1953 44.11 17.0111 44.2546 16.8664C44.3992 16.7218 44.5835 16.6233 44.7841 16.5834C44.9847 16.5435 45.1926 16.564 45.3816 16.6423C45.5705 16.7205 45.7321 16.8531 45.8457 17.0232C45.9593 17.1932 46.02 17.3932 46.02 17.5977V18.6318ZM50.1565 26.9049H48.0883V20.7001H50.1565V26.9049ZM52.2248 18.6318V17.5977C52.2248 17.3932 52.2855 17.1932 52.3991 17.0232C52.5127 16.8531 52.6742 16.7205 52.8632 16.6423C53.0522 16.564 53.2601 16.5435 53.4607 16.5834C53.6613 16.6233 53.8456 16.7218 53.9902 16.8664C54.1348 17.0111 54.2333 17.1953 54.2732 17.3959C54.3131 17.5965 54.2926 17.8045 54.2144 17.9934C54.1361 18.1824 54.0035 18.3439 53.8335 18.4575C53.6634 18.5712 53.4635 18.6318 53.2589 18.6318H52.2248ZM31.0343 30.5327L28.1676 29.6733L30.1739 27.6671L31.0343 30.5327ZM25.9173 28.998L23.2689 28.2038V25.8708H25.3372C25.6115 25.8708 25.8745 25.7619 26.0684 25.5679C26.2624 25.374 26.3713 25.1109 26.3713 24.8367V22.7684H28.7043L29.4986 25.4179L25.9173 28.998ZM10.2532 15.5294L12.4104 13.3722L22.8408 23.8025H22.2348C21.9605 23.8025 21.6975 23.9115 21.5035 24.1054C21.3096 24.2994 21.2006 24.5624 21.2006 24.8367V26.4758L10.2532 15.5294ZM8.79095 14.0671L7.15081 12.427L12.9275 6.65029L14.5677 8.29043L8.79095 14.0671ZM25.3372 20.7001C25.0629 20.7001 24.7999 20.8091 24.6059 21.003C24.412 21.1969 24.303 21.46 24.303 21.7342V22.3403L13.8727 11.9099L16.0299 9.75271L26.9773 20.7001H25.3372ZM6.67096 2.08559C7.20761 2.08414 7.7392 2.18914 8.23499 2.39452C8.73078 2.5999 9.18091 2.90158 9.55932 3.28209L11.4652 5.18801L5.68853 10.9637L3.78261 9.05776C3.21122 8.48663 2.82206 7.75884 2.66437 6.96649C2.50669 6.17413 2.58757 5.35281 2.89677 4.60642C3.20597 3.86004 3.72961 3.22214 4.40143 2.77342C5.07325 2.3247 5.86307 2.08533 6.67096 2.08559ZM4.24074 12.4415L14.9958 23.1965V50.3882C14.8696 50.2455 14.7376 50.1076 14.5997 49.9745C13.8225 49.1997 12.8974 48.5891 11.8794 48.179C10.8614 47.769 9.77138 47.5679 8.67409 47.5877C7.51685 47.6095 6.37705 47.8739 5.32838 48.3638C4.2797 48.8536 3.34548 49.5581 2.58611 50.4316V16.8386C2.59192 15.2218 3.17922 13.661 4.24074 12.4415ZM62.5662 62.0657H8.79095C7.96867 62.0658 7.15457 61.9024 6.39598 61.5851C5.63739 61.2678 4.94943 60.8029 4.3721 60.2174C3.79476 59.6319 3.33956 58.9374 3.03296 58.1744C2.72636 57.4115 2.57446 56.5951 2.58611 55.773C2.63782 54.1672 3.29874 52.6414 4.43465 51.5053C5.57056 50.3692 7.0963 49.708 8.70201 49.656H8.79095C10.4366 49.656 12.0148 50.3097 13.1784 51.4734C14.3421 52.637 14.9958 54.2152 14.9958 55.8609C14.9958 56.1351 15.1047 56.3982 15.2987 56.5921C15.4926 56.786 15.7557 56.895 16.0299 56.895C16.3042 56.895 16.5672 56.786 16.7612 56.5921C16.9551 56.3982 17.0641 56.1351 17.0641 55.8609V25.2648L21.5036 29.7044C21.6247 29.8255 21.7739 29.9147 21.938 29.9639L32.2794 33.0663C32.3757 33.095 32.4757 33.1096 32.5762 33.1098C32.7374 33.1098 32.8963 33.0721 33.0404 32.9998C33.1844 32.9274 33.3095 32.8224 33.4058 32.6931C33.502 32.5638 33.5667 32.4138 33.5947 32.2551C33.6227 32.0963 33.6131 31.9333 33.5669 31.7788L30.4644 21.4374C30.4152 21.2734 30.326 21.1242 30.2049 21.0031L26.7995 17.5977H37.8503C38.2352 18.4414 38.7135 19.2392 39.2763 19.9762C40.9232 22.0242 41.8405 24.5627 41.8834 27.1904V30.0074C41.8834 30.8302 42.2103 31.6193 42.7921 32.2011C43.3739 32.7829 44.163 33.1098 44.9858 33.1098C44.9858 34.2069 45.4216 35.259 46.1974 36.0348C46.9732 36.8105 48.0253 37.2463 49.1224 37.2463C50.2195 37.2463 51.2716 36.8105 52.0474 36.0348C52.8231 35.259 53.2589 34.2069 53.2589 33.1098C54.0818 33.1098 54.8709 32.7829 55.4527 32.2011C56.0345 31.6193 56.3614 30.8302 56.3614 30.0074V27.1852C56.3901 24.5975 57.2814 22.0933 58.894 20.0693C59.4908 19.3069 59.9964 18.4774 60.4007 17.5977H62.5662V62.0657Z" fill="#048DEF"></path><path d="M40.706 52.3641C40.9873 51.8278 41.2202 51.2675 41.402 50.6898H42.918C43.1923 50.6898 43.4553 50.5809 43.6493 50.3869C43.8432 50.193 43.9522 49.93 43.9522 49.6557V45.5191C43.9522 45.2449 43.8432 44.9818 43.6493 44.7879C43.4553 44.5939 43.1923 44.485 42.918 44.485H41.402C41.2202 43.9073 40.9873 43.347 40.706 42.8107L41.7805 41.7373C41.9743 41.5434 42.0833 41.2804 42.0833 41.0061C42.0833 40.7319 41.9743 40.4689 41.7805 40.275L38.8549 37.3494C38.661 37.1556 38.398 37.0466 38.1238 37.0466C37.8495 37.0466 37.5865 37.1556 37.3926 37.3494L36.3192 38.4218C35.7827 38.1415 35.2224 37.9093 34.6449 37.7279V36.2119C34.6449 35.9376 34.536 35.6746 34.342 35.4806C34.1481 35.2867 33.885 35.1777 33.6108 35.1777H29.4742C29.1999 35.1777 28.9369 35.2867 28.743 35.4806C28.549 35.6746 28.4401 35.9376 28.4401 36.2119V37.7279C27.8625 37.9096 27.3022 38.1422 26.7658 38.4229L25.6924 37.3494C25.4948 37.1626 25.2332 37.0585 24.9612 37.0585C24.6893 37.0585 24.4277 37.1626 24.2301 37.3494L21.3045 40.275C21.1106 40.4689 21.0017 40.7319 21.0017 41.0061C21.0017 41.2804 21.1106 41.5434 21.3045 41.7373L22.3779 42.8107C22.097 43.3471 21.8645 43.9074 21.683 44.485H20.167C19.8927 44.485 19.6296 44.5939 19.4357 44.7879C19.2418 44.9818 19.1328 45.2449 19.1328 45.5191V49.6557C19.1328 49.93 19.2418 50.193 19.4357 50.3869C19.6296 50.5809 19.8927 50.6898 20.167 50.6898H21.683C21.8648 51.2675 22.0977 51.8278 22.379 52.3641L21.3045 53.4375C21.1106 53.6315 21.0017 53.8945 21.0017 54.1687C21.0017 54.4429 21.1106 54.7059 21.3045 54.8998L24.2301 57.8254C24.424 58.0193 24.687 58.1282 24.9612 58.1282C25.2354 58.1282 25.4984 58.0193 25.6924 57.8254L26.7658 56.752C27.3021 57.0329 27.8624 57.2654 28.4401 57.4469V58.9629C28.4401 59.2372 28.549 59.5003 28.743 59.6942C28.9369 59.8881 29.1999 59.9971 29.4742 59.9971H33.6108C33.885 59.9971 34.1481 59.8881 34.342 59.6942C34.536 59.5003 34.6449 59.2372 34.6449 58.9629V57.4469C35.2226 57.2651 35.7829 57.0322 36.3192 56.7509L37.3926 57.8254C37.5902 58.0122 37.8518 58.1163 38.1238 58.1163C38.3957 58.1163 38.6573 58.0122 38.8549 57.8254L41.7805 54.8998C41.9743 54.7059 42.0833 54.4429 42.0833 54.1687C42.0833 53.8945 41.9743 53.6315 41.7805 53.4375L40.706 52.3641ZM39.6088 49.4261C39.4017 50.3324 39.0426 51.1972 38.5467 51.9835C38.4214 52.1819 38.3672 52.417 38.3932 52.6502C38.4191 52.8835 38.5236 53.1009 38.6894 53.2669L39.5912 54.1687L38.1289 55.6309L37.2272 54.7292C37.0614 54.5634 36.8442 54.4589 36.6112 54.4328C36.3782 54.4067 36.1432 54.4605 35.9448 54.5854C35.1585 55.0822 34.2933 55.4413 33.3864 55.6475C33.1578 55.6995 32.9538 55.8276 32.8076 56.0108C32.6614 56.194 32.5818 56.4214 32.5818 56.6558V57.9288H30.5083V56.6558C30.5083 56.4214 30.4287 56.194 30.2825 56.0108C30.1364 55.8276 29.9323 55.6995 29.7038 55.6475C28.7968 55.4413 27.9316 55.0822 27.1453 54.5854C26.9469 54.4605 26.712 54.4067 26.479 54.4328C26.246 54.4589 26.0288 54.5634 25.863 54.7292L24.9612 55.6309L23.499 54.1687L24.4007 53.2669C24.5666 53.1009 24.6711 52.8835 24.697 52.6502C24.7229 52.417 24.6688 52.1819 24.5434 51.9835C24.0475 51.1972 23.6884 50.3324 23.4814 49.4261C23.4293 49.1976 23.3012 48.9935 23.118 48.8474C22.9349 48.7012 22.7074 48.6216 22.4731 48.6215H21.2011V46.5533H22.4731C22.7074 46.5533 22.9349 46.4736 23.118 46.3275C23.3012 46.1813 23.4293 45.9772 23.4814 45.7487C23.6884 44.8424 24.0475 43.9777 24.5434 43.1913C24.6688 42.9929 24.7229 42.7578 24.697 42.5246C24.6711 42.2914 24.5666 42.0739 24.4007 41.9079L23.499 41.0061L24.9612 39.5439L25.863 40.4456C26.0288 40.6114 26.246 40.7159 26.479 40.742C26.712 40.7682 26.9469 40.7143 27.1453 40.5894C27.9316 40.0925 28.7968 39.7334 29.7038 39.5273C29.9325 39.4753 30.1367 39.347 30.2829 39.1636C30.4291 38.9802 30.5086 38.7525 30.5083 38.518V37.246H32.5766V38.518C32.5764 38.7525 32.6559 38.9802 32.8021 39.1636C32.9483 39.347 33.1525 39.4753 33.3812 39.5273C34.2882 39.7334 35.1534 40.0925 35.9396 40.5894C36.138 40.7143 36.373 40.7682 36.606 40.742C36.839 40.7159 37.0562 40.6114 37.222 40.4456L38.1238 39.5439L39.586 41.0061L38.6843 41.9079C38.5184 42.0739 38.4139 42.2914 38.388 42.5246C38.362 42.7578 38.4162 42.9929 38.5415 43.1913C39.0393 43.9773 39.4001 44.842 39.6088 45.7487C39.6606 45.9764 39.7879 46.1798 39.9701 46.3259C40.1522 46.4719 40.3784 46.5521 40.6119 46.5533H41.8839V48.6215H40.6119C40.3784 48.6227 40.1522 48.7029 39.9701 48.849C39.7879 48.995 39.6606 49.1985 39.6088 49.4261Z" fill="#048DEF"></path><path d="M31.5408 41.3828C30.3136 41.3828 29.1139 41.7467 28.0936 42.4285C27.0732 43.1103 26.2779 44.0794 25.8083 45.2132C25.3386 46.3469 25.2157 47.5945 25.4552 48.7982C25.6946 50.0018 26.2855 51.1074 27.1533 51.9751C28.0211 52.8429 29.1267 53.4338 30.3303 53.6733C31.5339 53.9127 32.7815 53.7898 33.9153 53.3202C35.0491 52.8505 36.0181 52.0553 36.6999 51.0349C37.3817 50.0145 37.7456 48.8149 37.7456 47.5876C37.744 45.9425 37.0897 44.3653 35.9264 43.202C34.7632 42.0387 33.1859 41.3845 31.5408 41.3828ZM31.5408 51.7242C30.7226 51.7242 29.9229 51.4816 29.2426 51.0271C28.5624 50.5725 28.0322 49.9265 27.7191 49.1706C27.406 48.4148 27.3241 47.5831 27.4837 46.7806C27.6433 45.9782 28.0373 45.2412 28.6158 44.6627C29.1943 44.0842 29.9314 43.6902 30.7338 43.5306C31.5362 43.371 32.3679 43.4529 33.1238 43.766C33.8796 44.0791 34.5257 44.6092 34.9802 45.2895C35.4347 45.9698 35.6773 46.7695 35.6773 47.5876C35.6773 48.6847 35.2415 49.7369 34.4658 50.5126C33.69 51.2884 32.6379 51.7242 31.5408 51.7242Z" fill="#048DEF"></path><path d="M55.3259 12.4274H57.3942C57.3917 10.234 56.5193 8.13113 54.9684 6.58016C53.4174 5.02918 51.3145 4.15676 49.1211 4.1543V6.22258C50.7662 6.22422 52.3435 6.87847 53.5068 8.04174C54.67 9.20502 55.3243 10.7823 55.3259 12.4274Z" fill="#048DEF"></path><path d="M53.7764 44.4852C52.8165 44.4852 51.8959 44.1038 51.2171 43.425C50.5383 42.7462 50.1569 41.8256 50.1569 40.8657V39.3145H48.0887V40.8657C48.0903 42.3736 48.6901 43.8194 49.7564 44.8857C50.8227 45.952 52.2684 46.5518 53.7764 46.5534C55.0107 46.5534 56.1943 47.0437 57.067 47.9164C57.9398 48.7892 58.4301 49.9728 58.4301 51.2071C58.4301 52.4413 57.9398 53.6249 57.067 54.4977C56.1943 55.3704 55.0107 55.8607 53.7764 55.8607H42.918V57.929H53.7764C55.5592 57.929 57.2689 57.2208 58.5295 55.9602C59.7901 54.6996 60.4983 52.9898 60.4983 51.2071C60.4983 49.4243 59.7901 47.7146 58.5295 46.454C57.2689 45.1933 55.5592 44.4852 53.7764 44.4852Z" fill="#048DEF"></path></svg>