<svg xmlns="http://www.w3.org/2000/svg" width="58" height="57" viewBox="0 0 58 57" fill="none"><path d="M46.1539 20.4324C45.7572 20.3721 45.3556 20.4727 45.0326 20.7079C43.4602 21.8536 41.635 22.5295 39.7067 22.6916C39.8963 22.2291 40.0486 21.7488 40.1784 21.2588C45.4086 20.5757 49.4832 16.0677 49.4832 10.6797C49.4832 4.79075 44.6894 0 38.7975 0C34.4492 0 30.5591 2.66688 28.9338 6.61173C28.9228 6.61173 28.9125 6.60991 28.9021 6.60991C28.896 6.60991 28.8899 6.61112 28.8832 6.61112C27.253 2.66688 23.3581 0 19.0092 0C13.1202 0 8.32948 4.79075 8.32948 10.6797C8.32948 16.0659 12.4005 20.5738 17.6252 21.2582C17.7544 21.7482 17.9073 22.2284 18.0969 22.691C16.1698 22.5271 14.3409 21.8475 12.7631 20.6963C12.445 20.4641 12.0482 20.3648 11.6588 20.4172C4.57659 21.3838 -0.414661 27.2672 0.027178 34.1148V39.0567C0.027178 39.3383 0.105186 39.6143 0.252669 39.8545C1.35391 41.6462 3.96228 42.9924 8.00465 43.8657C8.00953 43.9968 8.01196 44.1272 8.0205 44.2588V49.7401C8.0205 50.0222 8.0985 50.2989 8.2472 50.539C10.9519 54.93 21.5828 56.08 29.2056 56.08C30.302 56.08 31.3374 56.0562 32.2765 56.0148C36.7857 55.8155 47.5142 54.8727 49.741 50.4214C49.8471 50.2099 49.9019 49.9765 49.9019 49.7395V44.2082C49.9019 44.1095 49.8903 44.0132 49.8885 43.9151C54.1478 43.0241 56.7885 41.623 57.7337 39.7393C57.8404 39.5272 57.8958 39.2932 57.8958 39.0561V34.0642C57.8958 27.288 52.8479 21.4277 46.1539 20.4324ZM20.275 18.2854C20.275 13.5282 24.1449 9.65768 28.9027 9.65768C33.6599 9.65768 37.5304 13.5282 37.5304 18.2854C37.5304 23.0426 33.6599 26.9132 28.9027 26.9132C24.1449 26.9132 20.275 23.0426 20.275 18.2854ZM38.7975 3.04777C43.0092 3.04777 46.4361 6.47156 46.4361 10.6803C46.4361 14.2571 43.921 17.2896 40.5672 18.0941C40.4813 12.845 36.9186 8.43577 32.0846 7.06271C33.3918 4.639 35.9575 3.04777 38.7975 3.04777ZM11.3772 10.6803C11.3772 6.47156 14.801 3.04777 19.0098 3.04777C21.8497 3.04777 24.4185 4.63778 25.7306 7.06028C20.8911 8.42967 17.3235 12.8414 17.2369 18.0934C13.8881 17.2872 11.3772 14.2558 11.3772 10.6803ZM46.8548 49.3122C45.6335 50.8998 40.3728 52.6081 32.1418 52.9707C22.4354 53.4021 13.2257 51.7457 11.067 49.2476V44.2095C11.067 44.1747 11.0658 44.1406 11.0634 44.1065C10.6752 38.3808 14.7462 33.4243 20.6114 32.3554C23.0704 33.9941 25.9226 34.8571 28.9015 34.8571C31.867 34.8571 34.7082 34.0015 37.1593 32.3761C42.7259 33.4877 46.8542 38.4735 46.8542 44.2095L46.8548 49.3122ZM54.8487 38.6149C54.274 39.3066 52.6182 40.2018 49.5113 40.8826C48.1486 34.9376 43.2433 30.184 37.0289 29.2613C36.6346 29.2016 36.2317 29.3015 35.9093 29.5361C33.8635 31.0238 31.4404 31.8099 28.9027 31.8099C26.3571 31.8099 23.9279 31.0195 21.8784 29.5234C21.5603 29.2912 21.166 29.1918 20.7741 29.2448C14.2398 30.1358 9.32773 34.8486 8.22526 40.7966C4.88192 40.0233 3.57103 39.0762 3.07495 38.5478V34.0642C3.07495 34.0295 3.07373 33.9948 3.07129 33.96C2.72392 28.8944 6.3153 24.5035 11.5016 23.529C13.7345 25.0032 16.3167 25.7796 19.0098 25.7796C19.3175 25.7796 19.6265 25.7686 19.9331 25.7473C22.0764 28.3191 25.3003 29.9603 28.9021 29.9603C32.5038 29.9603 35.7283 28.3191 37.8711 25.7473C38.1789 25.7686 38.4885 25.7796 38.7968 25.7796C41.4851 25.7796 44.0587 25.0105 46.2813 23.5485C51.2049 24.5614 54.8481 28.9822 54.8481 34.0642L54.8487 38.6149Z" fill="#0369CA"></path></svg>