<svg xmlns="http://www.w3.org/2000/svg" width="54" height="54" viewBox="0 0 54 54" fill="none"><path d="M44.6467 0.998791H38.207V5.86324C38.207 6.38711 38.6317 6.8118 39.1557 6.8118H39.2572C39.5138 6.8118 39.7558 6.70424 39.9379 6.52323C40.4156 6.04833 41.0738 5.75495 41.8006 5.75495C43.3589 5.75495 44.6022 7.10402 44.4262 8.69792C44.2935 9.89957 43.3338 10.8723 42.1338 11.019C41.2779 11.1237 40.4902 10.8186 39.9406 10.2737C39.7574 10.0921 39.5149 9.98254 39.2568 9.98254H39.1557C38.6317 9.98254 38.207 10.4072 38.207 10.9311V15.7955H43.0715C43.5954 15.7955 44.02 16.2202 44.02 16.7441V16.8452C44.02 17.1033 43.9105 17.3458 43.7289 17.5291C43.184 18.0787 42.8789 18.8664 42.9836 19.7223C43.1303 20.9222 44.103 21.8819 45.3047 22.0146C46.8986 22.1906 48.2476 20.9474 48.2476 19.389C48.2476 18.6622 47.9542 18.004 47.4793 17.5264C47.2983 17.3443 47.1908 17.1023 47.1908 16.8456V16.7441C47.1908 16.2202 47.6155 15.7955 48.1393 15.7955H53.0038V2.05574C53.0038 1.47192 52.5307 0.998791 51.9468 0.998791H48.3124" stroke="#047BDC" stroke-width="1.8" stroke-miterlimit="10" stroke-linecap="round" stroke-linejoin="round"></path><path d="M42.9849 42.13C42.8803 41.2741 43.1853 40.4865 43.7302 39.9369C43.9118 39.7536 44.0214 39.5111 44.0214 39.253V39.1519C44.0214 38.6279 43.5967 38.2032 43.0728 38.2032H38.2084V43.0677C38.2084 43.5916 37.7837 44.0163 37.2598 44.0163H37.1587C36.9006 44.0163 36.6581 43.9067 36.4748 43.7251C35.9252 43.1802 35.1375 42.8752 34.2816 42.9798C33.0817 43.1265 32.122 44.0992 31.9893 45.3009C31.8133 46.8949 33.0565 48.2439 34.6149 48.2439C35.3417 48.2439 35.9999 47.9505 36.4775 47.4756C36.6596 47.2946 36.9016 47.187 37.1583 47.187H38.2084V53H51.9482C52.532 53 53.0051 52.5269 53.0051 51.9432V38.2032H48.1407C47.6168 38.2032 47.1921 38.6279 47.1921 39.1519V39.2534C47.1921 39.51 47.2997 39.752 47.4807 39.9341C47.9556 40.4118 48.2491 41.07 48.2491 41.7968C48.2491 43.3551 46.8999 44.5984 45.306 44.4224C44.1043 44.2898 43.1316 43.33 42.9849 42.13Z" stroke="#047BDC" stroke-width="1.8" stroke-miterlimit="10" stroke-linecap="round" stroke-linejoin="round"></path><path d="M7.46452 53H15.7968V48.136C15.7968 47.6119 15.3719 47.187 14.8478 47.187H14.7467C14.49 47.187 14.248 47.2946 14.0659 47.4756C13.5883 47.9505 12.9301 48.2438 12.2033 48.2438C10.6449 48.2438 9.4016 46.8948 9.57769 45.3009C9.71036 44.0992 10.67 43.1266 11.87 42.9798C12.7259 42.8751 13.5135 43.1802 14.0632 43.7251C14.2465 43.9067 14.489 44.0163 14.747 44.0163H14.8478C15.3719 44.0163 15.7968 43.5914 15.7968 43.0673V38.2032H10.9324C10.4084 38.2032 9.98375 37.7786 9.98375 37.2547V37.1536C9.98375 36.8955 10.0933 36.653 10.275 36.4697C10.8198 35.9201 11.1249 35.1324 11.0202 34.2765C10.8735 33.0766 9.90078 32.1168 8.69913 31.9842C7.10523 31.8082 5.75616 33.0514 5.75616 34.6098C5.75616 35.3366 6.04964 35.9948 6.52455 36.4724C6.70545 36.6544 6.81301 36.8964 6.81301 37.1532V37.2547C6.81301 37.7786 6.38832 38.2032 5.86445 38.2032H1V51.9431C1 52.5269 1.47323 53 2.05695 53H3.80036" stroke="#047BDC" stroke-width="1.8" stroke-miterlimit="10" stroke-linecap="round" stroke-linejoin="round"></path><path d="M11.0202 11.8701C11.1248 12.7261 10.8198 13.5136 10.2749 14.0632C10.0933 14.2465 9.98375 14.489 9.98375 14.7471V14.8482C9.98375 15.3722 10.4084 15.7969 10.9323 15.7969H15.7968V10.9324C15.7968 10.4086 16.2214 9.98387 16.7453 9.98387H16.8464C17.1045 9.98387 17.347 10.0934 17.5303 10.275C18.0799 10.8199 18.8676 11.1249 19.7235 11.0203C20.9234 10.8736 21.8832 9.9009 22.0158 8.69925C22.1918 7.10525 20.9486 5.75618 19.3902 5.75618C18.6634 5.75618 18.0052 6.04966 17.5276 6.52457C17.3456 6.70557 17.1036 6.81313 16.8468 6.81313H16.7453C16.2214 6.81313 15.7968 6.38845 15.7968 5.86457V1.00012H2.05695C1.47313 1.00012 1 1.47325 1 2.05697V15.7969H5.86445C6.38832 15.7969 6.81301 15.3722 6.81301 14.8482V14.7467C6.81301 14.4901 6.70545 14.2481 6.52444 14.066C6.04954 13.5883 5.75606 12.9301 5.75606 12.2033C5.75606 10.645 7.10523 9.40172 8.69913 9.5777C9.90078 9.71037 10.8735 10.6701 11.0202 11.8701Z" stroke="#047BDC" stroke-width="1.8" stroke-miterlimit="10" stroke-linecap="round" stroke-linejoin="round"></path><path d="M25.1992 8.50195H25.827" stroke="#047BDC" stroke-width="1.8" stroke-linecap="round" stroke-linejoin="round"></path><path d="M29.3398 8.50195H32.6557" stroke="#047BDC" stroke-width="1.8" stroke-linecap="round" stroke-linejoin="round" stroke-dasharray="19.89 44.74"></path><path d="M34.4102 8.50391H35.0379" stroke="#047BDC" stroke-width="1.8" stroke-linecap="round" stroke-linejoin="round"></path><path d="M45.5 25.1984V25.8262" stroke="#047BDC" stroke-width="1.8" stroke-linecap="round" stroke-linejoin="round"></path><path d="M45.5 29.3365V32.6523" stroke="#047BDC" stroke-width="1.8" stroke-linecap="round" stroke-linejoin="round" stroke-dasharray="19.89 44.74"></path><path d="M45.5 34.4093V35.0371" stroke="#047BDC" stroke-width="1.8" stroke-linecap="round" stroke-linejoin="round"></path><path d="M28.7996 45.498H28.1719" stroke="#047BDC" stroke-width="1.8" stroke-linecap="round" stroke-linejoin="round"></path><path d="M24.6635 45.498H21.3477" stroke="#047BDC" stroke-width="1.8" stroke-linecap="round" stroke-linejoin="round" stroke-dasharray="19.89 44.74"></path><path d="M19.5887 45.498H18.9609" stroke="#047BDC" stroke-width="1.8" stroke-linecap="round" stroke-linejoin="round"></path><path d="M8.50781 28.8008V28.173" stroke="#047BDC" stroke-width="1.8" stroke-linecap="round" stroke-linejoin="round"></path><path d="M8.50781 24.6641V21.3482" stroke="#047BDC" stroke-width="1.8" stroke-linecap="round" stroke-linejoin="round" stroke-dasharray="19.89 44.74"></path><path d="M8.50781 19.5918V18.964" stroke="#047BDC" stroke-width="1.8" stroke-linecap="round" stroke-linejoin="round"></path><path d="M26.9968 29.0427C25.8688 29.0427 24.9545 28.1284 24.9545 27.0004C24.9545 25.8724 25.8688 24.9581 26.9968 24.9581C28.1248 24.9581 29.0391 25.8724 29.0391 27.0004C29.0391 28.1284 28.1248 29.0427 26.9968 29.0427ZM35.4938 27.0004C35.4938 26.6661 35.4745 26.3362 35.4369 26.012C35.3855 25.5686 35.5934 25.1355 35.9799 24.9123L37.6337 23.9576C38.1683 23.6489 38.3516 22.9651 38.0429 22.4304L36.4776 19.7193C36.1689 19.1845 35.485 19.0013 34.9504 19.3101L33.2958 20.2653C32.9082 20.4891 32.4277 20.4523 32.0688 20.1847C31.5452 19.7947 30.9752 19.4636 30.3684 19.2011C29.9541 19.0219 29.6801 18.6206 29.6801 18.1691V16.2673C29.6801 15.6498 29.1796 15.1492 28.562 15.1492H25.4316C24.8141 15.1492 24.3135 15.6498 24.3135 16.2673V18.1691C24.3135 18.6206 24.0395 19.0219 23.6252 19.2011C23.0185 19.4636 22.4484 19.7947 21.9248 20.1847C21.5659 20.4523 21.0855 20.4891 20.6978 20.2653L19.0432 19.3101C18.5086 19.0013 17.8247 19.1845 17.516 19.7193L15.9508 22.4304C15.642 22.9651 15.8253 23.6489 16.3599 23.9576L18.0137 24.9123C18.4002 25.1355 18.6081 25.5686 18.5567 26.012C18.5191 26.3362 18.4998 26.6661 18.4998 27.0004C18.4998 27.3347 18.5191 27.6646 18.5567 27.9888C18.6081 28.4322 18.4002 28.8653 18.0137 29.0884L16.3599 30.0432C15.8253 30.3519 15.642 31.0357 15.9508 31.5704L17.516 34.2815C17.8247 34.8163 18.5086 34.9995 19.0432 34.6907L20.6978 33.7355C21.0855 33.5117 21.5659 33.5485 21.9248 33.816C22.4484 34.2061 23.0185 34.5371 23.6252 34.7996C24.0395 34.9789 24.3135 35.3802 24.3135 35.8317V37.7335C24.3135 38.351 24.8141 38.8516 25.4316 38.8516H28.562C29.1796 38.8516 29.6801 38.351 29.6801 37.7335V35.8317C29.6801 35.3802 29.9541 34.9789 30.3684 34.7996C30.9752 34.5371 31.5452 34.2061 32.0688 33.816C32.4277 33.5485 32.9082 33.5117 33.2958 33.7355L34.9504 34.6907C35.485 34.9995 36.1689 34.8163 36.4776 34.2815L38.0429 31.5704C38.3516 31.0357 38.1683 30.3519 37.6337 30.0432L35.9799 29.0884C35.5934 28.8653 35.3855 28.4322 35.4369 27.9888C35.4745 27.6646 35.4938 27.3347 35.4938 27.0004Z" stroke="#047BDC" stroke-width="1.8" stroke-miterlimit="10" stroke-linecap="round" stroke-linejoin="round"></path><path d="M26.9994 32.2852C24.0808 32.2852 21.7148 29.9192 21.7148 27.0006C21.7148 24.082 24.0808 21.716 26.9994 21.716C29.918 21.716 32.2839 24.082 32.2839 27.0006C32.2839 29.9192 29.918 32.2852 26.9994 32.2852Z" stroke="#047BDC" stroke-width="1.8" stroke-miterlimit="10" stroke-linecap="round" stroke-linejoin="round"></path></svg>