<svg xmlns="http://www.w3.org/2000/svg" width="68" height="68" viewBox="0 0 68 68" fill="none"><path d="M16.0872 32.1466H7.90995C7.72493 32.1466 7.6271 32.0817 7.56882 32.013C7.50114 31.9332 7.45524 31.8084 7.45734 31.6614C7.45944 31.5143 7.50925 31.3835 7.58297 31.2976C7.64795 31.2218 7.74589 31.1619 7.90995 31.1619H16.0872C16.2722 31.1619 16.3701 31.2268 16.4283 31.2955C16.496 31.3752 16.5419 31.5001 16.5398 31.6471C16.5377 31.7941 16.4879 31.925 16.4142 32.0109C16.3492 32.0866 16.2513 32.1466 16.0872 32.1466Z" fill="black" stroke="#0369CA" stroke-width="1.00048"></path><path d="M7.91 36.1912H20.0578C20.2428 36.1912 20.3406 36.2561 20.3989 36.3248C20.4666 36.4045 20.5125 36.5294 20.5104 36.6764C20.5083 36.8234 20.4585 36.9543 20.3847 37.0402C20.3197 37.1159 20.2218 37.1759 20.0577 37.1759H7.91C7.72497 37.1759 7.62713 37.111 7.56884 37.0423C7.50115 36.9625 7.45525 36.8376 7.45734 36.6906C7.45943 36.5436 7.50924 36.4128 7.58295 36.3269C7.64794 36.2511 7.74589 36.1912 7.91 36.1912Z" fill="black" stroke="#0369CA" stroke-width="1.00048"></path><path d="M51.6756 31.1619H59.853C60.038 31.1619 60.1358 31.2268 60.194 31.2954C60.2617 31.3752 60.3076 31.5001 60.3055 31.6471C60.3034 31.7941 60.2536 31.925 60.1799 32.0109C60.1149 32.0866 60.017 32.1466 59.8529 32.1466H51.6756C51.4906 32.1466 51.3928 32.0817 51.3345 32.013C51.2668 31.9332 51.2209 31.8083 51.223 31.6613C51.2251 31.5143 51.2749 31.3835 51.3486 31.2976C51.4136 31.2218 51.5115 31.1619 51.6756 31.1619Z" fill="black" stroke="#0369CA" stroke-width="1.00048"></path><path d="M47.703 36.1912H59.8508C60.0357 36.1912 60.1335 36.2561 60.1918 36.3247C60.2595 36.4045 60.3054 36.5294 60.3033 36.6764C60.3012 36.8234 60.2514 36.9543 60.1777 37.0402C60.1127 37.1159 60.0147 37.1759 59.8506 37.1759H47.703C47.5179 37.1759 47.4201 37.111 47.3618 37.0423C47.2941 36.9625 47.2482 36.8376 47.2503 36.6906C47.2524 36.5436 47.3022 36.4128 47.3759 36.3269C47.4409 36.2511 47.5389 36.1912 47.703 36.1912Z" fill="black" stroke="#0369CA" stroke-width="1.00048"></path><path d="M49.4787 12.1657L49.4788 12.1657C50.1075 12.4108 50.5168 13.0458 50.478 13.7199C50.478 13.72 50.478 13.72 50.478 13.72L49.9785 13.6912L49.4787 12.1657ZM49.4787 12.1657C45.4482 10.5953 42.5525 7.17094 41.9544 2.88078L49.4787 12.1657ZM18.2836 12.1656C22.3127 10.5958 25.2295 7.17731 25.8075 2.88306C25.8075 2.88305 25.8075 2.88305 25.8075 2.88304L26.3033 2.94976L18.2836 12.1656ZM18.2836 12.1656C17.6545 12.4106 17.2454 13.0457 17.2844 13.7199L18.2836 12.1656ZM51.4633 13.6203L51.4646 14.1192H51.9635H63.0181C65.0549 14.1192 67.2289 15.8248 67.2289 18.33V51.2385C67.2289 53.5598 65.3395 55.4492 63.0181 55.4492H57.0418C56.8568 55.4492 56.7589 55.3842 56.7006 55.3156C56.633 55.2358 56.587 55.1109 56.5891 54.9639C56.5912 54.8169 56.641 54.686 56.7148 54.6001C56.7797 54.5244 56.8777 54.4644 57.0418 54.4644H63.0181C64.7974 54.4644 66.2442 53.0177 66.2442 51.2385V47.0084V46.5082H65.7439H1.98521H1.48497V47.0084V51.2385C1.48497 53.0177 2.93174 54.4643 4.71104 54.4643H51.4832C51.6682 54.4643 51.7661 54.5292 51.8244 54.5979C51.8921 54.6777 51.938 54.8026 51.9359 54.9495C51.9338 55.0965 51.884 55.2274 51.8103 55.3133C51.7453 55.3891 51.6473 55.449 51.4832 55.449H39.8697H39.3099L39.3726 56.0053L40.4718 65.7586L40.5218 66.2029H40.9688H44.9319C45.1169 66.2029 45.2147 66.2678 45.273 66.3365C45.3407 66.4162 45.3866 66.5411 45.3845 66.6881C45.3824 66.8351 45.3326 66.966 45.2589 67.0519C45.1939 67.1276 45.096 67.1876 44.9319 67.1876H22.7971C22.6121 67.1876 22.5143 67.1227 22.456 67.054C22.3883 66.9742 22.3424 66.8493 22.3445 66.7023C22.3466 66.5553 22.3964 66.4245 22.4701 66.3386C22.5351 66.2628 22.633 66.2029 22.7971 66.2029H26.7603H27.2073L27.2574 65.7586L28.3565 56.0053L28.4192 55.449H27.8594H4.71104C2.38958 55.449 0.500242 53.5598 0.500242 51.2384V18.33C0.500242 16.0086 2.38957 14.1193 4.71104 14.1192C4.71105 14.1192 4.71106 14.1192 4.71107 14.1192H15.7983H16.2973L16.2986 13.6203C16.3013 12.5726 16.9386 11.6325 17.9258 11.2479L17.9259 11.2479C20.1672 10.3746 24.1125 8.09188 24.8314 2.75141L24.8315 2.75134C25.0044 1.46524 26.1039 0.500242 27.3782 0.500242H40.3835C41.6577 0.500242 42.7572 1.4652 42.9302 2.75151L42.9302 2.75155C43.6492 8.09202 47.5945 10.3746 49.8358 11.2479L49.8359 11.2479C50.8231 11.6325 51.4605 12.5727 51.4633 13.6203ZM38.369 55.8932L38.319 55.449H37.8719H29.8572H29.4102L29.3601 55.8932L28.261 65.6466L28.1983 66.2029H28.7581H38.9711H39.5308L39.4682 65.6466L38.369 55.8932ZM16.4621 15.5431L16.4081 15.1039H15.9656H4.71104C2.93168 15.1039 1.48497 16.5508 1.48497 18.33V44.5228V45.023V45.0232L1.98521 45.023V45.5233H65.7442H66.2444V45.023V18.33C66.2444 17.3896 65.8101 16.5816 65.2054 16.0165C64.6054 15.4559 63.8056 15.1039 63.0184 15.1039H51.7966H51.3541L51.3001 15.5431C50.5145 21.9349 47.4771 28.0248 42.4177 33.2496C38.2594 37.5442 34.2671 39.7132 34.1222 39.7912C34.0493 39.8303 33.9691 39.8499 33.8891 39.8499C33.8089 39.8499 33.7288 39.8303 33.6559 39.7912L33.6557 39.7911C33.511 39.7134 29.5148 37.5443 25.3525 33.2499C20.2882 28.0249 17.2481 21.9349 16.4621 15.5431Z" fill="black" stroke="#0369CA" stroke-width="1.00048"></path><path d="M21.3957 15.1182L21.7036 14.9524C25.4369 12.9423 28.0716 9.73631 29.2306 5.81381L29.3366 5.45532H29.7104H38.0501H38.4239L38.5299 5.81381C39.6889 9.73633 42.323 12.9418 46.0557 14.952L46.364 15.1181L46.3136 15.4645C44.9265 24.9915 37.7735 31.2586 34.186 33.8555L33.8927 34.0678L33.5994 33.8555C32.2822 32.9022 30.5164 31.4828 28.7472 29.632C28.5593 29.4353 28.2477 29.4283 28.0512 29.6162L28.0511 29.6163C27.8546 29.8042 27.8475 30.1159 28.0354 30.3124C30.1319 32.5056 32.2259 34.1113 33.6122 35.071L33.6124 35.0712C33.6965 35.1294 33.7941 35.1586 33.8926 35.1586C33.9906 35.1586 34.0882 35.1296 34.1726 35.0713L21.3957 15.1182ZM21.3957 15.1182L21.4457 15.4644M21.3957 15.1182L21.4457 15.4644M21.4457 15.4644C21.9627 19.0429 23.3308 22.4698 25.5092 25.6596M21.4457 15.4644L25.5092 25.6596M39.2892 4.84654L39.2892 4.84646C39.2356 4.62585 39.0379 4.47046 38.8109 4.47046H28.9502C28.7231 4.47046 28.5255 4.62578 28.4719 4.84643L28.4718 4.84656C27.4517 9.03945 24.6671 12.4273 20.6518 14.3853C20.4645 14.4767 20.3549 14.6762 20.3784 14.8835C20.8292 18.8631 22.2788 22.6748 24.6958 26.2148C24.8491 26.4392 25.1552 26.4972 25.3801 26.3439L39.2892 4.84654ZM39.2892 4.84654C40.3092 9.03946 43.094 12.4273 47.1087 14.3852C47.2961 14.4767 47.4057 14.6764 47.3821 14.8837M39.2892 4.84654L47.3821 14.8837M47.3821 14.8837C46.1486 25.6959 37.7621 32.5903 34.1727 35.0712L47.3821 14.8837ZM25.5092 25.6596C25.6624 25.8841 25.6047 26.1904 25.3804 26.3438L25.5092 25.6596Z" fill="black" stroke="#0369CA" stroke-width="1.00048"></path><path d="M36.0088 19.9675L36.2293 19.8187C37.3735 19.0468 38.064 17.7669 38.064 16.3556C38.064 13.9722 35.9592 12.0187 33.5838 12.1816L36.0088 19.9675ZM36.0088 19.9675V20.2334M36.0088 19.9675V20.2334M36.0088 20.2334V24.1197C36.0088 25.2932 35.0534 26.2487 33.88 26.2487C32.7066 26.2487 31.7511 25.2932 31.751 24.1196C31.751 24.1195 31.751 24.1195 31.751 24.1195V20.2333V19.9673M36.0088 20.2334L31.751 19.9673M31.751 19.9673L31.5305 19.8186M31.751 19.9673L31.5305 19.8186M31.5305 19.8186C30.2759 18.9722 29.5732 17.5187 29.7132 15.9679L31.5305 19.8186ZM30.694 16.0566L30.694 16.0565C30.8337 14.5112 32.1028 13.271 33.6516 13.164L30.694 16.0566ZM30.694 16.0566C30.5741 17.3858 31.2682 18.632 32.462 19.2234L30.694 16.0566ZM29.7132 15.9679C29.8955 13.9521 31.5619 12.3214 33.5836 12.1817L29.7132 15.9679ZM37.0793 16.3555C37.0793 14.5135 35.4727 13.0377 33.6518 13.164L35.2979 19.2235C36.3951 18.68 37.0793 17.5792 37.0793 16.3555ZM35.0241 19.6647C35.0241 19.4776 35.1301 19.3066 35.2979 19.2235L32.4622 19.2235C32.6298 19.3067 32.7358 19.4776 32.7358 19.6647V24.1196C32.7358 24.4689 32.8765 24.7648 33.1107 24.9667C33.3346 25.1597 33.6165 25.2441 33.88 25.2441C34.1434 25.2441 34.4253 25.1597 34.6492 24.9667C34.8834 24.7648 35.0241 24.4689 35.0241 24.1196V19.6647Z" fill="black" stroke="#0369CA" stroke-width="1.00048"></path></svg>