<svg xmlns="http://www.w3.org/2000/svg" width="73" height="73" viewBox="0 0 73 73" fill="none"><path d="M71.5732 21.7868C72.3611 21.7868 72.9999 21.1487 72.9999 20.3614V6.52878C72.9999 2.92883 70.0683 0 66.465 0H6.53491C2.93154 0 0 2.92883 0 6.52878V50.837C0 54.4369 2.93154 57.3658 6.53491 57.3658H26.0631V62.0169H21.953C19.0113 62.0169 16.6183 64.4078 16.6183 67.3465V68.8162C16.6183 70.5728 18.0488 72.0018 19.8069 72.0018H53.189C54.9494 72.0018 56.3817 70.5728 56.3817 68.8162V67.3465C56.3817 64.4078 53.9887 62.0169 51.047 62.0169H46.9329V57.3658H66.4651C70.0685 57.3658 73 54.4369 73 50.837V33.1523C73 32.3652 72.3613 31.727 71.5734 31.727C70.7855 31.727 70.1467 32.365 70.1467 33.1523V42.685H65.1192V22.2792C65.1192 21.1015 64.16 20.1433 62.9812 20.1433H58.1316C56.9527 20.1433 55.9937 21.1014 55.9937 22.2792V42.6851H52.2876V26.2603C52.2876 25.0803 51.3286 24.1203 50.1498 24.1203H45.3C44.1211 24.1203 43.1622 25.0803 43.1622 26.2603V42.685H39.4561V32.3488C39.4561 31.1688 38.4972 30.2088 37.3183 30.2088H32.4687C31.2899 30.2088 30.3307 31.1688 30.3307 32.3488V42.685H2.85327V6.52878C2.85327 4.50061 4.50489 2.85056 6.53491 2.85056H66.465C68.4951 2.85056 70.1466 4.50061 70.1466 6.52878V20.3614C70.1466 21.1486 70.7853 21.7868 71.5732 21.7868ZM53.5284 67.3465V68.8162C53.5284 68.9978 53.3729 69.1513 53.189 69.1513H19.8069C19.6251 69.1513 19.4714 68.9978 19.4714 68.8162V67.3465C19.4714 65.9796 20.5847 64.8675 21.9529 64.8675H27.4896H45.5061H51.0469C52.4152 64.8675 53.5284 65.9796 53.5284 67.3465ZM44.0797 62.0169H28.9162V57.3658H44.0795L44.0797 62.0169ZM58.8469 22.994H62.2659V42.6851H58.8469V22.994ZM46.0154 26.9709H49.4345V42.685H46.0154V26.9709ZM33.184 33.0595H36.603V42.6851H33.184V33.0595ZM70.1466 45.5357V50.837C70.1466 52.8652 68.495 54.5152 66.465 54.5152H45.5061H27.4896H6.53491C4.50475 54.5152 2.85327 52.8652 2.85327 50.837V45.5357H70.1466Z" fill="#048DEF"></path><path d="M42.8876 51.4523H42.9159C43.7038 51.4523 44.3426 50.8142 44.3426 50.0269C44.3426 49.2396 43.7038 48.6016 42.9159 48.6016H42.8876C42.0997 48.6016 41.4609 49.2396 41.4609 50.0269C41.4609 50.8142 42.0997 51.4523 42.8876 51.4523Z" fill="#048DEF"></path><path d="M30.0839 51.4523H36.4976C37.2855 51.4523 37.9242 50.8142 37.9242 50.0269C37.9242 49.2396 37.2855 48.6016 36.4976 48.6016H30.0839C29.296 48.6016 28.6572 49.2396 28.6572 50.0269C28.6572 50.8142 29.296 51.4523 30.0839 51.4523Z" fill="#048DEF"></path><path d="M17.1703 14.247C17.1808 13.9223 17.2027 13.2468 16.6445 12.7199C16.0406 12.1502 15.2445 12.2212 14.816 12.2596C12.3023 12.4855 9.97381 13.6366 8.2596 15.5008C6.53412 17.377 5.58398 19.8145 5.58398 22.3639C5.58398 25.0716 6.64049 27.6186 8.55873 29.5359C10.4738 31.454 13.0243 32.5103 15.7401 32.5103C18.2904 32.5103 20.729 31.5608 22.6069 29.8366C24.4724 28.1238 25.6256 25.7968 25.8541 23.2825C25.8925 22.8552 25.9639 22.0598 25.391 21.4564C24.8602 20.8974 24.1786 20.9224 23.8509 20.9343C23.7983 20.9363 23.7404 20.9386 23.6797 20.9386C22.0808 20.936 20.6327 20.9367 19.1852 20.9377L17.1667 20.9386V14.4203C17.1664 14.3572 17.1686 14.2994 17.1703 14.247ZM19.1871 23.7883C20.396 23.7874 21.6049 23.7867 22.9036 23.7881C22.2379 27.1845 19.2823 29.6598 15.7402 29.6598C13.7879 29.6598 11.9549 28.9008 10.5791 27.5228C10.5786 27.5224 10.5782 27.5219 10.5778 27.5215C9.19748 26.1425 8.43725 24.3108 8.43725 22.3639C8.43725 18.8204 10.915 15.8662 14.3136 15.2059V21.096C14.3078 21.7809 14.3716 22.4951 14.8744 23.0769C14.923 23.1333 14.976 23.1856 15.0328 23.2336C15.6227 23.7325 16.3606 23.7924 16.9972 23.789L19.1871 23.7883Z" fill="#048DEF"></path><path d="M29.6428 18.5701C29.6978 18.5733 29.7678 18.5772 29.8488 18.5772C30.163 18.5772 30.642 18.5174 31.042 18.1156C31.5624 17.5929 31.5212 16.9315 31.497 16.5417C31.3511 14.0451 30.2922 11.7007 28.5235 9.94829C26.7564 8.16821 24.4087 7.11028 21.9207 6.96955C21.5261 6.94517 20.8661 6.90397 20.3431 7.42039C19.8375 7.91955 19.8676 8.52194 19.8822 8.81152C19.8847 8.86213 19.888 8.92173 19.8886 8.98161V15.906C19.8886 16.612 20.1685 17.2721 20.6782 17.7701C21.1648 18.2744 21.8452 18.5627 22.5519 18.5627H29.4715C29.5375 18.5638 29.5943 18.5674 29.6428 18.5701ZM22.7417 15.7121V9.93988C24.1574 10.2186 25.4665 10.917 26.5061 11.9639C27.5427 12.9912 28.2394 14.2951 28.521 15.7123L22.7417 15.7121Z" fill="#048DEF"></path><path d="M60.0244 16.614C60.1818 16.6696 60.3425 16.696 60.5005 16.696C61.0879 16.696 61.6381 16.3307 61.8453 15.7458L63.9265 9.87119C64.1894 9.12921 63.8005 8.31481 63.0576 8.05204L57.1774 5.97268C56.4348 5.71005 55.6194 6.09872 55.3566 6.84069C55.0937 7.58281 55.4826 8.39722 56.2255 8.65985L58.8581 9.59074L30.4124 23.145C29.7013 23.484 29.3997 24.3346 29.7389 25.045C29.9836 25.5575 30.4947 25.857 31.0275 25.857C31.2334 25.857 31.4426 25.8122 31.6407 25.7179L60.088 12.1628L59.1557 14.7947C58.8927 15.5369 59.2816 16.3514 60.0244 16.614Z" fill="#048DEF"></path></svg>