<svg xmlns="http://www.w3.org/2000/svg" width="68" height="69" viewBox="0 0 68 69" fill="none"><path d="M67.3123 10.9933L60.3287 0.517948C60.2224 0.358587 60.0784 0.227935 59.9094 0.137582C59.7405 0.0472297 59.5519 -2.86551e-05 59.3603 1.30353e-08H8.14749C7.95592 -2.86551e-05 7.7673 0.0472297 7.59837 0.137582C7.42944 0.227935 7.28543 0.358587 7.17911 0.517948L0.19554 10.9933C0.0683692 11.1848 0.00036363 11.4094 0 11.6393V15.1311C0.00169296 16.4721 0.465676 17.7716 1.31375 18.8105C2.16182 19.8494 3.34212 20.5642 4.65571 20.8343V60.5242C4.65571 60.8329 4.77834 61.129 4.99662 61.3473C5.2149 61.5655 5.51095 61.6882 5.81964 61.6882H20.7179L32.008 68.2062C32.5388 68.5126 33.141 68.674 33.7539 68.674C34.3668 68.674 34.969 68.5126 35.4998 68.2062L46.7899 61.6882H61.6882C61.9969 61.6882 62.2929 61.5655 62.5112 61.3473C62.7295 61.129 62.8521 60.8329 62.8521 60.5242V20.8343C64.1657 20.5642 65.346 19.8494 66.1941 18.8105C67.0421 17.7716 67.5061 16.4721 67.5078 15.1311V11.6393C67.5074 11.4094 67.4394 11.1848 67.3123 10.9933ZM8.7702 2.32786H58.7376L64.1697 10.4753H3.33814L8.7702 2.32786ZM55.8685 12.8032V15.1311C55.8685 16.0571 55.5006 16.9453 54.8458 17.6001C54.191 18.255 53.3028 18.6228 52.3768 18.6228C51.4507 18.6228 50.5625 18.255 49.9077 17.6001C49.2529 16.9453 48.885 16.0571 48.885 15.1311V12.8032H55.8685ZM46.5571 12.8032V15.1311C46.5571 16.0571 46.1892 16.9453 45.5344 17.6001C44.8796 18.255 43.9914 18.6228 43.0653 18.6228C42.1392 18.6228 41.2511 18.255 40.5963 17.6001C39.9414 16.9453 39.5735 16.0571 39.5735 15.1311V12.8032H46.5571ZM37.2457 12.8032V15.1311C37.2457 16.0571 36.8778 16.9453 36.223 17.6001C35.5681 18.255 34.68 18.6228 33.7539 18.6228C32.8278 18.6228 31.9397 18.255 31.2848 17.6001C30.63 16.9453 30.2621 16.0571 30.2621 15.1311V12.8032H37.2457ZM27.9343 12.8032V15.1311C27.9343 16.0571 27.5664 16.9453 26.9115 17.6001C26.2567 18.255 25.3686 18.6228 24.4425 18.6228C23.5164 18.6228 22.6283 18.255 21.9734 17.6001C21.3186 16.9453 20.9507 16.0571 20.9507 15.1311V12.8032H27.9343ZM18.6228 12.8032V15.1311C18.6228 16.0571 18.255 16.9453 17.6001 17.6001C16.9453 18.255 16.0571 18.6228 15.1311 18.6228C14.205 18.6228 13.3168 18.255 12.662 17.6001C12.0072 16.9453 11.6393 16.0571 11.6393 15.1311V12.8032H18.6228ZM2.32786 15.1311V12.8032H9.31142V15.1311C9.31142 16.0571 8.94354 16.9453 8.2887 17.6001C7.63387 18.255 6.74572 18.6228 5.81964 18.6228C4.89356 18.6228 4.00541 18.255 3.35058 17.6001C2.69574 16.9453 2.32786 16.0571 2.32786 15.1311ZM34.3359 66.1879C34.1589 66.2901 33.9582 66.3438 33.7539 66.3438C33.5496 66.3438 33.3489 66.2901 33.1719 66.1879L16.877 56.7799C16.7 56.6777 16.5531 56.5308 16.4509 56.3539C16.3488 56.1769 16.295 55.9762 16.295 55.7719V37.3423C16.2948 37.1378 16.3485 36.9368 16.4506 36.7597C16.5528 36.5825 16.6998 36.4354 16.877 36.3332L33.1719 26.9263C33.3489 26.8241 33.5496 26.7704 33.7539 26.7704C33.9582 26.7704 34.1589 26.8241 34.3359 26.9263L50.6309 36.3332C50.808 36.4354 50.955 36.5825 51.0572 36.7597C51.1593 36.9368 51.213 37.1378 51.2128 37.3423V55.7719C51.2128 55.9762 51.159 56.1769 51.0569 56.3539C50.9547 56.5308 50.8078 56.6777 50.6309 56.7799L34.3359 66.1879ZM50.8171 59.3603L51.7948 58.7958C52.3259 58.4891 52.7669 58.048 53.0734 57.5168C53.3799 56.9855 53.5411 56.3829 53.5407 55.7696V37.3423C53.5411 36.729 53.3799 36.1264 53.0734 35.5951C52.7669 35.0639 52.3259 34.6227 51.7948 34.3161L35.4998 24.9081C34.969 24.6016 34.3668 24.4402 33.7539 24.4402C33.141 24.4402 32.5388 24.6016 32.008 24.9081L15.713 34.3161C15.1819 34.6227 14.7409 35.0639 14.4344 35.5951C14.1279 36.1264 13.9667 36.729 13.9671 37.3423V55.7719C13.9667 56.3852 14.1279 56.9878 14.4344 57.5191C14.7409 58.0503 15.1819 58.4915 15.713 58.7981L16.6907 59.3626H6.98357V20.8227C8.38207 20.5302 9.62457 19.7346 10.4754 18.5868C11.0106 19.3194 11.7113 19.9153 12.5202 20.3261C13.3292 20.7369 14.2237 20.9511 15.1311 20.9511C16.0384 20.9511 16.9329 20.7369 17.7419 20.3261C18.5509 19.9153 19.2515 19.3194 19.7868 18.5868C20.3221 19.3194 21.0227 19.9153 21.8317 20.3261C22.6406 20.7369 23.5352 20.9511 24.4425 20.9511C25.3498 20.9511 26.2443 20.7369 27.0533 20.3261C27.8623 19.9153 28.5629 19.3194 29.0982 18.5868C29.6335 19.3194 30.3341 19.9153 31.1431 20.3261C31.9521 20.7369 32.8466 20.9511 33.7539 20.9511C34.6612 20.9511 35.5557 20.7369 36.3647 20.3261C37.1737 19.9153 37.8743 19.3194 38.4096 18.5868C38.9449 19.3194 39.6455 19.9153 40.4545 20.3261C41.2635 20.7369 42.158 20.9511 43.0653 20.9511C43.9726 20.9511 44.8672 20.7369 45.6762 20.3261C46.4851 19.9153 47.1858 19.3194 47.721 18.5868C48.2563 19.3194 48.9569 19.9153 49.7659 20.3261C50.5749 20.7369 51.4694 20.9511 52.3768 20.9511C53.2841 20.9511 54.1786 20.7369 54.9876 20.3261C55.7966 19.9153 56.4972 19.3194 57.0325 18.5868C57.8832 19.7346 59.1257 20.5302 60.5242 20.8227V59.3603H50.8171ZM65.18 15.1311C65.18 16.0571 64.8121 16.9453 64.1572 17.6001C63.5024 18.255 62.6143 18.6228 61.6882 18.6228C60.7621 18.6228 59.8739 18.255 59.2191 17.6001C58.5643 16.9453 58.1964 16.0571 58.1964 15.1311V12.8032H65.18V15.1311Z" fill="#048DEF"></path><path d="M38.9874 33.6872L34.3317 30.9997C34.1548 30.8975 33.954 30.8438 33.7497 30.8438C33.5454 30.8438 33.3447 30.8975 33.1678 30.9997L32.0038 31.6713C31.8269 31.7734 31.68 31.9204 31.5778 32.0973C31.4757 32.2742 31.4219 32.4749 31.4219 32.6792V60.5239C31.4219 60.8326 31.5445 61.1286 31.7628 61.3469C31.9811 61.5652 32.2771 61.6878 32.5858 61.6878C32.8945 61.6878 33.1905 61.5652 33.4088 61.3469C33.6271 61.1286 33.7497 60.8326 33.7497 60.5239V48.3026H37.8235C38.1322 48.3026 38.4282 48.18 38.6465 47.9617C38.8648 47.7435 38.9874 47.4474 38.9874 47.1387C38.9874 46.83 38.8648 46.534 38.6465 46.3157C38.4282 46.0974 38.1322 45.9748 37.8235 45.9748H33.7497V33.352L37.8235 35.7031C38.0908 35.8575 38.4085 35.8993 38.7067 35.8194C39.0048 35.7395 39.2591 35.5444 39.4134 35.2771C39.5677 35.0098 39.6096 34.6921 39.5297 34.3939C39.4498 34.0958 39.2547 33.8415 38.9874 33.6872Z" fill="#048DEF"></path><path d="M48.3004 39.064L42.4807 35.7037C42.2133 35.5494 41.8954 35.5076 41.5971 35.5876C41.2989 35.6676 41.0446 35.8628 40.8902 36.1303C40.7359 36.3978 40.6941 36.7156 40.7741 37.0139C40.8541 37.3122 41.0493 37.5665 41.3168 37.7208L43.0627 38.7288V55.8688C43.0627 56.1775 43.1853 56.4735 43.4036 56.6918C43.6219 56.9101 43.9179 57.0327 44.2266 57.0327C44.5353 57.0327 44.8314 56.9101 45.0497 56.6918C45.2679 56.4735 45.3906 56.1775 45.3906 55.8688V40.0719L47.1365 41.0799C47.2689 41.1575 47.4153 41.2082 47.5674 41.229C47.7195 41.2498 47.8742 41.2403 48.0226 41.2011C48.171 41.1618 48.3102 41.0936 48.4321 41.0004C48.5541 40.9071 48.6563 40.7907 48.7331 40.6578C48.8098 40.5248 48.8595 40.378 48.8793 40.2258C48.8991 40.0736 48.8886 39.919 48.8484 39.7708C48.8082 39.6227 48.739 39.484 48.645 39.3627C48.5509 39.2414 48.4338 39.1398 48.3004 39.064Z" fill="#048DEF"></path><path d="M27.3506 35.5C27.0419 35.5 26.7459 35.6226 26.5276 35.8409C26.3093 36.0592 26.1867 36.3552 26.1867 36.6639V51.5704L21.4472 39.7239C21.3465 39.4731 21.1617 39.2652 20.9245 39.1358C20.6873 39.0064 20.4125 38.9635 20.1471 39.0146C19.8818 39.0656 19.6425 39.2074 19.4702 39.4156C19.298 39.6239 19.2036 39.8855 19.2031 40.1557V55.2868C19.2031 55.5955 19.3258 55.8915 19.544 56.1098C19.7623 56.3281 20.0584 56.4507 20.3671 56.4507C20.6757 56.4507 20.9718 56.3281 21.1901 56.1098C21.4084 55.8915 21.531 55.5955 21.531 55.2868V46.1988L26.2705 58.0464C26.3712 58.2972 26.556 58.5051 26.7932 58.6345C27.0304 58.764 27.3052 58.8068 27.5706 58.7558C27.8359 58.7047 28.0752 58.5629 28.2475 58.3547C28.4197 58.1465 28.5141 57.8848 28.5145 57.6146V36.6639C28.5145 36.3552 28.3919 36.0592 28.1736 35.8409C27.9554 35.6226 27.6593 35.5 27.3506 35.5Z" fill="#048DEF"></path></svg>