<svg xmlns="http://www.w3.org/2000/svg" width="61" height="61" viewBox="0 0 61 61" fill="none"><path d="M16.8345 28.6914H4.97126C3.72844 28.6914 2.37265 28.2227 1.46878 27.4727C0.564916 26.7227 0 25.5977 0 24.5664V24.2852C0.112983 22.1289 2.48563 20.4414 5.19722 20.4414H13.7839C14.4618 20.4414 14.9138 20.8164 14.9138 21.3789C14.9138 21.9414 14.4618 22.3164 13.7839 22.3164H5.19722C3.61546 22.3164 2.37265 23.2539 2.25966 24.3789V24.5664C2.25966 25.1289 2.59861 25.7852 3.05054 26.1602C3.50248 26.5352 4.29336 26.8164 4.97126 26.8164H16.8345C17.5124 26.8164 17.9643 27.1914 17.9643 27.7539C17.9643 28.3164 17.5124 28.6914 16.8345 28.6914Z" fill="#048DEF"></path><path d="M52.5396 40.8789H45.0827C44.4048 40.8789 43.9528 40.5039 43.9528 39.9414V29.6289C43.9528 29.0664 43.5009 28.6914 42.823 28.6914H30.1689C29.491 28.6914 29.0391 28.3164 29.0391 27.7539C29.0391 27.1914 29.491 26.8164 30.1689 26.8164H42.823C44.7437 26.8164 46.2125 28.0352 46.2125 29.6289V39.0039H51.4097V23.2539C51.4097 22.6914 50.9578 22.3164 50.2799 22.3164H33.3324C32.6545 22.3164 32.2026 21.9414 32.2026 21.3789C32.2026 20.8164 32.6545 20.4414 33.3324 20.4414H50.2799C52.2006 20.4414 53.6694 21.6602 53.6694 23.2539V39.9414C53.6694 40.5039 53.2175 40.8789 52.5396 40.8789Z" fill="#048DEF"></path><path d="M50.2727 55.5039H45.1884C44.5105 55.5039 44.0586 55.1289 44.0586 54.5664V44.7227C44.0586 44.1602 44.5105 43.7852 45.1884 43.7852H52.5323C53.2102 43.7852 53.6622 44.1602 53.6622 44.7227V52.6914C53.6622 54.2852 52.1934 55.5039 50.2727 55.5039ZM46.3183 53.6289H50.2727C50.9506 53.6289 51.4025 53.2539 51.4025 52.6914V45.6602H46.3183V53.6289Z" fill="#048DEF"></path><path d="M42.9336 60.0019H3.38949C1.46878 60.0019 0 58.7832 0 57.1894V24.5645C0 24.002 0.451933 23.627 1.12983 23.627C1.80773 23.627 2.25966 24.002 2.25966 24.5645C2.25966 25.127 2.59861 25.7832 3.05055 26.1582C3.50248 26.5332 4.29336 26.8145 4.97126 26.8145H42.8206C44.7413 26.8145 46.2101 28.0332 46.2101 29.627V39.9394C46.2101 40.5019 45.7582 40.8769 45.0803 40.8769H42.7076C41.8038 40.8769 41.0129 41.5332 41.0129 42.2832C41.0129 43.1269 41.8038 43.7832 42.8206 43.7832H45.1933C45.8712 43.7832 46.3231 44.1582 46.3231 44.7207V57.1894C46.3231 58.7832 44.8543 60.0019 42.9336 60.0019ZM2.25966 28.0332V57.1894C2.25966 57.7519 2.7116 58.1269 3.38949 58.1269H42.9336C43.6115 58.1269 44.0634 57.7519 44.0634 57.1894V45.6582H42.8206C40.561 45.6582 38.7532 44.1582 38.7532 42.2832C38.7532 40.4082 40.448 39.002 42.7076 39.002H43.9505V29.627C43.9505 29.0645 43.4985 28.6895 42.8206 28.6895H4.97126C4.06739 28.6895 3.05055 28.4082 2.25966 28.0332Z" fill="#048DEF"></path><path d="M58.7541 38.8105C58.0762 38.8105 57.6242 38.4355 57.6242 37.873C57.6242 37.2168 57.0593 36.748 56.2684 36.748H52.54C51.8621 36.748 51.4102 36.373 51.4102 35.8105C51.4102 35.248 51.8621 34.873 52.54 34.873H56.2684C58.3021 34.873 59.8839 36.1855 59.8839 37.873C59.8839 38.4355 59.432 38.8105 58.7541 38.8105Z" fill="#048DEF"></path><path d="M55.366 45.6543H42.7119C40.4523 45.6543 38.6445 44.1543 38.6445 42.2793C38.6445 40.4043 40.3393 38.998 42.5989 38.998H56.2699C56.6088 38.998 56.9478 38.9043 57.2868 38.7168C57.6257 38.3418 57.7387 38.1543 57.7387 37.873C57.7387 37.3105 58.1906 36.9355 58.8685 36.9355C59.5464 36.9355 59.9983 37.3105 59.9983 37.873V41.8105C59.9983 43.9668 57.9646 45.6543 55.366 45.6543ZM42.5989 40.873C41.6951 40.873 40.9042 41.5293 40.9042 42.2793C40.9042 43.123 41.6951 43.7793 42.7119 43.7793H55.366C56.6089 43.7793 57.7387 42.8418 57.7387 41.8105V40.5918C57.2868 40.7793 56.8348 40.873 56.2699 40.873H42.5989Z" fill="#048DEF"></path><path d="M56.2684 40.873H52.54C51.8621 40.873 51.4102 40.498 51.4102 39.9355V35.8105C51.4102 35.248 51.8621 34.873 52.54 34.873H56.1554C58.0762 34.873 59.5449 35.8105 59.8839 37.2168C60.1099 37.873 60.1099 38.9043 58.98 40.0293C58.1891 40.5918 57.2853 40.873 56.2684 40.873ZM53.6698 38.998H56.2684C56.7204 38.998 57.0593 38.9043 57.2853 38.7168C57.7372 38.248 57.7372 37.873 57.6242 37.6855C57.6242 37.6855 57.6242 37.6855 57.6242 37.5918C57.5112 37.0293 56.7204 36.748 56.1554 36.748H53.6698V38.998Z" fill="#048DEF"></path><path d="M23.5076 22.6875C21.8128 22.6875 20.457 21.5625 20.457 20.1563C20.457 18.75 21.8128 17.625 23.5076 17.625C25.2023 17.625 26.5581 18.75 26.5581 20.1563C26.5581 20.7188 26.1062 21.0938 25.4283 21.0938C24.7504 21.0938 24.2985 20.7188 24.2985 20.1563C24.2985 19.875 23.8465 19.5 23.5076 19.5C23.1686 19.5 22.7167 19.875 22.7167 20.1563C22.7167 20.4375 22.9427 20.8125 23.5076 20.8125C24.1855 20.8125 24.6374 21.1875 24.6374 21.75C24.6374 22.3125 24.1855 22.6875 23.5076 22.6875Z" fill="#048DEF"></path><path d="M23.5076 25.873C21.8128 25.873 20.457 24.748 20.457 23.3418C20.457 22.7793 20.909 22.4043 21.5869 22.4043C22.2648 22.4043 22.7167 22.7793 22.7167 23.3418C22.7167 23.623 23.1686 23.998 23.5076 23.998C23.8465 23.998 24.2985 23.8105 24.2985 23.3418C24.2985 23.0605 24.0725 22.6855 23.5076 22.6855C22.8297 22.6855 22.3777 22.3105 22.3777 21.748C22.3777 21.1855 22.8297 20.8105 23.5076 20.8105C25.2023 20.8105 26.5581 21.9355 26.5581 23.3418C26.5581 24.748 25.2023 25.873 23.5076 25.873Z" fill="#048DEF"></path><path d="M23.5087 19.5C22.8308 19.5 22.3789 19.125 22.3789 18.5625V17.8125C22.3789 17.25 22.8308 16.875 23.5087 16.875C24.1866 16.875 24.6386 17.25 24.6386 17.8125V18.5625C24.6386 19.125 24.1866 19.5 23.5087 19.5Z" fill="#048DEF"></path><path d="M23.5087 26.5312C22.8308 26.5312 22.3789 26.1562 22.3789 25.5937V25.0312C22.3789 24.4687 22.8308 24.0938 23.5087 24.0938C24.1866 24.0938 24.6386 24.4687 24.6386 25.0312V25.5937C24.6386 26.1562 24.1866 26.5312 23.5087 26.5312Z" fill="#048DEF"></path><path d="M14.7963 10.7812C13.1016 10.7812 11.6328 9.5625 11.6328 8.15625C11.6328 6.75 13.1016 5.53125 14.7963 5.53125C16.4911 5.53125 17.9599 6.75 17.9599 8.15625C17.9599 8.71875 17.5079 9.09375 16.83 9.09375C16.1521 9.09375 15.7002 8.71875 15.7002 8.15625C15.7002 7.78125 15.2483 7.40625 14.7963 7.40625C14.3444 7.40625 13.8925 7.78125 13.8925 8.15625C13.8925 8.53125 14.3444 8.90625 14.7963 8.90625C15.4742 8.90625 15.9262 9.28125 15.9262 9.84375C15.9262 10.4062 15.4742 10.7812 14.7963 10.7812Z" fill="#048DEF"></path><path d="M14.7963 14.1562C13.1016 14.1562 11.6328 12.9375 11.6328 11.5312C11.6328 10.9688 12.0847 10.5938 12.7626 10.5938C13.4405 10.5938 13.8925 10.9688 13.8925 11.5312C13.8925 11.9062 14.3444 12.2813 14.7963 12.2813C15.2483 12.2813 15.7002 11.9062 15.7002 11.5312C15.7002 11.1562 15.2483 10.7812 14.7963 10.7812C14.1184 10.7812 13.6665 10.4062 13.6665 9.84375C13.6665 9.28125 14.1184 8.90625 14.7963 8.90625C16.4911 8.90625 17.9599 10.125 17.9599 11.5312C17.9599 12.9375 16.4911 14.1562 14.7963 14.1562Z" fill="#048DEF"></path><path d="M14.8017 7.3125C14.1238 7.3125 13.6719 6.9375 13.6719 6.375V5.71875C13.6719 5.15625 14.1238 4.78125 14.8017 4.78125C15.4796 4.78125 15.9315 5.15625 15.9315 5.71875V6.375C15.9315 6.9375 15.4796 7.3125 14.8017 7.3125Z" fill="#048DEF"></path><path d="M14.8017 14.8105C14.1238 14.8105 13.6719 14.4355 13.6719 13.873V13.3105C13.6719 12.748 14.1238 12.373 14.8017 12.373C15.4796 12.373 15.9315 12.748 15.9315 13.3105V13.873C15.9315 14.4355 15.4796 14.8105 14.8017 14.8105Z" fill="#048DEF"></path><path d="M30.1683 28.6875H16.8363C16.4974 28.6875 16.2714 28.5937 16.0454 28.4062C13.7858 26.625 12.543 24.1875 12.543 21.75V21.375C12.543 20.4375 12.8819 19.4062 13.4468 18.2812C15.1416 14.9062 19.096 12.75 23.5023 12.75H24.4062C29.9424 13.2187 34.2357 16.875 34.4617 21.375V21.75C34.4617 24.2812 33.2189 26.7187 30.9592 28.4062C30.7333 28.5937 30.5073 28.6875 30.1683 28.6875ZM17.2883 26.8125H29.7164C31.2982 25.4062 32.202 23.625 32.202 21.75V21.375C31.9761 17.9062 28.5866 15 24.2932 14.625H23.5023C19.9999 14.625 16.8363 16.3125 15.4805 19.0312C15.0286 19.875 14.8026 20.7187 14.8026 21.375V21.75C14.8026 23.625 15.7065 25.4062 17.2883 26.8125Z" fill="#048DEF"></path><path d="M14.466 19.5C8.02595 19.3125 3.05469 15 3.05469 9.75C3.05469 4.40625 8.3649 0 14.8049 0C21.245 0 26.5552 4.40625 26.5552 9.75C26.5552 11.25 26.2162 12.6562 25.4254 13.9687C25.1994 14.3437 24.8604 14.5312 24.4085 14.5312H23.5046C20.0022 14.5312 16.8386 16.2188 15.4828 18.9375C15.3699 19.3125 14.9179 19.5 14.466 19.5ZM14.8049 1.875C9.60771 1.875 5.31435 5.4375 5.31435 9.75C5.31435 13.7812 8.92981 17.1562 13.7881 17.625C15.5958 14.625 19.3243 12.6562 23.5046 12.6562H23.6176C24.0696 11.7187 24.2955 10.7812 24.2955 9.75C24.2955 5.4375 20.0022 1.875 14.8049 1.875Z" fill="#048DEF"></path></svg>