<svg xmlns="http://www.w3.org/2000/svg" width="68" height="68" viewBox="0 0 68 68" fill="none"><path d="M5.97769 68.0009C4.39301 67.9992 2.8737 67.369 1.75306 66.2486C0.632426 65.1282 0.0019687 63.609 0 62.0243L0 25.5004C0.00229625 24.0715 0.515655 22.6905 1.4473 21.6071C2.37895 20.5236 3.66742 19.8092 5.07987 19.5928C5.68609 19.5239 6.29669 19.5016 6.90633 19.5259C7.01478 19.5258 7.12177 19.501 7.21917 19.4533C7.31657 19.4056 7.40181 19.3363 7.4684 19.2507L22.0014 0.562187C22.2365 0.260765 22.5804 0.0635444 22.9592 0.0128847C23.3381 -0.037775 23.7217 0.0621677 24.0277 0.291246L31.5375 5.92256C31.6507 6.00758 31.7868 6.05684 31.9282 6.06403C32.0696 6.07123 32.2099 6.03602 32.3312 5.96294L41.9278 0.21262C42.2485 0.0194162 42.6311 -0.0431116 42.9966 0.0379762C43.3621 0.119064 43.6824 0.33756 43.8913 0.64825L56.3769 19.3782C56.4789 19.5309 56.6356 19.6385 56.8147 19.6789C58.1365 19.9796 59.3179 20.7184 60.167 21.7752C61.0161 22.832 61.483 24.1448 61.4918 25.5004V34.0005C61.4918 34.1893 61.5668 34.3704 61.7004 34.5039C61.8339 34.6374 62.0149 34.7124 62.2037 34.7124H66.543C66.9296 34.7127 67.3002 34.8664 67.5735 35.1397C67.8468 35.413 68.0005 35.7836 68.0008 36.1702V49.187C68.0002 49.5735 67.8465 49.9439 67.5732 50.2172C67.2999 50.4904 66.9295 50.6442 66.543 50.6448H51.3565C49.2794 50.5911 47.3053 49.7283 45.8552 48.2402C44.405 46.7521 43.5934 44.7564 43.5934 42.6786C43.5934 40.6007 44.405 38.6051 45.8552 37.117C47.3053 35.6289 49.2794 34.766 51.3565 34.7124H57.8655C58.0543 34.7124 58.2354 34.6374 58.3689 34.5039C58.5024 34.3704 58.5774 34.1893 58.5774 34.0005V25.5004C58.5762 24.6884 58.2531 23.9101 57.6789 23.336C57.1046 22.762 56.3261 22.4391 55.5141 22.4383H5.97769C5.16582 22.4391 4.38744 22.762 3.81335 23.3361C3.23927 23.9102 2.91638 24.6885 2.91553 25.5004V62.0243C2.91666 62.836 3.23967 63.6141 3.81373 64.1879C4.38778 64.7618 5.166 65.0845 5.97769 65.0854H55.5141C56.326 65.0848 57.1045 64.7622 57.6788 64.1883C58.2531 63.6144 58.5762 62.8362 58.5774 62.0243V55.696C58.5721 55.5013 58.6059 55.3075 58.6768 55.1261C58.7477 54.9447 58.8542 54.7794 58.99 54.6398C59.1258 54.5003 59.2882 54.3893 59.4677 54.3136C59.6471 54.2379 59.8399 54.1988 60.0346 54.1988C60.2294 54.1988 60.4221 54.2379 60.6016 54.3136C60.781 54.3893 60.9434 54.5003 61.0792 54.6398C61.2151 54.7794 61.3216 54.9447 61.3924 55.1261C61.4633 55.3075 61.4971 55.5013 61.4918 55.696V62.0243C61.4902 63.609 60.8598 65.1284 59.7391 66.2489C58.6184 67.3694 57.0989 67.9995 55.5141 68.0009H5.97769ZM51.3565 37.6269C50.0169 37.6269 48.7321 38.159 47.7848 39.1063C46.8375 40.0536 46.3054 41.3384 46.3054 42.6781C46.3054 44.0177 46.8375 45.3025 47.7848 46.2498C48.7321 47.1971 50.0169 47.7292 51.3565 47.7292H64.3734C64.5622 47.7292 64.7432 47.6542 64.8768 47.5207C65.0103 47.3872 65.0853 47.2062 65.0853 47.0174V38.3398C65.0854 38.2462 65.0671 38.1536 65.0314 38.0671C64.9957 37.9806 64.9432 37.902 64.8771 37.8358C64.811 37.7695 64.7325 37.717 64.646 37.6812C64.5596 37.6453 64.4669 37.6269 64.3734 37.6269H51.3565ZM41.6505 3.76991L35.3466 7.55564C35.2466 7.61587 35.163 7.69972 35.103 7.79982C35.043 7.89992 35.0085 8.01322 35.0025 8.12977C34.9966 8.24632 35.0193 8.36255 35.0687 8.46827C35.1181 8.57399 35.1928 8.66595 35.286 8.73609C50.2462 19.8925 49.4599 19.5259 49.9105 19.5259H51.6381C51.767 19.5259 51.8934 19.4908 52.0039 19.4246C52.1145 19.3583 52.2049 19.2633 52.2657 19.1496C52.3264 19.036 52.3552 18.908 52.3489 18.7793C52.3426 18.6505 52.3015 18.5259 52.2299 18.4188L42.6131 3.9856C42.5112 3.8327 42.3543 3.72495 42.175 3.68478C41.9958 3.64461 41.8079 3.6751 41.6505 3.76991ZM26.1304 11.0927C39.3576 19.8585 38.5873 19.5259 38.9963 19.5259H42.679C42.8282 19.5251 42.9734 19.4775 43.0941 19.3898C43.2148 19.3022 43.3049 19.1789 43.3519 19.0372C43.3988 18.8956 43.4001 18.7429 43.3557 18.6005C43.3112 18.4581 43.2232 18.3332 43.104 18.2435L23.9788 3.89954C23.8295 3.78743 23.6422 3.73842 23.4572 3.76307C23.2722 3.78771 23.1043 3.88403 22.9896 4.03129L11.8332 18.3752C11.7516 18.4805 11.7011 18.6066 11.6875 18.7391C11.6739 18.8717 11.6977 19.0054 11.7563 19.125C11.8148 19.2447 11.9057 19.3456 12.0186 19.4163C12.1316 19.487 12.262 19.5246 12.3953 19.5248H17.7227C17.8332 19.5246 17.9421 19.4988 18.0409 19.4494C18.1397 19.4 18.2257 19.3283 18.2922 19.2401L24.1488 11.4306C24.3718 11.1297 24.7024 10.9265 25.0717 10.8635C25.4409 10.8005 25.8202 10.8827 26.1304 11.0927ZM25.257 14.82L22.5826 18.3816C22.5034 18.4874 22.4552 18.6133 22.4434 18.7449C22.4316 18.8766 22.4566 19.009 22.5157 19.1273C22.5748 19.2456 22.6656 19.3451 22.778 19.4148C22.8904 19.4844 23.0199 19.5214 23.1521 19.5217H31.1741C31.3267 19.5212 31.4751 19.4717 31.5976 19.3806C31.72 19.2895 31.8099 19.1615 31.8542 19.0154C31.8984 18.8694 31.8946 18.713 31.8433 18.5692C31.7921 18.4255 31.696 18.302 31.5694 18.2169L26.2217 14.6511C26.0698 14.5507 25.8852 14.5123 25.7058 14.5437C25.5264 14.5751 25.3658 14.674 25.257 14.82Z" fill="#047BDC"></path><path d="M53.5276 44.4556C54.5093 44.4556 55.3052 43.6597 55.3052 42.678C55.3052 41.6962 54.5093 40.9004 53.5276 40.9004C52.5459 40.9004 51.75 41.6962 51.75 42.678C51.75 43.6597 52.5459 44.4556 53.5276 44.4556Z" fill="#047BDC"></path><path d="M27.4927 59.3225C27.106 59.3228 26.735 59.1695 26.4613 58.8964C26.1875 58.6232 26.0334 58.2526 26.0329 57.8658V55.6962C26.0329 55.5074 25.9579 55.3263 25.8243 55.1928C25.6908 55.0593 25.5098 54.9843 25.321 54.9843H23.1545C22.9656 54.9843 22.7844 55.0593 22.6508 55.1928C22.5171 55.3262 22.4418 55.5073 22.4416 55.6962V57.8658C22.4313 58.2455 22.2733 58.6062 22.0011 58.8711C21.7289 59.136 21.3641 59.2843 20.9843 59.2843C20.6045 59.2843 20.2397 59.136 19.9675 58.8711C19.6954 58.6062 19.5373 58.2455 19.5271 57.8658V55.6962C19.5271 55.5074 19.4521 55.3263 19.3186 55.1928C19.1851 55.0593 19.004 54.9843 18.8152 54.9843H16.6456C16.2589 54.9843 15.8881 54.8307 15.6148 54.5573C15.3414 54.284 15.1878 53.9132 15.1878 53.5265C15.1878 53.1399 15.3414 52.7691 15.6148 52.4957C15.8881 52.2224 16.2589 52.0688 16.6456 52.0688H18.8152C18.9087 52.0688 19.0013 52.0504 19.0876 52.0146C19.174 51.9788 19.2525 51.9264 19.3186 51.8603C19.3847 51.7942 19.4371 51.7157 19.4729 51.6293C19.5087 51.5429 19.5271 51.4504 19.5271 51.3569V38.3401C19.5272 38.2465 19.5089 38.1538 19.4732 38.0673C19.4375 37.9808 19.3851 37.9022 19.319 37.836C19.2528 37.7698 19.1743 37.7172 19.0879 37.6814C19.0014 37.6456 18.9088 37.6271 18.8152 37.6271H16.6456C16.4509 37.6324 16.2571 37.5986 16.0757 37.5277C15.8943 37.4568 15.729 37.3503 15.5894 37.2145C15.4499 37.0787 15.3389 36.9162 15.2632 36.7368C15.1875 36.5574 15.1484 36.3646 15.1484 36.1699C15.1484 35.9751 15.1875 35.7823 15.2632 35.6029C15.3389 35.4235 15.4499 35.2611 15.5894 35.1253C15.729 34.9894 15.8943 34.8829 16.0757 34.8121C16.2571 34.7412 16.4509 34.7074 16.6456 34.7126H18.8152C19.004 34.7126 19.1851 34.6376 19.3186 34.5041C19.4521 34.3706 19.5271 34.1896 19.5271 34.0008V31.8311C19.5218 31.6364 19.5556 31.4427 19.6265 31.2613C19.6974 31.0799 19.8039 30.9145 19.9397 30.775C20.0755 30.6354 20.238 30.5245 20.4174 30.4487C20.5968 30.373 20.7896 30.334 20.9843 30.334C21.1791 30.334 21.3718 30.373 21.5513 30.4487C21.7307 30.5245 21.8931 30.6354 22.0289 30.775C22.1648 30.9145 22.2713 31.0799 22.3421 31.2613C22.413 31.4427 22.4468 31.6364 22.4416 31.8311V34.0008C22.4418 34.1897 22.5171 34.3707 22.6508 34.5042C22.7844 34.6377 22.9656 34.7126 23.1545 34.7126H25.3242C25.5124 34.7118 25.6927 34.6364 25.8255 34.503C25.9583 34.3696 26.0329 34.189 26.0329 34.0008V31.8311C26.0276 31.6364 26.0614 31.4427 26.1323 31.2613C26.2031 31.0799 26.3096 30.9145 26.4455 30.775C26.5813 30.6354 26.7437 30.5245 26.9231 30.4487C27.1026 30.373 27.2953 30.334 27.4901 30.334C27.6848 30.334 27.8776 30.373 28.057 30.4487C28.2364 30.5245 28.3989 30.6354 28.5347 30.775C28.6705 30.9145 28.777 31.0799 28.8479 31.2613C28.9188 31.4427 28.9526 31.6364 28.9473 31.8311V34.4003C28.9473 34.5471 28.9928 34.6904 29.0774 34.8104C29.1621 34.9305 29.2818 35.0214 29.4201 35.0707C30.2178 35.3474 30.9445 35.7967 31.5486 36.3865C32.1526 36.9764 32.619 37.6923 32.9145 38.4831C33.21 39.274 33.3274 40.1203 33.2582 40.9617C33.189 41.8031 32.9349 42.6189 32.5142 43.3509C32.4229 43.5102 32.3966 43.6986 32.441 43.8768C32.4853 44.055 32.5968 44.2092 32.7522 44.3071C33.8103 44.9783 34.6222 45.9746 35.066 47.1464C35.5099 48.3182 35.5617 49.6023 35.2138 50.8061C34.8658 52.0099 34.1369 53.0683 33.1363 53.8226C32.1358 54.577 30.9176 54.9864 29.6645 54.9896C29.4757 54.9896 29.2946 55.0646 29.1611 55.1981C29.0276 55.3316 28.9526 55.5127 28.9526 55.7015V57.8712C28.9507 58.257 28.796 58.6263 28.5224 58.8983C28.2488 59.1703 27.8786 59.3228 27.4927 59.3225ZM23.1545 46.3057C22.9656 46.3057 22.7844 46.3807 22.6508 46.5141C22.5171 46.6476 22.4418 46.8287 22.4416 47.0176V51.3569C22.4418 51.5458 22.5171 51.7269 22.6508 51.8603C22.7844 51.9938 22.9656 52.0688 23.1545 52.0688H29.6624C33.4768 52.0688 33.4726 46.3057 29.6624 46.3057H23.1545ZM23.1545 37.6271C22.9654 37.6271 22.7841 37.7022 22.6504 37.8359C22.5167 37.9696 22.4416 38.151 22.4416 38.3401V42.6783C22.4418 42.8673 22.517 43.0485 22.6507 43.1821C22.7843 43.3158 22.9655 43.391 23.1545 43.3912H27.4927C31.3072 43.3912 31.3029 37.6271 27.4927 37.6271H23.1545Z" fill="#047BDC"></path></svg>