<svg xmlns="http://www.w3.org/2000/svg" width="69" height="69" viewBox="0 0 69 69" fill="none"><path d="M60.0968 48.9744V44.5161C60.095 43.0409 59.5082 41.6265 58.465 40.5834C57.4218 39.5402 56.0075 38.9534 54.5323 38.9516H45.1638C46.1939 37.0514 47.0249 35.0498 47.6434 32.9787L51.8724 29.5943C52.5298 29.0695 53.0103 28.3557 53.2492 27.5492C53.4881 26.7427 53.4739 25.8823 53.2085 25.0842C52.943 24.286 52.4391 23.5885 51.7648 23.0857C51.0905 22.5829 50.2781 22.2991 49.4374 22.2725L51.9169 15.4549C52.5496 13.715 52.7536 11.8482 52.5116 10.0128C52.2695 8.17729 51.5887 6.4272 50.5266 4.91077C49.4645 3.39434 48.0526 2.15626 46.4104 1.30141C44.7682 0.446569 42.9442 0.000157996 41.0928 1.1726e-06H31.6443C24.5743 -0.0017621 17.6465 1.98513 11.6521 5.73368C11.472 5.84524 11.3275 6.0059 11.2355 6.19677C11.1436 6.38763 11.108 6.60078 11.133 6.81116C11.158 7.02154 11.2426 7.22041 11.3767 7.3844C11.5109 7.54838 11.689 7.67068 11.8903 7.7369L14.5735 8.62723C14.9428 8.75042 15.283 8.94777 15.5733 9.20717C15.8636 9.46657 16.0979 9.78254 16.2617 10.1357C16.4255 10.4889 16.5154 10.8718 16.526 11.261C16.5365 11.6501 16.4674 12.0373 16.323 12.3989C16.0563 13.0653 15.9338 13.7807 15.9635 14.4979C15.9933 15.2151 16.1746 15.9179 16.4955 16.56L19.3645 22.2926C18.5437 22.3579 17.7616 22.6685 17.1196 23.1841C16.4776 23.6996 16.0055 24.3963 15.7645 25.1836C15.5236 25.971 15.5249 26.8125 15.7684 27.5991C16.0119 28.3856 16.4862 29.0808 17.1298 29.5943L21.3588 32.9787C21.9767 35.0497 22.8068 37.0513 23.8362 38.9516H14.4677C12.9925 38.9534 11.5782 39.5402 10.535 40.5834C9.49182 41.6265 8.90499 43.0409 8.90323 44.5161V48.9744C6.26926 50.0748 4.01903 51.9287 2.43506 54.3035C0.851083 56.6782 0.00394683 59.468 0 62.3226V67.8871C0 68.1823 0.117252 68.4653 0.325962 68.674C0.534672 68.8828 0.817743 69 1.1129 69H67.8871C68.1823 69 68.4653 68.8828 68.674 68.674C68.8828 68.4653 69 68.1823 69 67.8871V62.3226C68.9961 59.468 68.1489 56.6782 66.5649 54.3035C64.981 51.9287 62.7307 50.0748 60.0968 48.9744ZM43.4032 22.2581H36.7258C36.4306 22.2581 36.1476 22.3753 35.9389 22.584C35.7302 22.7927 35.6129 23.0758 35.6129 23.371V24.4839H33.3871V23.371C33.3871 23.0758 33.2698 22.7927 33.0611 22.584C32.8524 22.3753 32.5694 22.2581 32.2742 22.2581H22.2581V20.6277L29.2048 15.9969C30.6997 14.9982 32.4574 14.466 34.2552 14.4677C36.8271 14.4647 39.322 13.5894 41.3321 11.9849L43.1506 10.5303L45.0592 13.3949C46.1581 15.0392 46.7438 16.9728 46.7419 18.9505V22.2581H43.4032ZM42.2903 24.4839V27.8226C42.2903 28.1177 42.1731 28.4008 41.9644 28.6095C41.7557 28.8182 41.4726 28.9355 41.1774 28.9355H38.9516C38.6565 28.9355 38.3734 28.8182 38.1647 28.6095C37.956 28.4008 37.8387 28.1177 37.8387 27.8226V24.4839H42.2903ZM31.1613 24.4839V27.8226C31.1613 28.1177 31.044 28.4008 30.8353 28.6095C30.6266 28.8182 30.3435 28.9355 30.0484 28.9355H27.8226C27.5274 28.9355 27.2443 28.8182 27.0356 28.6095C26.8269 28.4008 26.7097 28.1177 26.7097 27.8226V24.4839H31.1613ZM51.1936 26.3758C51.1941 26.6597 51.1306 26.9401 51.0076 27.196C50.8847 27.4519 50.7055 27.6768 50.4835 27.8537L48.4658 29.4675C48.7599 27.8218 48.9218 26.1553 48.9499 24.4839H49.3016C49.5501 24.4839 49.7961 24.5328 50.0256 24.6279C50.2552 24.723 50.4637 24.8623 50.6394 25.038C50.8151 25.2137 50.9545 25.4223 51.0495 25.6518C51.1446 25.8813 51.1936 26.1274 51.1936 26.3758ZM18.3885 13.2257C18.6456 12.5827 18.7687 11.894 18.7501 11.2017C18.7315 10.5094 18.5716 9.82828 18.2804 9.2C17.9891 8.57172 17.5726 8.00957 17.0563 7.54804C16.54 7.08651 15.9348 6.73533 15.2779 6.51605L14.9374 6.40476C20.0784 3.66009 25.8165 2.22478 31.6443 2.22581H41.0928C42.586 2.22609 44.0571 2.58618 45.3816 3.27559C46.7061 3.965 47.845 4.96342 48.7018 6.18632C49.5586 7.40922 50.1081 8.82057 50.3037 10.3009C50.4994 11.7812 50.3354 13.2868 49.8258 14.6903L48.8587 17.3502C48.6169 15.4919 47.9505 13.7143 46.9111 12.1551L44.3292 8.28111C44.2435 8.1528 44.1321 8.0437 44.002 7.96074C43.8719 7.87778 43.726 7.82278 43.5735 7.79923C43.4211 7.77621 43.2656 7.78478 43.1166 7.82441C42.9677 7.86405 42.8285 7.93389 42.7077 8.0296L39.9421 10.2476C38.3263 11.536 36.3217 12.239 34.2552 12.2419C32.0177 12.2399 29.8301 12.9022 27.9695 14.145L20.5275 19.1063C20.4585 19.1532 20.395 19.2077 20.3383 19.2688L18.4864 15.564C18.306 15.2032 18.2039 14.8083 18.1871 14.4053C18.1702 14.0023 18.2388 13.6003 18.3885 13.2257ZM18.5176 27.856C18.2104 27.6114 17.9869 27.2774 17.8781 26.9001C17.7693 26.5229 17.7806 26.1211 17.9103 25.7505C18.0401 25.38 18.2819 25.059 18.6023 24.832C18.9227 24.605 19.3058 24.4834 19.6984 24.4839H20.0478C20.0758 26.1561 20.2377 27.8233 20.532 29.4697L18.5176 27.856ZM22.2759 24.4839H24.4839V27.8226C24.4839 28.7081 24.8356 29.5573 25.4618 30.1834C26.0879 30.8095 26.9371 31.1613 27.8226 31.1613H30.0484C30.9339 31.1613 31.7831 30.8095 32.4092 30.1834C33.0353 29.5573 33.3871 28.7081 33.3871 27.8226V26.7097H35.6129V27.8226C35.6129 28.7081 35.9647 29.5573 36.5908 30.1834C37.2169 30.8095 38.0661 31.1613 38.9516 31.1613H41.1774C42.0629 31.1613 42.9121 30.8095 43.5382 30.1834C44.1644 29.5573 44.5161 28.7081 44.5161 27.8226V24.4839H46.7241C46.6377 29.5848 45.2136 34.5737 42.5941 38.9516H26.4059C23.7864 34.5737 22.3623 29.5848 22.2759 24.4839ZM14.4677 41.1774H54.5323C55.4177 41.1774 56.267 41.5292 56.8931 42.1553C57.5192 42.7814 57.871 43.6306 57.871 44.5161V66.7742H11.129V44.5161C11.129 43.6306 11.4808 42.7814 12.1069 42.1553C12.733 41.5292 13.5823 41.1774 14.4677 41.1774ZM2.22581 62.3226C2.22883 60.0676 2.85375 57.857 4.03184 55.9342C5.20992 54.0114 6.89553 52.4507 8.90323 51.4239V66.7742H2.22581V62.3226ZM66.7742 66.7742H60.0968V51.4239C62.1044 52.4508 63.7899 54.0115 64.968 55.9343C66.1461 57.8571 66.771 60.0676 66.7742 62.3226V66.7742Z" fill="#048DEF"></path><path d="M34.4985 63.4364C35.3789 63.4364 36.2396 63.1753 36.9717 62.6862C37.7037 62.197 38.2743 61.5018 38.6112 60.6884C38.9482 59.875 39.0363 58.9799 38.8646 58.1164C38.6928 57.2528 38.2688 56.4596 37.6463 55.8371C37.0237 55.2145 36.2305 54.7905 35.367 54.6187C34.5034 54.447 33.6084 54.5351 32.7949 54.8721C31.9815 55.209 31.2863 55.7796 30.7971 56.5116C30.308 57.2437 30.0469 58.1044 30.0469 58.9848C30.0469 60.1655 30.5159 61.2977 31.3507 62.1326C32.1856 62.9674 33.3178 63.4364 34.4985 63.4364ZM34.4985 56.759C34.9387 56.759 35.369 56.8896 35.7351 57.1341C36.1011 57.3787 36.3864 57.7263 36.5549 58.133C36.7233 58.5398 36.7674 58.9873 36.6815 59.4191C36.5956 59.8508 36.3837 60.2474 36.0724 60.5587C35.7611 60.87 35.3645 61.082 34.9327 61.1679C34.501 61.2537 34.0534 61.2097 33.6467 61.0412C33.24 60.8727 32.8924 60.5874 32.6478 60.2214C32.4032 59.8554 32.2727 59.425 32.2727 58.9848C32.2727 58.3945 32.5072 57.8284 32.9246 57.4109C33.342 56.9935 33.9082 56.759 34.4985 56.759Z" fill="#048DEF"></path><path d="M27.0353 53.0941L28.6089 51.5204L24.9441 47.8556L28.6089 44.1908L27.0353 42.6172L22.5837 47.0688C22.375 47.2775 22.2578 47.5605 22.2578 47.8556C22.2578 48.1507 22.375 48.4337 22.5837 48.6424L27.0353 53.0941Z" fill="#048DEF"></path><path d="M41.9643 53.0941L46.4159 48.6424C46.6245 48.4337 46.7417 48.1507 46.7417 47.8556C46.7417 47.5605 46.6245 47.2775 46.4159 47.0688L41.9643 42.6172L40.3906 44.1908L44.0554 47.8556L40.3906 51.5204L41.9643 53.0941Z" fill="#048DEF"></path><path d="M36.9487 42.7348L30.2695 51.6367L32.0499 52.9725L38.7291 44.0706L36.9487 42.7348Z" fill="#048DEF"></path></svg>