<svg xmlns="http://www.w3.org/2000/svg" width="62" height="57" viewBox="0 0 62 57" fill="none"><path fill-rule="evenodd" clip-rule="evenodd" d="M35.7104 42.9357C36.2487 42.8123 36.7852 43.1486 36.9085 43.687L38.225 49.4307C38.3484 49.969 38.012 50.5054 37.4737 50.6288C36.9354 50.7522 36.3989 50.4158 36.2755 49.8775L34.9591 44.1338C34.8357 43.5955 35.1721 43.059 35.7104 42.9357Z" fill="#0449A9"></path><path fill-rule="evenodd" clip-rule="evenodd" d="M25.9385 42.9357C26.4769 43.059 26.8132 43.5955 26.6898 44.1338L25.3734 49.8775C25.25 50.4158 24.7136 50.7522 24.1753 50.6288C23.6369 50.5054 23.3005 49.969 23.4239 49.4307L24.7404 43.687C24.8638 43.1486 25.4002 42.8123 25.9385 42.9357Z" fill="#0449A9"></path><path fill-rule="evenodd" clip-rule="evenodd" d="M51.393 10.0703C51.393 8.96574 52.2884 8.07031 53.393 8.07031H57.7901C59.92 8.07031 61.6459 9.79622 61.6459 11.9261V42.0551C61.6459 44.183 59.9208 45.9109 57.7901 45.9109H3.8558C1.72509 45.9109 0 44.183 0 42.0551V11.9261C0 9.79622 1.7259 8.07031 3.8558 8.07031H8.2529C9.35746 8.07031 10.2529 8.96574 10.2529 10.0703H3.8558C2.83047 10.0703 2 10.9008 2 11.9261V42.0551C2 43.0792 2.83047 43.9109 3.8558 43.9109H57.7901C58.8154 43.9109 59.6459 43.0792 59.6459 42.0551V11.9261C59.6459 10.9008 58.8154 10.0703 57.7901 10.0703H51.393Z" fill="#0449A9"></path><path fill-rule="evenodd" clip-rule="evenodd" d="M8.25391 38.8195C7.14934 38.8195 6.25391 37.9241 6.25391 36.8195V3.8558C6.25391 1.72509 7.98178 0 10.1097 0H11.6257C12.7302 0 13.6257 0.89543 13.6257 2C13.6257 3.10457 12.7302 4 11.6257 4H11.432L11.6257 2H10.1097C9.08554 2 8.25391 2.83047 8.25391 3.8558V36.8195L10.2539 16.1659V36.8195C10.2539 37.9241 9.35848 38.8195 8.25391 38.8195Z" fill="#0449A9"></path><path fill-rule="evenodd" clip-rule="evenodd" d="M13.6836 2C13.6836 0.89543 14.579 0 15.6836 0H51.5365C53.6645 0 55.3923 1.72509 55.3923 3.8558V36.8195C55.3923 37.9241 54.4969 38.8195 53.3923 38.8195C52.2878 38.8195 51.3923 37.9241 51.3923 36.8195V34.9727L53.3923 36.8195V3.8558C53.3923 2.83047 52.5607 2 51.5365 2H15.6836L17.8495 4H15.6836C14.579 4 13.6836 3.10457 13.6836 2Z" fill="#0449A9"></path><path fill-rule="evenodd" clip-rule="evenodd" d="M7.25391 6.23633C7.25391 5.68404 7.70162 5.23633 8.25391 5.23633H53.3933C53.9456 5.23633 54.3933 5.68404 54.3933 6.23633C54.3933 6.78861 53.9456 7.23633 53.3933 7.23633H8.25391C7.70162 7.23633 7.25391 6.78861 7.25391 6.23633Z" fill="#0449A9"></path><path fill-rule="evenodd" clip-rule="evenodd" d="M32.8828 49.6523C32.8828 48.5478 33.7782 47.6523 34.8828 47.6523H39.1499C41.2798 47.6523 43.0057 49.3782 43.0057 51.5081V53.5229C43.0057 55.0092 41.8016 56.2188 40.3098 56.2188H21.3366C19.8447 56.2188 18.6406 55.0092 18.6406 53.5229V51.5081C18.6406 49.3782 20.3665 47.6523 22.4964 47.6523H30.8232C31.9278 47.6523 32.8232 48.5478 32.8232 49.6523H22.4964C21.4711 49.6523 20.6406 50.4828 20.6406 51.5081V53.5229C20.6406 53.9068 20.9515 54.2188 21.3366 54.2188H40.3098C40.6949 54.2188 41.0057 53.9068 41.0057 53.5229V51.5081C41.0057 50.4828 40.1753 49.6523 39.1499 49.6523H32.8828Z" fill="#0449A9"></path><path fill-rule="evenodd" clip-rule="evenodd" d="M1 36.8184C1 36.2661 1.44772 35.8184 2 35.8184H59.6459C60.1982 35.8184 60.6459 36.2661 60.6459 36.8184C60.6459 37.3706 60.1982 37.8184 59.6459 37.8184H2C1.44772 37.8184 1 37.3706 1 36.8184Z" fill="#0449A9"></path><path fill-rule="evenodd" clip-rule="evenodd" d="M26.6445 40.3652C26.6445 39.8129 27.0922 39.3652 27.6445 39.3652H33.9986C34.5509 39.3652 34.9986 39.8129 34.9986 40.3652C34.9986 40.9175 34.5509 41.3652 33.9986 41.3652H27.6445C27.0922 41.3652 26.6445 40.9175 26.6445 40.3652Z" fill="#0449A9"></path><path fill-rule="evenodd" clip-rule="evenodd" d="M20.9219 13.3496C22.0264 13.3496 22.9219 14.245 22.9219 15.3496H20.9219V27.7069C20.9219 29.6103 25.3538 31.1541 30.8214 31.1541C36.2891 31.1541 40.721 29.6103 40.721 27.7069V15.3496H38.721C38.721 14.245 39.6164 13.3496 40.721 13.3496C41.8255 13.3496 42.721 14.245 42.721 15.3496V27.7069C42.721 29.021 41.9516 29.9855 41.2142 30.5926C40.4631 31.211 39.4969 31.6786 38.4793 32.033C36.4254 32.7483 33.718 33.1541 30.8214 33.1541C27.9249 33.1541 25.2174 32.7483 23.1635 32.033C22.1459 31.6786 21.1797 31.211 20.4286 30.5926C19.6912 29.9855 18.9219 29.021 18.9219 27.7069V15.3496C18.9219 14.245 19.8173 13.3496 20.9219 13.3496Z" fill="#0449A9"></path><path fill-rule="evenodd" clip-rule="evenodd" d="M20.9219 21.5879C21.9385 21.5879 22.7779 22.3464 22.9052 23.3283C22.9227 23.3445 22.9444 23.3636 22.971 23.3854C23.0462 23.4474 23.1425 23.5155 23.2613 23.5879H20.9219C20.9219 25.4912 25.3538 27.035 30.8214 27.035C36.2891 27.035 40.721 25.4912 40.721 23.5879H38.3816C38.5004 23.5155 38.5966 23.4474 38.6719 23.3854C38.6984 23.3636 38.7201 23.3445 38.7377 23.3283C38.8649 22.3464 39.7044 21.5879 40.721 21.5879C41.8255 21.5879 42.721 22.4833 42.721 23.5879C42.721 24.902 41.9516 25.8665 41.2142 26.4735C40.4631 27.0919 39.4969 27.5596 38.4793 27.914C36.4254 28.6292 33.718 29.035 30.8214 29.035C27.9249 29.035 25.2174 28.6292 23.1635 27.914C22.1459 27.5596 21.1797 27.0919 20.4286 26.4735C19.6912 25.8665 18.9219 24.902 18.9219 23.5879C18.9219 22.4833 19.8173 21.5879 20.9219 21.5879ZM38.8036 23.2581C38.8039 23.2581 38.8017 23.2616 38.7959 23.2686C38.8004 23.2616 38.8033 23.2581 38.8036 23.2581ZM22.8392 23.2581C22.8395 23.2581 22.8424 23.2616 22.8469 23.2686C22.8412 23.2616 22.8389 23.2581 22.8392 23.2581Z" fill="#0449A9"></path><path fill-rule="evenodd" clip-rule="evenodd" d="M20.9219 17.4688C21.9387 17.4688 22.7783 18.2276 22.9053 19.2098C22.9229 19.2261 22.9446 19.2453 22.9713 19.2672C23.0462 19.3289 23.1419 19.3968 23.2599 19.4688H20.9219C20.9219 21.3733 25.3538 22.9171 30.8214 22.9171C36.2891 22.9171 40.721 21.3733 40.721 19.4688H38.3829C38.501 19.3968 38.5967 19.3289 38.6716 19.2672C38.6982 19.2453 38.72 19.2261 38.7376 19.2098C38.8645 18.2276 39.7041 17.4688 40.721 17.4688C41.8255 17.4688 42.721 18.3642 42.721 19.4688C42.721 20.7827 41.9521 21.7474 41.2145 22.3548C40.4634 22.9735 39.4971 23.4413 38.4795 23.7958C36.4255 24.5113 33.7179 24.9171 30.8214 24.9171C27.9249 24.9171 25.2174 24.5113 23.1634 23.7958C22.1458 23.4413 21.1795 22.9735 20.4283 22.3548C19.6907 21.7474 18.9219 20.7827 18.9219 19.4688C18.9219 18.3642 19.8173 17.4688 20.9219 17.4688ZM38.8033 19.1398C38.8036 19.1398 38.8014 19.1433 38.7957 19.1502C38.8002 19.1433 38.803 19.1398 38.8033 19.1398ZM22.8395 19.1398C22.8398 19.1398 22.8427 19.1433 22.8472 19.1502C22.8414 19.1433 22.8392 19.1398 22.8395 19.1398Z" fill="#0449A9"></path><path fill-rule="evenodd" clip-rule="evenodd" d="M38.4796 19.6763C36.4256 20.3916 33.7181 20.7973 30.8217 20.7973C27.9252 20.7973 25.2177 20.3916 23.1637 19.6763C22.1461 19.322 21.1798 18.8543 20.4286 18.2358C19.6911 17.6285 18.9219 16.6639 18.9219 15.3498C18.9219 14.0358 19.6911 13.0712 20.4286 12.4639C21.1798 11.8454 22.1461 11.3777 23.1637 11.0233C25.2177 10.3081 27.9252 9.90234 30.8217 9.90234C33.7181 9.90234 36.4256 10.3081 38.4796 11.0233C39.4972 11.3777 40.4635 11.8454 41.2147 12.4639C41.9522 13.0712 42.7214 14.0358 42.7214 15.3498C42.7214 16.6639 41.9522 17.6285 41.2147 18.2358C40.4635 18.8543 39.4972 19.322 38.4796 19.6763ZM40.7214 15.3498C40.7214 17.2538 36.2892 18.7973 30.8217 18.7973C25.3542 18.7973 20.9219 17.2538 20.9219 15.3498C20.9219 13.4458 25.3542 11.9023 30.8217 11.9023C36.2892 11.9023 40.7214 13.4458 40.7214 15.3498Z" fill="#0449A9"></path></svg>