<svg xmlns="http://www.w3.org/2000/svg" width="68" height="68" viewBox="0 0 68 68" fill="none"><path d="M59.9218 18.2707C61.8041 15.5188 62.9669 12.8741 61.7015 11.6098C60.5172 10.4245 58.4308 11.3763 56.9646 12.1963C56.7036 12.3425 56.5114 12.5865 56.4303 12.8745C56.3492 13.1624 56.3858 13.4708 56.5321 13.7318C56.6784 13.9928 56.9223 14.185 57.2103 14.2661C57.4982 14.3472 57.8066 14.3106 58.0676 14.1643C58.6611 13.7989 59.3047 13.5219 59.9781 13.3421C59.6114 14.4792 59.065 15.5503 58.3597 16.5147C56.2197 14.5614 53.4089 13.5082 50.5122 13.5744C47.6155 13.6406 44.8558 14.821 42.8072 16.87C40.7586 18.9191 39.5788 21.679 39.5132 24.5758C39.4476 27.4725 40.5014 30.283 42.4552 32.4226C41.4908 33.1277 40.4197 33.6737 39.2826 34.0399C39.4627 33.367 39.7396 32.7238 40.1048 32.1305C40.251 31.8696 40.2876 31.5612 40.2065 31.2732C40.1254 30.9852 39.9332 30.7413 39.6723 30.595C39.4113 30.4487 39.1029 30.4121 38.8149 30.4933C38.5269 30.5744 38.283 30.7666 38.1367 31.0275C37.3168 32.4937 36.3627 34.5723 37.5503 35.7644C37.7384 35.9445 37.9612 36.0843 38.2051 36.1755C38.449 36.2666 38.709 36.3071 38.9691 36.2945C40.3574 36.2945 42.2555 35.3155 44.2067 33.9813C46.3753 35.5393 49.027 36.2759 51.6884 36.0595C54.3499 35.8431 56.8478 34.6878 58.7362 32.7999C60.6246 30.9121 61.7806 28.4145 61.9978 25.7531C62.2149 23.0917 61.4791 20.4398 59.9218 18.2707ZM58.2424 29.8377C58.0148 29.629 57.833 29.3753 57.7087 29.0926C57.5845 28.8099 57.5204 28.5044 57.5206 28.1956C57.5223 27.6121 57.75 27.052 58.1559 26.6329C58.5617 26.2138 59.1142 25.9682 59.6973 25.9478C59.5233 27.3404 59.025 28.6727 58.2424 29.8377ZM41.7311 24.8121C41.7296 23.0361 42.2527 21.2992 43.2349 19.8194C44.217 18.3397 45.6144 17.183 47.2516 16.4946C48.8887 15.8061 50.6928 15.6167 52.4373 15.9499C54.1818 16.2832 55.7889 17.1243 57.0571 18.3677C55.2244 20.7621 53.227 23.0258 51.0796 25.1425C48.9632 27.2903 46.6995 29.2877 44.3048 31.12C42.6525 29.4365 41.7282 27.171 41.7311 24.8121ZM46.1465 32.5557C48.4334 30.7427 50.6144 28.8 52.6789 26.7373C54.7424 24.6741 56.6858 22.4942 58.4996 20.2083C59.1353 21.2716 59.5436 22.4552 59.6984 23.6843C58.794 23.6975 57.9146 23.983 57.1749 24.5036C56.4351 25.0241 55.8694 25.7554 55.5515 26.6022C55.2336 27.449 55.1783 28.372 55.3927 29.2507C55.6072 30.1294 56.0815 30.9231 56.7537 31.5283C55.3286 32.8127 53.5287 33.6055 51.619 33.7899C49.7094 33.9742 47.791 33.5404 46.1465 32.5524V32.5557Z" fill="#047BDC"></path><path d="M46.2428 20.3018C45.5737 20.3018 44.9195 20.5002 44.3631 20.872C43.8067 21.2438 43.373 21.7722 43.1169 22.3904C42.8608 23.0087 42.7938 23.689 42.9244 24.3453C43.0549 25.0016 43.3772 25.6045 43.8504 26.0777C44.3236 26.5509 44.9264 26.8731 45.5828 27.0037C46.2391 27.1342 46.9194 27.0672 47.5376 26.8111C48.1559 26.5551 48.6843 26.1214 49.0561 25.565C49.4279 25.0086 49.6263 24.3544 49.6263 23.6852C49.6263 22.7879 49.2698 21.9273 48.6353 21.2928C48.0008 20.6582 47.1402 20.3018 46.2428 20.3018ZM46.2428 24.8131C46.0198 24.8131 45.8017 24.7469 45.6163 24.623C45.4308 24.4991 45.2862 24.3229 45.2009 24.1168C45.1155 23.9107 45.0932 23.684 45.1367 23.4652C45.1802 23.2464 45.2876 23.0455 45.4454 22.8877C45.6031 22.73 45.804 22.6226 46.0228 22.5791C46.2416 22.5356 46.4684 22.5579 46.6744 22.6433C46.8805 22.7286 47.0567 22.8732 47.1806 23.0586C47.3045 23.2441 47.3707 23.4622 47.3707 23.6852C47.3707 23.9843 47.2518 24.2712 47.0403 24.4827C46.8288 24.6942 46.542 24.8131 46.2428 24.8131Z" fill="#047BDC"></path><path d="M45.4402 8.69189C45.6517 8.90333 45.9386 9.0221 46.2376 9.0221C46.5367 9.0221 46.8235 8.90333 47.035 8.69189L50.4185 5.30842C50.6299 5.09692 50.7487 4.81011 50.7487 4.51105C50.7487 4.21199 50.6299 3.92518 50.4185 3.71368L47.035 0.330211C46.8235 0.118777 46.5367 0 46.2376 0C45.9386 0 45.6517 0.118777 45.4402 0.330211L42.0568 3.71368C41.8453 3.92518 41.7266 4.21199 41.7266 4.51105C41.7266 4.81011 41.8453 5.09692 42.0568 5.30842L45.4402 8.69189ZM46.2376 2.72232L48.0263 4.51105L46.2376 6.29978L44.4489 4.51105L46.2376 2.72232Z" fill="#047BDC"></path><path d="M59.7763 9.02309H66.5432C66.7527 9.02309 66.958 8.96477 67.1361 8.85465C67.3143 8.74454 67.4583 8.58699 67.552 8.39965C67.6456 8.21231 67.6853 8.00259 67.6665 7.79398C67.6477 7.58538 67.5711 7.38614 67.4455 7.21858L64.062 2.70728C63.9524 2.57407 63.8146 2.46677 63.6586 2.39311C63.5026 2.31945 63.3322 2.28125 63.1597 2.28125C62.9872 2.28125 62.8168 2.31945 62.6608 2.39311C62.5048 2.46677 62.3671 2.57407 62.2575 2.70728L58.874 7.21858C58.7483 7.38614 58.6718 7.58538 58.653 7.79398C58.6342 8.00259 58.6738 8.21231 58.7675 8.39965C58.8612 8.58699 59.0052 8.74454 59.1833 8.85465C59.3615 8.96477 59.5668 9.02309 59.7763 9.02309ZM63.1597 5.26406L64.2876 6.76745H62.0319L63.1597 5.26406Z" fill="#047BDC"></path><path d="M33.9977 20.881C34.0979 21.0477 34.2396 21.1857 34.409 21.2815C34.5784 21.3773 34.7696 21.4276 34.9642 21.4276C35.1588 21.4276 35.35 21.3773 35.5194 21.2815C35.6888 21.1857 35.8305 21.0477 35.9307 20.881L39.3142 15.2419C39.417 15.0707 39.4726 14.8754 39.4752 14.6758C39.4778 14.4762 39.4274 14.2795 39.3291 14.1057C39.2308 13.932 39.0882 13.7874 38.9158 13.6868C38.7433 13.5863 38.5473 13.5332 38.3477 13.5332H31.5807C31.3811 13.5332 31.1851 13.5863 31.0127 13.6868C30.8402 13.7874 30.6976 13.932 30.5993 14.1057C30.501 14.2795 30.4506 14.4762 30.4532 14.6758C30.4558 14.8754 30.5114 15.0707 30.6142 15.2419L33.9977 20.881ZM36.3548 15.7888L34.9642 18.1088L33.5736 15.7888H36.3548Z" fill="#047BDC"></path><path d="M64.2975 33.834C63.6283 33.834 62.9742 34.0324 62.4178 34.4042C61.8614 34.776 61.4277 35.3044 61.1716 35.9227C60.9155 36.5409 60.8485 37.2212 60.9791 37.8775C61.1096 38.5339 61.4319 39.1367 61.9051 39.6099C62.3782 40.0831 62.9811 40.4054 63.6375 40.5359C64.2938 40.6665 64.9741 40.5995 65.5923 40.3434C66.2106 40.0873 66.739 39.6536 67.1108 39.0972C67.4826 38.5408 67.681 37.8866 67.681 37.2175C67.681 36.3201 67.3245 35.4595 66.69 34.825C66.0555 34.1905 65.1949 33.834 64.2975 33.834ZM64.2975 38.3453C64.0745 38.3453 63.8564 38.2791 63.671 38.1552C63.4855 38.0313 63.3409 37.8551 63.2556 37.6491C63.1702 37.443 63.1479 37.2162 63.1914 36.9974C63.2349 36.7786 63.3423 36.5777 63.5 36.42C63.6578 36.2622 63.8587 36.1548 64.0775 36.1113C64.2963 36.0678 64.523 36.0901 64.7291 36.1755C64.9352 36.2608 65.1114 36.4054 65.2353 36.5909C65.3592 36.7763 65.4254 36.9944 65.4254 37.2175C65.4254 37.5166 65.3065 37.8034 65.095 38.0149C64.8835 38.2265 64.5967 38.3453 64.2975 38.3453Z" fill="#047BDC"></path><path d="M29.3234 65.4132H9.02259V53.3962C9.02356 50.4931 10.0411 47.6819 11.8985 45.4507L12.9779 44.1548C13.4337 45.1136 14.1513 45.924 15.0479 46.4925C15.9445 47.061 16.9835 47.3645 18.0452 47.368C18.9425 47.368 19.8031 47.0115 20.4377 46.377C21.0722 45.7425 21.4286 44.8819 21.4286 43.9845V43.9202L22.2756 44.5248C24.8191 46.3378 26.5829 49.0456 27.2133 52.1049C27.2652 52.3592 27.4033 52.5879 27.6042 52.7523C27.8052 52.9166 28.0567 53.0066 28.3163 53.0071C28.3921 53.0067 28.4676 52.9988 28.5418 52.9834C28.8346 52.9229 29.0914 52.7486 29.2557 52.4988C29.42 52.2491 29.4785 51.9443 29.4181 51.6515C28.6742 48.0347 26.5891 44.8334 23.5817 42.6909L21.4286 41.1492V40.4544L22.7053 39.9898C24.1905 39.4546 25.48 38.4843 26.4054 37.2054C27.3309 35.9264 27.8494 34.3983 27.8933 32.8202L27.9238 31.8514L30.3069 29.9589C30.5293 29.7825 30.677 29.5286 30.7205 29.2481C30.764 28.9675 30.7 28.6809 30.5415 28.4454L28.729 25.7623C29.4951 25.4098 30.1001 24.7813 30.4231 24.0023C30.7461 23.2233 30.7634 22.3512 30.4715 21.56L28.9275 17.3205C28.7766 16.9026 28.5445 16.5187 28.2444 16.191C27.9444 15.8633 27.5824 15.5982 27.1794 15.4111C27.1163 15.3818 27.0497 15.3683 26.9866 15.3435L27.776 14.1423C28.253 13.4085 28.5533 12.5741 28.6535 11.7047C28.7537 10.8353 28.651 9.95446 28.3535 9.1314L26.4249 3.83063C26.3591 3.64996 26.2482 3.48911 26.1027 3.36337C25.9572 3.23763 25.782 3.15117 25.5937 3.11221C25.4055 3.07435 25.2107 3.08468 25.0275 3.14226C24.8443 3.19984 24.6787 3.30278 24.5459 3.44153L21.8076 6.33102C21.4511 6.70841 21.0123 6.99829 20.5253 7.17801L8.96169 11.1874C6.34778 12.0931 4.04383 13.7206 2.31655 15.8814L1.23722 17.2348C0.43967 18.2337 0.00361379 19.4731 0 20.7514V21.3029C5.17307e-05 22.3252 0.278008 23.3282 0.804138 24.2048L2.19587 26.5236C1.90615 26.9363 1.70959 27.407 1.61982 27.9032C1.53004 28.3994 1.54919 28.9092 1.67595 29.3973C1.79154 29.8596 2.00349 30.2923 2.29792 30.667C2.59235 31.0417 2.96262 31.35 3.38447 31.5717C3.80633 31.7934 4.27026 31.9235 4.74587 31.9534C5.22149 31.9833 5.69806 31.9124 6.14438 31.7454L6.32596 31.6777L12.4061 37.9383V41.3217L10.1651 44.0116C7.97213 46.6475 6.77003 49.9674 6.76694 53.3962V66.541C6.76694 66.8401 6.88576 67.127 7.09727 67.3385C7.30878 67.55 7.59565 67.6688 7.89476 67.6688H29.3234C29.6225 67.6688 29.9094 67.55 30.1209 67.3385C30.3324 67.127 30.4512 66.8401 30.4512 66.541C30.4512 66.2419 30.3324 65.955 30.1209 65.7435C29.9094 65.532 29.6225 65.4132 29.3234 65.4132ZM18.0452 45.1124C17.1478 45.1124 16.2872 44.7559 15.6527 44.1214C15.0182 43.4868 14.6617 42.6262 14.6617 41.7289V40.0315C15.6501 40.8359 16.8837 41.2784 18.158 41.2856C18.4985 41.2838 18.8382 41.2513 19.173 41.1887V43.9845C19.173 44.2836 19.0542 44.5705 18.8427 44.782C18.6312 44.9935 18.3443 45.1124 18.0452 45.1124ZM26.1148 30.41C25.9861 30.5118 25.8812 30.6404 25.8074 30.7869C25.7336 30.9334 25.6926 31.0942 25.6873 31.2582L25.6433 32.7063H23.6843C23.3852 32.7063 23.0983 32.8251 22.8868 33.0366C22.6753 33.2481 22.5565 33.535 22.5565 33.8341C22.5565 34.1332 22.6753 34.4201 22.8868 34.6316C23.0983 34.8431 23.3852 34.9619 23.6843 34.9619H25.1042C24.7937 35.6318 24.3537 36.2337 23.8096 36.7329C23.2655 37.2321 22.628 37.6187 21.9339 37.8706L19.3219 38.8225C18.7314 39.0397 18.0918 39.0871 17.4758 38.9591C16.8598 38.8311 16.292 38.5329 15.8369 38.0984L14.7294 37.0507L14.9651 36.374C15.5118 34.8156 15.7905 33.1758 15.7895 31.5243V28.1397L18.3362 27.1867C18.6531 27.5709 19.0507 27.8805 19.5008 28.0938C19.9508 28.307 20.4423 28.4186 20.9403 28.4206C21.3334 28.4209 21.7236 28.3522 22.0929 28.2176L26.5659 26.589L28.0907 28.8446L26.1148 30.41ZM18.3711 20.316C18.4338 20.1817 18.5224 20.0611 18.6317 19.9611C18.741 19.861 18.869 19.7835 19.0083 19.7329L20.2602 19.2818C20.2602 19.6661 20.3258 20.0475 20.4542 20.4096L21.9926 24.6469C22.1251 25.0078 22.319 25.3432 22.5655 25.6382L21.3181 26.0894C21.0365 26.1892 20.727 26.1741 20.4564 26.0475C20.1859 25.9208 19.976 25.6928 19.8723 25.4127L18.3305 21.1743C18.2303 20.8941 18.2449 20.5856 18.3711 20.316ZM28.3557 22.3303C28.4064 22.4697 28.429 22.6177 28.4224 22.7658C28.4158 22.9139 28.3801 23.0593 28.3172 23.1936C28.2544 23.3279 28.1656 23.4485 28.0561 23.5484C27.9466 23.6484 27.8185 23.7258 27.679 23.7762L25.5587 24.5487C25.2772 24.6492 24.9674 24.6344 24.6967 24.5077C24.4259 24.381 24.2161 24.1526 24.1129 23.8721L22.5711 19.6326C22.5205 19.4932 22.4978 19.3452 22.5044 19.1971C22.511 19.049 22.5468 18.9036 22.6097 18.7693C22.6725 18.635 22.7612 18.5144 22.8707 18.4145C22.9802 18.3145 23.1084 18.2371 23.2478 18.1867L25.3659 17.4141C25.49 17.3697 25.6209 17.3468 25.7527 17.3465C25.984 17.3466 26.2097 17.4179 26.3992 17.5507C26.5886 17.6834 26.7326 17.8712 26.8117 18.0886L28.3557 22.3303ZM2.25565 20.7514C2.25677 19.9828 2.51837 19.2374 2.99775 18.6367L4.07821 17.2833C5.53991 15.4575 7.4888 14.0831 9.69928 13.319L21.2786 9.30396C22.1005 9.0033 22.8416 8.51654 23.4441 7.88178L24.9249 6.31523L26.2298 9.89832C26.408 10.3922 26.4695 10.9207 26.4094 11.4423C26.3493 11.964 26.1693 12.4646 25.8835 12.9051L24.2482 15.4269L22.482 16.0698H22.4753L18.2369 17.6126C17.5782 17.8489 17.0103 18.2858 16.6129 18.8618C16.2156 19.4378 16.0088 20.1239 16.0219 20.8235L4.03761 25.213L2.73836 23.0476C2.42256 22.5217 2.25571 21.9197 2.25565 21.3063V20.7514ZM4.4346 29.5766C4.28141 29.4924 4.14877 29.3753 4.0462 29.2337C3.94363 29.0921 3.87368 28.9296 3.84137 28.7578C3.77368 28.4876 3.80835 28.202 3.9387 27.9558C4.06905 27.7097 4.28587 27.5205 4.54738 27.4247L16.6016 23.0127L17.3741 25.1386L5.35378 29.6364C5.20534 29.6927 5.0466 29.7168 4.88812 29.7071C4.72964 29.6974 4.57504 29.6541 4.4346 29.58V29.5766ZM13.5339 28.9845V31.5334C13.5342 32.801 13.3399 34.0612 12.9576 35.2698L8.63236 30.8183L13.5339 28.9845Z" fill="#047BDC"></path><path d="M55.4852 42.8571H47.9773L46.5416 40.7029C46.2346 40.2424 45.7963 39.8847 45.2835 39.6765C44.7707 39.4682 44.2071 39.4189 43.666 39.5351C43.1248 39.6512 42.6311 39.9274 42.2489 40.3277C41.8667 40.728 41.6137 41.2341 41.5228 41.78L40.7006 46.7154L31.6972 53.0199C30.6743 53.7204 29.4666 54.1018 28.227 54.1158C26.9873 54.1299 25.7713 53.776 24.7329 53.0988L19.8054 49.8135C19.5565 49.6475 19.2519 49.5871 18.9585 49.6457C18.6652 49.7043 18.4071 49.877 18.2411 50.1259C18.0751 50.3748 18.0147 50.6794 18.0733 50.9728C18.1319 51.2661 18.3046 51.5242 18.5535 51.6902L23.481 54.9755C24.8996 55.8986 26.56 56.3806 28.2524 56.3605C29.9448 56.3404 31.5933 55.8192 32.9896 54.8628L41.4878 48.9135L43.5393 51.6541L33.7453 58.9996C32.0967 60.2309 30.0951 60.8981 28.0374 60.9023C26.16 60.9047 24.3243 60.3488 22.7637 59.3053L15.293 54.3248C15.0441 54.1588 14.7395 54.0984 14.4461 54.157C14.1528 54.2156 13.8947 54.3883 13.7287 54.6372C13.5627 54.8861 13.5023 55.1907 13.5609 55.484C13.6195 55.7774 13.7922 56.0355 14.0411 56.2015L21.5118 61.182C23.4429 62.4731 25.7144 63.1609 28.0374 63.1579C30.5827 63.153 33.0585 62.3275 35.0976 60.8041L45.6122 52.9184L49.201 52.0161C49.7265 51.8865 50.2403 51.7133 50.7371 51.4985L56.7348 48.9349C57.4054 48.6476 57.9562 48.1375 58.2942 47.4909C58.6321 46.8443 58.7364 46.1008 58.5895 45.3862C58.4426 44.6716 58.0534 44.0296 57.4878 43.5688C56.9222 43.108 56.2148 42.8566 55.4852 42.8571ZM55.845 46.862L49.8461 49.4312C49.4605 49.5969 49.0622 49.7316 48.6551 49.8338L45.5705 50.6041L42.9269 47.0774L43.748 42.1499C43.7722 42.0553 43.8225 41.9694 43.893 41.9018C43.9635 41.8342 44.0515 41.7876 44.147 41.7673C44.2426 41.747 44.3419 41.7538 44.4338 41.787C44.5257 41.8201 44.6065 41.8782 44.6671 41.9548L46.4378 44.612C46.5408 44.7659 46.68 44.892 46.8433 44.9794C47.0065 45.0667 47.1888 45.1125 47.3739 45.1127H55.4852C55.6953 45.1123 55.8991 45.1846 56.0621 45.3172C56.225 45.4498 56.3372 45.6346 56.3795 45.8404C56.4218 46.0462 56.3917 46.2603 56.2943 46.4465C56.1969 46.6326 56.0382 46.7794 55.845 46.862Z" fill="#047BDC"></path></svg>