<svg xmlns="http://www.w3.org/2000/svg" width="74" height="72" viewBox="0 0 74 72" fill="none"><mask id="mask0_248_196" style="mask-type:luminance" maskUnits="userSpaceOnUse" x="-1" y="-2" width="76" height="76"><path d="M1 0H72.666V71.666H1V0Z" fill="white" stroke="white" stroke-width="3"></path></mask><g mask="url(#mask0_248_196)"><path d="M13.4805 13.8359C14.6644 12.481 15.9557 11.2235 17.3412 10.0767" stroke="#0369CA" stroke-width="3" stroke-miterlimit="10" stroke-linecap="round" stroke-linejoin="round"></path><path d="M6.08984 28.291C6.92562 24.6569 8.3525 21.2501 10.263 18.1784" stroke="#0369CA" stroke-width="3" stroke-miterlimit="10" stroke-linecap="round" stroke-linejoin="round"></path><path d="M17.1315 61.4121C9.86158 55.2945 5.23828 46.1055 5.23828 35.8314C5.23828 35.4412 5.245 35.0525 5.25816 34.6656" stroke="#0369CA" stroke-width="3" stroke-miterlimit="10" stroke-linecap="round" stroke-linejoin="round"></path><path d="M54.5055 65.0116C49.7416 67.6685 44.2584 69.1816 38.4237 69.1816C32.6088 69.1816 27.1433 67.6789 22.3906 65.0386" stroke="#0369CA" stroke-width="3" stroke-miterlimit="10" stroke-linecap="round" stroke-linejoin="round"></path><path d="M66.565 18.1459C69.7627 23.2727 71.6114 29.3358 71.6114 35.8327C71.6114 46.0919 67.0017 55.2691 59.75 61.3867" stroke="#0369CA" stroke-width="3" stroke-miterlimit="10" stroke-linecap="round" stroke-linejoin="round"></path><path d="M59.2227 9.83738C60.4508 10.8306 61.6072 11.9101 62.6826 13.0664" stroke="#0369CA" stroke-width="3" stroke-miterlimit="10" stroke-linecap="round" stroke-linejoin="round"></path><path d="M22.5977 6.51172C27.3016 3.94252 32.6929 2.48302 38.4234 2.48302C44.0068 2.48302 49.2682 3.86861 53.8856 6.31618" stroke="#0369CA" stroke-width="3" stroke-miterlimit="10" stroke-linecap="round" stroke-linejoin="round"></path><path d="M41.2031 14.1406C44.9411 11.8144 49.0588 9.9861 53.4839 8.76567" stroke="#0369CA" stroke-width="3" stroke-miterlimit="10" stroke-linecap="round" stroke-linejoin="round"></path><path d="M27.6094 27C30.0005 23.6066 32.8372 20.5263 36.0556 17.8557" stroke="#0369CA" stroke-width="3" stroke-miterlimit="10" stroke-linecap="round" stroke-linejoin="round"></path><path d="M19.3095 60.0234C18.1148 50.2563 20.0036 40.7226 24.2701 32.4954" stroke="#0369CA" stroke-width="3" stroke-miterlimit="10" stroke-linecap="round" stroke-linejoin="round"></path><path d="M35.6447 14.1406C31.7804 11.7358 27.5102 9.86306 22.9141 8.6439" stroke="#0369CA" stroke-width="3" stroke-miterlimit="10" stroke-linecap="round" stroke-linejoin="round"></path><path d="M53.8075 35.0312C50.8552 28.4038 46.4072 22.508 40.8008 17.8559" stroke="#0369CA" stroke-width="3" stroke-miterlimit="10" stroke-linecap="round" stroke-linejoin="round"></path><path d="M57.3911 47.3535C57.0761 45.2224 56.6144 43.1135 56.0117 41.0454" stroke="#0369CA" stroke-width="3" stroke-miterlimit="10" stroke-linecap="round" stroke-linejoin="round"></path><path d="M57.5273 60.1797C57.8049 57.9685 57.9284 55.7385 57.8938 53.5101" stroke="#0369CA" stroke-width="3" stroke-miterlimit="10" stroke-linecap="round" stroke-linejoin="round"></path><path d="M22.8121 29.081C18.0312 29.0566 13.1782 29.5696 8.32812 30.6641" stroke="#0369CA" stroke-width="3" stroke-miterlimit="10" stroke-linecap="round" stroke-linejoin="round"></path><path d="M52.2485 36.4277C45.1308 32.6963 37.3109 30.2877 29.1758 29.4294" stroke="#0369CA" stroke-width="3" stroke-miterlimit="10" stroke-linecap="round" stroke-linejoin="round"></path><path d="M68.9334 48.9785C65.5543 45.4501 61.7983 42.3302 57.75 39.6688" stroke="#0369CA" stroke-width="3" stroke-miterlimit="10" stroke-linecap="round" stroke-linejoin="round"></path><path d="M56.625 35.2148C59.7556 30.1754 62.2239 24.6531 63.8956 18.7585" stroke="#0369CA" stroke-width="3" stroke-miterlimit="10" stroke-linecap="round" stroke-linejoin="round"></path><path d="M22.8125 62.2324C34.8107 58.0945 45.3102 50.4758 52.9951 40.4618" stroke="#0369CA" stroke-width="3" stroke-miterlimit="10" stroke-linecap="round" stroke-linejoin="round"></path><path d="M38.4298 18.9219C36.6699 18.9219 35.2383 17.4832 35.2383 15.7147C35.2383 13.9463 36.6699 12.5076 38.4298 12.5076C40.1897 12.5076 41.6213 13.9463 41.6213 15.7147C41.6213 17.4832 40.1897 18.9219 38.4298 18.9219Z" stroke="#0369CA" stroke-width="3" stroke-miterlimit="10" stroke-linecap="round" stroke-linejoin="round"></path><path d="M26.004 33.0137C24.2441 33.0137 22.8125 31.5749 22.8125 29.8065C22.8125 28.0381 24.2441 26.5993 26.004 26.5993C27.7639 26.5993 29.1955 28.0381 29.1955 29.8065C29.1955 31.5749 27.7639 33.0137 26.004 33.0137Z" stroke="#0369CA" stroke-width="3" stroke-miterlimit="10" stroke-linecap="round" stroke-linejoin="round"></path><path d="M55.0314 41.1992C53.2715 41.1992 51.8398 39.7604 51.8398 37.992C51.8398 36.2236 53.2715 34.7848 55.0314 34.7848C56.7912 34.7848 58.2229 36.2236 58.2229 37.992C58.2229 39.7604 56.7912 41.1992 55.0314 41.1992Z" stroke="#0369CA" stroke-width="3" stroke-miterlimit="10" stroke-linecap="round" stroke-linejoin="round"></path><path d="M19.7892 66.3984C18.0293 66.3984 16.5977 64.9598 16.5977 63.1912C16.5977 61.4228 18.0293 59.9842 19.7892 59.9842C21.5491 59.9842 22.9808 61.4228 22.9808 63.1912C22.9808 64.9598 21.5491 66.3984 19.7892 66.3984Z" stroke="#0369CA" stroke-width="3" stroke-miterlimit="10" stroke-linecap="round" stroke-linejoin="round"></path><path d="M57.2462 66.582C55.4863 66.582 54.0547 65.1433 54.0547 63.3748C54.0547 61.6064 55.4863 60.1676 57.2462 60.1676C59.0061 60.1676 60.4379 61.6064 60.4379 63.3748C60.4379 65.1433 59.0061 66.582 57.2462 66.582Z" stroke="#0369CA" stroke-width="3" stroke-miterlimit="10" stroke-linecap="round" stroke-linejoin="round"></path><path d="M64.6917 18.7598C62.9318 18.7598 61.5 17.321 61.5 15.5526C61.5 13.7842 62.9318 12.3454 64.6917 12.3454C66.4515 12.3454 67.8832 13.7842 67.8832 15.5526C67.8832 17.321 66.4515 18.7598 64.6917 18.7598Z" stroke="#0369CA" stroke-width="3" stroke-miterlimit="10" stroke-linecap="round" stroke-linejoin="round"></path><path d="M56.59 11.2285C54.8301 11.2285 53.3984 9.78988 53.3984 8.02132C53.3984 6.25291 54.8301 4.81427 56.59 4.81427C58.3498 4.81427 59.7816 6.25291 59.7816 8.02132C59.7816 9.78988 58.3498 11.2285 56.59 11.2285Z" stroke="#0369CA" stroke-width="3" stroke-miterlimit="10" stroke-linecap="round" stroke-linejoin="round"></path><path d="M19.7892 11.2285C18.0293 11.2285 16.5977 9.78988 16.5977 8.02132C16.5977 6.25291 18.0293 4.81427 19.7892 4.81427C21.5491 4.81427 22.9808 6.25291 22.9808 8.02132C22.9808 9.78988 21.5491 11.2285 19.7892 11.2285Z" stroke="#0369CA" stroke-width="3" stroke-miterlimit="10" stroke-linecap="round" stroke-linejoin="round"></path><path d="M5.23839 34.666C3.47852 34.666 2.04688 33.2274 2.04688 31.4588C2.04688 29.6904 3.47852 28.2518 5.23839 28.2518C6.99827 28.2518 8.42991 29.6904 8.42991 31.4588C8.42991 33.2274 6.99827 34.666 5.23839 34.666Z" stroke="#0369CA" stroke-width="3" stroke-miterlimit="10" stroke-linecap="round" stroke-linejoin="round"></path></g></svg>