<svg xmlns="http://www.w3.org/2000/svg" width="74" height="80" viewBox="0 0 74 80" fill="none"><path d="M73.1466 24.5898L49.3829 0.855628C48.5451 0.0188355 47.2967 -0.229578 46.2028 0.223304C45.1083 0.676185 44.4007 1.73331 44.4007 2.91618V16.1413H10.2319C8.62225 16.1413 7.31329 17.4487 7.31329 19.0563V34.2456C7.31329 35.8526 8.62225 37.1606 10.2319 37.1606H14.9984L0.853395 51.2878C-0.284465 52.4243 -0.284465 54.2737 0.853395 55.4101L7.87733 62.4255C8.10649 62.6544 8.40715 62.7685 8.70719 62.7685C9.00724 62.7685 9.3079 62.6544 9.53706 62.4255C9.99538 61.9678 9.99538 61.2262 9.53706 60.7684L2.51313 53.753C2.29008 53.5302 2.29008 53.1677 2.51313 52.9449L26.2768 29.2108C26.52 28.9672 26.7938 29.0429 26.8995 29.0869C27.0058 29.1308 27.2527 29.27 27.2527 29.6148V44.0112C27.2527 44.6588 27.7777 45.1831 28.426 45.1831H35.2905C35.9388 45.1831 36.4638 44.6588 36.4638 44.0112C36.4638 43.3642 35.9388 42.8393 35.2905 42.8393H29.5993V37.1606H44.4007V42.8393H40.6913C40.0429 42.8393 39.518 43.3642 39.518 44.0112C39.518 44.6588 40.0429 45.1831 40.6913 45.1831H44.4007V50.3851C44.4007 51.568 45.1083 52.6251 46.2022 53.078C46.5658 53.2287 46.9459 53.3014 47.3223 53.3014C48.0801 53.3014 48.8232 53.0053 49.3829 52.4463L56.655 45.1831H63.7681C64.0835 45.1831 64.3401 45.4394 64.3401 45.7544V60.9436C64.3401 61.2585 64.0835 61.5149 63.7681 61.5149H28.426C27.7777 61.5149 27.2527 62.0392 27.2527 62.6867V77.0831C27.2527 77.428 27.0058 77.5671 26.8995 77.6111C26.7932 77.655 26.52 77.7307 26.2768 77.4872L13.3564 64.5825C12.8975 64.1247 12.155 64.1247 11.6967 64.5825C11.2384 65.0403 11.2384 65.7825 11.6967 66.2396L24.6171 79.1443C25.1768 79.7034 25.9199 80 26.6783 80C27.0547 80 27.4348 79.9268 27.7978 79.7766C28.8923 79.3237 29.5993 78.2666 29.5993 77.0831V63.8586H63.7681C65.3777 63.8586 66.6873 62.5506 66.6873 60.9436V45.7544C66.6873 44.1473 65.3777 42.8393 63.7681 42.8393H59.0022L63.0281 38.8189C63.4858 38.3605 63.4858 37.619 63.0281 37.1612C62.5698 36.7034 61.8267 36.7034 61.3684 37.1612L47.7238 50.7892C47.4806 51.0327 47.2068 50.957 47.1005 50.9131C46.9948 50.8691 46.7479 50.7293 46.7479 50.3851V35.9887C46.7479 35.3411 46.2223 34.8168 45.5746 34.8168H29.5993V29.6148C29.5993 28.4313 28.8923 27.3748 27.7978 26.9219C26.7033 26.4684 25.4549 26.7169 24.6171 27.5537L17.345 34.8168H10.2319C9.91655 34.8168 9.65989 34.5605 9.65989 34.2456V19.0563C9.65989 18.7414 9.91655 18.485 10.2319 18.485H45.574C46.2223 18.485 46.7473 17.9607 46.7473 17.3132V2.91618C46.7473 2.57194 46.9942 2.43278 47.1005 2.38883C47.2062 2.34428 47.48 2.26859 47.7238 2.51273L71.4869 26.2469C71.7099 26.4697 71.7099 26.8322 71.4869 27.0544L65.1871 33.3465C64.7288 33.8043 64.7288 34.5465 65.1871 35.0042C65.6454 35.4614 66.3879 35.4614 66.8468 35.0042L73.1466 28.7121C74.2845 27.5756 74.2845 25.7263 73.1466 24.5898Z" fill="#0369CA"></path></svg>