<svg xmlns="http://www.w3.org/2000/svg" width="44" height="54" viewBox="0 0 44 54" fill="none"><path d="M30.8461 18.6141C31.2273 19.7153 31.4179 20.8694 31.4179 22.0447C31.4179 22.5106 31.0473 22.8812 30.5814 22.8812C30.1156 22.8812 29.745 22.5106 29.745 22.0447C29.745 21.06 29.5861 20.0859 29.2685 19.1647C28.3897 16.6129 26.4203 14.6223 23.8685 13.7118C23.4344 13.5529 23.2015 13.0765 23.3603 12.6423C23.5191 12.2082 23.9956 11.9753 24.4297 12.1341C27.4579 13.2141 29.7979 15.5753 30.8461 18.6141ZM34.6473 22.8282C34.4461 26.5553 32.7732 29.9753 29.9356 32.4423C27.7438 34.3482 26.452 37.08 26.3144 40.0129C29.0462 39.8541 30.5179 43.2953 28.5379 45.1376C30.465 46.9164 29.1309 50.2941 26.4732 50.2623H25.5838C25.6685 52.2847 24.0485 54 22.0156 54H15.6944C13.6615 54.0105 12.0415 52.2847 12.1262 50.2623H11.2368C8.57911 50.2941 7.24499 46.9164 9.17205 45.1376C7.47793 43.6235 8.29323 40.6058 10.4956 40.1188C10.0615 39.6529 9.71205 39.1023 9.47911 38.4882C5.48735 38.7847 2.45912 34.6764 3.77206 30.96C-1.25735 28.6835 -1.25735 21.3035 3.77206 19.027C2.45912 15.3212 5.48735 11.2129 9.47911 11.4988C11.385 6.44823 18.8497 7.73999 18.9132 13.1718V36.8153C18.9132 38.0435 18.4579 39.1553 17.7062 40.0129H20.0567V10.207C20.0356 9.13764 21.0309 8.20587 22.1003 8.32234C29.3532 8.84117 35.1767 15.5647 34.6473 22.8282ZM12.4226 34.1788C12.592 34.6129 12.3697 35.0894 11.9356 35.2588C11.7132 35.3435 11.5226 35.46 11.3744 35.6188C10.7391 36.2541 10.9085 37.3023 10.9297 37.4294C11.7238 41.1988 17.1873 40.68 17.2615 36.8258V13.1823C17.2403 9.76234 12.5709 8.77764 11.1732 11.8694C12.2956 12.0918 15.6203 14.9294 13.2379 15.4588C12.4332 15.4376 12.2744 14.3788 11.6285 14.0188C8.4944 11.5306 4.02617 14.94 5.39205 18.5612C6.9697 18.3282 8.61088 18.9741 9.62734 20.1917C9.92381 20.5412 9.88146 21.0706 9.52146 21.367C9.17205 21.6635 8.64264 21.6212 8.34617 21.2612C8.12382 20.9965 7.63676 20.52 6.86382 20.2976C6.11205 20.0753 5.45558 20.2129 5.13794 20.3082C0.817941 21.5788 0.46853 27.72 4.57676 29.4882C5.13794 28.5882 8.44146 26.0682 9.02382 27.8259C9.14029 28.2706 8.86499 28.7259 8.42029 28.8423C3.66617 30.0176 4.32264 36.6988 9.22499 36.8258C9.24617 36.127 9.43676 35.1847 10.1885 34.4329C10.7285 33.8717 11.9779 33.1411 12.4226 34.1788ZM23.9214 50.2623H13.8097C13.725 51.3635 14.5932 52.327 15.705 52.327H22.0262C23.1379 52.3376 23.9956 51.3635 23.9214 50.2623ZM27.7861 47.287C27.7861 46.567 27.2038 45.9741 26.4732 45.9741H11.2579C10.5379 45.9741 9.94499 46.5564 9.94499 47.287C9.94499 48.007 10.5273 48.6 11.2579 48.6H26.4838C27.1932 48.5894 27.7861 48.007 27.7861 47.287ZM11.2579 41.6858C9.53205 41.7282 9.53205 44.2588 11.2579 44.3011H26.4838C27.2038 44.3011 27.7967 43.7188 27.7967 42.9882C27.7967 42.2682 27.2144 41.6753 26.4838 41.6753H11.2579V41.6858ZM21.952 9.9847C21.8038 9.99529 21.7403 10.0482 21.7191 10.207V40.0129H24.6203C24.7685 36.5929 26.2826 33.3953 28.8344 31.1823C36.892 24.2894 32.4661 10.8423 21.952 9.9847ZM32.7097 11.5306L36.5744 7.66588C37.3367 6.88235 36.1826 5.71764 35.3885 6.47999L31.5238 10.3447C30.7614 11.1388 31.9261 12.2929 32.7097 11.5306ZM42.2391 21.3353H36.7756C35.6744 21.3565 35.6744 22.987 36.7756 23.0082H42.2391C43.3403 22.987 43.3403 21.3565 42.2391 21.3353ZM32.7097 32.8023C31.9261 32.04 30.7614 33.1941 31.5238 33.9882L35.3885 37.8529C36.1826 38.6153 37.3367 37.4611 36.5744 36.667L32.7097 32.8023ZM21.7297 6.28941V0.825882C21.7085 -0.275294 20.0779 -0.275294 20.0567 0.825882V6.28941C20.0779 7.39058 21.7085 7.39058 21.7297 6.28941Z" fill="#047BDC"></path></svg>