<svg xmlns="http://www.w3.org/2000/svg" width="62" height="62" viewBox="0 0 62 62" fill="none"><path d="M28.2323 50.4822H33.2962C33.5065 50.4822 33.7081 50.3987 33.8568 50.25C34.0055 50.1013 34.0891 49.8996 34.0891 49.6894C34.0891 49.4791 34.0055 49.2774 33.8568 49.1287C33.7081 48.98 33.5065 48.8965 33.2962 48.8965H28.2323C28.022 48.8965 27.8204 48.98 27.6717 49.1287C27.523 49.2774 27.4395 49.4791 27.4395 49.6894C27.4395 49.8996 27.523 50.1013 27.6717 50.25C27.8204 50.3987 28.022 50.4822 28.2323 50.4822Z" fill="#048DEF"></path><path d="M33.9834 36.8828H33.1112C32.901 36.8828 32.6993 36.9663 32.5506 37.115C32.4019 37.2637 32.3184 37.4654 32.3184 37.6757C32.3184 37.886 32.4019 38.0876 32.5506 38.2363C32.6993 38.385 32.901 38.4686 33.1112 38.4686H33.9834C34.1937 38.4686 34.3954 38.385 34.5441 38.2363C34.6927 38.0876 34.7763 37.886 34.7763 37.6757C34.7763 37.4654 34.6927 37.2637 34.5441 37.115C34.3954 36.9663 34.1937 36.8828 33.9834 36.8828Z" fill="#048DEF"></path><path d="M30.7903 36.8828H27.5448C27.3345 36.8828 27.1329 36.9663 26.9842 37.115C26.8355 37.2637 26.752 37.4654 26.752 37.6757C26.752 37.886 26.8355 38.0876 26.9842 38.2363C27.1329 38.385 27.3345 38.4686 27.5448 38.4686H30.7903C31.0006 38.4686 31.2023 38.385 31.351 38.2363C31.4997 38.0876 31.5832 37.886 31.5832 37.6757C31.5832 37.4654 31.4997 37.2637 31.351 37.115C31.2023 36.9663 31.0006 36.8828 30.7903 36.8828Z" fill="#048DEF"></path><path d="M61.5274 28.6727V17.4984C61.526 16.5049 61.1307 15.5524 60.4282 14.8499C59.7256 14.1474 58.7732 13.7521 57.7797 13.7507H50.6544C51.0857 12.6142 51.3077 11.4089 51.3098 10.1933C51.3404 8.86589 51.1053 7.54573 50.6185 6.31043C50.1316 5.07512 49.4028 3.94958 48.4748 2.99995C47.5468 2.05031 46.4383 1.29574 45.2146 0.780561C43.9908 0.265385 42.6764 0 41.3486 0C40.0208 0 38.7064 0.265385 37.4827 0.780561C36.2589 1.29574 35.1504 2.05031 34.2224 2.99995C33.2944 3.94958 32.5656 5.07512 32.0787 6.31043C31.5919 7.54573 31.3568 8.86589 31.3874 10.1933C31.3895 11.4089 31.6115 12.6142 32.0429 13.7507H29.5321C29.9634 12.6142 30.1854 11.4089 30.1875 10.1933C30.2181 8.86589 29.9831 7.54573 29.4962 6.31043C29.0094 5.07512 28.2805 3.94958 27.3525 2.99995C26.4245 2.05031 25.316 1.29574 24.0923 0.780561C22.8685 0.265385 21.5541 0 20.2263 0C18.8985 0 17.5842 0.265385 16.3604 0.780561C15.1366 1.29574 14.0282 2.05031 13.1002 2.99995C12.1721 3.94958 11.4433 5.07512 10.9565 6.31043C10.4696 7.54573 10.2346 8.86589 10.2651 10.1933C10.2672 11.4089 10.4893 12.6142 10.9206 13.7507H3.74767C2.75416 13.7521 1.80173 14.1474 1.09921 14.8499C0.39669 15.5524 0.00139833 16.5049 0 17.4984C0 33.0494 0 13.127 0 50.5878C0.00139833 51.5813 0.39669 52.5338 1.09921 53.2363C1.80173 53.9388 2.75416 54.3341 3.74767 54.3355H23.0146V60.4142H18.7384C18.5281 60.4142 18.3264 60.4978 18.1777 60.6465C18.029 60.7952 17.9455 60.9968 17.9455 61.2071C17.9455 61.4174 18.029 61.6191 18.1777 61.7678C18.3264 61.9165 18.5281 62 18.7384 62H42.8524C43.0627 62 43.2644 61.9165 43.4131 61.7678C43.5618 61.6191 43.6453 61.4174 43.6453 61.2071C43.6453 60.9968 43.5618 60.7952 43.4131 60.6465C43.2644 60.4978 43.0627 60.4142 42.8524 60.4142H38.5762V54.3355H57.7797C58.7732 54.3341 59.7256 53.9388 60.4282 53.2363C61.1307 52.5338 61.526 51.5813 61.5274 50.5878V29.5871C61.5274 29.4338 61.5274 29.2858 61.5274 29.1325C61.5274 28.9792 61.5326 28.826 61.5274 28.6727ZM41.3354 1.81524C42.9946 1.81105 44.6177 2.2993 45.9992 3.21816C47.3808 4.13703 48.4586 5.44518 49.0962 6.97697C49.7338 8.50877 49.9025 10.1953 49.581 11.8231C49.2595 13.4508 48.4622 14.9466 47.2901 16.1209C46.118 17.2952 44.6237 18.0954 42.9966 18.42C41.3695 18.7445 39.6826 18.579 38.1496 17.9443C36.6166 17.3096 35.3064 16.2343 34.3849 14.8545C33.4635 13.4747 32.9721 11.8525 32.9732 10.1933C32.976 7.97491 33.8574 5.84793 35.4245 4.2778C36.9917 2.70766 39.117 1.82222 41.3354 1.81524ZM32.8199 15.3365C33.7346 16.8416 35.0312 18.078 36.5781 18.9203L30.7637 26.2359L24.9492 18.9573C26.5093 18.116 27.8146 16.8709 28.7286 15.3523L32.8199 15.3365ZM30.7637 40.1958H24.6004V31.5217H36.927V40.1958H33.9828C33.8024 40.1973 33.6276 40.2587 33.4859 40.3703L31.5566 41.956V40.9887C31.5566 40.7784 31.473 40.5768 31.3243 40.4281C31.1756 40.2794 30.974 40.1958 30.7637 40.1958ZM20.229 1.81524C21.8875 1.81419 23.5091 2.30511 24.8885 3.22589C26.268 4.14666 27.3433 5.45591 27.9785 6.98798C28.6136 8.52006 28.7801 10.2061 28.4568 11.8328C28.1335 13.4595 27.3349 14.9538 26.1622 16.1265C24.9894 17.2993 23.4952 18.0978 21.8685 18.4211C20.2418 18.7444 18.5557 18.578 17.0236 17.9428C15.4916 17.3076 14.1823 16.2323 13.2615 14.8529C12.3408 13.4734 11.8498 11.8518 11.8509 10.1933C11.8537 7.97217 12.7373 5.8428 14.3079 4.27221C15.8785 2.70162 18.0078 1.81803 20.229 1.81524ZM1.58576 17.4984C1.58576 16.925 1.81353 16.3751 2.21897 15.9697C2.6244 15.5642 3.1743 15.3365 3.74767 15.3365H11.6765C12.8555 17.2887 14.6684 18.7776 16.8125 19.5548C18.9566 20.3321 21.3025 20.3506 23.4586 19.6074L29.1198 26.701H19.6052C19.1306 24.8273 18.12 23.1325 16.6972 21.8241C15.2744 20.5156 13.501 19.6503 11.5941 19.334C9.68717 19.0177 7.7294 19.2641 5.96033 20.043C4.19125 20.8219 2.68759 22.0997 1.63333 23.7198L1.58576 17.4984ZM1.58576 28.6727C1.70486 26.4935 2.66958 24.4468 4.27465 22.9681C5.87973 21.4894 7.99846 20.6954 10.1801 20.7549C12.3616 20.8145 14.4339 21.723 15.9559 23.2871C17.4778 24.8512 18.3294 26.9475 18.3294 29.1299C18.3294 31.3123 17.4778 33.4086 15.9559 34.9727C14.4339 36.5368 12.3616 37.4453 10.1801 37.5049C7.99846 37.5644 5.87973 36.7704 4.27465 35.2917C2.66958 33.8129 1.70486 31.7663 1.58576 29.5871V28.6727ZM37.001 60.4142H24.6004V54.3355H36.9904L37.001 60.4142ZM59.9522 50.5878C59.9522 51.1612 59.7244 51.7111 59.319 52.1165C58.9135 52.522 58.3636 52.7497 57.7903 52.7497H3.74767C3.1743 52.7497 2.6244 52.522 2.21897 52.1165C1.81353 51.7111 1.58576 51.1612 1.58576 50.5878V46.4173H59.9416L59.9522 50.5878ZM59.9522 44.8315H1.58576V34.54C2.75252 36.3435 4.47144 37.7212 6.48575 38.4672C8.50007 39.2133 10.7017 39.2877 12.7618 38.6793C14.8218 38.0709 16.6298 36.8124 17.9157 35.0917C19.2015 33.371 19.8962 31.2806 19.896 29.1325C19.896 28.8471 19.896 28.5617 19.8537 28.2868H29.9761V29.9466H23.8075C23.5972 29.9466 23.3955 30.0301 23.2468 30.1788C23.0982 30.3275 23.0146 30.5292 23.0146 30.7394V40.9887C23.0146 41.199 23.0982 41.4007 23.2468 41.5494C23.3955 41.6981 23.5972 41.7816 23.8075 41.7816H29.9708V42.696C29.9688 42.9298 30.0333 43.1593 30.1569 43.3577C30.2804 43.5562 30.4579 43.7153 30.6685 43.8167C30.8704 43.9162 31.0964 43.9561 31.3202 43.9318C31.5439 43.9074 31.7561 43.8198 31.9319 43.6792L34.2629 41.7975H37.7199C37.9302 41.7975 38.1318 41.7139 38.2805 41.5652C38.4292 41.4165 38.5127 41.2149 38.5127 41.0046V30.7394C38.5127 30.5292 38.4292 30.3275 38.2805 30.1788C38.1318 30.0301 37.9302 29.9466 37.7199 29.9466H31.583V28.2868H41.6737C41.6737 28.5617 41.6314 28.8471 41.6314 29.1325C41.6312 31.2806 42.3259 33.371 43.6117 35.0917C44.8975 36.8124 46.7055 38.0709 48.7656 38.6793C50.8257 39.2877 53.0273 39.2133 55.0416 38.4672C57.0559 37.7212 58.7748 36.3435 59.9416 34.54L59.9522 44.8315ZM59.9522 29.5871C59.8331 31.7663 58.8684 33.8129 57.2633 35.2917C55.6582 36.7704 53.5395 37.5644 51.3579 37.5049C49.1763 37.4453 47.1041 36.5368 45.5821 34.9727C44.0601 33.4086 43.2085 31.3123 43.2085 29.1299C43.2085 26.9475 44.0601 24.8512 45.5821 23.2871C47.1041 21.723 49.1763 20.8145 51.3579 20.7549C53.5395 20.6954 55.6582 21.4894 57.2633 22.9681C58.8684 24.4468 59.8331 26.4935 59.9522 28.6727V29.5871ZM59.9522 23.7198C58.8979 22.0997 57.3943 20.8219 55.6252 20.043C53.8561 19.2641 51.8983 19.0177 49.9914 19.334C48.0845 19.6503 46.3112 20.5156 44.8883 21.8241C43.4655 23.1325 42.4549 24.8273 41.9803 26.701H32.4657L38.0582 19.5916C40.2143 20.3501 42.5658 20.3439 44.7179 19.5739C46.87 18.8039 48.6918 17.3171 49.8773 15.3629H57.8061C58.3795 15.3629 58.9294 15.5907 59.3348 15.9961C59.7403 16.4015 59.968 16.9514 59.968 17.5248L59.9522 23.7198Z" fill="#048DEF"></path><path d="M27.5448 35.0955H28.417C28.6273 35.0955 28.829 35.012 28.9776 34.8633C29.1263 34.7146 29.2099 34.5129 29.2099 34.3026C29.2099 34.0924 29.1263 33.8907 28.9776 33.742C28.829 33.5933 28.6273 33.5098 28.417 33.5098H27.5448C27.3345 33.5098 27.1329 33.5933 26.9842 33.742C26.8355 33.8907 26.752 34.0924 26.752 34.3026C26.752 34.5129 26.8355 34.7146 26.9842 34.8633C27.1329 35.012 27.3345 35.0955 27.5448 35.0955Z" fill="#048DEF"></path><path d="M30.7636 35.0955H34.0091C34.2194 35.0955 34.4211 35.012 34.5697 34.8633C34.7184 34.7146 34.802 34.5129 34.802 34.3026C34.802 34.0924 34.7184 33.8907 34.5697 33.742C34.4211 33.5933 34.2194 33.5098 34.0091 33.5098H30.7636C30.5533 33.5098 30.3516 33.5933 30.2029 33.742C30.0542 33.8907 29.9707 34.0924 29.9707 34.3026C29.9707 34.5129 30.0542 34.7146 30.2029 34.8633C30.3516 35.012 30.5533 35.0955 30.7636 35.0955Z" fill="#048DEF"></path><path d="M38.4285 15.9589H43.9786C44.5684 15.9575 45.1336 15.7226 45.5506 15.3056C45.9677 14.8885 46.2026 14.3233 46.204 13.7336V10.9426C46.2026 10.3529 45.9677 9.78765 45.5506 9.37062C45.1336 8.95359 44.5684 8.71869 43.9786 8.71729H41.1718L41.7004 7.18968C41.8241 6.67407 41.7496 6.13081 41.4916 5.66758C41.2336 5.20435 40.811 4.85496 40.3075 4.68868C39.804 4.52241 39.2564 4.55138 38.7733 4.76985C38.2901 4.98832 37.9067 5.38034 37.699 5.86821L36.8797 8.34728C36.6534 9.02928 36.5374 9.74305 36.5361 10.4616V14.0349C36.5347 14.5401 36.7326 15.0256 37.0869 15.3858C37.4412 15.746 37.9233 15.952 38.4285 15.9589ZM38.1008 10.4722C38.1012 9.91887 38.1905 9.36921 38.365 8.84415L39.1844 6.36508C39.2433 6.25813 39.3375 6.17488 39.4509 6.1295C39.5643 6.08413 39.6899 6.07941 39.8063 6.11615C39.9228 6.1529 40.0229 6.22885 40.0897 6.33108C40.1566 6.43331 40.1859 6.55552 40.1728 6.67695L39.6019 8.39485C39.531 8.61136 39.5123 8.84159 39.5475 9.0667C39.5826 9.29181 39.6705 9.5054 39.8041 9.68999C39.9376 9.87458 40.113 10.0249 40.3158 10.1287C40.5186 10.2325 40.7431 10.2868 40.971 10.2872H43.9786C44.1483 10.2872 44.3109 10.3546 44.4309 10.4745C44.5508 10.5945 44.6182 10.7571 44.6182 10.9268V13.7177C44.6203 13.803 44.6054 13.8879 44.5742 13.9673C44.543 14.0468 44.4962 14.1192 44.4366 14.1803C44.377 14.2413 44.3058 14.2899 44.2271 14.323C44.1485 14.3561 44.064 14.3732 43.9786 14.3732H38.4285C38.3416 14.3732 38.2582 14.3386 38.1967 14.2772C38.1353 14.2157 38.1008 14.1323 38.1008 14.0454V10.4722Z" fill="#048DEF"></path><path d="M17.4063 15.3687H23.0463C23.6697 15.3687 24.2678 15.1217 24.7096 14.6819C25.1514 14.2421 25.401 13.6452 25.4038 13.0217V7.37645C25.4038 6.75072 25.1556 6.15053 24.7136 5.70758C24.2717 5.26462 23.6721 5.01507 23.0463 5.01367H17.4063C16.7806 5.01507 16.181 5.26462 15.739 5.70758C15.297 6.15053 15.0488 6.75072 15.0488 7.37645V13.0217C15.0516 13.6452 15.3012 14.2421 15.743 14.6819C16.1849 15.1217 16.7829 15.3687 17.4063 15.3687ZM16.6346 7.37645C16.6346 7.17128 16.7157 6.97444 16.8603 6.82887C17.0049 6.6833 17.2012 6.60082 17.4063 6.59943H23.0463C23.2515 6.60082 23.4478 6.6833 23.5924 6.82887C23.7369 6.97444 23.8181 7.17128 23.8181 7.37645V10.5744L23.1362 10.0035C22.995 9.88663 22.8174 9.82267 22.634 9.82267C22.4507 9.82267 22.2731 9.88663 22.1319 10.0035L20.7893 11.0607L19.1718 9.36922C19.033 9.23173 18.8484 9.1503 18.6533 9.14055C18.4582 9.13079 18.2664 9.1934 18.1146 9.31636L16.661 10.548L16.6346 7.37645ZM16.6346 12.6623L18.5428 11.0395L20.1285 12.7152C20.2659 12.8539 20.4493 12.9375 20.6441 12.9502C20.8389 12.9629 21.0316 12.9037 21.1857 12.7839L22.5865 11.658L23.7863 12.6623V13.0217C23.7863 13.2264 23.705 13.4227 23.5603 13.5674C23.4156 13.7122 23.2193 13.7935 23.0146 13.7935H17.4063C17.2016 13.7935 17.0053 13.7122 16.8606 13.5674C16.7159 13.4227 16.6346 13.2264 16.6346 13.0217V12.6623Z" fill="#048DEF"></path><path d="M56.5905 25.9926C56.4085 25.8862 56.2014 25.8302 55.9906 25.8302C55.7797 25.8302 55.5727 25.8862 55.3906 25.9926L54.1802 26.6639C54.1802 26.2433 54.0131 25.84 53.7157 25.5426C53.4183 25.2452 53.015 25.0781 52.5944 25.0781H47.5887C47.1681 25.0781 46.7648 25.2452 46.4674 25.5426C46.17 25.84 46.0029 26.2433 46.0029 26.6639V31.6273C46.0029 32.0479 46.17 32.4512 46.4674 32.7486C46.7648 33.046 47.1681 33.2131 47.5887 33.2131H52.5838C53.0044 33.2131 53.4077 33.046 53.7051 32.7486C54.0025 32.4512 54.1696 32.0479 54.1696 31.6273L55.3748 32.2986C55.5593 32.4003 55.7671 32.4523 55.9778 32.4495C56.1885 32.4466 56.3948 32.3891 56.5766 32.2825C56.7583 32.1759 56.9093 32.0239 57.0146 31.8414C57.1199 31.6589 57.1759 31.4521 57.1772 31.2414V27.0392C57.1794 26.8287 57.1263 26.6213 57.0234 26.4377C56.9204 26.254 56.7712 26.1006 56.5905 25.9926ZM52.5838 31.6379H47.5781V26.6322H52.5732L52.5838 31.6379ZM55.602 30.5807L54.1802 29.7931V28.4611L55.6073 27.6735L55.602 30.5807Z" fill="#048DEF"></path><path d="M6.52233 32.3571H7.62179L9.85242 33.8425C10.0815 33.9969 10.3483 34.0861 10.6243 34.1005C10.9002 34.1149 11.1748 34.0539 11.4187 33.924C11.6626 33.7942 11.8666 33.6004 12.0088 33.3635C12.151 33.1266 12.226 32.8555 12.2258 32.5791V32.3783H13.3517C13.9353 32.3769 14.4946 32.144 14.9068 31.7308C15.3191 31.3176 15.5506 30.7578 15.5506 30.1741V26.363C15.5506 25.7798 15.3189 25.2205 14.9065 24.8081C14.4941 24.3957 13.9348 24.1641 13.3517 24.1641H6.52233C5.94097 24.1669 5.38438 24.3998 4.97429 24.8118C4.5642 25.2239 4.33398 25.7816 4.33398 26.363V30.1529C4.33397 30.7348 4.56402 31.293 4.97396 31.706C5.38391 32.1189 5.94049 32.353 6.52233 32.3571ZM5.91974 26.363C5.91974 26.2004 5.98434 26.0444 6.09933 25.9294C6.21432 25.8144 6.37028 25.7498 6.5329 25.7498H13.3517C13.5143 25.7498 13.6702 25.8144 13.7852 25.9294C13.9002 26.0444 13.9648 26.2004 13.9648 26.363V30.1529C13.9648 30.316 13.9004 30.4726 13.7855 30.5884C13.6707 30.7042 13.5148 30.77 13.3517 30.7714H11.4276C11.3228 30.7707 11.219 30.7909 11.1221 30.8308C11.0252 30.8707 10.9373 30.9296 10.8635 31.0039C10.7897 31.0782 10.7314 31.1665 10.6921 31.2637C10.6528 31.3608 10.6333 31.4648 10.6347 31.5695V32.4576L8.29838 30.9035C8.16874 30.8164 8.01585 30.7703 7.85965 30.7714H6.52233C6.36107 30.7672 6.20781 30.7003 6.09524 30.5847C5.98267 30.4692 5.91969 30.3142 5.91974 30.1529V26.363Z" fill="#048DEF"></path></svg>