<svg xmlns="http://www.w3.org/2000/svg" width="68" height="69" viewBox="0 0 68 69" fill="none"><path d="M6.2889 49.6094V52.7269C6.2889 53.1317 5.96501 53.4421 5.57364 53.4421C5.16877 53.4421 4.85838 53.1182 4.85838 52.7269V49.6094C4.85838 49.2045 5.18227 48.8941 5.57364 48.8941C5.96501 48.8807 6.2889 49.2045 6.2889 49.6094ZM8.74508 48.8806C8.34021 48.8806 8.02981 49.2045 8.02981 49.5959V52.7134C8.02981 53.1182 8.35371 53.4286 8.74508 53.4286C9.14994 53.4286 9.46034 53.1047 9.46034 52.7134V49.5959C9.46034 49.2045 9.14994 48.8806 8.74508 48.8806ZM11.93 48.8806C11.5251 48.8806 11.2147 49.2045 11.2147 49.5959V52.7134C11.2147 53.1182 11.5386 53.4286 11.93 53.4286C12.3214 53.4286 12.6453 53.1047 12.6453 52.7134V49.5959C12.6453 49.2045 12.3214 48.8806 11.93 48.8806ZM46.276 58.9753C46.276 59.3801 45.9521 59.6905 45.5608 59.6905H42.3623C42.5108 60.9456 42.3893 62.3357 41.728 63.7392C40.338 66.7217 36.7347 68.8 32.9695 68.8C32.5511 68.8 32.1328 68.773 31.7279 68.719C31.5794 68.7595 31.4175 68.7865 31.2555 68.7865H9.12295C8.71808 68.7865 8.40769 68.4626 8.40769 68.0712C8.40769 67.6799 8.73158 67.356 9.12295 67.356H27.6388C27.5308 67.2885 27.4228 67.221 27.3149 67.1535C25.2501 65.8175 23.7251 63.6717 23.5496 61.175C23.5361 60.9186 23.5226 60.6487 23.5361 60.3923C23.5361 60.3788 23.5361 60.3518 23.5361 60.3383H1.75441C1.57897 60.3383 1.44402 60.4733 1.44402 60.6487V67.0591C1.44402 67.221 1.57897 67.3695 1.75441 67.3695H5.56014C5.96501 67.3695 6.2754 67.6934 6.2754 68.0847C6.2754 68.4761 5.95151 68.8 5.56014 68.8H1.75441C0.782738 68.8 0 68.0173 0 67.0591V60.6487C0 59.6905 0.782738 58.9078 1.75441 58.9078H3.02299V56.1142H1.75441C0.782738 56.1142 0 55.3315 0 54.3598V47.9495C0 46.9913 0.782738 46.2085 1.75441 46.2085H3.02299V43.415H1.75441C0.985171 43.415 0.310396 42.9291 0.0809729 42.1869C0.026991 42.0384 0 41.8495 0 41.6606V35.2502C0 34.292 0.782738 33.5093 1.75441 33.5093H9.52781V29.1907C9.52781 28.7994 9.85171 28.4755 10.2431 28.4755C10.6479 28.4755 10.9583 28.7994 10.9583 29.1907V33.5093H20.999C21.4038 33.5093 21.7142 33.8332 21.7142 34.2246C21.7142 34.6159 21.3903 34.9398 20.999 34.9398H1.75441C1.57897 34.9398 1.44402 35.0748 1.44402 35.2502V41.6606C1.44402 41.6741 1.45751 41.755 1.45751 41.755C1.498 41.8765 1.61946 41.9575 1.75441 41.9575H31.2555C31.431 41.9575 31.5659 41.8225 31.5659 41.6471V35.2367C31.5659 35.0613 31.431 34.9263 31.2555 34.9263H25.1961C24.7912 34.9263 24.4808 34.6024 24.4808 34.2111C24.4808 33.8197 24.8047 33.4958 25.1961 33.4958H31.2555C32.2137 33.4958 32.9965 34.2785 32.9965 35.2367V41.6471C32.9965 42.6053 32.2137 43.388 31.2555 43.388H29.987V46.1816H30.4188C31.0531 45.1424 31.7819 44.1572 32.6186 43.226C32.848 42.9696 33.2394 42.9156 33.5363 43.1046C33.8332 43.2935 33.9546 43.6579 33.8197 43.9818C33.1989 45.5338 32.956 47.0318 33.1314 48.3948C33.2394 49.3125 33.5498 50.1897 34.0086 50.959C34.2515 51.3638 34.5484 51.7417 34.8858 52.0656C34.9533 52.1331 35.2367 52.376 35.4796 52.5919C35.7495 52.214 35.9655 51.7957 36.0869 51.3638C36.2084 50.9185 36.2354 50.5541 36.2354 50.4461C36.2489 50.2302 36.2354 50.0143 36.2084 49.7983C36.1679 49.461 36.3703 49.1506 36.6942 49.0291C37.0181 48.9211 37.369 49.0426 37.5444 49.3395L38.0573 50.1762C38.921 51.5663 39.7982 53.0103 40.5539 54.4813C40.9453 55.264 41.2422 55.8983 41.4986 56.5056C41.7011 57.0049 41.917 57.5852 42.0789 58.2195H45.5608C45.9521 58.26 46.276 58.5839 46.276 58.9753ZM4.45351 46.2085H28.543V43.415H4.45351V46.2085ZM24.2379 56.1142H4.45351V58.9078H23.6576C23.6711 58.8538 23.6711 58.7998 23.6846 58.7459C23.8195 57.8821 23.995 57.0184 24.2109 56.1682C24.2244 56.1547 24.2244 56.1277 24.2379 56.1142ZM24.9532 53.9415C25.2231 53.3881 25.412 52.7808 25.6684 52.2275C25.8439 51.8497 26.0328 51.4313 26.5186 51.4583C26.91 51.4718 27.2204 51.8092 27.2204 52.2005C27.2069 52.9023 27.3419 53.6311 27.6253 54.2788C27.6792 54.4003 27.7332 54.5083 27.7872 54.6162C27.8007 54.4678 27.8142 54.3193 27.8277 54.1709C28.0031 51.9441 28.5969 49.7444 29.5821 47.7335C29.5956 47.7065 29.6091 47.6796 29.6091 47.6661H1.75441C1.57897 47.6661 1.44402 47.801 1.44402 47.9765V54.3868C1.44402 54.5623 1.57897 54.6972 1.75441 54.6972H24.6697C24.7507 54.4273 24.8587 54.1844 24.9532 53.9415ZM36.9641 62.646C36.9641 62.6326 36.9506 62.5786 36.9506 62.5786C36.8832 62.2142 36.8022 61.8633 36.6807 61.4854C36.4648 61.8093 36.2084 62.1062 35.898 62.3492C35.6821 62.5381 35.3717 62.5651 35.1153 62.4301C34.8588 62.2952 34.7104 62.0253 34.7239 61.7419C34.7644 61.1615 34.7509 60.5677 34.6699 59.9874C34.5484 59.1642 34.319 58.3545 33.9546 57.5852C33.8602 58.179 33.6442 58.7593 33.3339 59.2587C33.1449 59.5556 32.929 59.839 32.6861 60.0819C31.9033 60.8511 31.6604 60.8512 31.4985 60.8512C31.3095 60.8512 31.1206 60.7702 30.9856 60.6352C30.7697 60.4058 30.5808 60.1629 30.4188 59.893C30.1759 60.3113 29.933 60.7162 29.7171 61.1346C29.5146 61.5394 29.3527 61.8633 29.2312 62.1602C28.7184 63.4153 28.6644 64.36 29.0828 65.2237C29.5821 66.2628 30.9991 67.3695 32.9695 67.3695C34.6834 67.3695 36.2219 66.5058 36.8832 65.1697C37.234 64.4409 37.1801 63.6987 36.9641 62.646ZM40.1491 57.0859C39.9197 56.5191 39.6362 55.9118 39.2584 55.1695C38.7051 54.0899 38.0708 53.0103 37.423 51.9441C37.1666 52.7404 36.7077 53.4826 36.1004 54.1169C35.9655 54.2519 35.7765 54.3328 35.5876 54.3328C35.4526 54.3328 35.0883 54.3328 33.8602 53.1047C33.4418 52.6864 33.0774 52.2275 32.7805 51.7282C32.2137 50.797 31.8359 49.7039 31.7009 48.5972C31.6334 48.0439 31.6199 47.4906 31.6604 46.9103C31.5794 47.0453 31.4985 47.1802 31.4175 47.3152C29.906 49.9333 29.1098 52.9428 29.2177 55.9658C29.2312 56.4381 29.3392 57.0184 28.8533 57.2748C28.7454 57.3153 28.6644 57.3423 28.5699 57.3423C28.1921 57.3693 27.8682 57.0724 27.6388 56.816C27.0989 56.2357 26.6401 55.5609 26.3162 54.8322C26.2892 54.7782 26.2757 54.7242 26.2487 54.6702C26.2352 54.6567 26.2352 54.6297 26.2217 54.6162C26.1003 54.9536 25.9923 55.2775 25.8843 55.6014C25.3985 57.0724 25.0611 58.6784 24.9936 60.2169C24.9532 61.0266 25.0206 61.8633 25.304 62.6326C25.6414 63.5637 26.3027 64.4275 27.0315 65.1022C27.1394 65.1967 27.2339 65.2912 27.3419 65.3856L27.7062 65.669C27.045 64.0901 27.4903 62.6056 27.8952 61.6069C28.0436 61.2695 28.2056 60.9051 28.435 60.4598C28.8534 59.6366 29.3662 58.8403 29.852 58.0711L30.1354 57.6122C30.3109 57.3288 30.6752 57.2074 30.9856 57.3153C31.3095 57.4233 31.4985 57.7472 31.458 58.0846C31.4445 58.1655 31.4445 58.2735 31.4445 58.3815C31.4445 58.4355 31.458 58.6109 31.512 58.8133C31.539 58.9078 31.5794 59.0023 31.6199 59.0967C31.6334 59.0832 31.6604 59.0697 31.6604 59.0563C31.8224 58.8943 31.9708 58.7054 32.0923 58.5029C32.3352 58.1251 32.4836 57.6797 32.5376 57.2209C32.6186 56.5191 32.4971 55.7634 32.1732 54.9536C32.0383 54.6297 32.1597 54.2654 32.4566 54.0764C32.7535 53.8875 33.1314 53.9415 33.3743 54.1979C34.6699 55.5879 35.5471 57.2344 35.9385 58.9888C36.0329 58.8133 36.1949 58.6784 36.3973 58.6244C36.7212 58.5434 37.0586 58.7054 37.2206 59.0023C37.7739 60.1089 38.1517 61.229 38.3542 62.2952C38.5701 63.3478 38.732 64.5219 38.2057 65.696C39.2314 64.9403 39.9871 64.0226 40.4055 63.1454C41.2287 61.4045 41.1477 59.5421 40.1491 57.0859ZM4.84488 36.8967V40.0141C4.84488 40.419 5.16877 40.7294 5.56014 40.7294C5.96501 40.7294 6.2754 40.4055 6.2754 40.0141V36.8967C6.2754 36.4918 5.95151 36.1814 5.56014 36.1814C5.16877 36.1814 4.84488 36.5053 4.84488 36.8967ZM8.02981 36.8967V40.0141C8.02981 40.419 8.35371 40.7294 8.74508 40.7294C9.14994 40.7294 9.46034 40.4055 9.46034 40.0141V36.8967C9.46034 36.4918 9.13645 36.1814 8.74508 36.1814C8.35371 36.1814 8.02981 36.5053 8.02981 36.8967ZM11.2147 36.8967V40.0141C11.2147 40.419 11.5386 40.7294 11.93 40.7294C12.3214 40.7294 12.6453 40.4055 12.6453 40.0141V36.8967C12.6453 36.4918 12.3214 36.1814 11.93 36.1814C11.5386 36.1814 11.2147 36.5053 11.2147 36.8967ZM5.56014 61.5799C5.15528 61.5799 4.84488 61.9038 4.84488 62.2952V65.4126C4.84488 65.8175 5.16877 66.1279 5.56014 66.1279C5.96501 66.1279 6.2754 65.804 6.2754 65.4126V62.2952C6.2889 61.9038 5.96501 61.5799 5.56014 61.5799ZM9.46034 65.4126V62.2952C9.46034 61.8903 9.13645 61.5799 8.74508 61.5799C8.34021 61.5799 8.02981 61.9038 8.02981 62.2952V65.4126C8.02981 65.8175 8.35371 66.1279 8.74508 66.1279C9.14994 66.1414 9.46034 65.8175 9.46034 65.4126ZM12.6453 65.4126V62.2952C12.6453 61.8903 12.3214 61.5799 11.93 61.5799C11.5386 61.5799 11.2147 61.9038 11.2147 62.2952V65.4126C11.2147 65.8175 11.5386 66.1279 11.93 66.1279C12.3214 66.1279 12.6453 65.8175 12.6453 65.4126ZM59.9874 8.3807C59.92 8.3807 59.839 8.3807 59.7715 8.3807C59.704 6.51832 59.0967 4.76391 58.0171 3.2929C57.7742 2.96901 57.3288 2.90153 57.0049 3.14445C56.681 3.38737 56.6136 3.83272 56.8565 4.15661C57.8282 5.46567 58.341 7.04464 58.341 8.71808C58.341 8.81255 58.341 8.89353 58.3275 8.98799L58.314 9.16344C58.3005 9.37936 58.395 9.59529 58.5569 9.73025C58.7189 9.8787 58.9348 9.93268 59.1507 9.90569C59.4881 9.85171 59.7445 9.82471 60.0009 9.82471C63.1049 9.82471 65.6151 12.5643 65.6151 15.9247C65.6151 19.2851 63.0914 22.0246 60.0009 22.0246H59.2182C59.2182 21.9707 59.2317 21.9302 59.2317 21.8762C59.2452 21.7547 59.2587 21.6468 59.2722 21.5253C59.2992 21.2824 59.2992 21.0395 59.3127 20.7965C59.3127 20.7426 59.3262 20.6886 59.3262 20.6346C59.3262 14.818 54.5892 10.0811 48.7727 10.0811C44.913 10.0811 41.5391 12.1729 39.7037 15.2634C38.5431 17.2202 38.0438 19.5145 38.2867 21.7682C38.3002 21.8492 38.3002 21.9302 38.3137 22.0111H33.2259C30.9856 22.0111 29.1503 20.0273 29.1503 17.5846C29.1503 17.1932 28.8264 16.8694 28.435 16.8694C28.0436 16.8694 27.7197 17.1932 27.7197 17.5846C27.7197 20.8235 30.1894 23.4552 33.2259 23.4552H38.6106C38.975 24.7912 39.6093 26.0328 40.4865 27.1529C40.7294 27.4633 41.1882 27.5173 41.4986 27.2744C41.809 27.0315 41.863 26.5726 41.6201 26.2622C39.4068 23.4552 39.0559 19.4605 40.7564 16.3025C40.7564 16.3025 40.7564 16.2891 40.7699 16.2891C40.7969 16.2486 40.8104 16.2216 40.8373 16.1811C42.4028 13.401 45.3718 11.5251 48.7862 11.5251C53.8065 11.5251 57.8956 15.6143 57.8956 20.6346C57.8956 21.2959 57.8282 21.9572 57.6797 22.5779C56.789 26.6671 53.1317 29.7441 48.7862 29.7441C46.8158 29.7441 44.9535 29.1233 43.3745 27.9626C43.0506 27.7197 42.6053 27.7872 42.3623 28.1111C42.1194 28.435 42.1869 28.8803 42.5108 29.1233C44.1437 30.3244 46.0466 31.0261 48.0574 31.1611V35.5066C48.0574 35.9115 48.3813 36.2219 48.7727 36.2219C49.1641 36.2219 49.4879 35.898 49.4879 35.5066V31.1476C54.0089 30.8372 57.7472 27.6792 58.9213 23.4552H60.0009C63.9011 23.4552 67.0591 20.0678 67.0591 15.9247C67.0456 11.7681 63.8741 8.3807 59.9874 8.3807ZM49.6634 13.6979C49.3665 13.6574 49.0561 13.6439 48.7457 13.6439C45.1964 13.6439 42.2814 16.2756 41.89 19.7844L41.4042 19.2176C41.1477 18.9207 40.6889 18.8802 40.392 19.1501C40.0951 19.4065 40.0546 19.8654 40.3245 20.1623L41.998 22.0921C42.1329 22.2406 42.3218 22.335 42.5243 22.335H42.5513C42.7402 22.335 42.9291 22.2541 43.0641 22.1191L44.7915 20.3647C45.0749 20.0813 45.0749 19.6224 44.7915 19.3525C44.5081 19.0691 44.0493 19.0691 43.7659 19.3525L43.3475 19.7709C43.7119 17.1123 46.0331 15.061 48.7457 15.061C48.9886 15.061 49.2315 15.0745 49.4745 15.1149C49.8658 15.1689 50.2302 14.8855 50.2842 14.4942C50.3382 14.1028 50.0548 13.7519 49.6634 13.6979ZM54.2114 20.5266C54.2114 20.4861 54.2249 20.4592 54.2384 20.4187L53.6581 21.026C53.3881 21.3094 52.9293 21.3229 52.6459 21.0395C52.3625 20.7696 52.349 20.3107 52.6324 20.0273L54.4138 18.1919C54.5488 18.0435 54.7377 17.976 54.9536 17.976C55.1561 17.976 55.345 18.0705 55.4799 18.2189L57.1129 20.0543C57.3828 20.3512 57.3558 20.81 57.0589 21.0665C56.924 21.1879 56.7485 21.2419 56.5866 21.2419C56.3841 21.2419 56.1952 21.1609 56.0468 20.999L55.6824 20.5941C55.6419 24.3594 52.5649 27.4228 48.7862 27.4228C48.6782 27.4228 48.5838 27.4228 48.4758 27.4228C48.0844 27.4093 47.774 27.0719 47.7875 26.6671C47.801 26.2757 48.1654 25.9788 48.5433 25.9788H48.7862C51.7552 25.9923 54.2114 23.5361 54.2114 20.5266ZM54.8052 19.8384C54.8457 19.8249 54.8861 19.8114 54.9266 19.8114H54.9401L54.8861 19.7439L54.8052 19.8384ZM10.2566 27.018C10.6614 27.018 10.9718 26.6941 10.9718 26.3027V21.2554C10.9718 20.864 10.6479 20.5401 10.2566 20.5401C9.85171 20.5401 9.54131 20.864 9.54131 21.2554V26.3027C9.52781 26.6941 9.85171 27.018 10.2566 27.018ZM10.2566 11.1743C10.6614 11.1743 10.9718 10.8504 10.9718 10.459V9.37936H13.4955C13.9004 9.37936 14.2107 9.05547 14.2107 8.6641C14.2107 8.27273 13.8869 7.94884 13.4955 7.94884H10.2566C9.85171 7.94884 9.54131 8.27273 9.54131 8.6641V10.459C9.52781 10.8504 9.85171 11.1743 10.2566 11.1743ZM10.2566 19.0961C10.6614 19.0961 10.9718 18.7722 10.9718 18.3809V13.3335C10.9718 12.9422 10.6479 12.6183 10.2566 12.6183C9.85171 12.6183 9.54131 12.9422 9.54131 13.3335V18.3809C9.52781 18.7722 9.85171 19.0961 10.2566 19.0961ZM32.2272 9.36587H33.9277C33.5903 10.0811 33.3608 10.8774 33.2799 11.7141C31.3095 11.6736 29.5011 12.7397 28.4755 14.5346C28.273 14.8855 28.3945 15.3174 28.7454 15.5198C28.8534 15.5873 28.9748 15.6143 29.0963 15.6143C29.3527 15.6143 29.5956 15.4793 29.7171 15.2499C30.4728 13.9408 31.7549 13.1581 33.1719 13.1581C33.3743 13.1581 33.5903 13.1716 33.8332 13.2256C34.0356 13.2661 34.2515 13.1986 34.4135 13.0636C34.5754 12.9287 34.6699 12.7262 34.6699 12.5103V12.4428C34.6699 9.43335 36.9371 6.97717 39.7172 6.97717C41.2017 6.97717 42.6053 7.67893 43.5634 8.92052C43.7524 9.16343 44.0628 9.2579 44.3597 9.16344C44.6431 9.06897 44.8455 8.79906 44.859 8.50216C44.9805 4.54798 47.936 1.44402 51.5798 1.44402C52.7134 1.44402 53.8335 1.75441 54.8187 2.34821C55.1561 2.55065 55.6014 2.44268 55.8038 2.0918C56.0063 1.75441 55.8983 1.30906 55.5474 1.10663C54.3328 0.391369 52.9698 0 51.5663 0C47.6256 0 44.3597 2.92852 43.5769 6.90969C42.4703 6.03248 41.1207 5.54665 39.7037 5.54665C37.7469 5.54665 35.9925 6.47783 34.8049 7.94884H32.2002C31.7954 7.94884 31.485 8.27273 31.485 8.6641C31.485 9.05547 31.8359 9.36587 32.2272 9.36587ZM24.3054 9.36587H29.3527C29.7575 9.36587 30.0679 9.04198 30.0679 8.65061C30.0679 8.25924 29.7441 7.93535 29.3527 7.93535H24.3054C23.9005 7.93535 23.5901 8.25924 23.5901 8.65061C23.5901 9.04198 23.9005 9.36587 24.3054 9.36587ZM16.3835 9.36587H21.4308C21.8357 9.36587 22.1461 9.04198 22.1461 8.65061C22.1461 8.25924 21.8222 7.93535 21.4308 7.93535H16.3835C15.9787 7.93535 15.6683 8.25924 15.6683 8.65061C15.6683 9.04198 15.9787 9.36587 16.3835 9.36587ZM48.7457 45.6012C48.3408 45.6012 48.0304 45.9251 48.0304 46.3165V51.3638C48.0304 51.7687 48.3543 52.0791 48.7457 52.0791C49.1371 52.0791 49.461 51.7552 49.461 51.3638V46.3165C49.461 45.9116 49.1371 45.6012 48.7457 45.6012ZM48.7457 37.6659C48.3408 37.6659 48.0304 37.9898 48.0304 38.3812V43.4285C48.0304 43.8333 48.3543 44.1437 48.7457 44.1437C49.1371 44.1437 49.461 43.8198 49.461 43.4285V38.3812C49.461 37.9898 49.1371 37.6659 48.7457 37.6659ZM48.7457 53.5231C48.3408 53.5231 48.0304 53.847 48.0304 54.2384V58.3815C47.8415 58.5164 47.72 58.7324 47.72 58.9753C47.72 59.3801 48.0439 59.6905 48.4353 59.6905H48.7457C49.1506 59.6905 49.461 59.3666 49.461 58.9753V54.2384C49.461 53.847 49.1371 53.5231 48.7457 53.5231Z" fill="#0449A9"></path></svg>