<svg xmlns="http://www.w3.org/2000/svg" width="83" height="83" viewBox="0 0 83 83" fill="none"><path d="M18.7422 26.7743V29.8533C18.7422 30.6565 19.2777 31.192 20.0809 31.192C20.8841 31.192 21.4196 30.6565 21.4196 29.8533V26.7743C21.4196 25.971 20.8841 25.4355 20.0809 25.4355C19.2777 25.4355 18.7422 25.971 18.7422 26.7743Z" fill="#047BDC"></path><path d="M25.3019 80.3208H22.8922C22.2228 80.3208 21.4196 79.7853 21.4196 78.8482V53.6805C21.4196 52.8773 20.8841 52.3418 20.0809 52.3418C19.2777 52.3418 18.7422 52.8773 18.7422 53.6805V78.8482C18.7422 81.124 20.6164 82.9982 22.8922 82.9982H25.3019C26.1051 82.9982 26.6406 82.4627 26.6406 81.6595C26.6406 80.8563 25.9712 80.3208 25.3019 80.3208Z" fill="#047BDC"></path><path d="M62.919 68.1406C62.1158 68.1406 61.5803 68.6761 61.5803 69.4793V78.8503C61.5803 79.5196 61.0448 80.3229 60.1077 80.3229H30.5223C29.7191 80.3229 29.1836 80.8583 29.1836 81.6616C29.1836 82.4648 29.7191 83.0003 30.5223 83.0003H60.1077C62.3835 83.0003 64.2577 81.1261 64.2577 78.8503V69.4793C64.2577 68.6761 63.7223 68.1406 62.919 68.1406Z" fill="#047BDC"></path><path d="M61.5801 42.8387V45.7839C61.5801 46.5871 62.1156 47.1226 62.9188 47.1226C63.722 47.1226 64.2575 46.5871 64.2575 45.7839V42.8387C64.2575 42.0355 63.722 41.5 62.9188 41.5C62.1156 41.5 61.5801 42.0355 61.5801 42.8387Z" fill="#047BDC"></path><path d="M21.687 3.2129C21.9547 2.81129 22.3563 2.67741 22.8918 2.67741H37.4837V4.01612C37.4837 6.29193 39.224 8.03224 41.4998 8.03224C43.7756 8.03224 45.516 6.29193 45.516 4.01612V2.67741H60.2417C61.045 2.67741 61.5805 3.34677 61.5805 4.14999V18.7419C61.5805 19.5451 62.1159 20.0806 62.9192 20.0806C63.7224 20.0806 64.2579 19.5451 64.2579 18.7419V4.14999C64.2579 1.87419 62.5176 0 60.2417 0H22.8918C21.5531 0 20.3483 0.669354 19.545 1.60645C19.1434 2.14193 19.2773 3.07903 19.8128 3.48064C20.4821 4.01612 21.2854 3.88225 21.687 3.2129ZM40.1611 2.67741H42.8385V4.01612C42.8385 4.81935 42.3031 5.35483 41.4998 5.35483C40.6966 5.35483 40.1611 4.81935 40.1611 4.01612V2.67741Z" fill="#047BDC"></path><path d="M9.37095 24.0974H27.5774L32.5306 29.0506C32.7983 29.3183 33.3338 29.5861 34.0032 29.3183C34.5387 29.0506 34.8064 28.649 34.8064 28.1135V20.2151C34.8064 19.4119 34.2709 18.8764 33.4677 18.8764C32.6645 18.8764 32.129 19.4119 32.129 20.2151V24.9006L29.05 21.8216C28.7822 21.5538 28.5145 21.42 28.1129 21.42H9.37095C5.62257 21.42 2.67742 18.4748 2.67742 14.7264C2.67742 10.978 5.62257 8.03288 9.37095 8.03288H25.4354C29.1838 8.03288 32.129 10.978 32.129 14.7264C32.129 15.5296 32.6645 16.0651 33.4677 16.0651C34.2709 16.0651 34.8064 15.5296 34.8064 14.7264C34.8064 9.50546 30.6564 5.35547 25.4354 5.35547H9.37095C4.14999 5.35547 0 9.50546 0 14.7264C0 19.9474 4.14999 24.0974 9.37095 24.0974Z" fill="#047BDC"></path><path d="M48.1934 30.7889V44.176C48.1934 44.7115 48.4611 45.247 48.9966 45.3808C49.5321 45.5147 50.2014 45.3808 50.4692 45.1131L55.4224 40.1599H73.6288C78.8498 40.1599 82.9998 36.0099 82.9998 30.7889C82.9998 25.568 78.8498 21.418 73.6288 21.418H57.5643C52.3434 21.418 48.1934 25.568 48.1934 30.7889ZM80.3223 30.7889C80.3223 34.5373 77.3772 37.4825 73.6288 37.4825H54.8869C54.4853 37.4825 54.2175 37.6163 53.9498 37.8841L50.8708 40.9631V30.7889C50.8708 27.0405 53.8159 24.0954 57.5643 24.0954H73.6288C77.3772 24.0954 80.3223 27.0405 80.3223 30.7889Z" fill="#047BDC"></path><path d="M32.5306 55.824C32.7983 56.0918 33.4677 56.3595 34.0032 56.0918C34.5387 55.824 34.8064 55.4224 34.8064 54.8869V41.4999C34.8064 36.2789 30.6564 32.1289 25.4354 32.1289H9.37095C4.14999 32.1289 0 36.2789 0 41.4999C0 46.7208 4.14999 50.8708 9.37095 50.8708H27.5774L32.5306 55.824ZM2.67742 41.4999C2.67742 37.7515 5.62257 34.8063 9.37095 34.8063H25.4354C29.1838 34.8063 32.129 37.7515 32.129 41.4999V51.674L29.05 48.595C28.7822 48.3273 28.5145 48.1934 28.1129 48.1934H9.37095C5.62257 48.1934 2.67742 45.2482 2.67742 41.4999Z" fill="#047BDC"></path><path d="M81.661 56.2256C80.8578 56.2256 80.3223 56.7611 80.3223 57.5643C80.3223 61.3127 77.3772 64.2579 73.6288 64.2579H54.8869C54.4853 64.2579 54.2175 64.3917 53.9498 64.6595L50.8708 67.7385V57.5643C50.8708 53.8159 53.8159 50.8708 57.5643 50.8708H73.6288C75.6369 50.8708 77.5111 51.8079 78.8498 53.2804C79.2514 53.8159 80.1885 53.9498 80.724 53.4143C81.2594 52.8788 81.3933 52.0756 80.8578 51.5401C79.1175 49.3982 76.4401 48.1934 73.6288 48.1934H57.5643C52.3434 48.1934 48.1934 52.3434 48.1934 57.5643V70.9514C48.1934 71.4869 48.4611 72.0224 48.9966 72.1562C49.6659 72.424 50.2014 72.1562 50.4692 71.8885L55.4224 66.9353H73.6288C78.8498 66.9353 82.9998 62.7853 82.9998 57.5643C82.9998 56.7611 82.4643 56.2256 81.661 56.2256Z" fill="#047BDC"></path><path d="M25.4354 10.709H9.37093C8.56771 10.709 8.03223 11.2445 8.03223 12.0477C8.03223 12.8509 8.56771 13.3864 9.37093 13.3864H25.4354C26.2386 13.3864 26.7741 12.8509 26.7741 12.0477C26.7741 11.2445 26.2386 10.709 25.4354 10.709Z" fill="#047BDC"></path><path d="M25.4354 16.0645H9.37093C8.56771 16.0645 8.03223 16.5999 8.03223 17.4032C8.03223 18.2064 8.56771 18.7419 9.37093 18.7419H25.4354C26.2386 18.7419 26.7741 18.2064 26.7741 17.4032C26.7741 16.5999 26.2386 16.0645 25.4354 16.0645Z" fill="#047BDC"></path><path d="M25.4354 37.4844H9.37093C8.56771 37.4844 8.03223 38.0199 8.03223 38.8231C8.03223 39.6263 8.56771 40.1618 9.37093 40.1618H25.4354C26.2386 40.1618 26.7741 39.6263 26.7741 38.8231C26.7741 38.0199 26.2386 37.4844 25.4354 37.4844Z" fill="#047BDC"></path><path d="M25.4354 42.8398H9.37093C8.56771 42.8398 8.03223 43.3753 8.03223 44.1786C8.03223 44.9818 8.56771 45.5173 9.37093 45.5173H25.4354C26.2386 45.5173 26.7741 44.9818 26.7741 44.1786C26.7741 43.3753 26.2386 42.8398 25.4354 42.8398Z" fill="#047BDC"></path><path d="M56.2256 28.1121C56.2256 28.9154 56.7611 29.4509 57.5643 29.4509H73.6288C74.432 29.4509 74.9675 28.9154 74.9675 28.1121C74.9675 27.3089 74.432 26.7734 73.6288 26.7734H57.5643C56.7611 26.7734 56.2256 27.3089 56.2256 28.1121Z" fill="#047BDC"></path><path d="M73.6288 32.1289H57.5643C56.7611 32.1289 56.2256 32.6644 56.2256 33.4676C56.2256 34.2708 56.7611 34.8063 57.5643 34.8063H73.6288C74.432 34.8063 74.9675 34.2708 74.9675 33.4676C74.9675 32.6644 74.432 32.1289 73.6288 32.1289Z" fill="#047BDC"></path><path d="M58.9037 6.69418C58.9037 5.89095 58.3682 5.35547 57.565 5.35547H54.8875C54.0843 5.35547 53.5488 5.89095 53.5488 6.69418C53.5488 7.4974 54.0843 8.03288 54.8875 8.03288H56.2262V9.37159C56.2262 10.1748 56.7617 10.7103 57.565 10.7103C58.3682 10.7103 58.9037 10.1748 58.9037 9.37159V6.69418Z" fill="#047BDC"></path><path d="M57.5643 13.3867C56.7611 13.3867 56.2256 13.9222 56.2256 14.7254V17.4028C56.2256 18.2061 56.7611 18.7415 57.5643 18.7415C58.3675 18.7415 58.903 18.2061 58.903 17.4028V14.7254C58.903 13.9222 58.3675 13.3867 57.5643 13.3867Z" fill="#047BDC"></path><path d="M28.1131 77.6442C28.8525 77.6442 29.4518 77.0449 29.4518 76.3055C29.4518 75.5662 28.8525 74.9668 28.1131 74.9668C27.3738 74.9668 26.7744 75.5662 26.7744 76.3055C26.7744 77.0449 27.3738 77.6442 28.1131 77.6442Z" fill="#047BDC"></path><path d="M41.4998 77.6442C42.2392 77.6442 42.8385 77.0449 42.8385 76.3055C42.8385 75.5662 42.2392 74.9668 41.4998 74.9668C40.7605 74.9668 40.1611 75.5662 40.1611 76.3055C40.1611 77.0449 40.7605 77.6442 41.4998 77.6442Z" fill="#047BDC"></path><path d="M54.8875 77.6442C55.6269 77.6442 56.2262 77.0449 56.2262 76.3055C56.2262 75.5662 55.6269 74.9668 54.8875 74.9668C54.1482 74.9668 53.5488 75.5662 53.5488 76.3055C53.5488 77.0449 54.1482 77.6442 54.8875 77.6442Z" fill="#047BDC"></path><path d="M60.242 58.902C60.9814 58.902 61.5807 58.3027 61.5807 57.5633C61.5807 56.824 60.9814 56.2246 60.242 56.2246C59.5027 56.2246 58.9033 56.824 58.9033 57.5633C58.9033 58.3027 59.5027 58.902 60.242 58.902Z" fill="#047BDC"></path><path d="M65.5965 58.902C66.3359 58.902 66.9352 58.3027 66.9352 57.5633C66.9352 56.824 66.3359 56.2246 65.5965 56.2246C64.8572 56.2246 64.2578 56.824 64.2578 57.5633C64.2578 58.3027 64.8572 58.902 65.5965 58.902Z" fill="#047BDC"></path><path d="M70.951 58.902C71.6904 58.902 72.2897 58.3027 72.2897 57.5633C72.2897 56.824 71.6904 56.2246 70.951 56.2246C70.2117 56.2246 69.6123 56.824 69.6123 57.5633C69.6123 58.3027 70.2117 58.902 70.951 58.902Z" fill="#047BDC"></path></svg>