<svg xmlns="http://www.w3.org/2000/svg" width="88" height="94" viewBox="0 0 88 94" fill="none"><path d="M87.9971 81.6908C87.9964 81.6744 87.9971 81.658 87.9964 81.6416L87.0319 69.0577C86.925 67.6155 86.1222 66.3073 84.884 65.5595L84.6644 65.4269L84.0912 61.2201C84.8319 60.6042 85.4379 59.8321 85.8578 58.9539C85.8727 58.9232 85.887 58.8926 85.8998 58.8612C86.2898 58.0136 86.5093 57.0711 86.5093 56.0788V51.0123C86.5093 48.14 84.1718 45.8039 81.2995 45.8039H78.3417C75.9065 45.8039 73.857 47.4834 73.2888 49.744C73.2667 49.7868 73.246 49.8303 73.2282 49.8759C73.1341 50.1133 73.1127 50.36 73.1498 50.5945C73.1391 50.7321 73.1319 50.8711 73.1319 51.0115V56.0788C73.1319 58.432 74.3553 60.5037 76.1988 61.6956L75.8181 65.4861C75.7397 65.5467 75.6663 65.6144 75.6028 65.6907L67.3304 75.5956L61.5995 75.5749C61.489 75.5735 61.3899 75.5863 61.288 75.6098C60.2714 75.8437 59.3696 76.3206 58.6353 76.9715V75.1001C58.6353 71.3767 56.2649 68.0753 52.7368 66.8855L50.3708 66.0892C49.9865 65.9609 49.6386 65.7406 49.3613 65.449C48.9122 64.9806 48.6648 64.3619 48.6648 63.7081V61.1603L49.4697 60.6705C50.879 59.8115 51.7552 58.2517 51.7552 56.5999V52.4088C51.7552 52.4045 51.7552 52.4003 51.7552 52.396V48.7403C51.7552 45.8274 49.387 43.457 46.4762 43.457H41.6364C38.7257 43.457 36.3582 45.8274 36.3582 48.7403V51.892V51.8962V56.5999C36.3582 58.2517 37.2336 59.8115 38.6437 60.6705L39.4493 61.1617V63.7088C39.4493 64.4061 39.1563 65.0783 38.648 65.5524C38.3863 65.7962 38.0819 65.9766 37.7405 66.0906L35.3772 66.8855C31.8491 68.0753 29.4788 71.376 29.4788 75.1008V77.077C28.7245 76.3726 27.7814 75.8565 26.7113 75.6106C26.6094 75.587 26.511 75.5749 26.3998 75.5756L20.6689 75.5956L12.3965 65.6914C12.333 65.6151 12.2603 65.5467 12.1812 65.4861L11.8005 61.6956C13.644 60.5037 14.8681 58.432 14.8681 56.0788V51.0123C14.8681 50.8711 14.8602 50.7328 14.8495 50.5945C14.8866 50.36 14.8652 50.1133 14.7718 49.8766C14.7533 49.831 14.7333 49.7868 14.7105 49.7447C14.143 47.4834 12.0935 45.8039 9.65754 45.8039H6.70118C3.82823 45.8039 1.49137 48.1407 1.49137 51.0123V56.0788C1.49137 57.0718 1.71023 58.0136 2.10018 58.8612C2.11301 58.8926 2.12727 58.9239 2.14224 58.9546C2.56213 59.8321 3.16809 60.6042 3.90878 61.2201L3.33562 65.4276L3.11676 65.5602C1.87847 66.308 1.07504 67.6162 0.968819 69.0548L0.00427743 81.6423C0.00285156 81.6587 0.00356441 81.6751 0.00285156 81.6915C0.00213872 81.7101 0 81.7279 0 81.7471V85.2282C0 89.7565 3.68565 93.4407 8.21607 93.4407H79.7839C84.3144 93.4407 88 89.7565 88 85.2275V81.7464C88 81.7272 87.9979 81.7093 87.9971 81.6908ZM78.3417 48.5414H81.2995C82.6626 48.5414 83.7718 49.6499 83.7718 51.0123V56.0752L82.3475 55.0757V53.7968C82.3475 52.7132 81.6959 51.7551 80.6879 51.3566L76.3015 49.6207C76.747 48.9698 77.4948 48.5414 78.3417 48.5414ZM75.8694 52.3938L79.61 53.8738V55.1342C79.61 55.9882 80.027 56.7917 80.7271 57.2828L82.7624 58.7108C82.0388 59.5185 80.988 60.0275 79.8203 60.0275C77.6417 60.0275 75.8694 58.2559 75.8694 56.0788V52.3938ZM79.821 62.765C80.4041 62.765 80.9702 62.6894 81.5098 62.5483L81.7301 64.1644C80.7278 63.9605 79.697 63.9662 78.701 64.1801L78.85 62.6937C79.1673 62.74 79.4909 62.765 79.821 62.765ZM61.7613 78.3131L67.9642 78.3352H67.9692C68.3748 78.3352 68.7598 78.1556 69.0193 77.844L77.5918 67.5806C79.1145 66.5326 81.0985 66.4699 82.689 67.4316L83.4681 67.9021C83.9486 68.1929 84.2602 68.7005 84.3022 69.2637L85.1541 80.3777H78.4858V75.587L79.3091 74.7223C79.831 74.1748 79.8096 73.3086 79.2621 72.7868C78.7153 72.2657 77.8484 72.2871 77.3273 72.8339L70.1428 80.3777H59.5457C59.8928 79.3853 60.7048 78.604 61.7613 78.3131ZM51.8628 69.4797C54.2767 70.2938 55.8978 72.553 55.8978 75.1001V80.3777H46.2167L48.0774 78.5028C48.4345 78.1428 48.5636 77.6145 48.4117 77.1304L45.7163 68.518C46.5197 68.4025 47.311 68.2143 48.0866 67.9555C48.5165 68.2678 48.9949 68.5159 49.501 68.6848L51.8628 69.4797ZM42.1868 62.7721C42.7849 63.0287 43.4208 63.1578 44.0574 63.1578C44.6933 63.1578 45.3299 63.0287 45.928 62.7721V63.7088C45.928 64.374 46.0521 65.022 46.2873 65.6251C45.5381 65.8033 44.7746 65.9045 44.0018 65.9217C43.2518 65.9373 42.5083 65.8739 41.7768 65.7377C42.0435 65.1004 42.1868 64.4103 42.1868 63.7088V62.7721ZM43.9704 72.1038L45.553 77.1604L43.954 78.7708L42.5318 77.1861L43.9704 72.1038ZM41.6371 46.1945H46.4769C47.8785 46.1945 49.0184 47.3366 49.0184 48.7403V50.5125L42.4106 48.3867C42.062 48.2747 41.6827 48.3068 41.3577 48.4758L39.0964 49.6563V48.7403C39.0964 47.3366 40.2363 46.1945 41.6371 46.1945ZM39.0964 52.7446L42.1169 51.1684L49.0184 53.3883V56.5999C49.0184 57.3035 48.6456 57.9672 48.046 58.3329L45.1096 60.1223C44.4602 60.5172 43.6539 60.5172 43.0052 60.1223L40.0688 58.3329C39.4692 57.9672 39.0964 57.3035 39.0964 56.5999V52.7446ZM36.2512 69.4804L38.6102 68.6862C39.0515 68.5394 39.4649 68.3369 39.8471 68.0824C40.5949 68.307 41.357 68.4674 42.1283 68.5608L39.6924 77.1661C39.564 77.6181 39.6767 78.1035 39.9903 78.4529L41.7177 80.3777H32.217V75.1001C32.217 72.5523 33.8381 70.2931 36.2512 69.4804ZM8.17971 60.0275C7.012 60.0275 5.96191 59.5185 5.23761 58.7108L7.27363 57.2828C7.97297 56.7917 8.39073 55.9882 8.39073 55.1342V53.8738L12.1306 52.3938V56.0788C12.1306 58.2559 10.3583 60.0275 8.17971 60.0275ZM6.70118 48.5414H9.65825C10.5052 48.5414 11.2537 48.9698 11.6993 49.6207L7.31284 51.3566C6.30481 51.7551 5.65323 52.7132 5.65323 53.7968V55.0757L4.22887 56.0752V51.0123C4.22887 49.6499 5.33742 48.5414 6.70118 48.5414ZM8.17971 62.765C8.50907 62.765 8.83343 62.74 9.14996 62.6937L9.29967 64.1801C8.30304 63.9662 7.27292 63.9612 6.27059 64.1651L6.49087 62.549C7.03053 62.6894 7.59657 62.765 8.17971 62.765ZM3.69848 69.2601C3.73983 68.7005 4.05136 68.1929 4.53256 67.9021L5.31104 67.4316C6.90221 66.4699 8.88619 66.5333 10.4082 67.5806L18.9807 77.844C19.2409 78.1556 19.6259 78.3352 20.0315 78.3352H20.0358L26.2387 78.3131C27.2952 78.604 28.1079 79.3853 28.4543 80.3777H17.8579L10.6727 72.8339C10.1516 72.2864 9.28541 72.2657 8.73791 72.7868C8.19041 73.3079 8.16973 74.1748 8.69086 74.7223L9.51425 75.587V80.3777H2.84657L3.69848 69.2601ZM85.2625 85.2275C85.2625 88.2466 82.8052 90.7032 79.7846 90.7032H8.21607C5.19555 90.7032 2.7375 88.2466 2.7375 85.2275V83.1152H9.51425V83.4502C9.51425 84.8632 10.0475 86.2084 11.0149 87.2392C11.2844 87.5258 11.6479 87.6705 12.0129 87.6705C12.3487 87.6705 12.6852 87.5479 12.9497 87.2998C13.5007 86.7823 13.5278 85.9161 13.0103 85.3643C12.5212 84.8439 12.2517 84.1645 12.2517 83.4502V78.4614L15.9174 82.3096V82.9655C15.9174 85.914 18.317 88.3129 21.267 88.3129H27.0321C27.7878 88.3129 28.4009 87.7005 28.4009 86.9441C28.4009 86.1884 27.7878 85.5754 27.0321 85.5754H21.267C19.8825 85.5754 18.7469 84.4932 18.6614 83.1309H30.0084C30.0755 83.1309 30.141 83.1244 30.2059 83.1152H57.7948C57.859 83.1244 57.9253 83.1309 57.9923 83.1309H69.6181C69.5318 84.4932 68.3969 85.5754 67.0125 85.5754H32.8914C32.1357 85.5754 31.5226 86.1884 31.5226 86.9441C31.5226 87.7005 32.1357 88.3129 32.8914 88.3129H67.0125C69.9617 88.3129 72.3613 85.914 72.3613 82.9655V82.0758C72.3613 82.0572 72.3592 82.0387 72.3585 82.0202L75.7483 78.4614V83.4502C75.7483 84.1645 75.4795 84.8439 74.9904 85.3643C74.4729 85.9161 74.5 86.7823 75.051 87.2998C75.3148 87.5479 75.652 87.6705 75.9878 87.6705C76.3528 87.6705 76.7164 87.5258 76.9858 87.2392C77.9532 86.2084 78.4858 84.8632 78.4858 83.4502V83.1152H85.2625V85.2275Z" fill="#0369CA"></path><path d="M5.395 40.689H5.62455C6.58268 42.72 8.62796 44.0225 10.8836 44.0225C13.1413 44.0225 15.1859 42.7193 16.1411 40.689H35.7905C37.4965 40.689 38.9458 39.5883 39.4762 38.0613C40.6396 38.9089 42.0611 39.3951 43.5625 39.3951C45.4132 39.3951 47.1426 38.6579 48.4159 37.4118C48.7174 39.2668 50.3257 40.689 52.2647 40.689H71.9149C72.8723 42.7193 74.9169 44.0225 77.1717 44.0225C79.428 44.0225 81.4733 42.7193 82.4307 40.689H82.6603C84.8125 40.689 86.5641 38.9381 86.5641 36.7859V15.2751C86.5641 13.1229 84.8125 11.372 82.6603 11.372H71.5656C70.8092 11.372 70.1968 11.9851 70.1968 12.7408C70.1968 13.4972 70.8092 14.1095 71.5656 14.1095H82.6603C83.3033 14.1095 83.8266 14.6328 83.8266 15.2751V36.7866C83.8266 37.4289 83.3033 37.9515 82.6603 37.9515H82.2661C81.278 37.9515 80.3862 38.5339 79.9934 39.4364C79.5043 40.5592 78.3965 41.285 77.1717 41.285C75.9477 41.285 74.8413 40.5592 74.3515 39.4357C73.9587 38.5346 73.0669 37.9515 72.0788 37.9515H52.2647C51.6217 37.9515 51.0985 37.4289 51.0985 36.7866V35.2154H62.6188C65.1267 35.2154 67.167 33.1751 67.167 30.6679V4.54753C67.1677 2.04029 65.1267 0 62.6188 0H24.5062C21.9975 0 19.9572 2.04029 19.9572 4.54753V11.372H5.395C3.24278 11.372 1.49121 13.1229 1.49121 15.2751V17.2177C1.49121 17.9734 2.1043 18.5865 2.85996 18.5865C3.61634 18.5865 4.22871 17.9734 4.22871 17.2177V15.2751C4.22871 14.6328 4.75198 14.1095 5.395 14.1095H19.9572V30.6679C19.9572 33.1751 21.9975 35.2154 24.5062 35.2154H36.9568V36.7866C36.9568 37.4289 36.4336 37.9515 35.7905 37.9515H15.9779C14.9891 37.9515 14.0966 38.5339 13.703 39.4371C13.2154 40.5592 12.109 41.285 10.8836 41.285C9.65881 41.285 8.55097 40.5592 8.06193 39.4357C7.66913 38.5346 6.7773 37.9515 5.78923 37.9515H5.395C4.75198 37.9515 4.22871 37.4289 4.22871 36.7866V22.9822C4.22871 22.2258 3.61634 21.6134 2.85996 21.6134C2.1043 21.6134 1.49121 22.2258 1.49121 22.9822V36.7866C1.49121 38.9381 3.24278 40.689 5.395 40.689ZM22.6947 30.6679V4.54753C22.6947 3.54949 23.5074 2.7375 24.5062 2.7375H62.6188C63.6175 2.7375 64.4295 3.54949 64.4295 4.54753V30.6679C64.4295 31.6659 63.6175 32.4779 62.6188 32.4779H49.95C49.791 32.4779 49.6342 32.4929 49.4809 32.5192C49.4681 32.5214 49.4545 32.5235 49.4417 32.5264C48.5513 32.6918 47.7864 33.2842 47.4178 34.1311C46.7505 35.6659 45.2371 36.6576 43.5625 36.6576C41.8886 36.6576 40.3751 35.6659 39.7072 34.1311C39.2702 33.1266 38.2764 32.4779 37.175 32.4779H24.5062C23.5074 32.4779 22.6947 31.6659 22.6947 30.6679Z" fill="#0369CA"></path><path d="M28.3893 10.5402H57.9928C58.7484 10.5402 59.3615 9.92786 59.3615 9.17149C59.3615 8.41511 58.7484 7.80273 57.9928 7.80273H28.3893C27.6336 7.80273 27.0205 8.41511 27.0205 9.17149C27.0205 9.92786 27.6336 10.5402 28.3893 10.5402Z" fill="#0369CA"></path><path d="M28.3893 17.5734H57.9928C58.7484 17.5734 59.3615 16.9611 59.3615 16.2047C59.3615 15.449 58.7484 14.8359 57.9928 14.8359H28.3893C27.6336 14.8359 27.0205 15.449 27.0205 16.2047C27.0205 16.9611 27.6336 17.5734 28.3893 17.5734Z" fill="#0369CA"></path><path d="M45.7339 23.2379C45.7339 22.4815 45.1208 21.8691 44.3651 21.8691H28.3893C27.6336 21.8691 27.0205 22.4815 27.0205 23.2379C27.0205 23.9936 27.6336 24.6066 28.3893 24.6066H44.3651C45.1208 24.6066 45.7339 23.9936 45.7339 23.2379Z" fill="#0369CA"></path></svg>