<svg xmlns="http://www.w3.org/2000/svg" width="79" height="64" viewBox="0 0 79 64" fill="none"><path d="M11.4496 10.9716C11.8307 10.5169 16.6915 4.91341 28.0376 0.64358L29.2889 4.05046C23.7383 6.14552 19.7806 8.65019 17.5677 10.292L18.0087 11.1727C24.6579 9.18707 32.5723 7.9707 39.5736 7.9707C46.5665 7.9707 54.4713 9.18355 61.1157 11.1649L61.5591 10.2861C59.168 8.48794 55.3641 6.12452 49.8583 4.05031L51.1095 0.643578C62.4086 4.89564 67.2759 10.4703 67.6926 10.9656C67.8844 11.3016 69.1951 13.6034 69.725 14.695L69.7269 14.6987L69.7392 14.7241L69.7404 14.726C70.4395 16.1454 71.9735 19.6695 74.3612 27.2666C75.5556 31.0671 76.575 37.2896 77.3054 42.6811C77.9768 47.6367 78.3992 51.8523 78.4875 52.7571C77.9749 53.6438 76.4028 56.1723 73.0703 58.5395C69.5866 61.0142 64.1498 63.3333 55.9273 63.3818L51.5535 57.0033L51.3551 56.7138L51.0154 56.8021C47.293 57.7697 43.4521 58.2595 39.5739 58.2595C35.7039 58.2595 31.8706 57.7718 28.1553 56.8081L27.8169 56.7203L27.6183 57.0079L23.2166 63.3817C7.50008 63.2823 1.43374 54.2441 0.672639 52.7946C0.792287 51.1853 1.89256 37.2553 4.77409 27.3058C6.96331 19.7486 8.43895 16.7088 9.12948 15.2863C9.19437 15.1526 9.25233 15.0332 9.3033 14.9256C9.79634 13.8855 10.3376 12.8891 10.7567 12.1511C10.966 11.7826 11.1442 11.4796 11.2699 11.2691C11.3327 11.1639 11.3824 11.0818 11.4162 11.0263L11.4496 10.9716ZM57.6736 59.5108L57.8304 59.7394L58.1073 59.7276C62.8514 59.5252 67.0855 58.1366 70.6938 55.5829L70.4049 55.1748L70.6938 55.5829C72.6854 54.1732 73.9784 52.7426 74.6176 51.9484L74.7466 51.7881L74.7254 51.5835C74.3608 48.0607 72.8876 34.6821 70.899 28.3546C69.0279 22.4007 67.715 19.0773 66.9717 17.3839L66.8969 17.2134L66.7287 17.1334C59.86 13.8654 48.7096 11.5998 39.574 11.5998C34.9643 11.5998 28.16 12.9934 22.5481 14.3711C19.7336 15.0621 17.2042 15.753 15.3785 16.271C14.4655 16.5301 13.7282 16.7461 13.2188 16.8973C12.9641 16.973 12.7664 17.0325 12.6322 17.0731L12.4793 17.1195L12.4401 17.1315L12.43 17.1346L12.4275 17.1354L12.4268 17.1356C12.4266 17.1357 12.4265 17.1357 12.5736 17.6136L12.4265 17.1357L12.2182 17.1998L12.1234 17.396C11.4092 18.8741 10.1202 21.8968 8.26075 28.3154C5.77513 36.8959 4.67372 48.4027 4.40528 51.5727L4.38843 51.7717L4.51337 51.9276C5.14363 52.7139 6.44249 54.159 8.45399 55.5827L8.74285 55.1746L8.454 55.5827C12.0635 58.1374 16.2994 59.5261 21.0455 59.7276L21.3213 59.7393L21.4781 59.5121L23.8256 56.1129L24.1893 55.5862L23.5903 55.3608C20.5529 54.2176 17.6328 52.7457 14.8778 50.9554L16.889 47.9342C19.9503 49.9195 23.2331 51.4792 26.6607 52.5926V52.5995L27.0109 52.7094L27.1607 52.2324C27.0109 52.7094 27.011 52.7095 27.0111 52.7095L27.0114 52.7096L27.0125 52.71L27.0164 52.7112L27.0307 52.7156L27.085 52.7322C27.1324 52.7466 27.2021 52.7675 27.2926 52.7939C27.4738 52.8468 27.7385 52.922 28.0755 53.012C28.7495 53.192 29.7135 53.4316 30.878 53.6711C33.2041 54.1495 36.3434 54.6303 39.574 54.6303C42.8047 54.6303 45.9484 54.148 48.2787 53.6683C49.4453 53.4281 50.4114 53.1878 51.087 53.0073C51.4248 52.917 51.6901 52.8416 51.8717 52.7886C51.9625 52.7621 52.0324 52.7411 52.0799 52.7267L52.1343 52.7101L52.1486 52.7056L52.1525 52.7044L52.1536 52.7041L52.154 52.7039C52.1541 52.7039 52.1542 52.7039 52.0044 52.2269L52.1542 52.7039L52.5044 52.5939V52.5872C55.9258 51.4742 59.2027 49.9163 62.259 47.9342L64.2701 50.9556C61.5202 52.7426 58.6059 54.2123 55.5745 55.3547L54.9779 55.5795L55.3385 56.1053L57.6736 59.5108Z" fill="#0449A9" stroke="#FFFCFC"></path><path d="M24.7422 32.0615H28.3714V38.777H24.7422V32.0615Z" fill="#0449A9" stroke="#FFFCFC"></path><path d="M50.7773 32.0615H54.4066V38.777H50.7773V32.0615Z" fill="#0449A9" stroke="#FFFCFC"></path></svg>