<svg xmlns="http://www.w3.org/2000/svg" width="63" height="63" viewBox="0 0 63 63" fill="none"><path d="M31.4999 25.8239C34.9801 25.8239 37.8015 23.0026 37.8015 19.5223C37.8015 16.042 34.9801 13.2207 31.4999 13.2207C28.0196 13.2207 25.1982 16.042 25.1982 19.5223C25.1982 23.0026 28.0196 25.8239 31.4999 25.8239Z" stroke="#047BDC" stroke-width="1.8" stroke-miterlimit="10" stroke-linecap="round" stroke-linejoin="round"></path><path d="M39.6672 11.9847C42.7005 11.9847 45.1595 9.52569 45.1595 6.49235C45.1595 3.45901 42.7005 1 39.6672 1C36.6338 1 34.1748 3.45901 34.1748 6.49235C34.1748 9.52569 36.6338 11.9847 39.6672 11.9847Z" stroke="#047BDC" stroke-width="1.8" stroke-miterlimit="10" stroke-linecap="round" stroke-linejoin="round"></path><path d="M23.4093 11.9847C26.4427 11.9847 28.9017 9.52569 28.9017 6.49235C28.9017 3.45901 26.4427 1 23.4093 1C20.376 1 17.917 3.45901 17.917 6.49235C17.917 9.52569 20.376 11.9847 23.4093 11.9847Z" stroke="#047BDC" stroke-width="1.8" stroke-miterlimit="10" stroke-linecap="round" stroke-linejoin="round"></path><path d="M15.265 23.9128C18.354 23.9128 20.8581 21.4087 20.8581 18.3197C20.8581 15.2307 18.354 12.7266 15.265 12.7266C12.176 12.7266 9.67188 15.2307 9.67188 18.3197C9.67188 21.4087 12.176 23.9128 15.265 23.9128Z" stroke="#047BDC" stroke-width="1.8" stroke-miterlimit="10" stroke-linecap="round" stroke-linejoin="round"></path><path d="M47.6219 23.9129C43.6763 23.9658 40.4269 26.8075 39.6152 30.5249C40.4124 31.9015 40.8699 33.4967 40.8699 35.1936V39.4247C40.9526 39.4371 41.0365 39.4455 41.1226 39.4455H54.3465C55.288 39.4455 56.0512 38.6823 56.0512 37.7409V32.2287C56.0512 27.6171 52.2471 23.8509 47.6219 23.9129Z" stroke="#047BDC" stroke-width="1.8" stroke-miterlimit="10" stroke-linecap="round" stroke-linejoin="round"></path><path d="M22.1306 35.3166C22.1306 33.5839 22.5967 31.9507 23.4094 30.5426C22.6171 26.7342 19.1993 23.8586 15.1531 23.9129C10.5862 23.9741 6.94922 27.7705 6.94922 32.3378V37.7409C6.94922 38.6823 7.7124 39.4455 8.6538 39.4455H21.8777C21.9639 39.4455 22.0478 39.437 22.1306 39.4247V35.3166Z" stroke="#047BDC" stroke-width="1.8" stroke-miterlimit="10" stroke-linecap="round" stroke-linejoin="round"></path><path d="M20.8586 18.3201C20.8586 21.4092 18.3545 23.9133 15.2654 23.9133C15.2577 23.9133 15.25 23.9128 15.2422 23.9127V23.914C19.2491 23.9031 22.6225 26.7628 23.4089 30.5429C23.4084 30.5437 23.4081 30.5444 23.4076 30.5453C25.0082 27.77 27.9593 25.8706 31.3731 25.8248C31.4146 25.8242 31.456 25.8248 31.4974 25.8247C28.0183 25.8232 25.1984 23.0026 25.1984 19.5232C25.1984 17.0689 26.6024 14.9438 28.6502 13.9033C27.2028 12.686 25.3321 11.9577 23.2982 11.9851C21.4603 12.0098 19.7764 12.6512 18.4282 13.7075C19.8958 14.7158 20.8586 16.4053 20.8586 18.3201Z" stroke="#047BDC" stroke-width="1.8" stroke-miterlimit="10" stroke-linecap="round" stroke-linejoin="round"></path><path d="M37.8017 19.5233C37.8017 23.0027 34.9819 25.8233 31.5029 25.8248C34.959 25.8259 37.9933 27.7227 39.6165 30.527C39.6162 30.5264 39.6159 30.5258 39.6155 30.5253C40.4272 26.8079 43.6766 23.9662 47.6222 23.9133C47.693 23.9123 47.7631 23.915 47.8336 23.9159V23.9107C47.8007 23.9113 47.768 23.9132 47.7349 23.9132C44.6458 23.9132 42.1417 21.4091 42.1417 18.32C42.1417 16.3834 43.1261 14.6771 44.6215 13.6731C43.2174 12.5951 41.4582 11.9596 39.5561 11.9851C37.5902 12.0115 35.8001 12.7428 34.409 13.9336C36.4247 14.985 37.8017 17.0927 37.8017 19.5233Z" stroke="#047BDC" stroke-width="1.8" stroke-miterlimit="10" stroke-linecap="round" stroke-linejoin="round"></path><path d="M38.0099 55.0713C38.8143 54.2872 38.3705 52.921 37.2587 52.7595L34.8244 52.4058C34.383 52.3416 34.0014 52.0645 33.804 51.6645L32.7153 49.4586C32.2181 48.4513 30.7817 48.4513 30.2846 49.4586L29.1959 51.6645C28.9984 52.0645 28.6168 52.3417 28.1754 52.4058L25.741 52.7595C24.6293 52.921 24.1855 54.2872 24.9898 55.0713L26.7514 56.7883C27.0708 57.0997 27.2165 57.5483 27.1412 57.9879L26.7253 60.4124C26.5355 61.5196 27.6975 62.3639 28.6918 61.8411L30.8691 60.6965C31.2639 60.4889 31.7356 60.4889 32.1305 60.6965L34.3077 61.8411C35.302 62.3639 36.4642 61.5196 36.2742 60.4124L35.8584 57.9879C35.7829 57.5483 35.9287 57.0997 36.2482 56.7883L38.0099 55.0713Z" stroke="#047BDC" stroke-width="1.8" stroke-miterlimit="10" stroke-linecap="round" stroke-linejoin="round"></path><path d="M51.1372 51.6627C51.7306 51.0843 51.4032 50.0765 50.5831 49.9573L48.7873 49.6964C48.4617 49.649 48.1801 49.4445 48.0345 49.1495L47.2315 47.5222C46.8647 46.7791 45.805 46.7791 45.4383 47.5222L44.6352 49.1495C44.4895 49.4445 44.2081 49.649 43.8824 49.6964L42.0866 49.9573C41.2666 50.0765 40.9391 51.0843 41.5324 51.6627L42.8319 52.9294C43.0675 53.1592 43.175 53.4901 43.1194 53.8143L42.8127 55.6028C42.6727 56.4197 43.5299 57.0424 44.2633 56.6568L45.8695 55.8124C46.1607 55.6592 46.5087 55.6592 46.7999 55.8124L48.4061 56.6568C49.1395 57.0424 49.9969 56.4195 49.8568 55.6028L49.5501 53.8143C49.4945 53.4899 49.602 53.159 49.8377 52.9294L51.1372 51.6627Z" stroke="#047BDC" stroke-width="1.8" stroke-miterlimit="10" stroke-linecap="round" stroke-linejoin="round"></path><path d="M61.7488 46.6701C62.2415 46.1899 61.9696 45.3532 61.2888 45.2541L59.7978 45.0375C59.5274 44.9982 59.2936 44.8283 59.1727 44.5834L58.5059 43.2323C58.2014 42.6153 57.3215 42.6153 57.0171 43.2323L56.3502 44.5834C56.2294 44.8283 55.9955 44.9982 55.7251 45.0375L54.2341 45.2541C53.5532 45.353 53.2813 46.1899 53.7741 46.6701L54.8531 47.7219C55.0487 47.9126 55.1381 48.1874 55.0918 48.4567L54.8371 49.9417C54.7208 50.6198 55.4327 51.137 56.0417 50.8168L57.3753 50.1157C57.6173 49.9886 57.9061 49.9886 58.148 50.1157L59.4816 50.8168C60.0906 51.137 60.8025 50.6198 60.6862 49.9417L60.4315 48.4567C60.3853 48.1874 60.4746 47.9126 60.6702 47.7219L61.7488 46.6701Z" stroke="#047BDC" stroke-width="1.8" stroke-miterlimit="10" stroke-linecap="round" stroke-linejoin="round"></path><path d="M11.8636 51.6627C11.2702 51.0843 11.5976 50.0765 12.4177 49.9573L14.2135 49.6964C14.5391 49.649 14.8207 49.4445 14.9662 49.1495L15.7693 47.5222C16.1361 46.7791 17.1958 46.7791 17.5625 47.5222L18.3656 49.1495C18.5113 49.4445 18.7927 49.649 19.1184 49.6964L20.9142 49.9573C21.7342 50.0765 22.0617 51.0843 21.4683 51.6627L20.1689 52.9294C19.9333 53.1592 19.8258 53.4901 19.8814 53.8143L20.1881 55.6028C20.3281 56.4197 19.4709 57.0424 18.7373 56.6568L17.1312 55.8124C16.8399 55.6592 16.492 55.6592 16.2007 55.8124L14.5946 56.6568C13.8611 57.0424 13.0038 56.4195 13.1439 55.6028L13.4506 53.8143C13.5062 53.4899 13.3987 53.159 13.163 52.9294L11.8636 51.6627Z" stroke="#047BDC" stroke-width="1.8" stroke-miterlimit="10" stroke-linecap="round" stroke-linejoin="round"></path><path d="M1.25158 46.6701C0.758916 46.1899 1.03078 45.3532 1.7116 45.2541L3.2026 45.0375C3.47299 44.9982 3.70681 44.8283 3.8277 44.5834L4.49453 43.2323C4.79904 42.6153 5.67894 42.6153 5.98333 43.2323L6.65016 44.5834C6.77105 44.8283 7.00487 44.9982 7.27525 45.0375L8.76626 45.2541C9.4472 45.353 9.71907 46.1899 9.22628 46.6701L8.1473 47.7219C7.95166 47.9126 7.8623 48.1874 7.90858 48.4567L8.16326 49.9417C8.27961 50.6198 7.56774 51.137 6.95872 50.8168L5.62506 50.1157C5.38315 49.9886 5.09435 49.9886 4.85243 50.1157L3.51877 50.8168C2.90975 51.137 2.19788 50.6198 2.31424 49.9417L2.56891 48.4567C2.61506 48.1874 2.52583 47.9126 2.33019 47.7219L1.25158 46.6701Z" stroke="#047BDC" stroke-width="1.8" stroke-miterlimit="10" stroke-linecap="round" stroke-linejoin="round"></path><path d="M33.6479 43.3252H38.9494C40.0101 43.3252 40.87 42.4653 40.87 41.4046V35.1943C40.87 29.9985 36.5841 25.7552 31.373 25.8251C26.2276 25.8942 22.1299 30.1713 22.1299 35.3171V41.4044C22.1299 42.4651 22.9898 43.325 24.0505 43.325H29.352" stroke="#047BDC" stroke-width="1.8" stroke-miterlimit="10" stroke-linecap="round" stroke-linejoin="round"></path><path d="M52.947 16.2913C52.1346 14.2054 50.108 12.7266 47.7347 12.7266C44.6457 12.7266 42.1416 15.2306 42.1416 18.3197C42.1416 21.4087 44.6457 23.9128 47.7347 23.9128C50.0163 23.9128 51.9774 22.546 52.8474 20.5871" stroke="#047BDC" stroke-width="1.8" stroke-miterlimit="10" stroke-linecap="round" stroke-linejoin="round"></path></svg>