<svg xmlns="http://www.w3.org/2000/svg" width="54" height="54" viewBox="0 0 54 54" fill="none"><path d="M16.838 32.0522C17.2178 32.6255 17.4181 33.2881 17.4181 33.9702C17.4181 35.8916 15.8556 37.4541 13.9342 37.4541C13.2521 37.4541 12.5895 37.2538 12.0162 36.874L11.0547 38.3268C11.9137 38.8954 12.9093 39.1961 13.9342 39.1961C16.8163 39.1961 19.16 36.8523 19.16 33.9702C19.16 32.9453 18.8594 31.9498 18.2908 31.0898L16.838 32.0522Z" fill="#048DEF"></path><path d="M13.9348 30.4822C14.6169 30.4822 15.2804 30.6825 15.8519 31.0614L16.8143 29.6095C15.9561 29.0409 14.961 28.7402 13.9348 28.7402C11.0527 28.7402 8.70898 31.0839 8.70898 33.966C8.70898 34.991 9.00966 35.9865 9.57825 36.8464L11.031 35.8849C10.6512 35.3108 10.4509 34.6482 10.4509 33.966C10.4509 32.0446 12.0134 30.4822 13.9348 30.4822Z" fill="#048DEF"></path><path d="M31.3545 36.582V41.8078H34.8384V40.0659H33.0964V36.582H31.3545Z" fill="#048DEF"></path><path d="M32.2258 31.3555C30.0216 31.3555 27.8684 32.1235 26.1631 33.5189L27.2675 34.8674C28.4353 33.911 29.863 33.3202 31.3549 33.1523V34.8393H33.0968V33.1489C36.7244 33.552 39.6099 36.4384 40.0131 40.0651H38.3226V41.8071H40.0097C39.8417 43.2998 39.251 44.7266 38.2945 45.8953L39.6422 46.9989C41.0376 45.2935 41.8065 43.1403 41.8065 40.9361C41.8065 35.6537 37.5082 31.3555 32.2258 31.3555Z" fill="#048DEF"></path><path d="M33.0971 48.7196V47.0326H31.3552V48.7231C27.7276 48.3199 24.8421 45.4335 24.4389 41.8068H26.1294V40.0648H24.4423C24.6103 38.5721 25.201 37.1453 26.1574 35.9766L24.8097 34.873C23.4144 36.5784 22.6455 38.7316 22.6455 40.9358C22.6455 46.2182 26.9438 50.5164 32.2262 50.5164C34.4304 50.5164 36.5835 49.7484 38.2889 48.3531L37.1845 47.0045C36.0166 47.961 34.5898 48.5517 33.0971 48.7196Z" fill="#048DEF"></path><path d="M48.7742 40.0638H47.0323V15.6767H41.8064V32.0822C41.2744 31.5064 40.6918 30.9803 40.0645 30.5074V20.0316H34.8387V28.1331C34.2718 28.0174 33.6875 27.9532 33.0968 27.9137V24.3864H27.871V28.6324C26.9949 28.9432 26.1622 29.3447 25.3827 29.8265C25.2075 29.3413 25.0144 28.865 24.7809 28.4104L26.158 26.4817L21.4208 21.7429L19.4913 23.1208C18.9104 22.8239 18.3035 22.573 17.6762 22.3719L17.2871 20.0316H10.5847L10.1956 22.3719C9.56831 22.573 8.96144 22.8239 8.38051 23.1208L6.45146 21.7429L1.71387 26.4817L3.09091 28.4104C2.79322 28.9905 2.54231 29.5973 2.34115 30.2255L0 30.6163V37.3178L2.3403 37.7078C2.54146 38.3359 2.79322 38.9428 3.09006 39.5229L1.71302 41.4511L6.45018 46.1904L8.37966 44.8125C8.96059 45.1093 9.56746 45.3602 10.1947 45.5614L10.5839 47.9025H17.2862L17.6754 45.5622C18.3027 45.3611 18.9095 45.1102 19.4905 44.8133L19.8388 45.0621C21.573 50.2471 26.4654 53.9993 32.2258 53.9993C39.1361 53.9993 44.7949 48.6038 45.2461 41.8058H54V8.70898H48.7742V40.0638ZM43.5484 17.4187H45.2903V40.0638H45.2461C45.1109 38.0284 44.5125 36.1211 43.5484 34.4451V17.4187ZM36.5806 21.7735H38.3226V29.3894C37.7659 29.0938 37.1816 28.8467 36.5806 28.6332V21.7735ZM29.6129 26.1283H31.3548V27.9145C30.7641 27.9541 30.1798 28.0183 29.6129 28.1344V26.1283ZM19.1222 43.0323C18.3609 43.4686 17.5397 43.808 16.6781 44.0414L16.1388 44.1877L15.8097 46.1606H12.0604L11.7313 44.1877L11.192 44.0414C10.3313 43.808 9.5092 43.4686 8.74795 43.0323L8.26271 42.7541L6.63858 43.9151L3.98655 41.264L5.14756 39.6381L4.86942 39.1529C4.43394 38.3933 4.09372 37.5721 3.86024 36.7097L3.7148 36.1704L1.74194 35.8421V32.092L3.7148 31.7637L3.86109 31.2244C4.09627 30.3611 4.43479 29.5391 4.87027 28.7812L5.14841 28.296L3.9874 26.6701L6.63943 24.019L8.26356 25.18L8.7488 24.9018C9.51005 24.4655 10.3313 24.1261 11.1929 23.8927L11.7321 23.7464L12.0613 21.7735H15.8105L16.1397 23.7464L16.6789 23.8927C17.5397 24.1261 18.3618 24.4655 19.123 24.9018L19.6083 25.18L21.2324 24.019L23.8844 26.6701L22.7234 28.296L23.0015 28.7812C23.3775 29.4361 23.6667 30.1459 23.8942 30.8812C23.3847 31.3044 22.9169 31.7739 22.4772 32.2676C21.6836 28.276 18.1564 25.2574 13.9355 25.2574C9.13283 25.2574 5.22581 29.1644 5.22581 33.967C5.22581 38.7697 9.13283 42.6767 13.9355 42.6767C15.8377 42.6767 17.6677 42.0333 19.1621 40.9114C19.1621 40.9191 19.1613 40.9271 19.1613 40.9348C19.1613 41.6097 19.2285 42.2672 19.3276 42.9145L19.1222 43.0323ZM20.8815 34.4799C20.2258 35.629 19.7346 36.8815 19.4505 38.213C18.1351 39.9175 16.0895 40.9348 13.9355 40.9348C10.0935 40.9348 6.96774 37.809 6.96774 33.967C6.96774 30.1251 10.0935 26.9993 13.9355 26.9993C17.7774 26.9993 20.9032 30.1251 20.9032 33.967C20.9032 34.1406 20.8934 34.3102 20.8815 34.4799ZM32.2258 52.2574C25.9827 52.2574 20.9032 47.1779 20.9032 40.9348C20.9032 34.6917 25.9827 29.6122 32.2258 29.6122C38.4689 29.6122 43.5484 34.6917 43.5484 40.9348C43.5484 47.1779 38.4689 52.2574 32.2258 52.2574ZM50.5161 10.4509H52.2581V40.0638H50.5161V10.4509Z" fill="#048DEF"></path><path d="M48.7742 0V1.74194H50.6458L44.484 6.67175L41.8064 3.9942L37.7 8.10068C37.3593 7.93695 36.983 7.83871 36.5806 7.83871C35.1402 7.83871 33.9677 9.0112 33.9677 10.4516C33.9677 10.902 34.0932 11.32 34.2944 11.69L29.7418 16.7487C29.4334 16.6207 29.0966 16.5484 28.7419 16.5484C28.7253 16.5484 28.7105 16.5526 28.6939 16.5535L25.1917 7.21355C25.7599 6.73426 26.129 6.02618 26.129 5.22581C26.129 3.78539 24.9565 2.6129 23.5161 2.6129C22.0757 2.6129 20.9032 3.78539 20.9032 5.22581C20.9032 5.41378 20.9249 5.59665 20.9632 5.77441L13.8232 10.1675C13.3754 9.80604 12.8128 9.58064 12.1935 9.58064C11.0598 9.58064 10.1016 10.3113 9.74097 11.3226H5.06548C4.70484 10.3113 3.74669 9.58064 2.6129 9.58064C1.17249 9.58064 0 10.7531 0 12.1935C0 13.634 1.17249 14.8064 2.6129 14.8064C3.74669 14.8064 4.70484 14.0758 5.06548 13.0645H9.74183C10.1025 14.0758 11.0606 14.8064 12.1944 14.8064C13.6348 14.8064 14.8073 13.634 14.8073 12.1935C14.8073 12.0056 14.7856 11.8227 14.7473 11.6449L21.8873 7.25183C22.3343 7.61331 22.8969 7.83871 23.5161 7.83871C23.5327 7.83871 23.5476 7.83446 23.5642 7.83361L27.0663 17.1727C26.4982 17.6528 26.129 18.3609 26.129 19.1613C26.129 20.6017 27.3015 21.7742 28.7419 21.7742C30.1824 21.7742 31.3548 20.6017 31.3548 19.1613C31.3548 18.7109 31.2302 18.2929 31.0282 17.9229L35.5808 12.8642C35.8891 12.9922 36.226 13.0645 36.5806 13.0645C38.0211 13.0645 39.1936 11.892 39.1936 10.4516C39.1936 10.0493 39.0953 9.67293 38.9316 9.33228L41.8064 6.45741L44.3547 9.00567L52.2581 2.6835V5.22581H54V0H48.7742ZM2.6129 13.0645C2.13234 13.0645 1.74194 12.6733 1.74194 12.1935C1.74194 11.7138 2.13234 11.3226 2.6129 11.3226C3.09347 11.3226 3.48387 11.7138 3.48387 12.1935C3.48387 12.6733 3.09347 13.0645 2.6129 13.0645ZM12.1935 13.0645C11.713 13.0645 11.3226 12.6733 11.3226 12.1935C11.3226 11.7138 11.713 11.3226 12.1935 11.3226C12.6741 11.3226 13.0645 11.7138 13.0645 12.1935C13.0645 12.6733 12.6741 13.0645 12.1935 13.0645ZM22.6452 5.22581C22.6452 4.74609 23.0356 4.35484 23.5161 4.35484C23.9967 4.35484 24.3871 4.74609 24.3871 5.22581C24.3871 5.70552 23.9967 6.09677 23.5161 6.09677C23.0356 6.09677 22.6452 5.70552 22.6452 5.22581ZM28.7419 20.0323C28.2614 20.0323 27.871 19.641 27.871 19.1613C27.871 18.6816 28.2614 18.2903 28.7419 18.2903C29.2225 18.2903 29.6129 18.6816 29.6129 19.1613C29.6129 19.641 29.2225 20.0323 28.7419 20.0323ZM36.5806 11.3226C36.1001 11.3226 35.7097 10.9313 35.7097 10.4516C35.7097 9.9719 36.1001 9.58064 36.5806 9.58064C37.0612 9.58064 37.4516 9.9719 37.4516 10.4516C37.4516 10.9313 37.0612 11.3226 36.5806 11.3226Z" fill="#048DEF"></path></svg>