<svg xmlns="http://www.w3.org/2000/svg" width="56" height="56" viewBox="0 0 56 56" fill="none"><path d="M26.5491 18.1359L25.9043 18.3959C24.4308 18.9907 23.5508 20.1444 23.5508 21.4813C23.5508 23.4241 25.1622 24.2861 26.2284 24.857C26.4257 24.962 26.8134 25.2426 27.2741 24.9689C27.523 24.8211 27.6759 24.553 27.6759 24.2635V18.8959C27.6759 18.3152 27.0871 17.919 26.5491 18.1359ZM26.0363 22.8395C25.5141 22.4706 25.1904 22.0667 25.1904 21.4813C25.1904 20.8429 25.6135 20.4206 26.0363 20.1589V22.8395Z" fill="#047BDC"></path><path d="M30.9185 24.8733V19.7295C31.4206 19.8486 31.8566 20.0168 32.6546 20.4302C33.2285 20.7273 33.7238 20.9835 34.3638 20.9835C36.301 20.9835 37.1051 18.6957 37.1051 17.4712C37.1051 16.5429 36.6136 15.2718 34.2724 14.4874C33.3715 14.1855 32.2456 13.9673 30.9185 13.8367V12.7171C30.9185 12.1894 30.4894 11.7603 29.962 11.7603H27.0069C26.471 11.7603 26.0355 12.1962 26.0355 12.7316V14.0412C21.7097 15.0164 18.8583 17.6074 18.8583 22.06C18.8583 26.577 22.135 28.4955 26.0355 30.0369V35.6525C23.936 34.9327 22.7242 33.1235 21.1371 33.1235C19.4126 33.1235 18.1641 35.2678 18.1641 36.7132C18.1641 38.0304 19.0449 39.3045 20.6444 40.3007C22.0646 41.1854 23.9168 41.7704 26.0351 42.0082V42.9506C26.0351 43.5744 26.5432 44.0821 27.167 44.0821H29.819C30.4253 44.0821 30.9185 43.5889 30.9185 42.9826V41.7114C35.2857 40.6376 37.7989 37.4783 37.7989 33.1658C37.7989 28.2401 34.3395 26.2585 30.9185 24.8733ZM30.2891 40.1752L29.9215 40.2567C29.5462 40.34 29.2789 40.6726 29.2789 41.0569V42.4424H27.6751V41.2601C27.6751 40.8302 27.3425 40.4732 26.9134 40.4425C22.0633 40.097 19.8037 38.0129 19.8037 36.7132C19.8037 35.9724 20.5483 34.7631 21.1371 34.7631C21.4753 34.7631 22.0103 35.1457 22.6295 35.5889C24.5966 36.9967 25.3075 37.1773 26.6427 37.5351C27.1632 37.6747 27.6751 37.2819 27.6751 36.7435V29.4767C27.6751 29.1376 27.4663 28.834 27.1504 28.7119C23.3809 27.2576 20.498 25.8443 20.498 22.06C20.498 18.5049 22.6862 16.3038 27.0022 15.5177C27.3916 15.4468 27.6751 15.1074 27.6751 14.7111V13.3999H29.2789V14.5907C29.2789 15.0211 29.6119 15.3785 30.0415 15.4084C33.3869 15.642 35.4654 16.4323 35.4654 17.4712C35.4654 18.0433 35.0491 19.3443 34.3634 19.3443C34.1337 19.3443 33.8779 19.2171 33.4087 18.9741C31.9462 18.2167 31.369 18.1283 30.2413 17.9297C29.7404 17.8409 29.2789 18.2273 29.2789 18.7372V25.4301C29.2789 25.7679 29.486 26.071 29.8006 26.1936C33.828 27.7657 36.1593 29.4105 36.1593 33.1658C36.1593 36.8468 34.0748 39.3361 30.2891 40.1752Z" fill="#047BDC"></path><path d="M30.5711 30.0963C30.0276 29.7112 29.2773 30.1032 29.2773 30.765V36.5959C29.2773 37.2184 29.946 37.6138 30.4908 37.3149C31.3653 36.8363 33.1061 36.066 33.1061 33.7825C33.1061 31.7005 31.528 30.7735 30.5711 30.0963ZM30.917 35.1104V32.4396C31.2654 32.8073 31.4665 33.2159 31.4665 33.7821C31.4665 34.3935 31.265 34.7893 30.917 35.1104Z" fill="#047BDC"></path><path d="M43.6732 43.9381L47.5861 51.7639C47.8879 52.3676 48.7513 52.3659 49.0523 51.7639L52.9652 43.9381C53.2372 43.3946 52.8414 42.752 52.2321 42.752H44.4068C43.7966 42.752 43.4016 43.3954 43.6732 43.9381ZM50.9054 44.3916L48.3192 49.5636L45.733 44.3916H50.9054Z" fill="#047BDC"></path><path d="M55.6855 35.5416L55.177 34.5245C55.5809 32.8528 55.8337 31.1325 55.9242 29.4049C55.9481 28.9532 55.6005 28.5672 55.1484 28.5437C54.6992 28.5207 54.3106 28.8674 54.2867 29.3196C54.2372 30.2657 54.1368 31.2094 53.9861 32.1432L50.6659 25.5019C50.2555 24.6821 49.4648 24.1488 48.5651 24.0659C48.5515 24.0647 48.5378 24.063 48.5241 24.0617C47.662 19.4528 45.2543 15.2436 41.6873 12.1424C37.8888 8.84014 33.0216 7.02119 27.9819 7.02119C16.4577 7.02119 7.08195 16.3969 7.08195 27.9212C7.08195 39.4455 16.4577 48.8212 27.9819 48.8212C32.7565 48.8212 37.3448 47.2012 41.0438 44.2362L43.5216 49.1922C38.9904 52.5124 33.6322 54.2635 27.9819 54.2635C13.4568 54.2635 1.63962 42.4463 1.63962 27.9212C1.63962 14.1975 12.3484 2.6587 26.0187 1.65187C26.47 1.61857 26.8094 1.22574 26.7761 0.773992C26.7428 0.32267 26.3492 -0.0176359 25.8983 0.0165227C18.8701 0.534454 12.3428 3.66681 7.51875 8.83672C2.67036 14.0327 0 20.8106 0 27.9212C0 35.3955 2.91075 42.4224 8.19595 47.7076C13.4812 52.9924 20.5076 55.9031 27.9819 55.9031C33.891 55.9031 39.4985 54.0991 44.2641 50.6773L45.975 54.0995C46.9417 56.0329 49.7 56.0308 50.6659 54.0995L55.6855 44.0603C56.5578 42.3152 55.2875 40.2657 53.3401 40.2657H53.098C53.2513 39.9544 53.3977 39.6419 53.5382 39.328C55.3849 39.1914 56.5232 37.217 55.6855 35.5416ZM40.7317 42.3575C37.2095 45.4711 32.6937 47.1816 27.9819 47.1816C17.3616 47.1816 8.72157 38.5415 8.72157 27.9212C8.72157 17.3012 17.3616 8.66081 27.9819 8.66081C37.2424 8.66081 45.2799 15.4059 46.9293 24.4502C46.5288 24.7004 46.1966 25.0595 45.975 25.5023L40.9558 35.5411C40.1514 37.1496 41.1702 39.0663 42.9353 39.3105C43.1531 39.3404 43.2808 39.3362 43.4955 39.3362C43.244 39.6773 42.9819 40.0099 42.7099 40.3323C41.7116 40.5578 40.9366 41.3549 40.7317 42.3575ZM53.3401 41.9053C54.0719 41.9053 54.5463 42.6718 54.2188 43.3272L49.1992 53.366C48.8371 54.0902 47.8042 54.091 47.4417 53.366L42.4221 43.3268C42.0963 42.6756 42.566 41.9053 43.3013 41.9053H53.3401ZM44.8465 40.2653C45.069 39.9617 45.2842 39.6517 45.49 39.3362H51.7282C51.5775 39.6479 51.4204 39.9578 51.2568 40.2653H44.8465ZM43.3013 37.6965C42.5677 37.6965 42.0955 36.9288 42.4225 36.2747L47.4417 26.2359C47.7987 25.5215 48.8324 25.5027 49.1992 26.2355C53.4131 34.6633 53.931 35.6995 54.2188 36.2747C54.5459 36.9297 54.0728 37.6965 53.3401 37.6965C52.4964 37.6965 43.3013 37.6965 43.3013 37.6965Z" fill="#047BDC"></path><path d="M49.0525 27.8376C48.7506 27.2338 47.8872 27.2351 47.5862 27.8376L43.6733 35.6629C43.4013 36.2065 43.7971 36.8495 44.4069 36.8495H52.2322C52.8424 36.8495 53.2369 36.2056 52.9653 35.6629L49.0525 27.8376ZM45.7331 35.2099L48.3193 30.0374L50.9056 35.2099H45.7331Z" fill="#047BDC"></path><path d="M29.8385 0.00186304C29.3872 -0.0284528 28.9965 0.314842 28.9666 0.766591C28.9372 1.21834 29.2792 1.6086 29.7313 1.63806C42.5776 2.48008 53.1066 12.7845 54.2223 25.6072C54.2594 26.0342 54.6172 26.3561 55.0382 26.3561C55.0617 26.3561 55.0861 26.3553 55.11 26.3527C55.5609 26.3139 55.8952 25.9164 55.8555 25.465C55.2791 18.8357 52.3346 12.6107 47.5656 7.93693C42.7898 3.25633 36.4939 0.43824 29.8385 0.00186304Z" fill="#047BDC"></path></svg>