<svg xmlns="http://www.w3.org/2000/svg" width="58" height="58" viewBox="0 0 58 58" fill="none"><path d="M36.4834 50.5161C36.4834 49.0359 36.0445 47.589 35.2221 46.3583C34.3998 45.1276 33.231 44.1683 31.8635 43.6019C30.496 43.0355 28.9912 42.8873 27.5395 43.176C26.0877 43.4648 24.7542 44.1776 23.7076 45.2242C22.661 46.2708 21.9482 47.6043 21.6594 49.0561C21.3707 50.5078 21.5189 52.0126 22.0853 53.3801C22.6517 54.7476 23.611 55.9164 24.8417 56.7387C26.0724 57.5611 27.5193 58 28.9995 58C30.9837 57.9977 32.8859 57.2085 34.2889 55.8055C35.6919 54.4025 36.4811 52.5003 36.4834 50.5161ZM23.3866 50.5161C23.3866 49.406 23.7158 48.3208 24.3325 47.3977C24.9493 46.4747 25.8259 45.7553 26.8515 45.3305C27.8772 44.9056 29.0057 44.7945 30.0945 45.011C31.1833 45.2276 32.1834 45.7622 32.9684 46.5472C33.7534 47.3322 34.288 48.3323 34.5046 49.4211C34.7211 50.5099 34.61 51.6384 34.1852 52.6641C33.7603 53.6897 33.0409 54.5663 32.1179 55.1831C31.1948 55.7998 30.1096 56.129 28.9995 56.129C27.5114 56.1274 26.0846 55.5355 25.0324 54.4832C23.9801 53.431 23.3882 52.0042 23.3866 50.5161Z" fill="#048DEF"></path><path d="M36.4834 50.5161C36.4834 49.0359 36.0445 47.589 35.2221 46.3583C34.3998 45.1276 33.231 44.1683 31.8635 43.6019C30.496 43.0355 28.9912 42.8873 27.5395 43.176C26.0877 43.4648 24.7542 44.1776 23.7076 45.2242C22.661 46.2708 21.9482 47.6043 21.6594 49.0561C21.3707 50.5078 21.5189 52.0126 22.0853 53.3801C22.6517 54.7476 23.611 55.9164 24.8417 56.7387C26.0724 57.5611 27.5193 58 28.9995 58C30.9837 57.9977 32.8859 57.2085 34.2889 55.8055C35.6919 54.4025 36.4811 52.5003 36.4834 50.5161ZM23.3866 50.5161C23.3866 49.406 23.7158 48.3208 24.3325 47.3977C24.9493 46.4747 25.8259 45.7553 26.8515 45.3305C27.8772 44.9056 29.0057 44.7945 30.0945 45.011C31.1833 45.2276 32.1834 45.7622 32.9684 46.5472C33.7534 47.3322 34.288 48.3323 34.5046 49.4211C34.7211 50.5099 34.61 51.6384 34.1852 52.6641C33.7603 53.6897 33.0409 54.5663 32.1179 55.1831C31.1948 55.7998 30.1096 56.129 28.9995 56.129C27.5114 56.1274 26.0846 55.5355 25.0324 54.4832C23.9801 53.431 23.3882 52.0042 23.3866 50.5161Z" stroke="#048DEF"></path><path d="M5.6129 20.5059V23.3871C5.61435 24.6272 6.10762 25.8161 6.98449 26.6929C7.86136 27.5698 9.05024 28.0631 10.2903 28.0645H28.0645V34.6129H26.1936C26.028 34.6129 25.8654 34.6568 25.7223 34.7402C25.5792 34.8235 25.4609 34.9434 25.3793 35.0875C25.2978 35.2316 25.2559 35.3947 25.258 35.5603C25.2602 35.7259 25.3062 35.8879 25.3915 36.0299L28.1979 40.7073C28.281 40.8458 28.3986 40.9604 28.5392 41.0399C28.6797 41.1195 28.8385 41.1613 29 41.1613C29.1615 41.1613 29.3203 41.1195 29.4609 41.0399C29.6014 40.9604 29.719 40.8458 29.8021 40.7073L32.6086 36.0299C32.6938 35.8879 32.7399 35.7259 32.742 35.5603C32.7441 35.3947 32.7023 35.2316 32.6207 35.0875C32.5391 34.9434 32.4208 34.8235 32.2777 34.7402C32.1347 34.6568 31.972 34.6129 31.8065 34.6129H29.9355V28.0645H47.7097C48.9498 28.0631 50.1386 27.5698 51.0155 26.6929C51.8924 25.8161 52.3857 24.6272 52.3871 23.3871V20.5059C53.9451 20.2829 55.3704 19.5055 56.4014 18.3163C57.4324 17.1272 58 15.6061 58 14.0323C58 12.4584 57.4324 10.9373 56.4014 9.7482C55.3704 8.55907 53.9451 7.78165 52.3871 7.55862V4.67742C52.3857 3.43734 51.8924 2.24846 51.0155 1.37159C50.1386 0.494722 48.9498 0.00145577 47.7097 0H10.2903C9.05024 0.00145577 7.86136 0.494722 6.98449 1.37159C6.10762 2.24846 5.61435 3.43734 5.6129 4.67742V7.55862C4.05492 7.78165 2.62964 8.55907 1.59862 9.7482C0.567593 10.9373 0 12.4584 0 14.0323C0 15.6061 0.567593 17.1272 1.59862 18.3163C2.62964 19.5055 4.05492 20.2829 5.6129 20.5059ZM30.1538 36.4839L29 38.4078L27.8462 36.4839H30.1538ZM51.4516 9.35484C52.3767 9.35484 53.2811 9.62917 54.0503 10.1431C54.8195 10.6571 55.419 11.3876 55.773 12.2423C56.127 13.097 56.2197 14.0375 56.0392 14.9448C55.8587 15.8521 55.4132 16.6856 54.7591 17.3397C54.1049 17.9939 53.2715 18.4393 52.3642 18.6198C51.4568 18.8003 50.5163 18.7077 49.6617 18.3536C48.807 17.9996 48.0765 17.4001 47.5625 16.6309C47.0485 15.8617 46.7742 14.9574 46.7742 14.0323C46.7757 12.7922 47.2689 11.6033 48.1458 10.7264C49.0227 9.84956 50.2115 9.3563 51.4516 9.35484ZM7.48387 4.67742C7.48468 3.93335 7.78062 3.21999 8.30676 2.69386C8.83289 2.16772 9.54625 1.87178 10.2903 1.87097H47.7097C48.4538 1.87178 49.1671 2.16772 49.6933 2.69386C50.2194 3.21999 50.5153 3.93335 50.5161 4.67742V7.55862C48.9582 7.78165 47.5329 8.55907 46.5019 9.7482C45.4708 10.9373 44.9032 12.4584 44.9032 14.0323C44.9032 15.6061 45.4708 17.1272 46.5019 18.3163C47.5329 19.5055 48.9582 20.2829 50.5161 20.5059V23.3871C50.5153 24.1312 50.2194 24.8445 49.6933 25.3707C49.1671 25.8968 48.4538 26.1927 47.7097 26.1936H10.2903C9.54625 26.1927 8.83289 25.8968 8.30676 25.3707C7.78062 24.8445 7.48468 24.1312 7.48387 23.3871V20.5059C9.04184 20.2829 10.4671 19.5055 11.4981 18.3163C12.5292 17.1272 13.0968 15.6061 13.0968 14.0323C13.0968 12.4584 12.5292 10.9373 11.4981 9.7482C10.4671 8.55907 9.04184 7.78165 7.48387 7.55862V4.67742ZM6.54838 9.35484C7.47349 9.35484 8.37782 9.62917 9.14702 10.1431C9.91622 10.6571 10.5157 11.3876 10.8698 12.2423C11.2238 13.097 11.3164 14.0375 11.1359 14.9448C10.9555 15.8521 10.51 16.6856 9.85582 17.3397C9.20167 17.9939 8.36823 18.4393 7.4609 18.6198C6.55357 18.8003 5.6131 18.7077 4.75841 18.3536C3.90372 17.9996 3.17321 17.4001 2.65925 16.6309C2.14529 15.8617 1.87096 14.9574 1.87096 14.0323C1.87242 12.7922 2.36568 11.6033 3.24255 10.7264C4.11943 9.84956 5.3083 9.3563 6.54838 9.35484Z" fill="#048DEF"></path><path d="M5.6129 20.5059V23.3871C5.61435 24.6272 6.10762 25.8161 6.98449 26.6929C7.86136 27.5698 9.05024 28.0631 10.2903 28.0645H28.0645V34.6129H26.1936C26.028 34.6129 25.8654 34.6568 25.7223 34.7402C25.5792 34.8235 25.4609 34.9434 25.3793 35.0875C25.2978 35.2316 25.2559 35.3947 25.258 35.5603C25.2602 35.7259 25.3062 35.8879 25.3915 36.0299L28.1979 40.7073C28.281 40.8458 28.3986 40.9604 28.5392 41.0399C28.6797 41.1195 28.8385 41.1613 29 41.1613C29.1615 41.1613 29.3203 41.1195 29.4609 41.0399C29.6014 40.9604 29.719 40.8458 29.8021 40.7073L32.6086 36.0299C32.6938 35.8879 32.7399 35.7259 32.742 35.5603C32.7441 35.3947 32.7023 35.2316 32.6207 35.0875C32.5391 34.9434 32.4208 34.8235 32.2777 34.7402C32.1347 34.6568 31.972 34.6129 31.8065 34.6129H29.9355V28.0645H47.7097C48.9498 28.0631 50.1386 27.5698 51.0155 26.6929C51.8924 25.8161 52.3857 24.6272 52.3871 23.3871V20.5059C53.9451 20.2829 55.3704 19.5055 56.4014 18.3163C57.4324 17.1272 58 15.6061 58 14.0323C58 12.4584 57.4324 10.9373 56.4014 9.7482C55.3704 8.55907 53.9451 7.78165 52.3871 7.55862V4.67742C52.3857 3.43734 51.8924 2.24846 51.0155 1.37159C50.1386 0.494722 48.9498 0.00145577 47.7097 0H10.2903C9.05024 0.00145577 7.86136 0.494722 6.98449 1.37159C6.10762 2.24846 5.61435 3.43734 5.6129 4.67742V7.55862C4.05492 7.78165 2.62964 8.55907 1.59862 9.7482C0.567593 10.9373 0 12.4584 0 14.0323C0 15.6061 0.567593 17.1272 1.59862 18.3163C2.62964 19.5055 4.05492 20.2829 5.6129 20.5059ZM30.1538 36.4839L29 38.4078L27.8462 36.4839H30.1538ZM51.4516 9.35484C52.3767 9.35484 53.2811 9.62917 54.0503 10.1431C54.8195 10.6571 55.419 11.3876 55.773 12.2423C56.127 13.097 56.2197 14.0375 56.0392 14.9448C55.8587 15.8521 55.4132 16.6856 54.7591 17.3397C54.1049 17.9939 53.2715 18.4393 52.3642 18.6198C51.4568 18.8003 50.5163 18.7077 49.6617 18.3536C48.807 17.9996 48.0765 17.4001 47.5625 16.6309C47.0485 15.8617 46.7742 14.9574 46.7742 14.0323C46.7757 12.7922 47.2689 11.6033 48.1458 10.7264C49.0227 9.84956 50.2115 9.3563 51.4516 9.35484ZM7.48387 4.67742C7.48468 3.93335 7.78062 3.21999 8.30676 2.69386C8.83289 2.16772 9.54625 1.87178 10.2903 1.87097H47.7097C48.4538 1.87178 49.1671 2.16772 49.6933 2.69386C50.2194 3.21999 50.5153 3.93335 50.5161 4.67742V7.55862C48.9582 7.78165 47.5329 8.55907 46.5019 9.7482C45.4708 10.9373 44.9032 12.4584 44.9032 14.0323C44.9032 15.6061 45.4708 17.1272 46.5019 18.3163C47.5329 19.5055 48.9582 20.2829 50.5161 20.5059V23.3871C50.5153 24.1312 50.2194 24.8445 49.6933 25.3707C49.1671 25.8968 48.4538 26.1927 47.7097 26.1936H10.2903C9.54625 26.1927 8.83289 25.8968 8.30676 25.3707C7.78062 24.8445 7.48468 24.1312 7.48387 23.3871V20.5059C9.04184 20.2829 10.4671 19.5055 11.4981 18.3163C12.5292 17.1272 13.0968 15.6061 13.0968 14.0323C13.0968 12.4584 12.5292 10.9373 11.4981 9.7482C10.4671 8.55907 9.04184 7.78165 7.48387 7.55862V4.67742ZM6.54838 9.35484C7.47349 9.35484 8.37782 9.62917 9.14702 10.1431C9.91622 10.6571 10.5157 11.3876 10.8698 12.2423C11.2238 13.097 11.3164 14.0375 11.1359 14.9448C10.9555 15.8521 10.51 16.6856 9.85582 17.3397C9.20167 17.9939 8.36823 18.4393 7.4609 18.6198C6.55357 18.8003 5.6131 18.7077 4.75841 18.3536C3.90372 17.9996 3.17321 17.4001 2.65925 16.6309C2.14529 15.8617 1.87096 14.9574 1.87096 14.0323C1.87242 12.7922 2.36568 11.6033 3.24255 10.7264C4.11943 9.84956 5.3083 9.3563 6.54838 9.35484Z" stroke="#048DEF"></path><path d="M6.08118 16.8389C6.10311 16.8389 6.12504 16.838 6.14787 16.8362C6.28151 16.8268 6.41156 16.7887 6.52916 16.7246C6.64676 16.6604 6.74916 16.5717 6.82938 16.4644L9.63584 12.7224L8.13944 11.6006L5.97978 14.4792L4.8716 13.3711L3.54883 14.6939L5.4198 16.5648C5.5066 16.6518 5.6097 16.7207 5.72319 16.7678C5.83668 16.8148 5.95833 16.839 6.08118 16.8389Z" fill="#048DEF"></path><path d="M6.08118 16.8389C6.10311 16.8389 6.12504 16.838 6.14787 16.8362C6.28151 16.8268 6.41156 16.7887 6.52916 16.7246C6.64676 16.6604 6.74916 16.5717 6.82938 16.4644L9.63584 12.7224L8.13944 11.6006L5.97978 14.4792L4.8716 13.3711L3.54883 14.6939L5.4198 16.5648C5.5066 16.6518 5.6097 16.7207 5.72319 16.7678C5.83668 16.8148 5.95833 16.839 6.08118 16.8389Z" stroke="#048DEF"></path><path d="M30.9845 53.8233L32.3072 52.5006L30.3231 50.5164L32.3072 48.5322L30.9845 47.2095L29.0003 49.1936L27.0161 47.2095L25.6934 48.5322L27.6775 50.5164L25.6934 52.5006L27.0161 53.8233L29.0003 51.8392L30.9845 53.8233Z" fill="#048DEF"></path><path d="M30.9845 53.8233L32.3072 52.5006L30.3231 50.5164L32.3072 48.5322L30.9845 47.2095L29.0003 49.1936L27.0161 47.2095L25.6934 48.5322L27.6775 50.5164L25.6934 52.5006L27.0161 53.8233L29.0003 51.8392L30.9845 53.8233Z" stroke="#048DEF"></path><path d="M50.9835 16.8389C51.0055 16.8389 51.0274 16.838 51.0502 16.8362C51.1839 16.8268 51.3139 16.7887 51.4315 16.7246C51.5491 16.6604 51.6515 16.5717 51.7317 16.4644L54.5382 12.7224L53.0418 11.6006L50.8821 14.4792L49.7739 13.3711L48.4512 14.6939L50.3221 16.5648C50.4089 16.6518 50.512 16.7207 50.6255 16.7678C50.739 16.8148 50.8607 16.839 50.9835 16.8389Z" fill="#048DEF"></path><path d="M50.9835 16.8389C51.0055 16.8389 51.0274 16.838 51.0502 16.8362C51.1839 16.8268 51.3139 16.7887 51.4315 16.7246C51.5491 16.6604 51.6515 16.5717 51.7317 16.4644L54.5382 12.7224L53.0418 11.6006L50.8821 14.4792L49.7739 13.3711L48.4512 14.6939L50.3221 16.5648C50.4089 16.6518 50.512 16.7207 50.6255 16.7678C50.739 16.8148 50.8607 16.839 50.9835 16.8389Z" stroke="#048DEF"></path><path d="M36.8669 15.0975L36.0598 14.6297C36.0781 14.4278 36.0872 14.2305 36.0872 14.0323C36.0872 13.834 36.0781 13.6358 36.0598 13.4348L36.8665 12.9671C37.0428 12.8646 37.1809 12.7073 37.2597 12.5191C37.3384 12.331 37.3535 12.1222 37.3027 11.9247C36.9252 10.4495 36.1545 9.10447 35.0727 8.03292C34.9269 7.88804 34.7374 7.79535 34.5335 7.76925C34.3297 7.74315 34.1229 7.7851 33.9454 7.88858L33.1369 8.35906C32.8139 8.13432 32.4695 7.93517 32.1132 7.72871V6.82342C32.1133 6.61906 32.0463 6.42032 31.9227 6.25764C31.799 6.09495 31.6254 5.97727 31.4285 5.92264C30.6643 5.71456 29.8754 5.61069 29.0834 5.61384C28.3627 5.6257 27.6467 5.73072 26.953 5.92629C26.7561 5.98092 26.5825 6.09859 26.4588 6.26128C26.3351 6.42397 26.2682 6.62271 26.2683 6.82706L26.2678 7.76711C25.912 7.93521 25.5676 8.13436 25.2177 8.34266L24.4393 7.89136C24.2619 7.7884 24.0554 7.74667 23.8519 7.77258C23.6483 7.7985 23.459 7.89064 23.3129 8.03479C22.2296 9.10516 21.4572 10.4497 21.0784 11.9247C21.0275 12.1223 21.0426 12.331 21.1214 12.5192C21.2001 12.7074 21.3382 12.8646 21.5146 12.9671L22.3217 13.4348C22.3034 13.6358 22.2943 13.8341 22.2943 14.0323C22.2943 14.2305 22.3034 14.4288 22.3217 14.6298L21.5146 15.0975C21.3382 15.2 21.2001 15.3572 21.1214 15.5454C21.0426 15.7336 21.0275 15.9423 21.0784 16.1399C21.4558 17.615 22.2265 18.9601 23.3084 20.0316C23.4546 20.1758 23.644 20.2679 23.8477 20.294C24.0513 20.3201 24.2579 20.2786 24.4357 20.176L25.2446 19.7055C25.5671 19.9302 25.9111 20.1294 26.2683 20.3359V21.2412C26.2682 21.4455 26.3352 21.6443 26.4588 21.807C26.5825 21.9697 26.7561 22.0873 26.953 22.142C27.6799 22.3461 28.4312 22.4503 29.1862 22.4516C29.2236 22.4516 29.2606 22.4507 29.2981 22.4507C30.0186 22.4386 30.7346 22.3339 31.4285 22.1392C31.6254 22.0842 31.7989 21.9663 31.9226 21.8035C32.0462 21.6407 32.1132 21.4419 32.1132 21.2375L32.1127 20.2974C32.4695 20.1293 32.8139 19.9302 33.1633 19.7219L33.9422 20.1732C34.1197 20.2761 34.3261 20.3178 34.5296 20.2919C34.7332 20.266 34.9225 20.1739 35.0686 20.0298C36.1519 18.9594 36.9243 17.6149 37.3031 16.1398C37.354 15.9423 37.3389 15.7335 37.2601 15.5454C37.1814 15.3572 37.0433 15.1999 36.8669 15.0975ZM34.1276 13.1086C34.2458 13.7187 34.2458 14.3458 34.1276 14.9558C34.0931 15.1454 34.1178 15.3409 34.1985 15.5159C34.2792 15.6908 34.4119 15.8366 34.5785 15.9334L35.2814 16.3408C35.0322 17.0057 34.6765 17.6256 34.2281 18.1761L34.1016 18.1031C33.7907 17.92 33.4341 17.8292 33.0736 17.8412C32.713 17.8532 32.3633 17.9674 32.0652 18.1707C31.8288 18.3363 31.5784 18.4811 31.317 18.6037C30.9925 18.7613 30.7193 19.0077 30.5291 19.3143C30.3389 19.6208 30.2394 19.975 30.2422 20.3358V20.4901C29.9221 20.5454 29.5982 20.5753 29.2734 20.5797C28.8934 20.5879 28.5135 20.5585 28.1392 20.492V20.3357C28.142 19.975 28.0425 19.6208 27.8522 19.3143C27.662 19.0078 27.3889 18.7614 27.0644 18.6036C26.8038 18.4812 26.5539 18.3369 26.3176 18.1724C26.0196 17.9681 25.6695 17.853 25.3084 17.8407C24.9473 17.8284 24.5902 17.9194 24.279 18.103L24.1497 18.1779C23.7022 17.6267 23.3476 17.0062 23.1 16.3407L23.803 15.9333C23.9699 15.8364 24.1027 15.6903 24.1833 15.515C24.264 15.3397 24.2884 15.1437 24.2534 14.954C24.1358 14.3451 24.1358 13.7193 24.2534 13.1104C24.2884 12.9207 24.264 12.7247 24.1833 12.5494C24.1027 12.3741 23.9699 12.228 23.803 12.1311L23.1 11.7236C23.3492 11.0587 23.705 10.4389 24.1534 9.88828L24.2795 9.96137C24.5902 10.1444 24.9466 10.2352 25.307 10.2233C25.6674 10.2113 26.017 10.097 26.3149 9.89376C26.552 9.72888 26.8024 9.58404 27.0635 9.46074C27.3882 9.30322 27.6616 9.0569 27.852 8.75033C28.0424 8.44376 28.142 8.0895 28.1392 7.72863V7.57428C28.4593 7.519 28.7833 7.48906 29.1081 7.48475C29.4881 7.47482 29.8682 7.50421 30.2422 7.57245V7.72868C30.2394 8.08945 30.3389 8.44364 30.5291 8.7502C30.7193 9.05676 30.9925 9.30314 31.3171 9.46078C31.5778 9.58311 31.8276 9.72736 32.0639 9.89199C32.362 10.0957 32.712 10.2104 33.0729 10.2227C33.4338 10.235 33.7907 10.1444 34.102 9.96142L34.2313 9.8865C34.6788 10.4378 35.0335 11.0583 35.2814 11.7237L34.5785 12.1311C34.4119 12.2279 34.2792 12.3737 34.1985 12.5486C34.1178 12.7236 34.0931 12.9191 34.1276 13.1086Z" fill="#048DEF"></path><path d="M29.1909 10.2906C28.4463 10.2695 27.7124 10.4711 27.083 10.8695C26.4536 11.268 25.9574 11.8451 25.6578 12.5271C25.3583 13.2091 25.269 13.9649 25.4014 14.6979C25.5338 15.4309 25.8819 16.1078 26.4011 16.6419C26.9204 17.176 27.5871 17.543 28.3161 17.696C29.0451 17.8491 29.8032 17.7812 30.4933 17.501C31.1835 17.2208 31.7744 16.7411 32.1904 16.1232C32.6064 15.5053 32.8286 14.7774 32.8286 14.0325C32.8412 13.0543 32.4652 12.111 31.7833 11.4095C31.1014 10.708 30.1691 10.3056 29.1909 10.2906ZM29.1909 15.9035C28.8163 15.9249 28.4438 15.8334 28.1218 15.6409C27.7998 15.4483 27.543 15.1635 27.3846 14.8233C27.2263 14.4831 27.1737 14.1033 27.2337 13.7329C27.2937 13.3625 27.4635 13.0186 27.7211 12.7458C27.9787 12.473 28.3123 12.2838 28.6787 12.2027C29.045 12.1217 29.4273 12.1524 29.776 12.291C30.1246 12.4296 30.4237 12.6697 30.6344 12.9802C30.845 13.2907 30.9577 13.6573 30.9577 14.0325C30.9704 14.5146 30.7917 14.9821 30.4605 15.3328C30.1294 15.6834 29.6729 15.8886 29.1909 15.9035Z" fill="#048DEF"></path><path d="M29.1909 10.2906C28.4463 10.2695 27.7124 10.4711 27.083 10.8695C26.4536 11.268 25.9574 11.8451 25.6578 12.5271C25.3583 13.2091 25.269 13.9649 25.4014 14.6979C25.5338 15.4309 25.8819 16.1078 26.4011 16.6419C26.9204 17.176 27.5871 17.543 28.3161 17.696C29.0451 17.8491 29.8032 17.7812 30.4933 17.501C31.1835 17.2208 31.7744 16.7411 32.1904 16.1232C32.6064 15.5053 32.8286 14.7774 32.8286 14.0325C32.8412 13.0543 32.4652 12.111 31.7833 11.4095C31.1014 10.708 30.1691 10.3056 29.1909 10.2906ZM29.1909 15.9035C28.8163 15.9249 28.4438 15.8334 28.1218 15.6409C27.7998 15.4483 27.543 15.1635 27.3846 14.8233C27.2263 14.4831 27.1737 14.1033 27.2337 13.7329C27.2937 13.3625 27.4635 13.0186 27.7211 12.7458C27.9787 12.473 28.3123 12.2838 28.6787 12.2027C29.045 12.1217 29.4273 12.1524 29.776 12.291C30.1246 12.4296 30.4237 12.6697 30.6344 12.9802C30.845 13.2907 30.9577 13.6573 30.9577 14.0325C30.9704 14.5146 30.7917 14.9821 30.4605 15.3328C30.1294 15.6834 29.6729 15.8886 29.1909 15.9035Z" stroke="#048DEF"></path></svg>