<svg xmlns="http://www.w3.org/2000/svg" width="74" height="73" viewBox="0 0 74 73" fill="none"><path d="M31.5366 4.40813C31.4325 4.28676 31.3534 4.14608 31.3037 3.99413C31.2541 3.84218 31.2348 3.68193 31.247 3.52253C31.2593 3.36314 31.3028 3.20772 31.3751 3.06514C31.4475 2.92257 31.5471 2.79564 31.6685 2.69159L33.5842 1.04935C34.4113 0.370832 35.4481 0 36.518 0C37.5878 0 38.6246 0.370832 39.4518 1.04935L41.368 2.69159C41.612 2.90204 41.7627 3.20066 41.7869 3.52197C41.8111 3.84329 41.7069 4.1611 41.4972 4.40574C41.2875 4.65039 40.9893 4.8019 40.6681 4.82709C40.3468 4.85227 40.0287 4.74906 39.7834 4.54008L37.8672 2.89784C37.487 2.58541 37.0101 2.41462 36.518 2.41462C36.0259 2.41462 35.549 2.58541 35.1688 2.89784L33.2531 4.54008C33.0077 4.74965 32.6893 4.85343 32.3676 4.8287C32.0458 4.80397 31.747 4.65274 31.5366 4.40813ZM73.036 32.6353V66.9137C73.0341 68.5273 72.3922 70.0743 71.2512 71.2153C70.1102 72.3563 68.5632 72.9981 66.9496 73H6.08633C4.47272 72.9981 2.92574 72.3563 1.78474 71.2153C0.64374 70.0743 0.00189524 68.5273 9.67109e-07 66.9137V32.6353C-0.000494302 31.7572 0.189241 30.8894 0.556154 30.0917C0.923066 29.2939 1.45845 28.5851 2.12546 28.0141L4.07673 26.3415C4.32196 26.1322 4.64021 26.0288 4.96164 26.0538C5.28307 26.0789 5.58143 26.2304 5.79126 26.4752C6.0011 26.72 6.10527 27.038 6.08091 27.3595C6.05656 27.6809 5.90567 27.9796 5.66136 28.19L3.71008 29.8625C3.50533 30.0386 3.32076 30.2368 3.15977 30.4536L35.1688 57.8935C35.549 58.206 36.0259 58.3768 36.518 58.3768C37.0101 58.3768 37.487 58.206 37.8672 57.8935L69.8762 30.4536C69.7152 30.2368 69.5307 30.0386 69.3259 29.8625L67.3746 28.19C67.1306 27.9796 66.98 27.6809 66.9558 27.3596C66.9316 27.0383 67.0358 26.7205 67.2455 26.4759C67.4552 26.2312 67.7533 26.0797 68.0746 26.0545C68.3958 26.0293 68.714 26.1325 68.9592 26.3415L70.9105 28.014C71.5775 28.5851 72.1129 29.2939 72.4798 30.0917C72.8467 30.8894 73.0365 31.7572 73.036 32.6353ZM70.6014 66.9137V33.0388L49.5421 51.0921L70.1042 68.7201C70.4261 68.1722 70.5976 67.5491 70.6014 66.9137ZM23.4939 51.0921L2.43453 33.0388V66.9137C2.43838 67.549 2.60992 68.1721 2.9318 68.72L23.4939 51.0921ZM66.9496 70.5655C67.3881 70.5624 67.8223 70.4796 68.2311 70.3212L47.6716 52.6955L39.4518 59.742C38.6347 60.4424 37.5941 60.8273 36.518 60.8273C35.4418 60.8273 34.4012 60.4424 33.5842 59.742L25.3644 52.6955L4.80488 70.3212C5.21368 70.4797 5.6479 70.5624 6.08633 70.5655H66.9496ZM9.73813 32.5003C10.061 32.5003 10.3706 32.3721 10.5989 32.1438C10.8271 31.9155 10.9554 31.6059 10.9554 31.2831V13.354C10.9565 12.3858 11.3415 11.4575 12.0261 10.7729C12.7108 10.0883 13.639 9.70322 14.6072 9.70217H58.4288C59.397 9.70322 60.3252 10.0883 61.0098 10.7729C61.6944 11.4575 62.0795 12.3858 62.0806 13.354V31.2831C62.0806 31.6059 62.2088 31.9155 62.4371 32.1438C62.6654 32.3721 62.975 32.5003 63.2978 32.5003C63.6207 32.5003 63.9303 32.3721 64.1586 32.1438C64.3868 31.9155 64.5151 31.6059 64.5151 31.2831V13.354C64.5132 11.7404 63.8714 10.1934 62.7304 9.05237C61.5894 7.91137 60.0424 7.26953 58.4288 7.26763H14.6072C12.9936 7.26953 11.4466 7.91137 10.3056 9.05237C9.1646 10.1934 8.52276 11.7404 8.52086 13.354V31.2831C8.52086 31.6059 8.64911 31.9155 8.87739 32.1438C9.10567 32.3721 9.41529 32.5003 9.73813 32.5003ZM23.1281 40.1338V33.6214C21.5039 33.048 20.1348 31.9187 19.263 30.4332C18.3912 28.9477 18.0729 27.2017 18.3643 25.5041C18.6557 23.8065 19.5382 22.2666 20.8555 21.1569C22.1728 20.0472 23.8401 19.4392 25.5626 19.4403H29.2144C36.962 19.4403 40.2797 15.2322 40.417 15.0527C40.5716 14.8505 40.7855 14.7017 41.0289 14.6273C41.2723 14.5529 41.5329 14.5565 41.7741 14.6376C42.0153 14.7188 42.225 14.8734 42.3739 15.0798C42.5228 15.2862 42.6034 15.534 42.6043 15.7885V23.0921H43.8216C44.7901 23.0921 45.7189 23.4768 46.4038 24.1617C47.0886 24.8465 47.4734 25.7754 47.4734 26.7439C47.4734 27.7124 47.0886 28.6413 46.4038 29.3261C45.7189 30.0109 44.7901 30.3957 43.8216 30.3957H42.6043V37.6993C42.6043 37.9547 42.524 38.2037 42.3746 38.411C42.2253 38.6182 42.0145 38.7732 41.7721 38.854C41.5298 38.9349 41.2682 38.9374 41.0243 38.8612C40.7805 38.7851 40.5668 38.6341 40.4135 38.4298C40.287 38.265 37.307 34.4978 30.4316 34.0886V40.1338C30.4316 41.1023 30.0469 42.0312 29.3621 42.716C28.6772 43.4009 27.7484 43.7856 26.7799 43.7856C25.8113 43.7856 24.8825 43.4009 24.1976 42.716C23.5128 42.0312 23.1281 41.1023 23.1281 40.1338ZM42.6043 25.5266V27.9612H43.8216C44.1444 27.9612 44.454 27.8329 44.6823 27.6046C44.9106 27.3763 45.0388 27.0667 45.0388 26.7439C45.0388 26.4211 44.9106 26.1114 44.6823 25.8832C44.454 25.6549 44.1444 25.5266 43.8216 25.5266H42.6043ZM27.9971 40.1338V34.0475H25.5626V40.1338C25.5626 40.4567 25.6908 40.7663 25.9191 40.9946C26.1474 41.2228 26.457 41.3511 26.7799 41.3511C27.1027 41.3511 27.4123 41.2228 27.6406 40.9946C27.8689 40.7663 27.9971 40.4567 27.9971 40.1338ZM30.4316 21.824V31.6638C33.9267 31.7715 37.3131 32.904 40.1698 34.9206V18.5672C37.3131 20.5838 33.9267 21.7163 30.4316 21.824ZM25.5626 31.613H27.9971V21.8748H25.5626C24.2712 21.8748 23.0328 22.3878 22.1196 23.3009C21.2065 24.2141 20.6935 25.4525 20.6935 26.7439C20.6935 28.0352 21.2065 29.2737 22.1196 30.1868C23.0328 31.1 24.2712 31.613 25.5626 31.613ZM53.5597 25.5266H51.1252C50.8023 25.5266 50.4927 25.6549 50.2644 25.8832C50.0362 26.1114 49.9079 26.4211 49.9079 26.7439C49.9079 27.0667 50.0362 27.3763 50.2644 27.6046C50.4927 27.8329 50.8023 27.9612 51.1252 27.9612H53.5597C53.8825 27.9612 54.1922 27.8329 54.4204 27.6046C54.6487 27.3763 54.777 27.0667 54.777 26.7439C54.777 26.4211 54.6487 26.1114 54.4204 25.8832C54.1922 25.6549 53.8825 25.5266 53.5597 25.5266ZM51.6696 30.5241C51.5266 30.4521 51.3707 30.4091 51.2111 30.3975C51.0514 30.3858 50.8909 30.4058 50.739 30.4563C50.587 30.5067 50.4465 30.5866 50.3255 30.6915C50.2045 30.7963 50.1053 30.924 50.0337 31.0672C49.9621 31.2104 49.9194 31.3664 49.9082 31.5261C49.8969 31.6858 49.9173 31.8462 49.9681 31.998C50.0189 32.1498 50.0992 32.2902 50.2043 32.4109C50.3094 32.5317 50.4373 32.6306 50.5807 32.7018L53.0153 33.9191C53.3039 34.0626 53.6377 34.0857 53.9435 33.9834C54.2492 33.8811 54.5018 33.6617 54.646 33.3734C54.7902 33.085 54.8141 32.7513 54.7125 32.4453C54.6109 32.1394 54.3921 31.8862 54.1041 31.7413L51.6696 30.5241ZM51.1264 23.0921C51.315 23.0921 51.501 23.0482 51.6696 22.9637L54.1042 21.7464C54.3922 21.6016 54.611 21.3484 54.7125 21.0425C54.8141 20.7365 54.7902 20.4027 54.646 20.1144C54.5019 19.8261 54.2492 19.6067 53.9435 19.5044C53.6378 19.4021 53.304 19.4252 53.0153 19.5687L50.5807 20.7859C50.3353 20.9086 50.1385 21.1105 50.0223 21.3591C49.906 21.6076 49.8771 21.8881 49.9403 22.1551C50.0035 22.4221 50.155 22.6599 50.3703 22.83C50.5856 23.0001 50.852 23.0924 51.1264 23.0921Z" fill="#0458B9"></path></svg>