<svg xmlns="http://www.w3.org/2000/svg" width="63" height="63" viewBox="0 0 63 63" fill="none"><path d="M63 32.5162C63 29.1539 60.2656 26.4195 56.9032 26.4195C55.9257 26.4195 55.0407 26.7802 54.3385 27.3574C53.0663 26.7538 51.6773 26.4195 50.2638 26.4195C47.7215 26.4195 45.3305 27.4102 43.532 29.2077L43.1641 29.5756C42.8359 29.6731 42.522 29.8032 42.2171 29.9505C41.0984 26.7182 38.0317 24.3872 34.4234 24.3872H29.6324C27.4192 24.3872 25.4469 25.7092 24.5944 27.7201L23.1576 28.4385C21.9494 29.0431 21.0674 30.0735 20.6315 31.2949C18.6023 29.4943 15.9614 28.4517 13.2097 28.4517C7.04685 28.4517 2.03226 33.4663 2.03226 39.6291V46.4951C2.03226 48.8932 2.78826 51.2191 4.17629 53.1528C1.59532 55.2704 0 58.4702 0 61.984V63.0001H63V61.984C63 56.8353 59.5797 52.3521 54.6434 50.9763L54.3527 50.1044C55.5873 49.387 56.5059 48.1839 56.7996 46.741H56.9032C59.1448 46.741 60.9677 44.9181 60.9677 42.6765C60.9677 41.3058 60.2808 40.0966 59.2383 39.3599C61.4961 37.9149 63 35.3909 63 32.5162ZM43.9405 31.4696L44.2138 31.4015L44.9708 30.6445C46.3843 29.2311 48.2641 28.4517 50.2638 28.4517C51.2464 28.4517 52.2189 28.6468 53.1222 29.0197C52.9454 29.475 52.8387 29.9668 52.8387 30.484C52.8387 32.7256 54.6616 34.5485 56.9032 34.5485V32.5162C55.7824 32.5162 54.871 31.6048 54.871 30.484C54.871 29.3632 55.7824 28.4517 56.9032 28.4517C59.1448 28.4517 60.9677 30.2747 60.9677 32.5162C60.9677 35.8786 58.2333 38.613 54.871 38.613C51.5086 38.613 48.7742 35.8786 48.7742 32.5162H46.7419C46.7419 33.2458 46.8476 33.949 47.0285 34.6227C44.9088 34.9316 43.2038 36.533 42.78 38.613H42.6774C42.6774 37.7849 42.4254 37.0157 41.9986 36.3724L42.4305 34.644C42.5941 33.9906 42.6774 33.3169 42.6774 32.6412C42.6774 32.4441 42.6612 32.252 42.648 32.058C43.0473 31.7999 43.471 31.5875 43.9405 31.4696ZM44.9373 50.9763C44.0644 51.2191 43.2393 51.589 42.4518 52.0279C40.9927 49.8219 38.8994 48.0396 36.3784 46.9869L36.0624 46.0389C37.297 45.3215 38.2156 44.1184 38.5093 42.6755H38.6129C38.6129 44.9171 40.4358 46.74 42.6774 46.74H42.78C43.0737 48.1819 43.9923 49.386 45.2269 50.1034L44.9373 50.9763ZM10.6927 56.9033H15.7256C15.2165 58.3351 14.3518 59.6276 13.2087 60.6549C12.0675 59.6276 11.2018 58.3351 10.6927 56.9033ZM13.2097 48.7743C10.4082 48.7743 8.12903 46.4951 8.12903 43.6937V39.7938C8.12903 38.5531 8.78952 37.4333 9.82902 36.8246C11.2831 38.615 13.3702 39.807 15.6728 40.1362C17.1645 40.3496 18.2903 41.6472 18.2903 43.1541V43.6937C18.2903 46.4951 16.0111 48.7743 13.2097 48.7743ZM13.2097 50.8066C13.9921 50.8066 14.742 50.6745 15.4472 50.4408L16.2581 52.0625V53.8549C16.2581 54.1964 16.2357 54.5347 16.1981 54.8711H10.2223C10.1836 54.5347 10.1613 54.1964 10.1613 53.8549V52.0625L10.9722 50.4408C11.6774 50.6745 12.4273 50.8066 13.2097 50.8066ZM18.2903 53.8549V53.1934C18.7303 53.3581 19.1581 53.5501 19.5686 53.7787C18.7455 55.5366 18.2903 57.4785 18.2903 59.4884V60.9678H15.7266C17.3595 58.9834 18.2903 56.4634 18.2903 53.8549ZM24.3871 40.6453C23.2663 40.6453 22.3548 39.7338 22.3548 38.613C22.3548 37.4922 23.2663 36.5808 24.3871 36.5808V40.6453ZM24.4897 42.6775C24.7834 44.1194 25.702 45.3235 26.9366 46.0409L26.6205 46.989C25.7711 47.3436 24.9754 47.7866 24.2306 48.2957C24.3261 47.7013 24.3871 47.1018 24.3871 46.4951V42.6775H24.4897ZM27.3979 48.8759L29.3895 49.8717L26.8919 51.3705L26.0922 49.5181C26.5098 49.2763 26.9467 49.0649 27.3979 48.8759ZM35.6021 48.8759C36.0533 49.0649 36.4902 49.2763 36.9078 49.5181L36.1081 51.3705L33.6105 49.8717L35.6021 48.8759ZM34.3218 47.243L31.5 48.6544L28.6782 47.244L28.8652 46.6821C29.0654 46.7055 29.2615 46.742 29.4677 46.742H33.5323C33.7385 46.742 33.9346 46.7055 34.1348 46.6811L34.3218 47.243ZM33.5323 44.7098H29.4677C27.7871 44.7098 26.4194 43.3421 26.4194 41.6614V35.5209C26.4194 34.4245 27.3115 33.5324 28.4079 33.5324H34.5931C35.6885 33.5324 36.5806 34.4245 36.5806 35.5209V41.6614C36.5806 43.3421 35.2129 44.7098 33.5323 44.7098ZM20.3226 59.4884C20.3226 56.064 21.8742 52.8724 24.3983 50.7202L25.9469 54.3071L31.5 50.9752L37.0531 54.3071L38.6017 50.7202C41.1258 52.8724 42.6774 56.064 42.6774 59.4884V60.9678H20.3226V59.4884ZM38.6129 36.5808C39.7337 36.5808 40.6452 37.4922 40.6452 38.613C40.6452 39.7338 39.7337 40.6453 38.6129 40.6453V36.5808ZM42.6774 40.6453V44.7098C41.5566 44.7098 40.6452 43.7983 40.6452 42.6775C40.6452 42.4611 40.6899 42.2538 40.7559 42.0516C41.2813 41.7224 41.7233 41.2814 42.0525 40.755C42.2537 40.69 42.461 40.6453 42.6774 40.6453ZM24.067 30.2564L26.2344 29.1722L26.3675 28.7728C26.837 27.3655 28.1488 26.4195 29.6324 26.4195H34.4234C37.8539 26.4195 40.6452 29.2108 40.6452 32.6412C40.6452 33.1503 40.5822 33.6574 40.4592 34.1502L40.2692 34.9092C39.7621 34.6816 39.2043 34.5485 38.6129 34.5485H38.4808C38.0429 32.8028 36.4729 31.5001 34.5931 31.5001H28.4079C26.5281 31.5001 24.9571 32.8028 24.5202 34.5485H24.3871C23.7957 34.5485 23.2379 34.6816 22.7308 34.9102L22.4473 33.7762C22.3863 33.5324 22.3548 33.2794 22.3548 33.0253C22.3548 31.8456 23.0113 30.7837 24.067 30.2564ZM4.06452 46.4951V39.6291C4.06452 34.5871 8.16765 30.484 13.2097 30.484C16.068 30.484 18.6846 31.7795 20.4323 34.0333C20.4486 34.1116 20.4567 34.1918 20.476 34.2691L21.0014 36.3714C20.5746 37.0157 20.3226 37.7849 20.3226 38.613C20.3226 40.1108 21.1456 41.4074 22.3548 42.1126V46.4961C22.3548 48.2378 21.8712 49.9429 20.9577 51.4264L20.9719 51.4355C20.8317 51.6245 20.6914 51.8135 20.5614 52.0097C19.7475 51.5554 18.8827 51.1998 17.9753 50.9539L17.264 49.5313C19.1103 48.2439 20.3226 46.109 20.3226 43.6937V43.1541C20.3226 40.6422 18.4478 38.4799 15.9614 38.1243C13.9443 37.8357 12.1397 36.6986 11.0077 35.0007L10.5769 34.3544L9.84019 34.6003C7.60065 35.3472 6.09677 37.4343 6.09677 39.7938V43.6937C6.09677 46.109 7.30902 48.2439 9.15532 49.5303L8.44403 50.9529C7.52342 51.2018 6.65666 51.5595 5.85189 52.0076C4.69452 50.4103 4.06452 48.4827 4.06452 46.4951ZM8.12903 53.2097V53.8549C8.12903 56.4634 9.05981 58.9834 10.6927 60.9678H2.08713C2.46615 57.4419 4.81239 54.4534 8.12903 53.2097ZM60.9129 60.9678H44.7097V59.4884C44.7097 57.4876 44.2575 55.5529 43.4415 53.8021C44.0726 53.4505 44.7371 53.167 45.4342 52.9689L45.6029 53.1376C46.7206 54.2553 48.2082 54.8711 49.7903 54.8711C51.3724 54.8711 52.86 54.2553 53.9778 53.1365L54.1465 52.9679C57.8462 54.0236 60.5064 57.1899 60.9129 60.9678ZM52.6924 51.5483L52.541 51.6997C51.0717 53.1691 48.509 53.1691 47.0397 51.6997L46.8883 51.5483L47.1555 50.7456C47.3557 50.77 47.5518 50.8066 47.7581 50.8066H51.8226C52.0289 50.8066 52.225 50.77 52.4251 50.7456L52.6924 51.5483ZM54.871 45.7259C54.871 47.4066 53.5033 48.7743 51.8226 48.7743H47.7581C46.0774 48.7743 44.7097 47.4066 44.7097 45.7259V39.6291C44.7097 37.9485 46.0774 36.5808 47.7581 36.5808H47.8414C49.2497 39.0063 51.8693 40.6453 54.871 40.6453V45.7259ZM56.9032 44.7098V40.6453C58.024 40.6453 58.9355 41.5567 58.9355 42.6775C58.9355 43.7983 58.024 44.7098 56.9032 44.7098Z" fill="#0449A9"></path><path d="M54.4777 10.1613C49.8645 6.4321 44.4048 3.88568 38.6129 2.74152V0H24.3871V2.7466C17.5435 4.095 11.2882 7.34052 6.21871 12.1935H0V26.4194H14.2258V12.1935H9.23763C13.609 8.49992 18.7882 5.99313 24.3871 4.82255V14.2258H38.6129V4.81645C43.0737 5.75129 47.314 7.57219 51.0737 10.1613H48.7742V24.3871H63V10.1613H54.4777ZM2.03226 24.3871V14.2258H10.9701L6.04698 19.8521L4.78292 18.588L3.34611 20.0249L6.14656 22.8253L12.1935 15.9136V24.3871H2.03226ZM26.4194 12.1935V2.03226H35.3572L30.4341 7.65856L29.17 6.3945L27.7332 7.83131L30.5337 10.6318L36.5806 3.72005V12.1935H26.4194ZM50.8064 22.3548V12.1935H59.7443L54.8212 17.8199L53.5571 16.5558L52.1203 17.9926L54.9208 20.793L60.9677 13.8813V22.3548H50.8064Z" fill="#0449A9"></path><path d="M30.4844 18.2905H32.5166V20.3228H30.4844V18.2905Z" fill="#0449A9"></path><path d="M34.5469 18.2905H36.5791V20.3228H34.5469V18.2905Z" fill="#0449A9"></path><path d="M26.418 18.2905H28.4502V20.3228H26.418V18.2905Z" fill="#0449A9"></path></svg>