<svg xmlns="http://www.w3.org/2000/svg" width="60" height="58" viewBox="0 0 60 58" fill="none"><path d="M12.2336 9.08821H27.8509C28.3338 9.08821 28.7251 8.69681 28.7251 8.21403C28.7251 7.73125 28.3338 7.33984 27.8509 7.33984H12.2336C11.7507 7.33984 11.3594 7.73125 11.3594 8.21403C11.3594 8.69681 11.7507 9.08821 12.2336 9.08821Z" fill="#048DEF"></path><path d="M16.4941 14.9172C16.4941 15.3999 16.8854 15.7913 17.3683 15.7913H32.9463C33.4292 15.7913 33.8205 15.3999 33.8205 14.9172C33.8205 14.4344 33.4292 14.043 32.9463 14.043H17.3683C16.8854 14.043 16.4941 14.4344 16.4941 14.9172Z" fill="#048DEF"></path><path d="M7.13786 15.7913H14.3825C14.8654 15.7913 15.2567 15.3999 15.2567 14.9172C15.2567 14.4344 14.8654 14.043 14.3825 14.043H7.13786C6.65496 14.043 6.26367 14.4344 6.26367 14.9172C6.26367 15.3999 6.65507 15.7913 7.13786 15.7913Z" fill="#048DEF"></path><path d="M7.13786 20.0374H23.5995C24.0824 20.0374 24.4736 19.646 24.4736 19.1632C24.4736 18.6805 24.0824 18.2891 23.5995 18.2891H7.13786C6.65496 18.2891 6.26367 18.6805 6.26367 19.1632C6.26367 19.646 6.65507 20.0374 7.13786 20.0374Z" fill="#048DEF"></path><path d="M7.13786 42.6629H17.628C18.1109 42.6629 18.5021 42.2715 18.5021 41.7887C18.5021 41.306 18.1109 40.9146 17.628 40.9146H7.13786C6.65496 40.9146 6.26367 41.306 6.26367 41.7887C6.26367 42.2715 6.65507 42.6629 7.13786 42.6629Z" fill="#048DEF"></path><path d="M59.2322 52.2701L57.0083 50.0463C56.667 49.7047 56.1135 49.7049 55.7721 50.0463C55.4307 50.3877 55.4307 50.9412 55.7722 51.2825L57.8369 53.3472L55.105 56.0791L47.39 48.3639L50.1219 45.632L52.8877 48.3978C53.2292 48.7392 53.7826 48.7392 54.124 48.3978C54.4654 48.0564 54.4654 47.5028 54.124 47.1616L51.199 44.2367C50.7408 43.7785 50.0615 43.6753 49.5021 43.924L47.0725 41.4944C50.2217 36.885 50.4296 30.8569 47.6978 26.0593C47.8811 25.9917 48.0754 25.9249 48.2831 25.8578C48.7865 25.6952 49.1248 25.23 49.1248 24.7001C49.1246 24.1704 48.7864 23.7053 48.283 23.5427C45.9524 22.7901 45.2436 22.0813 44.4911 19.7506C44.3386 19.2787 43.9202 18.9521 43.4321 18.913V4.87072C43.4321 4.03081 42.7488 3.34743 41.9089 3.34743H40.0847V1.5233C40.0847 0.683379 39.4015 0 38.5616 0H1.52318C0.683263 0 0 0.683379 0 1.5233V51.6373C0 52.4772 0.683263 53.1606 1.52318 53.1606H3.34731V54.9847C3.34731 55.8246 4.03057 56.5079 4.87049 56.5079H12.9379C13.4208 56.5079 13.8121 56.1165 13.8121 55.6337C13.8121 55.1509 13.4208 54.7595 12.9379 54.7595H5.0958V53.1606H38.5613C39.4013 53.1606 40.0845 52.4772 40.0845 51.6373V46.9459C40.6283 46.7458 41.1623 46.5128 41.6836 46.246V54.7595H17.0175C16.5346 54.7595 16.1433 55.1509 16.1433 55.6337C16.1433 56.1165 16.5346 56.5079 17.0175 56.5079H41.9088C42.7487 56.5079 43.4319 55.8246 43.4319 54.9847V45.4944L45.6817 47.7442C45.4331 48.3037 45.5363 48.9829 45.9944 49.4411L54.0278 57.4745C54.3248 57.7715 54.7149 57.92 55.105 57.92C55.4951 57.92 55.8851 57.7715 56.1821 57.4745L59.2323 54.4243C59.8262 53.8304 59.8262 52.8639 59.2322 52.2701ZM46.4107 24.7003C44.9042 25.3825 44.0156 26.2712 43.3336 27.7775C42.6514 26.2711 41.7627 25.3825 40.2564 24.7003C41.7628 24.0182 42.6515 23.1295 43.3336 21.623C44.0156 23.1295 44.9042 24.0181 46.4107 24.7003ZM38.3841 25.8578C40.7145 26.6104 41.4233 27.3192 42.1759 29.6497C42.3384 30.153 42.8035 30.4912 43.3332 30.4913H43.3335C43.5715 30.4913 43.7961 30.4226 43.9865 30.3017C45.0708 33.5828 44.3132 37.3444 41.7077 39.9499C38.0276 43.63 32.0393 43.63 28.3594 39.9499C24.6793 36.2697 24.6793 30.2816 28.3594 26.6016C30.142 24.8188 32.5123 23.837 35.0335 23.837C35.931 23.837 36.8087 23.963 37.648 24.2044C37.5802 24.3569 37.5424 24.5248 37.5424 24.7001C37.5424 25.2299 37.8805 25.6952 38.3841 25.8578ZM38.3361 51.4122H1.74837V1.74837H38.3361V9.72828C38.3361 10.2111 38.7274 10.6025 39.2103 10.6025C39.6932 10.6025 40.0845 10.2111 40.0845 9.72828V5.0958H41.6836V20.2987C41.1648 20.0321 40.6312 19.7969 40.0845 19.5953V13.8078C40.0845 13.325 39.6932 12.9336 39.2103 12.9336C38.7274 12.9336 38.3361 13.325 38.3361 13.8078V19.0745C37.2654 18.8274 36.1595 18.6983 35.0335 18.6983C34.5924 18.6983 34.1545 18.7189 33.7205 18.7573C33.5742 18.4791 33.2828 18.2891 32.9466 18.2891H26.7154C26.2325 18.2891 25.8413 18.6805 25.8413 19.1633C25.8413 19.6461 26.2325 20.0375 26.7154 20.0375H28.9143C27.5609 20.664 26.3019 21.5021 25.1782 22.5353H7.13801C6.65511 22.5353 6.26382 22.9267 6.26382 23.4095C6.26382 23.8923 6.65511 24.2837 7.13801 24.2837H23.5597C22.6177 25.4839 21.8905 26.7985 21.3785 28.1761H7.13801C6.65511 28.1761 6.26382 28.5675 6.26382 29.0503C6.26382 29.5331 6.65511 29.9245 7.13801 29.9245H20.8512C20.6583 30.7469 20.5375 31.5828 20.4887 32.4223H7.13801C6.65511 32.4223 6.26382 32.8137 6.26382 33.2965C6.26382 33.7793 6.65511 34.1707 7.13801 34.1707H20.4911C20.5423 35.0104 20.6653 35.8464 20.8607 36.6686H7.13801C6.65511 36.6686 6.26382 37.06 6.26382 37.5427C6.26382 38.0255 6.65511 38.4169 7.13801 38.4169H21.3934C21.7167 39.2786 22.1249 40.1153 22.6168 40.9148H20.614C20.1311 40.9148 19.7398 41.3062 19.7398 41.7889C19.7398 42.2717 20.1311 42.6631 20.614 42.6631H23.8814C24.1477 42.9789 24.4283 43.2864 24.7257 43.5836C25.3124 44.1702 25.9375 44.6954 26.5924 45.161H7.13801C6.65511 45.161 6.26382 45.5524 6.26382 46.0351C6.26382 46.5179 6.65511 46.9093 7.13801 46.9093H29.8747C31.5331 47.5341 33.2834 47.8465 35.0335 47.8465C36.1423 47.8465 37.2508 47.7195 38.3361 47.4687V51.4122ZM25.962 42.3473C20.9599 37.3452 20.9599 29.2063 25.962 24.2042C28.3851 21.7811 31.6068 20.4466 35.0335 20.4466C37.19 20.4466 39.2652 20.9754 41.1114 21.9713C40.7358 22.434 40.2693 22.7726 39.6283 23.07C38.2027 22.4273 36.6441 22.0887 35.0335 22.0887C32.0453 22.0887 29.236 23.2524 27.123 25.3653C22.7613 29.7272 22.7613 36.8244 27.123 41.1862C29.304 43.3671 32.1687 44.4575 35.0335 44.4575C37.8982 44.4575 40.763 43.3671 42.944 41.1862C46.4345 37.6955 47.1276 32.455 45.0311 28.2647C45.3292 27.6612 45.6724 27.219 46.1403 26.8602C48.9719 31.7652 48.2958 38.1564 44.1049 42.3473C39.103 47.3492 30.964 47.3492 25.962 42.3473ZM44.6448 44.2348C44.8822 44.0264 45.1148 43.8101 45.3413 43.5836C45.5679 43.357 45.7822 43.1229 45.9909 42.8854L48.1932 45.0879L46.8456 46.4355L44.6448 44.2348Z" fill="#048DEF"></path><path d="M30.0078 28.7541C30.0078 29.2369 30.3991 29.6283 30.882 29.6283H39.1659C39.6488 29.6283 40.0401 29.2369 40.0401 28.7541C40.0401 28.2713 39.6488 27.8799 39.1659 27.8799H30.882C30.3992 27.8799 30.0078 28.2713 30.0078 28.7541Z" fill="#048DEF"></path><path d="M28.8965 32.0099C28.8965 32.4927 29.2878 32.8841 29.7707 32.8841H40.2801C40.763 32.8841 41.1543 32.4927 41.1543 32.0099C41.1543 31.5271 40.763 31.1357 40.2801 31.1357H29.7707C29.2878 31.1357 28.8965 31.5271 28.8965 32.0099Z" fill="#048DEF"></path><path d="M40.2801 34.3916H29.7707C29.2878 34.3916 28.8965 34.783 28.8965 35.2658C28.8965 35.7486 29.2878 36.14 29.7707 36.14H40.2801C40.763 36.14 41.1543 35.7486 41.1543 35.2658C41.1543 34.783 40.7629 34.3916 40.2801 34.3916Z" fill="#048DEF"></path><path d="M37.6828 37.6475H32.3664C31.8835 37.6475 31.4922 38.0389 31.4922 38.5216C31.4922 39.0044 31.8835 39.3958 32.3664 39.3958H37.6828C38.1657 39.3958 38.557 39.0044 38.557 38.5216C38.557 38.0389 38.1657 37.6475 37.6828 37.6475Z" fill="#048DEF"></path><path d="M47.5519 19.6678H48.3654V20.4813C48.3654 20.9641 48.7567 21.3555 49.2396 21.3555C49.7225 21.3555 50.1137 20.9641 50.1137 20.4813V19.6678H50.9272C51.4101 19.6678 51.8014 19.2764 51.8014 18.7936C51.8014 18.3109 51.4101 17.9195 50.9272 17.9195H50.1137V17.1061C50.1137 16.6233 49.7225 16.2319 49.2396 16.2319C48.7567 16.2319 48.3654 16.6233 48.3654 17.1061V17.9196H47.5519C47.069 17.9196 46.6777 18.311 46.6777 18.7938C46.6777 19.2765 47.069 19.6678 47.5519 19.6678Z" fill="#048DEF"></path></svg>