<svg xmlns="http://www.w3.org/2000/svg" width="64" height="65" viewBox="0 0 64 65" fill="none"><path d="M22.7973 20.0521V17.9414C18.2536 17.9414 14.5566 21.7291 14.5566 26.3842H16.6168C16.6168 22.892 19.3888 20.0521 22.7973 20.0521Z" fill="#0369CA"></path><path d="M60.9098 0H36.1878C34.484 0 33.0976 1.4205 33.0976 3.16605V5.79387C31.4443 5.18493 29.6148 5.33057 28.0738 6.20334C26.9809 4.34487 24.9991 3.16605 22.7452 3.16605C20.5769 3.16605 18.6095 4.34487 17.5186 6.2044C15.6655 5.15116 13.388 5.13955 11.5112 6.24978L11.4205 6.3036C9.54371 7.41383 8.41577 9.44221 8.37765 11.6109C6.26084 11.65 4.28102 12.8056 3.19737 14.7285L3.14484 14.8213C2.06119 16.7442 2.07561 19.0786 3.10055 20.9761C1.28554 22.0948 0.134941 24.1094 0.134941 26.3299V26.4365C0.134941 28.658 1.28554 30.6737 3.10055 31.7913C2.07458 33.6889 2.06119 36.0222 3.14484 37.9461L3.19737 38.039C4.28205 39.9618 6.26187 41.1175 8.37765 41.1565C8.38898 41.8024 8.50847 42.4314 8.70316 43.0319L0 57.583L9.68586 55.1019L12.1014 64.9989L21.2084 49.384C21.7316 49.5265 22.2807 49.6014 22.8482 49.6014C23.3777 49.6014 23.8948 49.5286 24.3913 49.3956L33.4921 65L35.9076 55.1029L45.5935 57.5841L36.8903 43.0329C37.086 42.4324 37.2045 41.8034 37.2158 41.1576C39.3337 41.1185 41.3135 39.9629 42.3961 38.0401L42.4486 37.9472C43.5333 36.0243 43.5189 33.6899 42.4929 31.7924C44.0195 30.851 45.0661 29.2669 45.3638 27.4401H60.9098C62.6135 27.4401 64 26.0196 64 24.2741V3.16605C64 1.4205 62.6135 0 60.9098 0ZM49.5789 4.2214V6.33209H47.5187V4.2214H45.4585V6.33209H43.3984V2.1107H53.6992V6.33209H51.639V4.2214H49.5789ZM33.0976 19.3984C30.8818 15.9801 27.0942 13.7195 22.7967 13.7195C15.9807 13.7195 10.4358 19.4005 10.4358 26.3837C10.4358 33.367 15.9807 39.0479 22.7967 39.0479C29.3336 39.0479 34.687 33.8197 35.1155 27.2312C35.4513 27.3589 35.8098 27.4391 36.1878 27.4391H37.1653C36.6338 35.0935 30.4008 41.1586 22.7967 41.1586C14.8445 41.1586 8.37559 34.531 8.37559 26.3837C8.37559 18.2364 14.8445 11.6088 22.7967 11.6088C26.6678 11.6088 30.3946 13.2362 33.0976 16.0656V19.3984ZM33.0976 26.3837C33.0976 32.2029 28.4766 36.9372 22.7967 36.9372C17.1169 36.9372 12.4959 32.2029 12.4959 26.3837C12.4959 20.5645 17.1169 15.8302 22.7967 15.8302C28.4766 15.8302 33.0976 20.5645 33.0976 26.3837ZM12.8904 59.5312L11.1857 52.5427L4.39021 54.2829L9.86612 45.1278C10.3029 45.6481 10.8189 46.1071 11.4215 46.4639L11.5122 46.5177C13.389 47.6268 15.6686 47.6131 17.5207 46.563C17.979 47.343 18.6012 47.9941 19.3274 48.4975L12.8904 59.5312ZM41.2033 54.284L34.4078 52.5437L32.703 59.5322L26.2712 48.506C26.9923 48.0015 27.6144 47.3482 28.0749 46.5641C29.927 47.6142 32.2045 47.6279 34.0823 46.5187L34.173 46.4649C34.7756 46.1082 35.2916 45.6491 35.7284 45.1288L41.2033 54.284ZM40.6192 30.3656L39.1503 30.8721L40.1752 32.0636C41.3351 33.4113 41.5308 35.351 40.6645 36.8897L40.612 36.9826C39.7447 38.5202 38.0141 39.3191 36.2877 38.9614L34.7683 38.6479L35.0743 40.2046C35.4204 41.966 34.6447 43.7463 33.1429 44.6349L33.0522 44.6888C31.5514 45.5763 29.656 45.3747 28.3417 44.1875L27.1787 43.1374L26.6843 44.6423C26.1239 46.3467 24.5829 47.4907 22.7452 47.4907C21.0095 47.4907 19.4685 46.3467 18.9092 44.6434L18.4148 43.1384L17.2518 44.1885C15.9374 45.3768 14.0441 45.5795 12.5412 44.6898L12.4506 44.636C10.9487 43.7474 10.1731 41.967 10.5192 40.2056L10.8251 38.649L9.30576 38.9624C7.58346 39.3191 5.8488 38.5223 4.98147 36.9837L4.92894 36.8908C4.06161 35.3521 4.25836 33.4123 5.41823 32.0647L6.44316 30.8732L4.97426 30.3666C3.31171 29.7925 2.1951 28.2137 2.1951 26.4365V26.3299C2.1951 24.5527 3.31171 22.9739 4.97426 22.4008L6.44316 21.8943L5.41823 20.7028C4.25939 19.3551 4.06264 17.4154 4.92894 15.8767L4.98147 15.7838C5.8488 14.2451 7.59067 13.4483 9.30576 13.805L10.8251 14.1185L10.5192 12.5618C10.1721 10.7994 10.9487 9.01901 12.4506 8.13146L12.5412 8.07764C14.0441 7.18798 15.9364 7.39061 17.2518 8.57893L18.4148 9.629L18.9092 8.12408C19.4696 6.42074 21.0106 5.27674 22.8482 5.27674C24.5839 5.27674 26.1249 6.42074 26.6843 8.12408L27.1787 9.629L28.3417 8.57893C29.6591 7.39272 31.5524 7.19009 33.0522 8.07764L33.0976 8.10508V13.233C30.1907 10.849 26.5555 9.49814 22.7967 9.49814C13.7094 9.49814 6.31543 17.0734 6.31543 26.3837C6.31543 35.694 13.7094 43.2693 22.7967 43.2693C31.537 43.2693 38.6899 36.2576 39.2255 27.4391H43.2645C42.9328 28.7846 41.9593 29.9044 40.6192 30.3656ZM61.9398 24.273C61.9398 24.8556 61.4784 25.3284 60.9098 25.3284H36.1878C35.6192 25.3284 35.1577 24.8556 35.1577 24.273V3.16605C35.1577 2.58349 35.6192 2.1107 36.1878 2.1107H41.3382V8.44279H55.7593V2.1107H60.9098C61.4784 2.1107 61.9398 2.58349 61.9398 3.16605V24.273Z" fill="#0369CA"></path><path d="M53.6992 21.1074H55.7594V23.2181H53.6992V21.1074Z" fill="#0369CA"></path><path d="M57.8193 21.1074H59.8795V23.2181H57.8193V21.1074Z" fill="#0369CA"></path><path d="M49.5791 21.1074H51.6393V23.2181H49.5791V21.1074Z" fill="#0369CA"></path><path d="M49.5791 16.8867H59.8799V18.9974H49.5791V16.8867Z" fill="#0369CA"></path><path d="M20.7365 31.2247L18.3745 28.8048L16.918 30.297L20.7365 34.2092L30.7355 23.9649L29.2789 22.4727L20.7365 31.2247Z" fill="#0369CA"></path></svg>