<svg xmlns="http://www.w3.org/2000/svg" width="52" height="53" viewBox="0 0 52 53" fill="none"><path d="M6.15695 8.79437H14.953C15.4388 8.79437 15.8326 8.40052 15.8326 7.91476C15.8326 7.429 15.4388 7.03516 14.953 7.03516H6.15695C5.67119 7.03516 5.27734 7.429 5.27734 7.91476C5.27734 8.40052 5.67119 8.79437 6.15695 8.79437Z" fill="#0449A9"></path><path d="M21.9898 12.3164H6.15695C5.67119 12.3164 5.27734 12.7103 5.27734 13.196C5.27734 13.6818 5.67119 14.0756 6.15695 14.0756H21.9898C22.4756 14.0756 22.8695 13.6818 22.8695 13.196C22.8695 12.7103 22.4756 12.3164 21.9898 12.3164Z" fill="#0449A9"></path><path d="M20.2306 17.5938H6.15695C5.67119 17.5938 5.27734 17.9876 5.27734 18.4734C5.27734 18.9591 5.67119 19.353 6.15695 19.353H20.2306C20.7164 19.353 21.1102 18.9591 21.1102 18.4734C21.1102 17.9876 20.7164 17.5938 20.2306 17.5938Z" fill="#0449A9"></path><path d="M20.2306 22.8672H6.15695C5.67119 22.8672 5.27734 23.261 5.27734 23.7468C5.27734 24.2326 5.67119 24.6264 6.15695 24.6264H20.2306C20.7164 24.6264 21.1102 24.2326 21.1102 23.7468C21.1102 23.261 20.7164 22.8672 20.2306 22.8672Z" fill="#0449A9"></path><path d="M20.2306 28.1484H6.15695C5.67119 28.1484 5.27734 28.5423 5.27734 29.028C5.27734 29.5138 5.67119 29.9076 6.15695 29.9076H20.2306C20.7164 29.9076 21.1102 29.5138 21.1102 29.028C21.1102 28.5423 20.7164 28.1484 20.2306 28.1484Z" fill="#0449A9"></path><path d="M51.006 23.6939C51.0017 23.6171 50.9862 23.5406 50.9609 23.468C50.9514 23.4397 50.9441 23.4126 50.9321 23.3851C50.8896 23.2894 50.8299 23.2022 50.756 23.1274L43.7191 16.0906C43.6427 16.0163 43.5534 15.9566 43.4554 15.9145C43.4305 15.9042 43.406 15.8973 43.3807 15.8883C43.3038 15.8612 43.2235 15.8454 43.1423 15.8406C43.1256 15.8406 43.1105 15.8312 43.0938 15.8312H28.1474V7.91645C28.1474 7.89712 28.1379 7.88037 28.1362 7.86104C28.1319 7.78416 28.1165 7.70771 28.0911 7.63513C28.0817 7.60678 28.0744 7.57973 28.0623 7.55224C28.0198 7.45646 27.9601 7.36927 27.8862 7.29454L20.8494 0.257697C20.7747 0.184253 20.687 0.124553 20.5908 0.0816041C20.5655 0.0704372 20.5389 0.0631358 20.5127 0.0536868C20.4362 0.0274877 20.3572 0.0120259 20.2769 0.00687192C20.2636 0.0085899 20.2485 0 20.2309 0H4.39803C1.97052 0.00300647 0.00300647 1.97009 0 4.39803V32.5454C0.00300647 34.9733 1.97052 36.9404 4.39803 36.9434H22.8697V48.3783C22.8727 50.8062 24.8403 52.7733 27.2678 52.7763H46.6191C49.047 52.7733 51.0145 50.8062 51.0171 48.3783V23.7493C51.0171 23.73 51.0077 23.7133 51.006 23.6939ZM48.0145 22.8697H44.8599C44.3741 22.8697 43.9803 22.4759 43.9803 21.9901V18.8359L48.0145 22.8697ZM25.1448 7.03684H21.9901C21.5044 7.03684 21.1105 6.643 21.1105 6.15724V3.00303L25.1448 7.03684ZM4.39803 35.1842C2.94075 35.1842 1.75921 34.0027 1.75921 32.5454V4.39803C1.75921 2.94075 2.94075 1.75921 4.39803 1.75921H19.3513V6.15724C19.3513 7.61451 20.5329 8.79605 21.9901 8.79605H26.3882V15.9209C26.3727 15.9209 26.3585 15.9313 26.3426 15.9351C26.0922 15.9892 25.847 16.0657 25.6099 16.1628C25.5219 16.1971 25.448 16.2435 25.3664 16.2834C25.2058 16.3586 25.0503 16.4436 24.9 16.5373C24.8119 16.594 24.732 16.658 24.6483 16.7194C24.5177 16.8169 24.3919 16.9208 24.272 17.0308C24.1939 17.1046 24.1209 17.1815 24.0478 17.2605C23.9388 17.3782 23.8365 17.5019 23.7416 17.6316C23.6772 17.7197 23.6158 17.8077 23.5578 17.8958C23.471 18.0358 23.3924 18.1809 23.322 18.33C23.2765 18.424 23.2288 18.5147 23.1901 18.6117C23.1253 18.7827 23.0707 18.9575 23.0274 19.1349C23.0046 19.2229 22.9745 19.3045 22.9569 19.399C22.9015 19.6726 22.8723 19.9513 22.8697 20.2309V35.1842H4.39803ZM46.6191 51.0171H27.2678C25.8105 51.0171 24.629 49.8356 24.629 48.3783V20.2309C24.629 18.7736 25.8105 17.5921 27.2678 17.5921H42.2211V21.9901C42.2211 23.4474 43.4026 24.629 44.8599 24.629H49.2579V48.3783C49.2579 49.8356 48.0768 51.0171 46.6191 51.0171Z" fill="#0449A9"></path><path d="M29.028 24.6264H37.8241C38.3099 24.6264 38.7037 24.2326 38.7037 23.7468C38.7037 23.261 38.3099 22.8672 37.8241 22.8672H29.028C28.5423 22.8672 28.1484 23.261 28.1484 23.7468C28.1484 24.2326 28.5423 24.6264 29.028 24.6264Z" fill="#0449A9"></path><path d="M29.028 29.9076H44.8609C45.3467 29.9076 45.7405 29.5138 45.7405 29.028C45.7405 28.5423 45.3467 28.1484 44.8609 28.1484H29.028C28.5423 28.1484 28.1484 28.5423 28.1484 29.028C28.1484 29.5138 28.5423 29.9076 29.028 29.9076Z" fill="#0449A9"></path><path d="M29.028 35.185H44.8609C45.3467 35.185 45.7405 34.7911 45.7405 34.3054C45.7405 33.8196 45.3467 33.4258 44.8609 33.4258H29.028C28.5423 33.4258 28.1484 33.8196 28.1484 34.3054C28.1484 34.7911 28.5423 35.185 29.028 35.185Z" fill="#0449A9"></path><path d="M29.028 40.4623H44.8609C45.3467 40.4623 45.7405 40.0685 45.7405 39.5827C45.7405 39.097 45.3467 38.7031 44.8609 38.7031H29.028C28.5423 38.7031 28.1484 39.097 28.1484 39.5827C28.1484 40.0685 28.5423 40.4623 29.028 40.4623Z" fill="#0449A9"></path><path d="M43.9813 44.8601C43.9813 44.3743 43.5875 43.9805 43.1017 43.9805H29.028C28.5423 43.9805 28.1484 44.3743 28.1484 44.8601C28.1484 45.3458 28.5423 45.7397 29.028 45.7397H43.1017C43.5875 45.7397 43.9813 45.3458 43.9813 44.8601Z" fill="#0449A9"></path><path d="M31.7366 5.61633C31.7808 5.72285 31.8452 5.81948 31.9268 5.90066L35.6579 9.63125C35.8786 9.85974 36.2059 9.95122 36.5134 9.87091C36.8209 9.79059 37.061 9.55007 37.1413 9.24256C37.2221 8.93504 37.1302 8.60819 36.9017 8.38743L34.6709 6.15749H43.1027C44.5604 6.15749 45.7415 7.33904 45.7415 8.79631V14.9535C45.7415 15.4393 46.1354 15.8332 46.6212 15.8332C47.1069 15.8332 47.5008 15.4393 47.5008 14.9535V8.79631C47.4982 6.36838 45.5307 4.40129 43.1027 4.39828H34.6709L36.9017 2.16835C37.1302 1.94759 37.2221 1.62074 37.1413 1.31322C37.061 1.0057 36.8209 0.765187 36.5134 0.684871C36.2059 0.604556 35.8786 0.696038 35.6579 0.92453L31.9268 4.65512C31.8452 4.7363 31.7808 4.83293 31.7366 4.93945C31.6451 5.15591 31.6451 5.39987 31.7366 5.61633Z" fill="#0449A9"></path><path d="M19.2841 48.0403C19.2399 47.9338 19.1755 47.8372 19.0939 47.756L15.3629 44.0254C15.1417 43.7969 14.8148 43.7055 14.5073 43.7858C14.1998 43.8661 13.9597 44.1066 13.8789 44.4141C13.7986 44.7216 13.8901 45.0485 14.119 45.2692L16.3498 47.4992H7.91756C6.46028 47.4992 5.27874 46.3176 5.27874 44.8604V39.5827C5.27874 39.097 4.8849 38.7031 4.39914 38.7031C3.91338 38.7031 3.51953 39.097 3.51953 39.5827V44.8604C3.52254 47.2883 5.49005 49.2554 7.91756 49.2584H16.3498L14.119 51.4883C13.8901 51.7091 13.7986 52.0359 13.8789 52.3435C13.9597 52.651 14.1998 52.8915 14.5073 52.9718C14.8148 53.0521 15.1417 52.9606 15.3629 52.7321L19.0939 49.0016C19.1755 48.9204 19.2399 48.8237 19.2841 48.7172C19.3756 48.5008 19.3756 48.2568 19.2841 48.0403Z" fill="#0449A9"></path><path d="M46.6168 43.9805C46.131 43.9805 45.7372 44.3743 45.7372 44.8601V46.6193C45.7372 47.105 45.3433 47.4989 44.8576 47.4989H43.0984C42.6126 47.4989 42.2188 47.8927 42.2188 48.3785C42.2188 48.8643 42.6126 49.2581 43.0984 49.2581H44.8576C46.3153 49.2581 47.4964 48.0766 47.4964 46.6193V44.8601C47.4964 44.3743 47.1025 43.9805 46.6168 43.9805Z" fill="#0449A9"></path></svg>