<svg xmlns="http://www.w3.org/2000/svg" width="53" height="53" viewBox="0 0 53 53" fill="none"><path d="M5.30182 24.7324H3.53516V28.2658H5.30182V24.7324Z" fill="#0369CA"></path><path d="M5.30182 33.5664H3.53516V37.0997H5.30182V33.5664Z" fill="#0369CA"></path><path d="M52.1156 0H29.149C28.619 0 28.2656 0.353333 28.2656 0.883333V9.71667V18.55V27.3833C28.2656 27.9133 28.619 28.2667 29.149 28.2667H39.749V30.0333H28.2656V31.8H52.999V30.0333H41.5156V28.2667H52.1156C52.6456 28.2667 52.999 27.9133 52.999 27.3833V18.55V9.71667V0.883333C52.999 0.353333 52.6456 0 52.1156 0ZM30.0323 10.6H51.2323V17.6667H30.0323V10.6ZM30.0323 1.76667H51.2323V8.83333H30.0323V1.76667ZM51.2323 26.5H30.0323V19.4333H51.2323V26.5Z" fill="#0369CA"></path><path d="M23.85 21.1992H0.883333C0.353333 21.1992 0 21.5526 0 22.0826V30.9159V39.7492V48.5826C0 49.1126 0.353333 49.4659 0.883333 49.4659H11.4833V51.2326H0V52.9992H24.7333V51.2326H13.25V49.4659H23.85C24.38 49.4659 24.7333 49.1126 24.7333 48.5826V39.7492V30.9159V22.0826C24.7333 21.5526 24.38 21.1992 23.85 21.1992ZM1.76667 31.7992H22.9667V38.8659H1.76667V31.7992ZM1.76667 22.9659H22.9667V30.0326H1.76667V22.9659ZM22.9667 47.6992H1.76667V40.6326H22.9667V47.6992Z" fill="#0369CA"></path><path d="M33.5674 3.5332H31.8008V7.06654H33.5674V3.5332Z" fill="#0369CA"></path><path d="M37.0987 3.5332H35.332V7.06654H37.0987V3.5332Z" fill="#0369CA"></path><path d="M40.6339 3.5332H38.8672V7.06654H40.6339V3.5332Z" fill="#0369CA"></path><path d="M33.5674 12.3672H31.8008V15.9005H33.5674V12.3672Z" fill="#0369CA"></path><path d="M37.0987 12.3672H35.332V15.9005H37.0987V12.3672Z" fill="#0369CA"></path><path d="M40.6339 12.3672H38.8672V15.9005H40.6339V12.3672Z" fill="#0369CA"></path><path d="M45.9346 4.41602H44.168V6.18268H45.9346V4.41602Z" fill="#0369CA"></path><path d="M49.4659 4.41602H47.6992V6.18268H49.4659V4.41602Z" fill="#0369CA"></path><path d="M45.9346 13.25H44.168V15.0167H45.9346V13.25Z" fill="#0369CA"></path><path d="M49.4659 13.25H47.6992V15.0167H49.4659V13.25Z" fill="#0369CA"></path><path d="M45.05 22.084H39.75V23.8507H45.05V22.084Z" fill="#0369CA"></path><path d="M48.5831 22.084H46.8164V23.8507H48.5831V22.084Z" fill="#0369CA"></path><path d="M37.9815 22.084H36.2148V23.8507H37.9815V22.084Z" fill="#0369CA"></path><path d="M34.4503 22.084H32.6836V23.8507H34.4503V22.084Z" fill="#0369CA"></path><path d="M8.83307 24.7324H7.06641V28.2658H8.83307V24.7324Z" fill="#0369CA"></path><path d="M12.3682 24.7324H10.6016V28.2658H12.3682V24.7324Z" fill="#0369CA"></path><path d="M8.83307 33.5664H7.06641V37.0997H8.83307V33.5664Z" fill="#0369CA"></path><path d="M12.3682 33.5664H10.6016V37.0997H12.3682V33.5664Z" fill="#0369CA"></path><path d="M17.6651 25.6172H15.8984V27.3839H17.6651V25.6172Z" fill="#0369CA"></path><path d="M21.2003 25.6172H19.4336V27.3839H21.2003V25.6172Z" fill="#0369CA"></path><path d="M17.6651 34.4492H15.8984V36.2159H17.6651V34.4492Z" fill="#0369CA"></path><path d="M21.2003 34.4492H19.4336V36.2159H21.2003V34.4492Z" fill="#0369CA"></path><path d="M16.7823 43.2832H15.0156V45.0499H16.7823V43.2832Z" fill="#0369CA"></path><path d="M20.3174 43.2832H18.5508V45.0499H20.3174V43.2832Z" fill="#0369CA"></path><path d="M9.71797 43.2832H4.41797V45.0499H9.71797V43.2832Z" fill="#0369CA"></path><path d="M13.251 43.2832H11.4844V45.0499H13.251V43.2832Z" fill="#0369CA"></path><path d="M40.015 34.7142L37.365 37.3642L38.6017 38.6009L39.75 37.4526V44.1659H26.5V45.9326H40.6333C41.1633 45.9326 41.5167 45.5792 41.5167 45.0492V37.4526L42.665 38.6009L43.9017 37.3642L41.2517 34.7142C40.8983 34.3609 40.3683 34.3609 40.015 34.7142Z" fill="#0369CA"></path><path d="M12.366 18.5497C12.631 18.5497 12.8077 18.4614 12.9843 18.2847L15.6343 15.6347L14.3977 14.3981L13.2493 15.5464V8.83307H26.4993V7.06641H12.366C11.836 7.06641 11.4827 7.41974 11.4827 7.94974V15.5464L10.3343 14.3981L9.09766 15.6347L11.7477 18.2847C11.9243 18.4614 12.101 18.5497 12.366 18.5497Z" fill="#0369CA"></path><path d="M26.501 10.5996H24.7344V12.3663H26.501V10.5996Z" fill="#0369CA"></path><path d="M22.9659 10.5996H21.1992V12.3663H22.9659V10.5996Z" fill="#0369CA"></path><path d="M19.4346 10.5996H17.668V12.3663H19.4346V10.5996Z" fill="#0369CA"></path><path d="M19.4346 14.1328H17.668V15.8995H19.4346V14.1328Z" fill="#0369CA"></path><path d="M22.9659 14.1328H21.1992V15.8995H22.9659V14.1328Z" fill="#0369CA"></path><path d="M26.501 14.1328H24.7344V15.8995H26.501V14.1328Z" fill="#0369CA"></path><path d="M26.501 17.666H24.7344V19.4327H26.501V17.666Z" fill="#0369CA"></path><path d="M22.9659 17.666H21.1992V19.4327H22.9659V17.666Z" fill="#0369CA"></path><path d="M28.2667 40.6328H26.5V42.3995H28.2667V40.6328Z" fill="#0369CA"></path><path d="M31.8018 40.6328H30.0352V42.3995H31.8018V40.6328Z" fill="#0369CA"></path><path d="M35.3331 40.6328H33.5664V42.3995H35.3331V40.6328Z" fill="#0369CA"></path><path d="M35.3331 37.0996H33.5664V38.8663H35.3331V37.0996Z" fill="#0369CA"></path><path d="M31.8018 37.0996H30.0352V38.8663H31.8018V37.0996Z" fill="#0369CA"></path><path d="M28.2667 37.0996H26.5V38.8663H28.2667V37.0996Z" fill="#0369CA"></path><path d="M28.2667 33.5664H26.5V35.3331H28.2667V33.5664Z" fill="#0369CA"></path><path d="M31.8018 33.5664H30.0352V35.3331H31.8018V33.5664Z" fill="#0369CA"></path></svg>