<svg xmlns="http://www.w3.org/2000/svg" width="53" height="54" viewBox="0 0 53 54" fill="none"><path d="M49.425 26.5098C50.5404 24.2863 51.4184 22.0512 52.0278 19.8487C53.9387 12.9479 53.0134 7.16926 49.4218 3.57809C45.8307 -0.0130734 40.052 -0.93877 33.1512 0.972071C30.9487 1.58152 28.7136 2.4599 26.4901 3.57486C23.7239 2.18652 20.9537 1.17064 18.2846 0.585454C12.085 -0.773366 6.85961 0.289426 3.57135 3.57809C1.46073 5.68871 0.23658 8.65425 0.0319485 12.1544C-0.152058 15.3032 0.486102 18.9166 1.87687 22.6388C0.734814 23.5418 0 24.9378 0 26.5033C0 28.0688 0.734814 29.4648 1.87687 30.3679C0.486102 34.0901 -0.152058 37.7039 0.0319485 40.8522C0.236985 44.3524 1.46073 47.3179 3.57135 49.4286C5.92826 51.7859 9.23512 53.0011 13.2295 53.0011C14.0314 53.0011 14.8613 52.9522 15.717 52.8535C19.142 52.4584 22.8015 51.2917 26.4954 49.4342C28.7172 50.5484 30.9508 51.4255 33.1512 52.0346C35.4996 52.6849 37.7182 53.0068 39.7649 53.0068C43.7318 53.0068 47.0528 51.7976 49.4218 49.4286C52.7105 46.1403 53.7733 40.9149 52.4145 34.7149C51.8293 32.0462 50.8134 29.276 49.425 26.5098ZM33.5661 2.47122C39.9036 0.716483 45.144 1.50023 48.3218 4.67809C51.4997 7.85595 52.2834 13.0963 50.5287 19.4338C50.0373 21.2092 49.3624 23.0088 48.5228 24.8068C47.0184 22.109 45.1682 19.4358 43.0244 16.886C43.6812 16.0489 44.0743 14.9954 44.0743 13.8513C44.0743 12.7453 43.7164 11.7003 43.0386 10.8292L41.8108 11.784C42.2743 12.3797 42.5189 13.0947 42.5189 13.8513C42.5189 15.71 41.0068 17.2217 39.1486 17.2217C37.2903 17.2217 35.7782 15.71 35.7782 13.8513C35.7782 11.9927 37.2903 10.481 39.1486 10.481C39.7552 10.481 40.3501 10.6436 40.8681 10.9517L41.6632 9.61473C40.9045 9.16381 40.035 8.92521 39.1486 8.92521C38.0045 8.92521 36.951 9.3187 36.1143 9.97546C33.5641 7.83168 30.8909 5.98151 28.1931 4.47669C29.9911 3.63754 31.7907 2.96258 33.5661 2.47122ZM4.67135 4.67809C8.87681 0.472624 16.5881 0.629535 24.7936 4.47225C20.7879 6.70621 16.8591 9.69763 13.2748 13.2815C10.617 15.9393 8.27788 18.794 6.31285 21.7741C5.87002 21.6455 5.40414 21.5772 4.92613 21.5772C4.33771 21.5772 3.77356 21.6815 3.24984 21.8712C0.554851 14.5259 1.05956 8.28948 4.67135 4.67809ZM13.2699 51.4401C9.75115 51.4401 6.75972 50.4169 4.67094 48.3286C1.05956 44.7172 0.554447 38.4812 3.24984 31.1354C3.77356 31.3255 4.33771 31.4294 4.92613 31.4294C5.40697 31.4294 5.87123 31.3587 6.31123 31.2297C8.27626 34.211 10.6162 37.0665 13.2748 39.7251C16.8579 43.3078 20.7855 46.2984 24.79 48.5324C20.6767 50.4574 16.7196 51.4405 13.2699 51.4401ZM26.4921 47.6859C22.2907 45.4791 18.1419 42.3918 14.3748 38.6251C11.8436 36.0935 9.61082 33.3807 7.72829 30.5515C9.01027 29.6614 9.85185 28.1792 9.85185 26.5037C9.85185 26.3577 9.84578 26.2101 9.83284 26.0649L8.28314 26.202C8.29204 26.3015 8.29648 26.4026 8.29648 26.5033C8.29648 28.362 6.78439 29.8737 4.92613 29.8737C3.06786 29.8737 1.55577 28.362 1.55577 26.5033C1.55577 24.6447 3.06786 23.133 4.92613 23.133C6.20973 23.133 7.36513 23.8463 7.94101 24.9945L9.33137 24.2973C8.95123 23.539 8.39718 22.9109 7.73152 22.4495C9.61365 19.6227 11.8452 16.9111 14.3748 14.3815C18.1427 10.6136 22.2931 7.52555 26.4958 5.31868C29.3562 6.8243 32.2501 8.76547 35.0539 11.1163C34.529 11.8992 34.2224 12.8399 34.2224 13.8513C34.2224 16.5674 36.4325 18.7771 39.1486 18.7771C40.16 18.7771 41.1007 18.4705 41.8836 17.9456C44.2344 20.7494 46.1752 23.6437 47.6808 26.5037C45.474 30.7064 42.3859 34.8568 38.6184 38.6251C38.2039 39.0392 37.778 39.4509 37.3477 39.8541C36.4892 39.1278 35.3807 38.6886 34.1707 38.6886C33.0646 38.6886 32.0196 39.0469 31.1485 39.7243L32.1037 40.9521C32.699 40.4891 33.414 40.2444 34.1707 40.244C36.0289 40.244 37.541 41.7561 37.541 43.6143C37.541 45.473 36.0289 46.9847 34.1707 46.9847C32.3124 46.9847 30.8003 45.473 30.8003 43.6143C30.8003 43.0077 30.9629 42.4132 31.2711 41.8952L29.9341 41.0997C29.4832 41.8584 29.2446 42.7279 29.2446 43.6143C29.2446 44.3949 29.4278 45.1325 29.7521 45.7889C28.6622 46.4844 27.5735 47.1169 26.4921 47.6859ZM48.3218 48.3286C45.144 51.5068 39.9036 52.2902 33.5661 50.5358C31.7919 50.0445 29.9939 49.3703 28.1971 48.5316C29.0165 48.0738 29.8362 47.5824 30.6535 47.0591C31.5485 47.9723 32.7941 48.5405 34.1707 48.5405C36.8867 48.5405 39.0968 46.3308 39.0968 43.6147C39.0968 42.6688 38.8283 41.7852 38.3644 41.0338C38.823 40.6047 39.2768 40.1663 39.718 39.7251C43.3023 36.1404 46.2933 32.2116 48.5277 28.2059C52.3704 36.4118 52.5273 44.1231 48.3218 48.3286Z" fill="#048DEF"></path><path d="M39.2521 34.541H37.645V30.6219C37.645 28.8886 36.4799 27.3494 34.8117 26.8786L34.2302 26.7148L33.808 28.212L34.3895 28.3762C35.39 28.6584 36.0893 29.5817 36.0893 30.6219V34.541H33.2891V32.415H31.7337V34.541H24.7334V36.0964H39.2521V34.541Z" fill="#048DEF"></path><path d="M29.0692 26.8736L32.3109 27.7884L32.7335 26.2908L29.5561 25.3946V23.3289C30.9946 22.3478 31.9413 20.6966 31.9413 18.8278V16.5461C31.9413 13.5442 29.4991 11.1016 26.4967 11.1016C23.4948 11.1016 21.0521 13.5442 21.0521 16.5461V18.8278C21.0521 20.6966 21.9989 22.3478 23.4374 23.3289V25.3946L18.1816 26.8768C16.5134 27.3475 15.3483 28.8867 15.3483 30.62V34.5392H13.7412V36.0945H23.1781V34.5392H21.2596V32.4132H19.7042V34.5392H16.9041V30.62C16.9041 29.5799 17.6033 28.6566 18.6038 28.3743L23.9243 26.874C24.5794 27.5906 25.5047 28.0059 26.4967 28.0059C27.4887 28.0059 28.4144 27.5902 29.0692 26.8736ZM26.4967 12.6573C28.6409 12.6573 30.3855 14.402 30.3855 16.5465V17.4128L28.7505 15.25H22.8307C23.3658 13.7412 24.8067 12.6573 26.4967 12.6573ZM22.6079 18.8278V16.8058H27.9765L30.2565 19.8211C29.8161 21.486 28.2976 22.7166 26.4967 22.7166C24.3525 22.7166 22.6079 20.972 22.6079 18.8278ZM24.9931 25.7323V24.0593C25.4707 24.1972 25.975 24.2724 26.4967 24.2724C27.0184 24.2724 27.5223 24.1972 28.0003 24.0593V25.7323C27.6347 26.1849 27.0872 26.4502 26.4967 26.4502C25.9063 26.4502 25.3583 26.1849 24.9931 25.7323Z" fill="#048DEF"></path><path d="M30.6042 30.5408L28.4131 29.9229L28.8357 28.4258L31.0264 29.0437L30.6042 30.5408Z" fill="#048DEF"></path><path d="M34.0193 29.8851L33.5967 31.3822L32.0996 30.96L32.5222 29.4629L34.0193 29.8851Z" fill="#048DEF"></path><path d="M38.3711 13.0742H39.9265V14.63H38.3711V13.0742Z" fill="#048DEF"></path><path d="M33.3936 42.8359H34.9489V44.3913H33.3936V42.8359Z" fill="#048DEF"></path><path d="M4.14844 25.7246H5.70421V27.28H4.14844V25.7246Z" fill="#048DEF"></path></svg>