<svg xmlns="http://www.w3.org/2000/svg" width="64" height="57" viewBox="0 0 64 57" fill="none"><path d="M9.46814 9.61763L11.4876 13.4628L16.0687 14.0371C16.9768 14.1494 17.302 15.1856 16.6786 15.735L13.3309 18.6937L14.1576 22.8885C14.3203 23.7124 13.3715 24.3367 12.5854 23.9372L8.50585 21.9147L4.42625 23.9372C3.64015 24.3242 2.65075 23.7249 2.8676 22.8261L3.68081 18.6813L0.333106 15.7225C-0.317461 15.1482 0.0349297 14.1245 0.956565 14.0121L5.52408 13.4378L7.54355 9.59266C7.92305 8.85609 9.08865 8.86857 9.46814 9.61763ZM9.79343 14.8111L8.50585 12.3392L7.20471 14.8111C7.05563 15.0983 6.7439 15.323 6.37795 15.3729L3.43685 15.735L5.59185 17.6326C5.83581 17.8573 5.97135 18.1819 5.90358 18.519L5.375 21.2156L7.97726 19.9297C8.28899 19.7799 8.68204 19.7549 9.00733 19.9297L11.6231 21.2281L11.1081 18.5814C11.0268 18.2568 11.1217 17.8947 11.4063 17.6326L13.5613 15.735L10.6473 15.3729C10.2949 15.3355 9.95607 15.1232 9.79343 14.8111ZM32.5361 0.566486L34.5556 4.41166L39.1502 4.98594C40.0583 5.0983 40.3836 6.1345 39.7601 6.6963L36.4124 9.65508L37.2392 13.8498C37.4018 14.6738 36.4531 15.298 35.667 14.8985L31.5603 12.876L27.4807 14.8985C26.6946 15.2855 25.7052 14.6863 25.9221 13.7874L26.7353 9.6426L23.374 6.68381C22.7234 6.10953 23.0758 5.08582 23.9975 4.97346L28.565 4.39918L30.5844 0.566486C30.991 -0.195058 32.1431 -0.182574 32.5361 0.566486ZM32.8614 5.75997L31.5603 3.28807L30.2727 5.75997C30.1236 6.04711 29.8119 6.27183 29.446 6.32177L26.4913 6.68381L28.6463 8.58143C28.9038 8.80615 29.0258 9.13074 28.958 9.46782L28.4294 12.1644L31.0453 10.8785C31.357 10.7287 31.7365 10.7038 32.0753 10.8785L34.6911 12.1769L34.1761 9.53024C34.0948 9.20565 34.1897 8.8436 34.4743 8.58143L36.6293 6.68381L33.7153 6.30928C33.3493 6.28431 33.0241 6.07208 32.8614 5.75997ZM55.5906 9.61763L57.6101 13.4628L62.1911 14.0371C63.0992 14.1494 63.4381 15.1856 62.801 15.735L59.4533 18.6937L60.2801 22.8885C60.4427 23.7124 59.494 24.3367 58.7079 23.9372L54.6283 21.9147L50.5487 23.9372C49.7626 24.3242 48.7732 23.7249 48.9765 22.8261L49.7897 18.6813L46.442 15.7225C45.7914 15.1482 46.1438 14.1245 47.0655 14.0121L51.633 13.4378L53.6524 9.59266C54.0455 8.85609 55.2111 8.86857 55.5906 9.61763ZM55.9159 14.8111L54.6283 12.3392L53.3272 14.8111C53.1781 15.0983 52.8799 15.323 52.5004 15.3729L49.5593 15.735L51.7007 17.6326C51.9447 17.8573 52.0802 18.1819 52.0125 18.519L51.4839 21.2156L54.0997 19.9297C54.4114 19.7799 54.8045 19.7549 55.1298 19.9297L57.7591 21.2281L57.2441 18.5814C57.1628 18.2568 57.2577 17.8947 57.5423 17.6326L59.6837 15.735L56.7697 15.3729C56.4174 15.3355 56.0785 15.1232 55.9159 14.8111ZM26.532 35.1106C26.2338 34.6362 26.41 34.0245 26.925 33.7499C27.44 33.4752 28.1042 33.6375 28.4023 34.1119L29.8254 36.384L34.8809 31.7274C35.3011 31.3404 35.9923 31.3404 36.4124 31.7274C36.8326 32.1144 36.8326 32.7511 36.4124 33.1381L30.354 38.7186C29.8526 39.1805 29.0122 39.0807 28.6599 38.5189L26.532 35.1106ZM31.5603 24.5614C37.4561 24.5614 42.2404 28.9684 42.2404 34.399C42.2404 39.8297 37.4561 44.2367 31.5603 44.2367C25.6645 44.2367 20.8802 39.8297 20.8802 34.399C20.8802 28.9684 25.6645 24.5614 31.5603 24.5614ZM37.578 28.856C34.2574 25.7973 28.8632 25.7973 25.5426 28.856C22.222 31.9147 22.222 36.8834 25.5426 39.9421C28.8632 43.0007 34.2574 43.0007 37.578 39.9421C40.8986 36.8709 40.8986 31.9147 37.578 28.856ZM31.5603 18.3816C41.1562 18.3816 48.9358 25.5476 48.9358 34.3866C48.9358 37.7324 47.8245 40.841 45.9134 43.4127L51.1044 51.6898C51.6059 52.4639 50.9146 53.3378 50.0201 53.2129L44.7072 52.4389L41.8609 55.6599C41.3595 56.2591 40.4243 56.1592 40.0583 55.56L36.426 49.7673C33.2545 50.6162 29.8526 50.6162 26.6946 49.7673L23.0623 55.56C22.6963 56.1592 21.7611 56.2591 21.2597 55.6599L18.4134 52.4389L13.1005 53.2129C12.1924 53.3503 11.5554 52.4389 11.9891 51.7273L17.2072 43.4127C12.4906 37.0582 13.3715 28.5064 19.2809 23.0633C22.4117 20.1794 26.7624 18.3816 31.5603 18.3816ZM44.4767 45.0981C42.8232 46.796 40.7902 48.1568 38.4861 49.0806L41.1426 53.3128L43.4196 50.741C43.6771 50.4414 44.0701 50.3291 44.4496 50.3915L48.1091 50.9283L44.4767 45.0981ZM24.6209 49.0806C22.3304 48.1568 20.2974 46.796 18.6438 45.1106L14.998 50.9283L18.6574 50.3915C19.0233 50.3291 19.4299 50.4539 19.6875 50.741L21.9644 53.3128L24.6209 49.0806ZM42.3217 24.4865C36.3853 19.0183 26.7488 19.0183 20.8124 24.4865C14.876 29.9546 14.876 38.831 20.8124 44.2991C26.7624 49.7673 36.3853 49.7673 42.3217 44.2991C48.2582 38.831 48.2582 29.9546 42.3217 24.4865Z" fill="#048DEF"></path></svg>