<svg xmlns="http://www.w3.org/2000/svg" width="82" height="78" viewBox="0 0 82 78" fill="none"><path d="M14.2402 7.93094C16.6377 8.18331 19.1614 7.93094 21.559 7.17383" stroke="#048DEF" stroke-width="2.5" stroke-miterlimit="10" stroke-linecap="round" stroke-linejoin="round"></path><path d="M14.2393 14.6191C15.3749 18.7832 18.4034 22.695 22.0627 22.695C25.7221 22.695 29.0029 18.6571 30.2647 14.6191" stroke="#048DEF" stroke-width="2.5" stroke-miterlimit="10" stroke-linecap="round" stroke-linejoin="round"></path><path d="M13.8613 9.69728C14.4923 5.28081 18.0254 2 22.3157 2C26.606 2 30.1392 5.40699 30.7701 9.69728C28.2464 9.69728 24.5871 9.19254 21.1801 6.92121C20.6753 6.54266 20.1706 6.29029 19.792 5.91173" stroke="#048DEF" stroke-width="2.5" stroke-miterlimit="10" stroke-linecap="round" stroke-linejoin="round"></path><path d="M30.7702 9.69727C31.4011 9.69727 31.9058 10.8329 31.9058 12.3472C31.9058 13.8614 31.4011 14.8708 30.8963 14.8708C30.644 14.8708 30.5178 14.7447 30.3916 14.4923" stroke="#048DEF" stroke-width="2.5" stroke-miterlimit="10" stroke-linecap="round" stroke-linejoin="round"></path><path d="M13.8613 9.69727C13.2303 9.69727 12.7256 10.8329 12.7256 12.3472C12.7256 13.8614 13.2303 14.997 13.7351 14.997C13.8613 14.997 14.1136 14.8708 14.2398 14.7447" stroke="#048DEF" stroke-width="2.5" stroke-miterlimit="10" stroke-linecap="round" stroke-linejoin="round"></path><path d="M36.0703 75.8183V57.5215" stroke="#048DEF" stroke-width="2.5" stroke-miterlimit="10" stroke-linecap="round" stroke-linejoin="round"></path><path d="M8.56152 57.5215V75.8183" stroke="#048DEF" stroke-width="2.5" stroke-miterlimit="10" stroke-linecap="round" stroke-linejoin="round"></path><path d="M13.9873 27.4895C14.3659 27.4895 14.6182 27.3633 14.9968 27.3633H20.1704H24.3345H29.6342H30.5175H30.6437" stroke="#048DEF" stroke-width="2.5" stroke-miterlimit="10" stroke-linecap="round" stroke-linejoin="round"></path><path d="M32.4106 40.6127L34.3033 57.5215H42.6315C41.6221 39.8556 39.8555 29.3822 30.3916 27.3633" stroke="#048DEF" stroke-width="2.5" stroke-miterlimit="10" stroke-linecap="round" stroke-linejoin="round"></path><path d="M12.0948 41.1174L10.202 57.5215H2C3.00948 39.8556 4.77607 29.3822 14.2399 27.3633" stroke="#048DEF" stroke-width="2.5" stroke-miterlimit="10" stroke-linecap="round" stroke-linejoin="round"></path><path d="M70.5182 23.3257C68.6255 22.0638 66.4803 21.1805 64.209 20.6758" stroke="#048DEF" stroke-width="2.5" stroke-miterlimit="10" stroke-linecap="round" stroke-linejoin="round"></path><path d="M80.2348 47.0488C79.7301 49.3202 78.7206 51.3391 77.585 53.2319" stroke="#048DEF" stroke-width="2.5" stroke-miterlimit="10" stroke-linecap="round" stroke-linejoin="round"></path><path d="M53.988 63.0725C51.7166 62.5678 49.6977 61.6845 47.6787 60.5488" stroke="#048DEF" stroke-width="2.5" stroke-miterlimit="10" stroke-linecap="round" stroke-linejoin="round"></path><path d="M40.3599 30.5176C39.729 31.5271 39.2243 32.5365 38.8457 33.546" stroke="#048DEF" stroke-width="2.5" stroke-miterlimit="10" stroke-linecap="round" stroke-linejoin="round"></path><path d="M53.862 20.6758C51.5907 21.1805 49.4455 22.0638 47.5527 23.3257" stroke="#048DEF" stroke-width="2.5" stroke-miterlimit="10" stroke-linecap="round" stroke-linejoin="round"></path><path d="M70.3923 60.4238C68.4995 61.5595 66.3543 62.4428 64.083 62.9475" stroke="#048DEF" stroke-width="2.5" stroke-miterlimit="10" stroke-linecap="round" stroke-linejoin="round"></path><path d="M80.2346 36.8268C79.7299 34.5555 78.8466 32.4104 77.7109 30.5176" stroke="#048DEF" stroke-width="2.5" stroke-miterlimit="10" stroke-linecap="round" stroke-linejoin="round"></path><path d="M53.8623 20.6758C54.7456 23.578 56.7646 25.597 59.0359 25.597C61.3072 25.597 63.3262 23.578 64.2095 20.6758" stroke="#048DEF" stroke-width="2.5" stroke-miterlimit="10" stroke-linecap="round" stroke-linejoin="round"></path><path d="M53.9883 63.0731C54.8716 60.2971 56.7644 58.4043 59.0357 58.4043C61.307 58.4043 63.1998 60.2971 64.0831 63.0731" stroke="#048DEF" stroke-width="2.5" stroke-miterlimit="10" stroke-linecap="round" stroke-linejoin="round"></path><path d="M80.2345 47.0479C77.4584 46.1646 75.4395 44.1457 75.4395 42.0005C75.4395 39.8554 77.4584 37.8364 80.2345 36.9531" stroke="#048DEF" stroke-width="2.5" stroke-miterlimit="10" stroke-linecap="round" stroke-linejoin="round"></path><path d="M70.5189 23.3262C69.1308 25.9761 69.0046 28.8783 70.645 30.3925C72.2855 32.0329 75.0615 32.0329 77.7114 30.5187" stroke="#048DEF" stroke-width="2.5" stroke-miterlimit="10" stroke-linecap="round" stroke-linejoin="round"></path><path d="M42.5049 52.5992C44.3977 52.0945 46.2904 52.3468 47.4261 53.6087C49.0665 55.2491 49.0665 57.899 47.6785 60.5488" stroke="#048DEF" stroke-width="2.5" stroke-miterlimit="10" stroke-linecap="round" stroke-linejoin="round"></path><path d="M70.3923 60.4247C69.0043 57.7748 69.0043 55.1249 70.6447 53.4845C72.2851 51.8441 74.935 51.8441 77.5849 53.2322" stroke="#048DEF" stroke-width="2.5" stroke-miterlimit="10" stroke-linecap="round" stroke-linejoin="round"></path><path d="M47.6789 23.3262C49.0669 25.9761 49.1931 28.8783 47.5527 30.3925C45.9123 32.0329 43.1362 32.0329 40.4863 30.5187" stroke="#048DEF" stroke-width="2.5" stroke-miterlimit="10" stroke-linecap="round" stroke-linejoin="round"></path><path d="M59.0359 52.3471C64.8201 52.3471 69.5092 47.658 69.5092 41.8737C69.5092 36.0895 64.8201 31.4004 59.0359 31.4004C53.2516 31.4004 48.5625 36.0895 48.5625 41.8737C48.5625 47.658 53.2516 52.3471 59.0359 52.3471Z" stroke="#048DEF" stroke-width="2.5" stroke-miterlimit="10" stroke-linecap="round" stroke-linejoin="round"></path><path d="M22.3154 69.1309V75.8187" stroke="#048DEF" stroke-width="2.5" stroke-miterlimit="10" stroke-linecap="round" stroke-linejoin="round"></path><path d="M54.6191 42.5051L56.8905 45.2811L63.4521 38.8457" stroke="#048DEF" stroke-width="2.5" stroke-miterlimit="10" stroke-linecap="round" stroke-linejoin="round"></path></svg>