<svg xmlns="http://www.w3.org/2000/svg" width="56" height="53" viewBox="0 0 56 53" fill="none"><path d="M14.7595 29.5176C13.0334 29.5176 11.6289 30.9221 11.6289 32.6482C11.6289 34.3743 13.0334 35.7788 14.7595 35.7788C16.4856 35.7788 17.8902 34.3743 17.8902 32.6482C17.8902 30.9221 16.4856 29.5176 14.7595 29.5176ZM14.7595 33.9899C14.0196 33.9899 13.4178 33.3881 13.4178 32.6482C13.4178 31.9083 14.0196 31.3065 14.7595 31.3065C15.4995 31.3065 16.1012 31.9083 16.1012 32.6482C16.1012 33.3881 15.4995 33.9899 14.7595 33.9899Z" fill="#048DEF"></path><path d="M54.5623 38.4619H52.7733V25.9394C52.7733 25.4455 52.3728 25.045 51.8789 25.045H50.9844V24.1729C50.9844 20.7082 48.1657 17.8893 44.7008 17.8893H43.8287V17.1095C45.9542 15.9827 47.4066 13.7495 47.4066 11.1808V5.72926C47.4066 4.13824 46.1803 2.82829 44.6232 2.69479C44.2471 1.15006 42.8522 0 41.1934 0H36.442C34.1032 0 32.2007 1.90252 32.2007 4.24088V7.15571C32.2007 7.64968 32.6012 8.05017 33.0951 8.05017H33.9896V11.1808C33.9896 13.7495 35.442 15.9827 37.5675 17.1095V17.8893H36.6954C33.2307 17.8893 30.4118 20.7079 30.4118 24.1729V25.045H29.5173C29.0233 25.045 28.6228 25.4455 28.6228 25.9394V38.4619H26.8339V25.9394C26.8339 25.4455 26.4334 25.045 25.9394 25.045H25.045V24.1729C25.045 20.7082 22.2263 17.8893 18.7614 17.8893H17.8893V17.1095C20.0147 15.9827 21.4671 13.7495 21.4671 11.1808V5.72926C21.4671 4.13824 20.2408 2.82829 18.6838 2.69479C18.3077 1.15006 16.9127 0 15.254 0H10.5026C8.16377 0 6.26124 1.90252 6.26124 4.24088V7.15571C6.26124 7.64968 6.66174 8.05017 7.15571 8.05017H8.05017V11.1808C8.05017 13.7495 9.50256 15.9827 11.628 17.1095V17.8893H10.7559C7.291 17.8893 4.47232 20.7079 4.47232 24.1729V25.045H3.57785C3.08389 25.045 2.68339 25.4455 2.68339 25.9394V38.4619H0.894463C0.400496 38.4619 0 38.8624 0 39.3564V42.9342C0 43.4282 0.400496 43.8287 0.894463 43.8287H4.47232V51.8789C4.47232 52.3728 4.87281 52.7733 5.36678 52.7733C5.86075 52.7733 6.26124 52.3728 6.26124 51.8789V43.8287H8.05017V51.8789C8.05017 52.3728 8.45067 52.7733 8.94463 52.7733C9.4386 52.7733 9.8391 52.3728 9.8391 51.8789V50.09H45.6176V51.8789C45.6176 52.3728 46.0181 52.7733 46.5121 52.7733C47.0061 52.7733 47.4066 52.3728 47.4066 51.8789V43.8287H49.1955V51.8789C49.1955 52.3728 49.596 52.7733 50.09 52.7733C50.5839 52.7733 50.9844 52.3728 50.9844 51.8789V43.8287H54.5623C55.0562 43.8287 55.4567 43.4282 55.4567 42.9342V39.3564C55.4567 38.8624 55.0562 38.4619 54.5623 38.4619ZM33.9896 4.24088C33.9896 2.88867 35.0898 1.78893 36.442 1.78893H41.1934C42.1534 1.78893 42.9342 2.56979 42.9342 3.57785C42.9342 4.07182 43.3347 4.47232 43.8287 4.47232H44.3607C45.0539 4.47232 45.6176 5.03605 45.6176 5.72926V9.60139C45.081 9.29213 44.7232 8.71297 44.7232 8.04995V7.15548C44.7232 6.66152 44.3227 6.26102 43.8287 6.26102H33.9896V4.24088ZM35.7785 11.1808V8.05017H42.9342C42.9342 9.71343 44.0597 11.1126 45.6067 11.5131C45.4352 14.0717 43.299 16.1003 40.6981 16.1003C37.9854 16.1003 35.7785 13.8935 35.7785 11.1808ZM40.6981 17.8893C41.1574 17.8893 41.6062 17.8425 42.0398 17.754V19.6782C42.0398 20.1713 41.6384 20.5727 41.1453 20.5727H40.2509C39.7578 20.5727 39.3564 20.1713 39.3564 19.6782V17.754C39.79 17.8425 40.2388 17.8893 40.6981 17.8893ZM32.2007 24.1729C32.2007 21.6948 34.2173 19.6782 36.6954 19.6782H37.5675C37.5675 21.1579 38.7712 22.3616 40.2509 22.3616H41.1453C42.625 22.3616 43.8287 21.1579 43.8287 19.6782H44.7008C47.1789 19.6782 49.1955 21.6948 49.1955 24.1729V25.045H32.2007V24.1729ZM30.4118 26.8339H50.9844V38.4619H30.4118V26.8339ZM8.05017 4.24088C8.05017 2.88867 9.15036 1.78893 10.5026 1.78893H15.254C16.2139 1.78893 16.9948 2.56979 16.9948 3.57785C16.9948 4.07182 17.3953 4.47232 17.8893 4.47232H18.4213C19.1145 4.47232 19.6782 5.03605 19.6782 5.72926V9.60139C19.1415 9.29213 18.7837 8.71297 18.7837 8.04995V7.15548C18.7837 6.66152 18.3832 6.26102 17.8893 6.26102H8.05017V4.24088ZM9.8391 11.1808V8.05017H16.9948C16.9948 9.71343 18.1203 11.1126 19.6672 11.5131C19.4957 14.0717 17.3595 16.1003 14.7586 16.1003C12.046 16.1003 9.8391 13.8935 9.8391 11.1808ZM14.7586 17.8893C15.218 17.8893 15.6668 17.8425 16.1003 17.754V19.6782C16.1003 20.1713 15.699 20.5727 15.2059 20.5727H14.3114C13.8183 20.5727 13.417 20.1713 13.417 19.6782V17.754C13.8505 17.8425 14.2993 17.8893 14.7586 17.8893ZM6.26124 24.1729C6.26124 21.6948 8.27781 19.6782 10.7559 19.6782H11.628C11.628 21.1579 12.8317 22.3616 14.3114 22.3616H15.2059C16.6855 22.3616 17.8893 21.1579 17.8893 19.6782H18.7614C21.2395 19.6782 23.2561 21.6948 23.2561 24.1729V25.045H6.26124V24.1729ZM4.47232 26.8339H25.045V38.4619H4.47232V26.8339ZM45.6176 48.301H9.8391V43.8287H45.6176V48.301ZM53.6678 42.0398H1.78893V40.2509H53.6678V42.0398Z" fill="#048DEF"></path><path d="M40.697 29.5176C38.9709 29.5176 37.5664 30.9221 37.5664 32.6482C37.5664 34.3743 38.9709 35.7788 40.697 35.7788C42.4231 35.7788 43.8277 34.3743 43.8277 32.6482C43.8277 30.9221 42.4231 29.5176 40.697 29.5176ZM40.697 33.9899C39.9571 33.9899 39.3553 33.3881 39.3553 32.6482C39.3553 31.9083 39.9571 31.3065 40.697 31.3065C41.437 31.3065 42.0387 31.9083 42.0387 32.6482C42.0387 33.3881 41.437 33.9899 40.697 33.9899Z" fill="#048DEF"></path></svg>