<svg xmlns="http://www.w3.org/2000/svg" width="53" height="53" viewBox="0 0 53 53" fill="none"><path d="M47.6161 29.0192V27.2608C48.1014 27.2608 48.4953 26.8672 48.4953 26.3816V21.1065C48.4953 20.6208 48.1014 20.2273 47.6161 20.2273H42.8685L42.6981 19.5668C42.3094 18.0564 41.7056 16.6095 40.9044 15.2712L40.5527 14.6829L43.9235 11.3062C44.2628 10.9662 44.2628 10.4153 43.9235 10.0753L40.1897 6.33604C39.8449 6.00737 39.3033 6.00737 38.9585 6.33604L35.5815 9.71303L34.9935 9.36135C33.6531 8.55977 32.2048 7.95602 30.6924 7.56691L30.0323 7.39519V2.64343C30.0323 2.15782 29.6387 1.76424 29.1531 1.76424H23.8779C23.3923 1.76424 22.9988 2.15782 22.9988 2.64343V7.39107L22.3383 7.56175C20.8279 7.95018 19.381 8.55394 18.042 9.35414L17.4537 9.70616L14.0777 6.33604C13.7326 6.00462 13.1875 6.00462 12.8424 6.33604L9.10752 10.0699C8.94336 10.2337 8.85098 10.4562 8.85098 10.688C8.85098 10.9202 8.94336 11.1424 9.10752 11.3062L12.4845 14.6829L12.1328 15.2712C11.3319 16.6095 10.7278 18.0564 10.3394 19.5668L10.167 20.2273H5.41492C4.9293 20.2273 4.53573 20.6208 4.53573 21.1065V26.3816C4.53573 26.8672 4.9293 27.2608 5.41492 27.2608V29.0192C3.95841 29.0192 2.77734 27.8381 2.77734 26.3816V21.1065C2.77734 19.65 3.95841 18.4689 5.41492 18.4689H8.81663C9.1793 17.2531 9.66973 16.0793 10.2797 14.9672L7.86189 12.5494C7.36734 12.0559 7.0895 11.3862 7.0895 10.688C7.0895 9.98983 7.36734 9.32014 7.86189 8.82697L11.5985 5.0904C12.6394 4.0941 14.2807 4.0941 15.3216 5.0904L17.7387 7.50715C18.8508 6.89755 20.025 6.40816 21.2404 6.04584V2.64343C21.2404 1.18693 22.4214 0.00585938 23.8779 0.00585938H29.1531C30.6096 0.00585938 31.7907 1.18693 31.7907 2.64343V6.04584C33.0064 6.40816 34.1799 6.89858 35.2923 7.50818L37.7101 5.0904C38.7514 4.0941 40.3923 4.0941 41.4336 5.0904L45.1695 8.82594C45.6637 9.31945 45.9412 9.98846 45.9412 10.687C45.9412 11.3856 45.6637 12.0552 45.1695 12.5484L42.7517 14.9662C43.3613 16.0789 43.8514 17.2531 44.2144 18.4689H47.6161C49.0726 18.4689 50.2537 19.65 50.2537 21.1065V26.3816C50.2537 27.8381 49.0726 29.0192 47.6161 29.0192Z" fill="#048DEF"></path><path d="M38.8244 23.7442H37.066C37.066 17.9175 32.3424 13.1939 26.5157 13.1939C20.689 13.1939 15.9654 17.9175 15.9654 23.7442H14.207C14.207 16.9463 19.7178 11.4355 26.5157 11.4355C33.3133 11.4355 38.8244 16.9463 38.8244 23.7442Z" fill="#048DEF"></path><path d="M26.5173 30.7769C23.604 30.7769 21.2422 28.4147 21.2422 25.5017C21.2422 22.5884 23.604 20.2266 26.5173 20.2266C29.431 20.2266 31.7925 22.5884 31.7925 25.5017C31.7894 28.414 29.4297 30.7738 26.5173 30.7769ZM26.5173 21.9849C24.5752 21.9849 23.0006 23.5596 23.0006 25.5017C23.0006 27.4438 24.5752 29.0185 26.5173 29.0185C28.4595 29.0185 30.0341 27.4438 30.0341 25.5017C30.0341 23.5596 28.4595 21.9849 26.5173 21.9849Z" fill="#048DEF"></path><path d="M41.4626 34.2944C38.5493 34.2944 36.1875 31.9323 36.1875 29.0193C36.1875 26.1059 38.5493 23.7441 41.4626 23.7441C44.376 23.7441 46.7378 26.1059 46.7378 29.0193C46.7347 31.9316 44.375 34.2913 41.4626 34.2944ZM41.4626 25.5025C39.5205 25.5025 37.9459 27.0772 37.9459 29.0193C37.9459 30.9614 39.5205 32.5361 41.4626 32.5361C43.4048 32.5361 44.9794 30.9614 44.9794 29.0193C44.9794 27.0772 43.4048 25.5025 41.4626 25.5025Z" fill="#048DEF"></path><path d="M11.5681 34.2944C8.65477 34.2944 6.29297 31.9323 6.29297 29.0193C6.29297 26.1059 8.65477 23.7441 11.5681 23.7441C14.4818 23.7441 16.8433 26.1059 16.8433 29.0193C16.8402 31.9316 14.4804 34.2913 11.5681 34.2944ZM11.5681 25.5025C9.626 25.5025 8.05135 27.0772 8.05135 29.0193C8.05135 30.9614 9.626 32.5361 11.5681 32.5361C13.5102 32.5361 15.0849 30.9614 15.0849 29.0193C15.0849 27.0772 13.5102 25.5025 11.5681 25.5025Z" fill="#048DEF"></path><path d="M49.433 36.5496C48.1228 35.6491 46.5695 35.1686 44.9794 35.1731H37.9459C37.5183 35.1768 37.0914 35.2157 36.67 35.2888C36.1075 34.4089 35.3756 33.6499 34.517 33.0548C34.3882 32.9576 34.2529 32.8693 34.1118 32.7914C32.8819 32.0464 31.4707 31.6542 30.0331 31.6563H22.9996C20.3109 31.6467 17.8055 33.0187 16.3651 35.2888C15.9427 35.2157 15.5151 35.1768 15.0869 35.1731H8.05335C6.46462 35.1686 4.91161 35.6484 3.6021 36.5478C1.43778 38.0205 0.141999 40.4681 0.140625 43.0858V46.6026C0.143716 49.0032 1.54046 51.1833 3.72093 52.1889C4.52594 52.568 5.40547 52.762 6.29497 52.7569H15.0869V50.9985H7.17416V41.3274H5.41577V50.9102C5.0847 50.844 4.76325 50.7368 4.45828 50.5922C2.90081 49.8741 1.90244 48.3173 1.89901 46.6026V43.0858C1.90107 41.0485 2.91042 39.1442 4.59462 37.9985C5.61222 37.3 6.8187 36.928 8.05335 36.9314H15.0869C15.2418 36.9314 15.3912 36.9479 15.5423 36.9582C15.2449 37.7969 15.0907 38.6795 15.0869 39.569V48.3609C15.09 50.7876 17.0565 52.7538 19.4828 52.7569H22.1204V38.6898H20.362V50.9985H19.4828C18.0263 50.9985 16.8453 49.8174 16.8453 48.3609V39.569C16.8453 36.1697 19.601 33.4147 22.9996 33.4147H30.0331C31.1644 33.4154 32.273 33.7286 33.2377 34.3193C33.327 34.3681 33.4129 34.423 33.4943 34.4835C34.3182 35.0477 34.9944 35.8016 35.4656 36.6814C35.9392 37.5702 36.1875 38.5617 36.1875 39.569V48.3609C36.1875 49.8174 35.0064 50.9985 33.5499 50.9985H32.6707V38.6898H30.9123V52.7569H33.5499C35.9766 52.7538 37.9428 50.7876 37.9459 48.3609V39.569C37.9417 38.6795 37.7882 37.7972 37.4911 36.9582C37.6426 36.9479 37.792 36.9314 37.9459 36.9314H44.9794C46.2147 36.928 47.4222 37.301 48.4405 38.0002C50.1233 39.1466 51.1313 41.0496 51.1337 43.0858V46.6026C51.1306 48.3235 50.1247 49.8848 48.5597 50.5991C48.2592 50.7413 47.9425 50.8457 47.617 50.9102V41.3274H45.8586V50.9985H37.9459V52.7569H46.7378C47.6221 52.7624 48.4965 52.5708 49.297 52.1957C51.4847 51.1932 52.8887 49.009 52.8921 46.6026V43.0858C52.8907 40.4692 51.596 38.0225 49.433 36.5496Z" fill="#048DEF"></path></svg>