<svg xmlns="http://www.w3.org/2000/svg" width="58" height="62" viewBox="0 0 58 62" fill="none"><path d="M12.8977 21.4004C12.3793 22.548 12.0889 23.834 12.0889 25.1923C12.0889 30.035 15.7811 33.9607 20.3356 33.9607C24.8902 33.9607 28.5824 30.035 28.5824 25.1923C28.5824 20.3496 24.8902 16.4238 20.3356 16.4238C18.3655 16.4238 16.5567 17.1584 15.1382 18.3841" stroke="#048DEF" stroke-width="1.8" stroke-miterlimit="10" stroke-linecap="round" stroke-linejoin="round"></path><path d="M33.2883 40.2224C30.1066 36.3496 25.4385 33.9629 20.3352 33.9629H18.7139C11.5774 33.9629 5.40468 39.249 3.88415 46.6627C3.43294 48.8627 5.00888 50.9433 7.12675 50.9433H22.0486" stroke="#048DEF" stroke-width="1.8" stroke-miterlimit="10" stroke-linecap="round" stroke-linejoin="round"></path><path d="M21.1905 1.29995L22.6487 3.90768C22.7296 4.05243 22.863 4.15553 23.0176 4.19259L25.8008 4.86127C26.2277 4.96389 26.3961 5.51475 26.1073 5.86448L24.2254 8.14493C24.1209 8.27157 24.07 8.43829 24.0845 8.60597L24.3463 11.6271C24.3865 12.0905 23.9457 12.431 23.5437 12.2471L20.9224 11.0488C20.7768 10.9823 20.612 10.9823 20.4664 11.0488L17.8451 12.2472C17.443 12.4311 17.0023 12.0906 17.0425 11.6272L17.3043 8.60609C17.3189 8.43841 17.2679 8.27169 17.1634 8.14505L15.2815 5.8646C14.9927 5.51475 15.1611 4.96389 15.588 4.86139L18.3713 4.19271C18.5258 4.15553 18.6592 4.05255 18.7402 3.9078L20.1984 1.30007C20.422 0.899996 20.9668 0.899996 21.1905 1.29995Z" stroke="#048DEF" stroke-width="1.8" stroke-miterlimit="10" stroke-linecap="round" stroke-linejoin="round"></path><path d="M5.95731 3.29065L7.15165 5.42648C7.21795 5.54503 7.32718 5.62942 7.45378 5.65984L9.73321 6.20756C10.0829 6.29158 10.2208 6.74272 9.98437 7.0292L8.44294 8.8969C8.35733 9.0006 8.31566 9.13714 8.32758 9.27452L8.54206 11.7489C8.57499 12.1284 8.21404 12.4073 7.88466 12.2567L5.73773 11.2753C5.61851 11.2208 5.48351 11.2208 5.36429 11.2753L3.21736 12.2567C2.88798 12.4073 2.52703 12.1285 2.55996 11.7489L2.77444 9.27452C2.78636 9.13714 2.74458 9.0006 2.65908 8.8969L1.11777 7.0292C0.881265 6.74272 1.01922 6.29158 1.36892 6.20756L3.64836 5.65984C3.77495 5.62942 3.88418 5.54503 3.95049 5.42648L5.14482 3.29065C5.32796 2.96301 5.77417 2.96301 5.95731 3.29065Z" stroke="#048DEF" stroke-width="1.8" stroke-miterlimit="10" stroke-linecap="round" stroke-linejoin="round"></path><path d="M34.6877 3.29065L33.4934 5.42648C33.4271 5.54503 33.3179 5.62942 33.1913 5.65984L30.9118 6.20756C30.5621 6.29158 30.4243 6.74272 30.6607 7.0292L32.202 8.8969C32.2876 9.0006 32.3293 9.13714 32.3174 9.27452L32.1029 11.7489C32.07 12.1284 32.4309 12.4073 32.7603 12.2567L34.9072 11.2753C35.0264 11.2208 35.1614 11.2208 35.2806 11.2753L37.4276 12.2567C37.757 12.4073 38.1179 12.1285 38.085 11.7489L37.8705 9.27452C37.8586 9.13714 37.9004 9.0006 37.9859 8.8969L39.5272 7.0292C39.7637 6.74272 39.6257 6.29158 39.276 6.20756L36.9966 5.65984C36.87 5.62942 36.7608 5.54503 36.6945 5.42648L35.5001 3.29065C35.3171 2.96301 34.8709 2.96301 34.6877 3.29065Z" stroke="#048DEF" stroke-width="1.8" stroke-miterlimit="10" stroke-linecap="round" stroke-linejoin="round"></path><path d="M54.4787 45.9825H51.6833M54.4787 50.988H51.6833M54.4787 55.9934H51.6833M56.8326 43.4798C56.8326 42.0976 55.7787 40.9771 54.4788 40.9771L45.9238 40.9631C44.8029 40.9613 43.895 39.9945 43.895 38.8027V32.3396C43.895 31.0066 43.2517 29.7666 42.1908 29.0558C41.344 28.4884 40.221 28.9421 39.9396 29.9635L36.5399 42.3066C35.9951 44.2844 34.2891 45.6434 32.3507 45.6434H30.0254V58.5548H33.6219C35.524 58.5548 37.4161 58.9362 39.1605 59.7426C40.8973 60.5455 42.7709 60.9598 44.6645 60.9598L54.4787 60.9989C55.7787 60.9989 56.8325 59.8785 56.8325 58.4962C56.8325 57.1141 55.7786 55.9935 54.4787 55.9935C55.7787 55.9935 56.8325 54.873 56.8325 53.4908C56.8325 52.1086 55.7786 50.9881 54.4787 50.9881C55.7787 50.9881 56.8325 49.8676 56.8325 48.4854C56.8325 47.1033 55.7786 45.9827 54.4787 45.9827C55.7787 45.9825 56.8326 44.8619 56.8326 43.4798Z" stroke="#048DEF" stroke-width="1.8" stroke-miterlimit="10" stroke-linecap="round" stroke-linejoin="round"></path><path d="M29.0915 60.4827H23.4595C22.9437 60.4827 22.5254 60.0381 22.5254 59.4895V44.2217C22.5254 43.6733 22.9436 43.2285 23.4595 43.2285H29.0915C29.6074 43.2285 30.0256 43.6731 30.0256 44.2217V59.4895C30.0256 60.0381 29.6075 60.4827 29.0915 60.4827Z" stroke="#048DEF" stroke-width="1.8" stroke-miterlimit="10" stroke-linecap="round" stroke-linejoin="round"></path></svg>