<svg xmlns="http://www.w3.org/2000/svg" width="52" height="52" viewBox="0 0 52 52" fill="none"><mask id="path-1-inside-1_297_11" fill="white"><path d="M47.8064 44.6789V31.871C47.8064 26.7842 43.6674 22.6452 38.5806 22.6452C36.8529 22.6452 35.2401 23.1316 33.8562 23.9611L29.8706 22.3013C29.5578 22.1705 29.3548 21.866 29.3548 21.5272V20.9677H31.0323V17.2414C33.5945 15.548 35.2258 12.4574 35.2258 9.22581C35.2258 4.13903 31.0868 0 26 0C20.9132 0 16.7742 4.13903 16.7742 9.22581C16.7742 12.4574 18.4055 15.548 20.9677 17.2414V20.9677H22.6452V21.5272C22.6452 21.866 22.4422 22.1705 22.1285 22.3013L18.4348 23.8412C17.1608 23.0863 15.6814 22.6452 14.097 22.6452C11.8141 22.6452 9.66781 23.535 8.05245 25.1487L7.95097 25.2502C5.72671 25.9145 4.19355 27.9559 4.19355 30.2967V33.5484C4.19355 37.0894 6.6451 40.1264 10.0645 40.9022V41.6562C10.0645 41.995 9.86155 42.2995 9.54787 42.4303L4.38729 44.5808C1.72187 45.6912 0 48.2744 0 51.1613V52H25.1613H26.8387H52V51.1613C52 48.3474 50.357 45.833 47.8064 44.6789ZM46.129 31.871V43.9626L42.4513 42.4303C42.1385 42.2995 41.9355 41.995 41.9355 41.6562V40.8586C43.5064 39.3481 44.4516 37.2379 44.4516 34.9532V31.2663L38.5806 29.3095L32.7097 31.2663V34.9532C32.7097 37.2379 33.6549 39.3472 35.2258 40.8586V41.6562C35.2258 41.995 35.0228 42.2995 34.7092 42.4303L31.0323 43.9626V31.871C31.0323 27.7085 34.419 24.3226 38.5806 24.3226C42.7423 24.3226 46.129 27.7085 46.129 31.871ZM41.4172 45.2903H35.7441L35.1344 44.07L35.355 43.9786C36.1635 43.6423 36.7221 42.9218 36.8655 42.0797C37.3217 42.3381 37.804 42.5603 38.3165 42.7314L38.5806 42.8195L38.8457 42.7314C39.3573 42.5612 39.8396 42.3381 40.2966 42.0797C40.4392 42.9218 40.9986 43.6423 41.8063 43.9786L42.0269 44.0708L41.4172 45.2903ZM40.5784 46.9677L38.901 50.3226H38.2603L36.5828 46.9677H40.5784ZM38.5806 41.0448C36.0612 40.0836 34.3871 37.6706 34.3871 34.9532V32.4748L38.5806 31.0767L42.7742 32.4748V34.9532C42.7742 37.6706 41.1001 40.0836 38.5806 41.0448ZM22.6452 19.2903V17.6129H29.3548V19.2903H22.6452ZM25.5135 10.9032H26.4865L26.0671 15.9355H25.9329L25.5135 10.9032ZM18.4516 9.22581C18.4516 5.06329 21.8383 1.67742 26 1.67742C30.1617 1.67742 33.5484 5.06329 33.5484 9.22581C33.5484 11.9281 32.1016 14.5902 29.9386 15.9355H27.7504L28.1697 10.9032H29.3548C30.7421 10.9032 31.871 9.77432 31.871 8.3871C31.871 6.99987 30.7421 5.87097 29.3548 5.87097H29.2206C27.9223 5.87097 26.8211 6.88413 26.7129 8.17826L26.6265 9.22581H25.3743L25.2871 8.17826C25.1789 6.88413 24.0777 5.87097 22.7794 5.87097H22.6452C21.2579 5.87097 20.129 6.99987 20.129 8.3871C20.129 9.77432 21.2579 10.9032 22.6452 10.9032H23.8303L24.2496 15.9355H22.0614C19.8984 14.5902 18.4516 11.9281 18.4516 9.22581ZM28.309 9.22581L28.3844 8.31748C28.4214 7.88555 28.7879 7.54839 29.2206 7.54839H29.3548C29.817 7.54839 30.1935 7.92413 30.1935 8.3871C30.1935 8.85006 29.817 9.22581 29.3548 9.22581H28.309ZM23.691 9.22581H22.6452C22.183 9.22581 21.8065 8.85006 21.8065 8.3871C21.8065 7.92413 22.183 7.54839 22.6452 7.54839H22.7794C23.2121 7.54839 23.5795 7.88555 23.6155 8.31748L23.691 9.22581ZM27.6774 20.9677V21.5272C27.6774 21.9834 27.8049 22.4145 28.0238 22.7903L26 24.8141L23.9762 22.7903C24.1951 22.4145 24.3226 21.9834 24.3226 21.5272V20.9677H27.6774ZM22.6963 23.8814L26 27.1859L29.3037 23.8814L32.3012 25.1303C30.883 26.4521 29.8807 28.21 29.5142 30.1927H22.5806C22.3424 28.163 21.3913 26.3523 19.9839 25.0112L22.6963 23.8814ZM5.87097 33.5484V30.2967C5.87097 28.6461 6.98897 27.2136 8.5909 26.8135L8.81652 26.7582L9.23839 26.3355C10.5359 25.038 12.2619 24.3226 14.097 24.3226C17.8855 24.3226 20.9677 27.4048 20.9677 31.1933V33.5484C20.9677 35.4539 20.0435 37.159 18.6009 38.2384C19.0446 37.2244 19.2903 36.1123 19.2903 34.9541V31.0323H17.4695C16.1636 31.0323 14.9357 30.524 14.0123 29.6006L13.4194 29.0076L12.8264 29.6006C11.903 30.524 10.6751 31.0323 9.36923 31.0323H7.54839V34.9541C7.54839 36.1123 7.79413 37.2244 8.23781 38.2384C6.79523 37.1599 5.87097 35.4548 5.87097 33.5484ZM16.723 44.0104L17.1726 44.1975L16.3028 47.2428L14.6967 46.0376L16.723 44.0104ZM15.4432 42.9193L13.4194 44.9431L11.3955 42.9193C11.5457 42.6618 11.6522 42.38 11.7034 42.0797C12.1596 42.3381 12.6419 42.5603 13.1543 42.7314L13.4194 42.8195L13.6844 42.7314C14.196 42.5612 14.6783 42.3381 15.1354 42.0797C15.1865 42.38 15.293 42.6618 15.4432 42.9193ZM17.6129 34.9541C17.6129 37.6706 15.9388 40.0836 13.4194 41.0456C10.8999 40.0844 9.22581 37.6715 9.22581 34.9541V32.7097H9.36923C10.8563 32.7097 12.2678 32.2182 13.4194 31.3132C14.5709 32.2182 15.9825 32.7097 17.4695 32.7097H17.6129V34.9541ZM12.1428 46.0384L10.5367 47.2437L9.66613 44.1983L10.1157 44.0113L12.1428 46.0384ZM1.742 50.3226C2.028 48.4632 3.25671 46.8688 5.03226 46.129L8.10781 44.8475L9.59316 50.0475L13.4194 47.1774L17.2455 50.0475L18.7309 44.8475L21.8065 46.129C23.582 46.8688 24.8107 48.4632 25.0967 50.3226H1.742ZM22.4523 44.5808L17.2908 42.4303C16.9772 42.2995 16.7742 41.995 16.7742 41.6562V40.9022C20.1936 40.1264 22.6452 37.0886 22.6452 33.5484V31.871H29.3548V44.6789C27.8846 45.344 26.7238 46.4628 26 47.8324C25.2435 46.4008 24.0173 45.2324 22.4523 44.5808ZM30.1935 46.129L33.5819 44.7166L36.3849 50.3226H26.9033C27.1893 48.4632 28.418 46.8688 30.1935 46.129ZM40.7764 50.3226L43.5794 44.7166L46.9677 46.129C48.7433 46.8688 49.972 48.4632 50.258 50.3226H40.7764Z"></path></mask><path d="M47.8064 44.6789V31.871C47.8064 26.7842 43.6674 22.6452 38.5806 22.6452C36.8529 22.6452 35.2401 23.1316 33.8562 23.9611L29.8706 22.3013C29.5578 22.1705 29.3548 21.866 29.3548 21.5272V20.9677H31.0323V17.2414C33.5945 15.548 35.2258 12.4574 35.2258 9.22581C35.2258 4.13903 31.0868 0 26 0C20.9132 0 16.7742 4.13903 16.7742 9.22581C16.7742 12.4574 18.4055 15.548 20.9677 17.2414V20.9677H22.6452V21.5272C22.6452 21.866 22.4422 22.1705 22.1285 22.3013L18.4348 23.8412C17.1608 23.0863 15.6814 22.6452 14.097 22.6452C11.8141 22.6452 9.66781 23.535 8.05245 25.1487L7.95097 25.2502C5.72671 25.9145 4.19355 27.9559 4.19355 30.2967V33.5484C4.19355 37.0894 6.6451 40.1264 10.0645 40.9022V41.6562C10.0645 41.995 9.86155 42.2995 9.54787 42.4303L4.38729 44.5808C1.72187 45.6912 0 48.2744 0 51.1613V52H25.1613H26.8387H52V51.1613C52 48.3474 50.357 45.833 47.8064 44.6789ZM46.129 31.871V43.9626L42.4513 42.4303C42.1385 42.2995 41.9355 41.995 41.9355 41.6562V40.8586C43.5064 39.3481 44.4516 37.2379 44.4516 34.9532V31.2663L38.5806 29.3095L32.7097 31.2663V34.9532C32.7097 37.2379 33.6549 39.3472 35.2258 40.8586V41.6562C35.2258 41.995 35.0228 42.2995 34.7092 42.4303L31.0323 43.9626V31.871C31.0323 27.7085 34.419 24.3226 38.5806 24.3226C42.7423 24.3226 46.129 27.7085 46.129 31.871ZM41.4172 45.2903H35.7441L35.1344 44.07L35.355 43.9786C36.1635 43.6423 36.7221 42.9218 36.8655 42.0797C37.3217 42.3381 37.804 42.5603 38.3165 42.7314L38.5806 42.8195L38.8457 42.7314C39.3573 42.5612 39.8396 42.3381 40.2966 42.0797C40.4392 42.9218 40.9986 43.6423 41.8063 43.9786L42.0269 44.0708L41.4172 45.2903ZM40.5784 46.9677L38.901 50.3226H38.2603L36.5828 46.9677H40.5784ZM38.5806 41.0448C36.0612 40.0836 34.3871 37.6706 34.3871 34.9532V32.4748L38.5806 31.0767L42.7742 32.4748V34.9532C42.7742 37.6706 41.1001 40.0836 38.5806 41.0448ZM22.6452 19.2903V17.6129H29.3548V19.2903H22.6452ZM25.5135 10.9032H26.4865L26.0671 15.9355H25.9329L25.5135 10.9032ZM18.4516 9.22581C18.4516 5.06329 21.8383 1.67742 26 1.67742C30.1617 1.67742 33.5484 5.06329 33.5484 9.22581C33.5484 11.9281 32.1016 14.5902 29.9386 15.9355H27.7504L28.1697 10.9032H29.3548C30.7421 10.9032 31.871 9.77432 31.871 8.3871C31.871 6.99987 30.7421 5.87097 29.3548 5.87097H29.2206C27.9223 5.87097 26.8211 6.88413 26.7129 8.17826L26.6265 9.22581H25.3743L25.2871 8.17826C25.1789 6.88413 24.0777 5.87097 22.7794 5.87097H22.6452C21.2579 5.87097 20.129 6.99987 20.129 8.3871C20.129 9.77432 21.2579 10.9032 22.6452 10.9032H23.8303L24.2496 15.9355H22.0614C19.8984 14.5902 18.4516 11.9281 18.4516 9.22581ZM28.309 9.22581L28.3844 8.31748C28.4214 7.88555 28.7879 7.54839 29.2206 7.54839H29.3548C29.817 7.54839 30.1935 7.92413 30.1935 8.3871C30.1935 8.85006 29.817 9.22581 29.3548 9.22581H28.309ZM23.691 9.22581H22.6452C22.183 9.22581 21.8065 8.85006 21.8065 8.3871C21.8065 7.92413 22.183 7.54839 22.6452 7.54839H22.7794C23.2121 7.54839 23.5795 7.88555 23.6155 8.31748L23.691 9.22581ZM27.6774 20.9677V21.5272C27.6774 21.9834 27.8049 22.4145 28.0238 22.7903L26 24.8141L23.9762 22.7903C24.1951 22.4145 24.3226 21.9834 24.3226 21.5272V20.9677H27.6774ZM22.6963 23.8814L26 27.1859L29.3037 23.8814L32.3012 25.1303C30.883 26.4521 29.8807 28.21 29.5142 30.1927H22.5806C22.3424 28.163 21.3913 26.3523 19.9839 25.0112L22.6963 23.8814ZM5.87097 33.5484V30.2967C5.87097 28.6461 6.98897 27.2136 8.5909 26.8135L8.81652 26.7582L9.23839 26.3355C10.5359 25.038 12.2619 24.3226 14.097 24.3226C17.8855 24.3226 20.9677 27.4048 20.9677 31.1933V33.5484C20.9677 35.4539 20.0435 37.159 18.6009 38.2384C19.0446 37.2244 19.2903 36.1123 19.2903 34.9541V31.0323H17.4695C16.1636 31.0323 14.9357 30.524 14.0123 29.6006L13.4194 29.0076L12.8264 29.6006C11.903 30.524 10.6751 31.0323 9.36923 31.0323H7.54839V34.9541C7.54839 36.1123 7.79413 37.2244 8.23781 38.2384C6.79523 37.1599 5.87097 35.4548 5.87097 33.5484ZM16.723 44.0104L17.1726 44.1975L16.3028 47.2428L14.6967 46.0376L16.723 44.0104ZM15.4432 42.9193L13.4194 44.9431L11.3955 42.9193C11.5457 42.6618 11.6522 42.38 11.7034 42.0797C12.1596 42.3381 12.6419 42.5603 13.1543 42.7314L13.4194 42.8195L13.6844 42.7314C14.196 42.5612 14.6783 42.3381 15.1354 42.0797C15.1865 42.38 15.293 42.6618 15.4432 42.9193ZM17.6129 34.9541C17.6129 37.6706 15.9388 40.0836 13.4194 41.0456C10.8999 40.0844 9.22581 37.6715 9.22581 34.9541V32.7097H9.36923C10.8563 32.7097 12.2678 32.2182 13.4194 31.3132C14.5709 32.2182 15.9825 32.7097 17.4695 32.7097H17.6129V34.9541ZM12.1428 46.0384L10.5367 47.2437L9.66613 44.1983L10.1157 44.0113L12.1428 46.0384ZM1.742 50.3226C2.028 48.4632 3.25671 46.8688 5.03226 46.129L8.10781 44.8475L9.59316 50.0475L13.4194 47.1774L17.2455 50.0475L18.7309 44.8475L21.8065 46.129C23.582 46.8688 24.8107 48.4632 25.0967 50.3226H1.742ZM22.4523 44.5808L17.2908 42.4303C16.9772 42.2995 16.7742 41.995 16.7742 41.6562V40.9022C20.1936 40.1264 22.6452 37.0886 22.6452 33.5484V31.871H29.3548V44.6789C27.8846 45.344 26.7238 46.4628 26 47.8324C25.2435 46.4008 24.0173 45.2324 22.4523 44.5808ZM30.1935 46.129L33.5819 44.7166L36.3849 50.3226H26.9033C27.1893 48.4632 28.418 46.8688 30.1935 46.129ZM40.7764 50.3226L43.5794 44.7166L46.9677 46.129C48.7433 46.8688 49.972 48.4632 50.258 50.3226H40.7764Z" fill="#048DEF" stroke="#048DEF" stroke-width="2" mask="url(#path-1-inside-1_297_11)"></path><path d="M37.4023 8.88672H41.4346V9.56414H37.4023V8.88672Z" fill="#048DEF" stroke="#048DEF"></path><path d="M35.7025 3.22792L39.1945 1.21179L39.5332 1.79844L36.0412 3.81457L35.7025 3.22792Z" fill="#048DEF" stroke="#048DEF"></path><path d="M12.4603 1.80138L12.7991 1.21473L16.291 3.23086L15.9523 3.8175L12.4603 1.80138Z" fill="#048DEF" stroke="#048DEF"></path><path d="M10.5625 8.88672H14.5948V9.56414H10.5625V8.88672Z" fill="#048DEF" stroke="#048DEF"></path><path d="M12.4603 16.6498L15.9523 14.6337L16.291 15.2203L12.7991 17.2364L12.4603 16.6498Z" fill="#048DEF" stroke="#048DEF"></path><path d="M35.7064 15.2213L36.0451 14.6347L39.5371 16.6508L39.1984 17.2374L35.7064 15.2213Z" fill="#048DEF" stroke="#048DEF"></path></svg>