<svg xmlns="http://www.w3.org/2000/svg" width="48" height="54" viewBox="0 0 48 54" fill="none"><path d="M32.9228 22.5503C33.8226 21.6597 34.381 20.425 34.381 19.062C34.381 16.3548 32.1781 14.1523 29.4703 14.1523C27.3838 14.1523 25.5344 15.4751 24.8439 17.4133C24.5545 17.3599 24.2568 17.3306 23.9521 17.3306C23.6474 17.3306 23.3497 17.3599 23.0602 17.4133C22.3697 15.475 20.5202 14.1523 18.4338 14.1523C15.7261 14.1523 13.5231 16.3548 13.5231 19.062C13.5231 20.425 14.0817 21.6597 14.9814 22.5503C12.8231 23.7797 11.4336 26.1079 11.4336 28.64C11.4336 29.0769 11.7878 29.431 12.2246 29.431C12.6615 29.431 13.0157 29.0769 13.0157 28.64C13.0157 26.4037 14.4158 24.3729 16.5026 23.5765C17.0958 23.8312 17.7486 23.9728 18.4339 23.9728C18.7358 23.9728 19.0347 23.9436 19.3273 23.8896C19.5773 24.589 19.9813 25.2155 20.4987 25.7281C18.3207 26.9613 16.9521 29.2723 16.9521 31.8185C16.9521 32.2555 17.3062 32.6096 17.7431 32.6096C18.1799 32.6096 18.5341 32.2555 18.5341 31.8185C18.5341 29.636 19.8331 27.6763 21.8434 26.826C21.8972 26.8032 21.9468 26.7748 21.9926 26.7424C22.5933 27.0049 23.2557 27.1515 23.9521 27.1515C24.6376 27.1515 25.2905 27.0099 25.8837 26.7551C27.9696 27.5515 29.37 29.5843 29.37 31.8185C29.37 32.2555 29.7242 32.6096 30.161 32.6096C30.5979 32.6096 30.9521 32.2555 30.9521 31.8185C30.9521 29.2888 29.5623 26.9587 27.4045 25.7288C27.9224 25.2162 28.3267 24.5893 28.5769 23.8896C28.8695 23.9436 29.1683 23.9728 29.4702 23.9728C30.1556 23.9728 30.8083 23.8312 31.4014 23.5765C33.4882 24.3729 34.8884 26.4034 34.8884 28.64C34.8884 29.0769 35.2425 29.431 35.6794 29.431C36.1162 29.431 36.4704 29.0769 36.4704 28.64C36.4706 26.1078 35.0812 23.7797 32.9228 22.5503ZM19.0417 22.2411C19.0417 22.2722 19.0435 22.3028 19.0441 22.3337C18.8448 22.3709 18.6407 22.3907 18.4339 22.3907C16.5985 22.3907 15.1053 20.8975 15.1053 19.062C15.1053 17.2272 16.5985 15.7344 18.4339 15.7344C19.85 15.7344 21.1043 16.6329 21.5712 17.9486C20.064 18.7879 19.0417 20.3971 19.0417 22.2411ZM20.6238 22.2411C20.6238 20.4059 22.1169 18.9128 23.9522 18.9128C25.7875 18.9128 27.2805 20.4058 27.2805 22.2411C27.2805 24.0764 25.7875 25.5695 23.9522 25.5695C22.1169 25.5695 20.6238 24.0763 20.6238 22.2411ZM28.8602 22.3337C28.8607 22.3028 28.8625 22.2721 28.8625 22.2411C28.8625 20.3971 27.8403 18.788 26.3331 17.9487C26.7999 16.633 28.0543 15.7345 29.4703 15.7345C31.3057 15.7345 32.799 17.2272 32.799 19.0621C32.799 20.8975 31.3057 22.3908 29.4703 22.3908C29.2635 22.3907 29.0594 22.3709 28.8602 22.3337Z" fill="#048DEF"></path><path d="M44.4396 34.1871V19.8085C46.4114 19.4364 47.9078 17.7021 47.9078 15.6237C47.9078 13.2749 45.997 11.3641 43.6481 11.3641C42.3573 11.3641 41.1995 11.9421 40.4178 12.8519L27.9736 5.66664C28.1283 5.22588 28.2135 4.75253 28.2135 4.25945C28.2135 1.91082 26.3027 0 23.954 0C21.6052 0 19.6943 1.91082 19.6943 4.25955C19.6943 4.75263 19.7794 5.22588 19.9342 5.66675L7.49003 12.8519C6.70828 11.9421 5.55052 11.3641 4.25966 11.3641C1.91082 11.3641 0 13.2749 0 15.6237C0 17.7021 1.49642 19.4363 3.46821 19.8085V34.1871C1.49642 34.5592 0 36.2935 0 38.3719C0 40.7207 1.91082 42.6315 4.25966 42.6315C5.54852 42.6315 6.70458 42.0553 7.48634 41.1481L19.9341 48.3345C19.7794 48.7752 19.6943 49.2485 19.6943 49.7413C19.6943 52.0902 21.6051 54.001 23.954 54.001C26.3028 54.001 28.2136 52.0902 28.2136 49.7413C28.2136 49.2485 28.1285 48.7752 27.9738 48.3345L40.4216 41.1481C41.2033 42.0554 42.3594 42.6315 43.6483 42.6315C45.9971 42.6315 47.9079 40.7207 47.9079 38.3719C47.9078 36.2934 46.4113 34.5592 44.4396 34.1871ZM43.6481 12.9462C45.1245 12.9462 46.3257 14.1474 46.3257 15.6237C46.3257 17.1001 45.1245 18.3013 43.6481 18.3013C42.1718 18.3013 40.9706 17.1001 40.9706 15.6237C40.9706 14.1474 42.1718 12.9462 43.6481 12.9462ZM23.954 1.58207C25.4303 1.58207 26.6315 2.78317 26.6315 4.25955C26.6315 5.73457 25.4326 6.93483 23.9581 6.93704C23.9567 6.93704 23.9553 6.93683 23.954 6.93683C23.9526 6.93683 23.9512 6.93704 23.9498 6.93704C22.4754 6.93483 21.2764 5.73457 21.2764 4.25955C21.2764 2.78317 22.4775 1.58207 23.954 1.58207ZM1.58207 15.6237C1.58207 14.1474 2.78328 12.9462 4.25966 12.9462C5.73604 12.9462 6.93725 14.1474 6.93725 15.6237C6.93725 17.1001 5.73604 18.3013 4.25966 18.3013C2.78328 18.3013 1.58207 17.1001 1.58207 15.6237ZM4.25966 41.0493C2.78328 41.0493 1.58207 39.8481 1.58207 38.3717C1.58207 36.8954 2.78328 35.6942 4.25966 35.6942C5.73604 35.6942 6.93725 36.8954 6.93725 38.3717C6.93725 39.8481 5.73604 41.0493 4.25966 41.0493ZM23.954 52.4188C22.4776 52.4188 21.2764 51.2176 21.2764 49.7412C21.2764 48.2648 22.4776 47.0636 23.954 47.0636C25.4303 47.0636 26.6315 48.2648 26.6315 49.7412C26.6315 51.2176 25.4303 52.4188 23.954 52.4188ZM27.1808 46.9654C26.5631 46.2482 25.7114 45.7387 24.7449 45.5564V42.509C24.7449 42.072 24.3907 41.7179 23.9539 41.7179C23.517 41.7179 23.1628 42.072 23.1628 42.509V45.5564C22.1964 45.7388 21.3447 46.2482 20.7269 46.9654L8.27927 39.779C8.4341 39.3382 8.51921 38.8649 8.51921 38.3719C8.51921 37.8784 8.43389 37.4046 8.27885 36.9634L10.9188 35.4388C11.2971 35.2203 11.4266 34.7365 11.2082 34.3582C10.9898 33.9798 10.506 33.8504 10.1275 34.0687L7.48528 35.5947C6.86754 34.8781 6.01617 34.3691 5.05017 34.187V19.8086C6.01649 19.6265 6.86806 19.1172 7.48581 18.4003L10.1317 19.9282C10.2562 20.0002 10.3923 20.0343 10.5265 20.0343C10.7998 20.0343 11.0657 19.8925 11.2122 19.6388C11.4307 19.2605 11.3011 18.7766 10.9228 18.5582L8.27895 17.0314C8.43378 16.5904 8.519 16.1169 8.519 15.6237C8.519 15.1327 8.43452 14.6612 8.28085 14.2219L20.7269 7.03566C21.3446 7.75265 22.1962 8.26208 23.1625 8.44433V11.4921C23.1625 11.9291 23.5167 12.2832 23.9535 12.2832C24.3904 12.2832 24.7446 11.9291 24.7446 11.4921V8.44433C25.7109 8.26208 26.5625 7.75265 27.1802 7.03566L39.6262 14.2219C39.4727 14.6612 39.3881 15.1327 39.3881 15.6237C39.3881 16.1169 39.4733 16.5904 39.6281 17.0314L36.9843 18.5582C36.6059 18.7766 36.4763 19.2605 36.6949 19.6388C36.8414 19.8925 37.1073 20.0343 37.3805 20.0343C37.5147 20.0343 37.6508 20.0002 37.7754 19.9282L40.4213 18.4003C41.0391 19.1172 41.8907 19.6265 42.8569 19.8086V34.187C41.8909 34.3691 41.0396 34.8781 40.4218 35.5947L37.7795 34.0687C37.4012 33.8506 36.9174 33.9798 36.6989 34.3582C36.4803 34.7365 36.61 35.2203 36.9883 35.4388L39.6282 36.9634C39.4732 37.4046 39.3879 37.8784 39.3879 38.3719C39.3879 38.8649 39.473 39.3383 39.6278 39.779L27.1808 46.9654ZM43.6481 41.0493C42.1718 41.0493 40.9706 39.8481 40.9706 38.3717C40.9706 36.8954 42.1718 35.6942 43.6481 35.6942C45.1245 35.6942 46.3257 36.8954 46.3257 38.3717C46.3257 39.8481 45.1245 41.0493 43.6481 41.0493Z" fill="#048DEF"></path><path d="M30.5787 35.1738H28.2246C27.7878 35.1738 27.4336 35.5279 27.4336 35.9649C27.4336 36.4018 27.7878 36.7559 28.2246 36.7559H30.5787C31.0156 36.7559 31.3697 36.4018 31.3697 35.9649C31.3697 35.5279 31.0156 35.1738 30.5787 35.1738Z" fill="#048DEF"></path><path d="M30.5811 38.2715H17.3301C16.8932 38.2715 16.5391 38.6255 16.5391 39.0625C16.5391 39.4995 16.8932 39.8535 17.3301 39.8535H30.5812C31.018 39.8535 31.3722 39.4995 31.3722 39.0625C31.3722 38.6255 31.0179 38.2715 30.5811 38.2715Z" fill="#048DEF"></path><path d="M17.3301 36.7559H17.3411C17.7779 36.7559 18.1321 36.4018 18.1321 35.9649C18.1321 35.5279 17.7779 35.1738 17.3411 35.1738H17.3301C16.8932 35.1738 16.5391 35.5279 16.5391 35.9649C16.5391 36.4018 16.8932 36.7559 17.3301 36.7559Z" fill="#048DEF"></path><path d="M20.0793 36.7559C20.5162 36.7559 20.8704 36.4018 20.8704 35.9649C20.8704 35.5279 20.5162 35.1738 20.0793 35.1738H20.0684C19.6315 35.1738 19.2773 35.5279 19.2773 35.9649C19.2773 36.4018 19.6315 36.7559 20.0684 36.7559H20.0793Z" fill="#048DEF"></path><path d="M22.8176 36.7559C23.2545 36.7559 23.6087 36.4018 23.6087 35.9649C23.6087 35.5279 23.2545 35.1738 22.8176 35.1738H22.8067C22.3698 35.1738 22.0156 35.5279 22.0156 35.9649C22.0156 36.4018 22.3698 36.7559 22.8067 36.7559H22.8176Z" fill="#048DEF"></path></svg>