<svg xmlns="http://www.w3.org/2000/svg" width="49" height="53" viewBox="0 0 49 53" fill="none"><path d="M34.7967 26.086C34.6578 25.7661 34.5623 25.4287 34.5126 25.0833C34.3835 24.1858 34.1353 23.3081 33.7752 22.4744C33.6052 22.0811 33.1488 21.8996 32.7549 22.0698C32.3613 22.2398 32.1802 22.6966 32.3502 23.0901C32.6559 23.7977 32.8665 24.5427 32.9761 25.3043C33.0456 25.7864 33.179 26.2573 33.3726 26.7037L35.0574 30.5887C35.769 32.2294 35.5417 34.0543 34.4495 35.4705C33.5189 36.677 32.1415 37.3488 30.6613 37.3544C31.0903 36.4505 31.3314 35.4407 31.3314 34.3754V27.2326C31.3314 26.367 30.6534 25.6709 29.7878 25.648L25.3965 25.5323C23.8989 25.4928 22.4343 24.9504 21.2723 24.0051L20.9833 23.7699C20.7136 23.5504 20.3748 23.4502 20.0289 23.4868C19.6832 23.5238 19.3731 23.6936 19.1559 23.9651C18.0166 25.3886 17.3891 27.1765 17.3891 28.9997V34.3754C17.3891 35.4407 17.6301 36.4504 18.0592 37.3544C16.5791 37.3489 15.2016 36.6771 14.2711 35.4705C13.1788 34.0543 12.9515 32.2295 13.6631 30.5887L15.3479 26.7038C15.5415 26.2573 15.6749 25.7864 15.7444 25.3043C16.0425 23.2323 17.0781 21.336 18.6603 19.9652C20.2424 18.5944 22.2668 17.8394 24.3601 17.8394C26.7259 17.8394 28.9396 18.7732 30.5934 20.4689C30.8926 20.776 31.3841 20.7818 31.6909 20.4827C31.9977 20.1835 32.004 19.6919 31.7047 19.3852C29.7563 17.3873 27.1479 16.2871 24.36 16.2871C21.8933 16.2871 19.508 17.1767 17.6437 18.792C15.7794 20.4072 14.5591 22.6416 14.2078 25.0832C14.1581 25.4287 14.0626 25.7661 13.9237 26.086L12.2389 29.971C11.2991 32.1379 11.5992 34.5482 13.0418 36.4185C14.2759 38.0185 16.1041 38.9101 18.0683 38.91C18.38 38.91 18.6957 38.8867 19.0124 38.841C19.56 39.4956 20.2253 40.048 20.9754 40.4665V41.9644L17.0069 43.5565C14.2264 44.6721 12.4297 47.329 12.4297 50.325V52.2219C12.4297 52.6506 12.7771 52.998 13.2059 52.998C13.6346 52.998 13.982 52.6506 13.982 52.2219V50.325C13.982 47.9667 15.3963 45.8754 17.585 44.9973L21.1572 43.5642C21.6033 44.847 22.8238 45.7704 24.2567 45.7704C25.6895 45.7704 26.91 44.8469 27.3562 43.5642L30.9287 44.9975C31.0225 45.035 31.1215 45.0786 31.2405 45.1346C31.3473 45.1848 31.4597 45.2086 31.5704 45.2086C31.8618 45.2086 32.1411 45.0437 32.2733 44.7626C32.4558 44.3747 32.2892 43.9123 31.9013 43.7298C31.7542 43.6607 31.6287 43.6057 31.5065 43.5566L27.538 41.9644V40.5767C28.3728 40.1472 29.1106 39.5552 29.7079 38.841C30.0248 38.8868 30.3402 38.91 30.6521 38.91C32.6162 38.91 34.4446 38.0184 35.6785 36.4185C37.1211 34.5483 37.4213 32.138 36.4815 29.971L34.7967 26.086ZM25.9856 42.4894C25.9856 43.4427 25.2101 44.2182 24.2568 44.2182C23.3034 44.2182 22.5279 43.4427 22.5279 42.4894V41.1003C23.1122 41.2597 23.7262 41.3464 24.3602 41.3464C24.9199 41.3464 25.4637 41.2783 25.9856 41.1531V42.4894ZM24.3602 39.794C21.3724 39.794 18.9416 37.3633 18.9416 34.3755V28.9998C18.9416 27.6147 19.3901 26.2549 20.2094 25.1416L20.2927 25.2094C21.7192 26.3699 23.5172 27.0356 25.3556 27.0841L29.7469 27.1998C29.765 27.2004 29.7791 27.2148 29.7791 27.2327V34.3755C29.7789 37.3633 27.3481 39.794 24.3602 39.794Z" fill="#048DEF"></path><path d="M33.6598 45.928C33.3099 46.1756 33.2271 46.66 33.4748 47.0098C34.1658 47.986 34.531 49.1328 34.531 50.3264V52.2232C34.531 52.652 34.8784 52.9994 35.3072 52.9994C35.7359 52.9994 36.0834 52.652 36.0834 52.2232V50.3264C36.0834 48.8097 35.6195 47.3528 34.7417 46.113C34.4941 45.763 34.0096 45.6802 33.6598 45.928Z" fill="#048DEF"></path><path d="M9.68729 11.624C7.9583 10.4425 5.79558 10.2214 3.75333 11.0181C2.2636 11.5991 1.07255 12.7826 0.485142 14.265C0.102956 15.2298 -0.0547613 16.2165 0.0167497 17.1977C0.0480035 17.6252 0.418494 17.9468 0.84725 17.9155C1.27476 17.8843 1.5961 17.5125 1.56505 17.085C1.51072 16.3389 1.63294 15.5825 1.9284 14.8369C2.35747 13.754 3.22833 12.8893 4.31755 12.4644C5.87444 11.8571 7.51257 12.0179 8.81157 12.9057C10.0812 13.7731 10.839 15.2076 10.839 16.7427C10.839 17.7062 10.5467 18.63 9.99362 19.4145C9.9872 19.4236 9.98099 19.4329 9.97489 19.4423L7.36707 23.5021C7.28676 23.6274 7.24402 23.7729 7.24402 23.9217V24.2752H6.97174V20.3895C7.76012 20.3187 8.38022 19.6551 8.38022 18.8486V17.575C8.38022 16.7215 7.68581 16.0271 6.83234 16.0271H5.5587C4.70522 16.0271 4.01081 16.7215 4.01081 17.575V18.8486C4.01081 19.655 4.63102 20.3187 5.4193 20.3895V24.2753H5.14702V23.9218C5.14702 23.773 5.10428 23.6275 5.02397 23.5022L2.65076 19.8076C2.41915 19.4469 1.93896 19.3424 1.57819 19.574C1.21764 19.8056 1.11301 20.2859 1.34462 20.6466L3.59468 24.1496V24.7056C3.59468 24.9276 3.66029 25.1342 3.77196 25.3085V26.1122C3.77196 27.3608 4.78781 28.3768 6.03661 28.3768H6.35432C7.60302 28.3768 8.61897 27.3609 8.61897 26.1122V25.3085C8.73064 25.1342 8.79625 24.9276 8.79625 24.7056V24.1496L11.2722 20.2949C12.0043 19.2503 12.3913 18.0224 12.3913 16.7428C12.3913 14.6945 11.3805 12.781 9.68729 11.624ZM6.82778 17.575L6.83275 18.8442L6.23676 18.8463C6.22299 18.8455 6.20933 18.8442 6.19536 18.8442C6.17932 18.8442 6.16359 18.8456 6.14786 18.8466L5.56304 18.8486L5.55859 17.5794L6.82778 17.575ZM7.06664 26.1121C7.06664 26.5049 6.74706 26.8243 6.35432 26.8243H6.03661C5.64387 26.8243 5.32429 26.5049 5.32429 26.1121V25.8275H7.06664V26.1121Z" fill="#048DEF"></path><path d="M24.2579 13.7813C28.0575 13.7813 31.1486 10.6902 31.1486 6.89062C31.1486 3.09112 28.0575 0 24.2579 0C20.4583 0 17.3672 3.09112 17.3672 6.89062C17.3672 10.6902 20.4583 13.7813 24.2579 13.7813ZM24.2579 1.55234C27.2015 1.55234 29.5963 3.94708 29.5963 6.89062C29.5963 9.83416 27.2015 12.229 24.2579 12.229C21.3144 12.229 18.9195 9.83416 18.9195 6.89062C18.9195 3.94708 21.3144 1.55234 24.2579 1.55234Z" fill="#048DEF"></path><path d="M22.892 9.48227C23.0435 9.63378 23.2422 9.70954 23.4408 9.70954C23.6394 9.70954 23.8381 9.63378 23.9897 9.48227L27.6157 5.85622C27.9189 5.553 27.9189 5.06163 27.6157 4.75851C27.3125 4.4555 26.8212 4.4555 26.518 4.75851L23.4409 7.83576L22.9187 7.31366C22.6157 7.01064 22.1242 7.01054 21.8211 7.31376C21.518 7.61688 21.518 8.10835 21.8212 8.41137L22.892 9.48227Z" fill="#048DEF"></path><path d="M48.6642 15.438C48.5207 14.9962 48.1461 14.6804 47.6865 14.6136L44.4609 14.1449L43.0183 11.2218C42.8128 10.8055 42.3967 10.5469 41.9324 10.5469C41.4683 10.5469 41.0521 10.8055 40.8466 11.2218L39.404 14.1449L36.1782 14.6136C35.7187 14.6804 35.3441 14.9962 35.2008 15.4379C35.0573 15.8795 35.1748 16.355 35.5072 16.679L37.8414 18.9542L37.2903 22.1671C37.212 22.6247 37.3966 23.0785 37.7722 23.3513C38.1477 23.6243 38.6363 23.6596 39.0473 23.4435L41.9325 21.9266L44.8178 23.4435C44.9965 23.5375 45.1899 23.5838 45.3823 23.5838C45.6324 23.5838 45.8807 23.5054 46.0931 23.3512C46.4687 23.0782 46.6532 22.6245 46.5746 22.1669L46.0237 18.9543L48.3576 16.6791C48.6901 16.3551 48.8076 15.8795 48.6642 15.438ZM44.8115 17.9678C44.5261 18.2459 44.3958 18.6467 44.4631 19.0397L44.9275 21.7475L42.4959 20.4691C42.3195 20.3764 42.1259 20.3299 41.9324 20.3299C41.7389 20.3299 41.5453 20.3763 41.3688 20.469L38.9371 21.7475L39.4016 19.0395C39.4689 18.6466 39.3387 18.2458 39.0533 17.9679L37.086 16.0503L39.805 15.6553C40.1995 15.5978 40.5403 15.3501 40.7164 14.9929L41.9323 12.5292L43.148 14.9925C43.3242 15.35 43.6651 15.5978 44.0599 15.6552L46.7786 16.0502L44.8115 17.9678Z" fill="#048DEF"></path><path d="M32.4865 9.95661C33.6709 10.4186 34.8185 10.9845 35.9117 11.6415C35.5699 11.802 35.3871 12.1917 35.4981 12.5645C35.5985 12.9014 35.9072 13.1192 36.2417 13.1192C36.3151 13.1192 36.3897 13.1087 36.4637 13.0867L37.934 12.6488C38.263 12.5509 38.4885 12.2483 38.4885 11.9049V10.3145C38.4885 9.88572 38.1411 9.5383 37.7124 9.5383C37.2836 9.5383 36.9362 9.88572 36.9362 10.3145V10.4486C35.701 9.68764 34.3982 9.03607 33.0506 8.51035C32.6512 8.35449 32.2013 8.55195 32.0454 8.95142C31.8898 9.35078 32.0871 9.80075 32.4865 9.95661Z" fill="#048DEF"></path><path d="M12.0035 11.8672C12.1421 11.8672 12.2824 11.8301 12.4091 11.7523C13.1337 11.3071 13.8882 10.9012 14.6593 10.54L14.619 10.6911C14.5082 11.1052 14.7542 11.5306 15.1684 11.6414C15.2355 11.6593 15.3029 11.6679 15.3693 11.6679C15.712 11.6679 16.0259 11.4389 16.1186 11.092L16.5926 9.31842C16.6982 8.92382 16.4796 8.51483 16.0929 8.3833L14.6705 7.89917C14.265 7.76071 13.8238 7.97793 13.6857 8.38392C13.5858 8.67721 13.6721 8.98819 13.8806 9.19062C13.0984 9.56225 12.333 9.97724 11.5966 10.4297C11.2314 10.6542 11.1171 11.1321 11.3415 11.4973C11.488 11.7357 11.7427 11.8672 12.0035 11.8672Z" fill="#048DEF"></path></svg>