<svg xmlns="http://www.w3.org/2000/svg" width="54" height="54" viewBox="0 0 54 54" fill="none"><path d="M10.4321 5.20117C7.56341 5.20117 5.23047 7.53411 5.23047 10.4028C5.23047 13.2715 7.56341 15.6045 10.4321 15.6045C13.3008 15.6045 15.6338 13.2715 15.6338 10.4028C15.6338 7.53411 13.3008 5.20117 10.4321 5.20117ZM10.4321 13.8706C8.51964 13.8706 6.96435 12.3153 6.96435 10.4028C6.96435 8.49035 8.51964 6.93505 10.4321 6.93505C12.3446 6.93505 13.8999 8.49035 13.8999 10.4028C13.8999 12.3153 12.3446 13.8706 10.4321 13.8706Z" fill="#0369CA"></path><path d="M49.1609 41.3294L47.935 40.1035L41.6124 46.4261L40.4915 45.3052L39.2656 46.531L41.6124 48.8778L49.1609 41.3294Z" fill="#0369CA"></path><path d="M29.4766 9.50586H31.2104V11.2397H29.4766V9.50586Z" fill="#0369CA"></path><path d="M39.8789 9.50586H41.6128V11.2397H39.8789V9.50586Z" fill="#0369CA"></path><path d="M36.4102 9.50586H38.144V11.2397H36.4102V9.50586Z" fill="#0369CA"></path><path d="M32.9453 9.50586H34.6792V11.2397H32.9453V9.50586Z" fill="#0369CA"></path><path d="M19.9396 31.1795H33.8107C35.2446 31.1795 36.4115 30.0126 36.4115 28.5787V27.7118H47.6818C51.0273 27.7118 53.7503 24.9896 53.7503 21.6432V15.5746C53.7503 12.2282 51.0273 9.50601 47.6818 9.50601H45.0809V8.63907C45.0809 7.20515 43.914 6.03824 42.4801 6.03824H28.6091C27.1751 6.03824 26.0082 7.20515 26.0082 8.63907V9.50601H20.8369V8.00793L18.5612 7.38634C18.4867 7.18694 18.4034 6.98841 18.3133 6.79248L19.4845 4.7413L16.0965 1.35329L14.0462 2.52367C13.8494 2.4335 13.6517 2.35028 13.4523 2.27572L12.8299 0H8.03828L7.41581 2.27572C7.21642 2.35028 7.01875 2.43264 6.82283 2.52367L4.77164 1.35329L1.38364 4.7413L2.55401 6.79248C2.46385 6.98841 2.38062 7.18694 2.30606 7.38634L0.0303429 8.00793V12.7987L2.30606 13.4211C2.38062 13.6205 2.46385 13.819 2.55401 14.015L1.38277 16.0662L4.77078 19.4533L6.82196 18.2829C7.01789 18.3731 7.21555 18.4563 7.41495 18.5309L8.03741 20.8066H12.829L13.4515 18.5309C13.65 18.4563 13.8485 18.3731 14.0453 18.2829L16.0956 19.4524L19.4836 16.0653L18.3124 14.0141C18.4026 13.8182 18.4858 13.6196 18.5603 13.4202L20.8361 12.7978V11.2399H26.0082V12.1068C26.0082 13.5408 27.1751 14.7077 28.6091 14.7077H42.4801C43.914 14.7077 45.0809 13.5408 45.0809 12.1068V11.2399H47.6818C50.0719 11.2399 52.0165 13.1844 52.0165 15.5746V21.6432C52.0165 24.0333 50.0719 25.9779 47.6818 25.9779H36.4115V25.1109C36.4115 23.677 35.2446 22.5101 33.8107 22.5101H19.9396C18.5057 22.5101 17.3388 23.677 17.3388 25.1109V25.9779H6.06859C2.72306 25.9779 0 28.701 0 32.0465V38.982C0 42.3275 2.72306 45.0506 6.06859 45.0506H8.66941V45.9175C8.66941 47.3515 9.83631 48.5184 11.2702 48.5184H25.1413C26.5752 48.5184 27.7421 47.3515 27.7421 45.9175V45.0506H34.7219C35.1614 49.9037 39.2482 53.72 44.214 53.72C49.472 53.72 53.7503 49.4416 53.7503 44.1837C53.7503 38.9257 49.472 34.6473 44.214 34.6473C39.2482 34.6473 35.1614 38.4636 34.7219 43.3167H27.7421V42.4498C27.7421 41.0158 26.5752 39.8489 25.1413 39.8489H11.2702C9.83631 39.8489 8.66941 41.0158 8.66941 42.4498V43.3167H6.06859C3.67843 43.3167 1.73388 41.3722 1.73388 38.982V32.0465C1.73388 29.6563 3.67843 27.7118 6.06859 27.7118H17.3388V28.5787C17.3388 30.0126 18.5057 31.1795 19.9396 31.1795ZM19.103 11.4757L17.2018 11.9959L17.0623 12.451C16.9374 12.8524 16.771 13.2521 16.5664 13.6387L16.3427 14.0601L17.3223 15.7757L15.8069 17.292L14.0904 16.3132L13.6699 16.536C13.2841 16.7406 12.8845 16.9071 12.4822 17.0311L12.0279 17.1715L11.5069 19.0727H9.36296L8.84193 17.1715L8.38765 17.0311C7.98713 16.9071 7.58747 16.7415 7.19995 16.536L6.77861 16.3132L5.06294 17.292L3.54579 15.7757L4.52543 14.0601L4.30176 13.6387C4.09716 13.2521 3.92984 12.8524 3.80587 12.451L3.66629 11.9959L1.76509 11.4757V9.33089L3.66629 8.81159L3.80674 8.35644C3.93071 7.95505 4.09716 7.55539 4.30176 7.1696L4.52543 6.7474L3.54579 5.03173L5.0612 3.51545L6.77688 4.49422L7.19821 4.27142C7.58747 4.06595 7.98713 3.89863 8.38592 3.77553L8.8402 3.63508L9.36123 1.73388H11.5052L12.0262 3.63508L12.4805 3.77553C12.881 3.8995 13.2807 4.06595 13.6682 4.27142L14.0887 4.49422L15.8052 3.51545L17.3206 5.03173L16.341 6.7474L16.5646 7.16874C16.7692 7.55452 16.9366 7.95418 17.0597 8.35558L17.2001 8.81072L19.1013 9.33002V11.4757H19.103ZM43.3471 12.1068C43.3471 12.5845 42.9587 12.9738 42.4801 12.9738H28.6091C28.1305 12.9738 27.7421 12.5845 27.7421 12.1068V8.63907C27.7421 8.16138 28.1305 7.77213 28.6091 7.77213H42.4801C42.9587 7.77213 43.3471 8.16138 43.3471 8.63907V12.1068ZM44.214 36.3812C48.5166 36.3812 52.0165 39.881 52.0165 44.1837C52.0165 48.4863 48.5166 51.9861 44.214 51.9861C39.9114 51.9861 36.4115 48.4863 36.4115 44.1837C36.4115 39.881 39.9114 36.3812 44.214 36.3812ZM10.4033 42.4498C10.4033 41.9712 10.7917 41.5828 11.2702 41.5828H25.1413C25.6198 41.5828 26.0082 41.9712 26.0082 42.4498V45.9175C26.0082 46.3961 25.6198 46.7845 25.1413 46.7845H11.2702C10.7917 46.7845 10.4033 46.3961 10.4033 45.9175V42.4498ZM19.0727 25.1109C19.0727 24.6333 19.4611 24.244 19.9396 24.244H33.8107C34.2893 24.244 34.6776 24.6333 34.6776 25.1109V28.5787C34.6776 29.0573 34.2893 29.4457 33.8107 29.4457H19.9396C19.4611 29.4457 19.0727 29.0573 19.0727 28.5787V25.1109Z" fill="#0369CA"></path><path d="M27.7422 25.9785H29.4761V27.7124H27.7422V25.9785Z" fill="#0369CA"></path><path d="M24.2734 25.9785H26.0073V27.7124H24.2734V25.9785Z" fill="#0369CA"></path><path d="M20.8047 25.9785H22.5386V27.7124H20.8047V25.9785Z" fill="#0369CA"></path><path d="M31.2109 25.9785H32.9448V27.7124H31.2109V25.9785Z" fill="#0369CA"></path><path d="M15.6055 43.3164H17.3394V45.0503H15.6055V43.3164Z" fill="#0369CA"></path><path d="M22.5391 43.3164H24.2729V45.0503H22.5391V43.3164Z" fill="#0369CA"></path><path d="M19.0742 43.3164H20.8081V45.0503H19.0742V43.3164Z" fill="#0369CA"></path><path d="M12.1367 43.3164H13.8706V45.0503H12.1367V43.3164Z" fill="#0369CA"></path></svg>