<svg xmlns="http://www.w3.org/2000/svg" width="51" height="51" viewBox="0 0 51 51" fill="none"><path d="M25.4986 32.0807C29.127 32.0807 32.0793 29.1285 32.0793 25.5001C32.0793 21.8717 29.127 18.9194 25.4986 18.9194C21.8702 18.9194 18.918 21.8717 18.918 25.5001C18.918 29.1285 21.8702 32.0807 25.4986 32.0807ZM25.4986 20.5646C28.2205 20.5646 30.4341 22.7782 30.4341 25.5001C30.4341 28.222 28.2205 30.4356 25.4986 30.4356C22.7767 30.4356 20.5631 28.222 20.5631 25.5001C20.5631 22.7782 22.7767 20.5646 25.4986 20.5646Z" fill="#047BDC"></path><path d="M25.5013 28.7901C27.3159 28.7901 28.7916 27.3144 28.7916 25.4998C28.7916 23.6852 27.3159 22.2095 25.5013 22.2095C23.6866 22.2095 22.2109 23.6852 22.2109 25.4998C22.2109 27.3144 23.6866 28.7901 25.5013 28.7901ZM25.5013 23.8546C26.4086 23.8546 27.1464 24.5925 27.1464 25.4998C27.1464 26.4071 26.4086 27.145 25.5013 27.145C24.594 27.145 23.8561 26.4071 23.8561 25.4998C23.8561 24.5925 24.594 23.8546 25.5013 23.8546Z" fill="#047BDC"></path><path d="M20.0939 35.2182L21.5318 34.5305C21.6601 34.5872 21.7892 34.6415 21.9192 34.6917L22.4481 36.1937H28.5475L29.0781 34.6917C29.2073 34.6407 29.3364 34.5872 29.4655 34.5305L30.9034 35.2182L35.217 30.9045L34.5293 29.4667C34.5861 29.3383 34.6404 29.2092 34.6906 29.0792L36.1918 28.5503V22.4509L34.6898 21.9203C34.6388 21.7912 34.5853 21.662 34.5285 21.5329L35.2162 20.095L30.9026 15.7814L29.4647 16.4691C29.3364 16.4123 29.2073 16.358 29.0773 16.3079L28.5484 14.8066H22.4489L21.9184 16.3087C21.7892 16.3597 21.6601 16.4131 21.5309 16.4699L20.0931 15.7822L15.7794 20.0958L16.4671 21.5337C16.4104 21.662 16.3561 21.7912 16.3059 21.9211L14.8047 22.4501V28.5495L16.3067 29.0801C16.3577 29.2092 16.4112 29.3384 16.4679 29.4675L15.7803 30.9054L20.0939 35.2182ZM16.4498 27.3855V23.614L17.5949 23.2101L17.724 22.8334C17.8318 22.5183 17.9642 22.2008 18.1172 21.8899L18.2924 21.5321L17.7676 20.4347L20.4344 17.7679L21.5318 18.2927L21.8896 18.1175C22.2005 17.9645 22.518 17.8329 22.8331 17.7243L23.2098 17.5952L23.6129 16.4518H27.3844L27.7883 17.5968L28.165 17.726C28.4801 17.8337 28.7976 17.9662 29.1085 18.1192L29.4664 18.2944L30.5637 17.7696L33.2305 20.4364L32.7057 21.5337L32.8809 21.8915C33.0339 22.2025 33.1655 22.52 33.2741 22.835L33.4032 23.2118L34.5466 23.6148V27.3864L33.4016 27.7903L33.2724 28.167C33.1647 28.482 33.0323 28.7996 32.8793 29.1105L32.704 29.4683L33.2288 30.5656L30.562 33.2324L29.4647 32.7076L29.1069 32.8828C28.796 33.0358 28.4784 33.1675 28.1634 33.276L27.7867 33.4052L27.3836 34.5486H23.6121L23.2082 33.4035L22.8314 33.2744C22.5164 33.1666 22.1989 33.0342 21.8879 32.8812L21.5301 32.706L20.4328 33.2308L17.766 30.564L18.2908 29.4667L18.1156 29.1089C17.9626 28.7979 17.831 28.4804 17.7224 28.1654L17.5932 27.7886L16.4498 27.3855Z" fill="#047BDC"></path><path d="M10.6935 37.8389H2.46774C1.10719 37.8389 0 38.9461 0 40.3066V48.5324C0 49.893 1.10719 51.0002 2.46774 51.0002H10.6935C12.0541 51.0002 13.1613 49.893 13.1613 48.5324V40.3066C13.1613 38.9461 12.0541 37.8389 10.6935 37.8389ZM11.5161 48.5324C11.5161 48.9857 11.1468 49.355 10.6935 49.355H2.46774C2.0145 49.355 1.64516 48.9857 1.64516 48.5324V40.3066C1.64516 39.8534 2.0145 39.484 2.46774 39.484H10.6935C11.1468 39.484 11.5161 39.8534 11.5161 40.3066V48.5324Z" fill="#047BDC"></path><path d="M48.5334 18.9194H40.3076C38.947 18.9194 37.8398 20.0266 37.8398 21.3872V29.613C37.8398 30.9735 38.947 32.0807 40.3076 32.0807H48.5334C49.8939 32.0807 51.0011 30.9735 51.0011 29.613V21.3872C51.0011 20.0266 49.8939 18.9194 48.5334 18.9194ZM49.356 29.613C49.356 30.0662 48.9866 30.4356 48.5334 30.4356H40.3076C39.8543 30.4356 39.485 30.0662 39.485 29.613V21.3872C39.485 20.9339 39.8543 20.5646 40.3076 20.5646H48.5334C48.9866 20.5646 49.356 20.9339 49.356 21.3872V29.613Z" fill="#047BDC"></path><path d="M7.40134 13.1613H15.6271C16.9877 13.1613 18.0949 12.0541 18.0949 10.6935V2.46774C18.0949 1.10719 16.9877 0 15.6271 0H7.40134C6.04079 0 4.93359 1.10719 4.93359 2.46774V10.6935C4.93359 12.0541 6.04079 13.1613 7.40134 13.1613ZM6.57876 2.46774C6.57876 2.0145 6.94809 1.64516 7.40134 1.64516H15.6271C16.0804 1.64516 16.4497 2.0145 16.4497 2.46774V10.6935C16.4497 11.1468 16.0804 11.5161 15.6271 11.5161H7.40134C6.94809 11.5161 6.57876 11.1468 6.57876 10.6935V2.46774Z" fill="#047BDC"></path><path d="M4.93376 45.724L3.87016 44.6604L2.70703 45.8236L4.93376 48.0503L10.4508 42.5332L9.28768 41.3701L4.93376 45.724Z" fill="#047BDC"></path><path d="M15.3883 4.69438L14.2252 3.53125L9.87126 7.88517L8.80766 6.82157L7.64453 7.9847L9.87126 10.2114L15.3883 4.69438Z" fill="#047BDC"></path><path d="M42.7736 26.8046L41.71 25.741L40.5469 26.9041L42.7736 29.1309L48.2907 23.6138L47.1275 22.4507L42.7736 26.8046Z" fill="#047BDC"></path><path d="M37.6402 36.2182L38.0391 37.814L42.7147 36.6451C38.9382 42.4953 32.5089 46.0645 25.5014 46.0645C22.4916 46.0645 19.5911 45.4295 16.8816 44.1767L16.1914 45.6697C19.119 47.0236 22.2514 47.7097 25.5014 47.7097C32.9531 47.7097 39.797 43.9751 43.9 37.8354L44.4273 42.0536L46.0593 41.8496L45.1216 34.3477L37.6402 36.2182Z" fill="#047BDC"></path><path d="M9.02668 28.9814L7.42676 28.5989L6.42322 32.799C5.43941 30.3641 4.93599 27.917 4.93599 25.5002C4.93599 22.4649 5.58172 19.5423 6.85507 16.8121L5.36373 16.1162C3.98838 19.066 3.29083 22.2231 3.29083 25.5002C3.29083 28.1185 3.82962 30.7598 4.88252 33.3797L1.22039 31.3603L0.425781 32.8014L7.21865 36.5458L9.02668 28.9814Z" fill="#047BDC"></path><path d="M26.7775 6.71883L24.1024 4.93547H25.4984C33.1936 4.93547 40.1864 9.17835 43.7465 16.0082L45.2049 15.2473C41.361 7.87209 33.8097 3.29031 25.4984 3.29031H24.1024L26.7775 1.50696L25.8652 0.138184L19.9023 4.11289L25.8644 8.0876L26.7775 6.71883Z" fill="#047BDC"></path></svg>