<svg xmlns="http://www.w3.org/2000/svg" width="64" height="68" viewBox="0 0 64 68" fill="none"><path d="M44.6885 39.4839H33.0323V32.9032H35.0968V24.4164C39.1628 25.0185 43.0255 26.6099 46.4516 29.1062V29.6129C46.4516 31.427 47.841 32.9032 49.5484 32.9032C51.2557 32.9032 52.6452 31.427 52.6452 29.6129V21.8247C54.9977 21.3147 56.7742 19.1003 56.7742 16.4516C56.7742 13.8029 54.9977 11.5885 52.6452 11.0785V3.29032C52.6452 1.47626 51.2557 0 49.5484 0C47.841 0 46.4516 1.47626 46.4516 3.29032V3.79703C41.9933 7.04568 36.7969 8.77419 31.3775 8.77419H25.8064C24.0991 8.77419 22.7097 10.2505 22.7097 12.0645V15.3548H18.5806V13.4892L17.217 12.9639L17.8312 11.5677L13.888 7.378L12.5739 8.03168L12.0785 6.58065H6.50219L6.00671 8.02948L4.69265 7.3769L0.749419 11.5666L1.36361 12.9628L0 13.4892V19.414L1.36361 19.9394L0.749419 21.3355L4.69265 25.5252L6.00671 24.8715L6.50219 26.3226H12.0774L12.5729 24.8737L13.887 25.5274L17.8302 21.3377L17.216 19.9415L18.5806 19.414V17.5484H22.7097V20.8387C22.7097 22.6528 24.0991 24.129 25.8064 24.129H26.0325L28.097 32.9032H30.9677V39.4839H19.3115C13.217 39.4839 8.25806 44.7528 8.25806 51.2281C8.25806 53.0433 8.66168 54.8606 9.42452 56.4806L13.5009 65.144C14.3298 66.9054 15.9959 68 17.8498 68C19.9587 68 21.8849 66.8659 23.0028 64.9652L25.4689 60.7723C26.0387 59.8038 27.0204 59.2258 28.095 59.2258H35.905C36.9796 59.2258 37.9613 59.8038 38.5301 60.7723L40.9972 64.9652C42.1151 66.8659 44.0423 68 46.1502 68C48.0031 68 49.6702 66.9054 50.4981 65.144L54.5744 56.4806C55.3383 54.8606 55.7419 53.0433 55.7419 51.2281C55.7419 44.7528 50.783 39.4839 44.6885 39.4839ZM16.5161 17.8763L15.6666 18.2054L15.2052 18.4379L14.7685 19.5555L15.3486 20.8727L13.4524 22.8886L12.2157 22.2744L11.0999 22.7625L10.6312 24.129H7.94942L7.64077 23.2264L7.43019 22.7405L6.36594 22.2744L5.12929 22.8886L3.232 20.8716L3.81213 19.5544L3.35071 18.3732L2.06452 17.8763V15.0269L2.91406 14.6979L3.37548 14.4654L3.81213 13.3477L3.232 12.0316L5.12826 10.0157L6.36697 10.6299L7.48181 10.1419L7.94942 8.77419H10.6323L10.9409 9.67684L11.1505 10.1616L12.2147 10.6288L13.4534 10.0146L15.3497 12.0305L14.7695 13.3477L15.231 14.529L16.5161 15.0269V17.8763ZM54.7097 16.4516C54.7097 17.8796 53.8436 19.0861 52.6452 19.5401V13.3642C53.8436 13.8172 54.7097 15.0236 54.7097 16.4516ZM48.5161 3.29032C48.5161 2.6849 48.9796 2.19355 49.5484 2.19355C50.1172 2.19355 50.5806 2.6849 50.5806 3.29032V29.6129C50.5806 30.2183 50.1172 30.7097 49.5484 30.7097C48.9796 30.7097 48.5161 30.2183 48.5161 29.6129V3.29032ZM46.4516 6.42052V26.4838C41.9179 23.5072 36.7494 21.9355 31.3775 21.9355H30.9677V10.9677H31.3775C36.7494 10.9677 41.9179 9.39606 46.4516 6.42052ZM24.7742 20.8387V12.0645C24.7742 11.4591 25.2377 10.9677 25.8064 10.9677H28.9032V21.9355H25.8064C25.2377 21.9355 24.7742 21.4441 24.7742 20.8387ZM28.161 24.129H31.3786C31.9329 24.129 32.4831 24.1608 33.0333 24.197V30.7097H29.7105L28.161 24.129ZM37.0405 41.6774C35.7017 43.0616 33.889 43.871 32 43.871C30.111 43.871 28.2994 43.0616 26.9605 41.6774H37.0405ZM52.7288 55.5001L48.6524 64.1635C48.1755 65.1769 47.2165 65.8064 46.1502 65.8064C44.7577 65.8064 43.4859 65.0574 42.7479 63.8026L40.2808 59.6097C39.3311 57.9952 37.695 57.0323 35.905 57.0323H28.095C26.305 57.0323 24.6689 57.9952 23.7182 59.6097L21.2511 63.8026C20.5141 65.0574 19.2413 65.8064 17.8498 65.8064C16.7835 65.8064 15.8255 65.1769 15.3486 64.1635L11.2723 55.5001C10.6508 54.1806 10.3226 52.7044 10.3226 51.2281C10.3226 45.9614 14.3556 41.6774 19.3115 41.6774H24.2581L24.5677 42.115C26.3133 44.5883 29.0911 46.0645 32 46.0645C34.9089 46.0645 37.6867 44.5883 39.4323 42.1161L39.7419 41.6774H44.6875C49.6444 41.6774 53.6774 45.9614 53.6774 51.2281C53.6774 52.7044 53.3492 54.1806 52.7288 55.5001Z" fill="#048DEF"></path><path d="M20.6448 46.0645H14.4512V48.258H12.3867V54.8386H14.4512V57.0322H20.6448V54.8386H22.7093V48.258H20.6448V46.0645ZM20.6448 52.6451H18.5803V54.8386H16.5158V52.6451H14.4512V50.4516H16.5158V48.258H18.5803V50.4516H20.6448V52.6451Z" fill="#048DEF"></path><path d="M46.4504 46.0645C43.6044 46.0645 41.2891 48.5245 41.2891 51.5483C41.2891 54.5721 43.6044 57.0322 46.4504 57.0322C49.2963 57.0322 51.6116 54.5721 51.6116 51.5483C51.6116 48.5245 49.2963 46.0645 46.4504 46.0645ZM46.4504 54.8386C44.743 54.8386 43.3536 53.3624 43.3536 51.5483C43.3536 49.7343 44.743 48.258 46.4504 48.258C48.1577 48.258 49.5471 49.7343 49.5471 51.5483C49.5471 53.3624 48.1577 54.8386 46.4504 54.8386Z" fill="#048DEF"></path><path d="M36.1283 48.2583H27.8702C26.1629 48.2583 24.7734 49.7346 24.7734 51.5486C24.7734 53.3627 26.1629 54.8389 27.8702 54.8389H36.1283C37.8356 54.8389 39.225 53.3627 39.225 51.5486C39.225 49.7346 37.8356 48.2583 36.1283 48.2583ZM36.1283 52.6454H27.8702C27.3014 52.6454 26.838 52.154 26.838 51.5486C26.838 50.9432 27.3014 50.4518 27.8702 50.4518H36.1283C36.6971 50.4518 37.1605 50.9432 37.1605 51.5486C37.1605 52.154 36.6971 52.6454 36.1283 52.6454Z" fill="#048DEF"></path><path d="M9.28919 12.0645C7.01203 12.0645 5.16016 14.0321 5.16016 16.4515C5.16016 18.871 7.01203 20.8386 9.28919 20.8386C11.5663 20.8386 13.4182 18.871 13.4182 16.4515C13.4182 14.0321 11.5663 12.0645 9.28919 12.0645ZM9.28919 18.6451C8.15061 18.6451 7.22467 17.6613 7.22467 16.4515C7.22467 15.2418 8.15061 14.258 9.28919 14.258C10.4278 14.258 11.3537 15.2418 11.3537 16.4515C11.3537 17.6613 10.4278 18.6451 9.28919 18.6451Z" fill="#048DEF"></path><path d="M58.8398 15.355H64.0011V17.5485H58.8398V15.355Z" fill="#048DEF"></path><path d="M55.9844 10.252L59.634 6.37427L61.0938 7.92534L57.4442 11.803L55.9844 10.252Z" fill="#048DEF"></path><path d="M55.9883 22.6641L57.4481 21.113L61.0977 24.9907L59.6379 26.5417L55.9883 22.6641Z" fill="#048DEF"></path></svg>