<svg xmlns="http://www.w3.org/2000/svg" width="52" height="52" viewBox="0 0 52 52" fill="none"><path d="M14.2587 3.35498C8.24682 3.35498 3.35547 8.24634 3.35547 14.2582C3.35547 20.2701 8.24682 25.1614 14.2587 25.1614C20.2706 25.1614 25.1619 20.2701 25.1619 14.2582C25.1619 8.24634 20.2706 3.35498 14.2587 3.35498ZM14.2587 23.484C9.17192 23.484 5.03289 19.345 5.03289 14.2582C5.03289 9.17143 9.17192 5.0324 14.2587 5.0324C18.8414 5.0324 22.6433 8.39395 23.3545 12.7796L17.5934 18.9239L13.7672 15.0969H8.38773V16.7743H13.0728L17.6337 21.3352L23.4401 15.1414C22.9939 19.8155 19.0477 23.484 14.2587 23.484Z" fill="#048DEF"></path><path d="M13.418 40.2583H15.0954V41.9357H13.418V40.2583Z" fill="#048DEF"></path><path d="M13.418 43.6128H15.0954V45.2902H13.418V43.6128Z" fill="#048DEF"></path><path d="M13.418 46.9678H15.0954V48.6452H13.418V46.9678Z" fill="#048DEF"></path><path d="M45.2902 50.3228H43.6128V26.8389H36.9031V50.3228H35.2257V30.1937H28.516V50.3228H26.8386V33.5486H20.1289V52.0002H51.9999V21.8066H45.2902V50.3228ZM25.1612 50.3228H21.8063V35.226H25.1612V50.3228ZM38.5805 28.5163H41.9354V50.3228H38.5805V28.5163ZM30.1934 31.8712H33.5483V50.3228H30.1934V31.8712ZM46.9676 23.4841H50.3225V50.3228H46.9676V23.4841Z" fill="#048DEF"></path><path d="M6.71094 11.7417H8.38836V13.4191H6.71094V11.7417Z" fill="#048DEF"></path><path d="M13.418 11.7417H15.0954V13.4191H13.418V11.7417Z" fill="#048DEF"></path><path d="M10.0664 11.7417H11.7438V13.4191H10.0664V11.7417Z" fill="#048DEF"></path><path d="M20.1289 11.7417H21.8063V13.4191H20.1289V11.7417Z" fill="#048DEF"></path><path d="M16.7734 11.7417H18.4509V13.4191H16.7734V11.7417Z" fill="#048DEF"></path><path d="M50.3226 13.4194V8.3871H48.6452V13.4194H46.9677V11.7419H45.2903V13.4194H43.6129V8.3871H41.9355V13.4194H40.2581V10.0645H38.5806V13.4194H37.2798L30.2095 5.46587L27.3159 8.55232C25.1101 3.52426 20.0913 0 14.2581 0C6.396 0 0 6.396 0 14.2581C0 20.9627 4.65735 26.5863 10.9032 28.101V32.5252C10.3925 32.9856 10.0645 33.6465 10.0645 34.3871V47.8064C10.0645 50.1188 11.9457 52 14.2581 52C16.5704 52 18.4516 50.1188 18.4516 47.8064V34.3871C18.4516 33.6465 18.1237 32.9865 17.6129 32.5252V28.101C23.8588 26.5863 28.5161 20.9627 28.5161 14.2581C28.5161 12.8935 28.3123 11.5767 27.9525 10.3262L30.1776 7.95348L36.5266 15.0968H52V13.4194H50.3226ZM16.7742 47.8064C16.7742 49.1937 15.6453 50.3226 14.2581 50.3226C12.8708 50.3226 11.7419 49.1937 11.7419 47.8064V34.3871C11.7419 33.9241 12.1177 33.5484 12.5806 33.5484H15.9355C16.3985 33.5484 16.7742 33.9241 16.7742 34.3871V47.8064ZM15.9355 31.871H12.5806V28.4088C13.1317 28.4734 13.6894 28.5161 14.2581 28.5161C14.8267 28.5161 15.3845 28.4734 15.9355 28.4088V31.871ZM14.2581 26.8387C7.3211 26.8387 1.67742 21.195 1.67742 14.2581C1.67742 7.3211 7.3211 1.67742 14.2581 1.67742C21.195 1.67742 26.8387 7.3211 26.8387 14.2581C26.8387 21.195 21.195 26.8387 14.2581 26.8387Z" fill="#048DEF"></path></svg>