<svg xmlns="http://www.w3.org/2000/svg" width="50" height="54" viewBox="0 0 50 54" fill="none"><path d="M5.14794 34.5971C4.34322 33.9103 3.75453 32.9656 3.46407 31.895C3.1736 30.8244 3.19585 29.6812 3.5277 28.6251C3.85955 27.5689 4.48445 26.6526 5.31517 26.0038C6.14588 25.3551 7.14096 25.0064 8.16151 25.0064C9.18206 25.0064 10.1771 25.3551 11.0079 26.0038C11.8386 26.6526 12.4635 27.5689 12.7953 28.6251C13.1272 29.6812 13.1494 30.8244 12.859 31.895C12.5685 32.9656 11.9798 33.9103 11.1751 34.5971C12.3415 35.1038 13.3883 35.8919 14.2376 36.903L14.7032 32.0768C14.7254 31.8572 14.8211 31.6544 14.9719 31.5075C15.1227 31.3606 15.3179 31.2801 15.5198 31.2814H16.3365V28.6002C16.3382 26.8133 16.8293 25.068 17.7465 23.5896C18.6636 22.1112 19.9647 20.9676 21.4816 20.3064C20.6789 19.6183 20.0924 18.6733 19.8037 17.6031C19.5151 16.5329 19.5387 15.3908 19.8712 14.336C20.2038 13.2811 20.8288 12.3661 21.6591 11.7184C22.4894 11.0708 23.4837 10.7227 24.5034 10.7227C25.523 10.7227 26.5173 11.0708 27.3476 11.7184C28.1779 12.3661 28.8029 13.2811 29.1355 14.336C29.4681 15.3908 29.4917 16.5329 29.203 17.6031C28.9144 18.6733 28.3278 19.6183 27.5251 20.3064C29.0421 20.9676 30.3431 22.1112 31.2603 23.5896C32.1774 25.068 32.6685 26.8133 32.6702 28.6002V31.2814H33.4869C33.6901 31.2803 33.8863 31.3621 34.0373 31.5108C34.1883 31.6596 34.2833 31.8645 34.3036 32.0858L34.7446 36.9476C35.587 35.9114 36.6422 35.1088 37.8235 34.6061C37.0198 33.9186 36.4322 32.9738 36.1426 31.9033C35.853 30.8329 35.876 29.6903 36.2082 28.6348C36.5404 27.5793 37.1653 26.6636 37.9959 26.0154C38.8264 25.3672 39.821 25.0188 40.8411 25.0188C41.8612 25.0188 42.8559 25.3672 43.6864 26.0154C44.5169 26.6636 45.1419 27.5793 45.4741 28.6348C45.8063 29.6903 45.8293 30.8329 45.5397 31.9033C45.2501 32.9738 44.6625 33.9186 43.8588 34.6061C45.3758 35.2672 46.6768 36.4108 47.594 37.8892C48.5111 39.3677 49.0022 41.113 49.0039 42.8999V52.7309C49.0039 52.9679 48.9179 53.1953 48.7647 53.3629C48.6115 53.5305 48.4038 53.6246 48.1872 53.6246H0.819515C0.602917 53.6246 0.395187 53.5305 0.242031 53.3629C0.088871 53.1953 0.00283051 52.9679 0.00283051 52.7309V42.8999C0.0028801 41.1115 0.493237 39.3642 1.41048 37.884C2.32772 36.4038 3.62967 35.2589 5.14794 34.5971ZM11.4364 30.3877C11.4364 29.6806 11.2448 28.9895 10.8859 28.4016C10.5269 27.8137 10.0167 27.3555 9.4198 27.0849C8.82288 26.8143 8.16605 26.7435 7.53237 26.8815C6.89868 27.0194 6.3166 27.3599 5.85975 27.8598C5.40288 28.3598 5.09175 28.9968 4.96571 29.6902C4.83966 30.3837 4.90435 31.1025 5.1516 31.7557C5.39885 32.409 5.81756 32.9673 6.35477 33.3601C6.89198 33.7529 7.52357 33.9626 8.16968 33.9626C9.03607 33.9626 9.86698 33.586 10.4796 32.9155C11.0922 32.2451 11.4364 31.3358 11.4364 30.3877ZM27.7701 16.088C27.7701 15.381 27.5785 14.6898 27.2196 14.1019C26.8606 13.514 26.3504 13.0558 25.7535 12.7852C25.1566 12.5147 24.4997 12.4439 23.8661 12.5818C23.2324 12.7197 22.6503 13.0602 22.1934 13.5602C21.7366 14.0601 21.4254 14.6971 21.2994 15.3906C21.1734 16.0841 21.238 16.8028 21.4853 17.4561C21.7325 18.1093 22.1513 18.6676 22.6885 19.0605C23.2257 19.4533 23.8573 19.6629 24.5034 19.6629C25.3698 19.6629 26.2007 19.2863 26.8133 18.6159C27.4259 17.9454 27.7701 17.0361 27.7701 16.088ZM31.0368 28.6002C31.0368 26.704 30.3485 24.8854 29.1232 23.5445C27.898 22.2037 26.2362 21.4504 24.5034 21.4504C22.7706 21.4504 21.1088 22.2037 19.8835 23.5445C18.6582 24.8854 17.9699 26.704 17.9699 28.6002V31.2814H19.3909L18.7866 26.9468C18.7688 26.8187 18.7767 26.6879 18.8097 26.5635C18.8427 26.4391 18.9001 26.324 18.9777 26.2263C19.0554 26.1285 19.1516 26.0504 19.2596 25.9973C19.3676 25.9443 19.4849 25.9176 19.6033 25.919H29.4035C29.5219 25.9176 29.6391 25.9443 29.7471 25.9973C29.8551 26.0504 29.9513 26.1285 30.029 26.2263C30.1067 26.324 30.164 26.4391 30.197 26.5635C30.23 26.6879 30.2379 26.8187 30.2202 26.9468L29.6158 31.2814H31.0368V28.6002ZM20.5506 27.7065L21.2856 33.0689H27.7211L28.4561 27.7065H20.5506ZM29.4035 33.0689L29.2646 34.0967C29.2351 34.3098 29.1362 34.504 28.9861 34.6436C28.836 34.7832 28.6449 34.8588 28.448 34.8563H20.6078C20.4108 34.8588 20.2197 34.7832 20.0696 34.6436C19.9195 34.504 19.8206 34.3098 19.7911 34.0967L19.6033 33.0689H16.2549L15.626 39.5305L15.3402 43.1054L19.0887 44.7499C19.2407 44.8161 19.371 44.9308 19.4627 45.079C19.5545 45.2271 19.6034 45.4021 19.6033 45.5811V48.2623C19.6033 48.3913 19.5777 48.5189 19.5284 48.6362C19.479 48.7534 19.4071 48.8576 19.3174 48.9415C19.1695 49.0799 18.9812 49.156 18.7866 49.156H18.6641L14.9073 48.5214L14.646 51.8372H34.3608L34.0994 48.5125L30.3427 49.147H30.2202C30.0255 49.1471 29.8373 49.071 29.6893 48.9325C29.6007 48.8496 29.5294 48.7469 29.4801 48.6313C29.4307 48.5157 29.4046 48.3898 29.4035 48.2623V45.5811C29.4033 45.4021 29.4523 45.2271 29.544 45.079C29.6357 44.9308 29.766 44.8161 29.918 44.7499L33.6584 43.1144L32.7437 33.0689H29.4035ZM44.1038 30.3877C44.1038 29.6806 43.9122 28.9895 43.5533 28.4016C43.1943 27.8137 42.6841 27.3555 42.0872 27.0849C41.4903 26.8143 40.8334 26.7435 40.1998 26.8815C39.5661 27.0194 38.984 27.3599 38.5271 27.8598C38.0703 28.3598 37.7591 28.9968 37.6331 29.6902C37.507 30.3837 37.5717 31.1025 37.819 31.7557C38.0662 32.409 38.4849 32.9673 39.0222 33.3601C39.5594 33.7529 40.191 33.9626 40.8371 33.9626C41.7035 33.9626 42.5344 33.586 43.147 32.9155C43.7596 32.2451 44.1038 31.3358 44.1038 30.3877ZM47.3705 42.8999C47.3705 41.0036 46.6822 39.185 45.4569 37.8442C44.2317 36.5033 42.5698 35.7501 40.8371 35.7501C39.6224 35.7499 38.4318 36.1203 37.3989 36.8197C36.366 37.5191 35.5316 38.5197 34.9896 39.7093L35.2346 42.3905L37.5703 41.3984V39.325H39.2037V42.0062C39.2038 42.1851 39.1549 42.3601 39.0632 42.5083C38.9714 42.6565 38.8411 42.7711 38.6892 42.8373L31.0368 46.1888V47.2166L40.298 45.6615L41.7436 42.4977L43.1973 43.3021L41.5639 46.877C41.5056 47.0043 41.4203 47.1145 41.3152 47.1985C41.2101 47.2824 41.0881 47.3377 40.9596 47.3596L35.7164 48.2533L36.0023 51.8282H47.3705V42.8999ZM1.6362 51.8372H13.0044L13.2903 48.2623L8.04717 47.3685C7.91859 47.3466 7.79665 47.2914 7.69153 47.2074C7.58641 47.1235 7.50114 47.0132 7.44283 46.8859L5.80946 43.311L7.26316 42.5066L8.70869 45.6704L17.9699 47.2166V46.1888L10.3176 42.8373C10.1656 42.7711 10.0353 42.6565 9.94358 42.5083C9.85184 42.3601 9.80289 42.1851 9.80305 42.0062V39.325H11.4364V41.3984L13.7558 42.4173L13.9763 39.6467C13.4295 38.4756 12.5982 37.4923 11.5737 36.8048C10.5493 36.1173 9.3714 35.7523 8.16968 35.7501C6.43689 35.7501 4.77508 36.5033 3.54981 37.8442C2.32455 39.185 1.6362 41.0036 1.6362 42.8999V51.8372Z" fill="#048DEF"></path><path d="M48.1872 19.662H43.6955L41.4904 22.8795C41.4143 22.9905 41.3157 23.0805 41.2023 23.1426C41.0889 23.2046 40.9638 23.2369 40.8371 23.2369C40.7103 23.2369 40.5852 23.2046 40.4718 23.1426C40.3584 23.0805 40.2598 22.9905 40.1837 22.8795L37.9787 19.662H33.4869C33.2703 19.662 33.0626 19.5679 32.9094 19.4003C32.7563 19.2327 32.6702 19.0053 32.6702 18.7683V0.893729C32.6702 0.656697 32.7563 0.429374 32.9094 0.261767C33.0626 0.0941604 33.2703 0 33.4869 0H48.1872C48.4038 0 48.6115 0.0941604 48.7647 0.261767C48.9179 0.429374 49.0039 0.656697 49.0039 0.893729V18.7683C49.0039 19.0053 48.9179 19.2327 48.7647 19.4003C48.6115 19.5679 48.4038 19.662 48.1872 19.662ZM47.3705 1.78746H34.3036V17.8746H38.387C38.5138 17.8746 38.6388 17.9069 38.7522 17.9689C38.8656 18.031 38.9643 18.1211 39.0404 18.2321L40.8371 20.8507L42.6338 18.2321C42.7098 18.1211 42.8085 18.031 42.9219 17.9689C43.0353 17.9069 43.1603 17.8746 43.2871 17.8746H47.3705V1.78746Z" fill="#048DEF"></path><path d="M45.7383 14.3008H35.9381V16.0882H45.7383V14.3008Z" fill="#048DEF"></path><path d="M45.7383 10.7266H35.9381V12.514H45.7383V10.7266Z" fill="#048DEF"></path><path d="M45.7383 7.14648H35.9381V8.93394H45.7383V7.14648Z" fill="#048DEF"></path><path d="M37.5703 3.57227H35.9369V5.35972H37.5703V3.57227Z" fill="#048DEF"></path><path d="M42.4727 3.57227H39.2059V5.35972H42.4727V3.57227Z" fill="#048DEF"></path><path d="M45.7383 3.57227H44.1049V5.35972H45.7383V3.57227Z" fill="#048DEF"></path><path d="M0.81893 0H15.5193C15.7359 0 15.9436 0.0941604 16.0967 0.261767C16.2499 0.429374 16.3359 0.656697 16.3359 0.893729V18.7683C16.3359 19.0053 16.2499 19.2327 16.0967 19.4003C15.9436 19.5679 15.7359 19.662 15.5193 19.662H11.0275L8.82244 22.8795C8.74637 22.9905 8.64772 23.0805 8.53432 23.1426C8.42092 23.2046 8.29588 23.2369 8.16909 23.2369C8.0423 23.2369 7.91726 23.2046 7.80386 23.1426C7.69046 23.0805 7.59182 22.9905 7.51574 22.8795L5.3107 19.662H0.81893C0.602332 19.662 0.394605 19.5679 0.241446 19.4003C0.0882874 19.2327 0.00224495 19.0053 0.00224495 18.7683V0.893729C0.00224495 0.656697 0.0882874 0.429374 0.241446 0.261767C0.394605 0.0941604 0.602332 0 0.81893 0ZM1.63561 17.8746H5.71904C5.84582 17.8746 5.97087 17.9069 6.08427 17.9689C6.19767 18.031 6.29631 18.1211 6.37239 18.2321L8.16909 20.8507L9.9658 18.2321C10.0419 18.1211 10.1405 18.031 10.2539 17.9689C10.3673 17.9069 10.4924 17.8746 10.6191 17.8746H14.7026V1.78746H1.63561V17.8746Z" fill="#048DEF"></path><path d="M13.0742 3.57227H3.274V5.35972H13.0742V3.57227Z" fill="#048DEF"></path><path d="M13.0742 7.14648H3.274V8.93394H13.0742V7.14648Z" fill="#048DEF"></path><path d="M13.0742 10.7266H3.274V12.514H13.0742V10.7266Z" fill="#048DEF"></path><path d="M13.0742 14.3008H11.4408V16.0882H13.0742V14.3008Z" fill="#048DEF"></path><path d="M9.80078 14.3008H6.53404V16.0882H9.80078V14.3008Z" fill="#048DEF"></path><path d="M4.90625 14.3008H3.27288V16.0882H4.90625V14.3008Z" fill="#048DEF"></path></svg>