<svg xmlns="http://www.w3.org/2000/svg" width="69" height="69" viewBox="0 0 69 69" fill="none"><path d="M57.25 2L67 7.62897V18.8871L57.25 24.5171L47.5 18.8871V7.62897L57.25 2Z" stroke="#047BDC" stroke-width="3" stroke-miterlimit="10" stroke-linecap="round" stroke-linejoin="round"></path><path d="M57.25 2L67 7.62897V18.8871L57.25 24.5171L47.5 18.8871V7.62897L57.25 2Z" stroke="#047BDC" stroke-width="3" stroke-miterlimit="10" stroke-linecap="round" stroke-linejoin="round"></path><path d="M57.25 2L67 7.62897L57.25 13.2579L47.5 7.62897L57.25 2Z" stroke="#047BDC" stroke-width="3" stroke-miterlimit="10" stroke-linecap="round" stroke-linejoin="round"></path><path d="M57.25 24.517V13.2578" stroke="#047BDC" stroke-width="3" stroke-miterlimit="10" stroke-linecap="round" stroke-linejoin="round"></path><path d="M11.75 2L21.5 7.62897V18.8871L11.75 24.5171L2 18.8871V7.62897L11.75 2Z" stroke="#047BDC" stroke-width="3" stroke-miterlimit="10" stroke-linecap="round" stroke-linejoin="round"></path><path d="M11.75 2L21.5 7.62897V18.8871L11.75 24.5171L2 18.8871V7.62897L11.75 2Z" stroke="#047BDC" stroke-width="3" stroke-miterlimit="10" stroke-linecap="round" stroke-linejoin="round"></path><path d="M11.75 2L21.5 7.62897L11.75 13.2579L2 7.62897L11.75 2Z" stroke="#047BDC" stroke-width="3" stroke-miterlimit="10" stroke-linecap="round" stroke-linejoin="round"></path><path d="M11.75 24.517V13.2578" stroke="#047BDC" stroke-width="3" stroke-miterlimit="10" stroke-linecap="round" stroke-linejoin="round"></path><path d="M21.5 11.7617H47.5" stroke="#047BDC" stroke-width="3" stroke-miterlimit="10" stroke-linecap="round" stroke-linejoin="round"></path><path d="M67.0013 32.334H56.168V56.1673H67.0013V32.334Z" stroke="#047BDC" stroke-width="3" stroke-miterlimit="10" stroke-linecap="round" stroke-linejoin="round"></path><path d="M12.8333 32.334H2V56.1673H12.8333V32.334Z" stroke="#047BDC" stroke-width="3" stroke-miterlimit="10" stroke-linecap="round" stroke-linejoin="round"></path><path d="M41.0013 40.9998C41.0013 40.9998 40.5678 41.4299 39.918 42.0842C38.1955 43.8078 35.8555 44.7763 33.418 44.7763C30.9805 44.7763 28.6405 43.8078 26.918 42.0842C26.918 42.0831 26.918 42.0831 26.918 42.0831C26.918 42.0831 30.807 38.1908 34.5013 34.4987C36.2238 32.7752 38.5638 31.8066 41.0013 31.8066C43.4388 31.8066 45.7788 32.7752 47.5013 34.4987L49.668 36.6665H56.168V51.8332H51.8347L41.0013 40.9998Z" stroke="#047BDC" stroke-width="3" stroke-miterlimit="10" stroke-linecap="round" stroke-linejoin="round"></path><path d="M29.4192 51.8326C27.2309 49.6443 23.6883 49.6443 21.5 51.8326V51.8337C20.8283 52.5065 20.4492 53.4187 20.4492 54.3709C20.4492 55.322 20.8283 56.2352 21.5 56.908C23.7533 59.1667 27.1117 62.5208 29.7984 65.2041C30.9466 66.3537 32.5067 66.9993 34.1317 66.9993C35.7567 66.9993 37.3167 66.3537 38.465 65.2043V65.2032C39.0391 64.629 39.3641 63.8501 39.3641 63.0376C39.3641 62.2251 39.0391 61.4451 38.465 60.8709C36.1142 58.5212 32.3117 54.7197 29.4192 51.8326Z" stroke="#047BDC" stroke-width="3" stroke-miterlimit="10" stroke-linecap="round" stroke-linejoin="round"></path><path d="M40.9987 40.9997L51.832 51.8329L38.4637 65.2045C38.4637 65.2045 38.4637 65.2045 38.4637 65.2034C39.0378 64.6292 39.3628 63.8503 39.3628 63.0378C39.3628 62.2253 39.0378 61.4453 38.4637 60.871C36.1128 58.5213 32.3103 54.7199 29.418 51.8328C27.2297 49.6445 23.687 49.6445 21.4987 51.8328H12.832V36.6664H19.332C19.332 36.6664 20.242 35.7477 21.4878 34.5072C25.0737 30.9127 30.902 30.9083 34.4986 34.4986C34.4986 34.4997 34.4986 34.4997 34.4986 34.4997L26.9153 42.0829C26.9153 42.0829 26.9153 42.0829 26.9153 42.084C28.6378 43.8076 30.9778 44.7761 33.4153 44.7761C35.8528 44.7761 38.1928 43.8076 39.9153 42.084C40.5653 41.4297 40.9987 40.9997 40.9987 40.9997Z" stroke="#047BDC" stroke-width="3" stroke-miterlimit="10" stroke-linecap="round" stroke-linejoin="round"></path></svg>