<svg xmlns="http://www.w3.org/2000/svg" width="44" height="44" viewBox="0 0 44 44" fill="none"><path d="M43.2651 39.5984H42.5318V13.1994C42.5318 13.0049 42.4546 12.8184 42.3171 12.6809C42.1795 12.5433 41.993 12.4661 41.7985 12.4661H30.2812C30.862 10.806 31.2443 9.08291 31.42 7.33292H35.1988C35.3438 7.33289 35.4855 7.28986 35.6061 7.20928C35.7266 7.1287 35.8206 7.01419 35.8761 6.88021C35.9316 6.74624 35.9461 6.59882 35.9178 6.45659C35.8895 6.31437 35.8197 6.18372 35.7172 6.08116L29.8507 0.214702C29.7132 0.0772285 29.5267 0 29.3323 0C29.1379 0 28.9514 0.0772285 28.8139 0.214702L22.9474 6.08116C22.8449 6.18372 22.7751 6.31437 22.7468 6.45659C22.7185 6.59882 22.733 6.74624 22.7885 6.88021C22.844 7.01419 22.938 7.1287 23.0585 7.20928C23.1791 7.28986 23.3208 7.33289 23.4658 7.33292H25.7809C24.9246 9.26976 23.6885 11.0152 22.1459 12.4661H2.19992C2.00544 12.4661 1.81892 12.5433 1.6814 12.6809C1.54387 12.8184 1.46661 13.0049 1.46661 13.1994V39.5984H0.733307C0.538822 39.5984 0.352303 39.6757 0.214781 39.8132C0.0772589 39.9507 0 40.1373 0 40.3318V41.7984C0 42.3818 0.231777 42.9414 0.644342 43.3539C1.05691 43.7665 1.61647 43.9983 2.19992 43.9983H41.7985C42.382 43.9983 42.9415 43.7665 43.3541 43.3539C43.7667 42.9414 43.9984 42.3818 43.9984 41.7984V40.3318C43.9984 40.1373 43.9212 39.9507 43.7837 39.8132C43.6461 39.6757 43.4596 39.5984 43.2651 39.5984ZM27.5548 6.84967C27.5949 6.73891 27.6078 6.62011 27.5924 6.50331C27.5769 6.38652 27.5335 6.27517 27.4659 6.1787C27.3983 6.08222 27.3084 6.00346 27.2039 5.94908C27.0993 5.89471 26.9833 5.86631 26.8655 5.8663H25.236L29.3323 1.77005L33.4286 5.8663H30.7446C30.5583 5.8659 30.3787 5.93648 30.2425 6.0637C30.1063 6.19092 30.0236 6.36524 30.0113 6.55121C29.6746 11.3908 27.6803 15.9664 24.3643 19.5075C21.0483 23.0485 16.6133 25.3386 11.8063 25.9919L9.533 26.294V18.2526C13.3728 18.598 17.2193 17.668 20.4772 15.6066C23.7351 13.5452 26.2226 10.4675 27.5548 6.84967ZM2.93323 13.9327H20.3339C17.0619 16.245 13.0396 17.2413 9.06661 16.7237L8.89942 16.7002C8.79559 16.6859 8.68991 16.6941 8.5895 16.7241C8.4891 16.7542 8.3963 16.8054 8.31735 16.8743C8.23841 16.9433 8.17516 17.0283 8.13187 17.1238C8.08858 17.2192 8.06625 17.3228 8.06638 17.4276V27.1322C8.06638 27.3267 8.14364 27.5132 8.28116 27.6507C8.41869 27.7883 8.6052 27.8655 8.79969 27.8655C8.83207 27.8655 8.86441 27.8633 8.89649 27.8589L11.9969 27.4461C15.8662 26.9184 19.5323 25.3958 22.637 23.0272C25.7417 20.6586 28.1787 17.525 29.71 13.9327H41.0652V39.5984H39.5986V16.1326C39.5986 15.9381 39.5213 15.7516 39.3838 15.6141C39.2463 15.4766 39.0598 15.3993 38.8653 15.3993H30.7989V16.8659H38.132V39.5984H5.86646V16.8659H7.33307V15.3993H5.13315C4.93867 15.3993 4.75215 15.4766 4.61463 15.6141C4.4771 15.7516 4.39984 15.9381 4.39984 16.1326V39.5984H2.93323V13.9327ZM42.5318 41.7984C42.5318 41.9929 42.4546 42.1794 42.3171 42.3169C42.1795 42.4544 41.993 42.5317 41.7985 42.5317H2.19992C2.00544 42.5317 1.81892 42.4544 1.6814 42.3169C1.54387 42.1794 1.46661 41.9929 1.46661 41.7984V41.0651H42.5318V41.7984Z" fill="#0369CA"></path><path d="M7.33203 38.8668H36.6643V37.4002H33.7311V20.5341C33.7311 20.3396 33.6538 20.1531 33.5163 20.0156C33.3788 19.878 33.1923 19.8008 32.9978 19.8008H28.5979C28.4035 19.8008 28.2169 19.878 28.0794 20.0156C27.9419 20.1531 27.8646 20.3396 27.8646 20.5341V37.4002H24.9314V26.4005C24.9314 26.2061 24.8542 26.0195 24.7166 25.882C24.5791 25.7445 24.3926 25.6672 24.1981 25.6672H19.7983C19.6038 25.6672 19.4173 25.7445 19.2797 25.882C19.1422 26.0195 19.065 26.2061 19.065 26.4005V37.4002H16.1317V30.0671C16.1317 29.8726 16.0545 29.6861 15.9169 29.5486C15.7794 29.411 15.5929 29.3338 15.3984 29.3338H10.9986C10.8041 29.3338 10.6176 29.411 10.48 29.5486C10.3425 29.6861 10.2653 29.8726 10.2653 30.0671V37.4002H7.33203V38.8668ZM29.3313 21.2674H32.2645V37.4002H29.3313V21.2674ZM20.5316 27.1339H23.4648V37.4002H20.5316V27.1339ZM11.7319 30.8004H14.6651V37.4002H11.7319V30.8004Z" fill="#0369CA"></path><path d="M19.7969 1.4668H21.2635V2.93341H19.7969V1.4668Z" fill="#0369CA"></path><path d="M18.332 2.93359H19.7986V4.40021H18.332V2.93359Z" fill="#0369CA"></path><path d="M16.8672 1.4668H18.3338V2.93341H16.8672V1.4668Z" fill="#0369CA"></path><path d="M15.3984 5.86523H16.8651V7.33185H15.3984V5.86523Z" fill="#0369CA"></path><path d="M42.5312 7.33398H43.9979V8.8006H42.5312V7.33398Z" fill="#0369CA"></path><path d="M41.0664 8.80078H42.533V10.2674H41.0664V8.80078Z" fill="#0369CA"></path><path d="M39.6016 7.33398H41.0682V8.8006H39.6016V7.33398Z" fill="#0369CA"></path><path d="M41.0664 5.86523H42.533V7.33185H41.0664V5.86523Z" fill="#0369CA"></path><path d="M38.1289 2.93359H39.5955V4.40021H38.1289V2.93359Z" fill="#0369CA"></path><path d="M11.7322 21.9968H10.2656V24.1968C10.2656 24.3912 10.3429 24.5778 10.4804 24.7153C10.6179 24.8528 10.8044 24.9301 10.9989 24.9301C13.5048 24.8209 15.9309 24.0165 18.0057 22.6069L17.1917 21.3867C15.5576 22.4865 13.6872 23.1855 11.7322 23.4268V21.9968Z" fill="#0369CA"></path><path d="M10.2656 19.0645H11.7322V20.5311H10.2656V19.0645Z" fill="#0369CA"></path></svg>