<svg xmlns="http://www.w3.org/2000/svg" width="16" height="35" viewBox="0 0 16 35" fill="none"><path fill-rule="evenodd" clip-rule="evenodd" d="M14.2832 31.958L14.2823 31.9581L12.1596 31.9573C11.9907 31.9573 11.855 31.821 11.855 31.6529C11.8551 31.4848 11.9914 31.3486 12.1595 31.3486L14.2823 31.3493C14.5662 31.3492 14.8347 31.2377 15.0376 31.0349C15.2407 30.8318 15.3523 30.5637 15.3523 30.2796L15.3524 1.67867C15.3524 1.08869 14.8727 0.608867 14.2823 0.608867L1.67811 0.608707C1.08829 0.608707 0.608787 1.08877 0.608787 1.67867L0.608946 30.2796C0.608946 30.5637 0.720457 30.832 0.923466 31.0348C1.12559 31.2376 1.39425 31.3494 1.67803 31.3494L5.28632 31.3489C5.45434 31.3489 5.59059 31.4852 5.59059 31.6533C5.59075 31.8213 5.45434 31.9577 5.28624 31.9577L1.67811 31.958C1.2319 31.958 0.810835 31.7831 0.493033 31.4653C0.175151 31.1474 0 30.7264 0 30.2796V1.67867C0 0.753038 0.753038 8.00508e-05 1.67803 8.00508e-05L14.2823 0C15.2081 0 15.9611 0.753118 15.9611 1.67867V30.2796C15.9611 30.7262 15.7859 31.1475 15.4681 31.4653C15.1503 31.783 14.7293 31.9581 14.2832 31.958Z" fill="#0369CA"></path><path fill-rule="evenodd" clip-rule="evenodd" d="M15.6568 4.27423H0.304513C0.136486 4.27423 0 4.13815 0 3.96996C0 3.80177 0.136326 3.66561 0.304353 3.66561L15.6568 3.66553C15.8249 3.66553 15.9611 3.80193 15.9611 3.96996C15.9611 4.13799 15.8248 4.27439 15.6568 4.27423ZM0.304513 28.2923C0.136486 28.2923 0 28.1561 0 27.9879C0 27.8198 0.136326 27.6837 0.304353 27.6837L3.41241 27.6835C3.58059 27.6835 3.71676 27.8198 3.71676 27.9879C3.71684 28.156 3.58043 28.2924 3.41241 28.2924L0.304513 28.2923ZM15.6568 28.2923H12.6842C12.5155 28.2923 12.3799 28.1561 12.3799 27.9879C12.38 27.8198 12.5154 27.6836 12.6842 27.6836L15.6568 27.6835C15.8249 27.6835 15.9611 27.8199 15.9611 27.9879C15.9611 28.156 15.8248 28.2924 15.6568 28.2923Z" fill="#0369CA"></path><path fill-rule="evenodd" clip-rule="evenodd" d="M9.78042 2.44171H6.18334C6.01531 2.44171 5.87891 2.30547 5.87891 2.13736C5.87907 1.96925 6.01523 1.83301 6.18326 1.83301H9.78042C9.94845 1.83301 10.0848 1.96925 10.0848 2.13736C10.0849 2.30547 9.94845 2.44171 9.78042 2.44171Z" fill="#0369CA"></path><path fill-rule="evenodd" clip-rule="evenodd" d="M4.2002 1.84447C4.03842 1.84447 3.90762 1.97599 3.90762 2.13745C3.9077 2.29892 4.03842 2.43044 4.20012 2.43044C4.36198 2.43036 4.49335 2.299 4.49335 2.13745C4.49343 1.97591 4.36182 1.84455 4.2002 1.84447ZM4.2002 3.03907C3.70317 3.03907 3.29883 2.63465 3.29883 2.13745C3.29883 1.64034 3.70309 1.23584 4.20012 1.23584C4.69724 1.23584 5.10213 1.64034 5.10213 2.13745C5.10229 2.63457 4.69708 3.03915 4.2002 3.03907Z" fill="#0369CA"></path><path fill-rule="evenodd" clip-rule="evenodd" d="M5.06819 28.1655C4.9 28.1655 4.76367 28.0292 4.76367 27.8612L4.76375 18.5613C4.76375 17.7228 5.40968 17.2835 6.04777 17.2828C6.04793 17.2826 6.04857 17.2828 6.04937 17.2828C6.68745 17.2826 7.33427 17.7214 7.33587 18.5606L7.34539 22.8005C7.34539 22.9685 7.20987 23.1051 7.04176 23.1055C6.87389 23.1054 6.73661 22.9697 6.73661 22.8018L6.72724 18.5618C6.72564 18.0326 6.30065 17.8915 6.04857 17.8915C6.04937 17.8915 6.04865 17.8914 6.04857 17.8915C5.79809 17.8917 5.37246 18.0332 5.37246 18.5613V27.8611C5.37246 28.0291 5.23613 28.1655 5.06819 28.1655Z" fill="#0369CA"></path><path fill-rule="evenodd" clip-rule="evenodd" d="M7.04832 25.8087C6.88197 25.8087 6.74549 25.6739 6.74389 25.5066L6.72659 22.9539C6.72339 22.4864 6.95794 22.0693 7.35507 21.8376C7.75301 21.6054 8.23884 21.5982 8.62252 21.8186C8.88012 21.9664 9.31216 22.3494 9.31216 23.2527C9.31216 23.4206 9.17575 23.557 9.0078 23.557C8.83986 23.5568 8.70337 23.4208 8.70337 23.2527C8.70337 22.8103 8.56704 22.4886 8.31969 22.3466C8.12396 22.2341 7.87188 22.2409 7.66183 22.3634C7.45266 22.4855 7.33362 22.6993 7.33522 22.9498L7.35275 25.5023C7.35435 25.6703 7.21867 25.8077 7.05064 25.8088C7.04992 25.8087 7.04912 25.8088 7.04832 25.8087Z" fill="#0369CA"></path><path fill-rule="evenodd" clip-rule="evenodd" d="M8.99389 25.9498C8.82594 25.9498 8.68945 25.8137 8.68945 25.6456L8.68961 23.432C8.68961 22.6007 9.32842 22.1586 9.96018 22.1515C9.96506 22.1513 9.96963 22.1514 9.97523 22.1514C10.6031 22.1513 11.2427 22.5864 11.2617 23.4253L11.2745 24.0002C11.2784 24.1682 11.1452 24.3077 10.9771 24.3115C10.8091 24.317 10.6696 24.1822 10.6664 24.0141L10.6529 23.439C10.6419 22.9322 10.2796 22.755 9.9665 22.7601C9.63437 22.7639 9.29824 22.9731 9.29824 23.4321L9.2984 25.6455C9.2984 25.8135 9.16191 25.9499 8.99389 25.9498Z" fill="#0369CA"></path><path fill-rule="evenodd" clip-rule="evenodd" d="M12.69 28.1634C12.522 28.1634 12.3855 28.0271 12.3855 27.8591V24.173C12.3855 23.7637 12.0834 23.6185 11.8242 23.6185C11.566 23.6185 11.2631 23.7637 11.2631 24.1731L11.2632 26.0161C11.2632 26.184 11.1267 26.3205 10.9587 26.3205C10.7907 26.3203 10.6543 26.1842 10.6543 26.0161V24.173C10.6543 23.4093 11.2432 23.0098 11.8242 23.0098C12.4062 23.0096 12.9943 23.4093 12.9943 24.1731V27.8589C12.9943 28.0271 12.8587 28.1634 12.69 28.1634Z" fill="#0369CA"></path><path fill-rule="evenodd" clip-rule="evenodd" d="M5.81911 33.4163C5.73666 33.4163 5.6534 33.3829 5.59392 33.317C5.30862 33.0031 5.20472 32.5754 5.10401 32.1618C5.00507 31.754 4.90269 31.3323 4.63163 31.003C4.62699 30.9968 4.62211 30.9906 4.61738 30.9842L3.23427 29.0117C3.20345 28.9674 3.18423 28.9161 3.18031 28.8624L2.96802 26.3385C2.95993 26.2492 2.99235 26.1611 3.05583 26.0978L4.85137 24.3019C4.97017 24.1832 5.16349 24.1832 5.28165 24.302C5.40068 24.4209 5.40052 24.6136 5.28165 24.7325L3.58617 26.4283L3.77965 28.7293L5.10978 30.6253C5.46328 31.0603 5.5868 31.569 5.69543 32.0182C5.78589 32.3885 5.86346 32.7086 6.04413 32.9074C6.15756 33.0317 6.14804 33.2243 6.02356 33.3374C5.96584 33.3903 5.89195 33.4165 5.81911 33.4163Z" fill="#0369CA"></path><path fill-rule="evenodd" clip-rule="evenodd" d="M11.3692 33.416C11.2956 33.416 11.2225 33.39 11.1638 33.3366C11.0394 33.2232 11.0307 33.0308 11.144 32.9065C12.2237 31.7244 12.333 29.1049 12.3853 27.846C12.3926 27.6779 12.5327 27.547 12.7015 27.5545C12.8696 27.5613 13.0004 27.7033 12.9933 27.8713C12.9339 29.304 12.8229 31.9712 11.5935 33.317C11.534 33.3827 11.4515 33.4162 11.3692 33.416Z" fill="#0369CA"></path><path fill-rule="evenodd" clip-rule="evenodd" d="M5.02887 34.0928H11.8814V33.6833C11.8814 33.5362 11.7616 33.4164 11.6142 33.4164L5.296 33.4162C5.14854 33.4162 5.02871 33.5362 5.02871 33.6833L5.02887 34.0928ZM12.1858 34.7016H4.72444C4.55641 34.7016 4.41992 34.5654 4.41992 34.3973V33.6833C4.41992 33.2005 4.81313 32.8077 5.29584 32.8077L11.6143 32.8076C12.0978 32.8076 12.4901 33.2005 12.4901 33.6833V34.3972C12.4901 34.5654 12.3538 34.7016 12.1858 34.7016Z" fill="#0369CA"></path><path fill-rule="evenodd" clip-rule="evenodd" d="M7.03421 20.6503C6.91133 20.6503 6.79542 20.5754 6.74955 20.4535C6.69015 20.2963 6.76932 20.1207 6.9263 20.0613C8.02812 19.6449 8.79773 18.5698 8.79773 17.4464C8.79789 15.9301 7.56439 14.6966 6.04799 14.6966C4.53182 14.6964 3.29824 15.9302 3.29824 17.4464C3.29832 18.5663 4.06953 19.6398 5.17367 20.0569C5.33153 20.1161 5.4107 20.292 5.35122 20.4492C5.29191 20.6063 5.11659 20.6861 4.95881 20.6264C3.62261 20.1216 2.68945 18.8141 2.68945 17.4464C2.68961 15.5944 4.19633 14.0879 6.04799 14.0879C7.89972 14.0877 9.40652 15.5944 9.40652 17.4464C9.4066 18.8174 8.47513 20.127 7.14188 20.6308C7.10626 20.6441 7.06976 20.6505 7.03421 20.6503Z" fill="#0369CA"></path></svg>