<svg xmlns="http://www.w3.org/2000/svg" width="70" height="68" viewBox="0 0 70 68" fill="none"><path d="M44.4431 17.214C46.3189 17.214 47.8449 15.6879 47.8449 13.8121C47.8449 11.9364 46.3189 10.4102 44.4431 10.4102C42.5673 10.4102 41.0413 11.9364 41.0413 13.8121C41.0413 14.5782 41.296 15.2858 41.725 15.8551L36.1357 23.6659C35.8022 23.5563 35.4463 23.4962 35.0765 23.4962C34.1826 23.4962 33.3686 23.8433 32.7609 24.4091L29.0354 22.2951C29.085 22.0643 29.1117 21.8251 29.1117 21.5797C29.1117 19.704 27.5856 18.1779 25.7099 18.1779C23.8341 18.1779 22.308 19.704 22.308 21.5797C22.308 21.8251 22.3347 22.0643 22.3844 22.2951L18.6588 24.4091C18.0511 23.8433 17.2371 23.4963 16.3432 23.4963C14.4675 23.4963 12.9414 25.0225 12.9414 26.8983C12.9414 28.7741 14.4675 30.3003 16.3432 30.3003C18.219 30.3003 19.7451 28.7741 19.7451 26.8983C19.7451 26.653 19.7184 26.4138 19.6687 26.183L23.3943 24.0689C24.002 24.6347 24.816 24.9819 25.7099 24.9819C26.6037 24.9819 27.4176 24.6347 28.0254 24.0691L31.751 26.1831C31.7013 26.4139 31.6746 26.6531 31.6746 26.8984C31.6746 28.7742 33.2007 30.3004 35.0765 30.3004C36.9524 30.3004 38.4784 28.7742 38.4784 26.8984C38.4784 26.1322 38.2236 25.4245 37.7945 24.8552L43.3839 17.0444C43.7173 17.1538 44.0732 17.214 44.4431 17.214ZM44.4431 12.4513C45.1934 12.4513 45.8038 13.0617 45.8038 13.8121C45.8038 14.5624 45.1934 15.1729 44.4431 15.1729C43.6928 15.1729 43.0824 14.5624 43.0824 13.8121C43.0822 13.0617 43.6926 12.4513 44.4431 12.4513ZM16.3428 28.2589C15.5925 28.2589 14.9821 27.6485 14.9821 26.898C14.9821 26.1476 15.5925 25.5372 16.3428 25.5372C17.0931 25.5372 17.7036 26.1476 17.7036 26.898C17.7036 27.6485 17.0931 28.2589 16.3428 28.2589ZM25.7096 22.9405C24.9593 22.9405 24.3489 22.3301 24.3489 21.5796C24.3489 20.8293 24.9593 20.2189 25.7096 20.2189C26.4599 20.2189 27.0703 20.8293 27.0703 21.5796C27.0705 22.3301 26.4599 22.9405 25.7096 22.9405ZM35.0763 28.2589C34.326 28.2589 33.7156 27.6485 33.7156 26.898C33.7156 26.1476 34.326 25.5372 35.0763 25.5372C35.8268 25.5372 36.4372 26.1476 36.4372 26.898C36.4372 27.6485 35.8266 28.2589 35.0763 28.2589Z" fill="#048DEF"></path><path d="M56.987 50.4026H49.8451H10.9441H2.8868C2.42048 50.4026 2.0411 50.0232 2.0411 49.5569V7.4532C2.0411 6.98688 2.42048 6.60751 2.8868 6.60751H7.69781C8.26143 6.60751 8.71836 6.15071 8.71836 5.58696C8.71836 5.0232 8.26143 4.56641 7.69781 4.56641H2.8868C1.29501 4.56641 0 5.86142 0 7.4532V49.5569C0 51.1487 1.29501 52.4437 2.8868 52.4437H9.92357V54.6897C9.92357 55.9692 10.9645 57.0102 12.244 57.0102H22.4596L17.6508 66.399C17.3939 66.9007 17.5921 67.5156 18.0938 67.7727C18.2427 67.849 18.4016 67.8851 18.5582 67.8851C18.929 67.8851 19.2868 67.6823 19.4674 67.3295L24.7529 57.0102H36.0363L41.3218 67.3295C41.5025 67.6823 41.8601 67.8851 42.2309 67.8851C42.3876 67.8851 42.5465 67.8487 42.6954 67.7727C43.1971 67.5156 43.3955 66.9007 43.1384 66.399L38.3296 57.0102H48.5452C49.8247 57.0102 50.8656 55.9694 50.8656 54.6897V52.4437H56.987C57.5506 52.4437 58.0076 51.9869 58.0076 51.4232C58.0076 50.8594 57.5506 50.4026 56.987 50.4026ZM48.8245 54.6897C48.8245 54.8438 48.6992 54.9691 48.5452 54.9691H12.244C12.09 54.9691 11.9647 54.8438 11.9647 54.6897V52.4437H48.8245V54.6897Z" fill="#048DEF"></path><path d="M11.7784 6.60746H25.7493H35.0364H57.9006C58.3669 6.60746 58.7463 6.98683 58.7463 7.45315V17.1567C58.7463 17.7204 59.2032 18.1772 59.7668 18.1772C60.3305 18.1772 60.7874 17.7204 60.7874 17.1567V7.45315C60.7874 5.86136 59.4924 4.56635 57.9006 4.56635H36.0571V2.56036C36.0571 1.1486 34.9085 0 33.4966 0H27.2892C25.8775 0 24.7287 1.1486 24.7287 2.56036V4.56635H11.7784C11.2147 4.56635 10.7578 5.02315 10.7578 5.5869C10.7578 6.15066 11.2147 6.60746 11.7784 6.60746ZM26.7698 2.56036C26.7698 2.27406 27.0028 2.0411 27.2892 2.0411H33.4966C33.7829 2.0411 34.016 2.27406 34.016 2.56036V4.56635H26.77V2.56036H26.7698Z" fill="#048DEF"></path><path d="M14.2745 35.5176C13.7108 35.5176 13.2539 35.9744 13.2539 36.5381V45.556C13.2539 46.1197 13.7108 46.5765 14.2745 46.5765H18.4148C18.9784 46.5765 19.4353 46.1197 19.4353 45.556V36.5381C19.4353 35.9744 18.9784 35.5176 18.4148 35.5176H14.2745ZM17.3942 44.5356H15.295V37.5588H17.3942V44.5356Z" fill="#048DEF"></path><path d="M23.6416 30.3022C23.078 30.3022 22.6211 30.759 22.6211 31.3228V45.5562C22.6211 46.12 23.078 46.5768 23.6416 46.5768H27.782C28.3456 46.5768 28.8025 46.12 28.8025 45.5562V31.3228C28.8025 30.759 28.3456 30.3022 27.782 30.3022H23.6416ZM26.7615 44.5357H24.6623V32.3433H26.7615V44.5357Z" fill="#048DEF"></path><path d="M33.0088 35.5176C32.4452 35.5176 31.9883 35.9744 31.9883 36.5381V45.556C31.9883 46.1197 32.4452 46.5765 33.0088 46.5765H37.1491C37.7128 46.5765 38.1697 46.1197 38.1697 45.556V36.5381C38.1697 35.9744 37.7128 35.5176 37.1491 35.5176H33.0088ZM36.1286 44.5356H34.0294V37.5588H36.1286V44.5356Z" fill="#048DEF"></path><path d="M42.376 41.5396C41.8124 41.5396 41.3555 41.9963 41.3555 42.5601V45.556C41.3555 46.1198 41.8124 46.5766 42.376 46.5766H46.5163C47.0799 46.5766 47.5369 46.1198 47.5369 45.556C47.5369 44.9923 47.0799 44.5355 46.5163 44.5355H43.3966V42.5601C43.3966 41.9963 42.9396 41.5396 42.376 41.5396Z" fill="#048DEF"></path><path d="M69.1498 51.3623L63.295 41.2213C64.7783 39.6402 65.8584 37.7084 66.4354 35.5552C67.3576 32.1137 66.8843 28.5191 65.1028 25.4335C61.4253 19.0635 53.2512 16.8737 46.8816 20.551C40.5119 24.2284 38.3218 32.4025 41.9993 38.7722C43.7808 41.8578 46.6572 44.0649 50.0987 44.9872C51.248 45.2952 52.414 45.4474 53.5726 45.4474C54.5853 45.4474 55.5921 45.331 56.5767 45.1005L62.4303 55.2417C63.1479 56.485 64.4544 57.1808 65.7964 57.1807C66.454 57.1807 67.1202 57.0134 67.7297 56.6618C68.9266 55.971 69.6703 54.6828 69.6703 53.3C69.6703 52.6225 69.4904 51.9526 69.1498 51.3623ZM50.6269 43.0157C47.7121 42.2346 45.2757 40.3651 43.7668 37.7517C40.6521 32.3566 42.5071 25.4335 47.902 22.3186C49.6769 21.294 51.6163 20.8074 53.5319 20.8074C57.4393 20.8074 61.245 22.8339 63.3351 26.454C64.8439 29.0675 65.2447 32.112 64.4637 35.0269C63.6826 37.9419 61.8131 40.378 59.1997 41.887C56.5864 43.3959 53.5419 43.7965 50.6269 43.0157ZM66.7096 54.8939C65.8315 55.4009 64.7048 55.0991 64.1982 54.2215L58.5664 44.4645C59.1308 44.2341 59.6836 43.9647 60.2205 43.6547C60.7579 43.3444 61.2668 42.9991 61.7486 42.6251L67.382 52.3826C67.5437 52.663 67.6292 52.9803 67.6292 53.3001C67.6292 53.9557 67.2767 54.5665 66.7096 54.8939Z" fill="#048DEF"></path><path d="M62.8026 34.9782C63.5231 32.6573 63.3515 30.1726 62.3194 27.9819C62.0791 27.4718 61.4711 27.2533 60.9613 27.4935C60.4513 27.7338 60.2327 28.3418 60.473 28.8516C61.2872 30.5798 61.4223 32.5404 60.8534 34.3728C60.2813 36.2152 59.0455 37.7614 57.3735 38.7268C55.6043 39.7484 53.5429 40.0195 51.5697 39.4908C49.5964 38.962 47.9469 37.6964 46.9256 35.9272C44.8168 32.2748 46.0728 27.5879 49.7251 25.4792C52.3956 23.9376 55.7096 24.1436 58.1686 26.004C58.6182 26.3442 59.2582 26.2556 59.5982 25.806C59.9383 25.3566 59.8497 24.7165 59.4001 24.3764C56.2852 22.0195 52.0868 21.7587 48.7044 23.7115C46.463 25.0055 44.8597 27.0951 44.1898 29.595C43.5199 32.0949 43.8638 34.7062 45.1578 36.9476C46.4519 39.1891 48.5414 40.7923 51.0414 41.4624C51.8762 41.6861 52.7234 41.7967 53.565 41.7967C55.2439 41.7967 56.9011 41.3564 58.394 40.4943C60.5122 39.2716 62.0779 37.3127 62.8026 34.9782Z" fill="#048DEF"></path></svg>