<svg xmlns="http://www.w3.org/2000/svg" width="53" height="53" viewBox="0 0 53 53" fill="none"><path d="M24.4917 32.7324H26.5009V29.6148H24.4917C23.8805 29.6148 23.3833 29.1175 23.3833 28.5062V24.4879C23.3833 23.8767 23.8805 23.3794 24.4917 23.3794H26.5009V20.2617H24.4917C22.1615 20.2618 20.2656 22.1577 20.2656 24.488V28.5063C20.2656 30.8366 22.1615 32.7324 24.4917 32.7324Z" fill="#048DEF"></path><path d="M29.6172 24.9421V28.0597C29.6172 30.6383 31.7151 32.7362 34.2937 32.7362C36.8723 32.7362 38.9701 30.6383 38.9701 28.0597V24.9421C38.9701 22.3635 36.8723 20.2656 34.2937 20.2656C31.7151 20.2656 29.6172 22.3635 29.6172 24.9421ZM32.7348 24.9421C32.7348 24.0826 33.4341 23.3833 34.2937 23.3833C35.1532 23.3833 35.8525 24.0826 35.8525 24.9421V28.0597C35.8525 28.9193 35.1532 29.6186 34.2937 29.6186C33.4341 29.6186 32.7348 28.9193 32.7348 28.0597V24.9421Z" fill="#048DEF"></path><path d="M14.0312 20.2656H17.1489V32.7362H14.0312V20.2656Z" fill="#048DEF"></path><path d="M26.5 0C11.8542 0 0 11.8523 0 26.5C0 41.1458 11.8523 53 26.5 53C41.1458 53 53 41.1477 53 26.5C53 11.8542 41.1477 0 26.5 0ZM6.29463 24.9412H3.17085C3.51982 19.6651 5.6259 14.8621 8.90888 11.1134L11.1178 13.3223C8.39333 16.4982 6.63227 20.5235 6.29463 24.9412ZM39.6777 11.1178C36.5018 8.39333 32.4764 6.63227 28.0588 6.29463V3.17085C33.3348 3.51982 38.1379 5.6259 41.8866 8.90888L39.6777 11.1178ZM24.9412 6.29463C20.5235 6.63227 16.4982 8.39333 13.3223 11.1178L11.1134 8.90899C14.8621 5.6259 19.6651 3.51993 24.9412 3.17085V6.29463ZM26.5 9.35294C35.9549 9.35294 43.6471 17.0451 43.6471 26.5C43.6471 35.9549 35.9549 43.6471 26.5 43.6471C17.0451 43.6471 9.35294 35.9549 9.35294 26.5C9.35294 17.0451 17.0451 9.35294 26.5 9.35294ZM13.3223 41.8822C16.4982 44.6067 20.5235 46.3677 24.9412 46.7054V49.8293C19.6651 49.4802 14.8621 47.3741 11.1134 44.0911L13.3223 41.8822ZM28.0588 46.7054C32.4764 46.3677 36.5018 44.6067 39.6777 41.8822L41.8866 44.0911C38.138 47.3741 33.3349 49.4802 28.0588 49.8293V46.7054ZM41.8822 39.6777C44.6067 36.5018 46.3677 32.4765 46.7054 28.0588H49.8293C49.4802 33.3349 47.3741 38.1379 44.0911 41.8866L41.8822 39.6777ZM49.8291 24.9412H46.7053C46.3676 20.5235 44.6066 16.4982 41.8821 13.3223L44.091 11.1134C47.3741 14.8621 49.4801 19.6651 49.8291 24.9412ZM3.17085 28.0588H6.29463C6.63227 32.4764 8.39333 36.5018 11.1178 39.6777L8.90888 41.8866C5.6259 38.1379 3.51993 33.3349 3.17085 28.0588Z" fill="#048DEF"></path><path d="M20.2656 14.0273H32.7362V17.145H20.2656V14.0273Z" fill="#048DEF"></path><path d="M20.2656 35.8555H32.7362V38.9731H20.2656V35.8555Z" fill="#048DEF"></path></svg>