<svg xmlns="http://www.w3.org/2000/svg" width="53" height="53" viewBox="0 0 53 53" fill="none"><path d="M52.1452 0H17.9516C17.7249 0 17.5075 0.0900631 17.3472 0.250376C17.1868 0.41069 17.0968 0.628121 17.0968 0.854839V5.12903H3.41935C2.51281 5.13008 1.64369 5.49067 1.00266 6.13169C0.361635 6.77272 0.00104638 7.64184 0 8.54839V39.3226C0.00104638 40.2291 0.361635 41.0982 1.00266 41.7393C1.64369 42.3803 2.51281 42.7409 3.41935 42.7419H21.371V46.1613H15.3871C15.2618 46.1613 15.138 46.1888 15.0246 46.242C14.9111 46.2952 14.8108 46.3726 14.7306 46.4689L10.4564 51.598C10.3524 51.7228 10.2861 51.8746 10.2653 52.0357C10.2445 52.1968 10.2701 52.3606 10.339 52.5077C10.4079 52.6548 10.5172 52.7792 10.6543 52.8664C10.7914 52.9536 10.9505 53 11.1129 53H41.8871C42.0496 53 42.2086 52.9537 42.3457 52.8665C42.4828 52.7793 42.5922 52.6548 42.6611 52.5077C42.73 52.3606 42.7556 52.1969 42.7348 52.0358C42.714 51.8746 42.6477 51.7228 42.5437 51.598L38.2695 46.4689C38.1893 46.3727 38.0889 46.2952 37.9754 46.242C37.862 46.1889 37.7382 46.1613 37.6129 46.1613H31.629V42.7419H49.5806C50.4872 42.7409 51.3563 42.3803 51.9974 41.7393C52.6384 41.0983 52.999 40.2291 53 39.3226V0.854839C53 0.628121 52.9099 0.41069 52.7496 0.250376C52.5893 0.0900631 52.3719 0 52.1452 0ZM51.2903 1.70968V6.83871H43.0411L39.002 3.60678C38.8505 3.48529 38.662 3.41917 38.4677 3.41935H18.8065V1.70968H51.2903ZM21.8718 31.629C22.0984 31.8558 22.2257 32.1633 22.2257 32.4839C22.2257 32.8045 22.0984 33.1119 21.8718 33.3387L21.371 33.8396C21.1391 34.0564 20.8336 34.1771 20.5161 34.1771C20.1987 34.1771 19.8931 34.0564 19.6613 33.8396L15.775 29.9534C16.5847 29.2647 17.4641 28.6624 18.3989 28.1561L21.8718 31.629ZM9.74997 25.6522C9.9203 25.482 10.0762 25.301 10.2385 25.1248L14.1977 29.0841C14.0215 29.2463 13.8405 29.4022 13.6703 29.5725L13.2803 29.9623C12.7586 30.4731 12.0565 30.7575 11.3263 30.7536C10.5962 30.7497 9.89709 30.458 9.38083 29.9417C8.86456 29.4253 8.57285 28.7262 8.56904 27.9961C8.56523 27.2659 8.84963 26.5638 9.36048 26.0421L9.74997 25.6522ZM15.513 27.9816L11.3407 23.8094C12.6563 22.058 13.6192 20.0678 14.1759 17.9493L21.3732 25.1465C19.2546 25.7032 17.2644 26.6661 15.513 27.9818V27.9816ZM13.9578 15.3136C13.8688 15.2246 13.7982 15.1189 13.75 15.0026C13.7018 14.8863 13.677 14.7616 13.6771 14.6357C13.6771 14.5098 13.7019 14.3852 13.75 14.2689C13.7982 14.1526 13.8688 14.0469 13.9579 13.9579C14.0469 13.8688 14.1526 13.7982 14.2689 13.7501C14.3852 13.7019 14.5098 13.6771 14.6357 13.6771C14.89 13.6771 15.1338 13.7781 15.3136 13.9579L25.3646 24.009C25.5443 24.1888 25.6453 24.4326 25.6453 24.6868C25.6453 24.9411 25.5443 25.1849 25.3646 25.3647C25.1848 25.5444 24.941 25.6454 24.6867 25.6454C24.4325 25.6454 24.1887 25.5444 24.0089 25.3647L13.9578 15.3136ZM22.6501 18.877L20.4455 16.6723C20.7401 16.3912 21.133 16.2364 21.5403 16.2412C21.9475 16.2459 22.3367 16.4098 22.6247 16.6978C22.9127 16.9858 23.0766 17.375 23.0813 17.7822C23.0861 18.1894 22.9313 18.5824 22.6501 18.877ZM17.0968 13.3235L16.5224 12.7491C16.0222 12.2485 15.3437 11.9671 14.636 11.9669C13.9284 11.9666 13.2496 12.2475 12.7491 12.7477C12.2485 13.2479 11.9671 13.9264 11.9669 14.6341C11.9666 15.3417 12.2475 16.0205 12.7477 16.521C12.1702 19.5235 10.7049 22.2835 8.54134 24.4438L8.15131 24.8331C7.31083 25.6736 6.83866 26.8135 6.83867 28.0022C6.83868 29.1908 7.31087 30.3307 8.15137 31.1712C8.99187 32.0117 10.1318 32.4839 11.3205 32.4839C12.5091 32.4838 13.649 32.0117 14.4895 31.1712L14.5323 31.1284L18.4524 35.0484C18.7234 35.3194 19.0452 35.5344 19.3992 35.6811C19.7533 35.8277 20.1328 35.9032 20.5161 35.9032C20.8993 35.9032 21.2788 35.8277 21.6329 35.6811C21.987 35.5344 22.3087 35.3194 22.5797 35.0484L23.0806 34.5475C23.5732 34.0577 23.8734 33.4074 23.9269 32.7149C23.9803 32.0224 23.7833 31.3337 23.3717 30.7742H47.871V37.6129H5.12903V10.2581H17.0968V13.3235ZM21.7249 29.0645L20.0425 27.3823C20.9351 27.0277 21.8588 26.7573 22.8018 26.5748C23.3023 27.075 23.9811 27.3559 24.6887 27.3556C25.3964 27.3553 26.0749 27.074 26.5751 26.5734C27.0753 26.0728 27.3562 25.3941 27.3559 24.6864C27.3557 23.9788 27.0743 23.3002 26.5737 22.8L23.8596 20.0859C24.462 19.4708 24.7973 18.6429 24.7928 17.7819C24.7883 16.921 24.4443 16.0966 23.8355 15.4878C23.2267 14.879 22.4023 14.535 21.5414 14.5305C20.6805 14.526 19.8525 14.8613 19.2374 15.4637L18.8065 15.0332V5.12903H38.1686L42.2077 8.36096C42.3592 8.48244 42.5477 8.54855 42.7419 8.54839H51.2903V29.0645H21.7249ZM40.0612 51.2903H12.9381L15.7873 47.871H37.2125L40.0612 51.2903ZM29.9194 46.1613H23.0806V42.7419H29.9194V46.1613ZM49.5806 41.0323H3.41935C2.96606 41.0318 2.53146 40.8515 2.21093 40.531C1.8904 40.2105 1.71013 39.7759 1.70968 39.3226V8.54839C1.71013 8.09509 1.8904 7.66049 2.21093 7.33996C2.53146 7.01943 2.96606 6.83916 3.41935 6.83871H17.0968V8.54839H4.27419C4.04748 8.54839 3.83004 8.63845 3.66973 8.79876C3.50942 8.95908 3.41935 9.17651 3.41935 9.40323V38.4677C3.41935 38.6945 3.50942 38.9119 3.66973 39.0722C3.83004 39.2325 4.04748 39.3226 4.27419 39.3226H48.7258C48.9525 39.3226 49.17 39.2325 49.3303 39.0722C49.4906 38.9119 49.5806 38.6945 49.5806 38.4677V30.7742H51.2903V39.3226C51.2899 39.7759 51.1096 40.2105 50.7891 40.531C50.4685 40.8515 50.0339 41.0318 49.5806 41.0323Z" fill="#0458B9"></path><path d="M42.7422 3.41797H49.5809V5.12765H42.7422V3.41797Z" fill="#0458B9"></path><path d="M24.1797 13.9297L27.5985 10.5108L28.8071 11.7194L25.3883 15.1383L24.1797 13.9297Z" fill="#0458B9"></path><path d="M26.5 16.2422H30.7742V17.9519H26.5V16.2422Z" fill="#0458B9"></path><path d="M21.3711 8.54688H23.0808V12.8211H21.3711V8.54688Z" fill="#0458B9"></path><path d="M48.7263 10.2578H33.3392C33.1125 10.2578 32.8951 10.3479 32.7348 10.5082C32.5744 10.6685 32.4844 10.8859 32.4844 11.1127V19.661C32.4844 19.8878 32.5744 20.1052 32.7348 20.2655C32.8951 20.4258 33.1125 20.5159 33.3392 20.5159H48.7263C48.953 20.5159 49.1705 20.4258 49.3308 20.2655C49.4911 20.1052 49.5812 19.8878 49.5812 19.661V11.1127C49.5812 10.8859 49.4911 10.6685 49.3308 10.5082C49.1705 10.3479 48.953 10.2578 48.7263 10.2578ZM47.8715 18.8062H34.1941V11.9675H47.8715V18.8062Z" fill="#0458B9"></path><path d="M32.4844 22.2266H44.4521V23.9362H32.4844V22.2266Z" fill="#0458B9"></path><path d="M29.0664 25.6445H49.5825V27.3542H29.0664V25.6445Z" fill="#0458B9"></path><path d="M46.1602 22.2266H49.5795V23.9362H46.1602V22.2266Z" fill="#0458B9"></path></svg>