<svg xmlns="http://www.w3.org/2000/svg" width="53" height="53" viewBox="0 0 53 53" fill="none"><path d="M46.1613 37.618V34.1936C46.1599 33.0604 45.7092 31.974 44.9079 31.1727C44.1066 30.3715 43.0203 29.9207 41.8871 29.9194H34.6911C35.4823 28.4597 36.1205 26.9223 36.5956 25.3314L39.844 22.7319C40.349 22.3288 40.7181 21.7805 40.9016 21.161C41.0851 20.5415 41.0742 19.8806 40.8703 19.2676C40.6664 18.6545 40.2793 18.1187 39.7614 17.7325C39.2434 17.3463 38.6194 17.1283 37.9736 17.1079L39.8782 11.8711C40.3642 10.5347 40.5209 9.10081 40.335 7.69096C40.1491 6.28111 39.6261 4.93683 38.8103 3.77204C37.9945 2.60725 36.91 1.65625 35.6486 0.999636C34.3872 0.343017 32.9861 0.000121359 31.5641 9.00693e-07H24.3065C18.8759 -0.0013535 13.5545 1.52481 8.95016 4.40413C8.81182 4.48982 8.70081 4.61323 8.63019 4.75984C8.55956 4.90644 8.53225 5.07017 8.55146 5.23176C8.57067 5.39336 8.63561 5.54611 8.73864 5.67207C8.84167 5.79803 8.97852 5.89197 9.1331 5.94284L11.1941 6.62671C11.4778 6.72134 11.7391 6.87293 11.9621 7.07217C12.1851 7.27142 12.365 7.51412 12.4909 7.7854C12.6167 8.05667 12.6858 8.35079 12.6939 8.64972C12.702 8.94865 12.6489 9.24608 12.5379 9.52376C12.3331 10.0357 12.239 10.5852 12.2618 11.1361C12.2847 11.687 12.4239 12.2268 12.6704 12.72L14.8742 17.1233C14.2437 17.1735 13.643 17.4121 13.1498 17.8081C12.6567 18.2041 12.2941 18.7392 12.109 19.344C11.9239 19.9487 11.9249 20.5951 12.112 21.1993C12.299 21.8035 12.6633 22.3374 13.1577 22.7319L16.4061 25.3314C16.8806 26.9222 17.5183 28.4597 18.3089 29.9194H11.1129C9.97973 29.9207 8.89336 30.3715 8.09209 31.1727C7.29082 31.974 6.84007 33.0604 6.83871 34.1936V37.618C4.81552 38.4632 3.08708 39.8872 1.87041 41.7114C0.653731 43.5355 0.00303163 45.6783 0 47.871V52.1452C0 52.3719 0.0900631 52.5893 0.250376 52.7496C0.41069 52.9099 0.628121 53 0.854839 53H52.1452C52.3719 53 52.5893 52.9099 52.7496 52.7496C52.9099 52.5893 53 52.3719 53 52.1452V47.871C52.997 45.6783 52.3463 43.5355 51.1296 41.7114C49.9129 39.8872 48.1845 38.4632 46.1613 37.618ZM33.3387 17.0968H28.2097C27.983 17.0968 27.7655 17.1868 27.6052 17.3472C27.4449 17.5075 27.3548 17.7249 27.3548 17.9516V18.8065H25.6452V17.9516C25.6452 17.7249 25.5551 17.5075 25.3948 17.3472C25.2345 17.1868 25.017 17.0968 24.7903 17.0968H17.0968V15.8444L22.4327 12.2875C23.5809 11.5204 24.9311 11.1116 26.3119 11.1129C28.2875 11.1106 30.2039 10.4383 31.7479 9.20576L33.1447 8.08848L34.6107 10.2888C35.4548 11.5518 35.9047 13.0371 35.9032 14.5562V17.0968H33.3387ZM32.4839 18.8065V21.371C32.4839 21.5977 32.3938 21.8151 32.2335 21.9754C32.0732 22.1357 31.8558 22.2258 31.629 22.2258H29.9194C29.6926 22.2258 29.4752 22.1357 29.3149 21.9754C29.1546 21.8151 29.0645 21.5977 29.0645 21.371V18.8065H32.4839ZM23.9355 18.8065V21.371C23.9355 21.5977 23.8454 21.8151 23.6851 21.9754C23.5248 22.1357 23.3074 22.2258 23.0806 22.2258H21.371C21.1443 22.2258 20.9268 22.1357 20.7665 21.9754C20.6062 21.8151 20.5161 21.5977 20.5161 21.371V18.8065H23.9355ZM39.3226 20.2597C39.323 20.4778 39.2742 20.6931 39.1798 20.8897C39.0853 21.0863 38.9477 21.259 38.7772 21.3949L37.2274 22.6344C37.4533 21.3704 37.5776 20.0903 37.5992 18.8065H37.8694C38.0602 18.8065 38.2492 18.844 38.4255 18.9171C38.6018 18.9901 38.762 19.0971 38.8969 19.2321C39.0319 19.367 39.1389 19.5272 39.212 19.7036C39.285 19.8799 39.3226 20.0688 39.3226 20.2597ZM14.1245 10.1589C14.322 9.665 14.4165 9.13595 14.4022 8.60421C14.3879 8.07247 14.2652 7.54926 14.0415 7.06667C13.8177 6.58408 13.4978 6.15228 13.1012 5.79777C12.7046 5.44326 12.2398 5.17352 11.7352 5.00508L11.4736 4.9196C15.4225 2.81137 19.8301 1.70889 24.3065 1.70968H31.5641C32.711 1.70989 33.841 1.98649 34.8583 2.51603C35.8757 3.04558 36.7505 3.81248 37.4086 4.75181C38.0667 5.69114 38.4888 6.77522 38.6391 7.91226C38.7894 9.0493 38.6635 10.2058 38.272 11.2839L37.5291 13.3269C37.3434 11.8996 36.8316 10.5342 36.0332 9.33655L34.0499 6.36086C33.9841 6.26229 33.8985 6.17849 33.7986 6.11477C33.6987 6.05105 33.5866 6.0088 33.4695 5.99071C33.3524 5.97303 33.233 5.97962 33.1186 6.01006C33.0042 6.0405 32.8972 6.09414 32.8044 6.16766L30.6802 7.87136C29.4391 8.861 27.8993 9.40097 26.3119 9.40323C24.5933 9.40167 22.9129 9.91042 21.4838 10.865L15.7675 14.6759C15.7145 14.7119 15.6657 14.7537 15.6222 14.8007L14.1997 11.9549C14.0611 11.6778 13.9827 11.3745 13.9698 11.065C13.9568 10.7554 14.0095 10.4466 14.1245 10.1589ZM14.2237 21.3966C13.9877 21.2088 13.8161 20.9522 13.7325 20.6624C13.6489 20.3726 13.6575 20.064 13.7572 19.7794C13.8569 19.4948 14.0426 19.2482 14.2887 19.0739C14.5348 18.8995 14.8291 18.8061 15.1306 18.8065H15.3991C15.4206 20.0909 15.5449 21.3715 15.7709 22.6361L14.2237 21.3966ZM17.1105 18.8065H18.8065V21.371C18.8065 22.0511 19.0766 22.7034 19.5576 23.1844C20.0385 23.6653 20.6908 23.9355 21.371 23.9355H23.0806C23.7608 23.9355 24.4131 23.6653 24.894 23.1844C25.375 22.7034 25.6452 22.0511 25.6452 21.371V20.5161H27.3548V21.371C27.3548 22.0511 27.625 22.7034 28.106 23.1844C28.5869 23.6653 29.2392 23.9355 29.9194 23.9355H31.629C32.3092 23.9355 32.9615 23.6653 33.4424 23.1844C33.9234 22.7034 34.1936 22.0511 34.1936 21.371V18.8065H35.8895C35.8232 22.7246 34.7293 26.5566 32.7172 29.9194H20.2828C18.2707 26.5566 17.1768 22.7246 17.1105 18.8065ZM11.1129 31.629H41.8871C42.5672 31.629 43.2195 31.8992 43.7005 32.3802C44.1814 32.8611 44.4516 33.5134 44.4516 34.1936V51.2903H8.54839V34.1936C8.54839 33.5134 8.81858 32.8611 9.29952 32.3802C9.78046 31.8992 10.4328 31.629 11.1129 31.629ZM1.70968 47.871C1.712 46.1388 2.19201 44.4409 3.09692 42.964C4.00183 41.487 5.29656 40.2882 6.83871 39.4995V51.2903H1.70968V47.871ZM51.2903 51.2903H46.1613V39.4995C47.7034 40.2883 48.9981 41.4871 49.903 42.964C50.8079 44.441 51.2879 46.1389 51.2903 47.871V51.2903Z" fill="#0449A9"></path><path d="M26.4975 48.7254C27.1738 48.7254 27.8349 48.5249 28.3972 48.1492C28.9595 47.7734 29.3977 47.2394 29.6566 46.6146C29.9154 45.9898 29.9831 45.3023 29.8511 44.639C29.7192 43.9757 29.3935 43.3664 28.9153 42.8882C28.4371 42.41 27.8279 42.0844 27.1646 41.9524C26.5013 41.8205 25.8138 41.8882 25.189 42.147C24.5641 42.4058 24.0301 42.8441 23.6544 43.4064C23.2787 43.9687 23.0781 44.6298 23.0781 45.3061C23.0781 46.2129 23.4384 47.0827 24.0796 47.7239C24.7209 48.3652 25.5906 48.7254 26.4975 48.7254ZM26.4975 43.5964C26.8356 43.5964 27.1662 43.6967 27.4473 43.8845C27.7285 44.0724 27.9476 44.3394 28.077 44.6518C28.2064 44.9642 28.2403 45.308 28.1743 45.6396C28.1083 45.9713 27.9455 46.2759 27.7064 46.515C27.4673 46.7541 27.1627 46.9169 26.831 46.9829C26.4994 47.0489 26.1556 47.015 25.8432 46.8856C25.5308 46.7562 25.2638 46.5371 25.0759 46.2559C24.8881 45.9748 24.7878 45.6442 24.7878 45.3061C24.7878 44.8526 24.9679 44.4178 25.2886 44.0971C25.6092 43.7765 26.044 43.5964 26.4975 43.5964Z" fill="#0449A9"></path><path d="M20.7673 40.7818L21.976 39.5731L19.1611 36.7581L21.976 33.9431L20.7673 32.7344L17.3479 36.1537C17.1877 36.314 17.0977 36.5314 17.0977 36.7581C17.0977 36.9848 17.1877 37.2022 17.3479 37.3625L20.7673 40.7818Z" fill="#0449A9"></path><path d="M32.2322 40.7818L35.6515 37.3625C35.8118 37.2022 35.9018 36.9848 35.9018 36.7581C35.9018 36.5314 35.8118 36.314 35.6515 36.1537L32.2322 32.7344L31.0234 33.9431L33.8384 36.7581L31.0234 39.5731L32.2322 40.7818Z" fill="#0449A9"></path><path d="M28.3804 32.8263L23.25 39.6641L24.6175 40.6901L29.7479 33.8524L28.3804 32.8263Z" fill="#0449A9"></path></svg>