<svg xmlns="http://www.w3.org/2000/svg" width="59" height="59" viewBox="0 0 59 59" fill="none"><path d="M58.6405 30.3336C58.2719 29.8107 57.672 29.4998 57.0324 29.5H51.1334V21.6333C51.1321 20.5477 50.2524 19.6679 49.1667 19.6666H47.2V11.8C47.1987 10.7144 46.3189 9.83456 45.2333 9.83329H42.2833V6.8833C42.282 5.79767 41.4023 4.91786 40.3166 4.91659H37.3666V1.96659C37.3654 0.880967 36.4856 0.00126758 35.4 0H11.8C10.7144 0.00126758 9.83456 0.880967 9.83329 1.9667V19.6667H0.983295C0.923719 19.6728 0.864949 19.6847 0.807678 19.7021C0.753633 19.7054 0.699934 19.7135 0.647156 19.7262C0.639436 19.729 0.634596 19.7355 0.62699 19.7384C0.557619 19.7701 0.492396 19.8098 0.432475 19.857C0.387072 19.8827 0.343744 19.9118 0.303066 19.9443C0.260775 19.9917 0.223324 20.0432 0.191289 20.0979C0.152109 20.1456 0.117539 20.1969 0.0880391 20.2511C0.0707539 20.3022 0.0576172 20.3548 0.0488594 20.408C0.0258125 20.4785 0.0111777 20.5516 0.00495508 20.6256C0.00472461 20.6341 0 20.6411 0 20.6499V58.0166C0 58.0293 0.00679883 58.0399 0.00725977 58.0527C0.00979492 58.1681 0.0328418 58.2821 0.075248 58.3895C0.0803184 58.4019 0.0885 58.4123 0.0940313 58.4244C0.117539 58.4798 0.146232 58.5331 0.179535 58.5832C0.205693 58.6164 0.234041 58.6477 0.264348 58.6771C0.279443 58.6937 0.29235 58.7105 0.308482 58.726C0.387303 58.801 0.478223 58.8622 0.577324 58.9071C0.597836 58.9165 0.618693 58.9227 0.640012 58.9307C0.749254 58.9744 0.865525 58.9979 0.98318 59H47.9015C48.7325 58.9986 49.4735 58.4763 49.7539 57.694L58.8848 32.1284C59.1001 31.5259 59.009 30.8564 58.6405 30.3336ZM47.2 21.6333H49.1667V29.5H47.2V21.6333ZM45.2333 11.8V29.5H38.9837C41.9072 27.1461 43.0278 23.2041 41.7798 19.6642C40.5318 16.1244 37.1867 13.7568 33.4334 13.7568C29.6801 13.7568 26.3349 16.1244 25.087 19.6642C23.839 23.2039 24.9597 27.146 27.8831 29.5H21.6335V11.8H45.2333ZM33.4333 25.5667C34.2165 25.5524 34.978 25.8241 35.5752 26.3311C36.0737 26.7207 36.3704 27.3138 36.3833 27.9463V28.8263C34.5191 29.7245 32.3474 29.7245 30.4833 28.8263V27.9463C30.6586 26.4843 31.9674 25.4285 33.4333 25.5667ZM31.4667 21.6333C31.4667 20.5471 32.3472 19.6666 33.4334 19.6666C34.5196 19.6666 35.4001 20.5471 35.4001 21.6333C35.4001 22.7195 34.5196 23.6 33.4334 23.6C32.3477 23.5987 31.4679 22.719 31.4667 21.6333ZM36.233 24.3896C37.7541 22.8489 37.7442 20.3686 36.2109 18.84C34.6776 17.3114 32.1973 17.3092 30.6613 18.8352C29.1254 20.3611 29.1111 22.8413 30.6295 24.3846C29.5056 25.0484 28.7469 26.1895 28.5696 27.4826C26.5989 25.5147 26.0081 22.5532 27.0729 19.9798C28.1378 17.4064 30.6485 15.7282 33.4335 15.7285C36.2185 15.7287 38.7291 17.407 39.7938 19.9805C40.8584 22.554 40.2674 25.5154 38.2964 27.4832C38.1691 26.4496 37.6534 25.5032 36.8539 24.8359C36.6593 24.6708 36.4516 24.5215 36.233 24.3896ZM40.3167 6.8833V9.83329H21.6333C20.5477 9.83456 19.6679 10.7144 19.6666 11.8V29.5H16.7166V6.8833H40.3167ZM11.8 1.9667H35.4V4.91671H16.7167C15.6311 4.91797 14.7513 5.79767 14.75 6.88341V29.5H11.8V1.9667ZM9.83329 21.6333V29.6503L5.56144 30.3624L2.38731 21.6334L9.83329 21.6333ZM1.9667 26.2322L3.71297 31.0346C4.03689 31.9255 4.95024 32.4584 5.88514 32.3022L9.32788 31.7284L1.9667 52.3398V26.2322ZM47.9015 57.0333H2.37867L11.5095 31.4666H57.0323L47.9015 57.0333Z" fill="#048DEF"></path><path d="M21.6338 41.1596V43.266C21.6355 44.8945 22.9553 46.2143 24.5838 46.216H38.3505C39.979 46.2143 41.2988 44.8945 41.3005 43.266V41.1596C43.2178 40.6679 44.469 38.8257 44.2191 36.8622C43.9693 34.8987 42.2965 33.4285 40.3172 33.4327C38.3378 33.4285 36.6651 34.8987 36.4152 36.8622C36.1654 38.8257 37.4166 40.6681 39.3339 41.1596V43.266C39.3333 43.8089 38.8934 44.2488 38.3506 44.2493H24.5838C24.0409 44.2487 23.6009 43.8089 23.6005 43.266V41.1596C25.5183 40.6645 26.7687 38.8205 26.5191 36.8556C26.2695 34.8908 24.5978 33.418 22.6172 33.418C20.6365 33.418 18.9648 34.8908 18.7152 36.8556C18.4656 38.8205 19.7161 40.6644 21.6338 41.1596ZM38.4176 36.8469C38.6479 35.9871 39.4271 35.3893 40.3172 35.3893C41.2073 35.3893 41.9865 35.9871 42.2168 36.8469C42.4472 37.7066 42.0714 38.614 41.3005 39.059V38.3493C41.3005 37.8062 40.8603 37.366 40.3172 37.366C39.7741 37.366 39.3339 37.8063 39.3339 38.3493V39.059C38.563 38.614 38.1871 37.7066 38.4176 36.8469ZM22.269 35.4203C23.2095 35.2511 24.1356 35.7826 24.4639 36.68C24.7922 37.5775 24.428 38.5812 23.6004 39.059V38.3493C23.6004 37.8062 23.1602 37.366 22.6171 37.366C22.074 37.366 21.6338 37.8063 21.6338 38.3493V39.059C21.0274 38.7105 20.6528 38.0653 20.6505 37.3659C20.6456 36.4104 21.3284 35.5894 22.269 35.4203Z" fill="#048DEF"></path></svg>