<svg xmlns="http://www.w3.org/2000/svg" width="85" height="77" viewBox="0 0 85 77" fill="none"><path d="M59.1971 58.899L49.3527 55.5115V53.9354C51.6259 52.2003 53.2418 49.6374 53.7318 46.6788C55.4752 46.5364 56.851 45.0728 56.851 43.2914C56.851 42.2367 56.3676 41.293 55.6126 40.6688C55.6656 40.5248 55.6971 40.3692 55.6971 40.2069V35.6308C55.6971 29.0182 50.3179 23.6391 43.707 23.6391H41.0547C34.4454 23.6391 29.068 29.0182 29.068 35.6308V40.2069C29.068 40.3692 29.0978 40.5232 29.1508 40.6655C28.3925 41.2897 27.9074 42.2334 27.9074 43.2897C27.9074 45.0712 29.2849 46.5364 31.0315 46.6771C31.5216 49.6357 33.1375 52.1986 35.4123 53.9337V55.5099L25.563 58.8973C23.3147 59.6688 21.8627 61.7003 21.8627 64.0728V72.9618C21.8627 74.4883 23.0812 76.1903 24.8296 76.1903H59.9338C61.6788 76.1903 62.8957 74.4883 62.8957 72.9618V64.0728C62.8974 61.7019 61.4454 59.6705 59.1971 58.899ZM41.0564 26.2897H43.7087C48.861 26.2897 53.053 30.4818 53.053 35.6341V39.8957H52.6126C52.5448 39.8957 52.4901 39.841 52.4901 39.7732V36.7417C52.4901 35.8046 51.8941 34.9718 51.0116 34.6689C49.9951 34.3195 48.4852 33.3576 47.6424 32.5232C47.207 32.0927 46.606 31.8642 45.9968 31.894C45.3875 31.9238 44.813 32.2103 44.4289 32.6738C41.2766 36.4155 37.6425 36.2384 35.1491 35.4304C34.4835 35.2136 33.7484 35.3295 33.1839 35.7401C32.6176 36.1506 32.2815 36.8146 32.2815 37.5149V39.6804C32.2567 39.8013 32.1971 39.894 32.1541 39.894H31.717V35.6324C31.717 30.4818 35.9057 26.2897 41.0564 26.2897ZM33.5398 45.293C33.5001 44.5927 32.9206 44.0447 32.2186 44.0447H31.308C30.9008 44.0447 30.5564 43.7003 30.5564 43.293C30.5564 42.8857 30.9008 42.5414 31.308 42.5414H32.1524C33.5928 42.5414 34.7567 41.4354 34.919 39.9122C34.9239 39.8659 34.9256 39.8195 34.9256 39.7715V38.1242C37.6441 38.8609 42.1888 39.1291 46.1358 34.7384C47.1805 35.6689 48.6325 36.5778 49.8411 37.0563V39.7715C49.8411 41.298 51.0828 42.5397 52.6093 42.5397H53.4537C53.861 42.5397 54.2053 42.8841 54.2053 43.2914C54.2053 43.6987 53.861 44.043 53.4537 44.043H52.5481C51.8461 44.043 51.2666 44.591 51.2269 45.2914C51.0646 48.1407 49.5613 50.6142 47.3527 52.1142C47.308 52.1407 47.265 52.1705 47.2236 52.2019C45.8279 53.1159 44.164 53.6457 42.3825 53.6457C40.6226 53.6457 38.9752 53.1291 37.5911 52.2367C37.5183 52.1755 37.4405 52.1225 37.356 52.0778C35.1789 50.5728 33.7004 48.1175 33.5398 45.293ZM42.3842 56.293C43.9107 56.293 45.3693 55.9917 46.707 55.4486V56.2947C46.6938 56.3278 46.6805 56.3609 46.6706 56.394C45.9372 58.6937 43.9752 59.5132 42.3842 59.5132C40.7931 59.5132 38.8312 58.6937 38.0978 56.394C38.0961 56.389 38.0945 56.3824 38.0928 56.3774C38.0845 56.3509 38.0729 56.3261 38.063 56.2996V55.4503C39.3991 55.9917 40.8577 56.293 42.3842 56.293ZM60.2517 72.9635C60.2517 73.2185 60.0365 73.5032 59.9239 73.5463H24.8428C24.7302 73.5065 24.5117 73.2218 24.5117 72.9635V64.0744C24.5117 62.8311 25.2451 61.8079 26.4256 61.4023L35.9438 58.1291C37.1176 60.6059 39.5514 62.1589 42.3842 62.1589C45.2153 62.1589 47.6458 60.6109 48.8246 58.1291L58.3378 61.4023C59.5182 61.8079 60.25 62.8311 60.25 64.0744V72.9635H60.2517ZM40.7733 19.0265C41.217 19.4702 41.8014 19.6937 42.3842 19.6937C42.967 19.6937 43.5514 19.4719 43.9968 19.0265L51.3494 11.6689C52.6358 10.3841 53.3461 8.67056 53.3461 6.84275C53.3477 5.01163 52.6375 3.29475 51.351 2.00667C49.9719 0.624221 48.1805 -0.0860427 46.3064 0.00832803C44.9189 0.0778643 43.5597 0.579519 42.3858 1.44376C41.2103 0.577863 39.8527 0.0762087 38.4637 0.00832803C36.5911 -0.084387 34.7964 0.624221 33.4157 2.00501C33.4157 2.00501 33.4157 2.00501 33.414 2.00667C30.7534 4.67223 30.7534 9.00666 33.4157 11.6672L40.7733 19.0265ZM35.2865 3.87587C36.1441 3.01826 37.1971 2.59442 38.3312 2.65071C39.4488 2.70534 40.5564 3.22852 41.4487 4.1209C41.6971 4.36925 42.0332 4.50832 42.3842 4.50832C42.7352 4.50832 43.0713 4.36925 43.3196 4.1209C44.212 3.22852 45.3179 2.707 46.4355 2.65071C47.5696 2.59442 48.6209 3.01826 49.4769 3.87587C50.265 4.66395 50.6987 5.71693 50.6971 6.83944C50.6971 7.9603 50.2633 9.00997 49.4752 9.79473L42.3842 16.8957L35.2849 9.79639C33.6557 8.16725 33.6557 5.51163 35.2865 3.87587ZM18.4604 41.0728L13.6558 41.0811L12.1806 36.5149C11.9124 35.6755 11.1392 35.1093 10.2551 35.1059H10.2485C9.36272 35.1059 8.58623 35.6705 8.31305 36.5116L6.83789 41.0811L2.0316 41.0728C1.14584 41.0728 0.369355 41.6407 0.0978328 42.4851C-0.172034 43.3278 0.12929 44.24 0.842865 44.75L4.73193 47.5662L3.2369 52.1357C2.96538 52.9751 3.26339 53.889 3.98028 54.4072C4.69551 54.9254 5.65577 54.9254 6.371 54.4056L10.2501 51.5728L14.1309 54.4056C14.4885 54.6655 14.9074 54.7963 15.3263 54.7963C15.7468 54.7963 16.1657 54.6655 16.525 54.4039C17.2402 53.8824 17.5332 52.9668 17.2567 52.1324L15.7634 47.5662L19.6541 44.7516C20.3693 44.2367 20.6673 43.3245 20.3958 42.4834C20.1243 41.639 19.3478 41.0728 18.4604 41.0728ZM13.8495 45.6837C13.1375 46.1986 12.8379 47.1092 13.1077 47.9619L14.1475 51.1423L11.4422 49.1672C10.7286 48.6523 9.77 48.6523 9.05146 49.1705L6.34451 51.1457L7.38424 47.9685C7.6657 47.1241 7.36934 46.2069 6.64749 45.6854L3.93889 43.7235L7.28325 43.7301C8.17398 43.7301 8.95212 43.1639 9.21868 42.3261L10.2468 39.1424L11.2799 42.3377C11.5581 43.1705 12.3346 43.7301 13.2137 43.7301L16.5597 43.7235L13.8495 45.6837ZM82.4967 40.2715H78.5828C77.4967 40.2715 76.5894 41.0381 76.3676 42.0596L75.5331 41.8311C74.5745 41.5662 73.9553 40.7549 73.9553 39.7649V37.7285C73.9553 36.4338 73.4636 35.6258 73.053 35.1755C72.4868 34.5563 71.6854 34.2003 70.8543 34.2003C69.3609 34.2003 67.7749 35.3841 67.7749 37.5778V40.9669C67.7749 41.0298 67.7202 41.0844 67.6573 41.0844H64.5828C63.0894 41.0844 61.8742 42.2996 61.8742 43.793C61.8742 44.144 61.9421 44.4801 62.0646 44.7864C61.654 45.2616 61.4057 45.8808 61.4057 46.5563C61.4057 47.3096 61.7136 47.9917 62.2103 48.4834C62.1226 48.7483 62.0762 49.0314 62.0762 49.3261C62.0762 49.9668 62.2997 50.5563 62.6739 51.0215C62.5315 51.351 62.452 51.7135 62.452 52.096C62.452 53.5894 63.6639 54.8046 65.1557 54.8046H72.7815C73.7633 54.8046 74.6159 54.6473 75.5431 54.298L76.4056 53.9735C76.6788 54.9188 77.5497 55.6125 78.5828 55.6125H82.4967C83.7483 55.6125 84.7682 54.596 84.7682 53.346V42.543C84.7682 41.2881 83.7483 40.2715 82.4967 40.2715ZM74.6076 51.8162C73.9835 52.0529 73.4371 52.1523 72.7798 52.1523H65.154C65.1259 52.1523 65.0977 52.1208 65.0977 52.091C65.0977 52.0612 65.1259 52.0298 65.154 52.0298C65.8858 52.0298 66.4768 51.437 66.4768 50.7069C66.4768 49.9768 65.8841 49.3841 65.154 49.3841H64.7831C64.7533 49.3841 64.7219 49.3526 64.7219 49.3228C64.7219 49.293 64.7533 49.2616 64.7831 49.2616C65.5133 49.2616 66.106 48.6688 66.106 47.9387C66.106 47.2086 65.5133 46.6159 64.7831 46.6159H64.1076C64.0795 46.6159 64.0514 46.5844 64.0514 46.5546C64.0514 46.5248 64.0795 46.4933 64.1076 46.4933H64.5812C65.3129 46.4933 65.904 45.9006 65.904 45.1705C65.904 44.4404 65.3113 43.8477 64.5812 43.8477C64.5514 43.8477 64.5199 43.8195 64.5199 43.7914C64.5199 43.7566 64.5514 43.7301 64.5812 43.7301H67.6557C69.1805 43.7301 70.4205 42.49 70.4205 40.9652V37.5761C70.4205 37.1324 70.5911 36.8444 70.8527 36.8444C70.947 36.8444 71.0282 36.8824 71.0977 36.9569C71.2318 37.1026 71.308 37.3824 71.308 37.7251V39.7616C71.308 41.9404 72.7219 43.7963 74.8295 44.3791L76.3146 44.7864V51.1721L74.6076 51.8162ZM82.1209 52.9602H78.9619V42.9172H82.1209V52.9602Z" fill="#0458B9"></path></svg>