<svg xmlns="http://www.w3.org/2000/svg" width="74" height="76" viewBox="0 0 74 76" fill="none"><path d="M35.1537 70.7955C35.1537 71.1206 35.0245 71.4324 34.7946 71.6623C34.5648 71.8922 34.253 72.0213 33.9279 72.0213H28.3727C28.0476 72.0213 27.7358 71.8922 27.5059 71.6623C27.276 71.4324 27.1469 71.1206 27.1469 70.7955C27.1469 70.4704 27.276 70.1586 27.5059 69.9288C27.7358 69.6989 28.0476 69.5697 28.3727 69.5697H33.9279C34.253 69.5697 34.5648 69.6989 34.7946 69.9288C35.0245 70.1586 35.1537 70.4704 35.1537 70.7955ZM67.801 41.9328C67.9493 42.4969 67.8694 43.0967 67.5788 43.6024C67.2881 44.108 66.81 44.4789 66.2479 44.6347L64.9478 44.9805C64.3836 45.1314 63.7827 45.0522 63.2768 44.7604C62.7709 44.4686 62.4015 43.9881 62.2495 43.4242L62.0695 42.7521C59.428 41.9151 56.6147 41.7768 53.9039 42.3508L55.6611 48.9132C55.7028 49.0687 55.7135 49.2309 55.6925 49.3906C55.6715 49.5502 55.6192 49.7042 55.5387 49.8436C55.4582 49.9831 55.351 50.1053 55.2233 50.2033C55.0955 50.3013 54.9497 50.3732 54.7942 50.4148L52.5018 51.0286V69.7965C52.4999 71.4413 51.8457 73.0181 50.6826 74.1811C49.5196 75.3441 47.9427 75.9982 46.2979 76H16.0024C14.3577 75.9982 12.7809 75.344 11.6179 74.181C10.4549 73.0181 9.80066 71.4412 9.79879 69.7965V36.1962H4.579C3.365 36.1948 2.20111 35.712 1.34268 34.8535C0.48425 33.9951 0.00137886 32.8312 0 31.6172V20.493C0.00137886 19.279 0.48425 18.1151 1.34268 17.2567C2.20111 16.3983 3.365 15.9154 4.579 15.914H9.79879V10.7728C9.80066 9.12812 10.4549 7.5513 11.6179 6.38832C12.7809 5.22533 14.3577 4.57117 16.0024 4.56935H41.0898C41.0936 3.35705 41.5776 2.19564 42.4357 1.33928C43.2938 0.482927 44.4562 0.0013717 45.6685 0H59.5849C60.7989 0.00133831 61.9629 0.484192 62.8213 1.34263C63.6798 2.20106 64.1627 3.36497 64.1641 4.579V15.7032C64.1633 16.9178 63.6808 18.0825 62.8223 18.9418C61.9639 19.801 60.7997 20.2847 59.5851 20.2866H52.5018V29.6113C54.4161 28.7253 56.1343 27.4659 57.5554 25.907L57.3756 25.236C57.2256 24.6708 57.306 24.0693 57.599 23.5633C57.892 23.0573 58.3737 22.6882 58.9385 22.5369L60.2256 22.1903C60.7911 22.0399 61.3932 22.12 61.8997 22.413C62.4062 22.706 62.7758 23.188 62.9274 23.7532L64.328 28.979C65.2225 29.0124 66.0827 29.3315 66.7827 29.8894C67.4826 30.4473 67.9855 31.2147 68.2175 32.0792C68.4488 32.9435 68.397 33.8592 68.0698 34.692C67.7427 35.5248 67.1573 36.2309 66.3995 36.7066L67.801 41.9328ZM65.0485 31.6635L65.6806 34.0213C65.7939 33.8255 65.8674 33.6092 65.8966 33.3848C65.9258 33.1604 65.9101 32.9325 65.8506 32.7142C65.7328 32.2716 65.4444 31.8938 65.0485 31.6635ZM50.8918 40.5797L48.9625 33.3749L43.3231 34.8861C43.1837 34.9251 43.0653 35.0174 42.9934 35.143C42.9216 35.2686 42.902 35.4174 42.9391 35.5573L44.5852 41.7027C44.623 41.8429 44.7148 41.9625 44.8405 42.0353C44.9662 42.108 45.1156 42.1281 45.256 42.0911L50.8918 40.5797ZM43.5411 15.7026C43.5411 16.2672 43.7652 16.8087 44.164 17.2084C44.5628 17.6081 45.1039 17.8332 45.6685 17.8344H47.0935C47.4186 17.8344 47.7304 17.9636 47.9603 18.1934C48.1902 18.4233 48.3193 18.7351 48.3193 19.0602V19.8653L49.883 18.2166C49.9975 18.0958 50.1355 17.9997 50.2884 17.934C50.4413 17.8683 50.606 17.8344 50.7724 17.8344H59.5852C60.1498 17.8332 60.6909 17.608 61.0896 17.2083C61.4884 16.8087 61.7124 16.2672 61.7125 15.7026V4.57839C61.7117 4.01445 61.4872 3.47385 61.0884 3.07516C60.6895 2.67646 60.1489 2.45222 59.5849 2.45161H45.6685C45.1045 2.45226 44.5637 2.67661 44.1649 3.07543C43.7661 3.47425 43.5418 4.01498 43.5411 4.579V15.7026ZM26.695 7.02096C27.0687 7.43911 27.4444 7.70542 27.8819 7.70542H34.7273C35.0965 7.70542 35.3356 7.53074 35.7025 7.02096H26.695ZM4.579 33.7446H13.3919C13.5585 33.7447 13.7233 33.7787 13.8763 33.8445C14.0293 33.9104 14.1672 34.0067 14.2817 34.1277L15.8446 35.7778V34.9707C15.8446 34.6456 15.9738 34.3338 16.2037 34.104C16.4335 33.8741 16.7453 33.7449 17.0704 33.7449H18.4954C19.0594 33.7443 19.6002 33.5199 19.999 33.1211C20.3978 32.7223 20.6222 32.1816 20.6228 31.6175V20.4933C20.6222 19.9293 20.3978 19.3886 19.999 18.9898C19.6002 18.5909 19.0594 18.3666 18.4954 18.366H4.579C4.01498 18.3666 3.47425 18.5909 3.07543 18.9898C2.67661 19.3886 2.45226 19.9293 2.45161 20.4933V31.6175C2.45234 32.1815 2.67672 32.7222 3.07554 33.1209C3.47435 33.5197 4.01503 33.744 4.579 33.7446ZM12.2504 36.1962V65.5868H17.4826V55.5198C17.4826 51.4574 21.0001 48.1523 25.3235 48.1523H26.3807C25.9475 47.6825 25.561 47.1716 25.2269 46.6268C24.0137 44.6577 23.2893 41.9993 23.2893 39.514C23.2989 37.2265 24.2143 35.0359 25.8353 33.4218C27.4562 31.8077 29.6506 30.9014 31.9382 30.9014C34.2257 30.9014 36.4201 31.8077 38.041 33.4218C39.662 35.0359 40.5774 37.2265 40.5871 39.514C40.5871 42.6925 39.5269 45.9883 37.4997 48.1523H38.5533C42.8767 48.1523 46.3942 51.4574 46.3942 55.5198V65.5868H50.0497V50.1523L47.213 44.1044L45.8899 44.4592C45.6357 44.5274 45.3737 44.562 45.1106 44.5622C44.4505 44.5604 43.8094 44.3412 43.2863 43.9387C42.7632 43.5362 42.3871 42.9726 42.2162 42.3351L40.5704 36.1907C40.3671 35.4237 40.4752 34.6074 40.871 33.9196C41.2669 33.2319 41.9184 32.7285 42.6838 32.519L49.5119 30.6891C49.6934 30.6404 49.8719 30.5883 50.0497 30.5359V21.6028L47.9834 23.7825C47.8147 23.9604 47.5966 24.0836 47.3572 24.1362C47.1177 24.1889 46.868 24.1685 46.6403 24.0778C46.4125 23.987 46.2172 23.8301 46.0796 23.6272C45.9419 23.4244 45.8683 23.1849 45.8681 22.9397V20.286H45.669C44.4544 20.2841 43.2901 19.8004 42.4317 18.9411C41.5733 18.0819 41.0907 16.9172 41.09 15.7026V7.02096H39.1184C38.9782 7.01573 38.839 7.04684 38.7144 7.11128C38.5898 7.17571 38.4839 7.27128 38.4071 7.3887C38.3072 7.52998 38.2079 7.68274 38.1042 7.8444C37.5094 8.76559 36.6104 10.1581 34.7273 10.1581H27.8819C25.8346 10.1581 24.6658 8.48457 23.9674 7.48477L23.8982 7.38548C23.8201 7.26949 23.7138 7.17527 23.5893 7.11169C23.4648 7.0481 23.3262 7.01725 23.1864 7.02203H16.0024C15.008 7.02333 14.0547 7.41891 13.3515 8.12203C12.6483 8.82515 12.2526 9.77843 12.2512 10.7728V15.9145H18.4962C19.7102 15.9159 20.8741 16.3987 21.7325 17.2572C22.5909 18.1156 23.0738 19.2795 23.0752 20.4935V31.6177C23.0738 32.8317 22.5909 33.9956 21.7325 34.854C20.8741 35.7124 19.7102 36.1953 18.4962 36.1967H18.297V38.8535C18.2969 39.0987 18.2233 39.3382 18.0856 39.5412C17.948 39.7441 17.7526 39.9011 17.5248 39.9918C17.297 40.0826 17.0472 40.1029 16.8077 40.0502C16.5683 39.9975 16.3501 39.8742 16.1814 39.6962L12.8641 36.1962H12.2504ZM40.9609 59.3114V65.5868H43.943V55.5198C43.943 52.8091 41.5254 50.6039 38.5538 50.6039H25.3235C22.3518 50.6039 19.9342 52.8091 19.9342 55.5198V65.5868H22.9119V59.3114C22.9119 58.9863 23.041 58.6745 23.2709 58.4446C23.5008 58.2148 23.8126 58.0856 24.1377 58.0856C24.4628 58.0856 24.7746 58.2148 25.0044 58.4446C25.2343 58.6745 25.3635 58.9863 25.3635 59.3114V65.5868H38.5093V59.3114C38.5093 58.9863 38.6385 58.6745 38.8684 58.4446C39.0982 58.2148 39.41 58.0856 39.7351 58.0856C40.0602 58.0856 40.372 58.2148 40.6019 58.4446C40.8318 58.6745 40.9609 58.9863 40.9609 59.3114ZM31.9387 48.152C35.536 48.152 37.3336 44.7884 37.9163 41.7318C35.4312 41.424 33.1132 40.8108 30.2204 38.7039L25.8901 41.3259C26.3867 44.4824 28.1811 48.152 31.9387 48.152ZM29.6619 36.1766C29.875 36.0476 30.1224 35.9866 30.3711 36.0017C30.6197 36.0168 30.8579 36.1073 31.0538 36.2612C33.7812 38.4024 35.7707 38.9911 38.1302 39.2892C38.0743 37.7547 37.4505 36.2956 36.3798 35.1948C35.3091 34.0941 33.8678 33.4302 32.3354 33.3318C30.803 33.2334 29.2886 33.7075 28.0859 34.6623C26.8833 35.6171 26.078 36.9844 25.8262 38.4992L29.6619 36.1766ZM50.0501 69.7971V68.0384H12.2512V69.7965C12.2523 70.7911 12.6479 71.7447 13.3511 72.448C14.0543 73.1514 15.0078 73.5471 16.0024 73.5484H46.2979C47.2927 73.5473 48.2464 73.1517 48.9499 72.4483C49.6533 71.745 50.049 70.7913 50.0501 69.7965V69.7971ZM52.9758 48.3637L51.526 42.9486L49.619 43.4599L52.0369 48.6152L52.9758 48.3637ZM61.3371 40.0195L58.2891 28.645C56.2933 30.4943 53.9141 31.8807 51.3211 32.7054L53.2697 39.9812C55.93 39.4109 58.6822 39.4238 61.3371 40.0189V40.0195ZM65.3698 42.3323L60.623 24.6217L59.808 24.8413L64.5531 42.549L65.3698 42.3323ZM73.2781 30.7178C73.1938 30.4038 72.9883 30.1362 72.7067 29.9737C72.4251 29.8113 72.0905 29.7673 71.7765 29.8516L69.8826 30.3599C69.7264 30.4009 69.5798 30.4724 69.4513 30.5703C69.3228 30.6681 69.2149 30.7904 69.1339 30.9301C69.0528 31.0698 69.0001 31.2242 68.9789 31.3843C68.9577 31.5444 68.9683 31.7072 69.0101 31.8632C69.052 32.0192 69.1243 32.1653 69.2228 32.2933C69.3214 32.4213 69.4443 32.5285 69.5844 32.6089C69.7245 32.6892 69.8791 32.7411 70.0394 32.7614C70.1996 32.7818 70.3623 32.7703 70.518 32.7277L72.4118 32.2194C72.5673 32.1777 72.7131 32.1058 72.8408 32.0077C72.9685 31.9096 73.0756 31.7874 73.1561 31.6479C73.2365 31.5084 73.2887 31.3545 73.3096 31.1948C73.3306 31.0352 73.3199 30.873 73.2781 30.7175V30.7178ZM71.8891 36.193L70.1908 35.2156C69.909 35.0534 69.5743 35.0099 69.2604 35.0945C68.9465 35.1791 68.6791 35.3849 68.5169 35.6667C68.3548 35.9485 68.3112 36.2831 68.3958 36.597C68.4804 36.9109 68.6862 37.1784 68.968 37.3405L70.6664 38.3178C70.9479 38.4761 71.2805 38.5168 71.5919 38.4312C71.9033 38.3456 72.1684 38.1406 72.3295 37.8607C72.4906 37.5807 72.5347 37.2485 72.4522 36.9363C72.3698 36.624 72.1674 36.3569 71.8891 36.193ZM66.6814 28.8218C66.9629 28.9844 67.2974 29.0286 67.6115 28.9446C67.9255 28.8606 68.1933 28.6553 68.356 28.3739L69.3377 26.6757C69.4183 26.5363 69.4706 26.3824 69.4917 26.2228C69.5128 26.0632 69.5022 25.901 69.4606 25.7455C69.419 25.59 69.3472 25.4442 69.2493 25.3164C69.1513 25.1886 69.0292 25.0814 68.8898 25.0009C68.6083 24.8382 68.2737 24.794 67.9596 24.878C67.6455 24.962 67.3776 25.1673 67.215 25.4488L66.2334 27.147C66.1528 27.2864 66.1005 27.4403 66.0794 27.5999C66.0584 27.7595 66.0689 27.9217 66.1105 28.0772C66.1521 28.2327 66.224 28.3785 66.3219 28.5063C66.4199 28.634 66.542 28.7412 66.6814 28.8218ZM14.2364 32.1439L11.5368 30.8159L8.83316 32.144C8.63288 32.2424 8.40953 32.2843 8.18719 32.2651C7.96486 32.246 7.75197 32.1665 7.5715 32.0352C7.39103 31.9039 7.24981 31.7259 7.16308 31.5203C7.07635 31.3147 7.04739 31.0893 7.07934 30.8684L7.51006 27.8908L5.41086 25.7303C5.25533 25.5702 5.14646 25.3707 5.09599 25.1533C5.04552 24.9359 5.05536 24.7088 5.12446 24.4966C5.19355 24.2844 5.31928 24.095 5.48808 23.949C5.65688 23.803 5.86234 23.7058 6.0823 23.668L9.04875 23.1579L10.4525 20.4952C10.5565 20.2977 10.7125 20.1325 10.9036 20.0172C11.0947 19.9019 11.3137 19.841 11.5368 19.841C11.76 19.841 11.979 19.9019 12.1701 20.0172C12.3611 20.1325 12.5171 20.2977 12.6212 20.4952L14.0248 23.1578L16.9915 23.6679C17.2115 23.7057 17.4169 23.8029 17.5857 23.9489C17.7545 24.0949 17.8803 24.2842 17.9494 24.4965C18.0185 24.7087 18.0283 24.9357 17.9778 25.1531C17.9273 25.3706 17.8185 25.5701 17.663 25.7301L15.5638 27.8906L15.9908 30.8692C16.0225 31.09 15.9933 31.3153 15.9064 31.5207C15.8195 31.7261 15.6781 31.904 15.4976 32.0351C15.3171 32.1661 15.1043 32.2454 14.882 32.2645C14.6598 32.2835 14.4365 32.2416 14.2364 32.1431V32.1439ZM13.385 26.6153L14.2839 25.6905L13.0142 25.4721C12.8291 25.4403 12.6537 25.3663 12.5017 25.256C12.3497 25.1456 12.2251 25.0018 12.1375 24.8356L11.5367 23.6958L10.9357 24.8356C10.8481 25.0018 10.7235 25.1456 10.5715 25.256C10.4195 25.3663 10.2441 25.4403 10.059 25.4721L8.78949 25.6903L9.68831 26.6153C9.81908 26.7499 9.91718 26.9128 9.97507 27.0913C10.033 27.2698 10.0491 27.4593 10.0222 27.645L9.83832 28.9189L10.9967 28.35C11.165 28.2673 11.35 28.2243 11.5374 28.2243C11.7249 28.2243 11.9099 28.2673 12.0782 28.35L13.2343 28.9186L13.0515 27.6432C13.0248 27.4577 13.0411 27.2687 13.0989 27.0905C13.1567 26.9123 13.2546 26.7498 13.385 26.6153ZM47.4625 14.3487H57.7913C58.1164 14.3487 58.4282 14.2195 58.658 13.9896C58.8879 13.7598 59.0171 13.448 59.0171 13.1229C59.0171 12.7978 58.8879 12.486 58.658 12.2561C58.4282 12.0262 58.1164 11.8971 57.7913 11.8971H47.4625C47.1374 11.8971 46.8256 12.0262 46.5957 12.2561C46.3658 12.486 46.2367 12.7978 46.2367 13.1229C46.2367 13.448 46.3658 13.7598 46.5957 13.9896C46.8256 14.2195 47.1374 14.3487 47.4625 14.3487ZM47.4625 8.38513H57.7913C58.1164 8.38513 58.4282 8.25598 58.658 8.0261C58.8879 7.79622 59.0171 7.48443 59.0171 7.15932C59.0171 6.83422 58.8879 6.52243 58.658 6.29255C58.4282 6.06266 58.1164 5.93352 57.7913 5.93352H47.4625C47.1374 5.93352 46.8256 6.06266 46.5957 6.29255C46.3658 6.52243 46.2367 6.83422 46.2367 7.15932C46.2367 7.48443 46.3658 7.79622 46.5957 8.0261C46.8256 8.25598 47.1374 8.38513 47.4625 8.38513Z" fill="#048DEF"></path></svg>