<svg xmlns="http://www.w3.org/2000/svg" width="59" height="59" viewBox="0 0 59 59" fill="none"><path d="M6.27589 39.3852L4.07478 40.0971L2.2015 34.3648L0.421875 34.9456L2.29516 40.6684C2.44502 41.1461 2.78222 41.5395 3.22244 41.7643C3.66266 41.9891 4.16845 42.0359 4.6555 41.8767L6.85661 41.1649C7.88692 43.0475 9.15139 44.799 10.6406 46.382L9.28252 48.2552C8.98279 48.658 8.86103 49.1544 8.93596 49.6415C9.01089 50.1379 9.28252 50.5781 9.68527 50.8778L14.228 54.1748C14.6401 54.4746 15.1365 54.5963 15.633 54.512C16.1294 54.4371 16.5602 54.1655 16.8506 53.7627L18.2181 51.8988C20.1663 52.8354 22.2269 53.5005 24.3437 53.8938V56.2073C24.3437 57.2377 25.1867 58.0806 26.217 58.0806H31.8369C32.8672 58.0806 33.7102 57.2377 33.7102 56.2073V53.8938C35.827 53.5005 37.8876 52.8261 39.8452 51.8894L41.1939 53.7533C41.4843 54.1655 41.9152 54.4277 42.4116 54.512C42.9174 54.5963 43.4138 54.4746 43.8165 54.1748L48.3593 50.8778C48.7714 50.5781 49.0336 50.1379 49.1086 49.6415C49.1835 49.1451 49.0617 48.658 48.7714 48.2552L47.4226 46.3726C48.9025 44.8084 50.1763 43.0569 51.1973 41.1555L53.3984 41.8767C53.8761 42.0266 54.3819 41.9891 54.8315 41.7643C55.2811 41.5302 55.6089 41.1461 55.7587 40.6684L57.632 34.9362L55.8524 34.3555L53.9791 40.0971L51.778 39.3759C50.935 39.0949 50.0078 39.4695 49.5488 40.2657C48.6028 42.0078 47.4226 43.6282 46.0551 45.08C45.4276 45.745 45.362 46.7566 45.8959 47.4685L47.254 49.3418L42.7113 52.6387L41.3438 50.7561C40.8099 50.0349 39.8545 49.7913 39.0209 50.1754C37.2132 51.0371 35.3118 51.6553 33.373 52.0206C32.4832 52.1891 31.8275 52.9572 31.8275 53.8564V56.1699H26.2077V53.8564C26.2077 52.9572 25.5614 52.1798 24.6622 52.0206C22.714 51.6553 20.8126 51.0371 18.9955 50.166C18.1713 49.7913 17.2159 50.0255 16.682 50.7561L15.3239 52.6294L10.7811 49.3324L12.1299 47.4685C12.6732 46.7473 12.6076 45.7357 11.9707 45.0707C10.6032 43.6189 9.42301 41.9985 8.46764 40.2376C8.01805 39.4602 7.09077 39.0855 6.24779 39.3665L6.27589 39.3852Z" fill="#0458B9"></path><path d="M29.0375 48.7056C37.6827 48.7056 45.2227 43.1701 47.7985 34.937L46.0095 34.375C43.6772 41.8213 36.8585 46.8324 29.0281 46.8324C21.1978 46.8324 14.379 41.8307 12.0468 34.375L10.2578 34.937C12.8336 43.1701 20.3736 48.7056 29.0188 48.7056H29.0375Z" fill="#0458B9"></path><path d="M0 30.9102H58.0719V32.7834H0V30.9102Z" fill="#0458B9"></path><path d="M54.3248 29.0359V15.9229C54.3248 15.4078 53.9033 14.9863 53.3882 14.9863H45.895V0.936643C45.895 0.421489 45.4735 0 44.9584 0H33.7187C33.2035 0 32.782 0.421489 32.782 0.936643V10.3031H25.2889V6.5565C25.2889 6.27551 25.1671 6.01325 24.9517 5.83529L19.3318 1.15207C18.9853 0.861712 18.4795 0.861712 18.1329 1.15207L12.5131 5.83529C12.2976 6.01325 12.1759 6.27551 12.1759 6.5565V14.0496H4.68274C4.16758 14.0496 3.74609 14.4711 3.74609 14.9863V29.0359H5.61938V15.9229H12.1759V29.0359H14.0492V6.99672L18.7324 3.09092L23.4156 6.99672V29.0359H25.2889V12.1764H32.782V29.0359H34.6553V1.87329H44.0217V29.0359H45.895V16.8596H52.4515V29.0359H54.3248Z" fill="#0458B9"></path><path d="M36.5273 4.68359H38.4006V6.55688H36.5273V4.68359Z" fill="#0458B9"></path><path d="M40.2773 4.68359H42.1506V6.55688H40.2773V4.68359Z" fill="#0458B9"></path><path d="M36.5273 9.36719H38.4006V11.2405H36.5273V9.36719Z" fill="#0458B9"></path><path d="M40.2773 9.36719H42.1506V11.2405H40.2773V9.36719Z" fill="#0458B9"></path><path d="M36.5273 14.0488H38.4006V15.9221H36.5273V14.0488Z" fill="#0458B9"></path><path d="M40.2773 14.0488H42.1506V15.9221H40.2773V14.0488Z" fill="#0458B9"></path><path d="M15.9219 8.42969H21.5417V10.303H15.9219V8.42969Z" fill="#0458B9"></path><path d="M15.9219 13.1133H21.5417V14.9866H15.9219V13.1133Z" fill="#0458B9"></path></svg>