<svg xmlns="http://www.w3.org/2000/svg" width="52" height="65" viewBox="0 0 52 65" fill="none"><path d="M48.6659 43.4265C47.0538 42.8219 45.2402 43.0235 43.628 44.031L33.9553 49.875C33.5523 49.5727 33.1493 49.2704 32.7462 49.1697L18.1364 43.9303C17.028 43.5272 15.8189 43.5272 14.8114 44.031C14.8114 44.031 14.7106 44.031 14.7106 44.1318L8.86667 47.6583V47.356C8.86667 46.2477 7.95985 45.3409 6.85152 45.3409H2.01515C0.906818 45.3409 0 46.2477 0 47.356V62.4697C0 63.578 0.906818 64.4848 2.01515 64.4848H6.75076C7.85909 64.4848 8.76591 63.578 8.76591 62.4697V61.9659C10.9826 60.7568 11.8894 59.6485 13.4008 59.85L29.522 63.3765C30.8318 63.7795 32.2424 63.4772 33.4515 62.6712L49.875 49.6735C52.0917 48.1621 51.8902 44.6356 48.6659 43.4265ZM2.01515 62.4697V47.356H6.75076V62.4697H2.01515ZM48.6659 48.0613C31.9402 60.7568 32.3432 62.0666 30.0258 61.3613L13.8038 57.8348H13.703C11.3856 57.4318 9.77349 59.0439 8.76591 59.5477V49.875L15.6174 45.7439C16.222 45.5424 16.8265 45.5424 17.4311 45.7439L32.0409 50.9833C33.3508 51.4871 33.8546 53.0992 33.0485 54.2075C32.444 55.0136 31.4364 55.3159 30.4288 54.9129L21.7636 51.5879C21.2599 51.3863 20.6553 51.6886 20.4538 52.1924C20.2523 52.6962 20.5546 53.3007 21.0583 53.5022L29.7235 56.8272C31.5371 57.6333 33.5523 57.0288 34.6606 55.5174C35.4667 54.4091 35.769 53.0992 35.1644 51.5879L44.7364 45.8447C45.744 45.2401 46.953 45.0386 48.0614 45.4416C49.5727 45.9454 49.6735 47.356 48.6659 48.0613Z" fill="#0458B9"></path><path d="M23.9815 33.3508C24.8883 33.9554 25.4929 34.9629 25.6944 35.9705C24.7876 36.4743 24.2838 37.4819 24.2838 38.4895C24.2838 39.9001 25.2914 41.1092 26.702 41.4114L27.105 44.6357C27.2058 45.1395 27.6088 45.5425 28.1126 45.5425H35.9717C36.4755 45.5425 36.8785 45.1395 36.9793 44.6357L37.3823 41.3107C38.5914 40.9076 39.5989 39.7993 39.5989 38.4895C39.5989 37.3811 38.9944 36.4743 38.1883 35.9705C38.2891 34.9629 38.8936 33.9554 39.9012 33.2501C43.6293 30.6304 45.9467 26.3986 45.9467 21.8645C45.9467 14.0054 39.3974 7.65764 31.4376 8.06067C24.2838 8.36294 18.3391 14.5092 18.2383 21.6629C17.9361 26.3986 20.1527 30.7311 23.9815 33.3508ZM28.9186 43.6281L28.7171 41.6129H35.2664L35.0649 43.6281H28.9186ZM36.3747 39.5978H27.2058C26.702 39.5978 26.1982 39.1948 26.1982 38.5902C26.1982 38.0864 26.6012 37.5826 27.2058 37.5826H36.3747C36.8785 37.5826 37.3823 37.9857 37.3823 38.5902C37.3823 39.094 36.9793 39.5978 36.3747 39.5978ZM31.2361 10.1766C37.9868 9.87431 43.6293 15.3152 43.6293 21.9652C43.6293 25.8948 41.7149 29.522 38.4906 31.7387C37.08 32.6455 36.1732 34.0561 35.9717 35.6683H27.7096C27.508 34.1569 26.6012 32.7463 25.1906 31.7387C21.9664 29.522 20.052 25.794 20.052 21.8645C20.1527 15.7182 25.1906 10.4789 31.2361 10.1766Z" fill="#0458B9"></path><path d="M31.5419 15.2143C35.3707 15.0128 38.595 18.1363 38.595 21.965C38.595 22.5696 38.998 22.9726 39.6025 22.9726C40.2071 22.9726 40.6101 22.5696 40.6101 21.965C40.6101 17.0279 36.479 12.9976 31.4412 13.1991C30.8366 13.1991 30.4336 13.7029 30.4336 14.2067C30.4336 14.8113 30.9374 15.2143 31.5419 15.2143Z" fill="#0458B9"></path><path d="M31.8396 5.9447C32.4442 5.9447 32.8472 5.54167 32.8472 4.93712V1.00758C32.8472 0.40303 32.4442 0 31.8396 0C31.2351 0 30.832 0.40303 30.832 1.00758V4.93712C30.832 5.54167 31.2351 5.9447 31.8396 5.9447Z" fill="#0458B9"></path><path d="M24.6867 6.44884C24.8882 6.85187 25.1904 7.05338 25.5935 7.05338C25.6942 7.05338 25.8957 7.05338 25.9965 6.95262C26.5003 6.75111 26.8026 6.14656 26.5003 5.64278L24.9889 2.0155C24.7874 1.51171 24.1829 1.20944 23.6791 1.51171C23.1753 1.71323 22.873 2.31777 23.1753 2.82156L24.6867 6.44884Z" fill="#0458B9"></path><path d="M19.6469 10.2773C20.05 10.6803 20.6545 10.6803 21.0575 10.2773C21.4606 9.87423 21.4606 9.26968 21.0575 8.86665L18.2363 6.04544C17.8333 5.64241 17.2287 5.64241 16.8257 6.04544C16.4227 6.44847 16.4227 7.05301 16.8257 7.45604L19.6469 10.2773Z" fill="#0458B9"></path><path d="M43.9316 10.5795L46.7528 7.75829C47.1559 7.35526 47.1559 6.75071 46.7528 6.34768C46.3498 5.94465 45.7453 5.94465 45.3422 6.34768L42.521 9.06814C42.118 9.47117 42.118 10.0757 42.521 10.4787C42.8233 10.8818 43.5286 10.8818 43.9316 10.5795Z" fill="#0458B9"></path><path d="M37.5849 7.15387C37.6857 7.25463 37.8872 7.25463 37.9879 7.25463C38.391 7.25463 38.794 7.05312 38.8948 6.65009L40.4061 3.02281C40.6076 2.51902 40.4061 1.91448 39.9023 1.71296C39.3986 1.51145 38.794 1.71296 38.5925 2.21675L37.0811 5.84403C36.8796 6.34781 37.0811 6.95236 37.5849 7.15387Z" fill="#0458B9"></path></svg>