<svg xmlns="http://www.w3.org/2000/svg" width="39" height="73" viewBox="0 0 39 73" fill="none"><path d="M14.1066 30.5444C14.3044 30.6686 14.5118 30.777 14.7046 30.8639C15.2955 31.1521 15.9054 31.3847 16.5227 31.5595V35.155C16.5227 35.6661 16.9376 36.0809 17.4487 36.0809H21.5599C22.0711 36.0809 22.4859 35.6661 22.4859 35.155V31.5645C23.3274 31.3306 24.1425 30.9906 24.9213 30.5494L27.4629 33.0897C27.8246 33.4514 28.4105 33.4514 28.7723 33.0897L31.6803 30.1817C31.8539 30.0081 31.9504 29.7718 31.9504 29.5259C31.9504 29.2799 31.8516 29.0436 31.6778 28.8701L29.1217 26.3334C29.5582 25.5751 29.9005 24.7672 30.1442 23.9185H33.7226C34.2337 23.9185 34.6485 23.5037 34.6485 22.9926V18.8821C34.6485 18.3709 34.2337 17.9561 33.7226 17.9561H30.1442C29.9007 17.1084 29.5558 16.2946 29.1194 15.5242L31.6778 12.9826C31.8514 12.809 31.9504 12.5727 31.9504 12.3268C31.9504 12.0808 31.8539 11.8445 31.6803 11.6709L28.7723 8.76294C28.4105 8.4012 27.8199 8.4012 27.4629 8.76294L24.9141 11.3092C24.1376 10.8776 23.3249 10.5388 22.4859 10.2988V6.69744C22.4859 6.18631 22.0711 5.77148 21.5599 5.77148H17.4487C16.9376 5.77148 16.5227 6.18631 16.5227 6.69744V10.2963C15.9343 10.4674 15.334 10.7028 14.7118 11.0052C14.5093 11.1018 14.3115 11.203 14.1162 11.309L11.5458 8.75899C11.1816 8.40096 10.5981 8.40219 10.2388 8.76492L7.35006 11.6729C6.98832 12.0347 6.99079 12.6194 7.35006 12.9799L9.89879 15.5261C9.68422 15.9071 9.50322 16.2822 9.3563 16.6378C9.16815 17.0489 9.00666 17.4889 8.87876 17.9556H5.28826C4.77713 17.9556 4.3623 18.3704 4.3623 18.8816V22.9918C4.3623 23.503 4.77713 23.9178 5.28826 23.9178H8.87629C9.11259 24.7714 9.4647 25.5998 9.89385 26.3292L7.35228 28.872C7.17623 29.0456 7.07968 29.2807 7.07968 29.5266C7.07968 29.7726 7.17623 30.0076 7.34982 30.1812L10.2339 33.0833C10.4075 33.2593 10.6438 33.3593 10.8897 33.3606C11.1766 33.3497 11.3719 33.2653 11.548 33.0892L14.1066 30.5444ZM9.31531 29.5269L11.7171 27.1251C11.8932 26.9502 12.0137 26.7152 12.0112 26.4668C12.0087 26.2184 11.9292 25.9845 11.7507 25.8122C11.1455 24.8934 10.7186 23.8578 10.5186 22.8173C10.4341 22.3807 10.0531 22.0661 9.6094 22.0661H6.21422V19.808H9.6094C10.0506 19.808 10.4316 19.4957 10.5186 19.0618C10.6368 18.4591 10.8126 17.9042 11.0539 17.3788C11.2564 16.8894 11.5218 16.3854 11.8423 15.8824C12.0786 15.516 12.0255 15.036 11.7193 14.7286L9.31284 12.3231L10.8996 10.7255L13.3157 13.1283C13.6244 13.4357 14.1041 13.4876 14.4733 13.2525C14.7987 13.0416 15.1437 12.8498 15.515 12.6737C16.2649 12.3095 16.9595 12.0648 17.6346 11.9263C18.0662 11.8384 18.3749 11.4596 18.3749 11.0196V7.6234H20.6342V11.0198C20.6342 11.4564 20.9379 11.8324 21.3649 11.9253C22.4886 12.1675 23.5615 12.6149 24.5598 13.254C24.9215 13.4878 25.4062 13.4359 25.7124 13.1285L28.1165 10.7267L29.7128 12.3231L27.2942 14.7259C26.9831 15.037 26.9325 15.5239 27.1737 15.8931C27.8199 16.8721 28.2708 17.944 28.5192 19.0784C28.6108 19.5041 28.9871 19.8078 29.4234 19.8078H32.7969V22.0661H29.4234C28.9869 22.0661 28.6108 22.3698 28.5192 22.7955C28.2708 23.9385 27.8199 25.0008 27.1784 25.9544C26.9325 26.3221 26.9806 26.8139 27.2942 27.1275L29.7128 29.5293L28.1165 31.1257L25.7124 28.7239C25.4013 28.4128 24.9191 28.3646 24.5477 28.6056C23.559 29.259 22.4933 29.7027 21.3792 29.9259C20.9451 30.0128 20.634 30.3926 20.634 30.8338V34.229H18.3746V30.8338C18.3746 30.395 18.066 30.0153 17.6344 29.9271C16.9158 29.7787 16.202 29.534 15.4906 29.1881C15.3098 29.1061 15.1288 29.0073 14.854 28.8276C14.7311 28.7661 14.6202 28.7059 14.514 28.6273C14.1451 28.3646 13.6436 28.4044 13.3229 28.7177L10.8996 31.1195L9.31531 29.5269Z" fill="#047BDC"></path><path d="M19.5077 28.2236C23.5273 28.2236 26.7995 24.9514 26.7995 20.9305C26.7995 16.9096 23.5273 13.6387 19.5077 13.6387C15.488 13.6387 12.2158 16.9096 12.2158 20.9305C12.2158 24.9514 15.488 28.2236 19.5077 28.2236ZM19.5077 15.4906C22.5073 15.4906 24.9476 17.9309 24.9476 20.9305C24.9476 23.9301 22.5073 26.3717 19.5077 26.3717C16.5081 26.3717 14.0677 23.9301 14.0677 20.9305C14.0677 17.9309 16.5081 15.4906 19.5077 15.4906Z" fill="#047BDC"></path><path d="M17.1533 72.4901H21.8555C22.3666 72.4901 22.7814 72.0753 22.7814 71.5642V67.9411C26.6141 66.8176 29.4392 63.3096 29.4392 59.1181V53.5949V52.0818C29.4392 42.4955 31.6262 37.1699 36.2246 29.5247C38.0405 26.5034 39 23.0371 39 19.5007C39 14.2318 36.931 9.29464 33.1741 5.59797C29.4945 1.98105 24.6524 0 19.5018 0C19.3909 0 19.2801 0.00123443 19.1714 0.00246904C14.0088 0.088151 9.14515 2.25464 5.47021 6.10194C1.79552 9.95417 -0.145784 14.9217 0.00854184 20.0891C0.10015 23.1719 0.891043 26.1041 2.35949 28.8012L3.25902 30.4457C7.18706 37.6134 9.55998 41.9407 9.55998 50.2706V53.5947V59.1178C9.55998 63.313 12.3897 66.8235 16.2274 67.944V71.5642C16.2274 72.0753 16.6422 72.4901 17.1533 72.4901ZM20.9295 70.6382H18.0793V68.2801C18.3188 68.2989 18.5487 68.3522 18.7931 68.3522H20.2063C20.4539 68.3522 20.6868 68.2984 20.9298 68.2791L20.9295 70.6382ZM11.4119 54.5209H27.5873V58.1921H11.4119V54.5209ZM4.88204 29.5561L3.98497 27.9165C2.65876 25.4762 1.94268 22.825 1.86046 20.0338C1.7207 15.3655 3.47854 10.872 6.811 7.38149C10.1388 3.8947 14.5394 1.93192 19.2006 1.85463C23.9797 1.78722 28.4747 3.57395 31.8746 6.91851C35.2747 10.2643 37.1481 14.7326 37.1481 19.5009C37.1481 22.7008 36.2799 25.8379 34.6379 28.5701C29.8609 36.5143 27.587 42.058 27.587 52.082V52.6692H11.4116V50.2711C11.4119 41.4659 8.81502 36.7274 4.88204 29.5561ZM11.4697 60.044H27.5292C27.0734 63.6792 23.9629 66.5003 20.206 66.5003H18.7929C15.0362 66.5003 11.9255 63.6792 11.4697 60.044Z" fill="#047BDC"></path></svg>