<svg xmlns="http://www.w3.org/2000/svg" width="70" height="70" viewBox="0 0 70 70" fill="none"><path d="M61.1722 8.8288C50.7355 -1.60785 33.8141 -1.60785 23.3774 8.8288C12.9406 19.2656 12.9406 36.1869 23.3774 46.6236C33.8141 57.0604 50.7355 57.0604 61.1722 46.6236C71.609 36.1869 71.609 19.2656 61.1722 8.8288Z" stroke="#0369CA" stroke-width="1.8" stroke-miterlimit="10" stroke-linecap="round" stroke-linejoin="round"></path><path d="M57.6214 12.3806C49.1464 3.90558 35.4055 3.90558 26.9306 12.3806C18.4554 20.8557 18.4554 34.5966 26.9306 43.0715C35.4055 51.5465 49.1464 51.5465 57.6214 43.0715C66.0963 34.5966 66.0963 20.8557 57.6214 12.3806Z" stroke="#0369CA" stroke-width="1.8" stroke-miterlimit="10" stroke-linecap="round" stroke-linejoin="round"></path><path d="M59.0215 25.8926C58.5715 25.3478 58.0907 24.8198 57.5793 24.3109C49.146 15.9221 35.4041 15.9221 26.9708 24.3109C26.4594 24.8198 25.9787 25.3478 25.5287 25.8926C24.6503 26.956 24.6681 28.496 25.548 29.5583C25.9803 30.0802 26.4408 30.5865 26.9296 31.0753C35.4047 39.5504 49.1454 39.5504 57.6206 31.0753C58.1093 30.5865 58.5699 30.0802 59.0021 29.5583C59.882 28.496 59.8999 26.956 59.0215 25.8926Z" stroke="#0369CA" stroke-width="1.8" stroke-miterlimit="10" stroke-linecap="round" stroke-linejoin="round"></path><path d="M18.0009 57.418L20.9184 54.5005C21.7113 53.7076 21.7114 52.4219 20.9184 51.629L18.3731 49.0836C17.58 48.2907 16.2943 48.2907 15.5013 49.0836L12.584 52.001L18.0009 57.418Z" stroke="#0369CA" stroke-width="1.8" stroke-miterlimit="10" stroke-linecap="round" stroke-linejoin="round"></path><path d="M21.7369 44.8245L17.8535 48.7079C18.0407 48.8026 18.2166 48.927 18.3732 49.0833L20.9186 51.6288C21.075 51.7852 21.1992 51.9613 21.294 52.1484L25.1775 48.265C24.5596 47.7495 23.9584 47.2036 23.3784 46.6236C22.7984 46.0436 22.2525 45.4424 21.7369 44.8245Z" stroke="#0369CA" stroke-width="1.8" stroke-miterlimit="10" stroke-linecap="round" stroke-linejoin="round"></path><path d="M47.1266 27.7306C47.1266 30.41 44.9545 32.582 42.2753 32.582C39.5959 32.582 37.4238 30.41 37.4238 27.7306C37.4238 25.0512 39.5959 22.8792 42.2753 22.8792C44.9545 22.8792 47.1266 25.0512 47.1266 27.7306Z" stroke="#0369CA" stroke-width="1.8" stroke-miterlimit="10" stroke-linecap="round" stroke-linejoin="round"></path><path d="M13.932 61.4869L20.9184 54.5006C21.7111 53.7076 21.7113 52.422 20.9184 51.629L18.3729 49.0835C17.5799 48.2906 16.2943 48.2906 15.5014 49.0837L1.59471 62.9903C0.801693 63.7833 0.80183 65.0689 1.59471 65.8617L4.14015 68.4072C4.93304 69.2002 6.21862 69.2002 7.01164 68.4072L10.5427 64.8761" stroke="#0369CA" stroke-width="1.8" stroke-miterlimit="10" stroke-linecap="round" stroke-linejoin="round"></path><path d="M51.6648 25.279C50.5786 21.1076 46.7867 18.028 42.2751 18.028C36.9164 18.028 32.5723 22.3721 32.5723 27.7309C32.5723 33.0895 36.9164 37.4336 42.2751 37.4336C46.8279 37.4336 50.6466 34.2974 51.6927 30.0678" stroke="#0369CA" stroke-width="1.8" stroke-miterlimit="10" stroke-linecap="round" stroke-linejoin="round"></path></svg>