<svg xmlns="http://www.w3.org/2000/svg" width="60" height="58" viewBox="0 0 60 58" fill="none"><path d="M31.8218 53.4331H35.4753C35.657 53.4331 35.8312 53.3609 35.9597 53.2324C36.0882 53.104 36.1603 52.9297 36.1603 52.748C36.1603 52.5663 36.0882 52.3921 35.9597 52.2636C35.8312 52.1352 35.657 52.063 35.4753 52.063H31.8218C31.6401 52.063 31.4658 52.1352 31.3374 52.2636C31.2089 52.3921 31.1367 52.5663 31.1367 52.748C31.1367 52.9297 31.2089 53.104 31.3374 53.2324C31.4658 53.3609 31.6401 53.4331 31.8218 53.4331Z" fill="#047BDC"></path><path d="M13.5542 53.4331H17.2077C17.3894 53.4331 17.5636 53.3609 17.6921 53.2324C17.8206 53.104 17.8928 52.9297 17.8928 52.748C17.8928 52.5663 17.8206 52.3921 17.6921 52.2636C17.5636 52.1352 17.3894 52.063 17.2077 52.063H13.5542C13.3725 52.063 13.1983 52.1352 13.0698 52.2636C12.9413 52.3921 12.8691 52.5663 12.8691 52.748C12.8691 52.9297 12.9413 53.104 13.0698 53.2324C13.1983 53.3609 13.3725 53.4331 13.5542 53.4331Z" fill="#047BDC"></path><path d="M20.8608 5.0234H28.1679C28.3496 5.0234 28.5238 4.95123 28.6523 4.82276C28.7808 4.69429 28.8529 4.52004 28.8529 4.33836C28.8529 4.15668 28.7808 3.98243 28.6523 3.85396C28.5238 3.72549 28.3496 3.65332 28.1679 3.65332H20.8608C20.6791 3.65332 20.5049 3.72549 20.3764 3.85396C20.248 3.98243 20.1758 4.15668 20.1758 4.33836C20.1758 4.52004 20.248 4.69429 20.3764 4.82276C20.5049 4.95123 20.6791 5.0234 20.8608 5.0234Z" fill="#047BDC"></path><path d="M31.8216 5.25206C32.326 5.25206 32.735 4.84313 32.735 4.33868C32.735 3.83423 32.326 3.42529 31.8216 3.42529C31.3171 3.42529 30.9082 3.83423 30.9082 4.33868C30.9082 4.84313 31.3171 5.25206 31.8216 5.25206Z" fill="#047BDC"></path><path d="M22.6876 55.2595H26.3411C27.0073 55.2595 27.6462 54.9948 28.1173 54.5238C28.5883 54.0527 28.8529 53.4138 28.8529 52.7477C28.8529 52.0815 28.5883 51.4426 28.1173 50.9715C27.6462 50.5005 27.0073 50.2358 26.3411 50.2358H22.6876C22.0214 50.2358 21.3825 50.5005 20.9115 50.9715C20.4404 51.4426 20.1758 52.0815 20.1758 52.7477C20.1758 53.4138 20.4404 54.0527 20.9115 54.5238C21.3825 54.9948 22.0214 55.2595 22.6876 55.2595ZM22.6876 51.6059H26.3411C26.6439 51.6059 26.9343 51.7262 27.1485 51.9403C27.3626 52.1544 27.4829 52.4448 27.4829 52.7477C27.4829 53.0505 27.3626 53.3409 27.1485 53.555C26.9343 53.7691 26.6439 53.8894 26.3411 53.8894H22.6876C22.3848 53.8894 22.0944 53.7691 21.8803 53.555C21.6661 53.3409 21.5459 53.0505 21.5459 52.7477C21.5459 52.4448 21.6661 52.1544 21.8803 51.9403C22.0944 51.7262 22.3848 51.6059 22.6876 51.6059Z" fill="#047BDC"></path><path d="M13.0996 23.748H8.5327C8.35101 23.748 8.17677 23.8202 8.0483 23.9487C7.91983 24.0772 7.84766 24.2514 7.84766 24.4331V36.3071C7.84766 36.4888 7.91983 36.663 8.0483 36.7915C8.17677 36.92 8.35101 36.9921 8.5327 36.9921H13.0996C13.2813 36.9921 13.4556 36.92 13.584 36.7915C13.7125 36.663 13.7847 36.4888 13.7847 36.3071V24.4331C13.7847 24.2514 13.7125 24.0772 13.584 23.9487C13.4556 23.8202 13.2813 23.748 13.0996 23.748ZM12.4146 35.6221H9.21773V25.1181H12.4146V35.6221Z" fill="#047BDC"></path><path d="M22.2324 19.1812H17.6655C17.4838 19.1812 17.3096 19.2533 17.1811 19.3818C17.0526 19.5103 16.9805 19.6845 16.9805 19.8662V36.3071C16.9805 36.4888 17.0526 36.6631 17.1811 36.7915C17.3096 36.92 17.4838 36.9922 17.6655 36.9922H22.2324C22.4141 36.9922 22.5884 36.92 22.7168 36.7915C22.8453 36.6631 22.9175 36.4888 22.9175 36.3071V19.8662C22.9175 19.6845 22.8453 19.5103 22.7168 19.3818C22.5884 19.2533 22.4141 19.1812 22.2324 19.1812ZM21.5474 35.6221H18.3505V20.5512H21.5474V35.6221Z" fill="#047BDC"></path><path d="M31.3672 25.5747H26.8003C26.6186 25.5747 26.4443 25.6469 26.3159 25.7753C26.1874 25.9038 26.1152 26.0781 26.1152 26.2597V36.307C26.1152 36.4887 26.1874 36.6629 26.3159 36.7914C26.4443 36.9199 26.6186 36.992 26.8003 36.992H31.3672C31.5489 36.992 31.7231 36.9199 31.8516 36.7914C31.9801 36.6629 32.0522 36.4887 32.0522 36.307V26.2597C32.0522 26.0781 31.9801 25.9038 31.8516 25.7753C31.7231 25.6469 31.5489 25.5747 31.3672 25.5747ZM30.6822 35.622H27.4853V26.9448H30.6822V35.622Z" fill="#047BDC"></path><path d="M13.0996 41.1021H8.5327C8.35101 41.1021 8.17677 41.1742 8.0483 41.3027C7.91983 41.4312 7.84766 41.6054 7.84766 41.7871C7.84766 41.9688 7.91983 42.143 8.0483 42.2715C8.17677 42.4 8.35101 42.4721 8.5327 42.4721H13.0996C13.2813 42.4721 13.4556 42.4 13.584 42.2715C13.7125 42.143 13.7847 41.9688 13.7847 41.7871C13.7847 41.6054 13.7125 41.4312 13.584 41.3027C13.4556 41.1742 13.2813 41.1021 13.0996 41.1021Z" fill="#047BDC"></path><path d="M22.2324 41.1021H17.6655C17.4838 41.1021 17.3096 41.1742 17.1811 41.3027C17.0526 41.4312 16.9805 41.6054 16.9805 41.7871C16.9805 41.9688 17.0526 42.143 17.1811 42.2715C17.3096 42.4 17.4838 42.4721 17.6655 42.4721H22.2324C22.4141 42.4721 22.5884 42.4 22.7168 42.2715C22.8453 42.143 22.9175 41.9688 22.9175 41.7871C22.9175 41.6054 22.8453 41.4312 22.7168 41.3027C22.5884 41.1742 22.4141 41.1021 22.2324 41.1021Z" fill="#047BDC"></path><path d="M31.3672 41.1021H26.8003C26.6186 41.1021 26.4443 41.1742 26.3159 41.3027C26.1874 41.4312 26.1152 41.6054 26.1152 41.7871C26.1152 41.9688 26.1874 42.143 26.3159 42.2715C26.4443 42.4 26.6186 42.4721 26.8003 42.4721H31.3672C31.5489 42.4721 31.7231 42.4 31.8516 42.2715C31.9801 42.143 32.0522 41.9688 32.0522 41.7871C32.0522 41.6054 31.9801 41.4312 31.8516 41.3027C31.7231 41.1742 31.5489 41.1021 31.3672 41.1021Z" fill="#047BDC"></path><path d="M40.5 41.1021H35.9331C35.7514 41.1021 35.5772 41.1742 35.4487 41.3027C35.3202 41.4312 35.248 41.6054 35.248 41.7871C35.248 41.9688 35.3202 42.143 35.4487 42.2715C35.5772 42.4 35.7514 42.4721 35.9331 42.4721H40.5C40.6817 42.4721 40.8559 42.4 40.9844 42.2715C41.1129 42.143 41.1851 41.9688 41.1851 41.7871C41.1851 41.6054 41.1129 41.4312 40.9844 41.3027C40.8559 41.1742 40.6817 41.1021 40.5 41.1021Z" fill="#047BDC"></path><path d="M10.8162 9.59041C11.2399 9.59089 11.6462 9.75945 11.9459 10.0591C12.2455 10.3588 12.4141 10.7651 12.4146 11.1888C12.4146 11.3705 12.4868 11.5448 12.6152 11.6732C12.7437 11.8017 12.9179 11.8739 13.0996 11.8739C13.2813 11.8739 13.4556 11.8017 13.584 11.6732C13.7125 11.5448 13.7847 11.3705 13.7847 11.1888C13.783 10.5219 13.5568 9.87506 13.1425 9.35244C12.7283 8.82982 12.1501 8.46191 11.5012 8.30801V7.07859C11.5012 6.89691 11.429 6.72267 11.3006 6.5942C11.1721 6.46573 10.9978 6.39355 10.8162 6.39355C10.6345 6.39355 10.4602 6.46573 10.3318 6.5942C10.2033 6.72267 10.1311 6.89691 10.1311 7.07859V8.30801C9.42628 8.47755 8.80801 8.89954 8.39328 9.49413C7.97855 10.0887 7.79612 10.8147 7.88049 11.5347C7.96487 12.2548 8.31021 12.9189 8.85117 13.4015C9.39214 13.8841 10.0912 14.1517 10.8162 14.1537C11.1321 14.1537 11.441 14.2473 11.7038 14.4228C11.9666 14.5983 12.1715 14.8477 12.2926 15.1396C12.4136 15.4314 12.4455 15.7526 12.3841 16.0626C12.3228 16.3726 12.1709 16.6574 11.9477 16.8811C11.7245 17.1048 11.4401 17.2573 11.1302 17.3194C10.8204 17.3815 10.4991 17.3503 10.207 17.2299C9.91486 17.1095 9.66497 16.9052 9.48889 16.6428C9.31282 16.3804 9.21846 16.0717 9.21773 15.7558C9.21773 15.5741 9.14556 15.3998 9.01709 15.2714C8.88862 15.1429 8.71438 15.0707 8.5327 15.0707C8.35101 15.0707 8.17677 15.1429 8.0483 15.2714C7.91983 15.3998 7.84766 15.5741 7.84766 15.7558C7.84936 16.4226 8.07556 17.0695 8.48981 17.5922C8.90407 18.1148 9.48223 18.4827 10.1311 18.6366V19.866C10.1311 20.0477 10.2033 20.2219 10.3318 20.3504C10.4602 20.4789 10.6345 20.551 10.8162 20.551C10.9978 20.551 11.1721 20.4789 11.3006 20.3504C11.429 20.2219 11.5012 20.0477 11.5012 19.866V18.6366C12.206 18.467 12.8243 18.0451 13.239 17.4505C13.6538 16.8559 13.8362 16.1299 13.7518 15.4099C13.6674 14.6898 13.3221 14.0257 12.7811 13.5431C12.2402 13.0605 11.5411 12.7929 10.8162 12.7909C10.3922 12.7909 9.98567 12.6225 9.6859 12.3227C9.38614 12.023 9.21773 11.6164 9.21773 11.1925C9.21773 10.7686 9.38614 10.362 9.6859 10.0622C9.98567 9.76246 10.3922 9.59406 10.8162 9.59406V9.59041Z" fill="#047BDC"></path><path d="M57.9923 30.74L53.4701 26.2187C53.4065 26.1551 53.331 26.1046 53.2478 26.0701C53.1647 26.0357 53.0756 26.0179 52.9856 26.0179C52.8956 26.0179 52.8064 26.0357 52.7233 26.0701C52.6402 26.1046 52.5646 26.1551 52.501 26.2187L52.3393 26.3804L49.8421 23.885C50.9302 22.0131 51.3694 19.8341 51.0914 17.6868C50.8134 15.5395 49.8338 13.5442 48.3049 12.011C48.2181 11.9243 48.1222 11.8494 48.0309 11.7671V4.33858C48.0295 3.18915 47.5725 2.08715 46.7602 1.27395C45.9478 0.460756 44.8463 0.00265757 43.6969 0H5.33468C4.18446 0.00145016 3.08176 0.459015 2.26844 1.27234C1.45511 2.08567 0.997544 3.18836 0.996094 4.33858V53.6614C0.997544 54.8116 1.45511 55.9143 2.26844 56.7277C3.08176 57.541 4.18446 57.9985 5.33468 58H43.6969C44.8471 57.9985 45.9498 57.541 46.7631 56.7277C47.5764 55.9143 48.034 54.8116 48.0355 53.6614V29.1827L48.789 29.9371L48.6292 30.0961C48.5011 30.2246 48.4292 30.3987 48.4292 30.5802C48.4292 30.7616 48.5011 30.9357 48.6292 31.0642L53.1504 35.5855C53.464 35.922 53.8421 36.1919 54.2623 36.3792C54.6825 36.5664 55.136 36.667 55.5959 36.6751C56.0558 36.6833 56.5126 36.5987 56.9391 36.4264C57.3656 36.2541 57.7531 35.9977 58.0783 35.6725C58.4036 35.3472 58.66 34.9598 58.8322 34.5333C59.0045 34.1068 59.0891 33.65 59.081 33.1901C59.0729 32.7302 58.9722 32.2766 58.785 31.8564C58.5978 31.4363 58.3279 31.0581 57.9914 30.7446L57.9923 30.74ZM46.6654 53.6614C46.6644 54.4484 46.3514 55.2029 45.7949 55.7594C45.2384 56.3159 44.4839 56.629 43.6969 56.6299H5.33468C4.54768 56.629 3.79319 56.3159 3.2367 55.7594C2.6802 55.2029 2.36714 54.4484 2.36617 53.6614V48.8661H46.6654V53.6614ZM46.6654 47.4961H2.36617V4.33858C2.36714 3.55158 2.6802 2.79709 3.2367 2.2406C3.79319 1.68411 4.54768 1.37105 5.33468 1.37008H43.6969C44.4839 1.37105 45.2384 1.68411 45.7949 2.2406C46.3514 2.79709 46.6644 3.55158 46.6654 4.33858V10.6939C44.5478 9.32487 41.9845 8.8235 39.5071 9.2938C37.0297 9.76411 34.8285 11.17 33.3599 13.2199C31.8914 15.2697 31.2683 17.8062 31.6198 20.3032C31.9714 22.8002 33.2706 25.066 35.2481 26.6307V36.3071C35.2481 36.4888 35.3202 36.663 35.4487 36.7915C35.5772 36.92 35.7514 36.9921 35.9331 36.9921H40.5C40.6817 36.9921 40.856 36.92 40.9844 36.7915C41.1129 36.663 41.1851 36.4888 41.1851 36.3071V28.7589C42.9759 28.791 44.7413 28.3324 46.29 27.4326L46.6654 27.808V47.4961ZM36.6181 35.622V27.5386C37.612 28.087 38.6938 28.4579 39.815 28.6346V35.622H36.6181ZM35.3851 24.9272C34.2036 23.7456 33.3989 22.2402 33.073 20.6013C32.7471 18.9624 32.9144 17.2636 33.5539 15.7199C34.1934 14.1761 35.2763 12.8566 36.6657 11.9283C38.0551 10.9999 39.6885 10.5044 41.3595 10.5044C43.0305 10.5044 44.664 10.9999 46.0534 11.9283C47.4428 12.8566 48.5257 14.1761 49.1652 15.7199C49.8046 17.2636 49.972 18.9624 49.6461 20.6013C49.3201 22.2402 48.5155 23.7456 47.334 24.9272C45.7483 26.5096 43.5997 27.3983 41.3595 27.3983C39.1194 27.3983 36.9707 26.5096 35.3851 24.9272ZM47.4418 26.6526C48.0455 26.184 48.588 25.6415 49.0566 25.0377L51.3684 27.3486L49.7581 28.9635L47.4418 26.6526ZM57.0195 34.6155C56.634 35.0007 56.1113 35.2171 55.5663 35.2171C55.0214 35.2171 54.4987 35.0007 54.1131 34.6155L50.076 30.5783L52.9824 27.6719L57.0195 31.7091C57.2108 31.8996 57.3626 32.1259 57.4663 32.3751C57.5701 32.6242 57.6237 32.8914 57.6241 33.1614C57.6246 33.4313 57.5718 33.6986 57.4688 33.9481C57.3659 34.1976 57.2147 34.4244 57.0241 34.6155H57.0195Z" fill="#047BDC"></path></svg>