<svg xmlns="http://www.w3.org/2000/svg" width="68" height="68" viewBox="0 0 68 68" fill="none"><path d="M1.02539 12.4791C1.59182 12.4791 2.05078 12.0331 2.05078 11.483V3.49695C2.05078 2.66727 2.74572 1.99219 3.5998 1.99219H54.4645C55.3186 1.99219 56.0135 2.66727 56.0135 3.49695V27.9132C56.0135 28.4633 56.4725 28.9093 57.0389 28.9093C57.6054 28.9093 58.0643 28.4633 58.0643 27.9132V3.49695C58.0643 1.56865 56.4494 0 54.4645 0H3.5998C1.61492 0 0 1.56878 0 3.49695V11.483C0 12.0331 0.459101 12.4791 1.02539 12.4791Z" fill="#047BDC"></path><path d="M54.8311 45.4899C54.8311 42.6396 52.4434 40.3208 49.5086 40.3208C46.5745 40.3208 44.1875 42.6396 44.1875 45.4899C44.1875 48.3408 46.5745 50.6603 49.5086 50.6603C52.4434 50.6603 54.8311 48.3408 54.8311 45.4899ZM46.2383 45.4899C46.2383 43.7381 47.7053 42.313 49.5086 42.313C51.3126 42.313 52.7803 43.7381 52.7803 45.4899C52.7803 47.2423 51.3127 48.6681 49.5086 48.6681C47.7054 48.6681 46.2383 47.2423 46.2383 45.4899Z" fill="#047BDC"></path><path d="M64.307 56.4455H58.0638V54.8505C59.3465 55.2953 60.8165 54.8031 61.5208 53.6176L62.7605 51.5305C63.1449 50.8845 63.2472 50.1316 63.0483 49.4104C62.8495 48.6898 62.3738 48.0872 61.7088 47.7138L60.585 47.0831C60.6657 46.5543 60.7064 46.0209 60.7064 45.4898C60.7064 44.9586 60.6657 44.4253 60.585 43.8964L61.7091 43.2656C63.0813 42.495 63.553 40.7832 62.7607 39.4497L61.5207 37.3618C60.8165 36.1767 59.3474 35.6842 58.0643 36.1287V32.5591C58.0643 32.009 57.6054 31.563 57.0389 31.563C56.4725 31.563 56.0135 32.009 56.0135 32.5591V36.6367C55.2738 36.122 54.4761 35.6983 53.6257 35.3726V34.1144C53.6257 32.5743 52.3359 31.3213 50.7507 31.3213H48.2679C46.6825 31.3213 45.3927 32.5743 45.3927 34.1144V35.3726C44.3654 35.766 43.4138 36.3002 42.5502 36.9682L41.4266 36.3377C40.0524 35.5695 38.2908 36.0291 37.4992 37.3615L36.2575 39.4497C35.4654 40.7833 35.9372 42.4951 37.3097 43.266L38.4347 43.8968C38.354 44.4258 38.3132 44.9593 38.3132 45.4899C38.3132 46.0205 38.354 46.5539 38.4347 47.083L37.3093 47.7141C35.9364 48.4851 35.4647 50.1972 36.2579 51.5303L37.4991 53.6179C38.2911 54.9507 40.053 55.4102 41.4281 54.6412L42.5502 54.0114C43.4137 54.6793 44.3655 55.2136 45.3927 55.607V56.4455H13.4436C11.4579 56.4455 9.84225 58.0142 9.84225 59.9431L9.84375 62.1458C9.84375 64.221 8.14365 65.9531 6.04912 66.0072C6.01617 66.0082 5.98295 66.008 5.94836 66.008C4.90711 66.0069 3.92834 65.6133 3.19279 64.8998C2.45643 64.1845 2.05078 63.2338 2.05078 62.2228V16.1289C2.05078 15.5788 1.59182 15.1328 1.02539 15.1328C0.458965 15.1328 0 15.5788 0 16.1289V62.2228C0 63.766 0.618926 65.2169 1.74316 66.3091C2.8659 67.398 4.35846 67.9986 5.95 68.0002H29.2264C29.7928 68.0002 30.2518 67.5542 30.2518 67.0041C30.2518 66.454 29.7928 66.008 29.2264 66.008H10.3977C11.3274 64.9716 11.8945 63.6152 11.8945 62.1451L11.893 59.9424C11.893 59.1126 12.5887 58.4377 13.4436 58.4377H64.3069C65.161 58.4377 65.8559 59.1127 65.8559 59.9424V62.2228C65.8559 63.2334 65.4505 64.1843 64.7157 64.8994C63.9786 65.6143 62.9999 66.008 61.9594 66.008H34.0114C33.445 66.008 32.986 66.454 32.986 67.0041C32.986 67.5542 33.445 68.0002 34.0114 68.0002H61.9594C63.547 68.0002 65.0405 67.3996 66.166 66.308C67.2886 65.2157 67.9067 63.765 67.9067 62.2228V59.9424C67.9068 58.0142 66.2919 56.4455 64.307 56.4455ZM56.013 56.4455H53.6259V55.6069C54.476 55.2814 55.2735 54.8578 56.013 54.3433V56.4455ZM46.7298 53.9559C45.4683 53.5649 44.3328 52.9274 43.3545 52.0611C43.0247 51.7689 42.5376 51.7175 42.1507 51.9348L40.4035 52.9154C40.0086 53.1362 39.5026 53.0046 39.2749 52.6218L38.0334 50.5337C37.8059 50.1514 37.9415 49.6602 38.3351 49.4391L40.0851 48.4576C40.4712 48.2411 40.669 47.8069 40.5744 47.3837C40.4348 46.7588 40.364 46.1217 40.364 45.4899C40.364 44.8581 40.4348 44.221 40.5744 43.5961C40.669 43.1729 40.4712 42.7387 40.0851 42.5222L38.3357 41.541C37.9418 41.3199 37.8064 40.8284 38.0335 40.4458L39.2752 38.3577C39.5024 37.9752 40.0087 37.8436 40.402 38.0636L42.1507 39.045C42.5372 39.2622 43.0244 39.2109 43.3545 38.9187C44.3327 38.0524 45.4683 37.4149 46.7298 37.0239C47.1548 36.8921 47.4435 36.5085 47.4435 36.075V34.1146C47.4435 33.673 47.8133 33.3138 48.2679 33.3138H50.7507C51.2051 33.3138 51.575 33.673 51.575 34.1146V36.075C51.575 36.5085 51.8634 36.8921 52.2886 37.0239C53.5501 37.4149 54.6856 38.0524 55.6639 38.9187C55.9938 39.2111 56.4811 39.2622 56.8679 39.045L58.6168 38.0642C59.0116 37.8434 59.5172 37.9751 59.7446 38.3577L60.9848 40.4457C61.2121 40.8284 61.0768 41.3199 60.683 41.541L58.9344 42.5225C58.5484 42.7391 58.3506 43.1733 58.4454 43.5964C58.5849 44.2206 58.6558 44.8577 58.6558 45.49C58.6558 46.1224 58.5849 46.7595 58.4454 47.3837C58.3507 47.8069 58.5484 48.241 58.9344 48.4576L60.6828 49.4389C60.8736 49.5461 61.0103 49.7192 61.0673 49.9262C61.1244 50.133 61.0951 50.3487 60.9846 50.5345L59.7446 52.6222C59.5174 53.005 59.0115 53.1368 58.6172 52.9161L56.8679 51.935C56.4811 51.7177 55.9938 51.769 55.6639 52.0613C54.6857 52.9277 53.5501 53.5652 52.2886 53.9562C51.8636 54.0879 51.575 54.4716 51.575 54.9051V56.4455H47.4433V54.9048C47.4435 54.4713 47.155 54.0877 46.7298 53.9559Z" fill="#047BDC"></path><path d="M31.4613 14.9838C32.2618 14.552 32.7592 13.7231 32.7592 12.8205V7.00732C32.7592 6.45721 32.3002 6.01123 31.7338 6.01123C31.1674 6.01123 30.7084 6.45721 30.7084 7.00732V12.8205C30.7084 12.9998 30.6154 13.1613 30.466 13.2419C30.1998 13.3854 29.8539 13.0884 29.8155 13.054C29.3977 12.6825 28.7491 12.7103 28.3667 13.1162C27.9843 13.5219 28.013 14.152 28.4307 14.5234C28.8835 14.926 29.5704 15.2748 30.3215 15.2748C30.6924 15.2749 31.0795 15.1896 31.4613 14.9838Z" fill="#047BDC"></path><path d="M38.4444 8.06982C39.0109 8.06982 39.4698 7.62384 39.4698 7.07373C39.4698 6.52362 39.0109 6.07764 38.4444 6.07764H35.3184C34.7519 6.07764 34.293 6.52362 34.293 7.07373V14.2808C34.293 14.8309 34.7519 15.2769 35.3184 15.2769H38.4444C39.0109 15.2769 39.4698 14.8309 39.4698 14.2808C39.4698 13.7307 39.0109 13.2847 38.4444 13.2847H36.3438V11.6733H38.2139C38.7804 11.6733 39.2393 11.2273 39.2393 10.6772C39.2393 10.1271 38.7804 9.68111 38.2139 9.68111H36.3438V8.06982H38.4444Z" fill="#047BDC"></path><path d="M44.7068 8.00342C45.2516 8.00342 45.7769 8.15921 46.2259 8.45379C46.6951 8.76178 47.3325 8.64185 47.6495 8.18604C47.9664 7.73022 47.8431 7.11105 47.3738 6.80306C46.5846 6.28509 45.6622 6.01123 44.7067 6.01123C42.077 6.01123 39.9375 8.08948 39.9375 10.6441C39.9375 13.1988 42.0769 15.277 44.7067 15.277C45.7601 15.277 46.7063 14.9401 47.4435 14.3026C47.588 14.1776 47.7251 14.0401 47.8509 13.8942C48.2147 13.4725 48.1577 12.8443 47.7236 12.4909C47.2897 12.1376 46.6429 12.1929 46.2792 12.6145C46.217 12.6867 46.1497 12.7543 46.0795 12.8149C45.7189 13.1268 45.257 13.2848 44.7067 13.2848C43.2077 13.2848 41.9883 12.1003 41.9883 10.6441C41.9883 9.18797 43.2079 8.00342 44.7068 8.00342Z" fill="#047BDC"></path><path d="M54.8615 7.00732C54.8615 6.45721 54.4025 6.01123 53.8361 6.01123H49.7012C49.1347 6.01123 48.6758 6.45721 48.6758 7.00732C48.6758 7.55743 49.1347 8.00342 49.7012 8.00342H50.735V14.2808C50.735 14.8309 51.194 15.2769 51.7604 15.2769C52.3269 15.2769 52.7858 14.8309 52.7858 14.2808V8.00342H53.8362C54.4025 8.00342 54.8615 7.55743 54.8615 7.00732Z" fill="#047BDC"></path><path d="M11.6328 14.2808C11.6328 14.8309 12.0918 15.2769 12.6582 15.2769C13.2246 15.2769 13.6836 14.8309 13.6836 14.2808V12.4522L15.9366 14.9389C16.1392 15.1627 16.4223 15.2769 16.7067 15.2769C16.9473 15.2769 17.1889 15.1951 17.3837 15.0285C17.8088 14.665 17.8501 14.0356 17.476 13.6227L15.6641 11.6228C16.8665 11.2292 17.7318 10.1566 17.7318 8.89764C17.7318 7.30602 16.3496 6.01123 14.6505 6.01123H12.6608C12.3883 6.01123 12.1269 6.11655 11.9346 6.30408C11.7422 6.49161 11.6346 6.74582 11.6354 7.01051C11.6353 7.01064 11.6328 14.2808 11.6328 14.2808ZM14.6503 8.00342C15.209 8.00342 15.6809 8.41288 15.6809 8.89764C15.6809 9.38241 15.209 9.79187 14.6503 9.79187C14.4247 9.79187 14.0542 9.7932 13.6943 9.79493C13.6925 9.45532 13.6903 8.36002 13.6892 8.00342H14.6503Z" fill="#047BDC"></path><path d="M4.29297 14.2808C4.29297 14.8309 4.75194 15.2769 5.31836 15.2769C5.88479 15.2769 6.34375 14.8309 6.34375 14.2808V12.1121C6.73805 12.1102 7.15491 12.1085 7.40319 12.1085C9.15647 12.1085 10.5829 10.7408 10.5829 9.05981C10.5829 7.3788 9.15661 6.01123 7.40319 6.01123H5.31836C5.04588 6.01123 4.78461 6.11655 4.59211 6.30408C4.39975 6.49148 4.29215 6.74568 4.29297 7.01038V14.2808ZM7.40319 8.00342C8.01514 8.00342 8.53208 8.48725 8.53208 9.05994C8.53208 9.63263 8.01514 10.1165 7.40319 10.1165C7.15655 10.1165 6.74475 10.1181 6.3525 10.1201C6.35045 9.72493 6.34772 8.41779 6.34663 8.00355H7.40319V8.00342Z" fill="#047BDC"></path><path d="M27.8977 10.6436C27.8977 8.08913 25.7583 6.01074 23.1285 6.01074C20.4987 6.01074 18.3594 8.08899 18.3594 10.6436C18.3594 13.1983 20.4987 15.2765 23.1285 15.2765C25.7583 15.2765 27.8977 13.1983 27.8977 10.6436ZM20.4102 10.6436C20.4102 9.18762 21.6296 8.00293 23.1285 8.00293C24.6275 8.00293 25.8469 9.18748 25.8469 10.6436C25.8469 12.0998 24.6275 13.2844 23.1285 13.2844C21.6296 13.2844 20.4102 12.0998 20.4102 10.6436Z" fill="#047BDC"></path><path d="M6.59375 18.2671C6.59375 18.8172 7.05271 19.2632 7.61914 19.2632H50.4468C51.0133 19.2632 51.4722 18.8172 51.4722 18.2671C51.4722 17.717 51.0133 17.271 50.4468 17.271H7.61914C7.05271 17.271 6.59375 17.7168 6.59375 18.2671Z" fill="#047BDC"></path><path d="M25.7356 21.7759H8.58875C6.43324 21.7759 4.67969 23.4795 4.67969 25.5734V34.5453C4.67969 36.6392 6.43324 38.3428 8.58875 38.3428H25.7355C27.8911 38.3428 29.6447 36.6392 29.6447 34.5453V25.5734C29.6447 23.4793 27.8911 21.7759 25.7356 21.7759ZM27.5939 34.5453C27.5939 35.5407 26.7602 36.3506 25.7355 36.3506H8.58875C7.56418 36.3506 6.73047 35.5407 6.73047 34.5453V25.5734C6.73047 24.578 7.56418 23.7681 8.58875 23.7681H25.7355C26.7602 23.7681 27.5939 24.578 27.5939 25.5734V34.5453Z" fill="#047BDC"></path><path d="M53.3763 26.6147C53.3763 26.0646 52.9174 25.6187 52.351 25.6187H33.2559C32.6894 25.6187 32.2305 26.0646 32.2305 26.6147C32.2305 27.1649 32.6894 27.6108 33.2559 27.6108H52.351C52.9174 27.6108 53.3763 27.1649 53.3763 26.6147Z" fill="#047BDC"></path><path d="M46.0112 30.4565C46.0112 29.9064 45.5522 29.4604 44.9858 29.4604H33.2559C32.6894 29.4604 32.2305 29.9064 32.2305 30.4565C32.2305 31.0067 32.6894 31.4526 33.2559 31.4526H44.9858C45.5522 31.4526 46.0112 31.0067 46.0112 30.4565Z" fill="#047BDC"></path><path d="M4.67969 41.8516C4.67969 42.4017 5.13865 42.8477 5.70508 42.8477H33.2566C33.8231 42.8477 34.282 42.4017 34.282 41.8516C34.282 41.3015 33.8231 40.8555 33.2566 40.8555H5.70508C5.13865 40.8555 4.67969 41.3015 4.67969 41.8516Z" fill="#047BDC"></path><path d="M34.2819 49.5361C34.2819 48.986 33.8229 48.54 33.2565 48.54H5.70508C5.13865 48.54 4.67969 48.986 4.67969 49.5361C4.67969 50.0862 5.13865 50.5322 5.70508 50.5322H33.2566C33.8229 50.5322 34.2819 50.0862 34.2819 49.5361Z" fill="#047BDC"></path><path d="M5.70508 52.4927C5.13865 52.4927 4.67969 52.9387 4.67969 53.4888C4.67969 54.0389 5.13865 54.4849 5.70508 54.4849H18.9354C19.5018 54.4849 19.9607 54.0389 19.9607 53.4888C19.9607 52.9387 19.5018 52.4927 18.9354 52.4927H5.70508Z" fill="#047BDC"></path><path d="M36.055 45.6938C36.055 45.1437 35.596 44.6978 35.0296 44.6978H5.70508C5.13865 44.6978 4.67969 45.1437 4.67969 45.6938C4.67969 46.244 5.13865 46.6899 5.70508 46.6899H35.0296C35.596 46.6899 36.055 46.244 36.055 45.6938Z" fill="#047BDC"></path><path d="M15.6125 29.1958H9.2168C8.65037 29.1958 8.19141 29.6418 8.19141 30.1919V34.1668C8.19141 34.717 8.65037 35.1629 9.2168 35.1629H15.6124C16.1788 35.1629 16.6378 34.717 16.6378 34.1668V30.1919C16.6379 29.6418 16.1788 29.1958 15.6125 29.1958ZM14.5871 33.1706H10.2422V31.1879H14.587L14.5871 33.1706Z" fill="#047BDC"></path><path d="M25.1085 25.5298H18.7129C18.1465 25.5298 17.6875 25.9758 17.6875 26.5259V34.1666C17.6875 34.7167 18.1465 35.1627 18.7129 35.1627H25.1085C25.6749 35.1627 26.1338 34.7167 26.1338 34.1666V26.5259C26.1338 25.9758 25.6747 25.5298 25.1085 25.5298ZM24.0831 33.1704H19.7383V27.5218H24.0831V33.1704Z" fill="#047BDC"></path></svg>