<svg xmlns="http://www.w3.org/2000/svg" width="85" height="68" viewBox="0 0 85 68" fill="none"><mask id="path-1-inside-1_246_4" fill="white"><path d="M53.5585 23.1048H48.5364V17.498H51.9844C52.6042 19.3609 54.4496 20.7161 56.6241 20.7161C59.3052 20.7161 61.4865 18.656 61.4865 16.1238C61.4865 13.5917 59.3051 11.5315 56.624 11.5315C54.4496 11.5315 52.6042 12.8867 51.9842 14.7496H47.0812C46.2776 14.7496 45.6261 15.3649 45.6261 16.1238V23.1048H40.8916V16.8265C42.8641 16.2411 44.299 14.4981 44.299 12.4445C44.299 9.91237 42.1177 7.85225 39.4366 7.85225C36.7554 7.85225 34.5741 9.91237 34.5741 12.4445C34.5741 14.4981 36.009 16.2411 37.9815 16.8265V23.1048H33.247V16.1238C33.247 15.3649 32.5955 14.7496 31.7919 14.7496H26.8888C26.2689 12.8867 24.4235 11.5315 22.249 11.5315C19.5679 11.5315 17.3866 13.5917 17.3866 16.1238C17.3866 18.656 19.5679 20.7161 22.249 20.7161C24.4234 20.7161 26.2687 19.3609 26.8888 17.498H30.3369V23.1048H25.3146C24.511 23.1048 23.8595 23.7201 23.8595 24.479V26.2842C23.8595 26.8528 24.2302 27.3625 24.792 27.5667L26.4419 28.1664C26.7041 28.9925 27.0541 29.7897 27.4877 30.5491L26.7696 32.0762C26.5254 32.5956 26.6449 33.2037 27.0706 33.6057L29.7734 36.1581C30.1988 36.5601 30.8425 36.6728 31.3927 36.4422L33.0103 35.7637C33.815 36.1734 34.6585 36.5039 35.5321 36.7513L36.1674 38.3101C36.3835 38.8406 36.9233 39.1907 37.5253 39.1907H41.3478C41.9498 39.1907 42.4894 38.8406 42.7057 38.3101L43.3406 36.7519C44.2151 36.5042 45.059 36.1737 45.8637 35.7642L47.4802 36.4422C48.0303 36.6731 48.6737 36.5599 49.0995 36.1581L51.8025 33.6055C52.2283 33.2036 52.3477 32.5955 52.1035 32.076L51.3851 30.5482C51.8187 29.7886 52.1686 28.9916 52.4305 28.1666L54.0811 27.5665C54.6427 27.3625 55.0134 26.8526 55.0134 26.2841V24.479C55.0136 23.7201 54.3621 23.1048 53.5585 23.1048ZM56.624 14.28C57.7005 14.28 58.5763 15.1071 58.5763 16.1238C58.5763 17.1406 57.7005 17.9677 56.624 17.9677C55.5476 17.9677 54.6718 17.1406 54.6718 16.1238C54.6718 15.1071 55.5476 14.28 56.624 14.28ZM39.4366 10.6005C40.5131 10.6005 41.3889 11.4276 41.3889 12.4444C41.3889 13.4611 40.5131 14.2882 39.4366 14.2882C38.36 14.2882 37.4842 13.4611 37.4842 12.4444C37.4842 11.4276 38.36 10.6005 39.4366 10.6005ZM22.249 17.9678C21.1724 17.9678 20.2967 17.1407 20.2967 16.124C20.2967 15.1072 21.1724 14.2801 22.249 14.2801C23.3253 14.2801 24.2011 15.1072 24.2011 16.124C24.2011 17.1407 23.3253 17.9678 22.249 17.9678ZM45.4534 25.8534C44.7973 28.4158 42.3485 30.3248 39.4366 30.3248C36.5245 30.3248 34.0758 28.4158 33.4196 25.8532L45.4534 25.8534ZM49.8025 26.8169C49.5417 27.8522 49.1092 28.8384 48.5162 29.7476C48.2647 30.1334 48.2309 30.6116 48.4255 31.0258L49.0384 32.3292L47.7483 33.5476L46.369 32.9691C45.9308 32.7853 45.4241 32.8169 45.0154 33.055C44.0529 33.6148 43.0085 34.0238 41.9116 34.2703C41.4449 34.3751 41.0628 34.6905 40.8905 35.1134L40.3487 36.4424H38.5246L37.9826 35.1127C37.8104 34.6898 37.4282 34.3744 36.9615 34.2694C35.8659 34.0233 34.8217 33.6146 33.8584 33.0545C33.4498 32.8167 32.9432 32.7848 32.5051 32.9687L31.1248 33.5476L29.8349 32.3296L30.4476 31.0265C30.6424 30.6121 30.6084 30.1339 30.3565 29.7479C29.7639 28.8396 29.3311 27.8534 29.0699 26.8167C28.9591 26.3768 28.6263 26.0168 28.1799 25.8536H30.4547C31.1533 29.9413 34.9144 33.0735 39.4367 33.0735C43.959 33.0735 47.7198 29.9412 48.4186 25.8536H50.6934C50.2467 26.0164 49.9136 26.3768 49.8025 26.8169ZM78.8704 30.0156V6.91092C78.8704 3.10005 75.5993 0 71.5782 0H7.29471C3.27241 0 0 3.0906 0 6.88944V44.832C0 48.6308 3.27241 51.7214 7.29471 51.7214H26.0445V57.7357H18.6106C15.0623 57.7357 12.1755 60.0378 12.1755 62.8678V66.6258C12.1755 67.3847 12.827 68 13.6305 68H65.2424C66.0459 68 66.6974 67.3847 66.6974 66.6258V62.8678C66.6974 60.0378 63.8108 57.7357 60.2625 57.7357H52.8286V51.7214H55.4194C58.4444 55.1396 62.9902 57.3181 68.0652 57.3181C77.1512 57.3181 84.5433 50.3367 84.5433 41.7555C84.5431 37.0751 82.3438 32.8708 78.8704 30.0156ZM81.5539 40.3812H78.2671C78.1038 38.3397 77.5707 36.3383 76.6936 34.4709C77.3537 34.232 77.9844 33.9647 78.5806 33.6689C80.1983 35.5418 81.267 37.8523 81.5539 40.3812ZM54.5763 43.1297H57.8653C58.0323 45.2035 58.5652 47.1979 59.428 49.0431C58.7711 49.2812 58.143 49.5474 57.5494 49.8418C55.9319 47.9693 54.8632 45.6587 54.5763 43.1297ZM7.79361 39.6826V7.36028H71.0797V26.4548C70.1021 26.2834 69.0946 26.1928 68.0652 26.1928C59.7232 26.1928 52.8103 32.0777 51.7337 39.6825H7.79361V39.6826ZM76.361 31.6263C76.0152 31.7694 75.6594 31.903 75.2928 32.0255C74.8464 31.3731 74.3566 30.749 73.8263 30.1573C74.7302 30.5596 75.5789 31.0538 76.361 31.6263ZM66.6098 53.5258C65.5478 52.7048 64.6122 51.7711 63.8175 50.7469C64.7271 50.5903 65.6634 50.4848 66.6098 50.4319V53.5258ZM66.6098 47.6713C65.0911 47.746 63.6253 47.9377 62.2419 48.2385C61.4538 46.6513 60.9555 44.9277 60.7843 43.1298H66.6096V47.6713H66.6098ZM54.5763 40.3812C54.8632 37.8523 55.9319 35.5418 57.5494 33.6691C58.1456 33.9649 58.7763 34.2322 59.4362 34.4709C58.559 36.3383 58.0261 38.3397 57.8627 40.3812H54.5763ZM66.6098 29.9841V33.0792C65.6613 33.0261 64.7229 32.9203 63.8115 32.7629C64.6076 31.7397 65.545 30.8057 66.6098 29.9841ZM60.8371 32.0255C60.4706 31.903 60.115 31.7694 59.7692 31.6263C60.551 31.0538 61.3996 30.5597 62.3034 30.1576C61.7732 30.7492 61.2832 31.3733 60.8371 32.0255ZM60.7805 40.3812C60.9465 38.5841 61.4434 36.8598 62.2335 35.2707C63.6193 35.5725 65.0882 35.7649 66.61 35.8398V40.3812H60.7805ZM69.5199 29.9841C70.5846 30.8057 71.5222 31.7397 72.3181 32.7631C71.4067 32.9203 70.4682 33.0261 69.5199 33.0792V29.9841ZM60.8241 51.4897C61.2637 52.134 61.7477 52.7526 62.2745 53.3411C61.3812 52.9414 60.5428 52.4511 59.7692 51.8848C60.111 51.7434 60.4622 51.611 60.8241 51.4897ZM69.5199 53.5258V50.4317C70.4662 50.4846 71.4027 50.5901 72.3123 50.7468C71.5177 51.7711 70.5821 52.705 69.5199 53.5258ZM75.3057 51.4895C75.6676 51.6108 76.019 51.7432 76.3608 51.8846C75.5871 52.4511 74.7484 52.9414 73.855 53.3413C74.3819 52.7528 74.8661 52.1342 75.3057 51.4895ZM69.5199 47.6713V43.1298H75.3452C75.1742 44.9277 74.6757 46.6511 73.8876 48.2385C72.5045 47.9375 71.0386 47.7458 69.5199 47.6713ZM69.5199 40.3812V35.8398C71.0417 35.7649 72.5105 35.5727 73.8963 35.2707C74.6864 36.8596 75.1833 38.5841 75.3493 40.3812H69.5199ZM63.7873 62.8678V65.2516H15.0856V62.8678C15.0856 61.5757 16.6998 60.4841 18.6106 60.4841H60.2625C62.1731 60.4841 63.7873 61.5756 63.7873 62.8678ZM49.9185 57.7357H28.9546V51.7214H49.9185V57.7357ZM7.29471 48.973C4.87696 48.973 2.9101 47.1154 2.9101 44.832V6.88944C2.9101 4.60602 4.87696 2.74843 7.29471 2.74843H71.5782C73.9945 2.74843 75.9603 4.61581 75.9603 6.91092V28.099C75.3275 27.7715 74.6693 27.4824 73.9898 27.2341V6.75099C73.9898 5.57157 72.9736 4.61186 71.7248 4.61186H7.14847C5.89968 4.61186 4.88351 5.57157 4.88351 6.75099V41.0568C4.88351 41.8157 5.53501 42.4311 6.33856 42.4311H51.6037C51.7106 44.7835 52.373 47.0022 53.4701 48.973H7.29471ZM78.5806 49.842C77.9868 49.5474 77.3588 49.2812 76.7018 49.0431C77.5647 47.1979 78.0976 45.2035 78.2645 43.1297H81.5539C81.267 45.6587 80.1983 47.9693 78.5806 49.842Z"></path></mask><path d="M53.5585 23.1048H48.5364V17.498H51.9844C52.6042 19.3609 54.4496 20.7161 56.6241 20.7161C59.3052 20.7161 61.4865 18.656 61.4865 16.1238C61.4865 13.5917 59.3051 11.5315 56.624 11.5315C54.4496 11.5315 52.6042 12.8867 51.9842 14.7496H47.0812C46.2776 14.7496 45.6261 15.3649 45.6261 16.1238V23.1048H40.8916V16.8265C42.8641 16.2411 44.299 14.4981 44.299 12.4445C44.299 9.91237 42.1177 7.85225 39.4366 7.85225C36.7554 7.85225 34.5741 9.91237 34.5741 12.4445C34.5741 14.4981 36.009 16.2411 37.9815 16.8265V23.1048H33.247V16.1238C33.247 15.3649 32.5955 14.7496 31.7919 14.7496H26.8888C26.2689 12.8867 24.4235 11.5315 22.249 11.5315C19.5679 11.5315 17.3866 13.5917 17.3866 16.1238C17.3866 18.656 19.5679 20.7161 22.249 20.7161C24.4234 20.7161 26.2687 19.3609 26.8888 17.498H30.3369V23.1048H25.3146C24.511 23.1048 23.8595 23.7201 23.8595 24.479V26.2842C23.8595 26.8528 24.2302 27.3625 24.792 27.5667L26.4419 28.1664C26.7041 28.9925 27.0541 29.7897 27.4877 30.5491L26.7696 32.0762C26.5254 32.5956 26.6449 33.2037 27.0706 33.6057L29.7734 36.1581C30.1988 36.5601 30.8425 36.6728 31.3927 36.4422L33.0103 35.7637C33.815 36.1734 34.6585 36.5039 35.5321 36.7513L36.1674 38.3101C36.3835 38.8406 36.9233 39.1907 37.5253 39.1907H41.3478C41.9498 39.1907 42.4894 38.8406 42.7057 38.3101L43.3406 36.7519C44.2151 36.5042 45.059 36.1737 45.8637 35.7642L47.4802 36.4422C48.0303 36.6731 48.6737 36.5599 49.0995 36.1581L51.8025 33.6055C52.2283 33.2036 52.3477 32.5955 52.1035 32.076L51.3851 30.5482C51.8187 29.7886 52.1686 28.9916 52.4305 28.1666L54.0811 27.5665C54.6427 27.3625 55.0134 26.8526 55.0134 26.2841V24.479C55.0136 23.7201 54.3621 23.1048 53.5585 23.1048ZM56.624 14.28C57.7005 14.28 58.5763 15.1071 58.5763 16.1238C58.5763 17.1406 57.7005 17.9677 56.624 17.9677C55.5476 17.9677 54.6718 17.1406 54.6718 16.1238C54.6718 15.1071 55.5476 14.28 56.624 14.28ZM39.4366 10.6005C40.5131 10.6005 41.3889 11.4276 41.3889 12.4444C41.3889 13.4611 40.5131 14.2882 39.4366 14.2882C38.36 14.2882 37.4842 13.4611 37.4842 12.4444C37.4842 11.4276 38.36 10.6005 39.4366 10.6005ZM22.249 17.9678C21.1724 17.9678 20.2967 17.1407 20.2967 16.124C20.2967 15.1072 21.1724 14.2801 22.249 14.2801C23.3253 14.2801 24.2011 15.1072 24.2011 16.124C24.2011 17.1407 23.3253 17.9678 22.249 17.9678ZM45.4534 25.8534C44.7973 28.4158 42.3485 30.3248 39.4366 30.3248C36.5245 30.3248 34.0758 28.4158 33.4196 25.8532L45.4534 25.8534ZM49.8025 26.8169C49.5417 27.8522 49.1092 28.8384 48.5162 29.7476C48.2647 30.1334 48.2309 30.6116 48.4255 31.0258L49.0384 32.3292L47.7483 33.5476L46.369 32.9691C45.9308 32.7853 45.4241 32.8169 45.0154 33.055C44.0529 33.6148 43.0085 34.0238 41.9116 34.2703C41.4449 34.3751 41.0628 34.6905 40.8905 35.1134L40.3487 36.4424H38.5246L37.9826 35.1127C37.8104 34.6898 37.4282 34.3744 36.9615 34.2694C35.8659 34.0233 34.8217 33.6146 33.8584 33.0545C33.4498 32.8167 32.9432 32.7848 32.5051 32.9687L31.1248 33.5476L29.8349 32.3296L30.4476 31.0265C30.6424 30.6121 30.6084 30.1339 30.3565 29.7479C29.7639 28.8396 29.3311 27.8534 29.0699 26.8167C28.9591 26.3768 28.6263 26.0168 28.1799 25.8536H30.4547C31.1533 29.9413 34.9144 33.0735 39.4367 33.0735C43.959 33.0735 47.7198 29.9412 48.4186 25.8536H50.6934C50.2467 26.0164 49.9136 26.3768 49.8025 26.8169ZM78.8704 30.0156V6.91092C78.8704 3.10005 75.5993 0 71.5782 0H7.29471C3.27241 0 0 3.0906 0 6.88944V44.832C0 48.6308 3.27241 51.7214 7.29471 51.7214H26.0445V57.7357H18.6106C15.0623 57.7357 12.1755 60.0378 12.1755 62.8678V66.6258C12.1755 67.3847 12.827 68 13.6305 68H65.2424C66.0459 68 66.6974 67.3847 66.6974 66.6258V62.8678C66.6974 60.0378 63.8108 57.7357 60.2625 57.7357H52.8286V51.7214H55.4194C58.4444 55.1396 62.9902 57.3181 68.0652 57.3181C77.1512 57.3181 84.5433 50.3367 84.5433 41.7555C84.5431 37.0751 82.3438 32.8708 78.8704 30.0156ZM81.5539 40.3812H78.2671C78.1038 38.3397 77.5707 36.3383 76.6936 34.4709C77.3537 34.232 77.9844 33.9647 78.5806 33.6689C80.1983 35.5418 81.267 37.8523 81.5539 40.3812ZM54.5763 43.1297H57.8653C58.0323 45.2035 58.5652 47.1979 59.428 49.0431C58.7711 49.2812 58.143 49.5474 57.5494 49.8418C55.9319 47.9693 54.8632 45.6587 54.5763 43.1297ZM7.79361 39.6826V7.36028H71.0797V26.4548C70.1021 26.2834 69.0946 26.1928 68.0652 26.1928C59.7232 26.1928 52.8103 32.0777 51.7337 39.6825H7.79361V39.6826ZM76.361 31.6263C76.0152 31.7694 75.6594 31.903 75.2928 32.0255C74.8464 31.3731 74.3566 30.749 73.8263 30.1573C74.7302 30.5596 75.5789 31.0538 76.361 31.6263ZM66.6098 53.5258C65.5478 52.7048 64.6122 51.7711 63.8175 50.7469C64.7271 50.5903 65.6634 50.4848 66.6098 50.4319V53.5258ZM66.6098 47.6713C65.0911 47.746 63.6253 47.9377 62.2419 48.2385C61.4538 46.6513 60.9555 44.9277 60.7843 43.1298H66.6096V47.6713H66.6098ZM54.5763 40.3812C54.8632 37.8523 55.9319 35.5418 57.5494 33.6691C58.1456 33.9649 58.7763 34.2322 59.4362 34.4709C58.559 36.3383 58.0261 38.3397 57.8627 40.3812H54.5763ZM66.6098 29.9841V33.0792C65.6613 33.0261 64.7229 32.9203 63.8115 32.7629C64.6076 31.7397 65.545 30.8057 66.6098 29.9841ZM60.8371 32.0255C60.4706 31.903 60.115 31.7694 59.7692 31.6263C60.551 31.0538 61.3996 30.5597 62.3034 30.1576C61.7732 30.7492 61.2832 31.3733 60.8371 32.0255ZM60.7805 40.3812C60.9465 38.5841 61.4434 36.8598 62.2335 35.2707C63.6193 35.5725 65.0882 35.7649 66.61 35.8398V40.3812H60.7805ZM69.5199 29.9841C70.5846 30.8057 71.5222 31.7397 72.3181 32.7631C71.4067 32.9203 70.4682 33.0261 69.5199 33.0792V29.9841ZM60.8241 51.4897C61.2637 52.134 61.7477 52.7526 62.2745 53.3411C61.3812 52.9414 60.5428 52.4511 59.7692 51.8848C60.111 51.7434 60.4622 51.611 60.8241 51.4897ZM69.5199 53.5258V50.4317C70.4662 50.4846 71.4027 50.5901 72.3123 50.7468C71.5177 51.7711 70.5821 52.705 69.5199 53.5258ZM75.3057 51.4895C75.6676 51.6108 76.019 51.7432 76.3608 51.8846C75.5871 52.4511 74.7484 52.9414 73.855 53.3413C74.3819 52.7528 74.8661 52.1342 75.3057 51.4895ZM69.5199 47.6713V43.1298H75.3452C75.1742 44.9277 74.6757 46.6511 73.8876 48.2385C72.5045 47.9375 71.0386 47.7458 69.5199 47.6713ZM69.5199 40.3812V35.8398C71.0417 35.7649 72.5105 35.5727 73.8963 35.2707C74.6864 36.8596 75.1833 38.5841 75.3493 40.3812H69.5199ZM63.7873 62.8678V65.2516H15.0856V62.8678C15.0856 61.5757 16.6998 60.4841 18.6106 60.4841H60.2625C62.1731 60.4841 63.7873 61.5756 63.7873 62.8678ZM49.9185 57.7357H28.9546V51.7214H49.9185V57.7357ZM7.29471 48.973C4.87696 48.973 2.9101 47.1154 2.9101 44.832V6.88944C2.9101 4.60602 4.87696 2.74843 7.29471 2.74843H71.5782C73.9945 2.74843 75.9603 4.61581 75.9603 6.91092V28.099C75.3275 27.7715 74.6693 27.4824 73.9898 27.2341V6.75099C73.9898 5.57157 72.9736 4.61186 71.7248 4.61186H7.14847C5.89968 4.61186 4.88351 5.57157 4.88351 6.75099V41.0568C4.88351 41.8157 5.53501 42.4311 6.33856 42.4311H51.6037C51.7106 44.7835 52.373 47.0022 53.4701 48.973H7.29471ZM78.5806 49.842C77.9868 49.5474 77.3588 49.2812 76.7018 49.0431C77.5647 47.1979 78.0976 45.2035 78.2645 43.1297H81.5539C81.267 45.6587 80.1983 47.9693 78.5806 49.842Z" fill="#047BDC" stroke="white" stroke-width="0.8" mask="url(#path-1-inside-1_246_4)"></path></svg>