<svg xmlns="http://www.w3.org/2000/svg" width="75" height="75" viewBox="0 0 75 75" fill="none"><mask id="path-1-outside-1_258_78" maskUnits="userSpaceOnUse" x="0" y="0" width="75" height="75" fill="black"><rect fill="white" width="75" height="75"></rect><path d="M38.2935 6.93522C38.2935 7.37354 37.9382 7.7287 37.5 7.7287C34.2115 7.7287 31.3515 10.1718 30.8475 13.4116C30.7865 13.8032 30.4488 14.0832 30.0645 14.0832C30.0238 14.0832 29.9827 14.08 29.9415 14.0735C29.5084 14.0062 29.212 13.6006 29.2794 13.1675C29.9024 9.16235 33.4366 6.14174 37.5 6.14174C37.9382 6.14174 38.2935 6.49706 38.2935 6.93522ZM74 37.9491V52.4009C74 52.8392 73.6447 53.1944 73.2065 53.1944H67.0248C67.0244 53.1944 67.0239 53.1945 67.0233 53.1945H62.738V54.9426H68.5104C68.9486 54.9426 69.3039 55.2977 69.3039 55.736C69.3039 56.1744 68.9486 56.5295 68.5104 56.5295H55.3787C54.9405 56.5295 54.5852 56.1744 54.5852 55.736C54.5852 55.2977 54.9405 54.9426 55.3787 54.9426H61.151V53.1945H56.31C56.3096 53.1945 56.3091 53.1944 56.3085 53.1944H50.1266C49.6885 53.1944 49.3331 52.8392 49.3331 52.4009V45.3277H43.9269C43.4887 45.3277 43.1334 44.9725 43.1334 44.5342V27.9243H38.2171V54.6264H48.9358C49.3739 54.6264 49.7292 54.9816 49.7292 55.4199V69.8715C49.7292 70.3098 49.3739 70.665 48.9358 70.665H42.7539C42.7535 70.665 42.753 70.6652 42.7523 70.6652H38.4671V72.413H44.2395C44.6776 72.413 45.033 72.7682 45.033 73.2065C45.033 73.6448 44.6776 74 44.2395 74H31.1077C30.6696 74 30.3143 73.6448 30.3143 73.2065C30.3143 72.7682 30.6696 72.413 31.1077 72.413H36.8801V70.6652H32.0391C32.0386 70.6652 32.0382 70.665 32.0375 70.665H25.8557C25.4175 70.665 25.0622 70.3098 25.0622 69.8715V55.4199C25.0622 54.9816 25.4175 54.6264 25.8557 54.6264H36.6302V27.9243H31.8668V44.5342C31.8668 44.9725 31.5115 45.3277 31.0733 45.3277H25.667V52.4009C25.667 52.8392 25.3117 53.1944 24.8735 53.1944H18.9696C18.9691 53.1944 18.9686 53.1945 18.968 53.1945H14.4049V54.9426H20.1773C20.6154 54.9426 20.9707 55.2977 20.9707 55.736C20.9707 56.1744 20.6154 56.5295 20.1773 56.5295H7.04551C6.60735 56.5295 6.25203 56.1744 6.25203 55.736C6.25203 55.2977 6.60735 54.9426 7.04551 54.9426H12.8179V53.1945H8.25477C8.2543 53.1945 8.25382 53.1944 8.25319 53.1944H1.79348C1.35532 53.1944 1 52.8392 1 52.4009V37.9491C1 37.5108 1.35532 37.1556 1.79348 37.1556H24.8735C25.3117 37.1556 25.667 37.5108 25.667 37.9491V43.7407H30.2798V27.9243H21.0739C16.3148 27.9243 12.4431 24.0526 12.4431 19.2933C12.4431 14.5344 16.3148 10.6625 21.0739 10.6625C22.2216 10.6625 23.3553 10.8912 24.4052 11.33C25.057 8.6012 26.5583 6.12492 28.7032 4.27151C31.1449 2.16197 34.2691 1 37.5 1C40.731 1 43.8551 2.16197 46.297 4.27167C48.4419 6.12508 49.9433 8.6012 50.5949 11.3301C51.6449 10.8913 52.7787 10.6627 53.9264 10.6627C58.6856 10.6627 62.5572 14.5344 62.5572 19.2935C62.5572 24.0526 58.6856 27.9245 53.9264 27.9245H44.7203V43.7409H49.3331V37.9491C49.3331 37.5108 49.6885 37.1556 50.1266 37.1556H73.2065C73.6447 37.1556 74 37.5108 74 37.9491ZM13.6114 46.251C14.6164 46.251 15.4338 45.4335 15.4338 44.4287C15.4338 43.4238 14.6164 42.6063 13.6114 42.6063C12.6064 42.6063 11.7889 43.4238 11.7889 44.4287C11.7889 45.4335 12.6065 46.251 13.6114 46.251ZM9.11744 51.6074H18.1055C17.7287 49.4682 15.8569 47.8378 13.6114 47.8378C11.3658 47.8378 9.49419 49.4683 9.11744 51.6074ZM24.0801 38.7426H2.58696V51.6074H7.5143C7.79503 49.4391 9.20837 47.6221 11.1407 46.7707C10.5606 46.1592 10.2021 45.3358 10.2021 44.4283C10.2021 42.5484 11.7316 41.0191 13.6115 41.0191C15.4915 41.0191 17.021 42.5486 17.021 44.4283C17.021 45.3356 16.6625 46.1592 16.0824 46.7707C18.0147 47.6221 19.4279 49.439 19.7088 51.6074H24.0802L24.0801 38.7426ZM39.2182 61.8991C39.2182 60.8943 38.4008 60.0768 37.3959 60.0768C36.3909 60.0768 35.5734 60.8943 35.5734 61.8991C35.5734 62.904 36.3909 63.7214 37.3959 63.7214C38.4006 63.7214 39.2182 62.904 39.2182 61.8991ZM32.9016 69.078H41.8898C41.5131 66.9388 39.6411 65.3084 37.3957 65.3084C35.1504 65.3084 33.2784 66.9388 32.9016 69.078ZM48.1423 56.2134H26.6492V69.078H31.2985C31.5792 66.9098 32.9926 65.0927 34.9248 64.2413C34.3448 63.6299 33.9863 62.8064 33.9863 61.899C33.9863 60.0191 35.5158 58.4897 37.3957 58.4897C39.2756 58.4897 40.805 60.0192 40.805 61.899C40.805 62.8062 40.4465 63.6299 39.8665 64.2413C41.7987 65.0927 43.2121 66.9096 43.4928 69.078H48.1421V56.2134H48.1423ZM21.0737 26.3373H53.9264C57.8105 26.3373 60.9703 23.1774 60.9703 19.2933C60.9703 15.4092 57.8103 12.2495 53.9264 12.2495C52.6915 12.2495 51.4766 12.5735 50.4135 13.1864C50.1868 13.3173 49.9103 13.3276 49.6743 13.2146C49.4384 13.1017 49.2733 12.8796 49.2332 12.6211C48.3286 6.80699 43.3941 2.58696 37.5 2.58696C31.6059 2.58696 26.6716 6.80699 25.767 12.6211C25.7268 12.8796 25.5618 13.1017 25.3258 13.2146C25.0898 13.3278 24.8134 13.3173 24.5866 13.1864C23.5234 12.5735 22.3087 12.2495 21.0737 12.2495C17.1897 12.2495 14.0299 15.4092 14.0299 19.2933C14.0299 23.1774 17.1898 26.3373 21.0737 26.3373ZM61.6666 46.251C62.6717 46.251 63.4891 45.4335 63.4891 44.4287C63.4891 43.4238 62.6717 42.6063 61.6666 42.6063C60.6616 42.6063 59.8442 43.4238 59.8442 44.4287C59.8442 45.4335 60.6616 46.251 61.6666 46.251ZM57.1725 51.6074H66.1608C65.784 49.4682 63.912 47.8378 61.6666 47.8378C59.4213 47.8378 57.5493 49.4683 57.1725 51.6074ZM72.413 38.7426H50.9201V51.6074H55.5694C55.8501 49.4391 57.2635 47.6221 59.1958 46.7707C58.6157 46.1592 58.2572 45.3358 58.2572 44.4283C58.2572 42.5484 59.7867 41.0191 61.6666 41.0191C63.5466 41.0191 65.0761 42.5486 65.0761 44.4283C65.0761 45.3356 64.7176 46.1592 64.1375 46.7707C66.0698 47.6221 67.4832 49.439 67.7639 51.6074H72.413V38.7426Z"></path></mask><path d="M38.2935 6.93522C38.2935 7.37354 37.9382 7.7287 37.5 7.7287C34.2115 7.7287 31.3515 10.1718 30.8475 13.4116C30.7865 13.8032 30.4488 14.0832 30.0645 14.0832C30.0238 14.0832 29.9827 14.08 29.9415 14.0735C29.5084 14.0062 29.212 13.6006 29.2794 13.1675C29.9024 9.16235 33.4366 6.14174 37.5 6.14174C37.9382 6.14174 38.2935 6.49706 38.2935 6.93522ZM74 37.9491V52.4009C74 52.8392 73.6447 53.1944 73.2065 53.1944H67.0248C67.0244 53.1944 67.0239 53.1945 67.0233 53.1945H62.738V54.9426H68.5104C68.9486 54.9426 69.3039 55.2977 69.3039 55.736C69.3039 56.1744 68.9486 56.5295 68.5104 56.5295H55.3787C54.9405 56.5295 54.5852 56.1744 54.5852 55.736C54.5852 55.2977 54.9405 54.9426 55.3787 54.9426H61.151V53.1945H56.31C56.3096 53.1945 56.3091 53.1944 56.3085 53.1944H50.1266C49.6885 53.1944 49.3331 52.8392 49.3331 52.4009V45.3277H43.9269C43.4887 45.3277 43.1334 44.9725 43.1334 44.5342V27.9243H38.2171V54.6264H48.9358C49.3739 54.6264 49.7292 54.9816 49.7292 55.4199V69.8715C49.7292 70.3098 49.3739 70.665 48.9358 70.665H42.7539C42.7535 70.665 42.753 70.6652 42.7523 70.6652H38.4671V72.413H44.2395C44.6776 72.413 45.033 72.7682 45.033 73.2065C45.033 73.6448 44.6776 74 44.2395 74H31.1077C30.6696 74 30.3143 73.6448 30.3143 73.2065C30.3143 72.7682 30.6696 72.413 31.1077 72.413H36.8801V70.6652H32.0391C32.0386 70.6652 32.0382 70.665 32.0375 70.665H25.8557C25.4175 70.665 25.0622 70.3098 25.0622 69.8715V55.4199C25.0622 54.9816 25.4175 54.6264 25.8557 54.6264H36.6302V27.9243H31.8668V44.5342C31.8668 44.9725 31.5115 45.3277 31.0733 45.3277H25.667V52.4009C25.667 52.8392 25.3117 53.1944 24.8735 53.1944H18.9696C18.9691 53.1944 18.9686 53.1945 18.968 53.1945H14.4049V54.9426H20.1773C20.6154 54.9426 20.9707 55.2977 20.9707 55.736C20.9707 56.1744 20.6154 56.5295 20.1773 56.5295H7.04551C6.60735 56.5295 6.25203 56.1744 6.25203 55.736C6.25203 55.2977 6.60735 54.9426 7.04551 54.9426H12.8179V53.1945H8.25477C8.2543 53.1945 8.25382 53.1944 8.25319 53.1944H1.79348C1.35532 53.1944 1 52.8392 1 52.4009V37.9491C1 37.5108 1.35532 37.1556 1.79348 37.1556H24.8735C25.3117 37.1556 25.667 37.5108 25.667 37.9491V43.7407H30.2798V27.9243H21.0739C16.3148 27.9243 12.4431 24.0526 12.4431 19.2933C12.4431 14.5344 16.3148 10.6625 21.0739 10.6625C22.2216 10.6625 23.3553 10.8912 24.4052 11.33C25.057 8.6012 26.5583 6.12492 28.7032 4.27151C31.1449 2.16197 34.2691 1 37.5 1C40.731 1 43.8551 2.16197 46.297 4.27167C48.4419 6.12508 49.9433 8.6012 50.5949 11.3301C51.6449 10.8913 52.7787 10.6627 53.9264 10.6627C58.6856 10.6627 62.5572 14.5344 62.5572 19.2935C62.5572 24.0526 58.6856 27.9245 53.9264 27.9245H44.7203V43.7409H49.3331V37.9491C49.3331 37.5108 49.6885 37.1556 50.1266 37.1556H73.2065C73.6447 37.1556 74 37.5108 74 37.9491ZM13.6114 46.251C14.6164 46.251 15.4338 45.4335 15.4338 44.4287C15.4338 43.4238 14.6164 42.6063 13.6114 42.6063C12.6064 42.6063 11.7889 43.4238 11.7889 44.4287C11.7889 45.4335 12.6065 46.251 13.6114 46.251ZM9.11744 51.6074H18.1055C17.7287 49.4682 15.8569 47.8378 13.6114 47.8378C11.3658 47.8378 9.49419 49.4683 9.11744 51.6074ZM24.0801 38.7426H2.58696V51.6074H7.5143C7.79503 49.4391 9.20837 47.6221 11.1407 46.7707C10.5606 46.1592 10.2021 45.3358 10.2021 44.4283C10.2021 42.5484 11.7316 41.0191 13.6115 41.0191C15.4915 41.0191 17.021 42.5486 17.021 44.4283C17.021 45.3356 16.6625 46.1592 16.0824 46.7707C18.0147 47.6221 19.4279 49.439 19.7088 51.6074H24.0802L24.0801 38.7426ZM39.2182 61.8991C39.2182 60.8943 38.4008 60.0768 37.3959 60.0768C36.3909 60.0768 35.5734 60.8943 35.5734 61.8991C35.5734 62.904 36.3909 63.7214 37.3959 63.7214C38.4006 63.7214 39.2182 62.904 39.2182 61.8991ZM32.9016 69.078H41.8898C41.5131 66.9388 39.6411 65.3084 37.3957 65.3084C35.1504 65.3084 33.2784 66.9388 32.9016 69.078ZM48.1423 56.2134H26.6492V69.078H31.2985C31.5792 66.9098 32.9926 65.0927 34.9248 64.2413C34.3448 63.6299 33.9863 62.8064 33.9863 61.899C33.9863 60.0191 35.5158 58.4897 37.3957 58.4897C39.2756 58.4897 40.805 60.0192 40.805 61.899C40.805 62.8062 40.4465 63.6299 39.8665 64.2413C41.7987 65.0927 43.2121 66.9096 43.4928 69.078H48.1421V56.2134H48.1423ZM21.0737 26.3373H53.9264C57.8105 26.3373 60.9703 23.1774 60.9703 19.2933C60.9703 15.4092 57.8103 12.2495 53.9264 12.2495C52.6915 12.2495 51.4766 12.5735 50.4135 13.1864C50.1868 13.3173 49.9103 13.3276 49.6743 13.2146C49.4384 13.1017 49.2733 12.8796 49.2332 12.6211C48.3286 6.80699 43.3941 2.58696 37.5 2.58696C31.6059 2.58696 26.6716 6.80699 25.767 12.6211C25.7268 12.8796 25.5618 13.1017 25.3258 13.2146C25.0898 13.3278 24.8134 13.3173 24.5866 13.1864C23.5234 12.5735 22.3087 12.2495 21.0737 12.2495C17.1897 12.2495 14.0299 15.4092 14.0299 19.2933C14.0299 23.1774 17.1898 26.3373 21.0737 26.3373ZM61.6666 46.251C62.6717 46.251 63.4891 45.4335 63.4891 44.4287C63.4891 43.4238 62.6717 42.6063 61.6666 42.6063C60.6616 42.6063 59.8442 43.4238 59.8442 44.4287C59.8442 45.4335 60.6616 46.251 61.6666 46.251ZM57.1725 51.6074H66.1608C65.784 49.4682 63.912 47.8378 61.6666 47.8378C59.4213 47.8378 57.5493 49.4683 57.1725 51.6074ZM72.413 38.7426H50.9201V51.6074H55.5694C55.8501 49.4391 57.2635 47.6221 59.1958 46.7707C58.6157 46.1592 58.2572 45.3358 58.2572 44.4283C58.2572 42.5484 59.7867 41.0191 61.6666 41.0191C63.5466 41.0191 65.0761 42.5486 65.0761 44.4283C65.0761 45.3356 64.7176 46.1592 64.1375 46.7707C66.0698 47.6221 67.4832 49.439 67.7639 51.6074H72.413V38.7426Z" fill="#048DEF"></path><path d="M38.2935 6.93522C38.2935 7.37354 37.9382 7.7287 37.5 7.7287C34.2115 7.7287 31.3515 10.1718 30.8475 13.4116C30.7865 13.8032 30.4488 14.0832 30.0645 14.0832C30.0238 14.0832 29.9827 14.08 29.9415 14.0735C29.5084 14.0062 29.212 13.6006 29.2794 13.1675C29.9024 9.16235 33.4366 6.14174 37.5 6.14174C37.9382 6.14174 38.2935 6.49706 38.2935 6.93522ZM74 37.9491V52.4009C74 52.8392 73.6447 53.1944 73.2065 53.1944H67.0248C67.0244 53.1944 67.0239 53.1945 67.0233 53.1945H62.738V54.9426H68.5104C68.9486 54.9426 69.3039 55.2977 69.3039 55.736C69.3039 56.1744 68.9486 56.5295 68.5104 56.5295H55.3787C54.9405 56.5295 54.5852 56.1744 54.5852 55.736C54.5852 55.2977 54.9405 54.9426 55.3787 54.9426H61.151V53.1945H56.31C56.3096 53.1945 56.3091 53.1944 56.3085 53.1944H50.1266C49.6885 53.1944 49.3331 52.8392 49.3331 52.4009V45.3277H43.9269C43.4887 45.3277 43.1334 44.9725 43.1334 44.5342V27.9243H38.2171V54.6264H48.9358C49.3739 54.6264 49.7292 54.9816 49.7292 55.4199V69.8715C49.7292 70.3098 49.3739 70.665 48.9358 70.665H42.7539C42.7535 70.665 42.753 70.6652 42.7523 70.6652H38.4671V72.413H44.2395C44.6776 72.413 45.033 72.7682 45.033 73.2065C45.033 73.6448 44.6776 74 44.2395 74H31.1077C30.6696 74 30.3143 73.6448 30.3143 73.2065C30.3143 72.7682 30.6696 72.413 31.1077 72.413H36.8801V70.6652H32.0391C32.0386 70.6652 32.0382 70.665 32.0375 70.665H25.8557C25.4175 70.665 25.0622 70.3098 25.0622 69.8715V55.4199C25.0622 54.9816 25.4175 54.6264 25.8557 54.6264H36.6302V27.9243H31.8668V44.5342C31.8668 44.9725 31.5115 45.3277 31.0733 45.3277H25.667V52.4009C25.667 52.8392 25.3117 53.1944 24.8735 53.1944H18.9696C18.9691 53.1944 18.9686 53.1945 18.968 53.1945H14.4049V54.9426H20.1773C20.6154 54.9426 20.9707 55.2977 20.9707 55.736C20.9707 56.1744 20.6154 56.5295 20.1773 56.5295H7.04551C6.60735 56.5295 6.25203 56.1744 6.25203 55.736C6.25203 55.2977 6.60735 54.9426 7.04551 54.9426H12.8179V53.1945H8.25477C8.2543 53.1945 8.25382 53.1944 8.25319 53.1944H1.79348C1.35532 53.1944 1 52.8392 1 52.4009V37.9491C1 37.5108 1.35532 37.1556 1.79348 37.1556H24.8735C25.3117 37.1556 25.667 37.5108 25.667 37.9491V43.7407H30.2798V27.9243H21.0739C16.3148 27.9243 12.4431 24.0526 12.4431 19.2933C12.4431 14.5344 16.3148 10.6625 21.0739 10.6625C22.2216 10.6625 23.3553 10.8912 24.4052 11.33C25.057 8.6012 26.5583 6.12492 28.7032 4.27151C31.1449 2.16197 34.2691 1 37.5 1C40.731 1 43.8551 2.16197 46.297 4.27167C48.4419 6.12508 49.9433 8.6012 50.5949 11.3301C51.6449 10.8913 52.7787 10.6627 53.9264 10.6627C58.6856 10.6627 62.5572 14.5344 62.5572 19.2935C62.5572 24.0526 58.6856 27.9245 53.9264 27.9245H44.7203V43.7409H49.3331V37.9491C49.3331 37.5108 49.6885 37.1556 50.1266 37.1556H73.2065C73.6447 37.1556 74 37.5108 74 37.9491ZM13.6114 46.251C14.6164 46.251 15.4338 45.4335 15.4338 44.4287C15.4338 43.4238 14.6164 42.6063 13.6114 42.6063C12.6064 42.6063 11.7889 43.4238 11.7889 44.4287C11.7889 45.4335 12.6065 46.251 13.6114 46.251ZM9.11744 51.6074H18.1055C17.7287 49.4682 15.8569 47.8378 13.6114 47.8378C11.3658 47.8378 9.49419 49.4683 9.11744 51.6074ZM24.0801 38.7426H2.58696V51.6074H7.5143C7.79503 49.4391 9.20837 47.6221 11.1407 46.7707C10.5606 46.1592 10.2021 45.3358 10.2021 44.4283C10.2021 42.5484 11.7316 41.0191 13.6115 41.0191C15.4915 41.0191 17.021 42.5486 17.021 44.4283C17.021 45.3356 16.6625 46.1592 16.0824 46.7707C18.0147 47.6221 19.4279 49.439 19.7088 51.6074H24.0802L24.0801 38.7426ZM39.2182 61.8991C39.2182 60.8943 38.4008 60.0768 37.3959 60.0768C36.3909 60.0768 35.5734 60.8943 35.5734 61.8991C35.5734 62.904 36.3909 63.7214 37.3959 63.7214C38.4006 63.7214 39.2182 62.904 39.2182 61.8991ZM32.9016 69.078H41.8898C41.5131 66.9388 39.6411 65.3084 37.3957 65.3084C35.1504 65.3084 33.2784 66.9388 32.9016 69.078ZM48.1423 56.2134H26.6492V69.078H31.2985C31.5792 66.9098 32.9926 65.0927 34.9248 64.2413C34.3448 63.6299 33.9863 62.8064 33.9863 61.899C33.9863 60.0191 35.5158 58.4897 37.3957 58.4897C39.2756 58.4897 40.805 60.0192 40.805 61.899C40.805 62.8062 40.4465 63.6299 39.8665 64.2413C41.7987 65.0927 43.2121 66.9096 43.4928 69.078H48.1421V56.2134H48.1423ZM21.0737 26.3373H53.9264C57.8105 26.3373 60.9703 23.1774 60.9703 19.2933C60.9703 15.4092 57.8103 12.2495 53.9264 12.2495C52.6915 12.2495 51.4766 12.5735 50.4135 13.1864C50.1868 13.3173 49.9103 13.3276 49.6743 13.2146C49.4384 13.1017 49.2733 12.8796 49.2332 12.6211C48.3286 6.80699 43.3941 2.58696 37.5 2.58696C31.6059 2.58696 26.6716 6.80699 25.767 12.6211C25.7268 12.8796 25.5618 13.1017 25.3258 13.2146C25.0898 13.3278 24.8134 13.3173 24.5866 13.1864C23.5234 12.5735 22.3087 12.2495 21.0737 12.2495C17.1897 12.2495 14.0299 15.4092 14.0299 19.2933C14.0299 23.1774 17.1898 26.3373 21.0737 26.3373ZM61.6666 46.251C62.6717 46.251 63.4891 45.4335 63.4891 44.4287C63.4891 43.4238 62.6717 42.6063 61.6666 42.6063C60.6616 42.6063 59.8442 43.4238 59.8442 44.4287C59.8442 45.4335 60.6616 46.251 61.6666 46.251ZM57.1725 51.6074H66.1608C65.784 49.4682 63.912 47.8378 61.6666 47.8378C59.4213 47.8378 57.5493 49.4683 57.1725 51.6074ZM72.413 38.7426H50.9201V51.6074H55.5694C55.8501 49.4391 57.2635 47.6221 59.1958 46.7707C58.6157 46.1592 58.2572 45.3358 58.2572 44.4283C58.2572 42.5484 59.7867 41.0191 61.6666 41.0191C63.5466 41.0191 65.0761 42.5486 65.0761 44.4283C65.0761 45.3356 64.7176 46.1592 64.1375 46.7707C66.0698 47.6221 67.4832 49.439 67.7639 51.6074H72.413V38.7426Z" stroke="#048DEF" stroke-width="0.4" mask="url(#path-1-outside-1_258_78)"></path></svg>