<svg xmlns="http://www.w3.org/2000/svg" width="64" height="64" viewBox="0 0 64 64" fill="none"><path d="M54.7788 43.5459V37.9822C54.7788 37.4121 54.3166 36.9499 53.7466 36.9499H33.0323V33.0031C36.4372 32.797 39.6868 31.5423 42.3912 29.3531C45.8199 26.5775 47.9624 22.6329 48.4243 18.2459C48.7942 14.7321 48.0524 11.2649 46.2791 8.21919C45.9923 7.72667 45.3601 7.5597 44.8676 7.84654C44.375 8.13338 44.2081 8.76525 44.495 9.2579C46.0461 11.9219 46.6948 14.9551 46.3712 18.0295C45.9672 21.8682 44.0924 25.3197 41.0924 27.7482C38.0924 30.1769 34.3267 31.2914 30.4875 30.8877C28.3746 30.6652 26.3645 29.9898 24.5715 28.9132C25.1045 28.8553 25.5106 28.3954 25.491 27.8511C25.4706 27.2814 24.9923 26.8415 24.4223 26.8565L21.5677 26.9589C21.2506 26.9704 20.9564 27.1271 20.7698 27.3837C20.5832 27.6403 20.5252 27.9686 20.6121 28.2738L21.3959 31.0205C21.5253 31.474 21.9386 31.7698 22.388 31.7698C22.4818 31.7698 22.577 31.7569 22.6717 31.7299C23.1622 31.5899 23.467 31.118 23.4139 30.6276C25.4875 31.892 27.8194 32.6828 30.2714 32.9409C30.5039 32.9654 30.7361 32.9836 30.9679 32.9983V36.9496H10.2534C9.68335 36.9496 9.22116 37.4118 9.22116 37.9819V43.5455C4.05032 44.065 0 48.4419 0 53.7472C0 59.4011 4.59961 64.0007 10.2534 64.0007C15.9072 64.0007 20.5068 59.4011 20.5068 53.7472C20.5068 48.4419 16.4565 44.065 11.2857 43.5456V39.0143H30.9677V43.5456C25.7969 44.065 21.7466 48.4418 21.7466 53.7472C21.7466 59.4011 26.3463 64.0007 32 64.0007C37.6538 64.0007 42.2534 59.4011 42.2534 53.7473C42.2534 48.4419 38.2031 44.065 33.0323 43.5458V39.0144H52.7143V43.5459C47.5435 44.0653 43.4932 48.442 43.4932 53.7474C43.4932 59.4011 48.0928 64.0009 53.7466 64.0009C59.4004 64.0007 64 59.4011 64 53.7473C64 48.442 59.9497 44.0651 54.7788 43.5459ZM4.95626 59.9849C5.4631 57.4913 7.65652 55.6689 10.2535 55.6689C12.8506 55.6689 15.044 57.4913 15.5508 59.9847C14.1215 61.2003 12.2724 61.9362 10.2534 61.9362C8.23458 61.9362 6.38542 61.2003 4.95626 59.9849ZM8.03006 51.3807C8.03006 50.1547 9.02748 49.1573 10.2535 49.1573C11.4796 49.1573 12.477 50.1547 12.477 51.3807C12.477 52.6068 11.4796 53.6042 10.2535 53.6042C9.02748 53.6042 8.03006 52.6068 8.03006 51.3807ZM18.4425 53.7472C18.4425 55.3754 17.9628 56.8927 17.1404 58.1693C16.4168 56.4463 15.0726 55.0686 13.3964 54.2938C14.1065 53.5283 14.5417 52.5046 14.5417 51.3806C14.5417 49.0162 12.6181 47.0926 10.2537 47.0926C7.88929 47.0926 5.96568 49.0162 5.96568 51.3806C5.96568 52.5045 6.4009 53.5283 7.11097 54.2938C5.43458 55.0685 4.09045 56.4464 3.36684 58.1693C2.54413 56.8929 2.06452 55.3754 2.06452 53.7472C2.06452 49.2318 5.73806 45.5583 10.2534 45.5583C14.7688 45.5583 18.4425 49.2318 18.4425 53.7472ZM26.7028 59.9847C27.2097 57.4912 29.4031 55.6687 32.0001 55.6687C34.5972 55.6687 36.7906 57.4911 37.2973 59.9847C35.8681 61.2003 34.0188 61.9362 32 61.9362C29.9812 61.9362 28.132 61.2003 26.7028 59.9847ZM32.0001 53.6043C30.7741 53.6043 29.7766 52.6069 29.7766 51.3809C29.7766 50.1548 30.7741 49.1574 32.0001 49.1574C33.2262 49.1574 34.2236 50.1548 34.2236 51.3809C34.2236 52.6069 33.2262 53.6043 32.0001 53.6043ZM40.1889 53.7473C40.1889 55.3754 39.7093 56.8929 38.8868 58.1694C38.1632 56.4464 36.8191 55.0686 35.1428 54.2939C35.8529 53.5285 36.2881 52.5046 36.2881 51.3807C36.2881 49.0163 34.3645 47.0927 32.0001 47.0927C29.6357 47.0927 27.7121 49.0163 27.7121 51.3807C27.7121 52.5046 28.1474 53.5285 28.8574 54.2939C27.181 55.0686 25.8369 56.4465 25.1133 58.1694C24.2907 56.8929 23.8112 55.3754 23.8112 53.7473C23.8112 49.2318 27.4848 45.5583 32.0001 45.5583C36.5155 45.5583 40.1889 49.2318 40.1889 53.7473ZM53.7466 45.5584C58.2619 45.5584 61.9355 49.232 61.9355 53.7473C61.9355 55.3754 61.4559 56.8929 60.6334 58.1694C59.9099 56.4464 58.5657 55.0686 56.8894 54.2939C57.5995 53.5285 58.0347 52.5047 58.0347 51.3807C58.0347 49.0163 56.1111 47.0929 53.7467 47.0929C51.3823 47.0929 49.4587 49.0163 49.4587 51.3807C49.4587 52.5046 49.8939 53.5285 50.604 54.2939C48.9276 55.0686 47.5835 56.4464 46.8599 58.1694C46.0373 56.8929 45.5578 55.3754 45.5578 53.7473C45.5577 49.232 49.2312 45.5584 53.7466 45.5584ZM51.5231 51.3807C51.5231 50.1547 52.5205 49.1574 53.7466 49.1574C54.9726 49.1574 55.9701 50.1547 55.9701 51.3807C55.9701 52.6068 54.9726 53.6042 53.7466 53.6042C52.5205 53.6042 51.5231 52.6068 51.5231 51.3807ZM48.4493 59.9847C48.9561 57.4912 51.1495 55.6687 53.7466 55.6687C56.3436 55.6687 58.537 57.4911 59.0437 59.9847C57.6146 61.2003 55.7654 61.9362 53.7466 61.9362C51.7277 61.9362 49.8784 61.2003 48.4493 59.9847ZM17.721 24.8145C15.9477 21.7686 15.2061 18.3014 15.5759 14.788C16.0377 10.401 18.1803 6.45635 21.6089 3.68073C25.0375 0.905122 29.3419 -0.3692 33.7289 0.092735C36.1824 0.350929 38.5129 1.1428 40.5865 2.40757C40.5326 1.91648 40.8374 1.4437 41.3285 1.30357C41.8766 1.14706 42.4479 1.46486 42.6044 2.01299L43.3881 4.7597C43.4752 5.06486 43.4172 5.39312 43.2305 5.64977C43.0439 5.90641 42.7497 6.06306 42.4325 6.07454L39.5779 6.17712C39.5653 6.17751 39.5528 6.17777 39.5403 6.17777C38.9874 6.17777 38.5294 5.73957 38.5094 5.18254C38.4898 4.63854 38.8952 4.1788 39.4279 4.12048C37.6352 3.04396 35.6267 2.36835 33.513 2.1459C29.6745 1.74203 25.9081 2.85673 22.9081 5.28538C19.9081 7.7139 18.0333 11.1654 17.6293 15.0041C17.3057 18.0783 17.9545 21.1116 19.5054 23.7758C19.7923 24.2685 19.6254 24.9003 19.1326 25.1872C18.9693 25.2822 18.7906 25.3274 18.6142 25.3274C18.2586 25.3276 17.9128 25.1438 17.721 24.8145ZM32 10.2304C28.5337 10.2304 25.7135 13.0504 25.7135 16.5169C25.7135 19.9833 28.5335 22.8034 32 22.8034C35.4664 22.8034 38.2866 19.9833 38.2866 16.5169C38.2866 13.0504 35.4664 10.2304 32 10.2304ZM32 20.7389C29.672 20.7389 27.7781 18.8449 27.7781 16.5169C27.7781 14.1889 29.672 12.2949 32 12.2949C34.328 12.2949 36.2221 14.1889 36.2221 16.5169C36.2221 18.8449 34.328 20.7389 32 20.7389ZM41.2905 11.4561L41.8792 10.1303C42.0526 9.74009 41.9677 9.28344 41.6658 8.98138L39.5355 6.85093C39.2335 6.54912 38.7769 6.46448 38.3866 6.63751L37.0601 7.22667C36.4018 6.86732 35.7092 6.58009 34.9908 6.36873L34.4698 5.01519C34.3165 4.61673 33.9335 4.35377 33.5065 4.35377H30.4937C30.0666 4.35377 29.6837 4.61673 29.5303 5.01519L29.0093 6.36873C28.291 6.58022 27.5982 6.86732 26.9399 7.22667L25.6134 6.63751C25.2232 6.46396 24.7665 6.54886 24.4645 6.85106L22.3342 8.98151C22.0323 9.28344 21.9474 9.74009 22.1206 10.1303L22.7097 11.4566C22.3502 12.1151 22.0631 12.8077 21.8516 13.5263L20.4983 14.0472C20.0997 14.2005 19.8369 14.5834 19.8369 15.0105V18.0233C19.8369 18.4504 20.0999 18.8333 20.4983 18.9867L21.8514 19.5074C22.0628 20.2262 22.3501 20.9192 22.7095 21.5776L22.1206 22.9034C21.9472 23.2936 22.0321 23.7503 22.3341 24.0523L24.4645 26.1828C24.7665 26.4847 25.2234 26.5693 25.6134 26.3962L26.9399 25.8071C27.5983 26.1664 28.291 26.4536 29.0093 26.665L29.5303 28.0185C29.6836 28.417 30.0666 28.68 30.4937 28.68H33.5065C33.9335 28.68 34.3164 28.417 34.4698 28.0185L34.9907 26.6655C35.7093 26.454 36.4023 26.1668 37.0608 25.8073L38.3866 26.3962C38.7768 26.5693 39.2335 26.4847 39.5355 26.1827L41.6658 24.0522C41.9677 23.7503 42.0526 23.2936 41.8794 22.9034L41.2903 21.577C41.6497 20.9184 41.9369 20.2258 42.1483 19.5076L43.5018 18.9867C43.9003 18.8334 44.1632 18.4504 44.1632 18.0233V15.0104C44.1632 14.5833 43.9003 14.2005 43.5018 14.0471L42.1488 13.5263C41.9373 12.8076 41.6499 12.1147 41.2905 11.4561ZM42.0987 17.3145L40.9156 17.7699C40.5979 17.8921 40.361 18.1632 40.2822 18.4943C40.0738 19.3702 39.728 20.2043 39.2543 20.9736C39.0759 21.2634 39.0517 21.6227 39.1898 21.9338L39.7049 23.0936L38.5769 24.2216L37.4177 23.7067C37.1064 23.5685 36.7472 23.5926 36.4574 23.7712C35.6881 24.245 34.8537 24.5909 33.9774 24.7994C33.6463 24.8782 33.3752 25.1151 33.253 25.4327L32.7978 26.6154H31.2026L30.7471 25.4322C30.6249 25.1145 30.3539 24.8776 30.0227 24.7989C29.1467 24.5904 28.3125 24.2446 27.5434 23.7709C27.2533 23.5923 26.8941 23.5683 26.5832 23.7065L25.4235 24.2216L24.2954 23.0936L24.8102 21.9344C24.9484 21.6233 24.9243 21.2641 24.7457 20.9742C24.2721 20.2051 23.9261 19.3708 23.7175 18.494C23.6387 18.1631 23.4018 17.892 23.0841 17.7698L21.9015 17.3145V15.7194L23.0844 15.2641C23.4021 15.1419 23.6391 14.8708 23.7178 14.5397C23.9263 13.6634 24.2721 12.8293 24.7457 12.0602C24.9243 11.7703 24.9484 11.4111 24.8102 11.1L24.2951 9.94022L25.4231 8.81222L26.5828 9.32744C26.8941 9.46551 27.2533 9.44164 27.5431 9.26293C28.3123 8.78938 29.1465 8.44344 30.0224 8.23493C30.3535 8.15622 30.6246 7.91931 30.7468 7.60164L31.2023 6.41841H32.7975L33.253 7.60164C33.3752 7.91919 33.6462 8.15622 33.9774 8.23493C34.8535 8.44344 35.6876 8.78938 36.4568 9.26293C36.7466 9.44164 37.1059 9.46538 37.417 9.32744L38.5768 8.81222L39.7048 9.94022L39.1899 11.0994C39.0517 11.4105 39.0759 11.7698 39.2543 12.0597C39.728 12.8287 40.0739 13.6632 40.2825 14.5397C40.3613 14.8708 40.5982 15.1419 40.9159 15.2641L42.0986 15.7193V17.3145H42.0987Z" fill="#0458B9"></path></svg>