<svg xmlns="http://www.w3.org/2000/svg" width="53" height="53" viewBox="0 0 53 53" fill="none"><path d="M49.8156 51.448H47.8657V36.2312C47.8657 35.8024 47.5182 35.4548 47.0894 35.4548C46.6605 35.4548 46.313 35.8024 46.313 36.2312V51.448H42.4134V29.9978H46.313V32.6081C46.313 33.0369 46.6605 33.3845 47.0894 33.3845C47.5182 33.3845 47.8657 33.0369 47.8657 32.6081V29.6356C47.8657 28.9792 47.3317 28.4452 46.6753 28.4452H42.0511C41.3947 28.4452 40.8606 28.9792 40.8606 29.6356V51.448H39.5509V39.4164C39.5509 38.76 39.0168 38.2259 38.3604 38.2259H33.7362C33.0798 38.2259 32.5457 38.76 32.5457 39.4164V51.448H31.2361V34.1003C31.2361 33.4439 30.702 32.9099 30.0456 32.9099H25.4214C24.765 32.9099 24.231 33.4439 24.231 34.1003V51.448H22.9212V47.3073C22.9212 46.8786 22.5737 46.531 22.1448 46.531C21.7159 46.531 21.3684 46.8786 21.3684 47.3073V51.448H17.4688V29.8281H21.3684V43.6843C21.3684 44.1131 21.7159 44.4607 22.1448 44.4607C22.5737 44.4607 22.9212 44.1131 22.9212 43.6843V29.4658C22.9212 28.8094 22.3871 28.2754 21.7308 28.2754H17.1065C16.4501 28.2754 15.9161 28.8094 15.9161 29.4658V51.448H14.6064V39.2819C14.6064 38.6255 14.0724 38.0915 13.416 38.0915H8.79162C8.13522 38.0915 7.60119 38.6255 7.60119 39.2819V51.448H5.65137C5.2225 51.448 4.875 51.7956 4.875 52.2243C4.875 52.6531 5.2225 53.0007 5.65137 53.0007H49.8156C50.2444 53.0007 50.5919 52.6531 50.5919 52.2243C50.5919 51.7956 50.2443 51.448 49.8156 51.448ZM13.0536 51.448H9.15392V39.6442H13.0536V51.448ZM29.6832 51.448H25.7836V34.4626H29.6832V51.448ZM37.9981 51.448H34.0985V39.7787H37.9981V51.448Z" fill="#048DEF"></path><path d="M12.2091 17.6027C12.2091 19.2691 12.7787 20.804 13.7312 22.0266L13.0208 22.7137C12.4702 22.353 11.8129 22.1424 11.1069 22.1424C9.17562 22.1424 7.60436 23.7137 7.60436 25.645C7.60436 27.5762 9.17562 29.1475 11.1069 29.1475C13.0382 29.1475 14.6095 27.5762 14.6095 25.645C14.6095 24.9806 14.4235 24.3589 14.101 23.8291L14.81 23.1434C16.0612 24.1865 17.6692 24.8154 19.4217 24.8154C21.4646 24.8154 23.3103 23.9603 24.6239 22.591L32.8729 28.9469C32.6655 29.394 32.5488 29.8914 32.5488 30.4158C32.5488 32.3471 34.1201 33.9183 36.0514 33.9183C37.9827 33.9183 39.5539 32.3471 39.5539 30.4158C39.5539 29.7105 39.3437 29.0537 38.9836 28.5035L42.5488 24.8214C43.079 25.1446 43.7013 25.3309 44.3663 25.3309C46.2975 25.3309 47.8688 23.7596 47.8688 21.8283C47.8688 19.897 46.2975 18.3258 44.3663 18.3258C42.435 18.3258 40.8637 19.897 40.8637 21.8283C40.8637 22.5336 41.0739 23.1904 41.4341 23.7406L37.8688 27.4226C37.3386 27.0996 36.7164 26.9131 36.0514 26.9131C35.2047 26.9131 34.4273 27.2152 33.821 27.7171L25.5739 21.3628C26.2461 20.2672 26.6343 18.9795 26.6343 17.6026C26.6343 16.6566 26.4525 15.7347 26.0939 14.8623C25.9309 14.4657 25.4776 14.2767 25.0807 14.4394C24.6841 14.6024 24.4948 15.056 24.6578 15.4527C24.939 16.1368 25.0816 16.8602 25.0816 17.6027C25.0816 18.6231 24.8089 19.5804 24.3344 20.4079L22.6001 19.0716C22.8076 18.6245 22.9242 18.127 22.9242 17.6026C22.9242 15.6713 21.353 14.1001 19.4217 14.1001C17.4904 14.1001 15.9191 15.6713 15.9191 17.6026C15.9191 18.267 16.1051 18.8887 16.4276 19.4185L14.8544 20.9401C14.1682 20.0036 13.7618 18.8499 13.7618 17.6026C13.7618 16.8474 13.9114 16.1268 14.1811 15.4675H14.6071C15.308 15.4675 15.878 14.8973 15.878 14.1964V13.1962C16.8487 12.4135 18.0807 11.9427 19.4217 11.9427C20.5821 11.9427 21.6982 12.2925 22.6494 12.9543C23.0014 13.1992 23.4851 13.1123 23.73 12.7604C23.9749 12.4084 23.8881 11.9246 23.5361 11.6797C22.3234 10.8359 20.9007 10.3899 19.4217 10.3899C18.1344 10.3899 16.9253 10.7299 15.878 11.3235V9.06404C15.878 8.36313 15.3079 7.79297 14.6071 7.79297H1.27096C0.57006 7.79297 0 8.36313 0 9.06404V14.1966C0 14.8976 0.570164 15.4677 1.27096 15.4677H12.5351C12.3248 16.1427 12.2091 16.8592 12.2091 17.6027ZM11.1069 27.5948C10.0318 27.5948 9.15709 26.7201 9.15709 25.645C9.15709 24.5698 10.0318 23.6951 11.1069 23.6951C12.182 23.6951 13.0567 24.5698 13.0567 25.645C13.0567 26.7201 12.182 27.5948 11.1069 27.5948ZM44.3664 19.8785C45.4415 19.8785 46.3162 20.7532 46.3162 21.8283C46.3162 22.9034 45.4415 23.7782 44.3664 23.7782C43.2912 23.7782 42.4165 22.9034 42.4165 21.8283C42.4165 20.7532 43.2912 19.8785 44.3664 19.8785ZM36.0515 28.466C37.1266 28.466 38.0013 29.3407 38.0013 30.4158C38.0013 31.4909 37.1266 32.3656 36.0515 32.3656C34.9764 32.3656 34.1017 31.4909 34.1017 30.4158C34.1017 29.3407 34.9764 28.466 36.0515 28.466ZM19.4217 15.6529C20.4968 15.6529 21.3715 16.5276 21.3715 17.6027C21.3715 18.6778 20.4968 19.5525 19.4217 19.5525C18.3466 19.5525 17.4719 18.6778 17.4719 17.6027C17.4719 16.5276 18.3467 15.6529 19.4217 15.6529ZM17.5079 20.5339C18.0585 20.8946 18.7158 21.1052 19.4218 21.1052C20.2685 21.1052 21.0459 20.8031 21.6521 20.3012L23.3861 21.6372C22.3641 22.6416 20.9644 23.2625 19.4218 23.2625C18.1069 23.2625 16.8964 22.8106 15.9346 22.0557L17.5079 20.5339ZM1.55263 13.9149V9.3456H14.3253V13.9149H1.55263Z" fill="#048DEF"></path><path d="M5.34404 10.8516H3.47559C3.04672 10.8516 2.69922 11.1992 2.69922 11.6279C2.69922 12.0567 3.04672 12.4043 3.47559 12.4043H5.34415C5.77301 12.4043 6.12051 12.0567 6.12051 11.6279C6.12051 11.1992 5.77291 10.8516 5.34404 10.8516Z" fill="#048DEF"></path><path d="M12.4024 10.8516H7.76855C7.33969 10.8516 6.99219 11.1992 6.99219 11.6279C6.99219 12.0567 7.33969 12.4043 7.76855 12.4043H12.4024C12.8313 12.4043 13.1788 12.0567 13.1788 11.6279C13.1788 11.1992 12.8312 10.8516 12.4024 10.8516Z" fill="#048DEF"></path><path d="M42.6708 15.106C42.68 15.125 42.69 15.1436 42.7006 15.162L43.7062 16.8756C43.8456 17.113 44.1005 17.259 44.3758 17.259C44.6513 17.259 44.906 17.113 45.0455 16.8754L46.051 15.1616C46.0618 15.1434 46.0716 15.1248 46.0807 15.1058C49.5302 14.3198 52.025 11.1975 52.025 7.64911C52.025 5.53904 51.1844 3.57411 49.6579 2.11651C48.1322 0.65963 46.1279 -0.0882704 44.0147 0.00830964C42.125 0.0954698 40.3386 0.885397 38.985 2.23255C37.6311 3.57991 36.8326 5.36234 36.7367 7.2515C36.547 10.9899 39.0382 14.2797 42.6708 15.106ZM38.2874 7.33038C38.4444 4.23702 40.9915 1.70214 44.0862 1.55949C45.772 1.48154 47.3695 2.07831 48.5855 3.23955C49.8022 4.40141 50.4723 5.96749 50.4723 7.64921C50.4723 10.4999 48.4526 13.0054 45.67 13.6066C45.2263 13.7025 44.8547 14.0141 44.6801 14.4299L44.3758 14.9486L44.0715 14.4299C43.8968 14.0142 43.5243 13.7025 43.0794 13.6061C40.1503 12.972 38.1351 10.3326 38.2874 7.33038Z" fill="#048DEF"></path><path d="M43.5884 8.42665H45.1681C45.528 8.42665 45.8208 8.71949 45.8208 9.07942C45.8208 9.43945 45.528 9.73229 45.1681 9.73229H42.3849C41.9561 9.73229 41.6086 10.0799 41.6086 10.5087C41.6086 10.9374 41.9561 11.285 42.3849 11.285H43.6019V11.9754C43.6019 12.4041 43.9494 12.7517 44.3782 12.7517C44.8071 12.7517 45.1546 12.4041 45.1546 11.9754V11.285H45.1681C46.3842 11.285 47.3736 10.2956 47.3736 9.07942C47.3736 7.86332 46.3842 6.87392 45.1681 6.87392H43.5884C43.2284 6.87392 42.9355 6.58107 42.9355 6.22104C42.9355 5.86112 43.2284 5.56827 43.5884 5.56827H46.3715C46.8004 5.56827 47.1479 5.22067 47.1479 4.79191C47.1479 4.36315 46.8004 4.01554 46.3715 4.01554H45.1546V3.32519C45.1546 2.89643 44.8071 2.54883 44.3782 2.54883C43.9494 2.54883 43.6019 2.89643 43.6019 3.32519V4.01554H43.5884C42.3723 4.01554 41.3828 5.00494 41.3828 6.22115C41.3828 7.43725 42.3723 8.42665 43.5884 8.42665Z" fill="#048DEF"></path></svg>