<svg xmlns="http://www.w3.org/2000/svg" width="69" height="69" viewBox="0 0 69 69" fill="none"><path d="M66.0164 0H2.92478C1.25348 0 0 1.25348 0 2.92478V66.0164C0 67.6877 1.25348 68.9412 2.92478 68.9412H66.0164C67.5833 68.9412 68.9412 67.6877 68.9412 66.0164V2.92478C68.9412 1.25348 67.6877 0 66.0164 0ZM2.92478 2.08913H66.0164C66.4342 2.08913 66.8521 2.50695 66.8521 2.92478V14.415H2.08913V2.92478C2.08913 2.50695 2.50695 2.08913 2.92478 2.08913ZM66.0164 66.8521H2.92478C2.50695 66.8521 2.08913 66.4342 2.08913 66.0164V16.5041H66.8521V66.0164C66.8521 66.4342 66.4342 66.8521 66.0164 66.8521Z" fill="#048DEF"></path><path d="M8.77389 12.6396C11.1764 12.6396 13.1611 10.6549 13.1611 8.2524C13.1611 5.8499 11.1764 3.86523 8.77389 3.86523C6.37139 3.86523 4.38672 5.74545 4.38672 8.14795C4.38672 10.6549 6.37139 12.6396 8.77389 12.6396ZM8.77389 5.84991C10.0274 5.84991 11.0719 6.89447 11.0719 8.14795C11.0719 9.40142 10.0274 10.446 8.77389 10.446C7.52041 10.446 6.47585 9.40142 6.47585 8.14795C6.47585 6.89447 7.52041 5.84991 8.77389 5.84991Z" fill="#048DEF"></path><path d="M19.3247 12.6391C21.7272 12.6391 23.7118 10.6544 23.7118 8.25191C23.7118 5.84942 21.7272 3.86475 19.3247 3.86475C16.9222 3.86475 14.9375 5.84942 14.9375 8.25191C14.9375 10.6544 16.9222 12.6391 19.3247 12.6391ZM19.3247 5.84942C20.5781 5.84942 21.6227 6.89398 21.6227 8.14746C21.6227 9.40093 20.5781 10.4455 19.3247 10.4455C18.0712 10.4455 17.0266 9.40093 17.0266 8.14746C17.0266 6.89398 18.0712 5.84942 19.3247 5.84942Z" fill="#048DEF"></path><path d="M29.9809 12.6396C32.3834 12.6396 34.3681 10.6549 34.3681 8.2524C34.3681 5.8499 32.3834 3.86523 29.9809 3.86523C27.5784 3.86523 25.5938 5.8499 25.5938 8.2524C25.5938 10.6549 27.474 12.6396 29.9809 12.6396ZM29.9809 5.84991C31.2344 5.84991 32.279 6.89447 32.279 8.14795C32.279 9.40142 31.2344 10.446 29.9809 10.446C28.7274 10.446 27.6829 9.40142 27.6829 8.14795C27.6829 6.89447 28.623 5.84991 29.9809 5.84991Z" fill="#048DEF"></path><path d="M37.9157 12.2214H63.1941C63.8208 12.2214 64.2387 11.8035 64.2387 11.1768V5.22279C64.2387 4.59605 63.8208 4.17822 63.1941 4.17822H37.9157C37.2889 4.17822 36.8711 4.59605 36.8711 5.22279V11.0723C36.8711 11.6991 37.2889 12.2214 37.9157 12.2214ZM38.9602 6.26735H62.1495V10.0278H38.9602V6.26735Z" fill="#048DEF"></path><path d="M45.9638 18.8022C35.936 18.8022 27.6839 26.2186 27.6839 35.3063C27.6839 38.8579 29.0419 42.4094 31.4443 45.2297L27.7884 52.7506C27.5795 53.1684 27.6839 53.5862 27.9973 53.8996C28.3107 54.2129 28.7285 54.3174 29.1463 54.1085L38.4429 50.2436C40.8454 51.1837 43.3524 51.706 45.9638 51.706C55.9916 51.706 64.2436 44.2896 64.2436 35.2019C64.2436 26.1142 55.9916 18.8022 45.9638 18.8022ZM45.9638 49.6169C43.5613 49.6169 41.1588 49.0946 38.8608 48.1545C38.6518 48.05 38.3385 48.05 38.0251 48.1545L30.8176 51.1837L33.5335 45.5431C33.7424 45.1252 33.6379 44.7074 33.3246 44.3941C31.0265 41.8871 29.6686 38.649 29.6686 35.3063C29.773 27.3677 36.9805 20.8914 45.9638 20.8914C54.947 20.8914 62.1545 27.3677 62.1545 35.3063C62.1545 43.245 54.8426 49.6169 45.9638 49.6169Z" fill="#048DEF"></path><path d="M55.4684 30.1882H39.0687L38.3375 27.3679C38.2331 26.9501 37.8153 26.5322 37.293 26.5322H35.5172C34.8905 26.5322 34.4727 26.9501 34.4727 27.5768C34.4727 28.2035 34.8905 28.6214 35.5172 28.6214H36.5618L39.1732 38.9625C39.2776 39.3804 39.6955 39.7982 40.2178 39.7982H53.4837C54.006 39.7982 54.4238 39.4848 54.5283 39.067L56.5129 31.5461C56.6174 30.8149 56.0951 30.1882 55.4684 30.1882ZM52.7525 37.7091H41.0534L39.6955 32.2773H54.2149L52.7525 37.7091Z" fill="#048DEF"></path><path d="M51.3896 40.5288C49.7183 40.5288 48.4648 41.8867 48.4648 43.4536C48.4648 45.0204 49.8228 46.3784 51.3896 46.3784C53.0609 46.3784 54.3144 45.0204 54.3144 43.4536C54.3144 41.8867 53.0609 40.5288 51.3896 40.5288ZM51.3896 44.3937C50.8673 44.3937 50.554 43.9759 50.554 43.558C50.554 43.1402 50.9718 42.7224 51.3896 42.7224C51.8074 42.7224 52.2253 43.1402 52.2253 43.558C52.2253 43.9759 51.9119 44.3937 51.3896 44.3937Z" fill="#048DEF"></path><path d="M42.5107 40.5288C40.8394 40.5288 39.5859 41.8867 39.5859 43.4536C39.5859 45.0204 40.9439 46.3784 42.5107 46.3784C44.0776 46.3784 45.4355 45.0204 45.4355 43.4536C45.4355 41.8867 44.182 40.5288 42.5107 40.5288ZM42.5107 44.3937C41.9884 44.3937 41.6751 43.9759 41.6751 43.558C41.6751 43.1402 42.0929 42.7224 42.5107 42.7224C42.9285 42.7224 43.3464 43.1402 43.3464 43.558C43.3464 43.9759 43.033 44.3937 42.5107 44.3937Z" fill="#048DEF"></path><path d="M24.2368 45.543H6.58363C5.95689 45.543 5.53906 45.9608 5.53906 46.5875V62.7783C5.53906 63.405 5.95689 63.8228 6.58363 63.8228H24.1323C24.759 63.8228 25.1769 63.405 25.1769 62.7783V46.5875C25.2813 45.9608 24.759 45.543 24.2368 45.543ZM23.1922 61.7337H7.62819V47.6321H23.0877V61.7337H23.1922Z" fill="#048DEF"></path><path d="M24.754 21.4136H6.05628C5.42954 21.4136 5.01172 21.8314 5.01172 22.4581C5.01172 23.0849 5.42954 23.5027 6.05628 23.5027H24.754C25.3807 23.5027 25.7985 23.0849 25.7985 22.4581C25.7985 21.8314 25.2763 21.4136 24.754 21.4136Z" fill="#048DEF"></path><path d="M24.754 27.0542H6.05628C5.42954 27.0542 5.01172 27.472 5.01172 28.0988C5.01172 28.7255 5.42954 29.1433 6.05628 29.1433H24.754C25.3807 29.1433 25.7985 28.7255 25.7985 28.0988C25.7985 27.472 25.2763 27.0542 24.754 27.0542Z" fill="#048DEF"></path><path d="M24.754 32.6948H6.05628C5.42954 32.6948 5.01172 33.1126 5.01172 33.7394C5.01172 34.3661 5.42954 34.784 6.05628 34.784H24.754C25.3807 34.784 25.7985 34.3661 25.7985 33.7394C25.7985 33.2171 25.2763 32.6948 24.754 32.6948Z" fill="#048DEF"></path><path d="M24.754 38.3354H6.05628C5.42954 38.3354 5.01172 38.7533 5.01172 39.38C5.01172 40.0068 5.42954 40.4246 6.05628 40.4246H24.754C25.3807 40.4246 25.7985 40.0068 25.7985 39.38C25.7985 38.7533 25.2763 38.3354 24.754 38.3354Z" fill="#048DEF"></path></svg>