<svg xmlns="http://www.w3.org/2000/svg" width="69" height="69" viewBox="0 0 69 69" fill="none"><mask id="path-1-outside-1_298_234" maskUnits="userSpaceOnUse" x="23.2344" y="18.4004" width="23" height="10" fill="black"><rect fill="white" x="23.2344" y="18.4004" width="23" height="10"></rect><path d="M44.1181 26.2778C39.1584 25.6908 34.6694 23.5689 31.1384 20.4004C29.3522 20.8406 27.6952 21.6082 26.2344 22.6358"></path></mask><path d="M43.8831 28.2639C44.98 28.3938 45.9744 27.6098 46.1043 26.5129C46.2341 25.416 45.4501 24.4215 44.3532 24.2917L43.8831 28.2639ZM31.1384 20.4004L32.4741 18.9118C31.9816 18.4699 31.3023 18.3001 30.6598 18.4585L31.1384 20.4004ZM25.0837 21C24.1802 21.6356 23.963 22.8831 24.5986 23.7866C25.2341 24.69 26.4816 24.9072 27.3851 24.2717L25.0837 21ZM44.3532 24.2917C39.8162 23.7547 35.7084 21.8141 32.4741 18.9118L29.8026 21.8889C33.6303 25.3237 38.5006 27.6269 43.8831 28.2639L44.3532 24.2917ZM30.6598 18.4585C28.6274 18.9593 26.7433 19.8326 25.0837 21L27.3851 24.2717C28.6471 23.3839 30.0769 22.7218 31.6169 22.3423L30.6598 18.4585Z" fill="#0369CA" mask="url(#path-1-outside-1_298_234)"></path><mask id="path-3-outside-2_298_234" maskUnits="userSpaceOnUse" x="21.25" y="37.3867" width="26" height="11" fill="black"><rect fill="white" x="21.25" y="37.3867" width="26" height="11"></rect><path d="M24.25 40.3867C26.4187 43.8501 30.2685 46.1533 34.6562 46.1533C39.0396 46.1533 42.8862 43.8545 45.056 40.3967"></path></mask><path d="M25.9451 39.3253C25.3589 38.3891 24.1248 38.1054 23.1886 38.6916C22.2524 39.2778 21.9687 40.5119 22.5549 41.4481L25.9451 39.3253ZM46.7501 41.4598C47.3372 40.5242 47.0547 39.2898 46.1191 38.7026C45.1835 38.1155 43.9491 38.398 43.362 39.3336L46.7501 41.4598ZM22.5549 41.4481C25.0739 45.471 29.5511 48.1533 34.6562 48.1533V44.1533C30.9859 44.1533 27.7635 42.2293 25.9451 39.3253L22.5549 41.4481ZM34.6562 48.1533C39.7564 48.1533 44.2298 45.476 46.7501 41.4598L43.362 39.3336C41.5426 42.2329 38.3229 44.1533 34.6562 44.1533V48.1533Z" fill="#0369CA" mask="url(#path-3-outside-2_298_234)"></path><mask id="path-5-outside-3_298_234" maskUnits="userSpaceOnUse" x="17.4102" y="7.2207" width="34" height="16" fill="black"><rect fill="white" x="17.4102" y="7.2207" width="34" height="16"></rect><path d="M48.9165 20.8951C47.5847 14.2371 41.7066 9.2207 34.6568 9.2207C27.6298 9.2207 21.7668 14.2046 20.4102 20.8305"></path></mask><path d="M46.9553 21.2874C47.172 22.3705 48.2257 23.0729 49.3088 22.8562C50.3919 22.6396 51.0943 21.5859 50.8776 20.5028L46.9553 21.2874ZM18.4508 20.4293C18.2292 21.5115 18.9269 22.5683 20.009 22.7899C21.0911 23.0114 22.1479 22.3138 22.3695 21.2317L18.4508 20.4293ZM50.8776 20.5028C49.3625 12.9283 42.6784 7.2207 34.6568 7.2207V11.2207C40.7347 11.2207 45.8068 15.5459 46.9553 21.2874L50.8776 20.5028ZM34.6568 7.2207C26.6611 7.2207 19.9942 12.8914 18.4508 20.4293L22.3695 21.2317C23.5394 15.5179 28.5985 11.2207 34.6568 11.2207V7.2207Z" fill="#0369CA" mask="url(#path-5-outside-3_298_234)"></path><mask id="path-7-outside-4_298_234" maskUnits="userSpaceOnUse" x="17.418" y="43.5801" width="14" height="10" fill="black"><rect fill="white" x="17.418" y="43.5801" width="14" height="10"></rect><path d="M28.8519 45.5801C28.8519 47.8406 27.2052 49.7641 24.9717 50.1128L20.418 50.8234"></path></mask><path d="M30.8519 45.5801C30.8519 44.4755 29.9565 43.5801 28.8519 43.5801C27.7473 43.5801 26.8519 44.4755 26.8519 45.5801H30.8519ZM24.9717 50.1128L25.2801 52.0889L25.2802 52.0888L24.9717 50.1128ZM20.1096 48.8473C19.0182 49.0176 18.2716 50.0404 18.4419 51.1318C18.6122 52.2231 19.635 52.9698 20.7263 52.7995L20.1096 48.8473ZM26.8519 45.5801C26.8519 46.855 25.9232 47.94 24.6632 48.1367L25.2802 52.0888C28.4872 51.5882 30.8519 48.8262 30.8519 45.5801H26.8519ZM24.6633 48.1367L20.1096 48.8473L20.7263 52.7995L25.2801 52.0889L24.6633 48.1367Z" fill="#0369CA" mask="url(#path-7-outside-4_298_234)"></path><mask id="path-9-outside-5_298_234" maskUnits="userSpaceOnUse" x="38.4648" y="43.5801" width="13" height="10" fill="black"><rect fill="white" x="38.4648" y="43.5801" width="13" height="10"></rect><path d="M40.4648 45.5801C40.4648 47.8406 42.1116 49.7641 44.345 50.1128L48.8905 50.8221"></path></mask><path d="M42.4648 45.5801C42.4648 44.4755 41.5694 43.5801 40.4648 43.5801C39.3603 43.5801 38.4648 44.4755 38.4648 45.5801H42.4648ZM44.345 50.1128L44.0366 52.0888L44.0367 52.0889L44.345 50.1128ZM48.5821 52.7982C49.6735 52.9685 50.6963 52.2218 50.8666 51.1304C51.0369 50.0391 50.2902 49.0163 49.1989 48.846L48.5821 52.7982ZM38.4648 45.5801C38.4648 48.8262 40.8295 51.5882 44.0366 52.0888L44.6535 48.1367C43.3936 47.94 42.4648 46.855 42.4648 45.5801H38.4648ZM44.0367 52.0889L48.5821 52.7982L49.1989 48.846L44.6534 48.1367L44.0367 52.0889Z" fill="#0369CA" mask="url(#path-9-outside-5_298_234)"></path><mask id="path-11-outside-6_298_234" maskUnits="userSpaceOnUse" x="24.7109" y="47.4609" width="20" height="8" fill="black"><rect fill="white" x="24.7109" y="47.4609" width="20" height="8"></rect><path d="M42.6046 49.4609C40.6502 51.6384 37.8139 53.0082 34.6578 53.0082C31.5016 53.0082 28.6653 51.6385 26.7109 49.4611"></path></mask><path d="M44.093 50.7968C44.8308 49.9748 44.7625 48.7103 43.9405 47.9725C43.1184 47.2347 41.854 47.303 41.1162 48.125L44.093 50.7968ZM28.1993 48.1252C27.4615 47.3031 26.1971 47.2349 25.375 47.9727C24.553 48.7105 24.4847 49.9749 25.2225 50.797L28.1993 48.1252ZM41.1162 48.125C39.5251 49.8978 37.2224 51.0082 34.6578 51.0082V55.0082C38.4055 55.0082 41.7753 53.3791 44.093 50.7968L41.1162 48.125ZM34.6578 51.0082C32.0931 51.0082 29.7904 49.8978 28.1993 48.1252L25.2225 50.797C27.5402 53.3792 30.9101 55.0082 34.6578 55.0082V51.0082Z" fill="#0369CA" mask="url(#path-11-outside-6_298_234)"></path><path d="M39.6248 32.7474L38.3789 32.1895" stroke="#0369CA" stroke-width="2" stroke-miterlimit="10" stroke-linecap="round" stroke-linejoin="round"></path><path d="M29.6914 32.7474L30.9373 32.1895" stroke="#0369CA" stroke-width="2" stroke-miterlimit="10" stroke-linecap="round" stroke-linejoin="round"></path><mask id="path-15-outside-7_298_234" maskUnits="userSpaceOnUse" x="41.1328" y="30.5781" width="28" height="39" fill="black"><rect fill="white" x="41.1328" y="30.5781" width="28" height="39"></rect><path d="M63.9151 52.586L66.0536 56.3154C68.1313 59.9385 66.6655 64.5635 62.8802 66.3287C59.095 68.0937 54.6098 66.2438 53.1698 62.3232L44.1328 37.7201L53.0153 33.5781L58.0288 42.3213"></path></mask><path d="M65.65 51.5911C65.1006 50.6329 63.8784 50.3015 62.9202 50.851C61.962 51.4005 61.6306 52.6227 62.1801 53.5809L65.65 51.5911ZM66.0536 56.3154L64.3186 57.3103L64.3186 57.3103L66.0536 56.3154ZM62.8802 66.3287L63.7254 68.1413L63.7255 68.1413L62.8802 66.3287ZM53.1698 62.3232L55.0472 61.6337L55.0472 61.6336L53.1698 62.3232ZM44.1328 37.7201L43.2876 35.9075C42.3457 36.3467 41.8971 37.4341 42.2555 38.4097L44.1328 37.7201ZM53.0153 33.5781L54.7503 32.5832C54.2333 31.6817 53.112 31.3263 52.1701 31.7655L53.0153 33.5781ZM56.2938 43.3162C56.8433 44.2744 58.0655 44.6057 59.0237 44.0563C59.9819 43.5068 60.3133 42.2846 59.7638 41.3264L56.2938 43.3162ZM62.1801 53.5809L64.3186 57.3103L67.7886 55.3205L65.65 51.5911L62.1801 53.5809ZM64.3186 57.3103C65.8138 59.9176 64.759 63.2458 62.035 64.5161L63.7255 68.1413C68.572 65.8813 70.4488 59.9595 67.7886 55.3205L64.3186 57.3103ZM62.035 64.5161C59.311 65.7863 56.0835 64.455 55.0472 61.6337L51.2924 63.0128C53.1362 68.0326 58.8789 70.4012 63.7254 68.1413L62.035 64.5161ZM55.0472 61.6336L46.0102 37.0305L42.2555 38.4097L51.2925 63.0128L55.0472 61.6336ZM44.978 39.5327L53.8606 35.3907L52.1701 31.7655L43.2876 35.9075L44.978 39.5327ZM51.2803 34.573L56.2938 43.3162L59.7638 41.3264L54.7503 32.5832L51.2803 34.573Z" fill="#0369CA" mask="url(#path-15-outside-7_298_234)"></path><path d="M51.7463 35.273C52.0701 35.122 52.2887 34.8098 52.3199 34.4539L52.9528 27.2198C53.1472 24.9979 52.3249 22.8075 50.7164 21.2624C50.7164 21.2624 50.7164 21.2624 50.7164 21.2624L49.1635 19.7706L48.4736 20.4887L49.1635 19.7706C47.114 17.8018 43.74 18.4059 42.5007 20.9632L42.5007 20.9633C42.0006 21.9956 41.9461 23.188 42.3502 24.2616L42.3503 24.2616L43.9377 28.4778L43.6908 31.3004L43.6908 31.3004C43.5075 33.3961 43.8547 35.5041 44.7005 37.4303C44.8087 37.6768 45.0117 37.8692 45.2635 37.9641C45.5154 38.059 45.7948 38.0483 46.0388 37.9346L51.7463 35.273Z" stroke="#0369CA" stroke-width="2" stroke-miterlimit="10" stroke-linecap="round" stroke-linejoin="round"></path><path d="M26.123 38.0649C26.3022 37.5771 26.0779 37.0334 25.6069 36.8138L16.7244 32.6718C16.2535 32.4522 15.6928 32.6299 15.4343 33.0807L2.39605 55.818C0.0270746 59.949 1.69839 65.2225 6.01431 67.235C10.3302 69.2475 15.4441 67.1382 17.086 62.668L26.123 38.0649Z" stroke="#0369CA" stroke-width="2" stroke-miterlimit="10" stroke-linecap="round" stroke-linejoin="round"></path><path d="M16.9969 34.4539C17.0281 34.8098 17.2467 35.122 17.5705 35.273L23.278 37.9346C23.522 38.0483 23.8014 38.059 24.0533 37.9641C24.3051 37.8692 24.5081 37.6768 24.6163 37.4303C25.4621 35.5041 25.8093 33.3961 25.626 31.3004L25.626 31.3004L25.3791 28.4778L26.9665 24.2616L26.9666 24.2616C27.3707 23.188 27.3162 21.9956 26.8161 20.9633L26.816 20.9632C25.5768 18.4059 22.2028 17.8018 20.1533 19.7706L20.8461 20.4917L20.1533 19.7706L18.6004 21.2624C18.6004 21.2624 18.6004 21.2624 18.6004 21.2624C16.9919 22.8074 16.1696 24.9979 16.364 27.2198L16.9969 34.4539Z" stroke="#0369CA" stroke-width="2" stroke-miterlimit="10" stroke-linecap="round" stroke-linejoin="round"></path><mask id="path-20-outside-8_298_234" maskUnits="userSpaceOnUse" x="30.5625" y="35.8965" width="9" height="5" fill="black"><rect fill="white" x="30.5625" y="35.8965" width="9" height="5"></rect><path d="M36.749 38.7635C35.593 37.6075 33.7186 37.6075 32.5625 38.7635Z"></path></mask><path d="M35.3348 40.1777C36.1159 40.9588 37.3822 40.9588 38.1632 40.1777C38.9443 39.3967 38.9443 38.1304 38.1632 37.3493L35.3348 40.1777ZM31.1483 37.3493C30.3672 38.1304 30.3672 39.3967 31.1483 40.1777C31.9293 40.9588 33.1957 40.9588 33.9767 40.1777L31.1483 37.3493ZM38.1632 37.3493C36.2261 35.4122 33.0854 35.4122 31.1483 37.3493L33.9767 40.1777C34.3517 39.8027 34.9598 39.8027 35.3348 40.1777L38.1632 37.3493Z" fill="#0369CA" mask="url(#path-20-outside-8_298_234)"></path><mask id="path-22-outside-9_298_234" maskUnits="userSpaceOnUse" x="54.8281" y="11.9375" width="15" height="15" fill="black"><rect fill="white" x="54.8281" y="11.9375" width="15" height="15"></rect><path d="M67.0013 14.9375L60.4775 18.045L64.5923 20.4208L57.8281 24.2722"></path></mask><path d="M67.8614 16.7431C68.8586 16.2681 69.282 15.0746 68.807 14.0774C68.332 13.0802 67.1385 12.6569 66.1413 13.1319L67.8614 16.7431ZM60.4775 18.045L59.6174 16.2394C58.9467 16.5589 58.5084 17.2237 58.479 17.966C58.4497 18.7082 58.8341 19.4056 59.4775 19.7771L60.4775 18.045ZM64.5923 20.4208L65.5819 22.1588C66.2047 21.8042 66.5902 21.1434 66.5923 20.4268C66.5945 19.7101 66.213 19.047 65.5923 18.6887L64.5923 20.4208ZM56.8385 22.5341C55.8787 23.0807 55.5436 24.3019 56.0901 25.2618C56.6366 26.2216 57.8578 26.5567 58.8177 26.0102L56.8385 22.5341ZM66.1413 13.1319L59.6174 16.2394L61.3375 19.8506L67.8614 16.7431L66.1413 13.1319ZM59.4775 19.7771L63.5923 22.1528L65.5923 18.6887L61.4775 16.313L59.4775 19.7771ZM63.6027 18.6827L56.8385 22.5341L58.8177 26.0102L65.5819 22.1588L63.6027 18.6827Z" fill="#0369CA" mask="url(#path-22-outside-9_298_234)"></path><mask id="path-24-outside-10_298_234" maskUnits="userSpaceOnUse" x="50.7852" y="0.314453" width="10" height="17" fill="black"><rect fill="white" x="50.7852" y="0.314453" width="10" height="17"></rect><path d="M57.8256 2.31445L52.9268 7.62653L57.6302 8.3002L52.7852 14.3924"></path></mask><path d="M59.2958 3.67033C60.0447 2.85833 59.9935 1.59304 59.1815 0.844211C58.3695 0.0953839 57.1042 0.146589 56.3554 0.958581L59.2958 3.67033ZM52.9268 7.62653L51.4565 6.27066C50.9529 6.81675 50.7935 7.59699 51.0424 8.29688C51.2914 8.99678 51.9078 9.501 52.6432 9.60633L52.9268 7.62653ZM57.6302 8.3002L59.1956 9.54509C59.6417 8.98417 59.7535 8.22744 59.4888 7.56145C59.2241 6.89546 58.6232 6.42202 57.9138 6.32041L57.6302 8.3002ZM51.2198 13.1476C50.5323 14.0121 50.6758 15.2702 51.5403 15.9578C52.4048 16.6453 53.663 16.5018 54.3505 15.6373L51.2198 13.1476ZM56.3554 0.958581L51.4565 6.27066L54.397 8.9824L59.2958 3.67033L56.3554 0.958581ZM52.6432 9.60633L57.3467 10.28L57.9138 6.32041L53.2103 5.64673L52.6432 9.60633ZM56.0649 7.05532L51.2198 13.1476L54.3505 15.6373L59.1956 9.54509L56.0649 7.05532Z" fill="#0369CA" mask="url(#path-24-outside-10_298_234)"></path><mask id="path-26-outside-11_298_234" maskUnits="userSpaceOnUse" x="-0.683594" y="11.9375" width="15" height="15" fill="black"><rect fill="white" x="-0.683594" y="11.9375" width="15" height="15"></rect><path d="M2.31641 14.9375L8.84028 18.045L4.72541 20.4208L11.4896 24.2722"></path></mask><path d="M3.17648 13.1319C2.17926 12.6569 0.985789 13.0802 0.510784 14.0774C0.035778 15.0746 0.459115 16.2681 1.45633 16.7431L3.17648 13.1319ZM8.84028 18.045L9.84028 19.7771C10.4836 19.4056 10.8681 18.7082 10.8387 17.966C10.8094 17.2237 10.371 16.5589 9.70035 16.2394L8.84028 18.045ZM4.72541 20.4208L3.7254 18.6887C3.10474 19.047 2.72326 19.7101 2.72541 20.4268C2.72756 21.1434 3.11302 21.8042 3.73581 22.1588L4.72541 20.4208ZM10.5 26.0102C11.4599 26.5567 12.6811 26.2216 13.2276 25.2618C13.7742 24.3019 13.4391 23.0807 12.4792 22.5341L10.5 26.0102ZM1.45633 16.7431L7.98021 19.8506L9.70035 16.2394L3.17648 13.1319L1.45633 16.7431ZM7.84028 16.313L3.7254 18.6887L5.72541 22.1528L9.84028 19.7771L7.84028 16.313ZM3.73581 22.1588L10.5 26.0102L12.4792 22.5341L5.715 18.6827L3.73581 22.1588Z" fill="#0369CA" mask="url(#path-26-outside-11_298_234)"></path><mask id="path-28-outside-12_298_234" maskUnits="userSpaceOnUse" x="9.48828" y="0.314453" width="10" height="17" fill="black"><rect fill="white" x="9.48828" y="0.314453" width="10" height="17"></rect><path d="M11.4883 2.31445L16.3871 7.62653L11.6837 8.3002L16.5287 14.3924"></path></mask><path d="M12.9585 0.958581C12.2097 0.146589 10.9444 0.0953839 10.1324 0.844212C9.32042 1.59304 9.26921 2.85833 10.018 3.67033L12.9585 0.958581ZM16.3871 7.62653L16.6707 9.60633C17.4061 9.501 18.0225 8.99678 18.2714 8.29688C18.5204 7.59699 18.361 6.81675 17.8574 6.27066L16.3871 7.62653ZM11.6837 8.3002L11.4001 6.32041C10.6907 6.42202 10.0898 6.89546 9.82509 7.56145C9.56037 8.22744 9.67223 8.98417 10.1183 9.54509L11.6837 8.3002ZM14.9634 15.6373C15.6509 16.5018 16.9091 16.6453 17.7736 15.9578C18.6381 15.2702 18.7816 14.0121 18.0941 13.1476L14.9634 15.6373ZM10.018 3.67033L14.9169 8.9824L17.8574 6.27066L12.9585 0.958581L10.018 3.67033ZM16.1036 5.64673L11.4001 6.32041L11.9672 10.28L16.6707 9.60633L16.1036 5.64673ZM10.1183 9.54509L14.9634 15.6373L18.0941 13.1476L13.249 7.05532L10.1183 9.54509Z" fill="#0369CA" mask="url(#path-28-outside-12_298_234)"></path><path d="M9.32031 66.998H59.9959" stroke="#0369CA" stroke-width="2" stroke-miterlimit="10" stroke-linecap="round" stroke-linejoin="round"></path></svg>