<svg xmlns="http://www.w3.org/2000/svg" width="54" height="54" viewBox="0 0 54 54" fill="none"><path d="M27 0C12.112 0 0 12.112 0 27C0 41.888 12.112 54 27 54C41.888 54 54 41.888 54 27C54 12.112 41.888 0 27 0ZM3.85714 27C3.85714 14.8892 13.2109 4.94023 25.0714 3.95492V15.4286C25.0714 16.4945 25.9341 17.3571 27 17.3571H32.7857C33.8009 17.3571 34.6314 16.5736 34.7087 15.5792L39.3417 19.2857L34.7087 22.9922C34.6314 21.9979 33.8009 21.2143 32.7857 21.2143H27C25.9341 21.2143 25.0714 22.0769 25.0714 23.1429V28.9286H23.1429V27C23.1429 26.2579 22.7172 25.5837 22.0505 25.2616C21.3782 24.9414 20.589 25.03 20.0089 25.4932L10.3661 33.2075C9.90842 33.5749 9.64286 34.1286 9.64286 34.7143C9.64286 35.3 9.90842 35.8537 10.3661 36.2211L20.0089 43.9354C20.5871 44.3969 21.3819 44.4871 22.0505 44.167C22.7172 43.8449 23.1429 43.1707 23.1429 42.4286V40.5H25.0714V50.0451C13.2109 49.0598 3.85714 39.1109 3.85714 27ZM28.9286 50.0451V38.5714C28.9286 37.5055 28.0659 36.6429 27 36.6429H21.2143C20.1991 36.6429 19.3686 37.4264 19.2913 38.4208L14.6583 34.7143L19.2913 31.0078C19.3686 32.0023 20.1991 32.7857 21.2143 32.7857H27C28.0659 32.7857 28.9286 31.9231 28.9286 30.8571V25.0714H30.8571V27C30.8571 27.7421 31.2828 28.4163 31.9495 28.7384C32.6218 29.0605 33.4129 28.972 33.9911 28.5068L43.6339 20.7925C44.0916 20.4251 44.3571 19.8714 44.3571 19.2857C44.3571 18.7 44.0916 18.1463 43.6339 17.7789L33.9911 10.0646C33.411 9.60139 32.6162 9.51094 31.9495 9.83301C31.2828 10.1551 30.8571 10.8293 30.8571 11.5714V13.5H28.9286V3.95492C40.7891 4.94023 50.1429 14.8892 50.1429 27C50.1429 39.1109 40.7891 49.0598 28.9286 50.0451Z" fill="#0369CA"></path></svg>