<svg xmlns="http://www.w3.org/2000/svg" width="57" height="60" viewBox="0 0 57 60" fill="none"><path d="M56.8057 14.3499C56.7957 13.4677 56.5241 12.6083 56.0252 11.8805C55.5263 11.1528 54.8227 10.5896 54.0034 10.2622C53.1841 9.93475 52.286 9.85792 51.423 10.0414C50.56 10.2249 49.7709 10.6604 49.1556 11.2928L30.6801 0.6245C29.9687 0.215336 29.1623 0 28.3416 0C27.5209 0 26.7146 0.215336 26.0031 0.6245L7.6142 11.2494C7.13649 10.758 6.55136 10.384 5.90478 10.1567C5.25819 9.9295 4.56773 9.85523 3.88761 9.93976C3.20749 10.0243 2.55622 10.2653 1.98492 10.6439C1.41362 11.0225 0.937844 11.5283 0.594944 12.1217C0.252045 12.7151 0.0513543 13.3799 0.00862687 14.064C-0.0341006 14.748 0.0822986 15.4326 0.348686 16.0641C0.615074 16.6955 1.0242 17.2566 1.54394 17.7034C2.06369 18.1501 2.67991 18.4703 3.34422 18.6388V39.8813C3.34576 40.7014 3.56225 41.5068 3.97211 42.2171C4.38196 42.9274 4.97086 43.5179 5.68009 43.9296L24.0262 54.5302C23.8725 55.1813 23.868 55.8587 24.0132 56.5117C24.1583 57.1647 24.4494 57.7764 24.8645 58.301C25.2796 58.8256 25.8081 59.2495 26.4102 59.5409C27.0124 59.8322 27.6727 59.9836 28.3417 59.9836C29.0106 59.9836 29.6709 59.8322 30.2731 59.5408C30.8752 59.2494 31.4037 58.8255 31.8188 58.3009C32.2339 57.7763 32.5249 57.1646 32.6701 56.5116C32.8152 55.8586 32.8107 55.1812 32.6569 54.5301L51.0031 43.9286C51.7123 43.517 52.3011 42.9267 52.7109 42.2166C53.1206 41.5064 53.337 40.7012 53.3385 39.8813V18.677C54.3212 18.4554 55.1996 17.9066 55.8295 17.1204C56.4595 16.3342 56.8037 15.3574 56.8057 14.3499ZM2.14229 14.3499C2.14896 13.7444 2.3942 13.1659 2.82478 12.74C3.25535 12.3142 3.83651 12.0753 4.4421 12.0754C5.0477 12.0754 5.62885 12.3142 6.05941 12.7401C6.48997 13.1659 6.7352 13.7444 6.74185 14.35C6.73518 14.9556 6.48994 15.534 6.05936 15.9599C5.62879 16.3857 5.04763 16.6246 4.44204 16.6246C3.83645 16.6246 3.25529 16.3857 2.82473 15.9598C2.39417 15.534 2.14895 14.9555 2.14229 14.3499ZM28.3416 57.8413C27.736 57.8346 27.1576 57.5894 26.7317 57.1588C26.3059 56.7282 26.067 56.1471 26.067 55.5415C26.067 54.9359 26.3059 54.3547 26.7318 53.9242C27.1576 53.4936 27.7361 53.2484 28.3417 53.2417C28.9472 53.2484 29.5257 53.4936 29.9516 53.9242C30.3774 54.3548 30.6163 54.936 30.6163 55.5415C30.6162 56.1471 30.3774 56.7283 29.9515 57.1589C29.5257 57.5894 28.9472 57.8346 28.3416 57.8413ZM49.9309 42.0739L31.667 52.627C31.2555 52.1478 30.7453 51.7632 30.1713 51.4995C29.5974 51.2359 28.9732 51.0994 28.3416 51.0994C27.71 51.0994 27.0858 51.2359 26.5119 51.4995C25.9379 51.7632 25.4277 52.1478 25.0162 52.627L6.75232 42.0749C6.36806 41.8518 6.04899 41.5318 5.8269 41.1469C5.60482 40.7621 5.48748 40.3257 5.48657 39.8813V18.6554C6.45317 18.4217 7.31339 17.8704 7.92942 17.0898C8.54546 16.3092 8.88167 15.3444 8.8842 14.3499C8.87805 13.9278 8.81094 13.5089 8.68496 13.106L27.0753 2.48018C27.4605 2.25814 27.8973 2.14126 28.3419 2.14126C28.7865 2.14126 29.2232 2.25814 29.6084 2.48018L48.1039 13.1596C47.9457 13.721 47.9002 14.3082 47.9702 14.8872C48.0402 15.4663 48.2243 16.0257 48.5119 16.5332C48.7994 17.0407 49.1847 17.4862 49.6454 17.8439C50.1062 18.2015 50.6332 18.4644 51.1961 18.6171V39.8813C51.1955 40.3255 51.0783 40.7618 50.8562 41.1465C50.6342 41.5313 50.3152 41.851 49.9309 42.0739ZM52.3635 16.6502C51.758 16.6433 51.1796 16.3979 50.7539 15.9673C50.3281 15.5366 50.0894 14.9555 50.0894 14.3499C50.0894 13.7443 50.3282 13.1632 50.7539 12.7326C51.1797 12.3019 51.7581 12.0565 52.3636 12.0496C52.9691 12.0566 53.5475 12.302 53.9733 12.7326C54.399 13.1633 54.6378 13.7444 54.6378 14.35C54.6377 14.9555 54.399 15.5367 53.9732 15.9673C53.5474 16.3979 52.9691 16.6433 52.3635 16.6502Z" fill="#0458B9"></path><path d="M41.3465 22.4752C41.2648 22.247 41.1076 22.0536 40.9009 21.9272L29.0071 14.7951C28.8413 14.6957 28.6517 14.643 28.4585 14.6426C28.2652 14.6422 28.0754 14.6942 27.9092 14.7929L15.9108 21.9251C15.7538 22.0229 15.6237 22.1583 15.5322 22.319C15.4407 22.4797 15.3907 22.6607 15.3867 22.8456V36.8284C15.3867 37.0103 15.433 37.1893 15.5213 37.3483C15.6096 37.5074 15.737 37.6413 15.8914 37.7375L27.8375 45.1781C28.0538 45.3024 28.304 45.3544 28.5518 45.3267C28.7997 45.2989 29.0322 45.1929 29.2156 45.0239L40.9192 37.683C41.0728 37.5867 41.1995 37.453 41.2873 37.2943C41.3751 37.1357 41.4212 36.9574 41.4213 36.7761V22.8456C41.4187 22.7186 41.3934 22.5932 41.3465 22.4752ZM28.4537 16.9615L38.2716 22.8477L28.4537 28.7685L18.55 22.8477L28.4537 16.9615ZM17.5291 24.734L27.3851 30.6253V42.3721L17.5291 36.2332V24.734ZM29.5275 42.2996V30.6226L39.2789 24.7426V36.184L29.5275 42.2996Z" fill="#0458B9"></path></svg>