<svg xmlns="http://www.w3.org/2000/svg" width="68" height="56" viewBox="0 0 68 56" fill="none"><path fill-rule="evenodd" clip-rule="evenodd" d="M21.041 30.891H45.9422V26.7383H21.041V30.891ZM46.6832 32.3576H20.3154C19.914 32.3576 19.5898 32.0334 19.5898 31.632V26.0127C19.5898 25.6113 19.914 25.2871 20.3154 25.2871H46.6832C47.0845 25.2871 47.4087 25.6113 47.4087 26.0127V31.632C47.4087 32.0334 47.0845 32.3576 46.6832 32.3576Z" fill="#048DEF"></path><path fill-rule="evenodd" clip-rule="evenodd" d="M36.3098 55.5758H30.6904C30.289 55.5758 29.9648 55.2516 29.9648 54.8503V31.6318C29.9648 31.2304 30.289 30.9062 30.6904 30.9062C31.0918 30.9062 31.416 31.2304 31.416 31.6318V54.1092H35.5688V31.6318C35.5688 31.2304 35.893 30.9062 36.2943 30.9062C36.6957 30.9062 37.0199 31.2304 37.0199 31.6318V54.8503C37.0354 55.2516 36.7112 55.5758 36.3098 55.5758Z" fill="#048DEF"></path><path fill-rule="evenodd" clip-rule="evenodd" d="M33.5003 1.45115C30.9376 1.45115 28.8535 3.53525 28.8535 6.09793C28.8535 8.6606 30.9376 10.7447 33.5003 10.7447C36.0629 10.7447 38.147 8.6606 38.147 6.09793C38.1316 3.53525 36.0475 1.45115 33.5003 1.45115ZM33.5003 12.1959C30.1348 12.1959 27.4023 9.46336 27.4023 6.09793C27.4023 2.73249 30.1348 0 33.5003 0C36.8657 0 39.5982 2.73249 39.5982 6.09793C39.5982 9.46336 36.8657 12.1959 33.5003 12.1959Z" fill="#048DEF"></path><path fill-rule="evenodd" clip-rule="evenodd" d="M0.725576 32.4973C0.324194 32.4973 0 32.1731 0 31.7718V17.5999C0 14.8674 2.22304 12.6289 4.97097 12.6289H6.91613C7.67258 12.6289 8.35184 12.9068 8.89217 13.4471L14.7585 19.3135C15.0364 19.6068 15.0364 20.0699 14.7585 20.3478C14.4806 20.6411 14.0175 20.6411 13.7242 20.3478L7.85783 14.4814C7.59539 14.219 7.28664 14.0955 6.91613 14.0955H4.97097C3.04124 14.0955 1.46659 15.6702 1.46659 17.5999V31.7718C1.46659 32.1731 1.1424 32.4973 0.725576 32.4973ZM10.0809 32.4973C9.67949 32.4973 9.3553 32.1731 9.3553 31.7718V23.2192C9.3553 22.8178 9.67949 22.4937 10.0809 22.4937C10.4823 22.4937 10.8065 22.8178 10.8065 23.2192V31.7718C10.8065 32.1731 10.4823 32.4973 10.0809 32.4973Z" fill="#048DEF"></path><path fill-rule="evenodd" clip-rule="evenodd" d="M6.21979 1.74412C3.87325 1.74412 1.9744 3.65841 1.9744 5.98951C1.9744 8.33606 3.88869 10.2349 6.21979 10.2349C8.56634 10.2349 10.4652 8.32062 10.4652 5.98951C10.4806 3.65841 8.56634 1.74412 6.21979 1.74412ZM6.21979 11.7169C3.07049 11.7169 0.507812 9.15426 0.507812 6.00495C0.507812 2.85564 3.07049 0.292969 6.21979 0.292969C9.3691 0.292969 11.9318 2.85564 11.9318 6.00495C11.9472 9.15426 9.38454 11.7169 6.21979 11.7169Z" fill="#048DEF"></path><path fill-rule="evenodd" clip-rule="evenodd" d="M18.865 55.5756H13.647C13.2456 55.5756 12.9214 55.2514 12.9214 54.85V41.1104C12.9214 40.709 13.2456 40.3848 13.647 40.3848C14.0484 40.3848 14.3726 40.709 14.3726 41.1104V54.109H18.124V34.3795C18.124 33.3452 17.2749 32.4961 16.2406 32.4961H1.45115V34.3795C1.45115 35.4138 2.30023 36.2629 3.33456 36.2629C3.73594 36.2629 4.06014 36.5871 4.06014 36.9885C4.06014 37.3899 3.73594 37.714 3.33456 37.714C1.49747 37.714 0 36.2166 0 34.3795V31.7705C0 31.3691 0.324194 31.0449 0.725576 31.0449H16.2406C18.0776 31.0449 19.5751 32.5424 19.5751 34.3795V54.85C19.5906 55.2514 19.2664 55.5756 18.865 55.5756Z" fill="#048DEF"></path><path fill-rule="evenodd" clip-rule="evenodd" d="M1.46659 40.3701H12.9214V37.7148H1.46659V40.3701ZM13.647 41.8367H0.725576C0.324194 41.8367 0 41.5125 0 41.1111V36.9892C0 36.5879 0.324194 36.2637 0.725576 36.2637H13.6316C14.033 36.2637 14.3571 36.5879 14.3571 36.9892V41.1111C14.3726 41.5125 14.0484 41.8367 13.647 41.8367Z" fill="#048DEF"></path><path fill-rule="evenodd" clip-rule="evenodd" d="M9.41695 55.5755H4.26073C3.85935 55.5755 3.53516 55.2514 3.53516 54.85V41.1103C3.53516 40.709 3.85935 40.3848 4.26073 40.3848C4.66211 40.3848 4.98631 40.709 4.98631 41.1103V54.109H8.67594V41.1103C8.67594 40.709 9.00013 40.3848 9.40152 40.3848C9.8029 40.3848 10.1271 40.709 10.1271 41.1103V54.85C10.158 55.2514 9.81834 55.5755 9.41695 55.5755Z" fill="#048DEF"></path><path fill-rule="evenodd" clip-rule="evenodd" d="M20.517 26.7376H10.081C9.67966 26.7376 9.35547 26.4134 9.35547 26.012C9.35547 25.6106 9.67966 25.2864 10.081 25.2864H20.517C21.8138 25.2864 22.879 24.2367 22.879 22.9245C22.879 21.6277 21.8292 20.5625 20.517 20.5625H14.2338C13.8324 20.5625 13.5082 20.2383 13.5082 19.8369C13.5082 19.4355 13.8324 19.1113 14.2338 19.1113H20.517C22.6165 19.1113 24.3301 20.8249 24.3301 22.9245C24.3301 25.024 22.6165 26.7376 20.517 26.7376Z" fill="#048DEF"></path><path fill-rule="evenodd" clip-rule="evenodd" d="M56.9058 32.4973C56.5044 32.4973 56.1802 32.1731 56.1802 31.7718V23.2192C56.1802 22.8178 56.5044 22.4937 56.9058 22.4937C57.3072 22.4937 57.6314 22.8178 57.6314 23.2192V31.7718C57.6468 32.1731 57.3226 32.4973 56.9058 32.4973ZM66.2611 32.4973C65.8597 32.4973 65.5355 32.1731 65.5355 31.7718V17.5999C65.5355 15.6702 63.9608 14.0955 62.0311 14.0955H60.086C59.7155 14.0955 59.4067 14.219 59.1443 14.4814L53.2779 20.3478C53 20.6411 52.5369 20.6411 52.2436 20.3478C51.9657 20.0699 51.9657 19.6068 52.2436 19.3135L58.1099 13.4471C58.6502 12.9068 59.3295 12.6289 60.086 12.6289H62.0311C64.7636 12.6289 67.0021 14.8519 67.0021 17.5999V31.7718C66.9867 32.1731 66.6625 32.4973 66.2611 32.4973Z" fill="#048DEF"></path><path fill-rule="evenodd" clip-rule="evenodd" d="M60.7628 1.74412C58.4162 1.74412 56.5174 3.65841 56.5174 5.98951C56.5174 8.33606 58.4317 10.2349 60.7628 10.2349C63.1093 10.2349 65.0082 8.32062 65.0082 5.98951C65.0082 3.65841 63.1093 1.74412 60.7628 1.74412ZM60.7628 11.7169C57.6135 11.7169 55.0508 9.15426 55.0508 6.00495C55.0508 2.85564 57.6135 0.292969 60.7628 0.292969C63.9121 0.292969 66.4747 2.85564 66.4747 6.00495C66.4747 9.15426 63.9121 11.7169 60.7628 11.7169Z" fill="#048DEF"></path><path fill-rule="evenodd" clip-rule="evenodd" d="M53.3381 55.5756H48.1201C47.7187 55.5756 47.3945 55.2514 47.3945 54.85V34.3795C47.3945 32.5424 48.892 31.0449 50.7291 31.0449H66.2595C66.6609 31.0449 66.9851 31.3691 66.9851 31.7705V34.3795C66.9851 36.2166 65.4876 37.714 63.6505 37.714C63.2491 37.714 62.9249 37.3899 62.9249 36.9885C62.9249 36.5871 63.2491 36.2629 63.6505 36.2629C64.6849 36.2629 65.5339 35.4138 65.5339 34.3795V32.4961H50.7445C49.7102 32.4961 48.8611 33.3452 48.8611 34.3795V54.109H52.6125V41.1104C52.6125 40.709 52.9367 40.3848 53.3381 40.3848C53.7395 40.3848 54.0637 40.709 54.0637 41.1104V54.85C54.0791 55.2514 53.7549 55.5756 53.3381 55.5756Z" fill="#048DEF"></path><path fill-rule="evenodd" clip-rule="evenodd" d="M54.0801 40.3701H65.5349V37.7148H54.0801V40.3701ZM66.2605 41.8367H53.3545C52.9531 41.8367 52.6289 41.5125 52.6289 41.1111V36.9892C52.6289 36.5879 52.9531 36.2637 53.3545 36.2637H66.2605C66.6619 36.2637 66.9861 36.5879 66.9861 36.9892V41.1111C66.9861 41.5125 66.6619 41.8367 66.2605 41.8367Z" fill="#048DEF"></path><path fill-rule="evenodd" clip-rule="evenodd" d="M62.7255 55.5755H57.5693C57.1679 55.5755 56.8438 55.2514 56.8438 54.85V41.1103C56.8438 40.709 57.1679 40.3848 57.5693 40.3848C57.9707 40.3848 58.2949 40.709 58.2949 41.1103V54.109H61.9845V41.1103C61.9845 40.709 62.3087 40.3848 62.7101 40.3848C63.1115 40.3848 63.4357 40.709 63.4357 41.1103V54.85C63.4511 55.2514 63.1269 55.5755 62.7255 55.5755Z" fill="#048DEF"></path><path fill-rule="evenodd" clip-rule="evenodd" d="M56.9053 26.7376H46.4694C44.3698 26.7376 42.6562 25.024 42.6562 22.9245C42.6562 20.8249 44.3698 19.1113 46.4694 19.1113H52.7526C53.1539 19.1113 53.4781 19.4355 53.4781 19.8369C53.4781 20.2383 53.1539 20.5625 52.7526 20.5625H46.4694C45.1726 20.5625 44.1074 21.6122 44.1074 22.9245C44.1074 24.2212 45.1572 25.2864 46.4694 25.2864H56.9053C57.3067 25.2864 57.6309 25.6106 57.6309 26.012C57.6463 26.4134 57.3221 26.7376 56.9053 26.7376Z" fill="#048DEF"></path><path fill-rule="evenodd" clip-rule="evenodd" d="M45.3258 20.7941C44.9399 20.7941 44.6157 20.4853 44.6003 20.084C44.5076 17.4287 42.2537 15.2519 39.5984 15.2519H38.2862C37.1284 16.7031 35.3685 17.5676 33.5005 17.5676C31.6325 17.5676 29.8726 16.7031 28.7148 15.2519H27.4026C24.7318 15.2519 22.4933 17.4132 22.4007 20.084C22.3853 20.4853 22.0456 20.8095 21.6443 20.7941C21.2429 20.7787 20.9187 20.439 20.9341 20.0376C21.0576 16.595 23.9599 13.8008 27.4026 13.8008H29.0698C29.3014 13.8008 29.533 13.9243 29.6719 14.1095C30.5364 15.36 31.9721 16.101 33.485 16.101C34.9979 16.101 36.4337 15.36 37.2982 14.1095C37.4371 13.9088 37.6532 13.8008 37.9003 13.8008H39.5675C43.0102 13.8008 45.9125 16.595 46.036 20.0376C46.0514 20.439 45.7272 20.7787 45.3258 20.7941Z" fill="#048DEF"></path></svg>