<svg xmlns="http://www.w3.org/2000/svg" width="57" height="54" viewBox="0 0 57 54" fill="none"><path d="M34.4752 46.5155L30.4377 48.8465C29.9143 48.3767 29.2232 48.0903 28.4662 48.0903C26.8368 48.0903 25.5113 49.4158 25.5113 51.0452C25.5113 52.6744 26.8368 54 28.4662 54C30.0954 54 31.421 52.6745 31.421 51.0452C31.421 50.8364 31.399 50.6327 31.3575 50.4361L35.3934 48.106C35.8326 47.8525 35.983 47.2908 35.7295 46.8517C35.4759 46.4125 34.9142 46.2622 34.4752 46.5155ZM28.4661 52.1635C27.8493 52.1635 27.3477 51.6618 27.3477 51.0452C27.3477 50.4284 27.8494 49.9268 28.4661 49.9268C29.0827 49.9268 29.5844 50.4285 29.5844 51.0452C29.5844 51.6618 29.0828 52.1635 28.4661 52.1635ZM56.3437 46.4599L52.2258 44.8748C51.6559 42.6749 50.784 40.5716 49.6286 38.6097L51.4208 34.5746C51.5751 34.2275 51.4996 33.8211 51.231 33.5525L50.0721 32.3937C50.1385 32.1997 50.1734 31.9939 50.1734 31.7836V10.6561H52.3599C52.9131 10.6561 53.4009 10.3444 53.6332 9.84283C53.8652 9.34123 53.787 8.76755 53.429 8.34595L46.7631 0.494942C46.4961 0.180438 46.1065 0 45.6941 0C45.2817 0 44.8919 0.180323 44.625 0.494827L37.9586 8.34607C37.6006 8.76789 37.5225 9.34146 37.7547 9.84306C37.9868 10.3445 38.4746 10.6561 39.0278 10.6561H41.2143V29.7435L40.8998 29.8832C38.938 28.728 36.8354 27.8562 34.6367 27.2864L33.0512 23.1674C33.0242 23.0973 32.9872 23.0335 32.9457 22.9737V16.5233H35.1321C35.6854 16.5233 36.1734 16.2115 36.4054 15.7098C36.6375 15.2081 36.5591 14.6345 36.2011 14.2132L29.535 6.36205C29.268 6.04766 28.8782 5.86722 28.4658 5.86734C28.0534 5.86734 27.6637 6.04777 27.397 6.36216L20.731 14.2133C20.3729 14.6349 20.2946 15.2086 20.5267 15.7102C20.7588 16.2119 21.2467 16.5235 21.7999 16.5235H23.9864V22.9742C23.9449 23.0339 23.908 23.0976 23.8811 23.1675L22.2955 27.2866C20.0967 27.8563 17.9941 28.7281 16.0324 29.8833L15.7179 29.7436V22.391H17.9043C18.4576 22.391 18.9455 22.0792 19.1776 21.5775C19.4097 21.0758 19.3313 20.5022 18.9733 20.0809L12.3072 12.2295C12.0401 11.9151 11.6504 11.7348 11.238 11.7349C10.8256 11.7349 10.436 11.9152 10.1692 12.2296L3.50316 20.0807C3.14515 20.5025 3.06687 21.076 3.29908 21.5777C3.53128 22.0794 4.01899 22.3909 4.57225 22.3909H6.75874V31.7838C6.75874 31.9941 6.79363 32.1998 6.86009 32.3939L5.70125 33.5528C5.43265 33.8214 5.35713 34.2276 5.51128 34.5748L7.30395 38.611C6.14867 40.573 5.27678 42.6758 4.70712 44.8748L0.588375 46.4602C0.233927 46.5965 0 46.9371 0 47.317V51.0452C0 51.5523 0.411151 51.9634 0.91826 51.9634H17.4737C17.9808 51.9634 18.3919 51.5523 18.3919 51.0452C18.3919 50.538 17.9808 50.1269 17.4737 50.1269H16.4154C16.5312 48.5928 16.9345 47.1377 17.5717 45.8157L18.4872 46.3442C18.6318 46.4278 18.7897 46.4674 18.9455 46.4674C19.2629 46.4674 19.5716 46.3027 19.7417 46.0082C19.9952 45.569 19.8447 45.0074 19.4056 44.7538L18.4932 44.2271C19.3409 42.9911 20.4119 41.9199 21.6479 41.0723L22.1746 41.9847C22.3447 42.2792 22.6534 42.4439 22.9707 42.4439C23.1265 42.4439 23.2844 42.4042 23.4291 42.3208C23.8682 42.0672 24.0187 41.5056 23.7651 41.0664L23.2366 40.1509C24.5586 39.5136 26.0137 39.1103 27.5479 38.9945V40.0529C27.5479 40.56 27.9591 40.9712 28.4662 40.9712C28.9733 40.9712 29.3844 40.56 29.3844 40.0529V38.9945C30.9185 39.1103 32.3736 39.5136 33.6958 40.1509L33.1672 41.0664C32.9137 41.5056 33.0641 42.0672 33.5033 42.3208C33.6479 42.4043 33.8057 42.4439 33.9616 42.4439C34.279 42.4439 34.5876 42.2792 34.7577 41.9847L35.2845 41.0723C36.5205 41.9199 37.5915 42.991 38.4392 44.227L37.5268 44.7537C37.0876 45.0073 36.9371 45.5689 37.1907 46.008C37.3608 46.3026 37.6694 46.4673 37.9868 46.4673C38.1426 46.4673 38.3005 46.4276 38.4451 46.3441L39.3606 45.8156C39.9979 47.1376 40.4013 48.5927 40.5171 50.1269H39.4588C38.9517 50.1269 38.5405 50.538 38.5405 51.0452C38.5405 51.5523 38.9517 51.9634 39.4588 51.9634H56.0139C56.521 51.9634 56.9321 51.5523 56.9321 51.0452V47.3169C56.9321 46.937 56.6982 46.5964 56.3437 46.4599ZM42.1325 8.81954H39.9658L45.6939 2.07309L51.422 8.81954H49.2552C48.7481 8.81954 48.337 9.23069 48.337 9.7378V30.6586L45.9586 28.2802C45.69 28.0116 45.2836 27.9362 44.9365 28.0903L43.0509 28.9277V9.7378C43.0508 9.23058 42.6396 8.81954 42.1325 8.81954ZM22.7381 14.6869L28.4661 7.94042L34.194 14.6869H32.0274C31.5203 14.6869 31.1092 15.098 31.1092 15.6051V22.579H25.8231V15.6051C25.8231 15.098 25.4119 14.6869 24.9048 14.6869H22.7381ZM7.67688 20.5543H5.51025L11.2382 13.8079L16.9662 20.5543H14.7995C14.2924 20.5543 13.8812 20.9655 13.8812 21.4726V28.9278L11.9956 28.0903C11.6484 27.9361 11.2421 28.0115 10.9735 28.2802L8.59514 30.6586V21.4726C8.59514 20.9654 8.18411 20.5543 7.67688 20.5543ZM55.0956 50.1269H42.3569C41.8824 42.8768 35.8339 37.1232 28.4659 37.1232C21.0981 37.1232 15.0496 42.8768 14.5751 50.1269H1.83652V47.9475L5.81281 46.417C6.09529 46.3082 6.30615 46.0672 6.37628 45.7726C6.93252 43.4347 7.85537 41.2088 9.11901 39.1567C9.27775 38.8988 9.29922 38.5792 9.17629 38.3025L7.4456 34.4056L11.8265 30.0247L15.7238 31.7556C16.0005 31.8784 16.3201 31.8571 16.578 31.6982C18.6299 30.4347 20.8557 29.512 23.1934 28.9556C23.4879 28.8855 23.729 28.6747 23.8378 28.3921L25.3687 24.4155H31.5639L33.0945 28.3921C33.2032 28.6746 33.4443 28.8855 33.7389 28.9556C36.0766 29.512 38.3022 30.4347 40.3542 31.6982C40.612 31.8571 40.9317 31.8785 41.2084 31.7556L45.1057 30.0247L49.4866 34.4055L47.7563 38.3013C47.6334 38.5781 47.6548 38.8977 47.8137 39.1555C49.0773 41.2074 50.0003 43.4337 50.5568 45.7726C50.6269 46.0672 50.8376 46.3083 51.1202 46.417L55.0956 47.9474V50.1269Z" fill="#047BDC"></path></svg>