<svg xmlns="http://www.w3.org/2000/svg" width="55" height="55" viewBox="0 0 55 55" fill="none"><path d="M12.4219 49.6777H17.7445V51.4519H12.4219V49.6777Z" fill="#0369CA"></path><path d="M53.1983 25.7258H53.2258V22.1774C53.2258 19.7317 51.236 17.7419 48.7903 17.7419H48.7353C48.7584 17.4465 48.7903 17.1538 48.7903 16.8548C48.7903 10.4961 43.6168 5.32258 37.2581 5.32258C34.5808 5.32258 32.1209 6.24782 30.1613 7.78339V4.43548C30.1613 1.98976 28.1715 0 25.7258 0H4.43548C1.98976 0 0 1.98976 0 4.43548V50.5645C0 53.0102 1.98976 55 4.43548 55H25.7258C28.1715 55 30.1613 53.0102 30.1613 50.5645V49.6774H50.5645C53.0102 49.6774 55 47.6877 55 45.2419V29.2742C55 27.8185 54.285 26.5348 53.1983 25.7258ZM48.7903 19.5161C50.2576 19.5161 51.4516 20.7102 51.4516 22.1774V24.9283C51.1651 24.8698 50.8679 24.8387 50.5645 24.8387H45.5551C46.9877 23.3519 47.9955 21.5201 48.4701 19.5161H48.7903ZM37.2581 7.09677C42.6383 7.09677 47.0161 11.4746 47.0161 16.8548C47.0161 20.0475 45.4548 23.0077 42.8423 24.8387H38.1452V22.9385C39.671 22.542 40.8064 21.1644 40.8064 19.5161C40.8064 17.5592 39.215 15.9677 37.2581 15.9677C36.2796 15.9677 35.4839 15.172 35.4839 14.1935C35.4839 13.2151 36.2796 12.4194 37.2581 12.4194C38.2365 12.4194 39.0323 13.2151 39.0323 14.1935H40.8064C40.8064 12.5453 39.671 11.1677 38.1452 10.7711V8.87097H36.371V10.7711C34.8452 11.1677 33.7097 12.5453 33.7097 14.1935C33.7097 16.1505 35.3011 17.7419 37.2581 17.7419C38.2365 17.7419 39.0323 18.5377 39.0323 19.5161C39.0323 20.4946 38.2365 21.2903 37.2581 21.2903C36.2796 21.2903 35.4839 20.4946 35.4839 19.5161H33.7097C33.7097 21.1644 34.8452 22.542 36.371 22.9385V24.8387H31.6738C29.0613 23.0077 27.5 20.0475 27.5 16.8548C27.5 11.4746 31.8778 7.09677 37.2581 7.09677ZM19.6057 46.129H1.77419V7.09677H28.3871V9.49637C26.7265 11.495 25.7258 14.0596 25.7258 16.8548C25.7258 17.1538 25.7577 17.4465 25.7808 17.7419H23.9516C21.5059 17.7419 19.5161 19.7317 19.5161 22.1774V45.2419C19.5161 45.5453 19.5472 45.8425 19.6057 46.129ZM23.9516 19.5161H26.046C26.1906 20.1256 26.3876 20.7164 26.6271 21.2903H23.9516V23.0645H27.5V22.9616C27.9205 23.6331 28.4057 24.263 28.961 24.8387H23.9516C22.4844 24.8387 21.2903 23.6447 21.2903 22.1774C21.2903 20.7102 22.4844 19.5161 23.9516 19.5161ZM4.43548 1.77419H25.7258C27.1931 1.77419 28.3871 2.96823 28.3871 4.43548V5.32258H1.77419V4.43548C1.77419 2.96823 2.96823 1.77419 4.43548 1.77419ZM28.3871 50.5645C28.3871 52.0318 27.1931 53.2258 25.7258 53.2258H4.43548C2.96823 53.2258 1.77419 52.0318 1.77419 50.5645V47.9032H20.4032V47.8757C21.2123 48.9624 22.4959 49.6774 23.9516 49.6774H28.3871V50.5645ZM50.5645 47.9032H23.9516C22.4844 47.9032 21.2903 46.7092 21.2903 45.2419V25.724C22.0319 26.2811 22.9536 26.6129 23.9516 26.6129H50.5645C52.0318 26.6129 53.2258 27.8069 53.2258 29.2742V31.9355H42.5806C39.6452 31.9355 37.2581 34.3227 37.2581 37.2581C37.2581 40.1935 39.6452 42.5806 42.5806 42.5806H53.2258V45.2419C53.2258 46.7092 52.0318 47.9032 50.5645 47.9032ZM53.2258 33.7097V40.8064H42.5806C40.6237 40.8064 39.0323 39.215 39.0323 37.2581C39.0323 35.3011 40.6237 33.7097 42.5806 33.7097H53.2258Z" fill="#0369CA"></path><path d="M40.8086 36.3711H42.5828V38.1453H40.8086V36.3711Z" fill="#0369CA"></path><path d="M43.4688 15.9688H45.2429V17.7429H43.4688V15.9688Z" fill="#0369CA"></path><path d="M29.2734 15.9688H31.0476V17.7429H29.2734V15.9688Z" fill="#0369CA"></path><path d="M51.4492 8.87109H53.2234V10.6453H51.4492V8.87109Z" fill="#0369CA"></path><path d="M51.4492 12.4199H53.2234V14.1941H51.4492V12.4199Z" fill="#0369CA"></path><path d="M53.2266 10.6445H55.0008V12.4187H53.2266V10.6445Z" fill="#0369CA"></path><path d="M49.6797 10.6445H51.4539V12.4187H49.6797V10.6445Z" fill="#0369CA"></path><path d="M21.2891 10.6445H23.0633V12.4187H21.2891V10.6445Z" fill="#0369CA"></path><path d="M21.2891 14.1934H23.0633V15.9676H21.2891V14.1934Z" fill="#0369CA"></path><path d="M23.0625 12.4199H24.8367V14.1941H23.0625V12.4199Z" fill="#0369CA"></path><path d="M19.5156 12.4199H21.2898V14.1941H19.5156V12.4199Z" fill="#0369CA"></path><path d="M44.3555 0H46.1297V1.77419H44.3555V0Z" fill="#0369CA"></path><path d="M44.3555 3.54883H46.1297V5.32302H44.3555V3.54883Z" fill="#0369CA"></path><path d="M46.1289 1.77539H47.9031V3.54958H46.1289V1.77539Z" fill="#0369CA"></path><path d="M42.5781 1.77539H44.3523V3.54958H42.5781V1.77539Z" fill="#0369CA"></path></svg>