<svg xmlns="http://www.w3.org/2000/svg" width="34" height="40" viewBox="0 0 34 40" fill="none"><path d="M31.7378 6.4255C29.8723 5.74094 28.378 4.13548 27.7401 2.13084C27.3344 0.856148 26.2174 0 24.9602 0H8.76199C7.50505 0 6.38778 0.856148 5.98212 2.13084C5.34416 4.13548 3.84984 5.74094 1.98441 6.4255C0.797446 6.86129 0 8.0582 0 9.40401V13.7816C0 19.4941 1.60226 24.9944 4.63368 29.6883C7.40732 33.9829 11.2294 37.3437 15.6872 39.4076C16.0602 39.5804 16.4605 39.6667 16.8611 39.6667C17.2614 39.6667 17.6617 39.5804 18.0347 39.4076C22.4925 37.344 26.3146 33.9829 29.0882 29.6883C32.1196 24.9944 33.7222 19.4938 33.7222 13.7816V9.40401C33.7222 8.0582 32.9247 6.86129 31.7378 6.4255ZM31.5466 13.7816C31.5466 19.0202 30.0772 24.0641 27.2973 28.3685C24.7554 32.3045 21.2531 35.3844 17.1696 37.275C16.9738 37.3658 16.7486 37.3661 16.5523 37.275C12.4685 35.3844 8.96652 32.3045 6.42461 28.3685C3.64502 24.0645 2.17562 19.0205 2.17562 13.7816V9.40401C2.17562 9.05054 2.38299 8.73701 2.69149 8.62382C5.18864 7.70715 7.18891 5.55967 8.04188 2.87895C8.14754 2.54726 8.43678 2.32422 8.76199 2.32422H24.9602C25.2851 2.32422 25.5746 2.54726 25.6803 2.87895C26.5333 5.55967 28.5335 7.70715 31.0307 8.62382C31.3392 8.73701 31.5466 9.05054 31.5466 9.40401V13.7816Z" fill="#0369CA"></path><path d="M21.4853 15.0671H21.4114V11.7575C21.4114 9.0783 19.3709 6.89844 16.863 6.89844C14.3551 6.89844 12.3146 9.0783 12.3146 11.7575V15.0671H12.2406C10.7962 15.0671 9.62109 16.3227 9.62109 17.8659V24.554C9.62109 27.4278 11.8097 29.7663 14.4995 29.7663H19.2264C21.9165 29.7663 24.1049 27.4278 24.1049 24.554V17.8659C24.1049 16.3227 22.9298 15.0671 21.4853 15.0671ZM14.4902 11.7575C14.4902 10.36 15.5548 9.22266 16.863 9.22266C18.1712 9.22266 19.2358 10.36 19.2358 11.7575V15.0674H14.4902V11.7575ZM21.9292 24.554C21.9292 26.1465 20.7168 27.4418 19.2264 27.4418H14.4995C13.0092 27.4418 11.7967 26.1465 11.7967 24.554V17.8659C11.7967 17.6044 11.9959 17.3916 12.2406 17.3916H21.4853C21.7301 17.3916 21.9292 17.6044 21.9292 17.8659V24.554Z" fill="#0369CA"></path><path d="M16.8612 20.1582C16.2604 20.1582 15.7734 20.6784 15.7734 21.3203V23.5159C15.7734 24.1578 16.2604 24.678 16.8612 24.678C17.4621 24.678 17.9491 24.1578 17.9491 23.5159V21.3203C17.9491 20.6784 17.4621 20.1582 16.8612 20.1582Z" fill="#0369CA"></path></svg>