<svg xmlns="http://www.w3.org/2000/svg" width="60" height="60" viewBox="0 0 60 60" fill="none"><path d="M58.8281 46.1656C59.4753 46.1656 60 45.6284 60 44.9656C60 44.3029 59.4753 43.7656 58.8281 43.7656C58.1809 43.7656 57.6562 44.3029 57.6562 44.9656C57.6562 45.6284 58.1809 46.1656 58.8281 46.1656Z" fill="#047BDC"></path><path d="M58.7988 21.75C58.0242 20.9568 56.9941 20.52 55.8984 20.52H55.3125V4.2C55.3125 1.884 53.4727 0 51.2109 0H8.78906C6.52734 0 4.6875 1.884 4.6875 4.2V20.52H4.10156C3.00586 20.52 1.97578 20.9568 1.20117 21.75C0.426562 22.5432 0 23.598 0 24.72V55.8C0 56.922 0.426562 57.9768 1.20117 58.77C1.97578 59.5632 3.00586 60 4.10156 60H55.8984C56.9941 60 58.0242 59.5632 58.7988 58.77C59.5734 57.9768 60 56.922 60 55.8V50.3652C60 49.704 59.4738 49.1652 58.8281 49.1652C58.1824 49.1652 57.6574 49.7028 57.6562 50.364V50.3652V55.8C57.6551 56.7912 56.8664 57.5988 55.8984 57.6H4.10156C3.13359 57.5988 2.34609 56.7912 2.34375 55.8V37.8H57.6562V39.5652C57.6562 40.2276 58.1824 40.7652 58.8281 40.7652C59.4738 40.7652 60 40.2276 60 39.5652V24.72C60 23.598 59.5734 22.5432 58.7988 21.75ZM57.6562 24.72V29.4H33.0817L35.7188 27H51.2109C53.4328 27 55.248 25.1808 55.3113 22.92H55.8984C56.8664 22.9212 57.6551 23.7288 57.6562 24.72ZM7.03125 4.2C7.03125 3.2076 7.81992 2.4 8.78906 2.4H51.2109C52.1801 2.4 52.9688 3.2076 52.9688 4.2C52.9688 4.2 52.9676 22.8804 52.9641 22.92C52.9043 23.8572 52.1402 24.6 51.2109 24.6H35.2734C34.9863 24.6 34.7098 24.708 34.4953 24.9036L30 28.9944L25.5047 24.9036C25.2902 24.708 25.0137 24.6 24.7266 24.6H8.78906C7.85977 24.6 7.0957 23.8572 7.03594 22.92C7.03242 22.8804 7.03125 4.2 7.03125 4.2ZM4.10156 22.92H4.68867C4.75195 25.1808 6.56719 27 8.78906 27H24.2812L26.9183 29.4H2.34375V24.72C2.34609 23.7288 3.13359 22.9212 4.10156 22.92ZM2.34375 35.4V31.8H57.6562V35.4H2.34375Z" fill="#047BDC"></path><path d="M31.6338 42.6596C32.1239 42.6596 32.5954 42.8035 32.9976 43.0757C33.5376 43.4411 34.2646 43.2889 34.6214 42.7361C34.9781 42.1831 34.8296 41.4386 34.2897 41.0734C33.503 40.541 32.5846 40.2598 31.6338 40.2598C29.0055 40.2598 26.8672 42.413 26.8672 45.0598C26.8672 47.7065 29.0055 49.8598 31.6338 49.8598C32.6872 49.8598 33.6356 49.5106 34.3766 48.8497C34.5223 48.7196 34.6607 48.5767 34.788 48.4247C35.2093 47.9216 35.1526 47.1641 34.6613 46.7326C34.1703 46.3012 33.4304 46.3591 33.0089 46.8623C32.9552 46.9264 32.8973 46.9861 32.837 47.04C32.5246 47.3185 32.1199 47.4598 31.6337 47.4598C30.2977 47.4598 29.2108 46.3831 29.2108 45.0598C29.2108 43.7364 30.2978 42.6596 31.6338 42.6596Z" fill="#047BDC"></path><path d="M51.7314 42.6596C52.2215 42.6596 52.6931 42.8035 53.0953 43.0757C53.6353 43.4411 54.3623 43.2889 54.719 42.7361C55.0757 42.1831 54.9273 41.4386 54.3874 41.0734C53.6007 40.541 52.6823 40.2598 51.7314 40.2598C49.1032 40.2598 46.9648 42.413 46.9648 45.0598C46.9648 47.7065 49.1032 49.8598 51.7314 49.8598C52.7848 49.8598 53.7332 49.5106 54.4742 48.8497C54.62 48.7196 54.7584 48.5767 54.8857 48.4247C55.307 47.9216 55.2502 47.1641 54.759 46.7326C54.2679 46.3012 53.528 46.3591 53.1065 46.8623C53.0529 46.9264 52.995 46.9861 52.9346 47.04C52.6223 47.3185 52.2175 47.4598 51.7313 47.4598C50.3954 47.4598 49.3085 46.3831 49.3085 45.0598C49.3085 43.7364 50.3955 42.6596 51.7314 42.6596Z" fill="#047BDC"></path><path d="M43.1273 40.9945L41.2575 45.5417L39.4312 41.0107C39.1843 40.3981 38.4988 40.1064 37.9008 40.3594C37.3026 40.6122 37.0178 41.3138 37.2647 41.9264L40.1637 49.118C40.3442 49.5658 40.7698 49.8584 41.2428 49.8602H41.247C41.7183 49.8602 42.1439 49.5709 42.327 49.1258L45.2874 41.9258C45.5385 41.315 45.2586 40.6114 44.6621 40.3542C44.0655 40.0968 43.3783 40.3837 43.1273 40.9945Z" fill="#047BDC"></path><path d="M14.3172 17.8048C15.0728 18.2971 15.6481 18.5176 16.3159 18.6093V18.8996C16.3159 19.5624 16.8406 20.0996 17.4878 20.0996C18.135 20.0996 18.6597 19.5624 18.6597 18.8996V18.4862C20.149 18.0126 21.0968 16.6828 21.3086 15.3706C21.5935 13.606 20.6424 12.0142 18.942 11.4096C18.0457 11.0908 17.056 10.7071 16.5114 10.2774C16.3922 10.1833 16.3416 9.93837 16.3884 9.68181C16.4143 9.53973 16.536 9.06501 17.0167 8.91933C18.0155 8.61681 18.6491 9.12297 18.718 9.18165L18.8066 9.24561C19.3766 9.65709 20.1698 9.46581 20.5005 8.83701C20.8108 8.24685 20.5835 7.51365 20.0004 7.20909C19.6128 7.00665 19.1521 6.81237 18.6597 6.67473V6.29961C18.6597 5.63685 18.135 5.09961 17.4878 5.09961C16.8406 5.09961 16.3159 5.63685 16.3159 6.29961V6.63045C15.166 6.99405 14.3123 7.99065 14.0844 9.24177C13.8732 10.4016 14.2551 11.5268 15.081 12.1785C15.8893 12.8162 17.0448 13.2756 18.1732 13.6767C19.0236 13.9791 19.054 14.6226 18.9964 14.9792C18.8969 15.5956 18.38 16.2618 17.4802 16.2678C16.5312 16.2745 16.2609 16.2312 15.5464 15.761C14.983 15.3904 14.2265 15.576 13.8919 16.1812C13.5818 16.7421 13.7861 17.4589 14.3172 17.8048Z" fill="#047BDC"></path><path d="M38.0547 16.1397C37.4075 16.1397 36.8828 16.6769 36.8828 17.3397C36.8828 18.0024 37.4075 18.5397 38.0547 18.5397H40.3984V18.8997C40.3984 19.5624 40.9231 20.0997 41.5703 20.0997C42.2175 20.0997 42.7422 19.5624 42.7422 18.8997V18.5397H45.0859C45.7332 18.5397 46.2578 18.0024 46.2578 17.3397C46.2578 16.6769 45.7332 16.1397 45.0859 16.1397H42.7422V13.7397H45.0859C45.7332 13.7397 46.2578 13.2024 46.2578 12.5397C46.2578 11.8769 45.7332 11.3397 45.0859 11.3397H42.8329L45.7571 7.0072C46.125 6.46204 45.9917 5.71456 45.4593 5.33776C44.9269 4.96096 44.197 5.09752 43.829 5.64268L41.5729 8.98528L39.3133 5.61988C38.9467 5.07376 38.2171 4.9354 37.6838 5.31088C37.1505 5.68636 37.0154 6.43336 37.382 6.97948L40.3094 11.3397H38.0547C37.4075 11.3397 36.8828 11.8769 36.8828 12.5397C36.8828 13.2024 37.4075 13.7397 38.0547 13.7397H40.3984V16.1397H38.0547Z" fill="#047BDC"></path><path d="M24.6953 14.0999H26.8219C26.9255 15.1646 26.823 15.6008 25.9371 16.8193L24.9555 18.0833C24.6767 18.4423 24.6221 18.9328 24.815 19.3469C25.0079 19.7609 25.4144 20.0262 25.8624 20.0302L33.5548 20.0999H33.5654C34.2077 20.0999 34.7313 19.5696 34.737 18.9104C34.7427 18.2478 34.2227 17.7058 33.5755 17.6999L28.2327 17.6515C29.0369 16.4153 29.2711 15.5027 29.1723 14.0999H30.672C31.3192 14.0999 31.8439 13.5626 31.8439 12.8999C31.8439 12.2371 31.3192 11.6999 30.672 11.6999H28.6318C28.2786 11.1538 27.661 10.0075 27.6648 9.0786C27.6636 8.72784 27.7368 8.2182 28.3844 7.8438C29.2428 7.34736 30.4911 7.43196 31.1181 7.82244C31.6797 8.17212 32.1016 8.6526 32.2191 9.07644C32.3957 9.714 33.0433 10.0842 33.6664 9.90324C34.289 9.7224 34.6505 9.0588 34.4738 8.42124C34.1932 7.40868 33.4139 6.44304 32.3358 5.77176C30.9031 4.87968 28.7567 4.87224 27.232 5.754C25.9947 6.46944 25.3161 7.65324 25.3211 9.07776C25.3171 10.0178 25.6149 10.9474 25.9539 11.6999H24.6953C24.0481 11.6999 23.5234 12.2371 23.5234 12.8999C23.5234 13.5626 24.0481 14.0999 24.6953 14.0999Z" fill="#047BDC"></path><path d="M24.5133 41.5839C24.2907 41.3487 23.9918 41.2191 23.6719 41.2191C23.366 41.2191 23.0766 41.3391 22.8563 41.5575C21.6785 42.7215 20.5559 43.5543 19.5223 44.0295C18.92 44.3067 18.3528 44.4567 17.8817 44.4639C17.795 44.4639 17.5465 44.4243 17.4598 44.4243C17.1504 44.4243 16.8586 44.5479 16.6371 44.7699C15.3 46.1043 14.2243 46.2723 13.5293 46.2819C13.1121 46.2819 12.7746 46.2015 12.5649 46.1331C12.4465 46.0947 12.2778 46.0191 12.2778 46.0191C12.1055 45.9243 11.9121 45.8739 11.7176 45.8739C11.3332 45.8739 10.9735 46.0671 10.7543 46.3899C10.7192 46.4199 10.616 46.4943 10.4696 46.5675C9.96331 46.8327 8.93675 47.1075 8.10472 47.0991C7.64417 47.1039 7.24808 47.0079 7.1098 46.9167C7.07347 46.8951 7.03245 46.8519 7.03128 46.7811C7.02542 46.6371 7.10863 46.2303 7.45784 45.6231C8.18792 44.3319 8.77386 43.7043 9.13714 43.4055C9.54495 43.0719 9.7723 43.0239 9.92464 43.0191H9.92816C10.0582 43.0191 10.1848 43.0743 10.3266 43.1931C10.4028 43.2579 10.4989 43.3791 10.5024 43.3839C10.7203 43.7235 11.0871 43.9263 11.4844 43.9263C11.7059 43.9263 11.9227 43.8627 12.1102 43.7403C12.6563 43.3863 12.8168 42.6399 12.4711 42.0807C12.2649 41.7591 12.0071 41.5059 11.8301 41.3523C11.4422 41.0187 10.7912 40.6203 9.9182 40.6191C9.16351 40.6191 8.37777 40.9383 7.65941 41.5419C6.89886 42.1767 6.16995 43.1175 5.4305 44.4183C4.92191 45.3231 4.69222 46.0527 4.68753 46.7823C4.68519 47.2611 4.81058 47.7351 5.04027 48.1167C5.42933 48.7659 6.03519 49.0887 6.47581 49.2459C6.95628 49.4163 7.47425 49.4967 8.10472 49.4991C8.95316 49.4967 9.84964 49.3443 10.6957 49.0563C11.1188 48.9123 11.4774 48.7503 11.7926 48.5631C11.8582 48.5223 11.9121 48.4875 11.9614 48.4539C12.4606 48.6039 13.009 48.6807 13.5528 48.6819C14.4094 48.6819 16.1385 48.4455 17.894 46.8639C18.4307 46.8639 19.3289 46.7499 20.5008 46.2075C21.8016 45.6063 23.1434 44.6211 24.4875 43.2807C24.9516 42.8199 24.9633 42.0591 24.5133 41.5839Z" fill="#047BDC"></path></svg>