<svg xmlns="http://www.w3.org/2000/svg" width="70" height="70" viewBox="0 0 70 70" fill="none"><path d="M7.375 8.4875C7.98942 8.4875 8.4875 7.98942 8.4875 7.375C8.4875 6.76058 7.98942 6.2625 7.375 6.2625C6.76058 6.2625 6.2625 6.76058 6.2625 7.375C6.2625 7.98942 6.76058 8.4875 7.375 8.4875Z" fill="#0369CA" stroke="#0369CA" stroke-width="0.1"></path><path d="M13.75 8.4875C14.3644 8.4875 14.8625 7.98942 14.8625 7.375C14.8625 6.76058 14.3644 6.2625 13.75 6.2625C13.1356 6.2625 12.6375 6.76058 12.6375 7.375C12.6375 7.98942 13.1356 8.4875 13.75 8.4875Z" fill="#0369CA" stroke="#0369CA" stroke-width="0.1"></path><path d="M20.1328 8.4875C20.7472 8.4875 21.2453 7.98942 21.2453 7.375C21.2453 6.76058 20.7472 6.2625 20.1328 6.2625C19.5184 6.2625 19.0203 6.76058 19.0203 7.375C19.0203 7.98942 19.5184 8.4875 20.1328 8.4875Z" fill="#0369CA" stroke="#0369CA" stroke-width="0.1"></path><mask id="path-4-outside-1_1829_192" maskUnits="userSpaceOnUse" x="0" y="0" width="70" height="70" fill="black"><rect fill="white" width="70" height="70"></rect><path d="M64.75 1H5.25C4.12283 1 3.04183 1.44777 2.2448 2.2448C1.44777 3.04183 1 4.12283 1 5.25L1 58.375C1 59.5022 1.44777 60.5832 2.2448 61.3802C3.04183 62.1772 4.12283 62.625 5.25 62.625H23.1L33.4062 68.575C33.8908 68.8548 34.4405 69.002 35 69.002C35.5595 69.002 36.1092 68.8548 36.5938 68.575L46.9 62.625H64.75C65.8772 62.625 66.9582 62.1772 67.7552 61.3802C68.5522 60.5832 69 59.5022 69 58.375V5.25C69 4.12283 68.5522 3.04183 67.7552 2.2448C66.9582 1.44777 65.8772 1 64.75 1ZM35.5312 66.7326C35.3697 66.8259 35.1865 66.875 35 66.875C34.8135 66.875 34.6303 66.8259 34.4688 66.7326L19.5938 58.1444C19.4322 58.0512 19.2981 57.9171 19.2049 57.7555C19.1116 57.594 19.0625 57.4108 19.0625 57.2243V40.4007C19.0625 40.2142 19.1116 40.031 19.2049 39.8694C19.2981 39.7079 19.4322 39.5738 19.5938 39.4806L34.4688 30.8924C34.6303 30.7991 34.8135 30.75 35 30.75C35.1865 30.75 35.3697 30.7991 35.5312 30.8924L50.4062 39.4806C50.5678 39.5738 50.7019 39.7079 50.7951 39.8694C50.8884 40.031 50.9375 40.2142 50.9375 40.4007V57.2243C50.9375 57.4108 50.8884 57.594 50.7951 57.7555C50.7019 57.9171 50.5678 58.0512 50.4062 58.1444L35.5312 66.7326ZM35 22.25C34.6848 22.25 34.3767 22.1565 34.1146 21.9814C33.8525 21.8063 33.6482 21.5574 33.5276 21.2661C33.4069 20.9749 33.3754 20.6545 33.4369 20.3453C33.4984 20.0362 33.6502 19.7522 33.873 19.5293C34.0959 19.3064 34.3799 19.1546 34.6891 19.0931C34.9982 19.0316 35.3187 19.0632 35.6099 19.1838C35.9011 19.3044 36.15 19.5087 36.3252 19.7708C36.5003 20.0329 36.5938 20.341 36.5938 20.6562C36.5938 21.0789 36.4258 21.4843 36.127 21.7832C35.8281 22.0821 35.4227 22.25 35 22.25ZM66.875 58.375C66.875 58.9386 66.6511 59.4791 66.2526 59.8776C65.8541 60.2761 65.3136 60.5 64.75 60.5H50.5762L51.4688 59.9847C51.9536 59.7047 52.3562 59.302 52.636 58.8171C52.9157 58.3321 53.0629 57.7821 53.0625 57.2222V40.4007C53.0629 39.8408 52.9157 39.2907 52.636 38.8058C52.3562 38.3208 51.9536 37.9181 51.4688 37.6382L44.5625 33.6527V30.5173L48.0071 29.6556C48.2371 29.5983 48.4413 29.4657 48.5872 29.2789C48.7331 29.0922 48.8124 28.862 48.8125 28.625V24.2018C49.6685 23.9466 50.4041 23.3918 50.8847 22.6388C51.3652 21.8859 51.5588 20.9851 51.4298 20.1012C51.3008 19.2173 50.858 18.4094 50.1823 17.8251C49.5067 17.2409 48.6433 16.9193 47.75 16.9193C46.8567 16.9193 45.9933 17.2409 45.3177 17.8251C44.642 18.4094 44.1992 19.2173 44.0702 20.1012C43.9412 20.9851 44.1348 21.8859 44.6153 22.6388C45.0959 23.3918 45.8315 23.9466 46.6875 24.2018V27.7952L43.2429 28.6569C43.0129 28.7142 42.8087 28.8468 42.6628 29.0336C42.5169 29.2203 42.4376 29.4505 42.4375 29.6875V32.4256L36.5938 29.05C36.4236 28.963 36.2457 28.8919 36.0625 28.8375V24.2018C36.9185 23.9466 37.6541 23.3918 38.1347 22.6388C38.6152 21.8859 38.8088 20.9851 38.6798 20.1012C38.5508 19.2173 38.108 18.4094 37.4323 17.8251C36.7567 17.2409 35.8933 16.9193 35 16.9193C34.1067 16.9193 33.2433 17.2409 32.5677 17.8251C31.892 18.4094 31.4492 19.2173 31.3202 20.1012C31.1912 20.9851 31.3848 21.8859 31.8653 22.6388C32.3459 23.3918 33.0815 23.9466 33.9375 24.2018V28.8375C33.754 28.8943 33.5762 28.9679 33.4062 29.0574L27.5625 32.4256V29.6875C27.5624 29.4505 27.4831 29.2203 27.3372 29.0336C27.1913 28.8468 26.9871 28.7142 26.7571 28.6569L23.3125 27.7952V24.2018C24.1685 23.9466 24.9041 23.3918 25.3847 22.6388C25.8652 21.8859 26.0588 20.9851 25.9298 20.1012C25.8008 19.2173 25.358 18.4094 24.6823 17.8251C24.0067 17.2409 23.1433 16.9193 22.25 16.9193C21.3567 16.9193 20.4933 17.2409 19.8177 17.8251C19.142 18.4094 18.6992 19.2173 18.5702 20.1012C18.4412 20.9851 18.6348 21.8859 19.1153 22.6388C19.5959 23.3918 20.3315 23.9466 21.1875 24.2018V28.625C21.1876 28.862 21.2669 29.0922 21.4128 29.2789C21.5587 29.4657 21.7629 29.5983 21.9929 29.6556L25.4375 30.5173V33.6527L18.5312 37.6403C18.0464 37.9202 17.6438 38.3229 17.364 38.8079C17.0843 39.2928 16.9371 39.8429 16.9375 40.4028V57.2243C16.9371 57.7842 17.0843 58.3343 17.364 58.8192C17.6438 59.3042 18.0464 59.7069 18.5312 59.9868L19.4238 60.5021H5.25C4.68641 60.5021 4.14591 60.2782 3.7474 59.8797C3.34888 59.4812 3.125 58.9407 3.125 58.3771V13.75H66.875V58.375ZM47.75 22.25C47.4348 22.25 47.1267 22.1565 46.8646 21.9814C46.6025 21.8063 46.3982 21.5574 46.2776 21.2661C46.1569 20.9749 46.1254 20.6545 46.1869 20.3453C46.2484 20.0362 46.4002 19.7522 46.623 19.5293C46.8459 19.3064 47.1299 19.1546 47.4391 19.0931C47.7482 19.0316 48.0687 19.0632 48.3599 19.1838C48.6511 19.3044 48.9 19.5087 49.0752 19.7708C49.2503 20.0329 49.3438 20.341 49.3438 20.6562C49.3438 21.0789 49.1758 21.4843 48.877 21.7832C48.5781 22.0821 48.1727 22.25 47.75 22.25ZM22.25 22.25C21.9348 22.25 21.6267 22.1565 21.3646 21.9814C21.1025 21.8063 20.8982 21.5574 20.7776 21.2661C20.6569 20.9749 20.6254 20.6545 20.6869 20.3453C20.7484 20.0362 20.9002 19.7522 21.123 19.5293C21.3459 19.3064 21.6299 19.1546 21.9391 19.0931C22.2482 19.0316 22.5687 19.0632 22.8599 19.1838C23.1511 19.3044 23.4 19.5087 23.5752 19.7708C23.7503 20.0329 23.8438 20.341 23.8438 20.6562C23.8438 21.0789 23.6758 21.4843 23.377 21.7832C23.0781 22.0821 22.6727 22.25 22.25 22.25ZM66.875 11.625H3.125V5.25C3.125 4.68641 3.34888 4.14591 3.7474 3.7474C4.14591 3.34888 4.68641 3.125 5.25 3.125H64.75C65.3136 3.125 65.8541 3.34888 66.2526 3.7474C66.6511 4.14591 66.875 4.68641 66.875 5.25V11.625Z"></path></mask><path d="M64.75 1H5.25C4.12283 1 3.04183 1.44777 2.2448 2.2448C1.44777 3.04183 1 4.12283 1 5.25L1 58.375C1 59.5022 1.44777 60.5832 2.2448 61.3802C3.04183 62.1772 4.12283 62.625 5.25 62.625H23.1L33.4062 68.575C33.8908 68.8548 34.4405 69.002 35 69.002C35.5595 69.002 36.1092 68.8548 36.5938 68.575L46.9 62.625H64.75C65.8772 62.625 66.9582 62.1772 67.7552 61.3802C68.5522 60.5832 69 59.5022 69 58.375V5.25C69 4.12283 68.5522 3.04183 67.7552 2.2448C66.9582 1.44777 65.8772 1 64.75 1ZM35.5312 66.7326C35.3697 66.8259 35.1865 66.875 35 66.875C34.8135 66.875 34.6303 66.8259 34.4688 66.7326L19.5938 58.1444C19.4322 58.0512 19.2981 57.9171 19.2049 57.7555C19.1116 57.594 19.0625 57.4108 19.0625 57.2243V40.4007C19.0625 40.2142 19.1116 40.031 19.2049 39.8694C19.2981 39.7079 19.4322 39.5738 19.5938 39.4806L34.4688 30.8924C34.6303 30.7991 34.8135 30.75 35 30.75C35.1865 30.75 35.3697 30.7991 35.5312 30.8924L50.4062 39.4806C50.5678 39.5738 50.7019 39.7079 50.7951 39.8694C50.8884 40.031 50.9375 40.2142 50.9375 40.4007V57.2243C50.9375 57.4108 50.8884 57.594 50.7951 57.7555C50.7019 57.9171 50.5678 58.0512 50.4062 58.1444L35.5312 66.7326ZM35 22.25C34.6848 22.25 34.3767 22.1565 34.1146 21.9814C33.8525 21.8063 33.6482 21.5574 33.5276 21.2661C33.4069 20.9749 33.3754 20.6545 33.4369 20.3453C33.4984 20.0362 33.6502 19.7522 33.873 19.5293C34.0959 19.3064 34.3799 19.1546 34.6891 19.0931C34.9982 19.0316 35.3187 19.0632 35.6099 19.1838C35.9011 19.3044 36.15 19.5087 36.3252 19.7708C36.5003 20.0329 36.5938 20.341 36.5938 20.6562C36.5938 21.0789 36.4258 21.4843 36.127 21.7832C35.8281 22.0821 35.4227 22.25 35 22.25ZM66.875 58.375C66.875 58.9386 66.6511 59.4791 66.2526 59.8776C65.8541 60.2761 65.3136 60.5 64.75 60.5H50.5762L51.4688 59.9847C51.9536 59.7047 52.3562 59.302 52.636 58.8171C52.9157 58.3321 53.0629 57.7821 53.0625 57.2222V40.4007C53.0629 39.8408 52.9157 39.2907 52.636 38.8058C52.3562 38.3208 51.9536 37.9181 51.4688 37.6382L44.5625 33.6527V30.5173L48.0071 29.6556C48.2371 29.5983 48.4413 29.4657 48.5872 29.2789C48.7331 29.0922 48.8124 28.862 48.8125 28.625V24.2018C49.6685 23.9466 50.4041 23.3918 50.8847 22.6388C51.3652 21.8859 51.5588 20.9851 51.4298 20.1012C51.3008 19.2173 50.858 18.4094 50.1823 17.8251C49.5067 17.2409 48.6433 16.9193 47.75 16.9193C46.8567 16.9193 45.9933 17.2409 45.3177 17.8251C44.642 18.4094 44.1992 19.2173 44.0702 20.1012C43.9412 20.9851 44.1348 21.8859 44.6153 22.6388C45.0959 23.3918 45.8315 23.9466 46.6875 24.2018V27.7952L43.2429 28.6569C43.0129 28.7142 42.8087 28.8468 42.6628 29.0336C42.5169 29.2203 42.4376 29.4505 42.4375 29.6875V32.4256L36.5938 29.05C36.4236 28.963 36.2457 28.8919 36.0625 28.8375V24.2018C36.9185 23.9466 37.6541 23.3918 38.1347 22.6388C38.6152 21.8859 38.8088 20.9851 38.6798 20.1012C38.5508 19.2173 38.108 18.4094 37.4323 17.8251C36.7567 17.2409 35.8933 16.9193 35 16.9193C34.1067 16.9193 33.2433 17.2409 32.5677 17.8251C31.892 18.4094 31.4492 19.2173 31.3202 20.1012C31.1912 20.9851 31.3848 21.8859 31.8653 22.6388C32.3459 23.3918 33.0815 23.9466 33.9375 24.2018V28.8375C33.754 28.8943 33.5762 28.9679 33.4062 29.0574L27.5625 32.4256V29.6875C27.5624 29.4505 27.4831 29.2203 27.3372 29.0336C27.1913 28.8468 26.9871 28.7142 26.7571 28.6569L23.3125 27.7952V24.2018C24.1685 23.9466 24.9041 23.3918 25.3847 22.6388C25.8652 21.8859 26.0588 20.9851 25.9298 20.1012C25.8008 19.2173 25.358 18.4094 24.6823 17.8251C24.0067 17.2409 23.1433 16.9193 22.25 16.9193C21.3567 16.9193 20.4933 17.2409 19.8177 17.8251C19.142 18.4094 18.6992 19.2173 18.5702 20.1012C18.4412 20.9851 18.6348 21.8859 19.1153 22.6388C19.5959 23.3918 20.3315 23.9466 21.1875 24.2018V28.625C21.1876 28.862 21.2669 29.0922 21.4128 29.2789C21.5587 29.4657 21.7629 29.5983 21.9929 29.6556L25.4375 30.5173V33.6527L18.5312 37.6403C18.0464 37.9202 17.6438 38.3229 17.364 38.8079C17.0843 39.2928 16.9371 39.8429 16.9375 40.4028V57.2243C16.9371 57.7842 17.0843 58.3343 17.364 58.8192C17.6438 59.3042 18.0464 59.7069 18.5312 59.9868L19.4238 60.5021H5.25C4.68641 60.5021 4.14591 60.2782 3.7474 59.8797C3.34888 59.4812 3.125 58.9407 3.125 58.3771V13.75H66.875V58.375ZM47.75 22.25C47.4348 22.25 47.1267 22.1565 46.8646 21.9814C46.6025 21.8063 46.3982 21.5574 46.2776 21.2661C46.1569 20.9749 46.1254 20.6545 46.1869 20.3453C46.2484 20.0362 46.4002 19.7522 46.623 19.5293C46.8459 19.3064 47.1299 19.1546 47.4391 19.0931C47.7482 19.0316 48.0687 19.0632 48.3599 19.1838C48.6511 19.3044 48.9 19.5087 49.0752 19.7708C49.2503 20.0329 49.3438 20.341 49.3438 20.6562C49.3438 21.0789 49.1758 21.4843 48.877 21.7832C48.5781 22.0821 48.1727 22.25 47.75 22.25ZM22.25 22.25C21.9348 22.25 21.6267 22.1565 21.3646 21.9814C21.1025 21.8063 20.8982 21.5574 20.7776 21.2661C20.6569 20.9749 20.6254 20.6545 20.6869 20.3453C20.7484 20.0362 20.9002 19.7522 21.123 19.5293C21.3459 19.3064 21.6299 19.1546 21.9391 19.0931C22.2482 19.0316 22.5687 19.0632 22.8599 19.1838C23.1511 19.3044 23.4 19.5087 23.5752 19.7708C23.7503 20.0329 23.8438 20.341 23.8438 20.6562C23.8438 21.0789 23.6758 21.4843 23.377 21.7832C23.0781 22.0821 22.6727 22.25 22.25 22.25ZM66.875 11.625H3.125V5.25C3.125 4.68641 3.34888 4.14591 3.7474 3.7474C4.14591 3.34888 4.68641 3.125 5.25 3.125H64.75C65.3136 3.125 65.8541 3.34888 66.2526 3.7474C66.6511 4.14591 66.875 4.68641 66.875 5.25V11.625Z" fill="#0369CA"></path><path d="M64.75 1H5.25C4.12283 1 3.04183 1.44777 2.2448 2.2448C1.44777 3.04183 1 4.12283 1 5.25L1 58.375C1 59.5022 1.44777 60.5832 2.2448 61.3802C3.04183 62.1772 4.12283 62.625 5.25 62.625H23.1L33.4062 68.575C33.8908 68.8548 34.4405 69.002 35 69.002C35.5595 69.002 36.1092 68.8548 36.5938 68.575L46.9 62.625H64.75C65.8772 62.625 66.9582 62.1772 67.7552 61.3802C68.5522 60.5832 69 59.5022 69 58.375V5.25C69 4.12283 68.5522 3.04183 67.7552 2.2448C66.9582 1.44777 65.8772 1 64.75 1ZM35.5312 66.7326C35.3697 66.8259 35.1865 66.875 35 66.875C34.8135 66.875 34.6303 66.8259 34.4688 66.7326L19.5938 58.1444C19.4322 58.0512 19.2981 57.9171 19.2049 57.7555C19.1116 57.594 19.0625 57.4108 19.0625 57.2243V40.4007C19.0625 40.2142 19.1116 40.031 19.2049 39.8694C19.2981 39.7079 19.4322 39.5738 19.5938 39.4806L34.4688 30.8924C34.6303 30.7991 34.8135 30.75 35 30.75C35.1865 30.75 35.3697 30.7991 35.5312 30.8924L50.4062 39.4806C50.5678 39.5738 50.7019 39.7079 50.7951 39.8694C50.8884 40.031 50.9375 40.2142 50.9375 40.4007V57.2243C50.9375 57.4108 50.8884 57.594 50.7951 57.7555C50.7019 57.9171 50.5678 58.0512 50.4062 58.1444L35.5312 66.7326ZM35 22.25C34.6848 22.25 34.3767 22.1565 34.1146 21.9814C33.8525 21.8063 33.6482 21.5574 33.5276 21.2661C33.4069 20.9749 33.3754 20.6545 33.4369 20.3453C33.4984 20.0362 33.6502 19.7522 33.873 19.5293C34.0959 19.3064 34.3799 19.1546 34.6891 19.0931C34.9982 19.0316 35.3187 19.0632 35.6099 19.1838C35.9011 19.3044 36.15 19.5087 36.3252 19.7708C36.5003 20.0329 36.5938 20.341 36.5938 20.6562C36.5938 21.0789 36.4258 21.4843 36.127 21.7832C35.8281 22.0821 35.4227 22.25 35 22.25ZM66.875 58.375C66.875 58.9386 66.6511 59.4791 66.2526 59.8776C65.8541 60.2761 65.3136 60.5 64.75 60.5H50.5762L51.4688 59.9847C51.9536 59.7047 52.3562 59.302 52.636 58.8171C52.9157 58.3321 53.0629 57.7821 53.0625 57.2222V40.4007C53.0629 39.8408 52.9157 39.2907 52.636 38.8058C52.3562 38.3208 51.9536 37.9181 51.4688 37.6382L44.5625 33.6527V30.5173L48.0071 29.6556C48.2371 29.5983 48.4413 29.4657 48.5872 29.2789C48.7331 29.0922 48.8124 28.862 48.8125 28.625V24.2018C49.6685 23.9466 50.4041 23.3918 50.8847 22.6388C51.3652 21.8859 51.5588 20.9851 51.4298 20.1012C51.3008 19.2173 50.858 18.4094 50.1823 17.8251C49.5067 17.2409 48.6433 16.9193 47.75 16.9193C46.8567 16.9193 45.9933 17.2409 45.3177 17.8251C44.642 18.4094 44.1992 19.2173 44.0702 20.1012C43.9412 20.9851 44.1348 21.8859 44.6153 22.6388C45.0959 23.3918 45.8315 23.9466 46.6875 24.2018V27.7952L43.2429 28.6569C43.0129 28.7142 42.8087 28.8468 42.6628 29.0336C42.5169 29.2203 42.4376 29.4505 42.4375 29.6875V32.4256L36.5938 29.05C36.4236 28.963 36.2457 28.8919 36.0625 28.8375V24.2018C36.9185 23.9466 37.6541 23.3918 38.1347 22.6388C38.6152 21.8859 38.8088 20.9851 38.6798 20.1012C38.5508 19.2173 38.108 18.4094 37.4323 17.8251C36.7567 17.2409 35.8933 16.9193 35 16.9193C34.1067 16.9193 33.2433 17.2409 32.5677 17.8251C31.892 18.4094 31.4492 19.2173 31.3202 20.1012C31.1912 20.9851 31.3848 21.8859 31.8653 22.6388C32.3459 23.3918 33.0815 23.9466 33.9375 24.2018V28.8375C33.754 28.8943 33.5762 28.9679 33.4062 29.0574L27.5625 32.4256V29.6875C27.5624 29.4505 27.4831 29.2203 27.3372 29.0336C27.1913 28.8468 26.9871 28.7142 26.7571 28.6569L23.3125 27.7952V24.2018C24.1685 23.9466 24.9041 23.3918 25.3847 22.6388C25.8652 21.8859 26.0588 20.9851 25.9298 20.1012C25.8008 19.2173 25.358 18.4094 24.6823 17.8251C24.0067 17.2409 23.1433 16.9193 22.25 16.9193C21.3567 16.9193 20.4933 17.2409 19.8177 17.8251C19.142 18.4094 18.6992 19.2173 18.5702 20.1012C18.4412 20.9851 18.6348 21.8859 19.1153 22.6388C19.5959 23.3918 20.3315 23.9466 21.1875 24.2018V28.625C21.1876 28.862 21.2669 29.0922 21.4128 29.2789C21.5587 29.4657 21.7629 29.5983 21.9929 29.6556L25.4375 30.5173V33.6527L18.5312 37.6403C18.0464 37.9202 17.6438 38.3229 17.364 38.8079C17.0843 39.2928 16.9371 39.8429 16.9375 40.4028V57.2243C16.9371 57.7842 17.0843 58.3343 17.364 58.8192C17.6438 59.3042 18.0464 59.7069 18.5312 59.9868L19.4238 60.5021H5.25C4.68641 60.5021 4.14591 60.2782 3.7474 59.8797C3.34888 59.4812 3.125 58.9407 3.125 58.3771V13.75H66.875V58.375ZM47.75 22.25C47.4348 22.25 47.1267 22.1565 46.8646 21.9814C46.6025 21.8063 46.3982 21.5574 46.2776 21.2661C46.1569 20.9749 46.1254 20.6545 46.1869 20.3453C46.2484 20.0362 46.4002 19.7522 46.623 19.5293C46.8459 19.3064 47.1299 19.1546 47.4391 19.0931C47.7482 19.0316 48.0687 19.0632 48.3599 19.1838C48.6511 19.3044 48.9 19.5087 49.0752 19.7708C49.2503 20.0329 49.3438 20.341 49.3438 20.6562C49.3438 21.0789 49.1758 21.4843 48.877 21.7832C48.5781 22.0821 48.1727 22.25 47.75 22.25ZM22.25 22.25C21.9348 22.25 21.6267 22.1565 21.3646 21.9814C21.1025 21.8063 20.8982 21.5574 20.7776 21.2661C20.6569 20.9749 20.6254 20.6545 20.6869 20.3453C20.7484 20.0362 20.9002 19.7522 21.123 19.5293C21.3459 19.3064 21.6299 19.1546 21.9391 19.0931C22.2482 19.0316 22.5687 19.0632 22.8599 19.1838C23.1511 19.3044 23.4 19.5087 23.5752 19.7708C23.7503 20.0329 23.8438 20.341 23.8438 20.6562C23.8438 21.0789 23.6758 21.4843 23.377 21.7832C23.0781 22.0821 22.6727 22.25 22.25 22.25ZM66.875 11.625H3.125V5.25C3.125 4.68641 3.34888 4.14591 3.7474 3.7474C4.14591 3.34888 4.68641 3.125 5.25 3.125H64.75C65.3136 3.125 65.8541 3.34888 66.2526 3.7474C66.6511 4.14591 66.875 4.68641 66.875 5.25V11.625Z" stroke="#0369CA" stroke-width="0.2" mask="url(#path-4-outside-1_1829_192)"></path><path d="M39.8063 37.0211L39.8062 37.0211L35.5562 34.5678C35.5562 34.5678 35.5562 34.5678 35.5562 34.5678C35.3871 34.4702 35.1953 34.4187 35 34.4187C34.8047 34.4187 34.6129 34.4702 34.4438 34.5678C34.4438 34.5678 34.4438 34.5678 34.4437 34.5678L33.3813 35.1809L33.3812 35.1809C33.2121 35.2785 33.0717 35.4189 32.9741 35.5881C32.8764 35.7572 32.825 35.949 32.825 36.1443V61.5625C32.825 61.8575 32.9422 62.1405 33.1508 62.3491C33.3595 62.5578 33.6424 62.675 33.9375 62.675C34.2326 62.675 34.5155 62.5578 34.7242 62.3491C34.9328 62.1405 35.05 61.8575 35.05 61.5625V50.4562H38.7187C39.0138 50.4562 39.2968 50.339 39.5054 50.1304C39.714 49.9217 39.8312 49.6388 39.8312 49.3437C39.8312 49.0487 39.714 48.7657 39.5054 48.5571C39.2968 48.3484 39.0138 48.2312 38.7187 48.2312H35.05V36.845L38.6937 38.949L38.6938 38.949C38.8204 39.022 38.9601 39.0694 39.105 39.0884C39.2499 39.1074 39.3971 39.0976 39.5382 39.0597C39.6793 39.0218 39.8116 38.9564 39.9274 38.8674C40.0433 38.7784 40.1405 38.6674 40.2134 38.5408C40.3609 38.2853 40.4009 37.9816 40.3246 37.6966C40.2482 37.4116 40.0618 37.1686 39.8063 37.0211Z" fill="#0369CA" stroke="#0369CA" stroke-width="0.1"></path><path d="M45.6611 57.3133V42.9796L47.1795 43.8563C47.1796 43.8563 47.1797 43.8564 47.1798 43.8564C47.3063 43.9305 47.4462 43.9789 47.5915 43.9988C47.7368 44.0187 47.8847 44.0096 48.0265 43.9721C48.1684 43.9346 48.3014 43.8694 48.418 43.7803C48.5345 43.6912 48.6323 43.5799 48.7056 43.4528C48.779 43.3257 48.8265 43.1854 48.8454 43.0399C48.8643 42.8944 48.8543 42.7466 48.8158 42.6051C48.7774 42.4635 48.7113 42.3309 48.6214 42.2149C48.5316 42.099 48.4197 42.002 48.2922 41.9295C48.2922 41.9295 48.2921 41.9295 48.292 41.9294L42.9798 38.8622L42.9798 38.8622L42.9795 38.862C42.7242 38.7168 42.4217 38.6785 42.1382 38.7555C41.8547 38.8324 41.6131 39.0184 41.4662 39.2728C41.3194 39.5273 41.2791 39.8294 41.3541 40.1135C41.4292 40.3975 41.6136 40.6403 41.867 40.7888L41.8673 40.789L43.4361 41.6957V57.3133C43.4361 57.6083 43.5533 57.8913 43.7619 58.0999C43.9706 58.3086 44.2535 58.4258 44.5486 58.4258C44.8436 58.4258 45.1266 58.3086 45.3352 58.0999C45.5439 57.8913 45.6611 57.6083 45.6611 57.3133Z" fill="#0369CA" stroke="#0369CA" stroke-width="0.1"></path><path d="M28.0359 39.7822V53.1301L23.8059 42.557L23.8058 42.5569C23.7096 42.3172 23.533 42.1185 23.3063 41.9948C23.0795 41.8711 22.8168 41.8301 22.5632 41.8789C22.3096 41.9277 22.0809 42.0633 21.9162 42.2623C21.7516 42.4613 21.6613 42.7114 21.6609 42.9696V42.9697V56.7822C21.6609 57.0773 21.7781 57.3602 21.9868 57.5689C22.1954 57.7775 22.4784 57.8947 22.7734 57.8947C23.0685 57.8947 23.3515 57.7775 23.5601 57.5689C23.7687 57.3602 23.8859 57.0773 23.8859 56.7822V48.7458L28.116 59.32L28.116 59.32C28.2123 59.5597 28.3889 59.7584 28.6156 59.8821C28.8423 60.0058 29.105 60.0468 29.3587 59.998C29.6123 59.9492 29.841 59.8137 30.0056 59.6147C30.1703 59.4157 30.2605 59.1656 30.2609 58.9073V58.9072V39.7822C30.2609 39.4872 30.1437 39.2042 29.9351 38.9956C29.7265 38.7869 29.4435 38.6697 29.1484 38.6697C28.8534 38.6697 28.5704 38.7869 28.3618 38.9956C28.1531 39.2042 28.0359 39.4872 28.0359 39.7822Z" fill="#0369CA" stroke="#0369CA" stroke-width="0.1"></path></svg>