<svg xmlns="http://www.w3.org/2000/svg" width="67" height="68" viewBox="0 0 67 68" fill="none"><path d="M2.50408 11.4278H1.50408V12.4278V54.969C1.50408 57.0068 3.16037 58.6632 5.19824 58.6632H32.7346C32.8738 58.6632 32.9866 58.776 32.9866 58.9152C32.9866 59.0545 32.8738 59.1673 32.7346 59.1673H5.19824C2.88421 59.1673 1 57.2831 1 54.969V5.19824C1 2.88421 2.88421 1 5.19824 1H61.8018C64.1158 1 66 2.88421 66 5.19824V48.5918C66 48.7311 65.8872 48.8438 65.748 48.8438C65.6087 48.8438 65.4959 48.7311 65.4959 48.5918V12.4278V11.4278H64.4959H2.50408ZM1.50408 9.92372V10.9237L2.50408 10.9237L64.4959 10.9237H65.4959V9.9237V5.19824C65.4959 3.16045 63.8395 1.50408 61.8018 1.50408H5.19824C3.16035 1.50408 1.50408 3.1605 1.50408 5.19824V9.92372Z" fill="#0458B9" stroke="#0458B9" stroke-width="2"></path><path d="M7.41192 5.9554L7.41812 5.96504L7.42456 5.97457C7.42726 5.97856 7.43597 5.99285 7.4468 6.01852C7.44761 6.02042 7.44981 6.02601 7.45272 6.03562C7.45533 6.0442 7.45809 6.05465 7.46077 6.0668C7.46389 6.08306 7.46501 6.09686 7.46501 6.109C7.46501 6.12235 7.46362 6.13584 7.46092 6.14878L7.46081 6.14935C7.45614 6.17183 7.45071 6.18925 7.44522 6.20314C7.43514 6.22633 7.42697 6.23984 7.42389 6.24441L7.42385 6.24438L7.41832 6.25276C7.41097 6.26389 7.40047 6.27676 7.3908 6.28642L8.09763 6.99367L7.3911 6.28613C7.37927 6.29794 7.36841 6.30652 7.35828 6.31318L7.35828 6.31318L7.35639 6.31442C7.33553 6.3282 7.32526 6.33312 7.32379 6.33382L7.31354 6.33784L7.30243 6.34252C7.28247 6.35092 7.27265 6.353 7.27265 6.35301L7.26216 6.35497L7.25156 6.35719C7.24086 6.35944 7.2262 6.36104 7.21296 6.36104C7.1973 6.36104 7.18268 6.3593 7.17265 6.35719L7.16216 6.35499L7.15169 6.35303C7.15169 6.35302 7.14183 6.35097 7.12215 6.34267L7.11077 6.33788L7.10032 6.33377C7.09879 6.33305 7.08839 6.32804 7.06727 6.31412L7.06641 6.31355C7.05556 6.30641 7.04469 6.2977 7.03362 6.28663L7.033 6.28601C7.02393 6.27696 7.01354 6.26432 7.00591 6.25276L7.00595 6.25273L7.00034 6.24441C6.99726 6.23984 6.98908 6.2263 6.97897 6.20304C6.97358 6.18941 6.96809 6.17194 6.96326 6.14897C6.96317 6.14848 6.96094 6.1366 6.96094 6.109C6.96094 6.08523 6.96257 6.07205 6.96357 6.06613C6.96621 6.0544 6.9689 6.04428 6.97144 6.03593C6.97441 6.02615 6.97665 6.02046 6.97748 6.0185C6.98831 5.99283 6.99702 5.97854 6.99972 5.97455L7.00616 5.96502L7.01238 5.95536C7.01236 5.95539 7.01236 5.95538 7.01239 5.95534C7.01284 5.9547 7.01855 5.94645 7.03314 5.93189L7.03467 5.93035C7.04316 5.92184 7.05538 5.91105 7.07395 5.89783C7.08642 5.89003 7.09859 5.88365 7.11141 5.87807C7.12376 5.87329 7.13338 5.87002 7.14051 5.86785C7.14801 5.86556 7.15159 5.86484 7.15159 5.86484L7.1599 5.86328L7.16831 5.86156C7.24148 5.84657 7.3329 5.87334 7.38864 5.92939L7.38864 5.9294L7.39073 5.93149C7.40548 5.94623 7.41134 5.95458 7.41189 5.95536C7.41194 5.95543 7.41195 5.95544 7.41192 5.9554ZM8.25302 5.41452C8.20795 5.34442 8.15447 5.281 8.09773 5.22428L8.43991 5.86348C8.42328 5.78507 8.39989 5.70502 8.36819 5.62987C8.33649 5.55471 8.29809 5.48119 8.25302 5.41452Z" fill="#0458B9" stroke="#0458B9" stroke-width="2"></path><path d="M11.7194 5.96948L11.7194 5.96946C11.7077 5.95186 11.7004 5.94445 11.6982 5.94229L11.6872 5.93164L11.6766 5.92066C11.6752 5.91929 11.668 5.91204 11.6493 5.89952L11.644 5.89603L11.644 5.89602C11.6407 5.89377 11.6293 5.88672 11.6085 5.87741C11.599 5.87383 11.5904 5.87094 11.5831 5.86872C11.5784 5.86728 11.5746 5.86626 11.5718 5.86557C11.569 5.86487 11.5677 5.8646 11.5677 5.86461L11.5541 5.86202L11.5542 5.86193C11.5242 5.85577 11.4948 5.85621 11.4693 5.86151L11.4597 5.8635L11.45 5.86531C11.45 5.86531 11.45 5.86531 11.45 5.86531C11.4493 5.86546 11.4373 5.868 11.4094 5.87829C11.3962 5.88442 11.3839 5.89112 11.3723 5.89845C11.3614 5.9061 11.3537 5.91203 11.3485 5.91628C11.345 5.91914 11.343 5.92089 11.3424 5.92147L11.3326 5.93164L11.3216 5.94229C11.3192 5.9446 11.3157 5.94845 11.3109 5.95579L11.3047 5.96547L11.2983 5.975C11.2942 5.9811 11.2905 5.98723 11.2875 5.99273L11.2842 5.99923C11.2839 5.99995 11.2836 6.00052 11.2835 6.00093C11.2832 6.00146 11.2831 6.00173 11.2831 6.00172L11.2797 6.01037L11.276 6.01895C11.2752 6.0209 11.273 6.02652 11.2701 6.03614C11.2675 6.04471 11.2647 6.05514 11.2621 6.06723C11.2589 6.08348 11.2578 6.09729 11.2578 6.10943C11.2578 6.12278 11.2592 6.13627 11.2619 6.14921L11.262 6.14978C11.2671 6.17429 11.273 6.19261 11.2789 6.20681L11.2828 6.21624L11.2828 6.21626C11.2829 6.21671 11.2844 6.22017 11.2875 6.22605C11.2907 6.23186 11.2946 6.23834 11.2989 6.24484L11.3045 6.25316L11.3045 6.25318C11.3108 6.26272 11.3159 6.26946 11.3193 6.27371C11.3209 6.27573 11.322 6.27694 11.3225 6.27744L11.332 6.28673L11.3416 6.29655C11.342 6.29696 11.3433 6.2981 11.3455 6.29991C11.3496 6.30322 11.3559 6.30795 11.3646 6.31367L11.3664 6.31485L11.3664 6.31485C11.3916 6.33146 11.4034 6.33663 11.4034 6.33665L11.4117 6.33997L11.4117 6.34001C11.4384 6.351 11.4503 6.35346 11.4503 6.35347L11.4608 6.35542L11.4712 6.35762C11.4826 6.36 11.4957 6.36146 11.5099 6.36146C11.5235 6.36146 11.5379 6.36013 11.5541 6.35681L11.5677 6.35402L11.7194 5.96948ZM11.7194 5.96948L11.7231 5.975C11.7258 5.97899 11.7345 5.99329 11.7453 6.01895C11.7462 6.02085 11.7484 6.02651 11.7514 6.03633C11.7533 6.04269 11.7553 6.05009 11.7574 6.05846L11.7194 5.96948Z" fill="#0458B9" stroke="#0458B9" stroke-width="2"></path><path d="M16.0491 6.0019L16.0525 6.01046L16.0561 6.01895C16.0633 6.03591 16.0666 6.04915 16.0674 6.0529L16.0673 6.05291L16.0694 6.06302C16.0731 6.08132 16.0744 6.09648 16.0744 6.10943C16.0744 6.12278 16.073 6.1366 16.0701 6.15019L16.0683 6.15902L16.0666 6.16789C16.0666 6.16788 16.0643 6.18017 16.0532 6.20699L16.0531 6.20697L16.0493 6.21643C16.0493 6.21643 16.0492 6.21667 16.049 6.21715L16.0481 6.21915L16.0447 6.22601C16.0415 6.23179 16.0376 6.23829 16.0332 6.24484L16.0332 6.24481L16.0277 6.25309C16.0214 6.26268 16.0163 6.26946 16.0128 6.27373C16.0112 6.27574 16.0101 6.27696 16.0097 6.27746L16.0001 6.28673L15.9906 6.29658C15.9901 6.29698 15.9888 6.29816 15.9865 6.30003C15.9824 6.30339 15.976 6.30816 15.9673 6.31391L15.9662 6.3146C15.9426 6.33019 15.9304 6.33589 15.9286 6.33672L15.9286 6.3367L15.9206 6.34001C15.894 6.35095 15.882 6.35343 15.882 6.35344L15.8715 6.3554L15.8609 6.35762C15.8496 6.36 15.8365 6.36146 15.8223 6.36146C15.8088 6.36146 15.7944 6.36015 15.7779 6.35677L15.7779 6.35669L15.7649 6.35419C15.7649 6.35419 15.7646 6.35414 15.7641 6.35401L15.7617 6.35346L15.7536 6.35117C15.7468 6.34906 15.739 6.34626 15.7311 6.34295L15.7235 6.33974L15.7159 6.33666C15.7124 6.33528 15.7014 6.33006 15.6881 6.32107L15.6882 6.321L15.6775 6.31398C15.6687 6.30818 15.6622 6.30335 15.658 6.29991C15.6549 6.29743 15.6535 6.29609 15.6535 6.29604L15.6444 6.28673L15.6351 6.2777C15.6346 6.27711 15.6326 6.27493 15.6292 6.27078C15.6243 6.26477 15.6174 6.25579 15.6086 6.24309C15.6053 6.238 15.5991 6.22728 15.5915 6.21058C15.5809 6.18192 15.5783 6.16956 15.5783 6.16909L15.5782 6.16908L15.5764 6.15912L15.5743 6.14921C15.5718 6.13693 15.5703 6.12346 15.5703 6.10943C15.5703 6.09582 15.5716 6.08099 15.5751 6.06398L15.5752 6.064L15.5775 6.0517C15.5775 6.0517 15.5775 6.0517 15.5775 6.05169C15.5776 6.05163 15.5778 6.05028 15.5785 6.04764C15.5792 6.04488 15.5802 6.0411 15.5816 6.03633C15.5839 6.02887 15.5869 6.02009 15.5906 6.01029C15.5996 5.99003 15.6067 5.97851 15.6091 5.975L15.6091 5.97501L15.6124 5.97001C15.6244 5.95207 15.6319 5.94428 15.6345 5.94179L15.6449 5.93164L15.6544 5.92187C15.655 5.92131 15.6571 5.91943 15.6609 5.91628C15.6669 5.9114 15.676 5.90441 15.6892 5.89528C15.6935 5.89254 15.7047 5.88594 15.7237 5.87742C15.7332 5.87384 15.7418 5.87095 15.7491 5.86872C15.7539 5.86727 15.7577 5.86623 15.7605 5.86554C15.7632 5.86486 15.7646 5.86459 15.7647 5.86457L15.7647 5.86457L15.7647 5.86466L15.778 5.86193C15.808 5.85577 15.8373 5.85621 15.8629 5.86151L15.8725 5.8635L15.8822 5.86531C15.8821 5.86531 15.8821 5.86531 15.8822 5.86531C15.8828 5.86544 15.8948 5.86795 15.9226 5.87822C15.9358 5.88434 15.9482 5.89107 15.96 5.89851C15.9707 5.90605 15.9784 5.91193 15.9836 5.91617C15.9872 5.9191 15.9891 5.92088 15.9898 5.92146L15.9996 5.93164L16.0106 5.94229C16.013 5.9446 16.0165 5.94845 16.0212 5.95579L16.0274 5.96547L16.0339 5.975C16.038 5.98105 16.0417 5.98717 16.0446 5.9927L16.048 5.99927L16.0488 6.0012L16.049 6.00172L16.0491 6.00186L16.0491 6.0019Z" fill="#0458B9" stroke="#0458B9" stroke-width="2"></path><path d="M11.5449 19.2454L11.5432 19.236C11.5432 19.236 11.5423 19.2316 11.5395 19.2222C11.5373 19.2152 11.5343 19.206 11.53 19.1943C11.5239 19.1812 11.5172 19.1689 11.5098 19.1571C11.4972 19.1394 11.4861 19.1265 11.476 19.1165L12.1836 18.4099M11.5449 19.2454L11.5509 19.2948C11.5509 19.36 11.5228 19.4277 11.4765 19.474L11.4764 19.4741C11.4664 19.4842 11.4539 19.4943 11.4438 19.5009L11.4438 19.5008L11.4336 19.5077C11.4296 19.5104 11.4166 19.5183 11.3931 19.5286C11.3807 19.5335 11.3662 19.5381 11.3489 19.5421C11.3282 19.5455 11.3114 19.5466 11.2989 19.5466C11.2872 19.5466 11.2705 19.5456 11.2476 19.5421C11.2262 19.5369 11.2129 19.5321 11.2077 19.5299L10.8197 20.4516M11.5449 19.2454L11.5469 19.2548M11.5449 19.2454L11.5469 19.2548M12.1836 18.4099L11.4765 19.117C11.4664 19.1069 11.4538 19.0967 11.4437 19.0901L11.4335 19.0833L11.4336 19.0833C11.4296 19.0806 11.4166 19.0727 11.3931 19.0624C11.3797 19.0571 11.3639 19.0522 11.3447 19.0479C11.3161 19.0428 11.2843 19.0424 11.2522 19.0478C11.229 19.0532 11.2142 19.0584 11.2083 19.0608C11.1821 19.072 11.1682 19.0806 11.1647 19.083L11.154 19.0902L11.154 19.0901C11.1439 19.0967 11.1314 19.1068 11.1214 19.1169L10.4142 18.4099L11.1218 19.1165C11.1118 19.1265 11.1005 19.1394 11.0877 19.1574C11.0804 19.1691 11.0738 19.1812 11.068 19.1939C11.0575 19.2221 11.055 19.2342 11.0548 19.2349C11.0548 19.235 11.0548 19.235 11.0548 19.235L11.0529 19.2449L11.0509 19.2548C11.0485 19.2664 11.0469 19.2815 11.0469 19.2946C11.0469 19.3102 11.0486 19.3253 11.0509 19.3362L11.0529 19.3461L11.0548 19.3559C11.0548 19.3561 11.0556 19.3597 11.0578 19.3671C11.06 19.3744 11.0633 19.3841 11.0682 19.3965C11.0735 19.4088 11.0798 19.421 11.0878 19.4338C11.101 19.4523 11.112 19.4648 11.1208 19.4735L11.1213 19.474C11.1314 19.4841 11.144 19.4943 11.1541 19.5009L11.1647 19.508L11.1647 19.508C11.1682 19.5104 11.1826 19.5193 11.2096 19.5307L10.8197 20.4516M12.1836 18.4099C12.2421 18.4684 12.2938 18.5318 12.3405 18.6003L11.9934 18.2547C12.0618 18.2996 12.1269 18.3531 12.1836 18.4099ZM10.8197 20.4516C10.8949 20.4832 10.975 20.5067 11.0534 20.5233L10.2572 19.9909C10.304 20.0592 10.3557 20.1228 10.4142 20.1811C10.4709 20.2379 10.536 20.2913 10.6044 20.3363C10.6712 20.3815 10.7447 20.4198 10.8197 20.4516ZM11.5469 19.2548C11.5493 19.2664 11.5509 19.2814 11.5509 19.2946L11.5469 19.2548Z" fill="#0458B9" stroke="#0458B9" stroke-width="2"></path><path d="M34.557 19.548H18.6036C18.4644 19.548 18.3516 19.4352 18.3516 19.296C18.3516 19.1568 18.4644 19.0439 18.6036 19.0439H34.557C34.6963 19.0439 34.8091 19.1567 34.8091 19.296C34.8091 19.4353 34.6963 19.548 34.557 19.548Z" fill="#0458B9" stroke="#0458B9" stroke-width="2"></path><path d="M11.4765 43.6474L11.4768 43.6476C11.5228 43.6936 11.5509 43.7615 11.5509 43.8266C11.5509 43.841 11.5494 43.8543 11.547 43.866L11.545 43.8757L11.5431 43.8855C11.5425 43.889 11.5396 43.9008 11.5327 43.9171L11.5291 43.9257L11.5259 43.9335C11.5256 43.9342 11.5246 43.9365 11.5224 43.9404C11.5188 43.947 11.5129 43.9572 11.5037 43.9712C11.4977 43.9803 11.4929 43.9867 11.4896 43.9907C11.4879 43.9928 11.4868 43.994 11.4864 43.9945L11.4762 44.0044L11.4665 44.0144C11.466 44.0149 11.4649 44.0158 11.4631 44.0173C11.4589 44.0207 11.4522 44.0258 11.4424 44.0322L11.4424 44.0322L11.4349 44.0372C11.4278 44.042 11.4211 44.046 11.4154 44.049C11.4097 44.0521 11.4067 44.0533 11.4069 44.0532L11.3976 44.057L11.3883 44.0609C11.3871 44.0614 11.3819 44.0635 11.3721 44.0665C11.3637 44.069 11.3532 44.0718 11.3407 44.0746C11.325 44.0776 11.3112 44.0787 11.2989 44.0787C11.234 44.0787 11.1664 44.0497 11.124 44.007L11.1174 44.0003L11.1112 43.9943C11.1107 43.9938 11.1087 43.9917 11.1054 43.9877C11.1012 43.9825 11.0955 43.9751 11.0882 43.9647C11.08 43.9516 11.073 43.9385 11.0669 43.9253C11.0634 43.916 11.0607 43.9078 11.0587 43.9011C11.0559 43.8919 11.055 43.8871 11.0549 43.8867L11.0529 43.8763L11.0508 43.866C11.0484 43.8543 11.0469 43.841 11.0469 43.8266C11.0469 43.8133 11.0482 43.7984 11.0517 43.7814L11.0533 43.7732L11.0549 43.765C11.0549 43.765 11.0549 43.765 11.0549 43.765C11.0551 43.7642 11.0576 43.7527 11.0669 43.7281C11.0745 43.711 11.082 43.6972 11.0885 43.6866C11.1009 43.6692 11.1116 43.657 11.1208 43.6479L11.1214 43.6473C11.1772 43.5914 11.2697 43.5642 11.3436 43.5794L11.3436 43.5795L11.3565 43.5819C11.3565 43.5819 11.3579 43.5822 11.3607 43.5829C11.3635 43.5836 11.3673 43.5846 11.3721 43.5861C11.3794 43.5883 11.388 43.5912 11.3975 43.5948C11.4166 43.6034 11.428 43.6101 11.4326 43.613C11.4602 43.632 11.4735 43.6444 11.4765 43.6474Z" fill="#0458B9" stroke="#0458B9" stroke-width="2"></path><path d="M44.275 43.5742C44.4143 43.5742 44.5271 43.687 44.5271 43.8263C44.5271 43.9655 44.4143 44.0783 44.275 44.0783H18.6036C18.4644 44.0783 18.3516 43.9655 18.3516 43.8263C18.3516 43.687 18.4644 43.5742 18.6036 43.5742H44.275Z" fill="#0458B9" stroke="#0458B9" stroke-width="2"></path><mask id="path-9-inside-1_1979_39" fill="white"><path d="M12.1836 24.7305C12.1269 24.6722 12.0618 24.6203 11.9934 24.5753C11.9265 24.5302 11.8531 24.4901 11.778 24.4601C11.7029 24.4283 11.6227 24.405 11.5443 24.3883C11.3824 24.3549 11.2154 24.3549 11.0535 24.3883C10.9751 24.405 10.8949 24.4283 10.8198 24.4601C10.7447 24.4901 10.6712 24.5302 10.6044 24.5753C10.536 24.6203 10.4709 24.6722 10.4142 24.7305C10.1804 24.9643 10.0469 25.2865 10.0469 25.6153C10.0469 25.6971 10.0552 25.779 10.0719 25.8606C10.0869 25.9408 10.112 26.0193 10.142 26.0944C10.1737 26.1696 10.2121 26.2429 10.2572 26.3114C10.304 26.3799 10.3557 26.4433 10.4142 26.5018C10.4709 26.5585 10.536 26.6119 10.6044 26.657C10.6712 26.702 10.7447 26.7405 10.8198 26.7721C10.8949 26.8039 10.975 26.8272 11.0534 26.844C11.1353 26.859 11.217 26.8673 11.2989 26.8673C11.3806 26.8673 11.4625 26.859 11.5443 26.844C11.6227 26.8272 11.7029 26.8039 11.778 26.7721C11.8531 26.7405 11.9265 26.702 11.9934 26.657C12.0618 26.6119 12.1269 26.5585 12.1836 26.5018C12.242 26.4433 12.2938 26.3799 12.3405 26.3114C12.3856 26.2429 12.424 26.1696 12.4558 26.0944C12.4858 26.0193 12.5108 25.9408 12.5259 25.8606C12.5426 25.7789 12.5509 25.6971 12.5509 25.6153C12.5509 25.2865 12.4174 24.9643 12.1836 24.7305Z"></path></mask><path d="M12.1836 24.7305C12.1269 24.6722 12.0618 24.6203 11.9934 24.5753C11.9265 24.5302 11.8531 24.4901 11.778 24.4601C11.7029 24.4283 11.6227 24.405 11.5443 24.3883C11.3824 24.3549 11.2154 24.3549 11.0535 24.3883C10.9751 24.405 10.8949 24.4283 10.8198 24.4601C10.7447 24.4901 10.6712 24.5302 10.6044 24.5753C10.536 24.6203 10.4709 24.6722 10.4142 24.7305C10.1804 24.9643 10.0469 25.2865 10.0469 25.6153C10.0469 25.6971 10.0552 25.779 10.0719 25.8606C10.0869 25.9408 10.112 26.0193 10.142 26.0944C10.1737 26.1696 10.2121 26.2429 10.2572 26.3114C10.304 26.3799 10.3557 26.4433 10.4142 26.5018C10.4709 26.5585 10.536 26.6119 10.6044 26.657C10.6712 26.702 10.7447 26.7405 10.8198 26.7721C10.8949 26.8039 10.975 26.8272 11.0534 26.844C11.1353 26.859 11.217 26.8673 11.2989 26.8673C11.3806 26.8673 11.4625 26.859 11.5443 26.844C11.6227 26.8272 11.7029 26.8039 11.778 26.7721C11.8531 26.7405 11.9265 26.702 11.9934 26.657C12.0618 26.6119 12.1269 26.5585 12.1836 26.5018C12.242 26.4433 12.2938 26.3799 12.3405 26.3114C12.3856 26.2429 12.424 26.1696 12.4558 26.0944C12.4858 26.0193 12.5108 25.9408 12.5259 25.8606C12.5426 25.7789 12.5509 25.6971 12.5509 25.6153C12.5509 25.2865 12.4174 24.9643 12.1836 24.7305Z" fill="#0458B9"></path><path d="M12.1836 24.7305L10.7494 26.1245L10.7594 26.1347L10.7694 26.1448L12.1836 24.7305ZM11.9934 24.5753L10.8738 26.2326L10.8839 26.2394L10.8941 26.2461L11.9934 24.5753ZM11.778 24.4601L10.999 26.3021L11.0174 26.3099L11.0359 26.3173L11.778 24.4601ZM11.5443 24.3883L11.9592 22.4318L11.9485 22.4296L11.5443 24.3883ZM11.0535 24.3883L10.6493 22.4296L10.6386 22.4319L11.0535 24.3883ZM10.8198 24.4601L11.5619 26.3173L11.5804 26.3099L11.5988 26.3021L10.8198 24.4601ZM10.6044 24.5753L11.7035 26.2462L11.7143 26.2392L11.725 26.2319L10.6044 24.5753ZM10.4142 24.7305L11.8284 26.1448L11.8384 26.1347L11.8483 26.1245L10.4142 24.7305ZM10.0719 25.8606L12.0379 25.4932L12.0347 25.4764L12.0313 25.4597L10.0719 25.8606ZM10.142 26.0944L8.2845 26.8358L8.29169 26.8538L8.29923 26.8717L10.142 26.0944ZM10.2572 26.3114L8.58658 27.411L8.5961 27.4255L8.60587 27.4398L10.2572 26.3114ZM10.4142 26.5018L8.99893 27.915L8.99994 27.916L10.4142 26.5018ZM10.6044 26.657L11.7221 24.9985L11.7144 24.9933L11.7066 24.9881L10.6044 26.657ZM10.8198 26.7721L11.5988 24.9301L11.5964 24.9291L10.8198 26.7721ZM11.0534 26.844L10.6346 28.7997L10.6637 28.8059L10.6931 28.8113L11.0534 26.844ZM11.5443 26.844L11.9047 28.8113L11.934 28.8059L11.9632 28.7997L11.5443 26.844ZM11.778 26.7721L11.0014 24.9291L10.9986 24.9302L11.778 26.7721ZM11.9934 26.657L10.8914 24.988L10.8838 24.993L10.8763 24.998L11.9934 26.657ZM12.1836 26.5018L13.598 27.9158L13.5988 27.915L12.1836 26.5018ZM12.3405 26.3114L13.9928 27.4383L14.0021 27.4247L14.0111 27.411L12.3405 26.3114ZM12.4558 26.0944L14.2978 26.8734L14.3057 26.8547L14.3133 26.8358L12.4558 26.0944ZM12.5259 25.8606L10.5664 25.4598L10.5632 25.4755L10.5603 25.4912L12.5259 25.8606ZM12.5509 25.6153L10.5509 25.6151V25.6153H12.5509ZM13.6178 23.3366C13.4428 23.1565 13.2602 23.0147 13.0927 22.9046L10.8941 26.2461C10.8634 26.2259 10.811 26.1878 10.7494 26.1245L13.6178 23.3366ZM13.113 22.9181C12.9424 22.8029 12.7433 22.692 12.5202 22.6029L11.0359 26.3173C10.9629 26.2881 10.9106 26.2575 10.8738 26.2326L13.113 22.9181ZM12.5571 22.618C12.3401 22.5263 12.1336 22.4688 11.9592 22.4319L11.1295 26.3448C11.1119 26.3411 11.0656 26.3303 10.999 26.3021L12.5571 22.618ZM11.9485 22.4296C11.5199 22.3412 11.0779 22.3412 10.6493 22.4296L11.4576 26.3471C11.353 26.3687 11.2448 26.3687 11.1401 26.3471L11.9485 22.4296ZM10.6386 22.4319C10.4642 22.4688 10.2577 22.5263 10.0407 22.618L11.5988 26.3021C11.5322 26.3303 11.4859 26.3411 11.4683 26.3448L10.6386 22.4319ZM10.0776 22.6029C9.85512 22.6918 9.65556 22.8026 9.48386 22.9187L11.725 26.2319C11.6868 26.2578 11.6343 26.2884 11.5619 26.3173L10.0776 22.6029ZM9.5053 22.9044C9.33752 23.0148 9.15488 23.1566 8.98 23.3366L11.8483 26.1245C11.7869 26.1877 11.7345 26.2259 11.7035 26.2462L9.5053 22.9044ZM8.99996 23.3163C8.39242 23.9239 8.04688 24.7542 8.04688 25.6153H12.0469C12.0469 25.8187 11.9684 26.0048 11.8284 26.1448L8.99996 23.3163ZM8.04688 25.6153C8.04688 25.8334 8.06913 26.0496 8.1125 26.2616L12.0313 25.4597C12.0413 25.5083 12.0469 25.5608 12.0469 25.6153H8.04688ZM8.10594 26.228C8.15112 26.4698 8.22086 26.6764 8.2845 26.8358L11.9995 25.353C12.0031 25.3621 12.0227 25.4119 12.0379 25.4932L8.10594 26.228ZM8.29923 26.8717C8.37398 27.0489 8.46846 27.2315 8.58658 27.411L11.9278 25.2118C11.9557 25.2543 11.9734 25.2902 11.9848 25.3171L8.29923 26.8717ZM8.60587 27.4398C8.71651 27.6017 8.8461 27.762 8.99893 27.915L11.8294 25.0886C11.8653 25.1246 11.8914 25.1581 11.9085 25.183L8.60587 27.4398ZM8.99994 27.916C9.15147 28.0675 9.32109 28.2063 9.50225 28.3259L11.7066 24.9881C11.751 25.0174 11.7903 25.0495 11.8284 25.0876L8.99994 27.916ZM9.48669 28.3155C9.6764 28.4434 9.8672 28.541 10.0431 28.6152L11.5964 24.9291C11.6222 24.9399 11.6659 24.9606 11.7221 24.9985L9.48669 28.3155ZM10.0407 28.6141C10.2576 28.7059 10.4632 28.7629 10.6346 28.7997L11.4723 24.8884C11.4869 24.8915 11.5323 24.9019 11.5988 24.9301L10.0407 28.6141ZM10.6931 28.8113C10.8782 28.8452 11.0813 28.8673 11.2989 28.8673V24.8673C11.3528 24.8673 11.3924 24.8728 11.4138 24.8767L10.6931 28.8113ZM11.2989 28.8673C11.5163 28.8673 11.7195 28.8452 11.9047 28.8113L11.1839 24.8767C11.2054 24.8728 11.2449 24.8673 11.2989 24.8673V28.8673ZM11.9632 28.7997C12.1343 28.763 12.3401 28.7059 12.5574 28.614L10.9986 24.9302C11.0656 24.9019 11.1112 24.8914 11.1255 24.8884L11.9632 28.7997ZM12.5547 28.6152C12.731 28.5408 12.9214 28.4433 13.1104 28.316L10.8763 24.998C10.9317 24.9608 10.9751 24.9401 11.0014 24.9291L12.5547 28.6152ZM13.0953 28.326C13.2766 28.2064 13.4463 28.0675 13.598 27.9158L10.7692 25.0878C10.8074 25.0496 10.8469 25.0173 10.8914 24.988L13.0953 28.326ZM13.5988 27.915C13.7516 27.762 13.8816 27.6013 13.9928 27.4383L10.6882 25.1845C10.706 25.1584 10.7325 25.1246 10.7684 25.0886L13.5988 27.915ZM14.0111 27.411C14.1292 27.2315 14.2234 27.0494 14.2978 26.8734L10.6137 25.3154C10.6246 25.2897 10.6419 25.2543 10.6699 25.2118L14.0111 27.411ZM14.3133 26.8358C14.3775 26.6749 14.4465 26.4694 14.4915 26.23L10.5603 25.4912C10.5751 25.4123 10.594 25.3636 10.5983 25.353L14.3133 26.8358ZM14.4853 26.2615C14.5286 26.0496 14.5509 25.8335 14.5509 25.6153H10.5509C10.5509 25.5607 10.5565 25.5083 10.5664 25.4598L14.4853 26.2615ZM14.5509 25.6155C14.551 24.7542 14.2054 23.9239 13.5978 23.3163L10.7694 26.1448C10.6294 26.0048 10.5509 25.8187 10.5509 25.6151L14.5509 25.6155Z" fill="#0458B9" mask="url(#path-9-inside-1_1979_39)"></path><path d="M44.275 25.8674H18.6036C18.4644 25.8674 18.3516 25.7545 18.3516 25.6153C18.3516 25.4761 18.4644 25.3633 18.6036 25.3633H44.275C44.4143 25.3633 44.5271 25.476 44.5271 25.6153C44.5271 25.7546 44.4143 25.8674 44.275 25.8674Z" fill="#0458B9" stroke="#0458B9" stroke-width="2"></path><path d="M12.3405 50.592L11.5144 50.0285C11.5048 50.0427 11.4973 50.0524 11.4922 50.0586C11.4884 50.0633 11.4865 50.0653 11.4865 50.0653L11.4804 50.0712L11.4738 50.0778C11.4314 50.1206 11.3638 50.1495 11.2989 50.1495C11.2339 50.1495 11.1664 50.1206 11.124 50.0778L11.1174 50.0712L11.1112 50.0652C11.1107 50.0646 11.1087 50.0625 11.1054 50.0585C11.1007 50.0527 11.0939 50.0439 11.0853 50.0314C11.0818 50.0259 11.0751 50.0145 11.0671 49.9966C11.0635 49.987 11.0606 49.9783 11.0583 49.9708C11.0568 49.966 11.0558 49.9621 11.0551 49.9593C11.0544 49.9565 11.0541 49.9551 11.0541 49.9551L11.0542 49.955L11.0517 49.9428C11.0482 49.9256 11.0469 49.911 11.0469 49.8975C11.0469 49.8838 11.0482 49.8691 11.0516 49.8526L11.0517 49.8526L11.0542 49.8395C11.0542 49.8395 11.0544 49.8382 11.0551 49.8355C11.0558 49.8328 11.0568 49.829 11.0583 49.8243C11.0605 49.8169 11.0634 49.8082 11.0671 49.7984C11.0751 49.7805 11.0818 49.7691 11.0853 49.7636C11.0939 49.7511 11.1007 49.7423 11.1054 49.7365C11.1087 49.7325 11.1107 49.7304 11.1112 49.7298L11.1216 49.7197L11.1315 49.7095C11.1321 49.7089 11.1341 49.7072 11.1376 49.7042C11.1434 49.6995 11.1522 49.6928 11.1649 49.6839C11.1705 49.6804 11.1799 49.6753 11.1908 49.6709L11.2001 49.6672L11.2093 49.6633C11.225 49.6567 11.2377 49.6535 11.2412 49.6528L11.2484 49.6514L11.2555 49.6499C11.2842 49.644 11.3136 49.644 11.3422 49.6499L11.3493 49.6514L11.3563 49.6527C11.3601 49.6535 11.3728 49.6567 11.3885 49.6633L11.3977 49.6672L11.4069 49.6709C11.4175 49.6751 11.427 49.6802 11.4331 49.6841C11.4456 49.6929 11.4544 49.6995 11.4601 49.7042C11.4637 49.7072 11.4657 49.7089 11.4663 49.7095L11.4762 49.7197L11.4866 49.7298C11.4871 49.7303 11.489 49.7324 11.4922 49.7363C11.4969 49.7421 11.5036 49.7509 11.5123 49.7634C11.5158 49.7689 11.521 49.7784 11.5257 49.79L11.5291 49.7985L11.5327 49.807C11.5398 49.8239 11.5432 49.8372 11.5439 49.8411L11.5439 49.8412L11.5462 49.8526C11.5496 49.8691 11.5509 49.8838 11.5509 49.8975C11.5509 49.911 11.5496 49.9256 11.5461 49.9428L11.5461 49.9428L11.5439 49.9538C11.5431 49.958 11.5397 49.9714 11.5327 49.988L11.5291 49.9965L11.5257 50.005C11.5207 50.0175 11.515 50.0276 11.5114 50.0329L12.3405 50.592ZM12.3405 50.592C12.3856 50.5251 12.424 50.4518 12.4541 50.3766H10.142C10.1737 50.4518 10.2121 50.5251 10.2572 50.592C10.304 50.6604 10.3557 50.7255 10.4142 50.7822C10.6461 51.016 10.97 51.1495 11.2989 51.1495C11.6278 51.1495 11.9517 51.016 12.1836 50.7822C12.2421 50.7255 12.2938 50.6604 12.3405 50.592Z" fill="#0458B9" stroke="#0458B9" stroke-width="2"></path><path d="M18.3516 49.8975C18.3516 49.7583 18.4644 49.6455 18.6036 49.6455H31.9657C32.1049 49.6455 32.2177 49.7583 32.2177 49.8975C32.2177 50.0368 32.1049 50.1496 31.9657 50.1496H18.6036C18.4644 50.1496 18.3516 50.0368 18.3516 49.8975Z" fill="#0458B9" stroke="#0458B9" stroke-width="2"></path><path d="M11.5431 31.626L11.5449 31.6359L11.547 31.6457C11.5493 31.6567 11.5509 31.6716 11.5509 31.685C11.5509 31.7007 11.5492 31.7156 11.547 31.726L11.5449 31.7358L11.5431 31.7457C11.5431 31.7454 11.5424 31.7493 11.5398 31.7577C11.5377 31.7649 11.5344 31.7745 11.5297 31.7867C11.5243 31.7991 11.5178 31.8115 11.5095 31.8247C11.4971 31.8422 11.4863 31.8545 11.477 31.8638L11.4764 31.8644C11.4664 31.8744 11.4535 31.8849 11.4424 31.8923L11.4424 31.8922L11.4349 31.8973C11.4294 31.901 11.4155 31.9093 11.393 31.9189C11.3798 31.9242 11.3627 31.9296 11.3394 31.9345L11.3394 31.9345L11.3375 31.9349C11.3261 31.9373 11.3131 31.9387 11.2989 31.9387C11.2861 31.9387 11.2725 31.9375 11.2573 31.9346C11.2446 31.9318 11.2339 31.929 11.2253 31.9264C11.2158 31.9235 11.2106 31.9214 11.2093 31.9209L11.2081 31.9204C11.1834 31.91 11.1685 31.9011 11.1633 31.8975L11.1633 31.8975L11.1555 31.8923C11.1444 31.885 11.1313 31.8744 11.1213 31.8643L11.1208 31.8638C11.1115 31.8545 11.1006 31.8422 11.088 31.8244C11.0798 31.8112 11.0735 31.7991 11.0683 31.7871C11.0578 31.7601 11.0551 31.7475 11.0549 31.7467C11.0549 31.7467 11.0549 31.7467 11.0549 31.7467L11.0529 31.7363L11.0508 31.726C11.0486 31.7156 11.0469 31.7007 11.0469 31.685C11.0469 31.6716 11.0485 31.6567 11.0508 31.6457L11.0529 31.6354L11.0549 31.625C11.0549 31.625 11.0549 31.625 11.0549 31.625C11.0551 31.6242 11.0578 31.6116 11.0683 31.5846C11.0735 31.5726 11.0798 31.5605 11.088 31.5473C11.1006 31.5296 11.1115 31.5172 11.1208 31.5079L11.1208 31.5079L11.1224 31.5063C11.131 31.4976 11.1434 31.4873 11.1554 31.4795L11.1554 31.4795L11.1634 31.4741C11.1685 31.4707 11.1833 31.4618 11.2081 31.4514L11.2081 31.4514L11.2094 31.4508C11.2106 31.4503 11.2159 31.4482 11.2257 31.4452C11.2332 31.4429 11.2424 31.4404 11.2532 31.4379C11.292 31.4313 11.3214 31.4333 11.3394 31.4371L11.5426 30.458L11.3375 31.4367C11.3621 31.4418 11.3798 31.4475 11.393 31.4528C11.4154 31.4624 11.4293 31.4707 11.435 31.4745L11.435 31.4746L11.4423 31.4794C11.4543 31.4873 11.4668 31.4976 11.4755 31.5064L11.477 31.5079C11.4863 31.5172 11.4971 31.5295 11.5095 31.547C11.5178 31.5603 11.5243 31.5726 11.5297 31.585C11.5344 31.5972 11.5377 31.6068 11.5398 31.614C11.5423 31.6221 11.5431 31.626 11.5431 31.626Z" fill="#0458B9" stroke="#0458B9" stroke-width="2"></path><path d="M22.3145 31.4336H33.8949C34.0342 31.4336 34.1469 31.5464 34.1469 31.6856C34.1469 31.8249 34.0342 31.9377 33.8949 31.9377H22.3145C22.1753 31.9377 22.0625 31.8249 22.0625 31.6856C22.0625 31.5464 22.1753 31.4336 22.3145 31.4336Z" fill="#0458B9" stroke="#0458B9" stroke-width="2"></path><path d="M12.1836 36.8699L11.476 37.5765C11.4875 37.5881 11.4963 37.5991 11.5036 37.6101L11.5042 37.6111C11.5187 37.6331 11.5248 37.6468 11.5257 37.6489L11.5291 37.6576L11.5327 37.6662C11.5409 37.6856 11.543 37.6955 11.5431 37.696C11.5432 37.696 11.5432 37.696 11.5432 37.696L11.5446 37.7035L11.5461 37.711C11.5496 37.728 11.5509 37.7429 11.5509 37.7565C11.5509 37.7705 11.5495 37.784 11.5469 37.7962L11.545 37.8056L11.5432 37.8149L11.5432 37.8149C11.5431 37.8153 11.541 37.8254 11.5327 37.8452L11.5276 37.8571L11.5234 37.8679C11.5226 37.8695 11.5176 37.8797 11.5042 37.9001L11.5037 37.9009C11.4963 37.9121 11.4875 37.9231 11.476 37.9346L11.4759 37.9345L11.4671 37.9436C11.4667 37.944 11.4654 37.9452 11.463 37.9471C11.4589 37.9504 11.4525 37.9552 11.4438 37.961L11.4438 37.9609L11.4336 37.9678C11.4294 37.9706 11.4153 37.9792 11.3895 37.9902C11.3833 37.9928 11.3675 37.9983 11.3425 38.0039C11.3359 38.005 11.3223 38.0067 11.2989 38.0067C11.2754 38.0067 11.2619 38.0051 11.2553 38.0039C11.2294 37.9981 11.2135 37.9924 11.2077 37.99L10.8197 38.9117M12.1836 36.8699L11.4765 37.577C11.4664 37.5669 11.4538 37.5568 11.4437 37.5501L11.4335 37.5434L11.4336 37.5434C11.4294 37.5405 11.4148 37.5316 11.3881 37.5203L11.778 36.5995L11.3901 37.5212C11.3845 37.5188 11.3694 37.5134 11.3451 37.5078C11.3146 37.5026 11.2832 37.5026 11.2526 37.5078C11.2292 37.5132 11.2143 37.5184 11.2083 37.5209C11.1821 37.5321 11.1682 37.5407 11.1647 37.543L11.154 37.5503L11.154 37.5502C11.1439 37.5568 11.1314 37.5669 11.1214 37.5769L10.4142 36.8699L11.1218 37.5765C11.1119 37.5865 11.1008 37.5992 11.0882 37.6169C11.082 37.6269 11.0746 37.6405 11.067 37.6576C11.0628 37.6688 11.0598 37.6775 11.0578 37.6841C11.0556 37.6914 11.0548 37.695 11.0548 37.6952L11.0533 37.703L11.0517 37.711C11.0482 37.728 11.0469 37.7429 11.0469 37.7565C11.0469 37.7705 11.0483 37.784 11.0509 37.7962L11.0529 37.8062L11.0548 37.816C11.0548 37.816 11.0555 37.8195 11.0578 37.827C11.06 37.8342 11.0633 37.8441 11.0683 37.8568C11.0736 37.8692 11.0799 37.8812 11.0878 37.8937C11.1005 37.9117 11.1118 37.9246 11.1218 37.9346L11.1313 37.9442L11.1313 37.9442C11.132 37.9448 11.1331 37.9457 11.1347 37.9471C11.1389 37.9504 11.1453 37.9552 11.1541 37.961L11.1647 37.968L11.1647 37.9681C11.1682 37.9705 11.1826 37.9794 11.2096 37.9908L10.8197 38.9117M12.1836 36.8699C12.242 36.9285 12.2938 36.9919 12.3389 37.0603C12.384 37.1287 12.424 37.2022 12.4541 37.2773L11.5443 36.5277C11.6227 36.5444 11.7029 36.5678 11.778 36.5995C11.8531 36.6313 11.9265 36.6696 11.9934 36.7147C12.0617 36.7597 12.1269 36.8132 12.1836 36.8699ZM10.8197 38.9117C10.8949 38.9433 10.975 38.9668 11.0534 38.9834L10.142 38.2338C10.1737 38.3106 10.2121 38.3825 10.2572 38.4508C10.304 38.5193 10.3557 38.5827 10.4142 38.6412C10.4709 38.6996 10.536 38.7514 10.6044 38.7964C10.6712 38.8416 10.7447 38.8799 10.8197 38.9117Z" fill="#0458B9" stroke="#0458B9" stroke-width="2"></path><path d="M22.3145 37.5049H33.8949C34.0342 37.5049 34.1469 37.6176 34.1469 37.7569C34.1469 37.8962 34.0342 38.009 33.8949 38.009H22.3145C22.1753 38.009 22.0625 37.8962 22.0625 37.7569C22.0625 37.6177 22.1753 37.5049 22.3145 37.5049Z" fill="#0458B9" stroke="#0458B9" stroke-width="2"></path><path d="M40.0802 31.4336H44.2711C44.4103 31.4336 44.5231 31.5464 44.5231 31.6856C44.5231 31.8249 44.4103 31.9377 44.2711 31.9377H40.0802C39.9409 31.9377 39.8281 31.8249 39.8281 31.6856C39.8281 31.5464 39.9409 31.4336 40.0802 31.4336Z" fill="#0458B9" stroke="#0458B9" stroke-width="2"></path><path d="M38.4474 5.85645H57.9327C58.072 5.85645 58.1847 5.96921 58.1847 6.10848C58.1847 6.24776 58.072 6.36052 57.9327 6.36052H38.4474C38.3081 6.36052 38.1953 6.24776 38.1953 6.10848C38.1953 5.96921 38.3081 5.85645 38.4474 5.85645Z" fill="#0458B9" stroke="#0458B9" stroke-width="2"></path><path d="M45.7143 53.4536L45.7143 53.4536L40.7615 58.4061C40.714 58.4536 40.6875 58.5178 40.6875 58.5846C40.6875 58.6513 40.7139 58.7154 40.7613 58.7629C40.7613 58.763 40.7614 58.763 40.7615 58.7631L45.7139 63.7155C45.7635 63.7651 45.8265 63.7895 45.8924 63.7895C45.9584 63.7895 46.0214 63.7651 46.0709 63.7155C46.1691 63.6169 46.169 63.4575 46.0706 63.3591L42.0031 59.2917L41.2959 58.5846L42.0031 57.8775L46.0706 53.8103C46.1692 53.7117 46.169 53.5521 46.0707 53.4538L45.7143 53.4536ZM45.7143 53.4536C45.8125 53.3554 45.9721 53.3552 46.0707 53.4537L45.7143 53.4536Z" fill="#0458B9" stroke="#0458B9" stroke-width="2"></path><path d="M59.4057 52.7464L60.1126 53.4538C60.2112 53.3552 60.3711 53.3552 60.4697 53.4538L65.422 58.4062C65.4221 58.4062 65.4221 58.4062 65.4222 58.4063C65.5206 58.5049 65.5204 58.6644 65.4222 58.7627L65.4221 58.7627L60.4694 63.7156L60.4694 63.7156C60.4199 63.7651 60.3571 63.7895 60.2911 63.7895C60.2252 63.7895 60.1622 63.765 60.1126 63.7155L59.4058 64.4228L60.113 63.7158C60.0144 63.6172 60.0145 63.4577 60.1129 63.3593L60.1129 63.3593L64.1804 59.2917L64.8874 58.5845L64.1803 57.8774L60.113 53.8102C60.113 53.8102 60.113 53.8102 60.113 53.8102C60.1129 53.8102 60.1129 53.8101 60.1128 53.8101C60.0144 53.7115 60.0145 53.552 60.113 53.4534L59.4057 52.7464ZM59.4057 52.7464C58.9168 53.2355 58.9168 54.0281 59.4057 54.5172L61.1765 52.7464C60.6875 52.2577 59.8948 52.2577 59.4057 52.7464Z" fill="#0458B9" stroke="#0458B9" stroke-width="2"></path><path d="M55.0896 51.2128L55.0906 51.2131C55.2238 51.2523 55.3003 51.3922 55.261 51.5259L55.2609 51.526L50.869 66.4463L50.869 66.4465C50.8372 66.5545 50.7376 66.6274 50.6278 66.6274C50.6049 66.6274 50.5815 66.6243 50.5572 66.6171L50.5559 66.6167C50.4228 66.5775 50.3462 66.4376 50.3856 66.3039L50.3856 66.3038L54.7775 51.3836L54.7777 51.3831C54.817 51.2492 54.9566 51.1735 55.0896 51.2128Z" fill="#0458B9" stroke="#0458B9" stroke-width="2"></path></svg>