<svg xmlns="http://www.w3.org/2000/svg" width="57" height="69" viewBox="0 0 57 69" fill="none"><path d="M54.1981 40.5805V30.8206C54.1981 29.975 53.8622 29.1641 53.2644 28.5662C52.6665 27.9684 51.8556 27.6325 51.01 27.6325V20.1935C51.01 19.348 50.6741 18.537 50.0762 17.9392C49.4783 17.3413 48.6674 17.0054 47.8219 17.0054H44.6338V11.78C44.6341 11.2201 44.487 10.6699 44.2071 10.1848C43.9273 9.69977 43.5247 9.29699 43.0397 9.017L28.1618 0.427128C27.6771 0.147311 27.1273 0 26.5677 0C26.0081 0 25.4583 0.147311 24.9736 0.427128L10.0957 9.017C9.61077 9.29699 9.20812 9.69977 8.92828 10.1848C8.64845 10.6699 8.50131 11.2201 8.50167 11.78V17.0054H6.37625C4.68568 17.0071 3.06484 17.6794 1.86943 18.8748C0.674012 20.0702 0.00168804 21.6911 0 23.3816V60.5764C0.00225014 62.5487 0.786718 64.4395 2.18131 65.8341C3.57589 67.2287 5.46672 68.0131 7.43896 68.0154H51.01C51.8556 68.0154 52.6665 67.6795 53.2644 67.0816C53.8622 66.4837 54.1981 65.6728 54.1981 64.8273V55.0673C54.8176 54.8483 55.3543 54.4433 55.7347 53.9076C56.1152 53.3719 56.3208 52.7318 56.3236 52.0748V43.5731C56.3208 42.9161 56.1152 42.2759 55.7347 41.7402C55.3543 41.2046 54.8176 40.7995 54.1981 40.5805ZM47.8219 19.1308C48.1037 19.1308 48.374 19.2428 48.5733 19.4421C48.7726 19.6414 48.8846 19.9117 48.8846 20.1935V27.6325H44.6338V19.1308H47.8219ZM11.1584 10.8597L26.0364 2.26986C26.1979 2.17659 26.3812 2.12749 26.5677 2.12749C26.7543 2.12749 26.9375 2.17659 27.0991 2.26986L41.977 10.8597C42.1385 10.953 42.2727 11.0872 42.366 11.2487C42.4592 11.4102 42.5083 11.5935 42.5083 11.78V27.6325H37.1948V14.2732L38.7889 15.1935C39.0331 15.3344 39.3233 15.3725 39.5956 15.2995C39.868 15.2264 40.1001 15.0482 40.2411 14.804C40.382 14.5598 40.4201 14.2696 40.3471 13.9972C40.274 13.7249 40.0958 13.4927 39.8516 13.3518L34.538 10.2848C34.2941 10.1461 34.0052 10.1095 33.7343 10.1831C33.4635 10.2566 33.2328 10.4342 33.0924 10.6773C32.9521 10.9203 32.9136 11.209 32.9854 11.4803C33.0571 11.7516 33.2332 11.9835 33.4753 12.1254L35.0694 13.0457V27.6325H26.5677V21.7876H30.2872C30.569 21.7876 30.8393 21.6756 31.0386 21.4763C31.2379 21.277 31.3499 21.0067 31.3499 20.7249C31.3499 20.443 31.2379 20.1727 31.0386 19.9734C30.8393 19.7741 30.569 19.6621 30.2872 19.6621H26.5677V8.13708L30.2872 10.2848C30.5313 10.4257 30.8213 10.4639 31.0936 10.391C31.3658 10.318 31.5979 10.1399 31.7389 9.89586C31.8798 9.65178 31.918 9.36171 31.845 9.08948C31.7721 8.81724 31.594 8.58513 31.3499 8.4442L27.0991 5.98934C26.9375 5.89607 26.7543 5.84697 26.5677 5.84697C26.3812 5.84697 26.1979 5.89607 26.0364 5.98934L24.9736 6.60253C24.8121 6.6958 24.6779 6.82995 24.5847 6.99149C24.4914 7.15304 24.4423 7.33629 24.4423 7.52283V27.6325H21.7855V11.1605C21.7855 10.8786 21.6736 10.6083 21.4743 10.409C21.275 10.2097 21.0047 10.0978 20.7228 10.0978C20.441 10.0978 20.1707 10.2097 19.9714 10.409C19.7721 10.6083 19.6601 10.8786 19.6601 11.1605V24.7717L15.3328 13.9543C15.2408 13.7254 15.0721 13.5356 14.8555 13.4174C14.639 13.2992 14.388 13.2601 14.1458 13.3067C13.9035 13.3533 13.685 13.4828 13.5277 13.6729C13.3705 13.863 13.2842 14.1019 13.2839 14.3486V27.6325H10.6271V11.78C10.6271 11.5935 10.6762 11.4102 10.7695 11.2487C10.8627 11.0872 10.9969 10.953 11.1584 10.8597ZM18.5156 27.6325H15.4093V19.8673L18.5156 27.6325ZM6.37625 19.1308H8.50167V27.6325H6.37625C5.24886 27.6325 4.16764 27.1846 3.37046 26.3874C2.57327 25.5902 2.12542 24.509 2.12542 23.3816C2.12542 22.2542 2.57327 21.173 3.37046 20.3758C4.16764 19.5787 5.24886 19.1308 6.37625 19.1308ZM52.0727 64.8273C52.0727 65.1091 51.9608 65.3794 51.7615 65.5787C51.5622 65.778 51.2919 65.89 51.01 65.89H7.43896C6.03024 65.8883 4.6797 65.3279 3.68358 64.3318C2.68746 63.3357 2.1271 61.9851 2.12542 60.5764V58.451H8.99583L10.8024 61.1662C10.8998 61.3122 11.0318 61.4317 11.1866 61.5143C11.3415 61.5968 11.5143 61.6397 11.6898 61.6391H17.1989C17.4496 62.3482 17.9428 62.9458 18.5915 63.3263C19.2402 63.7068 20.0026 63.8458 20.7438 63.7186C21.485 63.5915 22.1574 63.2063 22.6422 62.6313C23.1269 62.0563 23.3928 61.3285 23.3928 60.5764C23.3928 59.8244 23.1269 59.0965 22.6422 58.5215C22.1574 57.9465 21.485 57.5614 20.7438 57.4342C20.0026 57.307 19.2402 57.446 18.5915 57.8265C17.9428 58.2071 17.4496 58.8047 17.1989 59.5137H12.2583L10.4517 56.7985C10.3544 56.6525 10.2224 56.533 10.0675 56.4505C9.91269 56.3679 9.73983 56.325 9.56438 56.3256H2.12542V52.0748H12.3125L14.1266 53.8888C14.3258 54.0881 14.5961 54.2001 14.8779 54.2002H24.6378C24.8885 54.9092 25.3818 55.5068 26.0305 55.8874C26.6792 56.2679 27.4415 56.4068 28.1827 56.2797C28.924 56.1525 29.5964 55.7674 30.0811 55.1924C30.5659 54.6174 30.8318 53.8895 30.8318 53.1375C30.8318 52.3854 30.5659 51.6575 30.0811 51.0825C29.5964 50.5075 28.924 50.1224 28.1827 49.9953C27.4415 49.8681 26.6792 50.007 26.0305 50.3876C25.3818 50.7681 24.8885 51.3657 24.6378 52.0748H15.3179L13.5038 50.2607C13.3046 50.0614 13.0343 49.9494 12.7525 49.9493H2.12542V45.6985H18.2616C18.5123 46.4076 19.0056 47.0052 19.6542 47.3857C20.3029 47.7662 21.0653 47.9052 21.8065 47.778C22.5477 47.6508 23.2201 47.2657 23.7049 46.6907C24.1896 46.1157 24.4555 45.3879 24.4555 44.6358C24.4555 43.8837 24.1896 43.1559 23.7049 42.5809C23.2201 42.0059 22.5477 41.6208 21.8065 41.4936C21.0653 41.3664 20.3029 41.5054 19.6542 41.8859C19.0056 42.2664 18.5123 42.864 18.2616 43.5731H2.12542V39.3223H12.7525C13.0343 39.3222 13.3046 39.2102 13.5038 39.0109L15.3179 37.1968H24.6378C24.8885 37.9059 25.3818 38.5035 26.0305 38.884C26.6792 39.2646 27.4415 39.4035 28.1827 39.2763C28.924 39.1492 29.5964 38.764 30.0811 38.189C30.5659 37.614 30.8318 36.8862 30.8318 36.1341C30.8318 35.3821 30.5659 34.6542 30.0811 34.0792C29.5964 33.5042 28.924 33.1191 28.1827 32.9919C27.4415 32.8647 26.6792 33.0037 26.0305 33.3842C25.3818 33.7648 24.8885 34.3624 24.6378 35.0714H14.8779C14.5961 35.0715 14.3258 35.1835 14.1266 35.3828L12.3125 37.1968H2.12542V28.1298C3.29252 29.1791 4.80681 29.7591 6.37625 29.7579H51.01C51.2919 29.7579 51.5622 29.8698 51.7615 30.0691C51.9608 30.2684 52.0727 30.5387 52.0727 30.8206V40.385H44.6338C42.6608 40.385 40.7687 41.1687 39.3736 42.5638C37.9785 43.9589 37.1948 45.851 37.1948 47.8239C37.1948 49.7969 37.9785 51.689 39.3736 53.0841C40.7687 54.4791 42.6608 55.2629 44.6338 55.2629H52.0727V64.8273ZM19.1288 60.5764C19.1288 60.3662 19.1911 60.1608 19.3078 59.986C19.4246 59.8113 19.5906 59.675 19.7848 59.5946C19.979 59.5142 20.1926 59.4931 20.3988 59.5341C20.6049 59.5751 20.7943 59.6763 20.9429 59.825C21.0915 59.9736 21.1927 60.1629 21.2338 60.3691C21.2748 60.5752 21.2537 60.7889 21.1733 60.9831C21.0928 61.1773 20.9566 61.3433 20.7819 61.46C20.6071 61.5768 20.4016 61.6391 20.1915 61.6391C19.9096 61.6391 19.6393 61.5272 19.44 61.3279C19.2407 61.1286 19.1288 60.8583 19.1288 60.5764ZM26.5677 53.1375C26.5677 52.9273 26.63 52.7218 26.7468 52.5471C26.8636 52.3723 27.0296 52.2361 27.2237 52.1557C27.4179 52.0752 27.6316 52.0542 27.8377 52.0952C28.0439 52.1362 28.2332 52.2374 28.3819 52.386C28.5305 52.5346 28.6317 52.724 28.6727 52.9301C28.7137 53.1363 28.6927 53.35 28.6122 53.5441C28.5318 53.7383 28.3956 53.9043 28.2208 54.0211C28.0461 54.1378 27.8406 54.2002 27.6304 54.2002C27.3486 54.2002 27.0783 54.0882 26.879 53.8889C26.6797 53.6896 26.5677 53.4193 26.5677 53.1375ZM20.1915 44.6358C20.1915 44.4256 20.2538 44.2201 20.3706 44.0454C20.4873 43.8706 20.6533 43.7344 20.8475 43.654C21.0417 43.5735 21.2554 43.5525 21.4615 43.5935C21.6676 43.6345 21.857 43.7357 22.0056 43.8843C22.1542 44.033 22.2555 44.2223 22.2965 44.4285C22.3375 44.6346 22.3164 44.8483 22.236 45.0425C22.1556 45.2367 22.0193 45.4026 21.8446 45.5194C21.6698 45.6362 21.4644 45.6985 21.2542 45.6985C20.9723 45.6985 20.702 45.5865 20.5027 45.3872C20.3034 45.1879 20.1915 44.9176 20.1915 44.6358ZM26.5677 36.1341C26.5677 35.9239 26.63 35.7185 26.7468 35.5437C26.8636 35.369 27.0296 35.2327 27.2237 35.1523C27.4179 35.0719 27.6316 35.0508 27.8377 35.0918C28.0439 35.1328 28.2332 35.2341 28.3819 35.3827C28.5305 35.5313 28.6317 35.7207 28.6727 35.9268C28.7137 36.1329 28.6927 36.3466 28.6122 36.5408C28.5318 36.735 28.3956 36.901 28.2208 37.0177C28.0461 37.1345 27.8406 37.1968 27.6304 37.1968C27.3486 37.1968 27.0783 37.0849 26.879 36.8856C26.6797 36.6863 26.5677 36.416 26.5677 36.1341ZM54.1981 52.0748C54.1981 52.3566 54.0862 52.6269 53.8869 52.8262C53.6876 53.0255 53.4173 53.1375 53.1354 53.1375H44.6338C43.2245 53.1375 41.873 52.5776 40.8765 51.5812C39.88 50.5847 39.3202 49.2332 39.3202 47.8239C39.3202 46.4147 39.88 45.0632 40.8765 44.0667C41.873 43.0702 43.2245 42.5104 44.6338 42.5104H53.1354C53.4173 42.5104 53.6876 42.6223 53.8869 42.8216C54.0862 43.0209 54.1981 43.2912 54.1981 43.5731V52.0748Z" fill="#0458B9"></path><path d="M44.6334 44.6357C44.0029 44.6357 43.3865 44.8227 42.8622 45.173C42.3379 45.5234 41.9293 46.0213 41.688 46.6038C41.4467 47.1864 41.3836 47.8274 41.5066 48.4458C41.6296 49.0643 41.9332 49.6323 42.3791 50.0782C42.825 50.5241 43.393 50.8277 44.0115 50.9507C44.6299 51.0737 45.2709 51.0106 45.8535 50.7693C46.436 50.528 46.934 50.1194 47.2843 49.5951C47.6346 49.0708 47.8216 48.4544 47.8216 47.8239C47.8216 46.9783 47.4857 46.1674 46.8878 45.5695C46.2899 44.9716 45.479 44.6357 44.6334 44.6357ZM44.6334 48.8866C44.4233 48.8866 44.2178 48.8242 44.043 48.7075C43.8683 48.5907 43.7321 48.4247 43.6516 48.2305C43.5712 48.0364 43.5501 47.8227 43.5912 47.6165C43.6322 47.4104 43.7334 47.221 43.882 47.0724C44.0306 46.9238 44.22 46.8226 44.4261 46.7816C44.6323 46.7406 44.8459 46.7616 45.0401 46.8421C45.2343 46.9225 45.4003 47.0587 45.517 47.2335C45.6338 47.4082 45.6961 47.6137 45.6961 47.8239C45.6961 48.1057 45.5842 48.376 45.3849 48.5753C45.1856 48.7746 44.9153 48.8866 44.6334 48.8866Z" fill="#0458B9"></path></svg>