<svg xmlns="http://www.w3.org/2000/svg" width="71" height="71" viewBox="0 0 71 71" fill="none"><mask id="mask0_1981_21" style="mask-type:luminance" maskUnits="userSpaceOnUse" x="0" y="0" width="71" height="71"><path d="M0 0.333321H70.6667V71H0V0.333321Z" fill="white"></path><path fill-rule="evenodd" clip-rule="evenodd" d="M70.6667 0.333321H0V71H70.6667V0.333321ZM68.3667 68.7H2.3V2.63332H68.3667V68.7Z" fill="white"></path></mask><g mask="url(#mask0_1981_21)"><path fill-rule="evenodd" clip-rule="evenodd" d="M57.0094 55.0818C54.443 55.0818 52.3625 53.0014 52.3625 50.435V48.3646C52.3625 45.7982 54.443 43.7178 57.0094 43.7178C59.5758 43.7178 61.6563 45.7982 61.6563 48.3646V50.435C61.6563 53.0014 59.5758 55.0818 57.0094 55.0818ZM50.0625 50.435C50.0625 54.2716 53.1727 57.3818 57.0094 57.3818C60.846 57.3818 63.9563 54.2716 63.9563 50.435V48.3646C63.9563 44.528 60.846 41.4178 57.0094 41.4178C53.1727 41.4178 50.0625 44.528 50.0625 48.3646V50.435Z" fill="#048DEF"></path><path fill-rule="evenodd" clip-rule="evenodd" d="M43.5703 69.6195C43.5703 70.2547 44.0852 70.7695 44.7203 70.7695H69.288C69.9232 70.7695 70.438 70.2547 70.438 69.6195V65.5729C70.438 61.5565 67.8944 57.9808 64.1004 56.6634L59.7277 55.1451C59.6064 55.103 59.4789 55.0815 59.3505 55.0815H54.6578C54.5294 55.0815 54.4019 55.103 54.2806 55.1451L49.908 56.6634C46.1139 57.9808 43.5703 61.5565 43.5703 65.5729V69.6195ZM45.8703 68.4695V65.5729C45.8703 62.5359 47.7936 59.8322 50.6624 58.8361L54.8518 57.3815H59.1566L63.3459 58.8361C66.2147 59.8322 68.138 62.5359 68.138 65.5729V68.4695H45.8703Z" fill="#048DEF"></path><path fill-rule="evenodd" clip-rule="evenodd" d="M24.5641 46.5242C21.9977 46.5242 19.9172 44.4437 19.9172 41.8773V39.807C19.9172 37.2406 21.9977 35.1602 24.5641 35.1602C27.1305 35.1602 29.2109 37.2406 29.2109 39.807V41.8773C29.2109 44.4437 27.1305 46.5242 24.5641 46.5242ZM17.6172 41.8773C17.6172 45.714 20.7274 48.8242 24.5641 48.8242C28.4007 48.8242 31.5109 45.714 31.5109 41.8773V39.807C31.5109 35.9704 28.4007 32.8602 24.5641 32.8602C20.7274 32.8602 17.6172 35.9704 17.6172 39.807V41.8773Z" fill="#048DEF"></path><path fill-rule="evenodd" clip-rule="evenodd" d="M11.125 61.0629C11.125 61.698 11.6399 62.2129 12.275 62.2129H36.8427C37.4778 62.2129 37.9927 61.698 37.9927 61.0629V57.0163C37.9927 52.9998 35.4491 49.4241 31.6551 48.1067L27.2824 46.5885C27.1611 46.5464 27.0336 46.5249 26.9052 46.5249H22.2125C22.0841 46.5249 21.9566 46.5464 21.8353 46.5885L17.4627 48.1067C13.6686 49.4241 11.125 52.9998 11.125 57.0163V61.0629ZM13.425 59.9129V57.0163C13.425 53.9793 15.3483 51.2756 18.2171 50.2795L22.4065 48.8249H26.7112L30.9006 50.2795C33.7694 51.2756 35.6927 53.9793 35.6927 57.0163V59.9129H13.425Z" fill="#048DEF"></path><path fill-rule="evenodd" clip-rule="evenodd" d="M24.5695 57.7959C24.9807 57.7959 25.3606 57.5764 25.5659 57.2201L30.2586 49.0769C30.5757 48.5266 30.3867 47.8234 29.8364 47.5063C29.2861 47.1892 28.5829 47.3782 28.2658 47.9285L24.5695 54.3427L20.8731 47.9285C20.556 47.3782 19.8529 47.1892 19.3026 47.5063C18.7523 47.8234 18.5632 48.5266 18.8804 49.0769L23.5731 57.2201C23.7784 57.5764 24.1583 57.7959 24.5695 57.7959Z" fill="#048DEF"></path><path fill-rule="evenodd" clip-rule="evenodd" d="M17.275 35.0726C17.7047 34.8946 17.9849 34.4753 17.9849 34.0101V28.2591H28.7047C29.3398 28.2591 29.8547 27.7442 29.8547 27.1091C29.8547 26.4739 29.3398 25.9591 28.7047 25.9591H16.8349C16.1998 25.9591 15.6849 26.4739 15.6849 27.1091V31.2338L10.747 26.2959C10.5314 26.0802 10.2389 25.9591 9.93386 25.9591H6.8974C4.48364 25.9591 2.52656 24.002 2.52656 21.5882V14.3363C2.52656 13.7012 2.01169 13.1863 1.37656 13.1863C0.741435 13.1863 0.226562 13.7012 0.226562 14.3363V21.5882C0.226562 25.2723 3.21339 28.2591 6.8974 28.2591H9.45751L16.0217 34.8233C16.3506 35.1522 16.8453 35.2506 17.275 35.0726Z" fill="#048DEF"></path><path fill-rule="evenodd" clip-rule="evenodd" d="M1.37656 10.6719C2.01169 10.6719 2.52656 10.157 2.52656 9.52188V7.23307C2.52656 4.81932 4.48364 2.86224 6.8974 2.86224H36.4339C38.8476 2.86224 40.8047 4.81932 40.8047 7.23307V9.16537C40.8047 9.80049 41.3196 10.3154 41.9547 10.3154C42.5898 10.3154 43.1047 9.80049 43.1047 9.16537V7.23307C43.1047 3.54907 40.1179 0.562241 36.4339 0.562241H6.8974C3.21339 0.562241 0.226562 3.54907 0.226562 7.23307V9.52188C0.226562 10.157 0.741435 10.6719 1.37656 10.6719Z" fill="#048DEF"></path><path fill-rule="evenodd" clip-rule="evenodd" d="M49.9859 42.5257C50.4157 42.3477 50.6958 41.9284 50.6958 41.4632V35.7122H63.762C67.4461 35.7122 70.4328 32.7255 70.4328 29.0414V14.6872C70.4328 11.0031 67.4461 8.01637 63.762 8.01637H53.2465C52.6113 8.01637 52.0965 8.53124 52.0965 9.16637C52.0965 9.80149 52.6113 10.3164 53.2465 10.3164H63.762C66.1759 10.3164 68.1328 12.2733 68.1328 14.6872V29.0414C68.1328 31.4553 66.1759 33.4122 63.762 33.4122H49.5458C48.9107 33.4122 48.3958 33.9271 48.3958 34.5622V38.6869L43.4578 33.749C43.2422 33.5334 42.9496 33.4122 42.6447 33.4122H34.2255C31.8115 33.4122 29.8547 31.4553 29.8547 29.0414V14.6872C29.8547 12.2733 31.8115 10.3164 34.2255 10.3164H48.407C49.0422 10.3164 49.557 9.80149 49.557 9.16637C49.557 8.53124 49.0422 8.01637 48.407 8.01637H34.2255C30.5412 8.01637 27.5547 11.0031 27.5547 14.6872V29.0414C27.5547 32.7255 30.5412 35.7122 34.2255 35.7122H42.1683L48.7327 42.2764C49.0616 42.6053 49.5562 42.7037 49.9859 42.5257Z" fill="#048DEF"></path><path fill-rule="evenodd" clip-rule="evenodd" d="M0.226562 69.6195C0.226562 70.2547 0.741435 70.7695 1.37656 70.7695H44.4391C45.0742 70.7695 45.5891 70.2547 45.5891 69.6195C45.5891 68.9844 45.0742 68.4695 44.4391 68.4695H2.52656V62.2122H45.9573C46.5924 62.2122 47.1073 61.6974 47.1073 61.0622C47.1073 60.4271 46.5924 59.9122 45.9573 59.9122H1.37656C0.741435 59.9122 0.226562 60.4271 0.226562 61.0622V69.6195Z" fill="#048DEF"></path></g></svg>