<svg xmlns="http://www.w3.org/2000/svg" width="70" height="56" viewBox="0 0 70 56" fill="none"><path d="M4.32031 55.6381H65.6797C67.6147 55.6381 69.185 54.0678 69.185 52.1328V6.97656C69.185 6.50251 68.81 6.1275 68.3359 6.1275H23.7631V1.66406C23.7631 1.19001 23.3881 0.815 22.9141 0.815H4.32031C2.38533 0.815 0.815 2.38533 0.815 4.32031V52.1328C0.815 54.0678 2.38533 55.6381 4.32031 55.6381ZM2.51312 4.32031C2.51312 3.32014 3.32014 2.51312 4.32031 2.51312H22.065V6.97656C22.065 7.45061 22.44 7.82562 22.9141 7.82562H67.4869V52.1328C67.4869 53.133 66.6799 53.94 65.6797 53.94H4.32031C3.32014 53.94 2.51312 53.133 2.51312 52.1328V4.32031Z" fill="#0449A9" stroke="#0449A9" stroke-width="0.37"></path><path d="M68.9922 7.16156H69.1772V6.97656V4.32031C69.1772 2.38533 67.6069 0.815 65.6719 0.815H25.5625H25.3775V1V2.32812V2.51312H25.5625H65.6719C66.672 2.51312 67.4791 3.32014 67.4791 4.32031V6.97656V7.16156H67.6641H68.9922Z" fill="#0449A9" stroke="#0449A9" stroke-width="0.37"></path><path d="M52.2656 3.47125H52.0806V3.65625V4.98438V5.16937H52.2656H54.9219H55.1069V4.98438V3.65625V3.47125H54.9219H52.2656Z" fill="#0449A9" stroke="#0449A9" stroke-width="0.37"></path><path d="M57.5781 3.47125H57.3931V3.65625V4.98438V5.16937H57.5781H60.2344H60.4194V4.98438V3.65625V3.47125H60.2344H57.5781Z" fill="#0449A9" stroke="#0449A9" stroke-width="0.37"></path><path d="M62.8906 3.47125H62.7056V3.65625V4.98438V5.16937H62.8906H65.5469H65.7319V4.98438V3.65625V3.47125H65.5469H62.8906Z" fill="#0449A9" stroke="#0449A9" stroke-width="0.37"></path><path d="M52.2656 11.0679H52.0806V11.2529V12.5811V12.7661H52.2656H54.9219H55.1069V12.5811V11.2529V11.0679H54.9219H52.2656Z" fill="#0449A9" stroke="#0449A9" stroke-width="0.37"></path><path d="M57.5781 11.0679H57.3931V11.2529V12.5811V12.7661H57.5781H60.2344H60.4194V12.5811V11.2529V11.0679H60.2344H57.5781Z" fill="#0449A9" stroke="#0449A9" stroke-width="0.37"></path><path d="M62.8906 11.0679H62.7056V11.2529V12.5811V12.7661H62.8906H65.5469H65.7319V12.5811V11.2529V11.0679H65.5469H62.8906Z" fill="#0449A9" stroke="#0449A9" stroke-width="0.37"></path><path d="M44.2891 26.6314H44.1041V26.8164V28.1445V28.3295H44.2891H54.9141H55.0991V28.1445V26.8164V26.6314H54.9141H44.2891Z" fill="#0449A9" stroke="#0449A9" stroke-width="0.37"></path><path d="M34.8672 19.4087H34.6822V19.5938V20.9219V21.1069H34.8672H54.9219H55.1069V20.9219V19.5938V19.4087H54.9219H34.8672Z" fill="#0449A9" stroke="#0449A9" stroke-width="0.37"></path><path d="M44.2891 23.0211H44.1041V23.2061V24.5342V24.7192H44.2891H54.9141H55.0991V24.5342V23.2061V23.0211H54.9141H44.2891Z" fill="#0449A9" stroke="#0449A9" stroke-width="0.37"></path><path d="M50.9297 37.3354H51.1147V37.1504V35.8223V35.6373H50.9297H45.1381V33.351H54.065V34.9059V35.0909H54.25H55.5781H55.7631V34.9059V32.502C55.7631 32.0279 55.3881 31.6529 54.9141 31.6529H44.2891C43.815 31.6529 43.44 32.0279 43.44 32.502V36.4863C43.44 36.9604 43.815 37.3354 44.2891 37.3354H50.9297Z" fill="#0449A9" stroke="#0449A9" stroke-width="0.37"></path><path d="M22.9062 14.0922H47.0781C47.5522 14.0922 47.9272 13.7172 47.9272 13.2432V10.5869C47.9272 10.1129 47.5522 9.73785 47.0781 9.73785H22.9062C22.4322 9.73785 22.0572 10.1129 22.0572 10.5869V13.2432C22.0572 13.7172 22.4322 14.0922 22.9062 14.0922ZM46.2291 11.436V12.3941H23.7553V11.436H46.2291Z" fill="#0449A9" stroke="#0449A9" stroke-width="0.37"></path><path d="M54.1021 43.5418L56.264 41.945L58.6883 46.7043L58.6882 46.7043L58.6902 46.7081C58.8043 46.9199 59.0031 47.0907 59.2588 47.1451C59.3251 47.1643 59.398 47.1641 59.4312 47.164C59.4335 47.164 59.4356 47.1639 59.4375 47.1639C59.6184 47.1639 59.8022 47.1141 59.9686 46.9977L59.9689 46.9981L59.9791 46.9898L63.0869 44.4663L63.0871 44.4665L63.0941 44.4602C63.2554 44.315 63.3766 44.1134 63.3939 43.871C63.4108 43.6343 63.3269 43.3991 63.1742 43.2294L63.1733 43.2284L59.672 39.3949L62.0716 37.6046L62.0716 37.6046L62.0765 37.6007C62.3275 37.3999 62.4462 37.0948 62.396 36.7767L62.3964 36.7766L62.3939 36.7654C62.3271 36.4649 62.1096 36.2129 61.8069 36.112L61.807 36.112L61.8024 36.1106L53.8337 33.6801L53.8337 33.68L53.8274 33.6783C53.5734 33.6106 53.3053 33.6622 53.09 33.8112L53.0899 33.8111L53.0843 33.8153C52.88 33.9686 52.7447 34.2219 52.7447 34.4946V42.8618C52.7447 43.1825 52.9292 43.4887 53.2228 43.6268C53.51 43.762 53.8478 43.7283 54.1016 43.5422L54.1021 43.5418ZM57.2914 40.2676L57.2914 40.2676L57.2895 40.2639C57.1762 40.0536 56.9786 39.8823 56.7356 39.8273C56.6688 39.8076 56.5941 39.8079 56.5514 39.808C56.5481 39.808 56.5451 39.808 56.5422 39.808C56.3657 39.808 56.1815 39.8763 56.0465 39.9775C56.0463 39.9776 56.0462 39.9777 56.046 39.9778L54.4428 41.1662V35.6476L59.685 37.2477L57.88 38.5957C57.6951 38.7306 57.5572 38.9506 57.5397 39.1962C57.5235 39.4227 57.587 39.6638 57.7629 39.8418L61.2932 43.7046L59.698 44.9918L57.2914 40.2676Z" fill="#0449A9" stroke="#0449A9" stroke-width="0.37"></path><path d="M10.9609 11.0679H10.7759V11.2529V12.5811V12.7661H10.9609H17.6016H17.7866V12.5811V11.2529V11.0679H17.6016H10.9609Z" fill="#0449A9" stroke="#0449A9" stroke-width="0.37"></path><path d="M7.64062 10.4039H7.45562V10.5889V13.2451V13.4301H7.64062H8.96875H9.15375V13.2451V10.5889V10.4039H8.96875H7.64062Z" fill="#0449A9" stroke="#0449A9" stroke-width="0.37"></path><path d="M6.97656 11.0679H6.79156V11.2529V12.5811V12.7661H6.97656H9.63281H9.81781V12.5811V11.2529V11.0679H9.63281H6.97656Z" fill="#0449A9" stroke="#0449A9" stroke-width="0.37"></path><path d="M11.1367 35.6837C11.5618 35.6837 11.9063 35.3391 11.9063 34.9141C11.9063 34.4891 11.5618 34.1445 11.1367 34.1445C10.7117 34.1445 10.3672 34.4891 10.3672 34.9141C10.3672 35.3391 10.7117 35.6837 11.1367 35.6837Z" fill="#0449A9"></path><path d="M31.1446 35.6837C31.5696 35.6837 31.9141 35.3391 31.9141 34.9141C31.9141 34.4891 31.5696 34.1445 31.1446 34.1445C30.7195 34.1445 30.375 34.4891 30.375 34.9141C30.375 35.3391 30.7195 35.6837 31.1446 35.6837Z" fill="#0449A9"></path><path d="M12.4459 44.7048C12.1827 45.0388 12.2397 45.522 12.5736 45.786C15.0447 47.7353 18.0075 48.7657 21.1412 48.7657C28.7791 48.7657 34.9933 42.5515 34.9933 34.9136C34.9933 27.2757 28.7791 21.0615 21.1412 21.0615C13.5033 21.0615 7.28906 27.2757 7.28906 34.9136C7.28906 38.0473 8.31951 41.0101 10.2696 43.4812C10.5335 43.8159 11.0176 43.8721 11.3508 43.6089C11.6848 43.3457 11.741 42.8617 11.4786 42.5277C9.74396 40.3313 8.82819 37.6979 8.82819 34.9136C8.82819 28.1246 14.3521 22.6006 21.1412 22.6006C27.9302 22.6006 33.4542 28.1246 33.4542 34.9136C33.4542 41.7027 27.9302 47.2266 21.1412 47.2266C18.3569 47.2266 15.7235 46.3108 13.5271 44.577C13.1931 44.3146 12.7091 44.3708 12.4459 44.7048Z" fill="#0449A9"></path><path d="M14.0379 31.0862C13.6908 31.1678 13.4453 31.4779 13.4453 31.835V37.9915C13.4453 38.4163 13.7901 38.761 14.2149 38.761C14.6397 38.761 14.9844 38.4163 14.9844 37.9915V35.0949L16.6044 38.3355C16.7375 38.601 17.0061 38.761 17.2931 38.761C17.3516 38.761 17.4109 38.7541 17.4701 38.7403C17.8172 38.6587 18.0627 38.3486 18.0627 37.9915V31.835C18.0627 31.4102 17.7179 31.0654 17.2931 31.0654C16.8683 31.0654 16.5236 31.4102 16.5236 31.835V34.7316L14.9036 31.491C14.7436 31.1716 14.3896 31.0046 14.0379 31.0862Z" fill="#0449A9"></path><path d="M23.4494 32.6046C23.8749 32.6046 24.2189 32.2598 24.2189 31.835C24.2189 31.4102 23.8749 31.0654 23.4494 31.0654H20.3711C19.9463 31.0654 19.6016 31.4102 19.6016 31.835V37.9915C19.6016 38.4163 19.9463 38.761 20.3711 38.761C20.7959 38.761 21.1407 38.4163 21.1407 37.9915V35.6828H22.6798C23.1054 35.6828 23.4494 35.338 23.4494 34.9132C23.4494 34.4884 23.1054 34.1437 22.6798 34.1437H21.1407V32.6046H23.4494Z" fill="#0449A9"></path><path d="M29.6056 31.0654H26.5274C26.1018 31.0654 25.7578 31.4102 25.7578 31.835C25.7578 32.2598 26.1018 32.6046 26.5274 32.6046H27.2969V37.9915C27.2969 38.4163 27.6409 38.761 28.0665 38.761C28.4921 38.761 28.8361 38.4163 28.8361 37.9915V32.6046H29.6056C30.0312 32.6046 30.3752 32.2598 30.3752 31.835C30.3752 31.4102 30.0312 31.0654 29.6056 31.0654Z" fill="#0449A9"></path><path d="M21.571 25.0385C21.3124 24.8661 20.9761 24.8661 20.7175 25.0385L16.1002 28.1167C15.7469 28.3522 15.6515 28.8301 15.887 29.1841C16.1225 29.5373 16.5996 29.6328 16.9544 29.3973L21.1439 26.6038L25.3341 29.3973C25.4657 29.485 25.6143 29.5266 25.7605 29.5266C26.009 29.5266 26.2538 29.4065 26.4015 29.1841C26.6378 28.8309 26.5424 28.3522 26.1884 28.1167L21.571 25.0385Z" fill="#0449A9"></path><path d="M15.887 40.6438C15.6515 40.997 15.7469 41.4757 16.1002 41.7112L20.7175 44.7894C20.8468 44.8756 20.9961 44.9187 21.1446 44.9187C21.2932 44.9187 21.4425 44.8756 21.5718 44.7894L26.1891 41.7112C26.5431 41.4757 26.6385 40.9978 26.4023 40.6438C26.1668 40.2906 25.6889 40.1936 25.3349 40.4306L21.1446 43.2242L16.9544 40.4306C16.5996 40.1936 16.1225 40.2906 15.887 40.6438Z" fill="#0449A9"></path></svg>