<svg xmlns="http://www.w3.org/2000/svg" width="44" height="53" viewBox="0 0 44 53" fill="none"><path d="M41.4485 31.0343V23.5703C41.4485 22.9237 41.1916 22.3035 40.7344 21.8463C40.2772 21.3891 39.657 21.1322 39.0104 21.1322V15.4432C39.0104 14.7965 38.7535 14.1764 38.2962 13.7191C37.839 13.2619 37.2189 13.005 36.5722 13.005H34.1341V9.00889C34.1343 8.58064 34.0218 8.15988 33.8078 7.78893C33.5938 7.41799 33.2859 7.10996 32.915 6.89583L21.537 0.32665C21.1663 0.112658 20.7459 0 20.3179 0C19.8899 0 19.4695 0.112658 19.0988 0.32665L7.7208 6.89583C7.34993 7.10996 7.04199 7.41799 6.82799 7.78893C6.61398 8.15988 6.50145 8.58064 6.50173 9.00889V13.005H4.8763C3.58342 13.0063 2.34386 13.5205 1.42966 14.4347C0.515457 15.3489 0.00129094 16.5884 0 17.8813V46.3264C0.00172081 47.8347 0.60165 49.2807 1.66817 50.3472C2.7347 51.4137 4.18072 52.0137 5.68901 52.0154H39.0104C39.657 52.0154 40.2772 51.7585 40.7344 51.3013C41.1916 50.844 41.4485 50.2239 41.4485 49.5772V42.1133C41.9223 41.9458 42.3327 41.636 42.6236 41.2263C42.9146 40.8167 43.0719 40.3271 43.0739 39.8246V33.3229C43.0719 32.8204 42.9146 32.3309 42.6236 31.9212C42.3327 31.5116 41.9223 31.2018 41.4485 31.0343ZM36.5722 14.6305C36.7878 14.6305 36.9945 14.7161 37.1469 14.8685C37.2993 15.0209 37.3849 15.2276 37.3849 15.4432V21.1322H34.1341V14.6305H36.5722ZM8.53352 8.30508L19.9115 1.7359C20.0351 1.66457 20.1752 1.62702 20.3179 1.62702C20.4606 1.62702 20.6007 1.66457 20.7243 1.7359L32.1023 8.30508C32.2258 8.37641 32.3284 8.479 32.3997 8.60255C32.4711 8.72609 32.5086 8.86624 32.5086 9.00889V21.1322H28.4451V10.9155L29.6641 11.6193C29.8509 11.7271 30.0728 11.7563 30.2811 11.7004C30.4894 11.6446 30.6669 11.5082 30.7747 11.3215C30.8825 11.1347 30.9116 10.9128 30.8558 10.7045C30.7999 10.4962 30.6636 10.3187 30.4768 10.2109L26.4133 7.8654C26.2267 7.75933 26.0058 7.73136 25.7986 7.78759C25.5915 7.84382 25.4151 7.97968 25.3078 8.16554C25.2004 8.3514 25.171 8.57216 25.2259 8.77964C25.2807 8.98712 25.4154 9.16449 25.6006 9.27303L26.8196 9.97684V21.1322H20.3179V16.6622H23.1624C23.378 16.6622 23.5847 16.5766 23.7371 16.4242C23.8895 16.2718 23.9751 16.0651 23.9751 15.8495C23.9751 15.634 23.8895 15.4273 23.7371 15.2748C23.5847 15.1224 23.378 15.0368 23.1624 15.0368H20.3179V6.2229L23.1624 7.8654C23.3491 7.97317 23.5709 8.00237 23.7791 7.94659C23.9873 7.89081 24.1648 7.75461 24.2726 7.56795C24.3803 7.38128 24.4095 7.15946 24.3538 6.95126C24.298 6.74306 24.1618 6.56555 23.9751 6.45778L20.7243 4.5804C20.6007 4.50907 20.4606 4.47152 20.3179 4.47152C20.1752 4.47152 20.0351 4.50907 19.9115 4.5804L19.0988 5.04934C18.9753 5.12067 18.8727 5.22326 18.8014 5.34681C18.73 5.47035 18.6925 5.6105 18.6925 5.75315V21.1322H16.6607V8.53508C16.6607 8.31953 16.5751 8.11282 16.4226 7.9604C16.2702 7.80799 16.0635 7.72236 15.848 7.72236C15.6324 7.72236 15.4257 7.80799 15.2733 7.9604C15.1209 8.11282 15.0352 8.31953 15.0352 8.53508V18.9443L11.7259 10.6717C11.6556 10.4966 11.5265 10.3514 11.3609 10.2611C11.1953 10.1707 11.0034 10.1408 10.8181 10.1764C10.6328 10.2121 10.4657 10.3111 10.3454 10.4565C10.2252 10.6019 10.1592 10.7846 10.1589 10.9732V21.1322H8.12716V9.00889C8.12716 8.86624 8.16472 8.72609 8.23605 8.60255C8.30738 8.479 8.40997 8.37641 8.53352 8.30508ZM14.16 21.1322H11.7844V15.1937L14.16 21.1322ZM4.8763 14.6305H6.50173V21.1322H4.8763C4.01411 21.1322 3.18724 20.7897 2.57759 20.18C1.96793 19.5704 1.62543 18.7435 1.62543 17.8813C1.62543 17.0191 1.96793 16.1923 2.57759 15.5826C3.18724 14.973 4.01411 14.6305 4.8763 14.6305ZM39.8231 49.5772C39.8231 49.7928 39.7375 49.9995 39.585 50.1519C39.4326 50.3043 39.2259 50.3899 39.0104 50.3899H5.68901C4.61168 50.3887 3.57884 49.9601 2.81705 49.1983C2.05526 48.4365 1.62672 47.4037 1.62543 46.3264V44.7009H6.87964L8.26126 46.7774C8.33573 46.889 8.43667 46.9805 8.55509 47.0436C8.6735 47.1067 8.8057 47.1395 8.93988 47.1391H13.153C13.3447 47.6813 13.722 48.1384 14.218 48.4294C14.7141 48.7204 15.2971 48.8267 15.864 48.7294C16.4309 48.6321 16.9451 48.3376 17.3158 47.8979C17.6865 47.4581 17.8899 46.9015 17.8899 46.3264C17.8899 45.7512 17.6865 45.1946 17.3158 44.7549C16.9451 44.3151 16.4309 44.0206 15.864 43.9233C15.2971 43.8261 14.7141 43.9323 14.218 44.2234C13.722 44.5144 13.3447 44.9714 13.153 45.5137H9.37468L7.99306 43.4372C7.91859 43.3255 7.81765 43.2341 7.69923 43.171C7.58082 43.1079 7.44862 43.0751 7.31444 43.0755H1.62543V39.8246H9.41613L10.8034 41.2119C10.9558 41.3644 11.1625 41.45 11.378 41.4501H18.842C19.0337 41.9923 19.411 42.4494 19.9071 42.7404C20.4031 43.0314 20.9861 43.1376 21.553 43.0404C22.1199 42.9431 22.6341 42.6486 23.0048 42.2089C23.3755 41.7691 23.5789 41.2125 23.5789 40.6374C23.5789 40.0622 23.3755 39.5056 23.0048 39.0658C22.6341 38.6261 22.1199 38.3316 21.553 38.2343C20.9861 38.1371 20.4031 38.2433 19.9071 38.5343C19.411 38.8254 19.0337 39.2824 18.842 39.8246H11.7145L10.3272 38.4373C10.1748 38.2849 9.96812 38.1993 9.75259 38.1992H1.62543V34.9483H13.9657C14.1574 35.4906 14.5347 35.9476 15.0308 36.2386C15.5268 36.5297 16.1098 36.6359 16.6767 36.5387C17.2436 36.4414 17.7578 36.1469 18.1285 35.7071C18.4992 35.2674 18.7026 34.7108 18.7026 34.1356C18.7026 33.5605 18.4992 33.0038 18.1285 32.5641C17.7578 32.1244 17.2436 31.8299 16.6767 31.7326C16.1098 31.6353 15.5268 31.7416 15.0308 32.0326C14.5347 32.3236 14.1574 32.7807 13.9657 33.3229H1.62543V30.0721H9.75259C9.96812 30.072 10.1748 29.9863 10.3272 29.8339L11.7145 28.4466H18.842C19.0337 28.9889 19.411 29.4459 19.9071 29.7369C20.4031 30.0279 20.9861 30.1342 21.553 30.0369C22.1199 29.9397 22.6341 29.6452 23.0048 29.2054C23.3755 28.7657 23.5789 28.2091 23.5789 27.6339C23.5789 27.0588 23.3755 26.5021 23.0048 26.0624C22.6341 25.6227 22.1199 25.3281 21.553 25.2309C20.9861 25.1336 20.4031 25.2399 19.9071 25.5309C19.411 25.8219 19.0337 26.2789 18.842 26.8212H11.378C11.1625 26.8212 10.9558 26.9069 10.8034 27.0593L9.41613 28.4466H1.62543V21.5125C2.51798 22.315 3.67605 22.7585 4.8763 22.7576H39.0104C39.2259 22.7576 39.4326 22.8432 39.585 22.9956C39.7375 23.1481 39.8231 23.3548 39.8231 23.5703V30.8848H34.1341C32.6253 30.8848 31.1782 31.4841 30.1113 32.551C29.0444 33.6179 28.4451 35.065 28.4451 36.5738C28.4451 38.0826 29.0444 39.5296 30.1113 40.5965C31.1782 41.6634 32.6253 42.2628 34.1341 42.2628H39.8231V49.5772ZM14.6289 46.3264C14.6289 46.1656 14.6766 46.0085 14.7659 45.8748C14.8552 45.7412 14.9821 45.637 15.1306 45.5755C15.2791 45.514 15.4425 45.4979 15.6002 45.5293C15.7578 45.5606 15.9026 45.638 16.0163 45.7517C16.1299 45.8654 16.2073 46.0102 16.2387 46.1678C16.2701 46.3255 16.254 46.4889 16.1925 46.6374C16.1309 46.7859 16.0268 46.9128 15.8931 47.0021C15.7595 47.0914 15.6023 47.1391 15.4416 47.1391C15.2261 47.1391 15.0193 47.0535 14.8669 46.901C14.7145 46.7486 14.6289 46.5419 14.6289 46.3264ZM20.3179 40.6374C20.3179 40.4766 20.3656 40.3195 20.4549 40.1858C20.5442 40.0522 20.6711 39.948 20.8196 39.8865C20.9681 39.825 21.1315 39.8089 21.2892 39.8403C21.4468 39.8716 21.5916 39.949 21.7053 40.0627C21.819 40.1763 21.8964 40.3212 21.9277 40.4788C21.9591 40.6365 21.943 40.7999 21.8815 40.9484C21.82 41.0969 21.7158 41.2238 21.5821 41.3131C21.4485 41.4024 21.2914 41.4501 21.1306 41.4501C20.9151 41.4501 20.7084 41.3644 20.5559 41.212C20.4035 41.0596 20.3179 40.8529 20.3179 40.6374ZM15.4416 34.1356C15.4416 33.9749 15.4893 33.8178 15.5786 33.6841C15.6679 33.5505 15.7948 33.4463 15.9433 33.3848C16.0918 33.3233 16.2552 33.3072 16.4129 33.3385C16.5705 33.3699 16.7153 33.4473 16.829 33.561C16.9427 33.6746 17.0201 33.8194 17.0514 33.9771C17.0828 34.1347 17.0667 34.2981 17.0052 34.4466C16.9437 34.5951 16.8395 34.7221 16.7058 34.8114C16.5722 34.9007 16.4151 34.9483 16.2543 34.9483C16.0388 34.9483 15.8321 34.8627 15.6796 34.7103C15.5272 34.5579 15.4416 34.3512 15.4416 34.1356ZM20.3179 27.6339C20.3179 27.4732 20.3656 27.316 20.4549 27.1824C20.5442 27.0487 20.6711 26.9446 20.8196 26.8831C20.9681 26.8215 21.1315 26.8054 21.2892 26.8368C21.4468 26.8682 21.5916 26.9456 21.7053 27.0592C21.819 27.1729 21.8964 27.3177 21.9277 27.4753C21.9591 27.633 21.943 27.7964 21.8815 27.9449C21.82 28.0934 21.7158 28.2204 21.5821 28.3097C21.4485 28.399 21.2914 28.4466 21.1306 28.4466C20.9151 28.4466 20.7084 28.361 20.5559 28.2086C20.4035 28.0562 20.3179 27.8494 20.3179 27.6339ZM41.4485 39.8246C41.4485 40.0402 41.3629 40.2469 41.2105 40.3993C41.0581 40.5517 40.8513 40.6374 40.6358 40.6374H34.1341C33.0563 40.6374 32.0228 40.2092 31.2607 39.4472C30.4986 38.6851 30.0705 37.6515 30.0705 36.5738C30.0705 35.496 30.4986 34.4625 31.2607 33.7004C32.0228 32.9383 33.0563 32.5102 34.1341 32.5102H40.6358C40.8513 32.5102 41.0581 32.5958 41.2105 32.7482C41.3629 32.9007 41.4485 33.1074 41.4485 33.3229V39.8246Z" fill="#0458B9"></path><path d="M34.1335 34.1367C33.6512 34.1367 33.1799 34.2797 32.7789 34.5476C32.3779 34.8155 32.0654 35.1963 31.8809 35.6418C31.6964 36.0873 31.6481 36.5776 31.7422 37.0505C31.8362 37.5235 32.0685 37.9579 32.4094 38.2989C32.7504 38.6399 33.1848 38.8721 33.6578 38.9662C34.1308 39.0602 34.621 39.012 35.0665 38.8274C35.512 38.6429 35.8928 38.3304 36.1607 37.9294C36.4286 37.5285 36.5716 37.0571 36.5716 36.5749C36.5716 35.9282 36.3147 35.3081 35.8575 34.8508C35.4002 34.3936 34.7801 34.1367 34.1335 34.1367ZM34.1335 37.3876C33.9727 37.3876 33.8156 37.3399 33.6819 37.2506C33.5483 37.1613 33.4441 37.0344 33.3826 36.8859C33.3211 36.7374 33.305 36.574 33.3364 36.4163C33.3677 36.2587 33.4451 36.1138 33.5588 36.0002C33.6724 35.8865 33.8173 35.8091 33.9749 35.7778C34.1326 35.7464 34.296 35.7625 34.4445 35.824C34.593 35.8855 34.7199 35.9897 34.8092 36.1233C34.8985 36.257 34.9462 36.4141 34.9462 36.5749C34.9462 36.7904 34.8606 36.9971 34.7081 37.1495C34.5557 37.302 34.349 37.3876 34.1335 37.3876Z" fill="#0458B9"></path></svg>