<svg xmlns="http://www.w3.org/2000/svg" width="66" height="70" viewBox="0 0 66 70" fill="none"><path d="M60.4165 57.0289L60.416 57.0289C58.3131 57.0353 56.4764 58.4437 55.9203 60.4652H51.352V57.1289V57.0289H51.252H48.9609H48.8609V57.1289L48.8609 61.7106L48.8609 61.7107C48.8621 62.3979 49.4188 62.955 50.1061 62.9563H50.1063H55.9212C57.4507 68.1334 64.9551 67.1908 65.0975 61.7132L65.0976 61.7132L65.0976 61.7104C65.0947 59.1263 63.0006 57.0321 60.4165 57.0289ZM60.4163 63.9016C59.2074 63.9004 58.2276 62.9212 58.2253 61.7125C58.346 58.8043 62.4857 58.8033 62.6074 61.7126C62.6049 62.9212 61.6252 63.9004 60.4163 63.9016Z" fill="#0369CA" stroke="#0369CA" stroke-width="0.2"></path><path d="M15.7384 60.4652V60.4651L15.7339 60.4653C9.52721 60.7225 9.52933 69.573 15.734 69.8291L15.734 69.8292L15.7384 69.8292C17.8415 69.8228 19.6782 68.4143 20.2342 66.3926H27.1928H27.193C27.8802 66.3914 28.4372 65.8347 28.4385 65.1475V65.1473V57.1289V57.0289H28.3385H26.0475H25.9475V57.1289V63.9016H20.2342C19.678 61.88 17.8413 60.4717 15.7384 60.4652ZM15.7381 67.3382C14.5292 67.337 13.5493 66.3578 13.5471 65.1491C13.6677 62.2409 17.8071 62.2399 17.9287 65.1492C17.9267 66.3578 16.947 67.337 15.7381 67.3382Z" fill="#0369CA" stroke="#0369CA" stroke-width="0.2"></path><path d="M38.7507 57.1299V57.0299H38.6507H36.3585H36.2585V57.1299V60.6506C34.2367 61.2067 32.8282 63.0434 32.8219 65.1466H32.8218L32.822 65.1511C33.0791 71.3579 41.9296 71.3552 42.1858 65.1511L42.1859 65.1511L42.1858 65.1466C42.1796 63.044 40.7719 61.2072 38.7507 60.6506V57.1299ZM37.5061 67.338C36.2972 67.3368 35.3173 66.3576 35.3151 65.1489C35.4373 62.2398 39.5755 62.2405 39.6971 65.1489C39.6948 66.3576 38.715 67.3368 37.5061 67.338Z" fill="#0369CA" stroke="#0369CA" stroke-width="0.2"></path><path d="M58.1323 55.0468H58.1324C61.3494 55.0431 63.9562 52.4362 63.9599 49.2193V49.2191V21.7274V21.7272C63.9561 18.5104 61.3492 15.9037 58.1324 15.9H58.1323H16.8949H16.8949C15.442 15.9001 14.0422 16.4459 12.9726 17.4292C12.4651 17.8936 12.4303 18.6816 12.8947 19.1891C13.3591 19.6966 14.1471 19.7314 14.6546 19.267L14.6549 19.2668C15.2653 18.7043 16.0649 18.3914 16.895 18.3904H58.1322C59.9742 18.3922 61.4669 19.8849 61.4689 21.7268V28.5004H47.8229C43.9718 28.5009 40.8502 31.623 40.8505 35.4741C40.8509 39.3247 43.9722 42.4461 47.8229 42.4465H61.4689V49.219C61.4669 51.0611 59.9742 52.5538 58.1322 52.5558H16.895C15.5169 52.5541 14.2819 51.7046 13.7875 50.4183C13.5446 49.7749 12.8261 49.45 12.1826 49.6929C11.5391 49.9357 11.2142 50.6543 11.4571 51.2978L11.4572 51.2982C12.32 53.5522 14.4814 55.0423 16.8948 55.0473H16.895L58.1323 55.0468ZM61.4689 39.9554H47.825C41.8768 39.7068 41.8789 31.2389 47.825 30.9915H61.4689V39.9554Z" fill="#0369CA" stroke="#0369CA" stroke-width="0.2"></path><path d="M49.0106 36.4096C49.568 36.3861 50.0126 35.9271 50.0132 35.3642V35.3637L49.0106 36.4096ZM49.0106 36.4096L48.9678 36.4097C48.3903 36.4098 47.922 35.9417 47.9219 35.3643C47.9218 34.7867 48.3898 34.3185 48.9672 34.3184C49.5448 34.3182 50.013 34.7863 50.0132 35.3637L49.0106 36.4096ZM48.968 31.8277L48.9677 31.8277C47.016 31.8301 45.4342 33.4112 45.4313 35.363L45.4312 35.363L45.4313 35.3673C45.6255 40.0543 52.3109 40.0525 52.5041 35.3673L52.5042 35.3673L52.5042 35.363C52.5013 33.4112 50.9196 31.8299 48.968 31.8277Z" fill="#0369CA" stroke="#0369CA" stroke-width="0.2"></path><path d="M20.2344 10.2639H23.6567V13.6002V13.7002H23.7567H26.0477H26.1477V13.6002V9.01829V9.0181C26.1464 8.3309 25.5895 7.774 24.9022 7.77298H24.902H20.2321C18.7037 2.59533 11.1989 3.53856 11.0563 9.01569L11.0562 9.01569L11.0563 9.01841C11.0593 11.6028 13.1538 13.6973 15.7382 13.7002L15.7386 13.7002C17.8416 13.6937 19.6781 12.2854 20.2344 10.2639ZM15.7383 6.82726C16.9472 6.82847 17.9269 7.80766 17.9291 9.01631C17.8084 11.9245 13.669 11.9255 13.5474 9.01628C13.5496 7.80766 14.5294 6.82847 15.7383 6.82726Z" fill="#0369CA" stroke="#0369CA" stroke-width="0.2"></path><path d="M49.0629 13.6004V6.82736H54.7761C55.3321 8.84904 57.1688 10.2576 59.2719 10.264L59.2719 10.2641L59.2763 10.2639C65.4831 10.0068 65.4805 1.15624 59.2763 0.900085L59.2763 0.899987L59.2719 0.9C57.1689 0.906369 55.3322 2.3148 54.7761 4.33634L47.8172 4.33634L47.817 4.33634C47.1298 4.33765 46.5729 4.89453 46.5719 5.5819V5.58205V13.6004V13.7004H46.6719H48.9629H49.0629V13.6004ZM59.2721 3.39103C60.4809 3.39223 61.4608 4.37142 61.4631 5.58005C61.3408 8.48913 57.2026 8.48843 57.081 5.58006C57.0833 4.37142 58.0632 3.39223 59.2721 3.39103Z" fill="#0369CA" stroke="#0369CA" stroke-width="0.2"></path><path d="M36.2585 13.6006V13.7006H36.3585H38.6495H38.7495V13.6006V10.0799C40.7711 9.52374 42.1793 7.68703 42.1858 5.58409H42.1859L42.1858 5.57965C41.9286 -0.627088 33.0781 -0.624972 32.822 5.57966L32.8219 5.57966L32.8219 5.58413C32.8291 7.68664 34.2373 9.52255 36.2585 10.0783V13.6006ZM37.5061 3.39128C38.715 3.39249 39.6948 4.37168 39.6971 5.58032C39.5764 8.48855 35.4367 8.48953 35.3151 5.58031C35.3173 4.37167 36.2972 3.39249 37.5061 3.39128Z" fill="#0369CA" stroke="#0369CA" stroke-width="0.2"></path><path d="M3.84769 35.6221C4.2727 35.6221 4.61725 35.2776 4.61725 34.8526C4.61725 34.4276 4.2727 34.083 3.84769 34.083C3.42267 34.083 3.07812 34.4276 3.07812 34.8526C3.07812 35.2776 3.42267 35.6221 3.84769 35.6221Z" fill="#0369CA"></path><path d="M23.8555 35.6221C24.2805 35.6221 24.6251 35.2776 24.6251 34.8526C24.6251 34.4276 24.2805 34.083 23.8555 34.083C23.4305 34.083 23.0859 34.4276 23.0859 34.8526C23.0859 35.2776 23.4305 35.6221 23.8555 35.6221Z" fill="#0369CA"></path><path d="M5.15683 44.6432C4.89364 44.9772 4.95059 45.4605 5.28458 45.7245C7.75564 47.6738 10.7185 48.7042 13.8521 48.7042C21.49 48.7042 27.7042 42.49 27.7042 34.8521C27.7042 27.2142 21.49 21 13.8521 21C6.21421 21 0 27.2142 0 34.8521C0 37.9858 1.03044 40.9486 2.98051 43.4196C3.24447 43.7544 3.72853 43.8106 4.06175 43.5474C4.39574 43.2842 4.45191 42.8001 4.18949 42.4662C2.4549 40.2698 1.53912 37.6364 1.53912 34.8521C1.53912 28.063 7.06304 22.5391 13.8521 22.5391C20.6412 22.5391 26.1651 28.063 26.1651 34.8521C26.1651 41.6412 20.6412 47.1651 13.8521 47.1651C11.0678 47.1651 8.4344 46.2493 6.23807 44.5155C5.90408 44.2531 5.42002 44.3093 5.15683 44.6432Z" fill="#0369CA"></path><path d="M6.74881 31.0247C6.40174 31.1063 6.15625 31.4164 6.15625 31.7735V37.93C6.15625 38.3548 6.50101 38.6995 6.92581 38.6995C7.35061 38.6995 7.69537 38.3548 7.69537 37.93V35.0333L9.3153 38.274C9.44843 38.5395 9.71701 38.6995 10.0041 38.6995C10.0625 38.6995 10.1218 38.6926 10.1811 38.6787C10.5281 38.5972 10.7736 38.287 10.7736 37.93V31.7735C10.7736 31.3487 10.4289 31.0039 10.0041 31.0039C9.57926 31.0039 9.2345 31.3487 9.2345 31.7735V34.6701L7.61457 31.4295C7.4545 31.1101 7.1005 30.9431 6.74881 31.0247Z" fill="#0369CA"></path><path d="M16.1603 32.543C16.5859 32.543 16.9299 32.1983 16.9299 31.7735C16.9299 31.3487 16.5859 31.0039 16.1603 31.0039H13.0821C12.6573 31.0039 12.3125 31.3487 12.3125 31.7735V37.93C12.3125 38.3548 12.6573 38.6995 13.0821 38.6995C13.5069 38.6995 13.8516 38.3548 13.8516 37.93V35.6213H15.3907C15.8163 35.6213 16.1603 35.2765 16.1603 34.8517C16.1603 34.4269 15.8163 34.0822 15.3907 34.0822H13.8516V32.543H16.1603Z" fill="#0369CA"></path><path d="M22.3166 31.0039H19.2383C18.8127 31.0039 18.4688 31.3487 18.4688 31.7735C18.4688 32.1983 18.8127 32.543 19.2383 32.543H20.0079V37.93C20.0079 38.3548 20.3519 38.6995 20.7774 38.6995C21.203 38.6995 21.547 38.3548 21.547 37.93V32.543H22.3166C22.7421 32.543 23.0861 32.1983 23.0861 31.7735C23.0861 31.3487 22.7421 31.0039 22.3166 31.0039Z" fill="#0369CA"></path><path d="M14.2819 24.9769C14.0233 24.8046 13.687 24.8046 13.4285 24.9769L8.81111 28.0552C8.45788 28.2907 8.36245 28.7686 8.59794 29.1226C8.83342 29.4758 9.31055 29.5712 9.66532 29.3357L13.8548 26.5422L18.0451 29.3357C18.1767 29.4235 18.3252 29.465 18.4714 29.465C18.72 29.465 18.9647 29.345 19.1125 29.1226C19.3487 28.7693 19.2533 28.2907 18.8993 28.0552L14.2819 24.9769Z" fill="#0369CA"></path><path d="M8.59794 40.5823C8.36245 40.9355 8.45788 41.4142 8.81111 41.6497L13.4285 44.7279C13.5578 44.8141 13.7071 44.8572 13.8556 44.8572C14.0041 44.8572 14.1534 44.8141 14.2827 44.7279L18.9001 41.6497C19.2541 41.4142 19.3495 40.9363 19.1132 40.5823C18.8777 40.2291 18.3998 40.1321 18.0458 40.3691L13.8556 43.1626L9.66532 40.3691C9.31055 40.1321 8.83342 40.2291 8.59794 40.5823Z" fill="#0369CA"></path></svg>