<svg xmlns="http://www.w3.org/2000/svg" width="67" height="71" viewBox="0 0 67 71" fill="none"><path d="M29.0329 30.7688V40.2313C29.0329 40.545 28.9083 40.8459 28.6864 41.0677C28.4646 41.2895 28.1638 41.4142 27.8501 41.4142C27.6436 41.4129 27.4411 41.3577 27.2627 41.2539C27.0842 41.1502 26.936 41.0015 26.8328 40.8227L21.936 34.3172V40.2313C21.936 40.545 21.8113 40.8459 21.5895 41.0677C21.3677 41.2895 21.0668 41.4142 20.7531 41.4142C20.4394 41.4142 20.1386 41.2895 19.9168 41.0677C19.6949 40.8459 19.5703 40.545 19.5703 40.2313V30.7688C19.5703 30.4551 19.6949 30.1542 19.9168 29.9324C20.1386 29.7106 20.4394 29.5859 20.7531 29.5859C20.9596 29.5872 21.1621 29.6424 21.3405 29.7462C21.519 29.8499 21.6672 29.9986 21.7704 30.1773L26.6672 36.6829V30.7688C26.6672 30.4551 26.7919 30.1542 27.0137 29.9324C27.2355 29.7106 27.5364 29.5859 27.8501 29.5859C28.1638 29.5859 28.4646 29.7106 28.6864 29.9324C28.9083 30.1542 29.0329 30.4551 29.0329 30.7688Z" fill="#0458B9"></path><path d="M37.3125 31.9516C37.6262 31.9516 37.9271 31.827 38.1489 31.6051C38.3707 31.3833 38.4954 31.0825 38.4954 30.7688C38.4954 30.4551 38.3707 30.1542 38.1489 29.9324C37.9271 29.7106 37.6262 29.5859 37.3125 29.5859H32.5813C32.2676 29.5859 31.9667 29.7106 31.7449 29.9324C31.5231 30.1542 31.3984 30.4551 31.3984 30.7688V40.2313C31.3984 40.545 31.5231 40.8459 31.7449 41.0677C31.9667 41.2895 32.2676 41.4142 32.5813 41.4142C32.895 41.4142 33.1958 41.2895 33.4176 41.0677C33.6395 40.8459 33.7641 40.545 33.7641 40.2313V36.6829H37.3125C37.6262 36.6829 37.9271 36.5582 38.1489 36.3364C38.3707 36.1146 38.4954 35.8137 38.4954 35.5C38.4954 35.1863 38.3707 34.8855 38.1489 34.6637C37.9271 34.4418 37.6262 34.3172 37.3125 34.3172H33.7641V31.9516H37.3125Z" fill="#0458B9"></path><path d="M44.4078 41.4142C44.7215 41.4142 45.0224 41.2895 45.2442 41.0677C45.466 40.8459 45.5907 40.545 45.5907 40.2313V31.9516H46.7735C47.0872 31.9516 47.388 31.827 47.6099 31.6051C47.8317 31.3833 47.9563 31.0825 47.9563 30.7688C47.9563 30.4551 47.8317 30.1542 47.6099 29.9324C47.388 29.7106 47.0872 29.5859 46.7735 29.5859H42.0422C41.7285 29.5859 41.4276 29.7106 41.2058 29.9324C40.984 30.1542 40.8594 30.4551 40.8594 30.7688C40.8594 31.0825 40.984 31.3833 41.2058 31.6051C41.4276 31.827 41.7285 31.9516 42.0422 31.9516H43.225V40.2313C43.225 40.545 43.3496 40.8459 43.5715 41.0677C43.7933 41.2895 44.0941 41.4142 44.4078 41.4142Z" fill="#0458B9"></path><path d="M5.37582 16.5752H0.644531V21.3065H5.37582V16.5752Z" fill="#0458B9"></path><path d="M65.7 56.791H60.9688V61.5223H65.7V56.791Z" fill="#0458B9"></path><path d="M62.151 36.6828C61.1047 36.6862 60.0891 37.0363 59.263 37.6784C58.4368 38.3204 57.8469 39.2182 57.5853 40.2313H52.6884V30.7687H57.5853C57.8732 31.8837 58.5578 32.8554 59.5109 33.5017C60.464 34.1481 61.6201 34.4246 62.7625 34.2795C63.9049 34.1344 64.9551 33.5776 65.7164 32.7135C66.4776 31.8495 66.8976 30.7375 66.8976 29.5859C66.8976 28.4343 66.4776 27.3223 65.7164 26.4582C64.9551 25.5942 63.9049 25.0374 62.7625 24.8923C61.6201 24.7472 60.464 25.0237 59.5109 25.67C58.5578 26.3163 57.8732 27.2881 57.5853 28.4031H52.6884V27.303C52.6833 26.2559 52.4003 25.2289 51.8683 24.327C51.3363 23.4251 50.5744 22.6806 49.6604 22.1696L45.5915 19.9222V14.6942L47.9571 12.3285C48.9652 12.9162 50.153 13.1157 51.2978 12.8897C52.4425 12.6637 53.4654 12.0276 54.1744 11.1009C54.8834 10.1742 55.2298 9.02052 55.1486 7.85651C55.0674 6.6925 54.5641 5.59816 53.7332 4.77891C52.9023 3.95966 51.801 3.47184 50.636 3.407C49.4709 3.34217 48.3223 3.70478 47.4057 4.42678C46.489 5.14878 45.8674 6.18052 45.6575 7.32832C45.4476 8.47613 45.6639 9.66108 46.2657 10.6607L43.5689 13.3458C43.4564 13.4591 43.368 13.594 43.309 13.7424C43.2501 13.8908 43.2218 14.0496 43.2258 14.2092V18.6093L36.5902 14.9307C36.0745 14.6533 35.5204 14.454 34.9461 14.3393V9.31233C36.0611 9.02444 37.0328 8.33978 37.6791 7.38669C38.3254 6.4336 38.6019 5.27751 38.4568 4.13512C38.3117 2.99274 37.755 1.94249 36.8909 1.18124C36.0269 0.419987 34.9148 0 33.7633 0C32.6117 0 31.4997 0.419987 30.6356 1.18124C29.7715 1.94249 29.2148 2.99274 29.0697 4.13512C28.9246 5.27751 29.2011 6.4336 29.8474 7.38669C30.4937 8.33978 31.4654 9.02444 32.5804 9.31233V14.3393C32.0043 14.4534 31.4495 14.657 30.9363 14.9426L24.3007 18.6093V14.2092C24.3016 14.0535 24.2718 13.8992 24.2129 13.7551C24.154 13.611 24.0673 13.4799 23.9577 13.3694L21.2608 10.6607C21.8534 9.65644 22.0593 8.47047 21.8399 7.32519C21.6206 6.17991 20.991 5.15398 20.0692 4.43973C19.1475 3.72549 17.9968 3.37199 16.833 3.4455C15.6693 3.51901 14.5723 4.0145 13.7477 4.83905C12.9232 5.66361 12.4277 6.76061 12.3542 7.92439C12.2806 9.08817 12.6341 10.2388 13.3484 11.1606C14.0626 12.0823 15.0886 12.7119 16.2338 12.9313C17.3791 13.1507 18.5651 12.9448 19.5694 12.3522L21.935 14.7178V19.9459L18.5522 21.8266C18.2793 21.9834 18.0798 22.2423 17.9977 22.5462C17.9157 22.8501 17.9577 23.1741 18.1145 23.447C18.2714 23.72 18.5302 23.9194 18.8341 24.0015C19.138 24.0836 19.4621 24.0415 19.735 23.8847L32.1191 17.0362C32.6384 16.7546 33.2198 16.6071 33.8106 16.6071C34.4013 16.6071 34.9827 16.7546 35.502 17.0362L48.5131 24.2632C49.0542 24.5673 49.5062 25.0081 49.8238 25.5415C50.1413 26.0749 50.3134 26.6823 50.3228 27.303V43.697C50.3187 44.3205 50.1504 44.932 49.8347 45.4699C49.5191 46.0077 49.0673 46.4528 48.5249 46.7605L35.5138 53.9875C34.9945 54.2691 34.4131 54.4166 33.8224 54.4166C33.2317 54.4166 32.6503 54.2691 32.131 53.9875L19.1199 46.7605C18.5554 46.4683 18.0798 46.0298 17.7427 45.4909C17.4056 44.952 17.2195 44.3324 17.2038 43.697V27.303C17.198 27.1237 17.2179 26.9445 17.2629 26.7708C17.3319 26.4571 17.2735 26.1288 17.1005 25.8582C16.9274 25.5876 16.654 25.3967 16.3403 25.3277C16.0266 25.2587 15.6983 25.3172 15.4277 25.4902C15.1571 25.6632 14.9663 25.9366 14.8973 26.2503C14.8243 26.5964 14.7886 26.9493 14.7908 27.303V28.4031H9.94124C9.65335 27.2881 8.96869 26.3163 8.0156 25.67C7.06251 25.0237 5.90641 24.7472 4.76403 24.8923C3.62164 25.0374 2.57139 25.5942 1.81014 26.4582C1.04889 27.3223 0.628906 28.4343 0.628906 29.5859C0.628906 30.7375 1.04889 31.8495 1.81014 32.7135C2.57139 33.5776 3.62164 34.1344 4.76403 34.2795C5.90641 34.4246 7.06251 34.1481 8.0156 33.5017C8.96869 32.8554 9.65335 31.8837 9.94124 30.7687H14.8381V40.2313H9.94124C9.65335 39.1163 8.96869 38.1446 8.0156 37.4983C7.06251 36.8519 5.90641 36.5754 4.76403 36.7205C3.62164 36.8656 2.57139 37.4224 1.81014 38.2865C1.04889 39.1505 0.628906 40.2625 0.628906 41.4141C0.628906 42.5657 1.04889 43.6777 1.81014 44.5418C2.57139 45.4058 3.62164 45.9626 4.76403 46.1077C5.90641 46.2528 7.06251 45.9763 8.0156 45.33C8.96869 44.6836 9.65335 43.7119 9.94124 42.5969H14.8381V43.697C14.8432 44.7441 15.1262 45.7711 15.6582 46.673C16.1902 47.5749 16.9522 48.3194 17.8661 48.8304L21.935 51.0778V56.3058L19.5694 58.6715C18.5614 58.0838 17.3735 57.8843 16.2287 58.1103C15.084 58.3363 14.0611 58.9724 13.3521 59.8991C12.6431 60.8258 12.2967 61.9795 12.3779 63.1435C12.4592 64.3075 12.9625 65.4018 13.7933 66.2211C14.6242 67.0403 15.7255 67.5282 16.8906 67.593C18.0556 67.6578 19.2042 67.2952 20.1209 66.5732C21.0375 65.8512 21.6591 64.8195 21.869 63.6717C22.0789 62.5239 21.8627 61.3389 21.2608 60.3392L23.9577 57.6542C24.0702 57.5409 24.1586 57.406 24.2175 57.2576C24.2765 57.1092 24.3048 56.9504 24.3007 56.7908V52.3907L30.9363 56.0693C31.4521 56.3467 32.0061 56.546 32.5804 56.6607V61.6877C31.4654 61.9756 30.4937 62.6602 29.8474 63.6133C29.2011 64.5664 28.9246 65.7225 29.0697 66.8649C29.2148 68.0073 29.7715 69.0575 30.6356 69.8188C31.4997 70.58 32.6117 71 33.7633 71C34.9148 71 36.0269 70.58 36.8909 69.8188C37.755 69.0575 38.3117 68.0073 38.4568 66.8649C38.6019 65.7225 38.3254 64.5664 37.6791 63.6133C37.0328 62.6602 36.0611 61.9756 34.9461 61.6877V56.6607C35.5222 56.5466 36.077 56.343 36.5902 56.0574L43.2258 52.3907V56.7908C43.2249 56.9465 43.2548 57.1008 43.3136 57.2449C43.3725 57.389 43.4592 57.5201 43.5689 57.6306L46.2657 60.3392C45.6731 61.3436 45.4672 62.5295 45.6866 63.6748C45.9059 64.8201 46.5355 65.846 47.4573 66.5603C48.3791 67.2745 49.5297 67.628 50.6935 67.5545C51.8573 67.481 52.9543 66.9855 53.7788 66.1609C54.6034 65.3364 55.0989 64.2394 55.1724 63.0756C55.2459 61.9118 54.8924 60.7612 54.1781 59.8394C53.4639 58.9177 52.438 58.2881 51.2927 58.0687C50.1474 57.8493 48.9614 58.0552 47.9571 58.6478L45.5915 56.2822V51.0778L49.6722 48.8186C50.5823 48.307 51.3407 47.5637 51.8705 46.6642C52.4002 45.7646 52.6824 44.7409 52.6884 43.697V42.5969H57.5853C57.8067 43.4544 58.2643 44.2325 58.906 44.8427C59.5478 45.4529 60.3479 45.8708 61.2154 46.0488C62.0828 46.2268 62.9829 46.1578 63.8131 45.8495C64.6433 45.5413 65.3703 45.0063 65.9114 44.3053C66.4526 43.6043 66.7862 42.7655 66.8742 41.8844C66.9622 41.0032 66.8012 40.115 66.4094 39.3208C66.0176 38.5266 65.4107 37.8584 64.6579 37.392C63.9051 36.9257 63.0365 36.6799 62.151 36.6828ZM62.151 27.2202C62.6189 27.2202 63.0762 27.359 63.4653 27.6189C63.8543 27.8789 64.1575 28.2483 64.3365 28.6806C64.5156 29.1129 64.5624 29.5885 64.4712 30.0474C64.3799 30.5063 64.1546 30.9278 63.8237 31.2587C63.4929 31.5895 63.0714 31.8148 62.6125 31.9061C62.1536 31.9974 61.678 31.9505 61.2457 31.7715C60.8134 31.5924 60.444 31.2892 60.184 30.9002C59.9241 30.5111 59.7853 30.0538 59.7853 29.5859C59.7853 28.9585 60.0346 28.3568 60.4782 27.9131C60.9219 27.4695 61.5236 27.2202 62.151 27.2202ZM50.3228 5.92946C50.7113 5.92977 51.0938 6.02578 51.4364 6.209C51.779 6.39222 52.0713 6.65702 52.2873 6.97999C52.5033 7.30296 52.6364 7.67416 52.6749 8.06079C52.7134 8.44742 52.656 8.83758 52.5079 9.19679C52.3598 9.556 52.1255 9.8732 51.8258 10.1204C51.526 10.3675 51.1699 10.5371 50.7891 10.614C50.4082 10.6909 50.0143 10.6728 49.6421 10.5613C49.2699 10.4498 48.9308 10.2483 48.655 9.97471C48.3221 9.64454 48.0948 9.22288 48.002 8.76329C47.9092 8.3037 47.9551 7.8269 48.1338 7.39342C48.3125 6.95995 48.616 6.58936 49.0058 6.32871C49.3955 6.06805 49.8539 5.92909 50.3228 5.92946ZM14.8381 8.29511C14.8384 7.90656 14.9344 7.52408 15.1177 7.18145C15.3009 6.83882 15.5657 6.5466 15.8886 6.3306C16.2116 6.1146 16.5828 5.98147 16.9694 5.94299C17.3561 5.9045 17.7462 5.96184 18.1054 6.10994C18.4647 6.25803 18.7819 6.49232 19.029 6.79211C19.2762 7.0919 19.4457 7.44796 19.5226 7.82881C19.5995 8.20967 19.5814 8.6036 19.4699 8.97581C19.3584 9.34801 19.157 9.68702 18.8834 9.96288C18.5532 10.2958 18.1315 10.5231 17.6719 10.6158C17.2124 10.7086 16.7356 10.6628 16.3021 10.4841C15.8686 10.3053 15.498 10.0019 15.2374 9.61211C14.9767 9.22238 14.8377 8.76397 14.8381 8.29511ZM31.3976 4.74664C31.3976 4.27876 31.5364 3.82139 31.7963 3.43236C32.0562 3.04333 32.4257 2.74012 32.858 2.56107C33.2902 2.38202 33.7659 2.33518 34.2248 2.42645C34.6837 2.51773 35.1052 2.74304 35.436 3.07388C35.7669 3.40472 35.9922 3.82624 36.0835 4.28513C36.1747 4.74402 36.1279 5.21967 35.9488 5.65194C35.7698 6.0842 35.4666 6.45366 35.0775 6.7136C34.6885 6.97354 34.2311 7.11229 33.7633 7.11229C33.1359 7.11229 32.5341 6.86305 32.0905 6.4194C31.6469 5.97576 31.3976 5.37405 31.3976 4.74664ZM5.37555 31.9515C4.90767 31.9515 4.4503 31.8128 4.06127 31.5529C3.67224 31.2929 3.36903 30.9235 3.18998 30.4912C3.01093 30.0589 2.96408 29.5833 3.05536 29.1244C3.14664 28.6655 3.37195 28.244 3.70279 27.9131C4.03363 27.5823 4.45515 27.357 4.91403 27.2657C5.37292 27.1744 5.84858 27.2213 6.28084 27.4003C6.71311 27.5794 7.08257 27.8826 7.34251 28.2716C7.60245 28.6606 7.74119 29.118 7.74119 29.5859C7.74119 30.2133 7.49195 30.815 7.04831 31.2587C6.60467 31.7023 6.00296 31.9515 5.37555 31.9515ZM5.37555 43.7798C4.90767 43.7798 4.4503 43.641 4.06127 43.3811C3.67224 43.1211 3.36903 42.7517 3.18998 42.3194C3.01093 41.8871 2.96408 41.4115 3.05536 40.9526C3.14664 40.4937 3.37195 40.0722 3.70279 39.7413C4.03363 39.4105 4.45515 39.1852 4.91403 39.0939C5.37292 39.0026 5.84858 39.0495 6.28084 39.2285C6.71311 39.4076 7.08257 39.7108 7.34251 40.0998C7.60245 40.4888 7.74119 40.9462 7.74119 41.4141C7.74119 42.0415 7.49195 42.6432 7.04831 43.0869C6.60467 43.5305 6.00296 43.7798 5.37555 43.7798ZM17.2038 65.0705C16.8152 65.0702 16.4327 64.9742 16.0901 64.791C15.7475 64.6078 15.4553 64.343 15.2393 64.02C15.0233 63.697 14.8901 63.3258 14.8516 62.9392C14.8132 62.5526 14.8705 62.1624 15.0186 61.8032C15.1667 61.444 15.401 61.1268 15.7008 60.8796C16.0006 60.6325 16.3566 60.4629 16.7375 60.386C17.1183 60.3091 17.5123 60.3272 17.8845 60.4387C18.2567 60.5502 18.5957 60.7517 18.8715 61.0253C19.2044 61.3555 19.4317 61.7771 19.5245 62.2367C19.6173 62.6963 19.5714 63.1731 19.3927 63.6066C19.214 64.04 18.9105 64.4106 18.5208 64.6713C18.131 64.932 17.6726 65.0709 17.2038 65.0705ZM36.1289 66.2534C36.1289 66.7212 35.9902 67.1786 35.7302 67.5676C35.4703 67.9567 35.1008 68.2599 34.6686 68.4389C34.2363 68.618 33.7606 68.6648 33.3017 68.5735C32.8429 68.4823 32.4213 68.257 32.0905 67.9261C31.7597 67.5953 31.5344 67.1738 31.4431 66.7149C31.3518 66.256 31.3986 65.7803 31.5777 65.3481C31.7567 64.9158 32.06 64.5463 32.449 64.2864C32.838 64.0265 33.2954 63.8877 33.7633 63.8877C34.3907 63.8877 34.9924 64.1369 35.436 64.5806C35.8797 65.0242 36.1289 65.6259 36.1289 66.2534ZM52.6884 62.7049C52.6881 63.0934 52.5921 63.4759 52.4089 63.8185C52.2256 64.1612 51.9608 64.4534 51.6379 64.6694C51.3149 64.8854 50.9437 65.0185 50.5571 65.057C50.1704 65.0955 49.7803 65.0382 49.4211 64.8901C49.0619 64.742 48.7447 64.5077 48.4975 64.2079C48.2503 63.9081 48.0808 63.552 48.0039 63.1712C47.927 62.7903 47.9451 62.3964 48.0566 62.0242C48.1681 61.652 48.3695 61.313 48.6432 61.0371C48.9733 60.7042 49.395 60.4769 49.8546 60.3842C50.3142 60.2914 50.791 60.3372 51.2244 60.5159C51.6579 60.6947 52.0285 60.9981 52.2892 61.3879C52.5498 61.7776 52.6888 62.236 52.6884 62.7049ZM62.151 43.7798C61.6831 43.7798 61.2257 43.641 60.8367 43.3811C60.4477 43.1211 60.1445 42.7517 59.9654 42.3194C59.7864 41.8871 59.7395 41.4115 59.8308 40.9526C59.9221 40.4937 60.1474 40.0722 60.4782 39.7413C60.8091 39.4105 61.2306 39.1852 61.6895 39.0939C62.1483 39.0026 62.624 39.0495 63.0563 39.2285C63.4885 39.4076 63.858 39.7108 64.1179 40.0998C64.3779 40.4888 64.5166 40.9462 64.5166 41.4141C64.5166 42.0415 64.2674 42.6432 63.8237 43.0869C63.3801 43.5305 62.7784 43.7798 62.151 43.7798Z" fill="#0458B9"></path></svg>