<svg xmlns="http://www.w3.org/2000/svg" width="84" height="84" viewBox="0 0 84 84" fill="none"><path d="M24.8015 83.1495H59.2001C60.7217 83.1495 61.9592 81.912 61.9592 80.3904C61.9592 78.8688 60.7217 77.6312 59.2001 77.6312H24.8015C23.2799 77.6312 22.0424 78.8688 22.0424 80.3904C22.0424 81.912 23.2799 83.1495 24.8015 83.1495ZM23.8333 80.3904C23.8333 79.8575 24.2686 79.4222 24.8015 79.4222H59.2001C59.733 79.4222 60.1683 79.8575 60.1683 80.3904C60.1683 80.9233 59.733 81.3586 59.2001 81.3586H24.8015C24.2686 81.3586 23.8333 80.9233 23.8333 80.3904Z" fill="#0369CA" stroke="#0369CA" stroke-width="0.3"></path><path d="M32.9843 79.0775L32.984 79.0771C32.8137 78.8566 32.7566 78.5718 32.8262 78.3023L32.8264 78.3019L34.6363 71.3795L34.6364 71.3792C34.7402 70.9856 35.0947 70.7113 35.5016 70.7113H48.0686C48.4765 70.7113 48.8315 70.9853 48.9338 71.3795L48.9338 71.3795L48.7887 71.4174L48.9339 71.3798L32.9843 79.0775ZM32.9843 79.0775C33.1542 79.2956 33.4154 79.4246 33.6931 79.4246H49.8801M32.9843 79.0775L49.8801 79.4246M50.5878 79.0769C50.5878 79.077 50.5877 79.077 50.5877 79.0771L50.469 78.9854L50.5878 79.0769ZM50.5878 79.0769C50.4192 79.2957 50.1576 79.4246 49.8801 79.4246M50.5878 79.0769L49.8801 79.4246M32.9715 78.3398L34.7815 71.4174L33.1027 78.9854C32.961 78.802 32.9133 78.5649 32.9715 78.3398ZM48.7197 77.6337H34.8519L36.1929 72.5023H47.3773L48.7197 77.6337Z" fill="#0369CA" stroke="#0369CA" stroke-width="0.3"></path><path d="M7.70916 72.5058H76.2917C80.0735 72.5058 83.1509 69.43 83.1509 65.6467V19.1447C83.1509 15.3629 80.0736 12.2855 76.2917 12.2855H68.4644C67.97 12.2855 67.5689 12.6867 67.5689 13.181C67.5689 13.6753 67.97 14.0765 68.4644 14.0765H76.2917C79.0864 14.0765 81.36 16.3501 81.36 19.1447V65.6467C81.36 68.4413 79.0864 70.7149 76.2917 70.7149H7.70916C4.91452 70.7149 2.64093 68.4413 2.64093 65.6467V19.1447C2.64093 16.3501 4.91452 14.0765 7.70916 14.0765H15.5365C16.0309 14.0765 16.432 13.6753 16.432 13.181C16.432 12.6867 16.0309 12.2855 15.5365 12.2855H7.70916C3.92734 12.2855 0.85 15.3629 0.85 19.1447V65.6467C0.85 69.4285 3.92734 72.5058 7.70916 72.5058Z" fill="#0369CA" stroke="#0369CA" stroke-width="0.3"></path><path d="M7.70778 62.3214H76.2903C78.4292 62.3214 80.1677 60.5829 80.1677 58.4441V19.1433C80.1677 17.0045 78.4292 15.266 76.2903 15.266H68.463C67.9686 15.266 67.5675 15.6671 67.5675 16.1615C67.5675 16.6558 67.9686 17.0569 68.463 17.0569H76.2903C77.4405 17.0569 78.3767 17.9932 78.3767 19.1433V58.4441C78.3767 59.5943 77.4405 60.5305 76.2903 60.5305H7.70778C6.55763 60.5305 5.62139 59.5943 5.62139 58.4441V19.1433C5.62139 17.9932 6.55763 17.0569 7.70778 17.0569H15.5351C16.0295 17.0569 16.4306 16.6558 16.4306 16.1615C16.4306 15.6671 16.0295 15.266 15.5351 15.266H7.70778C5.56895 15.266 3.83047 17.0045 3.83047 19.1433V58.4441C3.83047 60.5829 5.56895 62.3214 7.70778 62.3214Z" fill="#0369CA" stroke="#0369CA" stroke-width="0.3"></path><path d="M14.7928 19.4837H15.5383C15.724 19.4837 15.8746 19.333 15.8746 19.1473C15.8746 18.9616 15.724 18.8109 15.5383 18.8109H14.7928C14.6071 18.8109 14.4564 18.9616 14.4564 19.1473C14.4564 19.333 14.6071 19.4837 14.7928 19.4837Z" fill="#0369CA" stroke="#0369CA" stroke-width="0.3"></path><mask id="path-6-outside-1_314_395" maskUnits="userSpaceOnUse" x="6.52246" y="17.9609" width="17" height="41" fill="black"><rect fill="white" x="6.52246" y="17.9609" width="17" height="41"></rect><path d="M22.1559 58.6345H20.6635C20.5606 58.6345 20.4771 58.551 20.4771 58.4481C20.4771 58.3452 20.5606 58.2617 20.6635 58.2617H22.1559C22.2588 58.2617 22.3423 58.3452 22.3423 58.4481C22.3423 58.551 22.2603 58.6345 22.1559 58.6345ZM19.1711 58.6345H17.6786C17.5758 58.6345 17.4923 58.551 17.4923 58.4481C17.4923 58.3452 17.5758 58.2617 17.6786 58.2617H19.1711C19.2739 58.2617 19.3574 58.3452 19.3574 58.4481C19.3574 58.551 19.2754 58.6345 19.1711 58.6345ZM16.1877 58.6345H14.6953C14.5924 58.6345 14.5089 58.551 14.5089 58.4481C14.5089 58.3452 14.5924 58.2617 14.6953 58.2617H16.1877C16.2906 58.2617 16.3741 58.3452 16.3741 58.4481C16.3741 58.551 16.2906 58.6345 16.1877 58.6345ZM13.2029 58.6345H11.7105C11.6076 58.6345 11.5241 58.551 11.5241 58.4481C11.5241 58.3452 11.6076 58.2617 11.7105 58.2617H13.2029C13.3058 58.2617 13.3893 58.3452 13.3893 58.4481C13.3893 58.551 13.3058 58.6345 13.2029 58.6345ZM10.2181 58.6345H9.02084C8.90455 58.633 8.79422 58.6196 8.68538 58.5957C8.58549 58.5718 8.52287 58.472 8.54524 58.3721C8.56909 58.2737 8.66004 58.2095 8.76888 58.2319C8.85088 58.2513 8.93437 58.2617 9.02233 58.2632H10.2166C10.3194 58.2632 10.4029 58.3467 10.4029 58.4496C10.4029 58.5525 10.3209 58.6345 10.2181 58.6345ZM7.73865 57.5878C7.65217 57.5878 7.57464 57.5282 7.55675 57.4387C7.53439 57.3344 7.52395 57.227 7.52395 57.1197V55.9105C7.52395 55.8077 7.60744 55.7242 7.71032 55.7242C7.81319 55.7242 7.89668 55.8077 7.89668 55.9105V57.1197C7.89668 57.2017 7.90563 57.2822 7.92203 57.3627C7.94439 57.4626 7.87879 57.5625 7.77741 57.5819C7.7625 57.5863 7.75057 57.5878 7.73865 57.5878ZM7.70883 54.606C7.60595 54.606 7.52246 54.5225 7.52246 54.4196V52.9257C7.52246 52.8228 7.60595 52.7393 7.70883 52.7393C7.8117 52.7393 7.89519 52.8228 7.89519 52.9257V54.4196C7.89519 54.5225 7.8117 54.606 7.70883 54.606ZM7.70883 51.6197C7.60595 51.6197 7.52246 51.5362 7.52246 51.4333V49.9409C7.52246 49.838 7.60595 49.7545 7.70883 49.7545C7.8117 49.7545 7.89519 49.838 7.89519 49.9409V51.4333C7.89519 51.5377 7.8117 51.6197 7.70883 51.6197ZM7.70883 48.6348C7.60595 48.6348 7.52246 48.5513 7.52246 48.4485V46.956C7.52246 46.8532 7.60595 46.7697 7.70883 46.7697C7.8117 46.7697 7.89519 46.8532 7.89519 46.956V48.4485C7.89519 48.5528 7.8117 48.6348 7.70883 48.6348ZM7.70883 45.65C7.60595 45.65 7.52246 45.5665 7.52246 45.4636V43.9712C7.52246 43.8683 7.60595 43.7848 7.70883 43.7848C7.8117 43.7848 7.89519 43.8683 7.89519 43.9712V45.4636C7.89519 45.568 7.8117 45.65 7.70883 45.65ZM7.70883 42.6652C7.60595 42.6652 7.52246 42.5817 7.52246 42.4788V40.9864C7.52246 40.8835 7.60595 40.8 7.70883 40.8C7.8117 40.8 7.89519 40.8835 7.89519 40.9864V42.4788C7.89519 42.5832 7.8117 42.6652 7.70883 42.6652ZM7.70883 39.6803C7.60595 39.6803 7.52246 39.5968 7.52246 39.494V38.0015C7.52246 37.8987 7.60595 37.8152 7.70883 37.8152C7.8117 37.8152 7.89519 37.8987 7.89519 38.0015V39.494C7.89519 39.5983 7.8117 39.6803 7.70883 39.6803ZM7.70883 36.6955C7.60595 36.6955 7.52246 36.612 7.52246 36.5091V35.0167C7.52246 34.9138 7.60595 34.8303 7.70883 34.8303C7.8117 34.8303 7.89519 34.9138 7.89519 35.0167V36.5091C7.89519 36.6135 7.8117 36.6955 7.70883 36.6955ZM7.70883 33.7107C7.60595 33.7107 7.52246 33.6272 7.52246 33.5243V32.0319C7.52246 31.929 7.60595 31.8455 7.70883 31.8455C7.8117 31.8455 7.89519 31.929 7.89519 32.0319V33.5243C7.89519 33.6287 7.8117 33.7107 7.70883 33.7107ZM7.70883 30.7273C7.60595 30.7273 7.52246 30.6438 7.52246 30.541V29.0485C7.52246 28.9457 7.60595 28.8622 7.70883 28.8622C7.8117 28.8622 7.89519 28.9457 7.89519 29.0485V30.541C7.89519 30.6438 7.8117 30.7273 7.70883 30.7273ZM7.70883 27.7425C7.60595 27.7425 7.52246 27.659 7.52246 27.5561V26.0637C7.52246 25.9608 7.60595 25.8773 7.70883 25.8773C7.8117 25.8773 7.89519 25.9608 7.89519 26.0637V27.5561C7.89519 27.659 7.8117 27.7425 7.70883 27.7425ZM7.70883 24.7577C7.60595 24.7577 7.52246 24.6742 7.52246 24.5713V23.0789C7.52246 22.976 7.60595 22.8925 7.70883 22.8925C7.8117 22.8925 7.89519 22.976 7.89519 23.0789V24.5713C7.89519 24.6742 7.8117 24.7577 7.70883 24.7577ZM7.70883 21.7728C7.60595 21.7728 7.52246 21.6893 7.52246 21.5865V20.4593C7.52395 20.3162 7.54482 20.179 7.5821 20.0478C7.61043 19.9494 7.71479 19.8957 7.81319 19.9211C7.91159 19.9509 7.96825 20.0538 7.93992 20.1522C7.9101 20.2491 7.89668 20.355 7.89519 20.4623V21.5865C7.89519 21.6893 7.8117 21.7728 7.70883 21.7728ZM8.82106 19.3501C8.73011 19.3501 8.65109 19.2845 8.63767 19.1935C8.62127 19.0921 8.68986 18.9952 8.79273 18.9803C8.86877 18.9684 8.9448 18.9609 9.02084 18.9609H10.3135C10.4163 18.9609 10.4998 19.0444 10.4998 19.1473C10.4998 19.2502 10.4163 19.3337 10.3135 19.3337H9.02084C8.96419 19.3337 8.90604 19.3381 8.85088 19.3471C8.84044 19.3501 8.83 19.3501 8.82106 19.3501ZM13.2983 19.3337H11.8059C11.703 19.3337 11.6195 19.2502 11.6195 19.1473C11.6195 19.0444 11.703 18.9609 11.8059 18.9609H13.2983C13.4012 18.9609 13.4847 19.0444 13.4847 19.1473C13.4847 19.2502 13.4012 19.3337 13.2983 19.3337Z"></path></mask><path d="M22.1559 58.6345H20.6635C20.5606 58.6345 20.4771 58.551 20.4771 58.4481C20.4771 58.3452 20.5606 58.2617 20.6635 58.2617H22.1559C22.2588 58.2617 22.3423 58.3452 22.3423 58.4481C22.3423 58.551 22.2603 58.6345 22.1559 58.6345ZM19.1711 58.6345H17.6786C17.5758 58.6345 17.4923 58.551 17.4923 58.4481C17.4923 58.3452 17.5758 58.2617 17.6786 58.2617H19.1711C19.2739 58.2617 19.3574 58.3452 19.3574 58.4481C19.3574 58.551 19.2754 58.6345 19.1711 58.6345ZM16.1877 58.6345H14.6953C14.5924 58.6345 14.5089 58.551 14.5089 58.4481C14.5089 58.3452 14.5924 58.2617 14.6953 58.2617H16.1877C16.2906 58.2617 16.3741 58.3452 16.3741 58.4481C16.3741 58.551 16.2906 58.6345 16.1877 58.6345ZM13.2029 58.6345H11.7105C11.6076 58.6345 11.5241 58.551 11.5241 58.4481C11.5241 58.3452 11.6076 58.2617 11.7105 58.2617H13.2029C13.3058 58.2617 13.3893 58.3452 13.3893 58.4481C13.3893 58.551 13.3058 58.6345 13.2029 58.6345ZM10.2181 58.6345H9.02084C8.90455 58.633 8.79422 58.6196 8.68538 58.5957C8.58549 58.5718 8.52287 58.472 8.54524 58.3721C8.56909 58.2737 8.66004 58.2095 8.76888 58.2319C8.85088 58.2513 8.93437 58.2617 9.02233 58.2632H10.2166C10.3194 58.2632 10.4029 58.3467 10.4029 58.4496C10.4029 58.5525 10.3209 58.6345 10.2181 58.6345ZM7.73865 57.5878C7.65217 57.5878 7.57464 57.5282 7.55675 57.4387C7.53439 57.3344 7.52395 57.227 7.52395 57.1197V55.9105C7.52395 55.8077 7.60744 55.7242 7.71032 55.7242C7.81319 55.7242 7.89668 55.8077 7.89668 55.9105V57.1197C7.89668 57.2017 7.90563 57.2822 7.92203 57.3627C7.94439 57.4626 7.87879 57.5625 7.77741 57.5819C7.7625 57.5863 7.75057 57.5878 7.73865 57.5878ZM7.70883 54.606C7.60595 54.606 7.52246 54.5225 7.52246 54.4196V52.9257C7.52246 52.8228 7.60595 52.7393 7.70883 52.7393C7.8117 52.7393 7.89519 52.8228 7.89519 52.9257V54.4196C7.89519 54.5225 7.8117 54.606 7.70883 54.606ZM7.70883 51.6197C7.60595 51.6197 7.52246 51.5362 7.52246 51.4333V49.9409C7.52246 49.838 7.60595 49.7545 7.70883 49.7545C7.8117 49.7545 7.89519 49.838 7.89519 49.9409V51.4333C7.89519 51.5377 7.8117 51.6197 7.70883 51.6197ZM7.70883 48.6348C7.60595 48.6348 7.52246 48.5513 7.52246 48.4485V46.956C7.52246 46.8532 7.60595 46.7697 7.70883 46.7697C7.8117 46.7697 7.89519 46.8532 7.89519 46.956V48.4485C7.89519 48.5528 7.8117 48.6348 7.70883 48.6348ZM7.70883 45.65C7.60595 45.65 7.52246 45.5665 7.52246 45.4636V43.9712C7.52246 43.8683 7.60595 43.7848 7.70883 43.7848C7.8117 43.7848 7.89519 43.8683 7.89519 43.9712V45.4636C7.89519 45.568 7.8117 45.65 7.70883 45.65ZM7.70883 42.6652C7.60595 42.6652 7.52246 42.5817 7.52246 42.4788V40.9864C7.52246 40.8835 7.60595 40.8 7.70883 40.8C7.8117 40.8 7.89519 40.8835 7.89519 40.9864V42.4788C7.89519 42.5832 7.8117 42.6652 7.70883 42.6652ZM7.70883 39.6803C7.60595 39.6803 7.52246 39.5968 7.52246 39.494V38.0015C7.52246 37.8987 7.60595 37.8152 7.70883 37.8152C7.8117 37.8152 7.89519 37.8987 7.89519 38.0015V39.494C7.89519 39.5983 7.8117 39.6803 7.70883 39.6803ZM7.70883 36.6955C7.60595 36.6955 7.52246 36.612 7.52246 36.5091V35.0167C7.52246 34.9138 7.60595 34.8303 7.70883 34.8303C7.8117 34.8303 7.89519 34.9138 7.89519 35.0167V36.5091C7.89519 36.6135 7.8117 36.6955 7.70883 36.6955ZM7.70883 33.7107C7.60595 33.7107 7.52246 33.6272 7.52246 33.5243V32.0319C7.52246 31.929 7.60595 31.8455 7.70883 31.8455C7.8117 31.8455 7.89519 31.929 7.89519 32.0319V33.5243C7.89519 33.6287 7.8117 33.7107 7.70883 33.7107ZM7.70883 30.7273C7.60595 30.7273 7.52246 30.6438 7.52246 30.541V29.0485C7.52246 28.9457 7.60595 28.8622 7.70883 28.8622C7.8117 28.8622 7.89519 28.9457 7.89519 29.0485V30.541C7.89519 30.6438 7.8117 30.7273 7.70883 30.7273ZM7.70883 27.7425C7.60595 27.7425 7.52246 27.659 7.52246 27.5561V26.0637C7.52246 25.9608 7.60595 25.8773 7.70883 25.8773C7.8117 25.8773 7.89519 25.9608 7.89519 26.0637V27.5561C7.89519 27.659 7.8117 27.7425 7.70883 27.7425ZM7.70883 24.7577C7.60595 24.7577 7.52246 24.6742 7.52246 24.5713V23.0789C7.52246 22.976 7.60595 22.8925 7.70883 22.8925C7.8117 22.8925 7.89519 22.976 7.89519 23.0789V24.5713C7.89519 24.6742 7.8117 24.7577 7.70883 24.7577ZM7.70883 21.7728C7.60595 21.7728 7.52246 21.6893 7.52246 21.5865V20.4593C7.52395 20.3162 7.54482 20.179 7.5821 20.0478C7.61043 19.9494 7.71479 19.8957 7.81319 19.9211C7.91159 19.9509 7.96825 20.0538 7.93992 20.1522C7.9101 20.2491 7.89668 20.355 7.89519 20.4623V21.5865C7.89519 21.6893 7.8117 21.7728 7.70883 21.7728ZM8.82106 19.3501C8.73011 19.3501 8.65109 19.2845 8.63767 19.1935C8.62127 19.0921 8.68986 18.9952 8.79273 18.9803C8.86877 18.9684 8.9448 18.9609 9.02084 18.9609H10.3135C10.4163 18.9609 10.4998 19.0444 10.4998 19.1473C10.4998 19.2502 10.4163 19.3337 10.3135 19.3337H9.02084C8.96419 19.3337 8.90604 19.3381 8.85088 19.3471C8.84044 19.3501 8.83 19.3501 8.82106 19.3501ZM13.2983 19.3337H11.8059C11.703 19.3337 11.6195 19.2502 11.6195 19.1473C11.6195 19.0444 11.703 18.9609 11.8059 18.9609H13.2983C13.4012 18.9609 13.4847 19.0444 13.4847 19.1473C13.4847 19.2502 13.4012 19.3337 13.2983 19.3337Z" fill="#0369CA"></path><path d="M22.1559 58.6345H20.6635C20.5606 58.6345 20.4771 58.551 20.4771 58.4481C20.4771 58.3452 20.5606 58.2617 20.6635 58.2617H22.1559C22.2588 58.2617 22.3423 58.3452 22.3423 58.4481C22.3423 58.551 22.2603 58.6345 22.1559 58.6345ZM19.1711 58.6345H17.6786C17.5758 58.6345 17.4923 58.551 17.4923 58.4481C17.4923 58.3452 17.5758 58.2617 17.6786 58.2617H19.1711C19.2739 58.2617 19.3574 58.3452 19.3574 58.4481C19.3574 58.551 19.2754 58.6345 19.1711 58.6345ZM16.1877 58.6345H14.6953C14.5924 58.6345 14.5089 58.551 14.5089 58.4481C14.5089 58.3452 14.5924 58.2617 14.6953 58.2617H16.1877C16.2906 58.2617 16.3741 58.3452 16.3741 58.4481C16.3741 58.551 16.2906 58.6345 16.1877 58.6345ZM13.2029 58.6345H11.7105C11.6076 58.6345 11.5241 58.551 11.5241 58.4481C11.5241 58.3452 11.6076 58.2617 11.7105 58.2617H13.2029C13.3058 58.2617 13.3893 58.3452 13.3893 58.4481C13.3893 58.551 13.3058 58.6345 13.2029 58.6345ZM10.2181 58.6345H9.02084C8.90455 58.633 8.79422 58.6196 8.68538 58.5957C8.58549 58.5718 8.52287 58.472 8.54524 58.3721C8.56909 58.2737 8.66004 58.2095 8.76888 58.2319C8.85088 58.2513 8.93437 58.2617 9.02233 58.2632H10.2166C10.3194 58.2632 10.4029 58.3467 10.4029 58.4496C10.4029 58.5525 10.3209 58.6345 10.2181 58.6345ZM7.73865 57.5878C7.65217 57.5878 7.57464 57.5282 7.55675 57.4387C7.53439 57.3344 7.52395 57.227 7.52395 57.1197V55.9105C7.52395 55.8077 7.60744 55.7242 7.71032 55.7242C7.81319 55.7242 7.89668 55.8077 7.89668 55.9105V57.1197C7.89668 57.2017 7.90563 57.2822 7.92203 57.3627C7.94439 57.4626 7.87879 57.5625 7.77741 57.5819C7.7625 57.5863 7.75057 57.5878 7.73865 57.5878ZM7.70883 54.606C7.60595 54.606 7.52246 54.5225 7.52246 54.4196V52.9257C7.52246 52.8228 7.60595 52.7393 7.70883 52.7393C7.8117 52.7393 7.89519 52.8228 7.89519 52.9257V54.4196C7.89519 54.5225 7.8117 54.606 7.70883 54.606ZM7.70883 51.6197C7.60595 51.6197 7.52246 51.5362 7.52246 51.4333V49.9409C7.52246 49.838 7.60595 49.7545 7.70883 49.7545C7.8117 49.7545 7.89519 49.838 7.89519 49.9409V51.4333C7.89519 51.5377 7.8117 51.6197 7.70883 51.6197ZM7.70883 48.6348C7.60595 48.6348 7.52246 48.5513 7.52246 48.4485V46.956C7.52246 46.8532 7.60595 46.7697 7.70883 46.7697C7.8117 46.7697 7.89519 46.8532 7.89519 46.956V48.4485C7.89519 48.5528 7.8117 48.6348 7.70883 48.6348ZM7.70883 45.65C7.60595 45.65 7.52246 45.5665 7.52246 45.4636V43.9712C7.52246 43.8683 7.60595 43.7848 7.70883 43.7848C7.8117 43.7848 7.89519 43.8683 7.89519 43.9712V45.4636C7.89519 45.568 7.8117 45.65 7.70883 45.65ZM7.70883 42.6652C7.60595 42.6652 7.52246 42.5817 7.52246 42.4788V40.9864C7.52246 40.8835 7.60595 40.8 7.70883 40.8C7.8117 40.8 7.89519 40.8835 7.89519 40.9864V42.4788C7.89519 42.5832 7.8117 42.6652 7.70883 42.6652ZM7.70883 39.6803C7.60595 39.6803 7.52246 39.5968 7.52246 39.494V38.0015C7.52246 37.8987 7.60595 37.8152 7.70883 37.8152C7.8117 37.8152 7.89519 37.8987 7.89519 38.0015V39.494C7.89519 39.5983 7.8117 39.6803 7.70883 39.6803ZM7.70883 36.6955C7.60595 36.6955 7.52246 36.612 7.52246 36.5091V35.0167C7.52246 34.9138 7.60595 34.8303 7.70883 34.8303C7.8117 34.8303 7.89519 34.9138 7.89519 35.0167V36.5091C7.89519 36.6135 7.8117 36.6955 7.70883 36.6955ZM7.70883 33.7107C7.60595 33.7107 7.52246 33.6272 7.52246 33.5243V32.0319C7.52246 31.929 7.60595 31.8455 7.70883 31.8455C7.8117 31.8455 7.89519 31.929 7.89519 32.0319V33.5243C7.89519 33.6287 7.8117 33.7107 7.70883 33.7107ZM7.70883 30.7273C7.60595 30.7273 7.52246 30.6438 7.52246 30.541V29.0485C7.52246 28.9457 7.60595 28.8622 7.70883 28.8622C7.8117 28.8622 7.89519 28.9457 7.89519 29.0485V30.541C7.89519 30.6438 7.8117 30.7273 7.70883 30.7273ZM7.70883 27.7425C7.60595 27.7425 7.52246 27.659 7.52246 27.5561V26.0637C7.52246 25.9608 7.60595 25.8773 7.70883 25.8773C7.8117 25.8773 7.89519 25.9608 7.89519 26.0637V27.5561C7.89519 27.659 7.8117 27.7425 7.70883 27.7425ZM7.70883 24.7577C7.60595 24.7577 7.52246 24.6742 7.52246 24.5713V23.0789C7.52246 22.976 7.60595 22.8925 7.70883 22.8925C7.8117 22.8925 7.89519 22.976 7.89519 23.0789V24.5713C7.89519 24.6742 7.8117 24.7577 7.70883 24.7577ZM7.70883 21.7728C7.60595 21.7728 7.52246 21.6893 7.52246 21.5865V20.4593C7.52395 20.3162 7.54482 20.179 7.5821 20.0478C7.61043 19.9494 7.71479 19.8957 7.81319 19.9211C7.91159 19.9509 7.96825 20.0538 7.93992 20.1522C7.9101 20.2491 7.89668 20.355 7.89519 20.4623V21.5865C7.89519 21.6893 7.8117 21.7728 7.70883 21.7728ZM8.82106 19.3501C8.73011 19.3501 8.65109 19.2845 8.63767 19.1935C8.62127 19.0921 8.68986 18.9952 8.79273 18.9803C8.86877 18.9684 8.9448 18.9609 9.02084 18.9609H10.3135C10.4163 18.9609 10.4998 19.0444 10.4998 19.1473C10.4998 19.2502 10.4163 19.3337 10.3135 19.3337H9.02084C8.96419 19.3337 8.90604 19.3381 8.85088 19.3471C8.84044 19.3501 8.83 19.3501 8.82106 19.3501ZM13.2983 19.3337H11.8059C11.703 19.3337 11.6195 19.2502 11.6195 19.1473C11.6195 19.0444 11.703 18.9609 11.8059 18.9609H13.2983C13.4012 18.9609 13.4847 19.0444 13.4847 19.1473C13.4847 19.2502 13.4012 19.3337 13.2983 19.3337Z" stroke="#0369CA" stroke-width="0.6" mask="url(#path-6-outside-1_314_395)"></path><path d="M23.6776 58.7805H24.423C24.6088 58.7805 24.7594 58.6299 24.7594 58.4442C24.7594 58.2585 24.6088 58.1078 24.423 58.1078H23.6776C23.4919 58.1078 23.3412 58.2585 23.3412 58.4442C23.3412 58.6299 23.4919 58.7805 23.6776 58.7805Z" fill="#0369CA" stroke="#0369CA" stroke-width="0.3"></path><path d="M68.4657 19.4837H69.2111C69.3968 19.4837 69.5475 19.333 69.5475 19.1473C69.5475 18.9616 69.3968 18.8109 69.2111 18.8109H68.4657C68.2799 18.8109 68.1293 18.9616 68.1293 19.1473C68.1293 19.333 68.2799 19.4837 68.4657 19.4837Z" fill="#0369CA" stroke="#0369CA" stroke-width="0.3"></path><mask id="path-9-outside-2_314_395" maskUnits="userSpaceOnUse" x="60.6621" y="17.9609" width="17" height="41" fill="black"><rect fill="white" x="60.6621" y="17.9609" width="17" height="41"></rect><path d="M73.7863 58.6345C73.6834 58.6345 73.5999 58.551 73.5999 58.4481C73.5999 58.3452 73.6834 58.2617 73.7863 58.2617H74.9835C75.0685 58.2602 75.152 58.2498 75.234 58.2304C75.3399 58.2066 75.4353 58.2707 75.4576 58.3706C75.4815 58.4705 75.4189 58.5718 75.3175 58.5942C75.2101 58.6196 75.0998 58.6315 74.985 58.633L73.7863 58.6345ZM72.2939 58.6345H70.8015C70.6986 58.6345 70.6151 58.551 70.6151 58.4481C70.6151 58.3452 70.6986 58.2617 70.8015 58.2617H72.2939C72.3968 58.2617 72.4803 58.3452 72.4803 58.4481C72.4803 58.551 72.3983 58.6345 72.2939 58.6345ZM69.3091 58.6345H67.8166C67.7138 58.6345 67.6303 58.551 67.6303 58.4481C67.6303 58.3452 67.7138 58.2617 67.8166 58.2617H69.3091C69.4119 58.2617 69.4954 58.3452 69.4954 58.4481C69.4954 58.551 69.4134 58.6345 69.3091 58.6345ZM66.3242 58.6345H64.8318C64.7289 58.6345 64.6455 58.551 64.6455 58.4481C64.6455 58.3452 64.7289 58.2617 64.8318 58.2617H66.3242C66.4271 58.2617 66.5106 58.3452 66.5106 58.4481C66.5106 58.551 66.4286 58.6345 66.3242 58.6345ZM63.3409 58.6345H61.8485C61.7456 58.6345 61.6621 58.551 61.6621 58.4481C61.6621 58.3452 61.7456 58.2617 61.8485 58.2617H63.3409C63.4438 58.2617 63.5273 58.3452 63.5273 58.4481C63.5273 58.551 63.4438 58.6345 63.3409 58.6345ZM76.2657 57.5878C76.2523 57.5878 76.2404 57.5863 76.2285 57.5834C76.1286 57.5625 76.063 57.4641 76.0838 57.3642C76.1002 57.2837 76.1092 57.2032 76.1092 57.1212V55.912C76.1092 55.8092 76.1927 55.7257 76.2955 55.7257C76.3984 55.7257 76.4819 55.8092 76.4819 55.912V57.1212C76.4819 57.2285 76.47 57.3359 76.4491 57.4402C76.4312 57.5282 76.3522 57.5878 76.2657 57.5878ZM76.2955 54.606C76.1927 54.606 76.1092 54.5225 76.1092 54.4196V52.9257C76.1092 52.8228 76.1927 52.7393 76.2955 52.7393C76.3984 52.7393 76.4819 52.8228 76.4819 52.9257V54.4196C76.4819 54.5225 76.3984 54.606 76.2955 54.606ZM76.2955 51.6197C76.1927 51.6197 76.1092 51.5362 76.1092 51.4333V49.9409C76.1092 49.838 76.1927 49.7545 76.2955 49.7545C76.3984 49.7545 76.4819 49.838 76.4819 49.9409V51.4333C76.4819 51.5377 76.3984 51.6197 76.2955 51.6197ZM76.2955 48.6348C76.1927 48.6348 76.1092 48.5513 76.1092 48.4485V46.956C76.1092 46.8532 76.1927 46.7697 76.2955 46.7697C76.3984 46.7697 76.4819 46.8532 76.4819 46.956V48.4485C76.4819 48.5528 76.3984 48.6348 76.2955 48.6348ZM76.2955 45.65C76.1927 45.65 76.1092 45.5665 76.1092 45.4636V43.9712C76.1092 43.8683 76.1927 43.7848 76.2955 43.7848C76.3984 43.7848 76.4819 43.8683 76.4819 43.9712V45.4636C76.4819 45.568 76.3984 45.65 76.2955 45.65ZM76.2955 42.6652C76.1927 42.6652 76.1092 42.5817 76.1092 42.4788V40.9864C76.1092 40.8835 76.1927 40.8 76.2955 40.8C76.3984 40.8 76.4819 40.8835 76.4819 40.9864V42.4788C76.4819 42.5832 76.3984 42.6652 76.2955 42.6652ZM76.2955 39.6803C76.1927 39.6803 76.1092 39.5968 76.1092 39.494V38.0015C76.1092 37.8987 76.1927 37.8152 76.2955 37.8152C76.3984 37.8152 76.4819 37.8987 76.4819 38.0015V39.494C76.4819 39.5983 76.3984 39.6803 76.2955 39.6803ZM76.2955 36.6955C76.1927 36.6955 76.1092 36.612 76.1092 36.5091V35.0167C76.1092 34.9138 76.1927 34.8303 76.2955 34.8303C76.3984 34.8303 76.4819 34.9138 76.4819 35.0167V36.5091C76.4819 36.6135 76.3984 36.6955 76.2955 36.6955ZM76.2955 33.7107C76.1927 33.7107 76.1092 33.6272 76.1092 33.5243V32.0319C76.1092 31.929 76.1927 31.8455 76.2955 31.8455C76.3984 31.8455 76.4819 31.929 76.4819 32.0319V33.5243C76.4819 33.6287 76.3984 33.7107 76.2955 33.7107ZM76.2955 30.7273C76.1927 30.7273 76.1092 30.6438 76.1092 30.541V29.0485C76.1092 28.9457 76.1927 28.8622 76.2955 28.8622C76.3984 28.8622 76.4819 28.9457 76.4819 29.0485V30.541C76.4819 30.6438 76.3984 30.7273 76.2955 30.7273ZM76.2955 27.7425C76.1927 27.7425 76.1092 27.659 76.1092 27.5561V26.0637C76.1092 25.9608 76.1927 25.8773 76.2955 25.8773C76.3984 25.8773 76.4819 25.9608 76.4819 26.0637V27.5561C76.4819 27.659 76.3984 27.7425 76.2955 27.7425ZM76.2955 24.7577C76.1927 24.7577 76.1092 24.6742 76.1092 24.5713V23.0789C76.1092 22.976 76.1927 22.8925 76.2955 22.8925C76.3984 22.8925 76.4819 22.976 76.4819 23.0789V24.5713C76.4819 24.6742 76.3984 24.7577 76.2955 24.7577ZM76.2955 21.7728C76.1927 21.7728 76.1092 21.6893 76.1092 21.5865V20.4593C76.1077 20.355 76.0928 20.2491 76.0644 20.1522C76.0346 20.0538 76.0928 19.9494 76.1912 19.9211C76.2866 19.8943 76.3939 19.9494 76.4223 20.0478C76.4595 20.179 76.4804 20.3177 76.4819 20.4563V21.5865C76.4819 21.6893 76.3984 21.7728 76.2955 21.7728ZM75.1833 19.3501C75.1744 19.3501 75.1639 19.3501 75.1535 19.3471C75.0983 19.3381 75.0402 19.3337 74.9835 19.3337H73.6909C73.588 19.3337 73.5045 19.2502 73.5045 19.1473C73.5045 19.0444 73.588 18.9609 73.6909 18.9609H74.9835C75.0611 18.9609 75.1371 18.9684 75.2116 18.9803C75.313 18.9952 75.3816 19.0906 75.3667 19.1935C75.3533 19.2845 75.2728 19.3501 75.1833 19.3501ZM72.1985 19.3337H70.7061C70.6032 19.3337 70.5197 19.2502 70.5197 19.1473C70.5197 19.0444 70.6032 18.9609 70.7061 18.9609H72.1985C72.3013 18.9609 72.3848 19.0444 72.3848 19.1473C72.3848 19.2502 72.3013 19.3337 72.1985 19.3337Z"></path></mask><path d="M73.7863 58.6345C73.6834 58.6345 73.5999 58.551 73.5999 58.4481C73.5999 58.3452 73.6834 58.2617 73.7863 58.2617H74.9835C75.0685 58.2602 75.152 58.2498 75.234 58.2304C75.3399 58.2066 75.4353 58.2707 75.4576 58.3706C75.4815 58.4705 75.4189 58.5718 75.3175 58.5942C75.2101 58.6196 75.0998 58.6315 74.985 58.633L73.7863 58.6345ZM72.2939 58.6345H70.8015C70.6986 58.6345 70.6151 58.551 70.6151 58.4481C70.6151 58.3452 70.6986 58.2617 70.8015 58.2617H72.2939C72.3968 58.2617 72.4803 58.3452 72.4803 58.4481C72.4803 58.551 72.3983 58.6345 72.2939 58.6345ZM69.3091 58.6345H67.8166C67.7138 58.6345 67.6303 58.551 67.6303 58.4481C67.6303 58.3452 67.7138 58.2617 67.8166 58.2617H69.3091C69.4119 58.2617 69.4954 58.3452 69.4954 58.4481C69.4954 58.551 69.4134 58.6345 69.3091 58.6345ZM66.3242 58.6345H64.8318C64.7289 58.6345 64.6455 58.551 64.6455 58.4481C64.6455 58.3452 64.7289 58.2617 64.8318 58.2617H66.3242C66.4271 58.2617 66.5106 58.3452 66.5106 58.4481C66.5106 58.551 66.4286 58.6345 66.3242 58.6345ZM63.3409 58.6345H61.8485C61.7456 58.6345 61.6621 58.551 61.6621 58.4481C61.6621 58.3452 61.7456 58.2617 61.8485 58.2617H63.3409C63.4438 58.2617 63.5273 58.3452 63.5273 58.4481C63.5273 58.551 63.4438 58.6345 63.3409 58.6345ZM76.2657 57.5878C76.2523 57.5878 76.2404 57.5863 76.2285 57.5834C76.1286 57.5625 76.063 57.4641 76.0838 57.3642C76.1002 57.2837 76.1092 57.2032 76.1092 57.1212V55.912C76.1092 55.8092 76.1927 55.7257 76.2955 55.7257C76.3984 55.7257 76.4819 55.8092 76.4819 55.912V57.1212C76.4819 57.2285 76.47 57.3359 76.4491 57.4402C76.4312 57.5282 76.3522 57.5878 76.2657 57.5878ZM76.2955 54.606C76.1927 54.606 76.1092 54.5225 76.1092 54.4196V52.9257C76.1092 52.8228 76.1927 52.7393 76.2955 52.7393C76.3984 52.7393 76.4819 52.8228 76.4819 52.9257V54.4196C76.4819 54.5225 76.3984 54.606 76.2955 54.606ZM76.2955 51.6197C76.1927 51.6197 76.1092 51.5362 76.1092 51.4333V49.9409C76.1092 49.838 76.1927 49.7545 76.2955 49.7545C76.3984 49.7545 76.4819 49.838 76.4819 49.9409V51.4333C76.4819 51.5377 76.3984 51.6197 76.2955 51.6197ZM76.2955 48.6348C76.1927 48.6348 76.1092 48.5513 76.1092 48.4485V46.956C76.1092 46.8532 76.1927 46.7697 76.2955 46.7697C76.3984 46.7697 76.4819 46.8532 76.4819 46.956V48.4485C76.4819 48.5528 76.3984 48.6348 76.2955 48.6348ZM76.2955 45.65C76.1927 45.65 76.1092 45.5665 76.1092 45.4636V43.9712C76.1092 43.8683 76.1927 43.7848 76.2955 43.7848C76.3984 43.7848 76.4819 43.8683 76.4819 43.9712V45.4636C76.4819 45.568 76.3984 45.65 76.2955 45.65ZM76.2955 42.6652C76.1927 42.6652 76.1092 42.5817 76.1092 42.4788V40.9864C76.1092 40.8835 76.1927 40.8 76.2955 40.8C76.3984 40.8 76.4819 40.8835 76.4819 40.9864V42.4788C76.4819 42.5832 76.3984 42.6652 76.2955 42.6652ZM76.2955 39.6803C76.1927 39.6803 76.1092 39.5968 76.1092 39.494V38.0015C76.1092 37.8987 76.1927 37.8152 76.2955 37.8152C76.3984 37.8152 76.4819 37.8987 76.4819 38.0015V39.494C76.4819 39.5983 76.3984 39.6803 76.2955 39.6803ZM76.2955 36.6955C76.1927 36.6955 76.1092 36.612 76.1092 36.5091V35.0167C76.1092 34.9138 76.1927 34.8303 76.2955 34.8303C76.3984 34.8303 76.4819 34.9138 76.4819 35.0167V36.5091C76.4819 36.6135 76.3984 36.6955 76.2955 36.6955ZM76.2955 33.7107C76.1927 33.7107 76.1092 33.6272 76.1092 33.5243V32.0319C76.1092 31.929 76.1927 31.8455 76.2955 31.8455C76.3984 31.8455 76.4819 31.929 76.4819 32.0319V33.5243C76.4819 33.6287 76.3984 33.7107 76.2955 33.7107ZM76.2955 30.7273C76.1927 30.7273 76.1092 30.6438 76.1092 30.541V29.0485C76.1092 28.9457 76.1927 28.8622 76.2955 28.8622C76.3984 28.8622 76.4819 28.9457 76.4819 29.0485V30.541C76.4819 30.6438 76.3984 30.7273 76.2955 30.7273ZM76.2955 27.7425C76.1927 27.7425 76.1092 27.659 76.1092 27.5561V26.0637C76.1092 25.9608 76.1927 25.8773 76.2955 25.8773C76.3984 25.8773 76.4819 25.9608 76.4819 26.0637V27.5561C76.4819 27.659 76.3984 27.7425 76.2955 27.7425ZM76.2955 24.7577C76.1927 24.7577 76.1092 24.6742 76.1092 24.5713V23.0789C76.1092 22.976 76.1927 22.8925 76.2955 22.8925C76.3984 22.8925 76.4819 22.976 76.4819 23.0789V24.5713C76.4819 24.6742 76.3984 24.7577 76.2955 24.7577ZM76.2955 21.7728C76.1927 21.7728 76.1092 21.6893 76.1092 21.5865V20.4593C76.1077 20.355 76.0928 20.2491 76.0644 20.1522C76.0346 20.0538 76.0928 19.9494 76.1912 19.9211C76.2866 19.8943 76.3939 19.9494 76.4223 20.0478C76.4595 20.179 76.4804 20.3177 76.4819 20.4563V21.5865C76.4819 21.6893 76.3984 21.7728 76.2955 21.7728ZM75.1833 19.3501C75.1744 19.3501 75.1639 19.3501 75.1535 19.3471C75.0983 19.3381 75.0402 19.3337 74.9835 19.3337H73.6909C73.588 19.3337 73.5045 19.2502 73.5045 19.1473C73.5045 19.0444 73.588 18.9609 73.6909 18.9609H74.9835C75.0611 18.9609 75.1371 18.9684 75.2116 18.9803C75.313 18.9952 75.3816 19.0906 75.3667 19.1935C75.3533 19.2845 75.2728 19.3501 75.1833 19.3501ZM72.1985 19.3337H70.7061C70.6032 19.3337 70.5197 19.2502 70.5197 19.1473C70.5197 19.0444 70.6032 18.9609 70.7061 18.9609H72.1985C72.3013 18.9609 72.3848 19.0444 72.3848 19.1473C72.3848 19.2502 72.3013 19.3337 72.1985 19.3337Z" fill="#0369CA"></path><path d="M73.7863 58.6345C73.6834 58.6345 73.5999 58.551 73.5999 58.4481C73.5999 58.3452 73.6834 58.2617 73.7863 58.2617H74.9835C75.0685 58.2602 75.152 58.2498 75.234 58.2304C75.3399 58.2066 75.4353 58.2707 75.4576 58.3706C75.4815 58.4705 75.4189 58.5718 75.3175 58.5942C75.2101 58.6196 75.0998 58.6315 74.985 58.633L73.7863 58.6345ZM72.2939 58.6345H70.8015C70.6986 58.6345 70.6151 58.551 70.6151 58.4481C70.6151 58.3452 70.6986 58.2617 70.8015 58.2617H72.2939C72.3968 58.2617 72.4803 58.3452 72.4803 58.4481C72.4803 58.551 72.3983 58.6345 72.2939 58.6345ZM69.3091 58.6345H67.8166C67.7138 58.6345 67.6303 58.551 67.6303 58.4481C67.6303 58.3452 67.7138 58.2617 67.8166 58.2617H69.3091C69.4119 58.2617 69.4954 58.3452 69.4954 58.4481C69.4954 58.551 69.4134 58.6345 69.3091 58.6345ZM66.3242 58.6345H64.8318C64.7289 58.6345 64.6455 58.551 64.6455 58.4481C64.6455 58.3452 64.7289 58.2617 64.8318 58.2617H66.3242C66.4271 58.2617 66.5106 58.3452 66.5106 58.4481C66.5106 58.551 66.4286 58.6345 66.3242 58.6345ZM63.3409 58.6345H61.8485C61.7456 58.6345 61.6621 58.551 61.6621 58.4481C61.6621 58.3452 61.7456 58.2617 61.8485 58.2617H63.3409C63.4438 58.2617 63.5273 58.3452 63.5273 58.4481C63.5273 58.551 63.4438 58.6345 63.3409 58.6345ZM76.2657 57.5878C76.2523 57.5878 76.2404 57.5863 76.2285 57.5834C76.1286 57.5625 76.063 57.4641 76.0838 57.3642C76.1002 57.2837 76.1092 57.2032 76.1092 57.1212V55.912C76.1092 55.8092 76.1927 55.7257 76.2955 55.7257C76.3984 55.7257 76.4819 55.8092 76.4819 55.912V57.1212C76.4819 57.2285 76.47 57.3359 76.4491 57.4402C76.4312 57.5282 76.3522 57.5878 76.2657 57.5878ZM76.2955 54.606C76.1927 54.606 76.1092 54.5225 76.1092 54.4196V52.9257C76.1092 52.8228 76.1927 52.7393 76.2955 52.7393C76.3984 52.7393 76.4819 52.8228 76.4819 52.9257V54.4196C76.4819 54.5225 76.3984 54.606 76.2955 54.606ZM76.2955 51.6197C76.1927 51.6197 76.1092 51.5362 76.1092 51.4333V49.9409C76.1092 49.838 76.1927 49.7545 76.2955 49.7545C76.3984 49.7545 76.4819 49.838 76.4819 49.9409V51.4333C76.4819 51.5377 76.3984 51.6197 76.2955 51.6197ZM76.2955 48.6348C76.1927 48.6348 76.1092 48.5513 76.1092 48.4485V46.956C76.1092 46.8532 76.1927 46.7697 76.2955 46.7697C76.3984 46.7697 76.4819 46.8532 76.4819 46.956V48.4485C76.4819 48.5528 76.3984 48.6348 76.2955 48.6348ZM76.2955 45.65C76.1927 45.65 76.1092 45.5665 76.1092 45.4636V43.9712C76.1092 43.8683 76.1927 43.7848 76.2955 43.7848C76.3984 43.7848 76.4819 43.8683 76.4819 43.9712V45.4636C76.4819 45.568 76.3984 45.65 76.2955 45.65ZM76.2955 42.6652C76.1927 42.6652 76.1092 42.5817 76.1092 42.4788V40.9864C76.1092 40.8835 76.1927 40.8 76.2955 40.8C76.3984 40.8 76.4819 40.8835 76.4819 40.9864V42.4788C76.4819 42.5832 76.3984 42.6652 76.2955 42.6652ZM76.2955 39.6803C76.1927 39.6803 76.1092 39.5968 76.1092 39.494V38.0015C76.1092 37.8987 76.1927 37.8152 76.2955 37.8152C76.3984 37.8152 76.4819 37.8987 76.4819 38.0015V39.494C76.4819 39.5983 76.3984 39.6803 76.2955 39.6803ZM76.2955 36.6955C76.1927 36.6955 76.1092 36.612 76.1092 36.5091V35.0167C76.1092 34.9138 76.1927 34.8303 76.2955 34.8303C76.3984 34.8303 76.4819 34.9138 76.4819 35.0167V36.5091C76.4819 36.6135 76.3984 36.6955 76.2955 36.6955ZM76.2955 33.7107C76.1927 33.7107 76.1092 33.6272 76.1092 33.5243V32.0319C76.1092 31.929 76.1927 31.8455 76.2955 31.8455C76.3984 31.8455 76.4819 31.929 76.4819 32.0319V33.5243C76.4819 33.6287 76.3984 33.7107 76.2955 33.7107ZM76.2955 30.7273C76.1927 30.7273 76.1092 30.6438 76.1092 30.541V29.0485C76.1092 28.9457 76.1927 28.8622 76.2955 28.8622C76.3984 28.8622 76.4819 28.9457 76.4819 29.0485V30.541C76.4819 30.6438 76.3984 30.7273 76.2955 30.7273ZM76.2955 27.7425C76.1927 27.7425 76.1092 27.659 76.1092 27.5561V26.0637C76.1092 25.9608 76.1927 25.8773 76.2955 25.8773C76.3984 25.8773 76.4819 25.9608 76.4819 26.0637V27.5561C76.4819 27.659 76.3984 27.7425 76.2955 27.7425ZM76.2955 24.7577C76.1927 24.7577 76.1092 24.6742 76.1092 24.5713V23.0789C76.1092 22.976 76.1927 22.8925 76.2955 22.8925C76.3984 22.8925 76.4819 22.976 76.4819 23.0789V24.5713C76.4819 24.6742 76.3984 24.7577 76.2955 24.7577ZM76.2955 21.7728C76.1927 21.7728 76.1092 21.6893 76.1092 21.5865V20.4593C76.1077 20.355 76.0928 20.2491 76.0644 20.1522C76.0346 20.0538 76.0928 19.9494 76.1912 19.9211C76.2866 19.8943 76.3939 19.9494 76.4223 20.0478C76.4595 20.179 76.4804 20.3177 76.4819 20.4563V21.5865C76.4819 21.6893 76.3984 21.7728 76.2955 21.7728ZM75.1833 19.3501C75.1744 19.3501 75.1639 19.3501 75.1535 19.3471C75.0983 19.3381 75.0402 19.3337 74.9835 19.3337H73.6909C73.588 19.3337 73.5045 19.2502 73.5045 19.1473C73.5045 19.0444 73.588 18.9609 73.6909 18.9609H74.9835C75.0611 18.9609 75.1371 18.9684 75.2116 18.9803C75.313 18.9952 75.3816 19.0906 75.3667 19.1935C75.3533 19.2845 75.2728 19.3501 75.1833 19.3501ZM72.1985 19.3337H70.7061C70.6032 19.3337 70.5197 19.2502 70.5197 19.1473C70.5197 19.0444 70.6032 18.9609 70.7061 18.9609H72.1985C72.3013 18.9609 72.3848 19.0444 72.3848 19.1473C72.3848 19.2502 72.3013 19.3337 72.1985 19.3337Z" stroke="#0369CA" stroke-width="0.6" mask="url(#path-9-outside-2_314_395)"></path><path d="M59.5809 58.7805H60.3264C60.5121 58.7805 60.6627 58.6299 60.6627 58.4442C60.6627 58.2585 60.5121 58.1078 60.3264 58.1078H59.5809C59.3952 58.1078 59.2445 58.2585 59.2445 58.4442C59.2445 58.6299 59.3952 58.7805 59.5809 58.7805Z" fill="#0369CA" stroke="#0369CA" stroke-width="0.3"></path><path d="M39.1127 66.336C39.1127 67.9292 40.4084 69.2249 42.0015 69.2249C43.5947 69.2249 44.8904 67.9292 44.8904 66.336C44.8904 64.7414 43.5947 63.4457 42.0015 63.4457C40.4083 63.4457 39.1127 64.7414 39.1127 66.336ZM40.9036 66.336C40.9036 65.7298 41.3958 65.2366 42.0015 65.2366C42.6073 65.2366 43.0994 65.7298 43.0994 66.336C43.0994 66.942 42.6075 67.4339 42.0015 67.4339C41.3956 67.4339 40.9036 66.942 40.9036 66.336Z" fill="#0369CA" stroke="#0369CA" stroke-width="0.3"></path><path d="M33.7498 66.6692H34.4953C34.681 66.6692 34.8317 66.5186 34.8317 66.3329C34.8317 66.1471 34.681 65.9965 34.4953 65.9965H33.7498C33.5641 65.9965 33.4135 66.1471 33.4135 66.3329C33.4135 66.5186 33.5641 66.6692 33.7498 66.6692Z" fill="#0369CA" stroke="#0369CA" stroke-width="0.3"></path><path d="M30.5767 66.6692H32.1615C32.3495 66.6692 32.4979 66.5178 32.4979 66.3329C32.4979 66.1471 32.3472 65.9965 32.1615 65.9965H30.5767C30.391 65.9965 30.2403 66.1471 30.2403 66.3329C30.2403 66.5186 30.391 66.6692 30.5767 66.6692ZM27.407 66.6692H28.9918C29.1798 66.6692 29.3282 66.5178 29.3282 66.3329C29.3282 66.1471 29.1775 65.9965 28.9918 65.9965H27.407C27.2213 65.9965 27.0706 66.1471 27.0706 66.3329C27.0706 66.5186 27.2213 66.6692 27.407 66.6692ZM24.2373 66.6692H25.8221C26.0101 66.6692 26.1585 66.5178 26.1585 66.3329C26.1585 66.1471 26.0078 65.9965 25.8221 65.9965H24.2373C24.0515 65.9965 23.9009 66.1471 23.9009 66.3329C23.9009 66.5186 24.0515 66.6692 24.2373 66.6692ZM21.0676 66.6692H22.6509C22.8389 66.6692 22.9873 66.5178 22.9873 66.3329C22.9873 66.1471 22.8366 65.9965 22.6509 65.9965H21.0676C20.8818 65.9965 20.7312 66.1471 20.7312 66.3329C20.7312 66.5186 20.8818 66.6692 21.0676 66.6692ZM17.8979 66.6692H19.4812C19.6692 66.6692 19.8176 66.5178 19.8176 66.3329C19.8176 66.1471 19.6669 65.9965 19.4812 65.9965H17.8979C17.7121 65.9965 17.5615 66.1471 17.5615 66.3329C17.5615 66.5186 17.7121 66.6692 17.8979 66.6692ZM14.7267 66.6692H16.3115C16.4995 66.6692 16.6479 66.5178 16.6479 66.3329C16.6479 66.1471 16.4972 65.9965 16.3115 65.9965H14.7267C14.5409 65.9965 14.3903 66.1471 14.3903 66.3329C14.3903 66.5186 14.5409 66.6692 14.7267 66.6692ZM11.5584 66.6692H13.1433C13.329 66.6692 13.4797 66.5186 13.4797 66.3329C13.4797 66.1471 13.329 65.9965 13.1433 65.9965H11.5584C11.3727 65.9965 11.2221 66.1471 11.2221 66.3329C11.2221 66.5186 11.3727 66.6692 11.5584 66.6692Z" fill="#0369CA" stroke="#0369CA" stroke-width="0.3"></path><path d="M9.22836 66.6692H9.97382C10.1595 66.6692 10.3102 66.5186 10.3102 66.3329C10.3102 66.1471 10.1595 65.9965 9.97382 65.9965H9.22836C9.04264 65.9965 8.89199 66.1471 8.89199 66.3329C8.89199 66.5186 9.04264 66.6692 9.22836 66.6692Z" fill="#0369CA" stroke="#0369CA" stroke-width="0.3"></path><path d="M74.0555 66.6692H74.801C74.9867 66.6692 75.1373 66.5186 75.1373 66.3329C75.1373 66.1471 74.9867 65.9965 74.801 65.9965H74.0555C73.8698 65.9965 73.7191 66.1471 73.7191 66.3329C73.7191 66.5186 73.8698 66.6692 74.0555 66.6692Z" fill="#0369CA" stroke="#0369CA" stroke-width="0.3"></path><path d="M70.8848 66.6692H72.4697C72.6554 66.6692 72.806 66.5186 72.806 66.3329C72.806 66.1471 72.6554 65.9965 72.4697 65.9965H70.8848C70.6991 65.9965 70.5484 66.1471 70.5484 66.3329C70.5484 66.5186 70.6991 66.6692 70.8848 66.6692ZM67.7151 66.6692H69.3C69.4857 66.6692 69.6363 66.5186 69.6363 66.3329C69.6363 66.1471 69.4857 65.9965 69.3 65.9965H67.7151C67.5294 65.9965 67.3787 66.1471 67.3787 66.3329C67.3787 66.5186 67.5294 66.6692 67.7151 66.6692ZM64.5454 66.6692H66.1302C66.316 66.6692 66.4666 66.5186 66.4666 66.3329C66.4666 66.1471 66.316 65.9965 66.1302 65.9965H64.5454C64.3597 65.9965 64.209 66.1471 64.209 66.3329C64.209 66.5186 64.3597 66.6692 64.5454 66.6692ZM61.3757 66.6692H62.959C63.1448 66.6692 63.2954 66.5186 63.2954 66.3329C63.2954 66.1471 63.1448 65.9965 62.959 65.9965H61.3757C61.19 65.9965 61.0393 66.1471 61.0393 66.3329C61.0393 66.5186 61.19 66.6692 61.3757 66.6692ZM58.206 66.6692H59.7893C59.9751 66.6692 60.1257 66.5186 60.1257 66.3329C60.1257 66.1471 59.9751 65.9965 59.7893 65.9965H58.206C58.0203 65.9965 57.8696 66.1471 57.8696 66.3329C57.8696 66.5186 58.0203 66.6692 58.206 66.6692ZM55.0348 66.6692H56.6196C56.8054 66.6692 56.956 66.5186 56.956 66.3329C56.956 66.1471 56.8054 65.9965 56.6196 65.9965H55.0348C54.8491 65.9965 54.6984 66.1471 54.6984 66.3329C54.6984 66.5186 54.8491 66.6692 55.0348 66.6692ZM51.8651 66.6692H53.4499C53.6356 66.6692 53.7863 66.5186 53.7863 66.3329C53.7863 66.1471 53.6356 65.9965 53.4499 65.9965H51.8651C51.6794 65.9965 51.5287 66.1471 51.5287 66.3329C51.5287 66.5186 51.6794 66.6692 51.8651 66.6692Z" fill="#0369CA" stroke="#0369CA" stroke-width="0.3"></path><path d="M49.537 66.6692H50.2824C50.4681 66.6692 50.6188 66.5186 50.6188 66.3329C50.6188 66.1471 50.4681 65.9965 50.2824 65.9965H49.537C49.3512 65.9965 49.2006 66.1471 49.2006 66.3329C49.2006 66.5186 49.3512 66.6692 49.537 66.6692Z" fill="#0369CA" stroke="#0369CA" stroke-width="0.3"></path><path d="M21.5002 40.2252H62.5006C66.2825 40.2252 69.3598 37.1478 69.3598 33.366V11.515C69.3598 11.0207 68.9587 10.6195 68.4643 10.6195H15.5365C15.0421 10.6195 14.641 11.0207 14.641 11.515V33.366C14.641 37.1478 17.7184 40.2252 21.5002 40.2252ZM16.4319 33.366V12.4105H67.5689V33.366C67.5689 36.1606 65.2953 38.4342 62.5006 38.4342H21.5002C18.7055 38.4342 16.4319 36.1606 16.4319 33.366Z" fill="#0369CA" stroke="#0369CA" stroke-width="0.3"></path><path d="M18.334 14.1625H18.184V14.3125V15.2443C18.184 15.43 18.3346 15.5807 18.5204 15.5807C18.7061 15.5807 18.8567 15.43 18.8567 15.2443V14.8352H19.2658C19.4515 14.8352 19.6022 14.6846 19.6022 14.4989C19.6022 14.3131 19.4515 14.1625 19.2658 14.1625H18.334Z" fill="#0369CA" stroke="#0369CA" stroke-width="0.3"></path><path d="M61.8048 14.8352H63.2704C63.4561 14.8352 63.6067 14.6846 63.6067 14.4989C63.6067 14.3131 63.4561 14.1625 63.2704 14.1625H61.8048C61.6191 14.1625 61.4684 14.3132 61.4684 14.4989C61.4684 14.6846 61.6191 14.8352 61.8048 14.8352ZM58.8706 14.8352H60.3362C60.5219 14.8352 60.6726 14.6846 60.6726 14.4989C60.6726 14.3131 60.5219 14.1625 60.3362 14.1625H58.8706C58.6849 14.1625 58.5343 14.3131 58.5343 14.4989C58.5343 14.6846 58.6849 14.8352 58.8706 14.8352ZM55.9365 14.8352H57.4021C57.5878 14.8352 57.7385 14.6846 57.7385 14.4989C57.7385 14.3132 57.5878 14.1625 57.4021 14.1625H55.9365C55.7508 14.1625 55.6001 14.3131 55.6001 14.4989C55.6001 14.6846 55.7508 14.8352 55.9365 14.8352ZM53.0024 14.8352H54.4679C54.6559 14.8352 54.8043 14.6838 54.8043 14.4989C54.8043 14.3131 54.6537 14.1625 54.4679 14.1625H53.0024C52.8167 14.1625 52.666 14.3131 52.666 14.4989C52.666 14.6846 52.8167 14.8352 53.0024 14.8352ZM50.0697 14.8352H51.5353C51.721 14.8352 51.8717 14.6846 51.8717 14.4989C51.8717 14.3131 51.721 14.1625 51.5353 14.1625H50.0697C49.884 14.1625 49.7333 14.3131 49.7333 14.4989C49.7333 14.6846 49.884 14.8352 50.0697 14.8352ZM47.1356 14.8352H48.6012C48.7869 14.8352 48.9375 14.6846 48.9375 14.4989C48.9375 14.3132 48.7869 14.1625 48.6012 14.1625H47.1356C46.9499 14.1625 46.7992 14.3131 46.7992 14.4989C46.7992 14.6846 46.9499 14.8352 47.1356 14.8352ZM44.2014 14.8352H45.667C45.8527 14.8352 46.0034 14.6846 46.0034 14.4989C46.0034 14.3131 45.8527 14.1625 45.667 14.1625H44.2014C44.0157 14.1625 43.8651 14.3131 43.8651 14.4989C43.8651 14.6846 44.0157 14.8352 44.2014 14.8352ZM41.2673 14.8352H42.7329C42.9209 14.8352 43.0692 14.6838 43.0692 14.4989C43.0692 14.3131 42.9186 14.1625 42.7329 14.1625H41.2673C41.0816 14.1625 40.9309 14.3131 40.9309 14.4989C40.9309 14.6846 41.0816 14.8352 41.2673 14.8352ZM38.3332 14.8352H39.7987C39.9867 14.8352 40.1351 14.6838 40.1351 14.4989C40.1351 14.3131 39.9844 14.1625 39.7987 14.1625H38.3332C38.1474 14.1625 37.9968 14.3131 37.9968 14.4989C37.9968 14.6846 38.1474 14.8352 38.3332 14.8352ZM35.4005 14.8352H36.8661C37.0518 14.8352 37.2024 14.6846 37.2024 14.4989C37.2024 14.3131 37.0518 14.1625 36.8661 14.1625H35.4005C35.2148 14.1625 35.0641 14.3131 35.0641 14.4989C35.0641 14.6846 35.2148 14.8352 35.4005 14.8352ZM32.4664 14.8352H33.9319C34.1177 14.8352 34.2683 14.6846 34.2683 14.4989C34.2683 14.3131 34.1177 14.1625 33.9319 14.1625H32.4664C32.2806 14.1625 32.13 14.3131 32.13 14.4989C32.13 14.6846 32.2806 14.8352 32.4664 14.8352ZM29.5322 14.8352H30.9978C31.1835 14.8352 31.3342 14.6846 31.3342 14.4989C31.3342 14.3131 31.1835 14.1625 30.9978 14.1625H29.5322C29.3465 14.1625 29.1959 14.3131 29.1959 14.4989C29.1959 14.6846 29.3465 14.8352 29.5322 14.8352ZM26.5981 14.8352H28.0637C28.2516 14.8352 28.4 14.6838 28.4 14.4989C28.4 14.3131 28.2494 14.1625 28.0637 14.1625H26.5981C26.4124 14.1625 26.2617 14.3131 26.2617 14.4989C26.2617 14.6846 26.4124 14.8352 26.5981 14.8352ZM23.6654 14.8352H25.131C25.3167 14.8352 25.4674 14.6846 25.4674 14.4989C25.4674 14.3131 25.3167 14.1625 25.131 14.1625H23.6654C23.4797 14.1625 23.3291 14.3131 23.3291 14.4989C23.3291 14.6846 23.4797 14.8352 23.6654 14.8352ZM20.7313 14.8352H22.1969C22.3826 14.8352 22.5332 14.6846 22.5332 14.4989C22.5332 14.3131 22.3826 14.1625 22.1969 14.1625H20.7313C20.5456 14.1625 20.3949 14.3131 20.3949 14.4989C20.3949 14.6846 20.5456 14.8352 20.7313 14.8352Z" fill="#0369CA" stroke="#0369CA" stroke-width="0.3"></path><path d="M65.8209 14.3125V14.1625H65.6709H64.7391C64.5534 14.1625 64.4027 14.3131 64.4027 14.4989C64.4027 14.6846 64.5534 14.8352 64.7391 14.8352H65.1482V15.2443C65.1482 15.43 65.2988 15.5807 65.4846 15.5807C65.6703 15.5807 65.8209 15.43 65.8209 15.2443V14.3125Z" fill="#0369CA" stroke="#0369CA" stroke-width="0.3"></path><mask id="path-22-outside-3_314_395" maskUnits="userSpaceOnUse" x="17.334" y="15.5234" width="49" height="22" fill="black"><rect fill="white" x="17.334" y="15.5234" width="49" height="22"></rect><path d="M62.519 36.5346C62.5131 36.5346 62.5071 36.5346 62.5012 36.5346H61.8258C61.7229 36.5346 61.6394 36.4511 61.6394 36.3483C61.6394 36.2454 61.7229 36.1619 61.8258 36.1619H62.5026H62.5176C62.7606 36.1619 63.0021 36.1306 63.2347 36.0665C63.3316 36.0292 63.4375 36.0963 63.4628 36.1962C63.4911 36.2946 63.4315 36.399 63.3331 36.4243C63.0677 36.4989 62.7934 36.5346 62.519 36.5346ZM60.3587 36.5346H58.8916C58.7887 36.5346 58.7053 36.4511 58.7053 36.3483C58.7053 36.2454 58.7887 36.1619 58.8916 36.1619H60.3587C60.4616 36.1619 60.5451 36.2454 60.5451 36.3483C60.5451 36.4511 60.4616 36.5346 60.3587 36.5346ZM57.4231 36.5346H55.956C55.8531 36.5346 55.7696 36.4511 55.7696 36.3483C55.7696 36.2454 55.8531 36.1619 55.956 36.1619H57.4231C57.5259 36.1619 57.6094 36.2454 57.6094 36.3483C57.6094 36.4511 57.5259 36.5346 57.4231 36.5346ZM54.4874 36.5346H53.0204C52.9175 36.5346 52.834 36.4511 52.834 36.3483C52.834 36.2454 52.9175 36.1619 53.0204 36.1619H54.4874C54.5903 36.1619 54.6738 36.2454 54.6738 36.3483C54.6738 36.4511 54.5903 36.5346 54.4874 36.5346ZM51.5518 36.5346H50.0847C49.9819 36.5346 49.8984 36.4511 49.8984 36.3483C49.8984 36.2454 49.9819 36.1619 50.0847 36.1619H51.5518C51.6547 36.1619 51.7382 36.2454 51.7382 36.3483C51.7382 36.4511 51.6562 36.5346 51.5518 36.5346ZM48.6162 36.5346H47.1491C47.0462 36.5346 46.9627 36.4511 46.9627 36.3483C46.9627 36.2454 47.0462 36.1619 47.1491 36.1619H48.6162C48.719 36.1619 48.8025 36.2454 48.8025 36.3483C48.8025 36.4511 48.719 36.5346 48.6162 36.5346ZM45.6805 36.5346H44.2135C44.1106 36.5346 44.0271 36.4511 44.0271 36.3483C44.0271 36.2454 44.1106 36.1619 44.2135 36.1619H45.6805C45.7834 36.1619 45.8669 36.2454 45.8669 36.3483C45.8669 36.4511 45.7834 36.5346 45.6805 36.5346ZM42.7449 36.5346H41.2778C41.175 36.5346 41.0915 36.4511 41.0915 36.3483C41.0915 36.2454 41.175 36.1619 41.2778 36.1619H42.7449C42.8478 36.1619 42.9313 36.2454 42.9313 36.3483C42.9313 36.4511 42.8478 36.5346 42.7449 36.5346ZM39.8093 36.5346H38.3422C38.2393 36.5346 38.1558 36.4511 38.1558 36.3483C38.1558 36.2454 38.2393 36.1619 38.3422 36.1619H39.8093C39.9121 36.1619 39.9956 36.2454 39.9956 36.3483C39.9956 36.4511 39.9136 36.5346 39.8093 36.5346ZM36.8736 36.5346H35.4066C35.3037 36.5346 35.2202 36.4511 35.2202 36.3483C35.2202 36.2454 35.3037 36.1619 35.4066 36.1619H36.8736C36.9765 36.1619 37.06 36.2454 37.06 36.3483C37.06 36.4511 36.9765 36.5346 36.8736 36.5346ZM33.938 36.5346H32.4709C32.3681 36.5346 32.2846 36.4511 32.2846 36.3483C32.2846 36.2454 32.3681 36.1619 32.4709 36.1619H33.938C34.0409 36.1619 34.1244 36.2454 34.1244 36.3483C34.1244 36.4511 34.0409 36.5346 33.938 36.5346ZM31.0024 36.5346H29.5353C29.4324 36.5346 29.3489 36.4511 29.3489 36.3483C29.3489 36.2454 29.4324 36.1619 29.5353 36.1619H31.0024C31.1052 36.1619 31.1887 36.2454 31.1887 36.3483C31.1887 36.4511 31.1052 36.5346 31.0024 36.5346ZM28.0667 36.5346H26.5997C26.4968 36.5346 26.4133 36.4511 26.4133 36.3483C26.4133 36.2454 26.4968 36.1619 26.5997 36.1619H28.0667C28.1696 36.1619 28.2531 36.2454 28.2531 36.3483C28.2531 36.4511 28.1711 36.5346 28.0667 36.5346ZM25.1326 36.5346H23.664C23.5612 36.5346 23.4777 36.4511 23.4777 36.3483C23.4777 36.2454 23.5612 36.1619 23.664 36.1619H25.1326C25.2355 36.1619 25.319 36.2454 25.319 36.3483C25.319 36.4511 25.2355 36.5346 25.1326 36.5346ZM22.1955 36.5346H21.5022C21.2279 36.5346 20.955 36.5003 20.6896 36.4303C20.5898 36.4034 20.5301 36.3021 20.5555 36.2037C20.5823 36.1038 20.6941 36.0471 20.7821 36.0695C21.0177 36.1321 21.2592 36.1619 21.5007 36.1619H22.194C22.2969 36.1619 22.3804 36.2454 22.3804 36.3483C22.3804 36.4511 22.2984 36.5346 22.1955 36.5346ZM19.4656 35.7295C19.4209 35.7295 19.3732 35.7131 19.3389 35.6803C18.9572 35.324 18.668 34.8767 18.501 34.3847C18.4682 34.2878 18.5204 34.182 18.6173 34.1492C18.7082 34.1149 18.82 34.1656 18.8528 34.2654C19.0019 34.6978 19.2569 35.0944 19.5923 35.4075C19.6684 35.4791 19.6728 35.5968 19.6028 35.6714C19.564 35.7087 19.5148 35.7295 19.4656 35.7295ZM64.5512 35.7176C64.502 35.7176 64.4528 35.6982 64.4155 35.6595C64.3439 35.5849 64.3484 35.4671 64.423 35.3956C64.7584 35.078 65.0119 34.6814 65.1565 34.2476C65.1878 34.1506 65.2922 34.094 65.3906 34.1298C65.489 34.1611 65.5426 34.2669 65.5083 34.3638C65.3458 34.8559 65.0581 35.3061 64.6779 35.6654C64.6436 35.6997 64.5974 35.7176 64.5512 35.7176ZM18.5204 33.0593C18.4175 33.0593 18.334 32.9758 18.334 32.8729V31.4059C18.334 31.303 18.4175 31.2195 18.5204 31.2195C18.6232 31.2195 18.7067 31.303 18.7067 31.4059V32.8729C18.7067 32.9758 18.6232 33.0593 18.5204 33.0593ZM65.4845 33.0414C65.3816 33.0414 65.2981 32.9579 65.2981 32.855V31.388C65.2981 31.2851 65.3816 31.2016 65.4845 31.2016C65.5874 31.2016 65.6709 31.2851 65.6709 31.388V32.855C65.6709 32.9594 65.5874 33.0414 65.4845 33.0414ZM18.5204 30.1237C18.4175 30.1237 18.334 30.0402 18.334 29.9373V28.4702C18.334 28.3673 18.4175 28.2839 18.5204 28.2839C18.6232 28.2839 18.7067 28.3673 18.7067 28.4702V29.9373C18.7067 30.0402 18.6232 30.1237 18.5204 30.1237ZM65.4845 30.1058C65.3816 30.1058 65.2981 30.0223 65.2981 29.9194V28.4523C65.2981 28.3495 65.3816 28.266 65.4845 28.266C65.5874 28.266 65.6709 28.3495 65.6709 28.4523V29.9194C65.6709 30.0238 65.5874 30.1058 65.4845 30.1058ZM18.5204 27.188C18.4175 27.188 18.334 27.1045 18.334 27.0017V25.5346C18.334 25.4317 18.4175 25.3482 18.5204 25.3482C18.6232 25.3482 18.7067 25.4317 18.7067 25.5346V27.0017C18.7067 27.106 18.6232 27.188 18.5204 27.188ZM65.4845 27.1716C65.3816 27.1716 65.2981 27.0881 65.2981 26.9853V25.5182C65.2981 25.4153 65.3816 25.3318 65.4845 25.3318C65.5874 25.3318 65.6709 25.4153 65.6709 25.5182V26.9853C65.6709 27.0881 65.5874 27.1716 65.4845 27.1716ZM18.5204 24.2539C18.4175 24.2539 18.334 24.1704 18.334 24.0675V22.6004C18.334 22.4976 18.4175 22.4141 18.5204 22.4141C18.6232 22.4141 18.7067 22.4976 18.7067 22.6004V24.0675C18.7067 24.1704 18.6232 24.2539 18.5204 24.2539ZM65.4845 24.236C65.3816 24.236 65.2981 24.1525 65.2981 24.0496V22.5811C65.2981 22.4782 65.3816 22.3947 65.4845 22.3947C65.5874 22.3947 65.6709 22.4782 65.6709 22.5811V24.0496C65.6709 24.1525 65.5874 24.236 65.4845 24.236ZM18.5204 21.3168C18.4175 21.3168 18.334 21.2333 18.334 21.1304V19.6633C18.334 19.5605 18.4175 19.477 18.5204 19.477C18.6232 19.477 18.7067 19.5605 18.7067 19.6633V21.1304C18.7067 21.2333 18.6232 21.3168 18.5204 21.3168ZM65.4845 21.2989C65.3816 21.2989 65.2981 21.2154 65.2981 21.1125V19.6454C65.2981 19.5426 65.3816 19.4591 65.4845 19.4591C65.5874 19.4591 65.6709 19.5426 65.6709 19.6454V21.1125C65.6709 21.2169 65.5874 21.2989 65.4845 21.2989ZM18.5204 18.3811C18.4175 18.3811 18.334 18.2976 18.334 18.1948V16.7277C18.334 16.6248 18.4175 16.5413 18.5204 16.5413C18.6232 16.5413 18.7067 16.6248 18.7067 16.7277V18.1948C18.7067 18.2991 18.6232 18.3811 18.5204 18.3811ZM65.4845 18.3632C65.3816 18.3632 65.2981 18.2797 65.2981 18.1769V16.7098C65.2981 16.6069 65.3816 16.5234 65.4845 16.5234C65.5874 16.5234 65.6709 16.6069 65.6709 16.7098V18.1769C65.6709 18.2812 65.5874 18.3632 65.4845 18.3632Z"></path></mask><path d="M62.519 36.5346C62.5131 36.5346 62.5071 36.5346 62.5012 36.5346H61.8258C61.7229 36.5346 61.6394 36.4511 61.6394 36.3483C61.6394 36.2454 61.7229 36.1619 61.8258 36.1619H62.5026H62.5176C62.7606 36.1619 63.0021 36.1306 63.2347 36.0665C63.3316 36.0292 63.4375 36.0963 63.4628 36.1962C63.4911 36.2946 63.4315 36.399 63.3331 36.4243C63.0677 36.4989 62.7934 36.5346 62.519 36.5346ZM60.3587 36.5346H58.8916C58.7887 36.5346 58.7053 36.4511 58.7053 36.3483C58.7053 36.2454 58.7887 36.1619 58.8916 36.1619H60.3587C60.4616 36.1619 60.5451 36.2454 60.5451 36.3483C60.5451 36.4511 60.4616 36.5346 60.3587 36.5346ZM57.4231 36.5346H55.956C55.8531 36.5346 55.7696 36.4511 55.7696 36.3483C55.7696 36.2454 55.8531 36.1619 55.956 36.1619H57.4231C57.5259 36.1619 57.6094 36.2454 57.6094 36.3483C57.6094 36.4511 57.5259 36.5346 57.4231 36.5346ZM54.4874 36.5346H53.0204C52.9175 36.5346 52.834 36.4511 52.834 36.3483C52.834 36.2454 52.9175 36.1619 53.0204 36.1619H54.4874C54.5903 36.1619 54.6738 36.2454 54.6738 36.3483C54.6738 36.4511 54.5903 36.5346 54.4874 36.5346ZM51.5518 36.5346H50.0847C49.9819 36.5346 49.8984 36.4511 49.8984 36.3483C49.8984 36.2454 49.9819 36.1619 50.0847 36.1619H51.5518C51.6547 36.1619 51.7382 36.2454 51.7382 36.3483C51.7382 36.4511 51.6562 36.5346 51.5518 36.5346ZM48.6162 36.5346H47.1491C47.0462 36.5346 46.9627 36.4511 46.9627 36.3483C46.9627 36.2454 47.0462 36.1619 47.1491 36.1619H48.6162C48.719 36.1619 48.8025 36.2454 48.8025 36.3483C48.8025 36.4511 48.719 36.5346 48.6162 36.5346ZM45.6805 36.5346H44.2135C44.1106 36.5346 44.0271 36.4511 44.0271 36.3483C44.0271 36.2454 44.1106 36.1619 44.2135 36.1619H45.6805C45.7834 36.1619 45.8669 36.2454 45.8669 36.3483C45.8669 36.4511 45.7834 36.5346 45.6805 36.5346ZM42.7449 36.5346H41.2778C41.175 36.5346 41.0915 36.4511 41.0915 36.3483C41.0915 36.2454 41.175 36.1619 41.2778 36.1619H42.7449C42.8478 36.1619 42.9313 36.2454 42.9313 36.3483C42.9313 36.4511 42.8478 36.5346 42.7449 36.5346ZM39.8093 36.5346H38.3422C38.2393 36.5346 38.1558 36.4511 38.1558 36.3483C38.1558 36.2454 38.2393 36.1619 38.3422 36.1619H39.8093C39.9121 36.1619 39.9956 36.2454 39.9956 36.3483C39.9956 36.4511 39.9136 36.5346 39.8093 36.5346ZM36.8736 36.5346H35.4066C35.3037 36.5346 35.2202 36.4511 35.2202 36.3483C35.2202 36.2454 35.3037 36.1619 35.4066 36.1619H36.8736C36.9765 36.1619 37.06 36.2454 37.06 36.3483C37.06 36.4511 36.9765 36.5346 36.8736 36.5346ZM33.938 36.5346H32.4709C32.3681 36.5346 32.2846 36.4511 32.2846 36.3483C32.2846 36.2454 32.3681 36.1619 32.4709 36.1619H33.938C34.0409 36.1619 34.1244 36.2454 34.1244 36.3483C34.1244 36.4511 34.0409 36.5346 33.938 36.5346ZM31.0024 36.5346H29.5353C29.4324 36.5346 29.3489 36.4511 29.3489 36.3483C29.3489 36.2454 29.4324 36.1619 29.5353 36.1619H31.0024C31.1052 36.1619 31.1887 36.2454 31.1887 36.3483C31.1887 36.4511 31.1052 36.5346 31.0024 36.5346ZM28.0667 36.5346H26.5997C26.4968 36.5346 26.4133 36.4511 26.4133 36.3483C26.4133 36.2454 26.4968 36.1619 26.5997 36.1619H28.0667C28.1696 36.1619 28.2531 36.2454 28.2531 36.3483C28.2531 36.4511 28.1711 36.5346 28.0667 36.5346ZM25.1326 36.5346H23.664C23.5612 36.5346 23.4777 36.4511 23.4777 36.3483C23.4777 36.2454 23.5612 36.1619 23.664 36.1619H25.1326C25.2355 36.1619 25.319 36.2454 25.319 36.3483C25.319 36.4511 25.2355 36.5346 25.1326 36.5346ZM22.1955 36.5346H21.5022C21.2279 36.5346 20.955 36.5003 20.6896 36.4303C20.5898 36.4034 20.5301 36.3021 20.5555 36.2037C20.5823 36.1038 20.6941 36.0471 20.7821 36.0695C21.0177 36.1321 21.2592 36.1619 21.5007 36.1619H22.194C22.2969 36.1619 22.3804 36.2454 22.3804 36.3483C22.3804 36.4511 22.2984 36.5346 22.1955 36.5346ZM19.4656 35.7295C19.4209 35.7295 19.3732 35.7131 19.3389 35.6803C18.9572 35.324 18.668 34.8767 18.501 34.3847C18.4682 34.2878 18.5204 34.182 18.6173 34.1492C18.7082 34.1149 18.82 34.1656 18.8528 34.2654C19.0019 34.6978 19.2569 35.0944 19.5923 35.4075C19.6684 35.4791 19.6728 35.5968 19.6028 35.6714C19.564 35.7087 19.5148 35.7295 19.4656 35.7295ZM64.5512 35.7176C64.502 35.7176 64.4528 35.6982 64.4155 35.6595C64.3439 35.5849 64.3484 35.4671 64.423 35.3956C64.7584 35.078 65.0119 34.6814 65.1565 34.2476C65.1878 34.1506 65.2922 34.094 65.3906 34.1298C65.489 34.1611 65.5426 34.2669 65.5083 34.3638C65.3458 34.8559 65.0581 35.3061 64.6779 35.6654C64.6436 35.6997 64.5974 35.7176 64.5512 35.7176ZM18.5204 33.0593C18.4175 33.0593 18.334 32.9758 18.334 32.8729V31.4059C18.334 31.303 18.4175 31.2195 18.5204 31.2195C18.6232 31.2195 18.7067 31.303 18.7067 31.4059V32.8729C18.7067 32.9758 18.6232 33.0593 18.5204 33.0593ZM65.4845 33.0414C65.3816 33.0414 65.2981 32.9579 65.2981 32.855V31.388C65.2981 31.2851 65.3816 31.2016 65.4845 31.2016C65.5874 31.2016 65.6709 31.2851 65.6709 31.388V32.855C65.6709 32.9594 65.5874 33.0414 65.4845 33.0414ZM18.5204 30.1237C18.4175 30.1237 18.334 30.0402 18.334 29.9373V28.4702C18.334 28.3673 18.4175 28.2839 18.5204 28.2839C18.6232 28.2839 18.7067 28.3673 18.7067 28.4702V29.9373C18.7067 30.0402 18.6232 30.1237 18.5204 30.1237ZM65.4845 30.1058C65.3816 30.1058 65.2981 30.0223 65.2981 29.9194V28.4523C65.2981 28.3495 65.3816 28.266 65.4845 28.266C65.5874 28.266 65.6709 28.3495 65.6709 28.4523V29.9194C65.6709 30.0238 65.5874 30.1058 65.4845 30.1058ZM18.5204 27.188C18.4175 27.188 18.334 27.1045 18.334 27.0017V25.5346C18.334 25.4317 18.4175 25.3482 18.5204 25.3482C18.6232 25.3482 18.7067 25.4317 18.7067 25.5346V27.0017C18.7067 27.106 18.6232 27.188 18.5204 27.188ZM65.4845 27.1716C65.3816 27.1716 65.2981 27.0881 65.2981 26.9853V25.5182C65.2981 25.4153 65.3816 25.3318 65.4845 25.3318C65.5874 25.3318 65.6709 25.4153 65.6709 25.5182V26.9853C65.6709 27.0881 65.5874 27.1716 65.4845 27.1716ZM18.5204 24.2539C18.4175 24.2539 18.334 24.1704 18.334 24.0675V22.6004C18.334 22.4976 18.4175 22.4141 18.5204 22.4141C18.6232 22.4141 18.7067 22.4976 18.7067 22.6004V24.0675C18.7067 24.1704 18.6232 24.2539 18.5204 24.2539ZM65.4845 24.236C65.3816 24.236 65.2981 24.1525 65.2981 24.0496V22.5811C65.2981 22.4782 65.3816 22.3947 65.4845 22.3947C65.5874 22.3947 65.6709 22.4782 65.6709 22.5811V24.0496C65.6709 24.1525 65.5874 24.236 65.4845 24.236ZM18.5204 21.3168C18.4175 21.3168 18.334 21.2333 18.334 21.1304V19.6633C18.334 19.5605 18.4175 19.477 18.5204 19.477C18.6232 19.477 18.7067 19.5605 18.7067 19.6633V21.1304C18.7067 21.2333 18.6232 21.3168 18.5204 21.3168ZM65.4845 21.2989C65.3816 21.2989 65.2981 21.2154 65.2981 21.1125V19.6454C65.2981 19.5426 65.3816 19.4591 65.4845 19.4591C65.5874 19.4591 65.6709 19.5426 65.6709 19.6454V21.1125C65.6709 21.2169 65.5874 21.2989 65.4845 21.2989ZM18.5204 18.3811C18.4175 18.3811 18.334 18.2976 18.334 18.1948V16.7277C18.334 16.6248 18.4175 16.5413 18.5204 16.5413C18.6232 16.5413 18.7067 16.6248 18.7067 16.7277V18.1948C18.7067 18.2991 18.6232 18.3811 18.5204 18.3811ZM65.4845 18.3632C65.3816 18.3632 65.2981 18.2797 65.2981 18.1769V16.7098C65.2981 16.6069 65.3816 16.5234 65.4845 16.5234C65.5874 16.5234 65.6709 16.6069 65.6709 16.7098V18.1769C65.6709 18.2812 65.5874 18.3632 65.4845 18.3632Z" fill="#0369CA"></path><path d="M62.519 36.5346C62.5131 36.5346 62.5071 36.5346 62.5012 36.5346H61.8258C61.7229 36.5346 61.6394 36.4511 61.6394 36.3483C61.6394 36.2454 61.7229 36.1619 61.8258 36.1619H62.5026H62.5176C62.7606 36.1619 63.0021 36.1306 63.2347 36.0665C63.3316 36.0292 63.4375 36.0963 63.4628 36.1962C63.4911 36.2946 63.4315 36.399 63.3331 36.4243C63.0677 36.4989 62.7934 36.5346 62.519 36.5346ZM60.3587 36.5346H58.8916C58.7887 36.5346 58.7053 36.4511 58.7053 36.3483C58.7053 36.2454 58.7887 36.1619 58.8916 36.1619H60.3587C60.4616 36.1619 60.5451 36.2454 60.5451 36.3483C60.5451 36.4511 60.4616 36.5346 60.3587 36.5346ZM57.4231 36.5346H55.956C55.8531 36.5346 55.7696 36.4511 55.7696 36.3483C55.7696 36.2454 55.8531 36.1619 55.956 36.1619H57.4231C57.5259 36.1619 57.6094 36.2454 57.6094 36.3483C57.6094 36.4511 57.5259 36.5346 57.4231 36.5346ZM54.4874 36.5346H53.0204C52.9175 36.5346 52.834 36.4511 52.834 36.3483C52.834 36.2454 52.9175 36.1619 53.0204 36.1619H54.4874C54.5903 36.1619 54.6738 36.2454 54.6738 36.3483C54.6738 36.4511 54.5903 36.5346 54.4874 36.5346ZM51.5518 36.5346H50.0847C49.9819 36.5346 49.8984 36.4511 49.8984 36.3483C49.8984 36.2454 49.9819 36.1619 50.0847 36.1619H51.5518C51.6547 36.1619 51.7382 36.2454 51.7382 36.3483C51.7382 36.4511 51.6562 36.5346 51.5518 36.5346ZM48.6162 36.5346H47.1491C47.0462 36.5346 46.9627 36.4511 46.9627 36.3483C46.9627 36.2454 47.0462 36.1619 47.1491 36.1619H48.6162C48.719 36.1619 48.8025 36.2454 48.8025 36.3483C48.8025 36.4511 48.719 36.5346 48.6162 36.5346ZM45.6805 36.5346H44.2135C44.1106 36.5346 44.0271 36.4511 44.0271 36.3483C44.0271 36.2454 44.1106 36.1619 44.2135 36.1619H45.6805C45.7834 36.1619 45.8669 36.2454 45.8669 36.3483C45.8669 36.4511 45.7834 36.5346 45.6805 36.5346ZM42.7449 36.5346H41.2778C41.175 36.5346 41.0915 36.4511 41.0915 36.3483C41.0915 36.2454 41.175 36.1619 41.2778 36.1619H42.7449C42.8478 36.1619 42.9313 36.2454 42.9313 36.3483C42.9313 36.4511 42.8478 36.5346 42.7449 36.5346ZM39.8093 36.5346H38.3422C38.2393 36.5346 38.1558 36.4511 38.1558 36.3483C38.1558 36.2454 38.2393 36.1619 38.3422 36.1619H39.8093C39.9121 36.1619 39.9956 36.2454 39.9956 36.3483C39.9956 36.4511 39.9136 36.5346 39.8093 36.5346ZM36.8736 36.5346H35.4066C35.3037 36.5346 35.2202 36.4511 35.2202 36.3483C35.2202 36.2454 35.3037 36.1619 35.4066 36.1619H36.8736C36.9765 36.1619 37.06 36.2454 37.06 36.3483C37.06 36.4511 36.9765 36.5346 36.8736 36.5346ZM33.938 36.5346H32.4709C32.3681 36.5346 32.2846 36.4511 32.2846 36.3483C32.2846 36.2454 32.3681 36.1619 32.4709 36.1619H33.938C34.0409 36.1619 34.1244 36.2454 34.1244 36.3483C34.1244 36.4511 34.0409 36.5346 33.938 36.5346ZM31.0024 36.5346H29.5353C29.4324 36.5346 29.3489 36.4511 29.3489 36.3483C29.3489 36.2454 29.4324 36.1619 29.5353 36.1619H31.0024C31.1052 36.1619 31.1887 36.2454 31.1887 36.3483C31.1887 36.4511 31.1052 36.5346 31.0024 36.5346ZM28.0667 36.5346H26.5997C26.4968 36.5346 26.4133 36.4511 26.4133 36.3483C26.4133 36.2454 26.4968 36.1619 26.5997 36.1619H28.0667C28.1696 36.1619 28.2531 36.2454 28.2531 36.3483C28.2531 36.4511 28.1711 36.5346 28.0667 36.5346ZM25.1326 36.5346H23.664C23.5612 36.5346 23.4777 36.4511 23.4777 36.3483C23.4777 36.2454 23.5612 36.1619 23.664 36.1619H25.1326C25.2355 36.1619 25.319 36.2454 25.319 36.3483C25.319 36.4511 25.2355 36.5346 25.1326 36.5346ZM22.1955 36.5346H21.5022C21.2279 36.5346 20.955 36.5003 20.6896 36.4303C20.5898 36.4034 20.5301 36.3021 20.5555 36.2037C20.5823 36.1038 20.6941 36.0471 20.7821 36.0695C21.0177 36.1321 21.2592 36.1619 21.5007 36.1619H22.194C22.2969 36.1619 22.3804 36.2454 22.3804 36.3483C22.3804 36.4511 22.2984 36.5346 22.1955 36.5346ZM19.4656 35.7295C19.4209 35.7295 19.3732 35.7131 19.3389 35.6803C18.9572 35.324 18.668 34.8767 18.501 34.3847C18.4682 34.2878 18.5204 34.182 18.6173 34.1492C18.7082 34.1149 18.82 34.1656 18.8528 34.2654C19.0019 34.6978 19.2569 35.0944 19.5923 35.4075C19.6684 35.4791 19.6728 35.5968 19.6028 35.6714C19.564 35.7087 19.5148 35.7295 19.4656 35.7295ZM64.5512 35.7176C64.502 35.7176 64.4528 35.6982 64.4155 35.6595C64.3439 35.5849 64.3484 35.4671 64.423 35.3956C64.7584 35.078 65.0119 34.6814 65.1565 34.2476C65.1878 34.1506 65.2922 34.094 65.3906 34.1298C65.489 34.1611 65.5426 34.2669 65.5083 34.3638C65.3458 34.8559 65.0581 35.3061 64.6779 35.6654C64.6436 35.6997 64.5974 35.7176 64.5512 35.7176ZM18.5204 33.0593C18.4175 33.0593 18.334 32.9758 18.334 32.8729V31.4059C18.334 31.303 18.4175 31.2195 18.5204 31.2195C18.6232 31.2195 18.7067 31.303 18.7067 31.4059V32.8729C18.7067 32.9758 18.6232 33.0593 18.5204 33.0593ZM65.4845 33.0414C65.3816 33.0414 65.2981 32.9579 65.2981 32.855V31.388C65.2981 31.2851 65.3816 31.2016 65.4845 31.2016C65.5874 31.2016 65.6709 31.2851 65.6709 31.388V32.855C65.6709 32.9594 65.5874 33.0414 65.4845 33.0414ZM18.5204 30.1237C18.4175 30.1237 18.334 30.0402 18.334 29.9373V28.4702C18.334 28.3673 18.4175 28.2839 18.5204 28.2839C18.6232 28.2839 18.7067 28.3673 18.7067 28.4702V29.9373C18.7067 30.0402 18.6232 30.1237 18.5204 30.1237ZM65.4845 30.1058C65.3816 30.1058 65.2981 30.0223 65.2981 29.9194V28.4523C65.2981 28.3495 65.3816 28.266 65.4845 28.266C65.5874 28.266 65.6709 28.3495 65.6709 28.4523V29.9194C65.6709 30.0238 65.5874 30.1058 65.4845 30.1058ZM18.5204 27.188C18.4175 27.188 18.334 27.1045 18.334 27.0017V25.5346C18.334 25.4317 18.4175 25.3482 18.5204 25.3482C18.6232 25.3482 18.7067 25.4317 18.7067 25.5346V27.0017C18.7067 27.106 18.6232 27.188 18.5204 27.188ZM65.4845 27.1716C65.3816 27.1716 65.2981 27.0881 65.2981 26.9853V25.5182C65.2981 25.4153 65.3816 25.3318 65.4845 25.3318C65.5874 25.3318 65.6709 25.4153 65.6709 25.5182V26.9853C65.6709 27.0881 65.5874 27.1716 65.4845 27.1716ZM18.5204 24.2539C18.4175 24.2539 18.334 24.1704 18.334 24.0675V22.6004C18.334 22.4976 18.4175 22.4141 18.5204 22.4141C18.6232 22.4141 18.7067 22.4976 18.7067 22.6004V24.0675C18.7067 24.1704 18.6232 24.2539 18.5204 24.2539ZM65.4845 24.236C65.3816 24.236 65.2981 24.1525 65.2981 24.0496V22.5811C65.2981 22.4782 65.3816 22.3947 65.4845 22.3947C65.5874 22.3947 65.6709 22.4782 65.6709 22.5811V24.0496C65.6709 24.1525 65.5874 24.236 65.4845 24.236ZM18.5204 21.3168C18.4175 21.3168 18.334 21.2333 18.334 21.1304V19.6633C18.334 19.5605 18.4175 19.477 18.5204 19.477C18.6232 19.477 18.7067 19.5605 18.7067 19.6633V21.1304C18.7067 21.2333 18.6232 21.3168 18.5204 21.3168ZM65.4845 21.2989C65.3816 21.2989 65.2981 21.2154 65.2981 21.1125V19.6454C65.2981 19.5426 65.3816 19.4591 65.4845 19.4591C65.5874 19.4591 65.6709 19.5426 65.6709 19.6454V21.1125C65.6709 21.2169 65.5874 21.2989 65.4845 21.2989ZM18.5204 18.3811C18.4175 18.3811 18.334 18.2976 18.334 18.1948V16.7277C18.334 16.6248 18.4175 16.5413 18.5204 16.5413C18.6232 16.5413 18.7067 16.6248 18.7067 16.7277V18.1948C18.7067 18.2991 18.6232 18.3811 18.5204 18.3811ZM65.4845 18.3632C65.3816 18.3632 65.2981 18.2797 65.2981 18.1769V16.7098C65.2981 16.6069 65.3816 16.5234 65.4845 16.5234C65.5874 16.5234 65.6709 16.6069 65.6709 16.7098V18.1769C65.6709 18.2812 65.5874 18.3632 65.4845 18.3632Z" stroke="#0369CA" stroke-width="0.6" mask="url(#path-22-outside-3_314_395)"></path><path d="M15.5365 12.4124H68.4643C68.9587 12.4124 69.3598 12.0113 69.3598 11.517V7.70916C69.3598 3.92734 66.2825 0.85 62.5006 0.85H21.5002C17.7184 0.85 14.641 3.92734 14.641 7.70916V11.517C14.641 12.0113 15.0421 12.4124 15.5365 12.4124ZM67.5689 7.70916V10.6215H16.4319V7.70916C16.4319 4.91452 18.7055 2.64093 21.5002 2.64093H62.5006C65.2953 2.64093 67.5689 4.91452 67.5689 7.70916Z" fill="#0369CA" stroke="#0369CA" stroke-width="0.3"></path><path d="M19.7523 6.87342C19.7523 8.3071 20.9199 9.47301 22.3519 9.47301C23.7856 9.47301 24.9515 8.30704 24.9515 6.87342C24.9515 5.4398 23.7856 4.27383 22.3519 4.27383C20.9183 4.27383 19.7523 5.4398 19.7523 6.87342ZM21.5433 6.87491C21.5433 6.42863 21.9068 6.06624 22.3519 6.06624C22.7984 6.06624 23.1606 6.42847 23.1606 6.87491C23.1606 7.32135 22.7984 7.68357 22.3519 7.68357C21.9055 7.68357 21.5433 7.32135 21.5433 6.87491Z" fill="#0369CA" stroke="#0369CA" stroke-width="0.3"></path><path d="M26.1508 6.87342C26.1508 8.3071 27.3183 9.47301 28.7504 9.47301C30.184 9.47301 31.35 8.30704 31.35 6.87342C31.35 5.4398 30.184 4.27383 28.7504 4.27383C27.3168 4.27383 26.1508 5.4398 26.1508 6.87342ZM27.9417 6.87491C27.9417 6.42863 28.3053 6.06624 28.7504 6.06624C29.1968 6.06624 29.559 6.42847 29.559 6.87491C29.559 7.32135 29.1968 7.68357 28.7504 7.68357C28.3039 7.68357 27.9417 7.32135 27.9417 6.87491Z" fill="#0369CA" stroke="#0369CA" stroke-width="0.3"></path><path d="M32.5482 6.87342C32.5482 8.30716 33.7158 9.47301 35.1493 9.47301C36.5829 9.47301 37.7489 8.30704 37.7489 6.87342C37.7489 5.43974 36.5814 4.27383 35.1493 4.27383C33.7143 4.27383 32.5482 5.43974 32.5482 6.87342ZM34.3392 6.87491C34.3392 6.42893 34.7039 6.06624 35.1493 6.06624C35.5958 6.06624 35.958 6.42847 35.958 6.87491C35.958 7.32135 35.5958 7.68357 35.1493 7.68357C34.7026 7.68357 34.3392 7.32104 34.3392 6.87491Z" fill="#0369CA" stroke="#0369CA" stroke-width="0.3"></path><path d="M49.9349 7.77374H63.9929C64.4872 7.77374 64.8883 7.37261 64.8883 6.87828C64.8883 6.38394 64.4872 5.98281 63.9929 5.98281H49.9349C49.4406 5.98281 49.0395 6.38394 49.0395 6.87828C49.0395 7.37261 49.4406 7.77374 49.9349 7.77374Z" fill="#0369CA" stroke="#0369CA" stroke-width="0.3"></path><path d="M23.1775 29.8707L23.1775 29.8705L23.6696 27.0066L21.5883 24.9791C21.5883 24.979 21.5883 24.979 21.5882 24.979L21.5881 24.9789L23.1775 29.8707ZM23.1775 29.8707C23.1203 30.2067 23.2577 30.547 23.5341 30.7464C23.8092 30.9464 24.1731 30.9756 24.4765 30.8141C24.4766 30.8141 24.4767 30.814 24.4768 30.814L27.0482 29.4615L29.6195 30.8139C29.6196 30.814 29.6198 30.814 29.6199 30.8141C29.7508 30.884 29.8928 30.9181 30.036 30.9181C30.2201 30.9181 30.4063 30.861 30.5627 30.7462L23.1775 29.8707ZM26.2458 20.4262L24.9583 23.0317L26.2458 20.4261L26.2458 20.4262ZM32.012 23.4497L29.1367 23.0317L32.0122 23.4498L32.012 23.4497C32.012 23.4497 32.012 23.4497 32.012 23.4497ZM29.9598 24.9613L28.8419 26.0517C28.8418 26.0518 28.8417 26.0519 28.8416 26.052C28.6283 26.2584 28.5339 26.554 28.582 26.8446L28.5821 26.8454L28.8455 28.3859L27.4626 27.6595C27.4626 27.6595 27.4625 27.6595 27.4625 27.6594C27.334 27.5917 27.1908 27.5557 27.0467 27.5557C26.9027 27.5557 26.76 27.5916 26.6323 27.6573L26.6323 27.6573L26.6311 27.6579L25.2482 28.3843L25.5128 26.8455L25.513 26.8446C25.5612 26.5533 25.4647 26.258 25.2535 26.0522L24.1351 24.9613L25.6817 24.7366L25.6822 24.7366C25.972 24.6936 26.2243 24.5112 26.3551 24.2479L26.3552 24.2476L27.0481 22.8456L27.7395 24.2471C27.7395 24.2472 27.7396 24.2473 27.7396 24.2474C27.8692 24.5117 28.1235 24.6937 28.4128 24.7366L28.4132 24.7366L29.9598 24.9613Z" fill="#0369CA" stroke="#0369CA" stroke-width="0.3"></path><path d="M38.1297 29.8755L38.1297 29.8752L38.6218 27.0114L36.5405 24.9838C36.5405 24.9838 36.5404 24.9838 36.5404 24.9838C36.2951 24.7456 36.2073 24.3892 36.313 24.065M38.1297 29.8755L46.9658 23.4545L46.9657 23.4545C46.9656 23.4545 46.9656 23.4545 46.9656 23.4545L44.0889 23.0365L42.8029 20.4312C42.8029 20.4312 42.8029 20.4311 42.8029 20.4311C42.647 20.1139 42.3143 19.9672 42.0009 19.9672C41.6875 19.9672 41.3546 20.114 41.198 20.4309L41.1979 20.431L39.9119 23.0365L37.0349 23.4545L37.0344 23.4546C36.6981 23.5047 36.4186 23.7393 36.313 24.065M38.1297 29.8755C38.0725 30.2114 38.2099 30.5518 38.4863 30.7512C38.7612 30.951 39.1267 30.9804 39.4288 30.8189C39.4289 30.8188 39.4291 30.8187 39.4293 30.8186L42.0004 29.4663L44.5731 30.8172C44.5732 30.8172 44.5734 30.8173 44.5735 30.8174C44.7045 30.8873 44.8465 30.9213 44.9897 30.9213C45.1735 30.9213 45.3597 30.8644 45.5147 30.7511C45.7909 30.5517 45.9283 30.2114 45.8711 29.8755L45.871 29.8752L45.379 27.0114L47.4603 24.9838L38.1297 29.8755ZM36.313 24.065C36.313 24.065 36.313 24.0649 36.313 24.0649L36.4556 24.1114L36.3129 24.0651C36.3129 24.0651 36.3129 24.0651 36.313 24.065ZM41.5832 27.6612L40.2004 28.3875L40.4649 26.8488L40.4651 26.8479C40.5133 26.5566 40.4168 26.2613 40.2056 26.0555L39.0873 24.9646L40.6354 24.7399L40.6358 24.7398C40.9251 24.697 41.1794 24.515 41.309 24.2506C41.309 24.2506 41.3091 24.2505 41.3091 24.2504L42.0002 22.8508L42.6901 24.2519C42.6902 24.252 42.6902 24.252 42.6902 24.2521C42.8198 24.5164 43.0742 24.6985 43.3635 24.7413L43.3639 24.7414L44.9119 24.9661L43.7941 26.0565C43.794 26.0566 43.7939 26.0567 43.7938 26.0568C43.5804 26.2632 43.486 26.5588 43.5341 26.8494L43.5343 26.8503L43.7989 28.389L42.4163 27.6628C42.4163 27.6628 42.4162 27.6628 42.4162 27.6628C42.2877 27.595 42.1445 27.559 42.0004 27.559C41.8562 27.559 41.7138 27.595 41.5852 27.6602L41.5852 27.6602L41.5832 27.6612Z" fill="#0369CA" stroke="#0369CA" stroke-width="0.3"></path><path d="M53.0842 29.8716L53.0843 29.8713L53.5763 27.0075L51.4963 24.9797L51.4961 24.9795C51.2515 24.7402 51.1633 24.3856 51.269 24.0611C51.3747 23.7353 51.6542 23.5008 51.9904 23.4507L51.9909 23.4506L54.8664 23.0326L56.1525 20.4271L56.1525 20.427C56.3091 20.1101 56.6421 19.9633 56.9555 19.9633C57.2689 19.9633 57.6016 20.1101 57.7574 20.4272C57.7575 20.4272 57.7575 20.4273 57.7575 20.4273L59.0449 23.0326L61.9202 23.4506C61.9202 23.4506 61.9202 23.4506 61.9202 23.4506L61.9204 23.4506L53.0842 29.8716ZM53.0842 29.8716C53.027 30.2075 53.1644 30.5479 53.4408 30.7473C53.7158 30.9471 54.0812 30.9765 54.3833 30.8149C54.3835 30.8149 54.3837 30.8148 54.3838 30.8147L56.9549 29.4624L59.5262 30.8148C59.5263 30.8148 59.5265 30.8149 59.5267 30.815C59.6576 30.8849 59.7995 30.9189 59.9427 30.9189C60.1285 30.9189 60.3132 30.8618 60.4694 30.747C60.7456 30.5476 60.8828 30.2074 60.8256 29.8716L60.8256 29.8713L60.3335 27.0075L62.4148 24.9799L53.0842 29.8716ZM59.865 24.9637L58.7471 26.0541C58.7471 26.0542 58.747 26.0543 58.7469 26.0544C58.5335 26.2608 58.4391 26.5564 58.4872 26.847L58.4874 26.8479L58.7519 28.3866L57.3694 27.6604C57.3693 27.6604 57.3693 27.6604 57.3693 27.6604C57.2408 27.5925 57.0975 27.5566 56.9534 27.5566C56.8092 27.5566 56.6662 27.5926 56.5368 27.66L56.5363 27.6602L55.1534 28.3866L55.418 26.8479L55.4182 26.847C55.4664 26.5557 55.3699 26.2604 55.1587 26.0546C55.1587 26.0546 55.1587 26.0546 55.1587 26.0545L54.0404 24.9637L55.587 24.739L55.5874 24.7389C55.8766 24.6961 56.131 24.514 56.2606 24.2497C56.2606 24.2496 56.2606 24.2496 56.2607 24.2495L56.9521 22.848L57.6449 24.25L57.6451 24.2502C57.7758 24.5135 58.0281 24.696 58.318 24.7389L58.3184 24.739L59.865 24.9637Z" fill="#0369CA" stroke="#0369CA" stroke-width="0.3"></path><path d="M24.1819 57.1199L24.182 57.1199L27.7166 56.1194C27.846 55.7723 27.9903 55.4266 28.1486 55.0833L26.3566 51.8747C26.3566 51.8746 26.3566 51.8746 26.3566 51.8746C26.1612 51.5251 26.2225 51.0884 26.5049 50.8042L26.5052 50.8038L31.3758 45.9333C31.3758 45.9332 31.3759 45.9332 31.376 45.9331C31.6584 45.6491 32.0951 45.5915 32.4458 45.7838L32.4469 45.7843L35.6556 47.5764C35.9992 47.418 36.3458 47.2736 36.6916 47.1432L37.6937 43.6097L37.6938 43.609C37.8047 43.2246 38.1554 42.9594 38.5551 42.9594H45.4417C45.8426 42.9594 46.1938 43.2244 46.3031 43.6096L46.3031 43.6097L47.3052 47.1431C47.6522 47.2736 47.9978 47.418 48.3412 47.5764L51.5499 45.7843L51.5512 45.7836C51.904 45.5912 52.334 45.6498 52.62 45.9323L52.6207 45.933L57.4916 50.8038C57.7747 51.0869 57.8353 51.5238 57.6403 51.8744L57.6402 51.8746L55.8482 55.0833C56.0065 55.4268 56.1508 55.7735 56.2801 56.1194L59.8148 57.1199L59.8155 57.1201C60.1999 57.2309 60.4652 57.5817 60.4652 57.9814L60.4652 61.4263L60.4652 61.4269M24.1819 57.1199L24.2228 57.2642C23.9023 57.3552 23.6816 57.6474 23.6816 57.9814V61.4269C23.6816 61.8384 24.0156 62.1723 24.4271 62.1723H59.5712C59.9827 62.1723 60.3167 61.8399 60.3152 61.4269H60.4652M24.1819 57.1199C23.7967 57.2292 23.5316 57.5805 23.5316 57.9814V61.4269C23.5316 61.9212 23.9328 62.3223 24.4271 62.3223H59.5712C60.0651 62.3223 60.4667 61.9232 60.4652 61.4269M24.1819 57.1199L60.4652 61.4269M29.8079 54.6879C29.9286 54.9041 29.9346 55.1635 29.8243 55.3857L25.3211 58.5449V58.6584M29.8079 54.6879L29.9388 54.6148C30.0838 54.8744 30.0908 55.1861 29.9586 55.4524L29.9586 55.4524C29.681 56.0104 29.4422 56.5796 29.2522 57.1422L29.2521 57.1425C29.1573 57.4216 28.9318 57.6365 28.6487 57.7171L28.6485 57.7172L25.3211 58.6584M29.8079 54.6879L28.065 51.5644M29.8079 54.6879L28.065 51.5644M25.3211 58.6584V60.5314M25.3211 58.6584V60.5314M25.3211 60.5314H58.6757V58.6584L55.3483 57.7172L55.3481 57.7171C55.065 57.6365 54.8395 57.4216 54.7447 57.1425L54.7446 57.1422C54.5545 56.5794 54.3172 56.0103 54.0384 55.4527C53.9058 55.1876 53.9131 54.8742 54.058 54.6147L55.7456 51.5903L51.8342 47.6789L48.8098 49.3665C48.5506 49.5114 48.2418 49.5202 47.9722 49.3863L47.9721 49.3863C47.4141 49.1088 46.8449 48.8699 46.2823 48.6799L46.2818 48.6798C46.0048 48.585 45.7882 48.3599 45.7074 48.0765L45.7074 48.0763L44.7647 44.7488H39.2321L38.2894 48.0763L38.2894 48.0765C38.2086 48.3599 37.992 48.585 37.7151 48.6798L37.7145 48.6799C37.1517 48.87 36.5826 49.1074 36.025 49.3862L36.0236 49.3869L36.0236 49.3869C35.7565 49.5168 35.447 49.51 35.1877 49.3669L35.1871 49.3666L32.1626 47.6789L28.2512 51.5903L29.9388 54.6147L25.3211 60.5314ZM28.065 51.5644L32.1367 47.4927L28.065 51.5644ZM37.6665 48.5378C37.097 48.7302 36.5215 48.9702 35.9579 49.252L38.1451 48.0354C38.078 48.271 37.8976 48.4588 37.6665 48.5378Z" fill="#0369CA" stroke="#0369CA" stroke-width="0.3"></path><path d="M32.4886 62.3166H51.5158C52.01 62.3166 52.4113 61.9172 52.4113 61.4212C52.4113 55.6818 47.7416 51.0121 42.0022 51.0121C36.2628 51.0121 31.5932 55.6818 31.5932 61.4212C31.5932 61.9155 31.9943 62.3166 32.4886 62.3166ZM50.5743 60.5257H33.4316C33.8802 56.1939 37.5548 52.803 42.0037 52.803C46.4527 52.803 50.1258 56.1925 50.5743 60.5257Z" fill="#0369CA" stroke="#0369CA" stroke-width="0.3"></path><path d="M53.5889 60.6993L53.5889 60.6993L53.5889 60.7006C53.6051 60.9399 53.6125 61.181 53.6125 61.424C53.6125 61.6097 53.7631 61.7604 53.9488 61.7604C54.1338 61.7604 54.2852 61.612 54.2852 61.424C54.2852 61.1662 54.2777 60.9094 54.261 60.6568L54.261 60.6568L54.2609 60.6558C54.2471 60.4643 54.0888 60.3446 53.9151 60.3422L53.9151 60.3416L53.9022 60.3426C53.7173 60.356 53.5781 60.5162 53.5889 60.6993ZM53.913 60.4922C54.0204 60.4937 54.1039 60.5638 54.1113 60.6666C54.1277 60.9156 54.1352 61.1691 54.1352 61.424C54.1352 61.5284 54.0517 61.6104 53.9488 61.6104C53.8459 61.6104 53.7625 61.5269 53.7625 61.424C53.7625 61.178 53.755 60.9335 53.7386 60.6905C53.7326 60.5891 53.8102 60.4996 53.913 60.4922Z" fill="#0369CA" stroke="#0369CA" stroke-width="0.3"></path><path d="M30.9293 57.9159C30.9859 57.7377 30.886 57.55 30.7117 57.4937L30.7109 57.4935C30.5397 57.4391 30.3459 57.5343 30.2887 57.7111L30.2885 57.7118C30.139 58.183 30.0183 58.6675 29.9277 59.1488L29.9277 59.1488L29.9274 59.1505C29.8952 59.3331 30.0161 59.5069 30.1976 59.5416L30.1976 59.5416L30.2011 59.5422C30.2145 59.5444 30.2353 59.5472 30.2585 59.5472C30.4213 59.5472 30.5577 59.4322 30.5891 59.2726L30.5891 59.2726L30.5894 59.2709C30.6732 58.8166 30.788 58.362 30.9293 57.9159ZM30.9293 57.9159C30.9293 57.9159 30.9293 57.916 30.9293 57.916L30.7863 57.8705M30.9293 57.9159C30.9293 57.9159 30.9293 57.9159 30.9293 57.9158L30.7863 57.8705M30.7863 57.8705C30.8176 57.7721 30.7625 57.6677 30.6656 57.6364L30.4419 59.2437C30.5269 58.783 30.6432 58.3223 30.7863 57.8705ZM52.5045 55.0537C52.4085 54.8952 52.2016 54.847 52.0432 54.9417C51.8804 55.0385 51.836 55.2471 51.9302 55.4042L51.9307 55.4049C52.1705 55.7992 52.3898 56.2157 52.5826 56.6426L52.5829 56.6432C52.6395 56.7673 52.7614 56.8397 52.8893 56.8397C52.9376 56.8397 52.9831 56.8285 53.0227 56.8131L53.0228 56.8134L53.0319 56.8092C53.1979 56.7315 53.2733 56.532 53.1975 56.3641L53.1971 56.3633C52.9907 55.9128 52.7599 55.4722 52.5045 55.0537ZM52.5045 55.0537C52.5046 55.0538 52.5047 55.054 52.5048 55.0542L52.3764 55.1317M52.5045 55.0537C52.5045 55.0536 52.5045 55.0536 52.5045 55.0536L52.3764 55.1317M52.3764 55.1317C52.6284 55.5447 52.8565 55.98 53.0607 56.4258M52.3764 55.1317C52.3242 55.0452 52.2094 55.0169 52.12 55.0706C52.032 55.1227 52.0052 55.2375 52.0588 55.327L53.0607 56.4258M53.0607 56.4258C53.1025 56.5182 53.0607 56.6301 52.9683 56.6733C52.9415 56.6837 52.9146 56.6897 52.8893 56.6897C52.8177 56.6897 52.7506 56.6494 52.7193 56.5809L53.0607 56.4258ZM50.6769 52.7325C50.5437 52.5994 50.331 52.604 50.2009 52.7341L50.307 52.8401L50.2009 52.7341C50.0678 52.8673 50.0724 53.08 50.2024 53.2101L50.2027 53.2103C50.5294 53.5356 50.8414 53.8858 51.1313 54.2552L51.1312 54.2552L51.1343 54.259C51.1998 54.3371 51.2947 54.3841 51.3969 54.3841C51.4709 54.3841 51.5436 54.3594 51.6041 54.312L51.6051 54.3112C51.7502 54.1957 51.7742 53.9844 51.6614 53.8394L51.6607 53.8385C51.3531 53.4495 51.0227 53.0768 50.6769 52.7325ZM50.6769 52.7325C50.6768 52.7324 50.6768 52.7324 50.6767 52.7323L50.5709 52.8386L50.677 52.7326C50.6769 52.7326 50.6769 52.7325 50.6769 52.7325ZM49.5723 51.7531C49.183 51.4469 48.7729 51.1649 48.3568 50.9131C48.2001 50.8143 47.9894 50.8625 47.8938 51.0268C47.7996 51.1833 47.8458 51.3909 48.0085 51.4868C48.4012 51.7267 48.7882 51.9945 49.1559 52.2828L49.1567 52.2834C49.217 52.33 49.2913 52.3535 49.3633 52.3535C49.4655 52.3535 49.561 52.3076 49.6261 52.2295L49.6262 52.2296L49.6301 52.2245C49.7401 52.0804 49.7218 51.8703 49.5723 51.7531ZM49.5723 51.7531L49.4795 51.871L49.5719 51.7529C49.5721 51.753 49.5722 51.7531 49.5723 51.7531ZM46.7684 50.8344L46.7684 50.8344C46.3414 50.6415 45.9027 50.4737 45.4627 50.3353L45.4622 50.3352C45.2874 50.2795 45.1852 50.0924 45.2426 49.914M46.7684 50.8344L45.3855 49.9597M46.7684 50.8344L46.7731 50.8364C46.8128 50.8527 46.8576 50.8641 46.9077 50.8641C47.0364 50.8641 47.1579 50.7895 47.2128 50.6672M46.7684 50.8344L46.8302 50.6977M45.2426 49.914C45.2426 49.9138 45.2427 49.9137 45.2427 49.9136L45.3855 49.9597M45.2426 49.914C45.2426 49.914 45.2426 49.9141 45.2425 49.9142L45.3855 49.9597M45.2426 49.914C45.2991 49.7369 45.4921 49.6395 45.6635 49.6945M45.3855 49.9597C45.4168 49.8613 45.5256 49.8076 45.618 49.8374M45.6635 49.6945C45.6633 49.6944 45.6632 49.6944 45.663 49.6943L45.618 49.8374M45.6635 49.6945C46.1298 49.8409 46.5929 50.0174 47.0453 50.221L47.0455 50.221C47.2127 50.2965 47.2907 50.4969 47.2128 50.6672M45.6635 49.6945C45.6637 49.6945 45.6639 49.6946 45.6641 49.6947L45.618 49.8374M45.618 49.8374L47.2128 50.6672M46.8302 50.6977C46.8555 50.7081 46.8809 50.7141 46.9077 50.7141C46.9793 50.7141 47.0464 50.6723 47.0762 50.6052M46.8302 50.6977C46.3978 50.5024 45.9535 50.3324 45.5077 50.1922L46.8302 50.6977ZM47.0762 50.6052L47.2124 50.668C47.2125 50.6677 47.2127 50.6675 47.2128 50.6672M47.0762 50.6052L47.2132 50.6662C47.2131 50.6665 47.2129 50.6669 47.2128 50.6672M47.0762 50.6052C47.1194 50.5113 47.0762 50.3995 46.9837 50.3577L47.2128 50.6672M38.5716 50.3266C38.7459 50.2728 38.8488 50.0858 38.7929 49.9069C38.7404 49.7306 38.5601 49.6304 38.3749 49.6845L38.3749 49.6844L38.3728 49.6851C37.9015 49.8301 37.435 50.0067 36.9852 50.209L36.985 50.2091C36.8156 50.2856 36.7427 50.4867 36.8172 50.6542L36.8172 50.6542L36.8178 50.6556C36.8745 50.7797 36.9963 50.8521 37.1242 50.8521C37.1734 50.8521 37.2183 50.8406 37.2574 50.8244L37.2574 50.8245L37.262 50.8225C37.6855 50.6313 38.127 50.465 38.5716 50.3266ZM38.5716 50.3266C38.5715 50.3266 38.5714 50.3266 38.5713 50.3267L38.5272 50.1833M38.5716 50.3266C38.5716 50.3266 38.5717 50.3266 38.5718 50.3265L38.5272 50.1833M38.5272 50.1833C38.077 50.3235 37.6297 50.4919 37.2003 50.6857M38.5272 50.1833C38.6241 50.1535 38.6808 50.0491 38.6495 49.9507C38.6211 49.8538 38.5242 49.7972 38.4169 49.8285L37.2003 50.6857M37.2003 50.6857C37.1749 50.6962 37.1496 50.7021 37.1242 50.7021C37.0527 50.7021 36.9856 50.6619 36.9543 50.5933C36.9125 50.4994 36.9543 50.3876 37.0467 50.3458L37.2003 50.6857ZM53.807 59.5765L53.807 59.5765L53.8101 59.5759C53.9923 59.5416 54.115 59.3667 54.0805 59.1839C53.993 58.7041 53.8738 58.2197 53.7244 57.7471C53.6701 57.5697 53.4737 57.4693 53.3024 57.5265C53.1255 57.5816 53.0266 57.7718 53.0835 57.9479L53.2262 57.9018L53.083 57.9464C53.2229 58.3955 53.3362 58.8518 53.4201 59.3049C53.4497 59.4682 53.5902 59.5815 53.751 59.5815C53.7754 59.5815 53.7954 59.5784 53.807 59.5765ZM32.0878 55.3782L32.0883 55.3773C32.1832 55.2192 32.1369 55.0136 31.977 54.9158C31.8177 54.8179 31.6109 54.8654 31.5135 55.0277L31.6421 55.1048L31.5143 55.0264C31.2576 55.4447 31.0252 55.8837 30.8201 56.3316C30.7419 56.4998 30.8172 56.7008 30.9863 56.7769C31.0297 56.7971 31.0763 56.8084 31.1263 56.8084C31.2509 56.8084 31.3758 56.7374 31.4316 56.611C31.6258 56.1888 31.8465 55.7739 32.0878 55.3782ZM32.4174 54.2882L32.4181 54.2887C32.4784 54.3353 32.5527 54.3588 32.6246 54.3588C32.7242 54.3588 32.8199 54.3153 32.8872 54.2351L32.8872 54.2352L32.8903 54.2313C33.1741 53.8695 33.486 53.5193 33.8201 53.1882L33.8206 53.1877C33.9506 53.0577 33.9553 52.8449 33.8221 52.7117C33.6921 52.5818 33.4797 52.577 33.3465 52.7098C32.9934 53.0598 32.6612 53.4313 32.3605 53.8151L32.3604 53.8151L32.3593 53.8166C32.2492 53.9608 32.2677 54.1711 32.4174 54.2882ZM34.3959 52.2036L34.3959 52.2036L34.7775 52.1439L34.8699 52.2621C34.8699 52.262 34.8699 52.262 34.87 52.262C35.2335 51.978 35.6221 51.7101 36.0224 51.4687C36.1841 51.3715 36.2313 51.1644 36.138 51.0073L36.1377 51.0067C36.0383 50.841 35.833 50.8043 35.6803 50.8883L35.6803 50.8882L35.6752 50.8912C35.2493 51.148 34.8404 51.4317 34.4544 51.7317L34.4544 51.7317L34.4519 51.7337C34.3106 51.8484 34.2836 52.0565 34.3959 52.2036ZM44.1058 50.0013L44.1058 50.0014L44.1119 50.0023L44.1134 50.0025C44.1236 50.004 44.1431 50.0068 44.1659 50.0068C44.327 50.0068 44.4648 49.8939 44.4989 49.7365L44.499 49.7365L44.5 49.7308C44.5322 49.5482 44.4113 49.3744 44.2298 49.3397V49.3397L44.2287 49.3395C43.7502 49.2519 43.2568 49.1916 42.7606 49.1599L42.7522 49.1594L42.7437 49.1598C42.6008 49.1667 42.4177 49.2719 42.4031 49.4732L42.4031 49.4732L42.403 49.4754C42.3922 49.6605 42.5321 49.8186 42.7163 49.832L42.7163 49.832L42.7182 49.8321C43.1861 49.86 43.6526 49.9174 44.1058 50.0013ZM39.8106 49.3321L39.81 49.3322C39.6275 49.3666 39.5048 49.5418 39.5397 49.7249C39.5696 49.8878 39.7099 50.0008 39.8705 50.0008C39.8956 50.0008 39.9166 49.9976 39.9359 49.9934C40.3836 49.9113 40.8506 49.8556 41.3192 49.8291L41.3194 49.8291C41.5049 49.8184 41.6473 49.658 41.6364 49.4738C41.6305 49.3727 41.5771 49.2937 41.5151 49.2426C41.4541 49.1922 41.3758 49.1608 41.2974 49.1568L41.2893 49.1564L41.2813 49.1569C40.7818 49.1856 40.2866 49.2444 39.8106 49.3321Z" fill="#0369CA" stroke="#0369CA" stroke-width="0.3"></path><path d="M29.7384 60.6576L29.7384 60.6577C29.7233 60.9106 29.7143 61.1656 29.7143 61.424C29.7143 61.6097 29.8649 61.7604 30.0506 61.7604C30.2378 61.7604 30.387 61.6112 30.387 61.424C30.387 61.1816 30.3958 60.9387 30.4106 60.6997L30.4106 60.6997L30.4106 60.699C30.4212 60.5128 30.28 60.3533 30.0952 60.3424L30.0952 60.3422H30.0864H30.0745C29.9002 60.3422 29.7493 60.4781 29.7384 60.6576ZM30.0864 60.4922C30.1878 60.4982 30.2668 60.5861 30.2608 60.6905L29.8881 60.6666C29.8941 60.5682 29.9776 60.4922 30.0745 60.4922H30.0864Z" fill="#0369CA" stroke="#0369CA" stroke-width="0.3"></path><path d="M10.4017 44.7503H27.0479C27.5422 44.7503 27.9434 44.3492 27.9434 43.8548C27.9434 43.3605 27.5422 42.9594 27.0479 42.9594H10.4017C9.90737 42.9594 9.50625 43.3605 9.50625 43.8548C9.50625 44.3492 9.90737 44.7503 10.4017 44.7503Z" fill="#0369CA" stroke="#0369CA" stroke-width="0.3"></path><path d="M11.7562 49.0198H23.0455C23.5398 49.0198 23.941 48.6187 23.941 48.1244C23.941 47.63 23.5398 47.2289 23.0455 47.2289H11.7562C11.2619 47.2289 10.8607 47.63 10.8607 48.1244C10.8607 48.6187 11.2619 49.0198 11.7562 49.0198Z" fill="#0369CA" stroke="#0369CA" stroke-width="0.3"></path><path d="M11.7562 53.2894H23.0455C23.5398 53.2894 23.941 52.8882 23.941 52.3939C23.941 51.8996 23.5398 51.4984 23.0455 51.4984H11.7562C11.2619 51.4984 10.8607 51.8996 10.8607 52.3939C10.8607 52.8882 11.2619 53.2894 11.7562 53.2894Z" fill="#0369CA" stroke="#0369CA" stroke-width="0.3"></path><path d="M56.9535 44.7503H73.5997C74.0957 44.7503 74.4951 44.349 74.4951 43.8548C74.4951 43.3605 74.094 42.9594 73.5997 42.9594H56.9535C56.4591 42.9594 56.058 43.3605 56.058 43.8548C56.058 44.3492 56.4591 44.7503 56.9535 44.7503Z" fill="#0369CA" stroke="#0369CA" stroke-width="0.3"></path><path d="M60.9564 49.0198H72.2457C72.74 49.0198 73.1411 48.6187 73.1411 48.1244C73.1411 47.63 72.74 47.2289 72.2457 47.2289H60.9564C60.4621 47.2289 60.0609 47.63 60.0609 48.1244C60.0609 48.6187 60.4621 49.0198 60.9564 49.0198Z" fill="#0369CA" stroke="#0369CA" stroke-width="0.3"></path><path d="M60.9564 53.2894H72.2457C72.74 53.2894 73.1411 52.8882 73.1411 52.3939C73.1411 51.8996 72.74 51.4984 72.2457 51.4984H60.9564C60.4621 51.4984 60.0609 51.8996 60.0609 52.3939C60.0609 52.8882 60.4621 53.2894 60.9564 53.2894Z" fill="#0369CA" stroke="#0369CA" stroke-width="0.3"></path></svg>