<svg xmlns="http://www.w3.org/2000/svg" width="71" height="71" viewBox="0 0 71 71" fill="none"><path d="M56.6812 15.4235C56.1902 11.7442 54.5597 8.31085 52.0183 5.6053C49.4769 2.89975 46.1523 1.05772 42.5109 0.337652C38.8694 -0.382413 35.0939 0.0556242 31.7141 1.5903C28.3343 3.12498 25.5197 5.67929 23.6653 8.89484C22.0599 8.33055 20.3437 8.15419 18.657 8.38017C16.2859 8.70573 14.0939 9.82147 12.4353 11.547C10.7768 13.2725 9.74866 15.507 9.51719 17.8892C9.43145 18.7856 9.45609 19.6892 9.59055 20.5797C7.04847 21.2718 4.77648 22.7195 3.07528 24.7312C1.37407 26.7429 0.323857 29.2238 0.0636212 31.8456C-0.196614 34.4673 0.345401 37.1062 1.61793 39.4131C2.89046 41.72 4.83352 43.5862 7.18993 44.7645C7.19821 44.852 7.20058 44.9491 7.21005 45.0366C7.26192 45.5422 7.45121 46.0239 7.75738 46.4296C8.06355 46.8352 8.47493 47.1493 8.94691 47.3378L11.5392 48.3731C12.1397 50.8713 13.1299 53.2594 14.4734 55.4495L13.379 58.0182C13.1712 58.4832 13.0981 58.9971 13.168 59.5016C13.2378 60.0061 13.4479 60.4809 13.7742 60.8719C14.8164 62.1146 15.9644 63.2646 17.2053 64.309C17.5965 64.6391 18.0727 64.8524 18.5795 64.9246C19.0863 64.9968 19.6031 64.9249 20.0709 64.7172L22.6419 63.6216C24.832 64.9651 27.2201 65.9553 29.7183 66.5558L30.7642 69.1516C30.9519 69.621 31.264 70.0304 31.667 70.3356C32.07 70.6408 32.5486 70.8303 33.0513 70.8838C34.6776 71.0387 36.3149 71.0387 37.9412 70.8838C38.4468 70.8319 38.9286 70.6426 39.3342 70.3364C39.7399 70.0303 40.054 69.6189 40.2425 69.1469L41.2777 66.5546C43.776 65.9541 46.1641 64.9639 48.3542 63.6204L50.9228 64.7148C51.3877 64.9227 51.9016 64.9961 52.4061 64.9264C52.9106 64.8568 53.3854 64.6469 53.7766 64.3208C55.0193 63.2786 56.1693 62.1306 57.2136 60.8897C57.5444 60.4988 57.7581 60.0225 57.8303 59.5156C57.9025 59.0087 57.8303 58.4917 57.6218 58.0241L56.5262 55.4531C57.8698 53.263 58.86 50.8749 59.4604 48.3766L62.0563 47.3402C62.5257 47.1526 62.935 46.8405 63.2402 46.4375C63.5455 46.0345 63.735 45.5559 63.7884 45.0532C63.831 44.6332 63.857 44.1918 63.8748 43.728C66.6069 41.9922 68.7211 39.4379 69.9159 36.4296C71.1106 33.4212 71.3249 30.1124 70.5281 26.9751C69.7313 23.8377 67.9641 21.0321 65.4787 18.9584C62.9932 16.8847 59.9164 15.6488 56.6871 15.427L56.6812 15.4235ZM61.4268 44.826C61.415 44.8963 61.385 44.9622 61.3398 45.0172C61.2945 45.0723 61.2356 45.1144 61.1689 45.1395L57.9992 46.4067C57.8186 46.4786 57.6584 46.594 57.5329 46.7426C57.4074 46.8912 57.3205 47.0684 57.2799 47.2586C56.7173 49.9075 55.6717 52.4303 54.1954 54.7006C54.0899 54.8632 54.026 55.0493 54.0093 55.2424C53.9926 55.4355 54.0236 55.6297 54.0996 55.808L55.4401 58.9517C55.4718 59.0176 55.4846 59.091 55.4768 59.1638C55.4691 59.2365 55.4412 59.3057 55.3963 59.3634C54.4384 60.5002 53.3851 61.5531 52.2479 62.5106C52.1902 62.5512 52.1225 62.5754 52.0521 62.5806C51.9816 62.5858 51.9111 62.5719 51.848 62.5402L48.7068 61.2008C48.5284 61.1249 48.3342 61.0939 48.1411 61.1106C47.948 61.1273 47.7619 61.1912 47.5993 61.2967C45.329 62.7729 42.8063 63.8185 40.1573 64.3811C39.9671 64.4218 39.7899 64.5087 39.6413 64.6342C39.4927 64.7597 39.3774 64.9198 39.3054 65.1005L38.0394 68.2725C38.0134 68.3419 37.9691 68.403 37.9112 68.4492C37.8533 68.4955 37.784 68.5252 37.7105 68.5352C36.2333 68.6754 34.7462 68.6754 33.269 68.5352C33.1987 68.5234 33.1328 68.4934 33.0778 68.4481C33.0227 68.4029 32.9806 68.3439 32.9554 68.2773L31.6883 65.1076C31.6164 64.9269 31.501 64.7668 31.3524 64.6413C31.2038 64.5158 31.0266 64.4289 30.8364 64.3882C28.1874 63.8256 25.6647 62.78 23.3944 61.3038C23.2318 61.1983 23.0457 61.1344 22.8526 61.1177C22.6595 61.101 22.4653 61.132 22.287 61.2079L19.1433 62.5484C19.0775 62.5805 19.004 62.5934 18.9312 62.5856C18.8584 62.5779 18.7892 62.5498 18.7316 62.5047C17.5928 61.5489 16.5397 60.4954 15.5844 59.3563C15.5439 59.2985 15.5197 59.2308 15.5145 59.1604C15.5093 59.09 15.5233 59.0195 15.5548 58.9564L16.8941 55.8151C16.9701 55.6368 17.0011 55.4426 16.9844 55.2495C16.9677 55.0564 16.9038 54.8703 16.7983 54.7077C15.3221 52.4374 14.2765 49.9146 13.7138 47.2657C13.6732 47.0755 13.5863 46.8983 13.4608 46.7497C13.3353 46.6011 13.1752 46.4857 12.9945 46.4138L9.82836 45.1478C9.75897 45.1218 9.69792 45.0775 9.65167 45.0196C9.60543 44.9617 9.57572 44.8923 9.5657 44.8189C9.4255 43.3417 9.4255 41.8545 9.5657 40.3773C9.57749 40.3071 9.60752 40.2411 9.65278 40.1861C9.69804 40.1311 9.75696 40.0889 9.82363 40.0638L12.9933 38.7967C13.174 38.7247 13.3341 38.6094 13.4596 38.4608C13.5851 38.3122 13.672 38.135 13.7127 37.9448C14.2753 35.2958 15.3209 32.7731 16.7971 30.5028C16.9026 30.3401 16.9665 30.1541 16.9832 29.961C16.9999 29.7679 16.9689 29.5736 16.893 29.3953L15.5525 26.2517C15.5207 26.1858 15.508 26.1123 15.5157 26.0396C15.5234 25.9668 15.5513 25.8977 15.5962 25.84C16.5542 24.7032 17.6075 23.6503 18.7446 22.6928C18.8026 22.6527 18.8702 22.6289 18.9405 22.6237C19.0108 22.6185 19.0812 22.6321 19.1445 22.6632L22.2858 24.0025C22.4641 24.0785 22.6583 24.1095 22.8514 24.0928C23.0445 24.076 23.2306 24.0121 23.3932 23.9067C25.6635 22.4304 28.1863 21.3848 30.8352 20.8222C31.0254 20.7815 31.2026 20.6946 31.3512 20.5692C31.4998 20.4437 31.6152 20.2835 31.6871 20.1028L32.9531 16.9367C32.9791 16.8673 33.0234 16.8063 33.0813 16.76C33.1392 16.7138 33.2086 16.6841 33.282 16.6741C34.7592 16.5333 36.2464 16.5333 37.7235 16.6741C37.7938 16.6859 37.8597 16.7159 37.9148 16.7612C37.9698 16.8064 38.012 16.8653 38.0371 16.932L39.3042 20.1017C39.3762 20.2823 39.4915 20.4425 39.6401 20.568C39.7887 20.6935 39.9659 20.7804 40.1561 20.821C42.8051 21.3836 45.3278 22.4292 47.5981 23.9055C47.7608 24.011 47.9468 24.0749 48.1399 24.0916C48.333 24.1083 48.5273 24.0773 48.7056 24.0013L51.8492 22.6608C51.9152 22.6293 51.9886 22.6167 52.0613 22.6245C52.134 22.6322 52.2031 22.6599 52.2609 22.7046C53.3997 23.6604 54.4528 24.7138 55.4081 25.853C55.4486 25.9108 55.4728 25.9785 55.478 26.0488C55.4832 26.1192 55.4693 26.1897 55.4377 26.2529L54.0984 29.3941C54.0224 29.5725 53.9914 29.7667 54.0081 29.9598C54.0249 30.1529 54.0888 30.339 54.1942 30.5016C55.6705 32.7719 56.7161 35.2946 57.2787 37.9436C57.3194 38.1338 57.4063 38.311 57.5317 38.4596C57.6572 38.6082 57.8174 38.7235 57.9981 38.7955L61.1642 40.0614C61.2336 40.0875 61.2946 40.1318 61.3409 40.1897C61.3871 40.2476 61.4168 40.3169 61.4268 40.3904C61.5667 41.8656 61.5667 43.3508 61.4268 44.826ZM63.831 40.8234C63.8156 40.5998 63.805 40.3691 63.7825 40.1537C63.7296 39.6494 63.5399 39.169 63.2341 38.7645C62.9282 38.36 62.5177 38.0467 62.0468 37.8584L59.4545 36.8232C58.8541 34.3249 57.8639 31.9368 56.5203 29.7467L57.6147 27.1781C57.8225 26.7131 57.8956 26.1991 57.8258 25.6946C57.7559 25.1901 57.5459 24.7154 57.2195 24.3243C56.1777 23.0813 55.0296 21.9313 53.7884 20.8873C53.3975 20.5565 52.9213 20.3428 52.4144 20.2706C51.9075 20.1984 51.3905 20.2706 50.9228 20.4791L48.3518 21.5747C46.1617 20.2311 43.7736 19.2409 41.2754 18.6405L40.2389 16.0446C40.0513 15.5752 39.7392 15.1659 39.3362 14.8606C38.9332 14.5554 38.4546 14.3659 37.9519 14.3125C36.3256 14.1581 34.6883 14.1581 33.0619 14.3125C32.5564 14.3644 32.0746 14.5537 31.669 14.8598C31.2633 15.166 30.9492 15.5774 30.7607 16.0494L29.7254 18.6417C27.2272 19.2421 24.8391 20.2323 22.649 21.5759L20.0804 20.4815C19.6154 20.2737 19.1014 20.2005 18.5969 20.2704C18.0924 20.3403 17.6176 20.5503 17.2266 20.8766C15.9857 21.9188 14.8376 23.0668 13.7955 24.3078C13.4647 24.6986 13.251 25.1749 13.1788 25.6818C13.1066 26.1887 13.1788 26.7057 13.3873 27.1734L14.4829 29.7444C13.1393 31.9345 12.1491 34.3226 11.5487 36.8208L8.94336 37.8655C8.47395 38.0531 8.06459 38.3653 7.75938 38.7683C7.45416 39.1712 7.26465 39.6499 7.21123 40.1525C7.15444 40.7157 7.12722 41.3227 7.11421 41.9782C5.37906 40.8269 4.02033 39.1913 3.20676 37.2744C2.39319 35.3576 2.16064 33.2439 2.53797 31.1961C2.91531 29.1482 3.88592 27.2563 5.32925 25.7553C6.77257 24.2543 8.62504 23.2103 10.6566 22.7531C11.1092 22.6477 11.5033 22.3708 11.7558 21.9806C12.0083 21.5904 12.0995 21.1174 12.0101 20.6613C11.8392 19.8211 11.7942 18.9603 11.8764 18.1069C12.0556 16.2586 12.8528 14.5248 14.1393 13.1857C15.4258 11.8466 17.1263 10.9806 18.9658 10.7275C20.4329 10.5322 21.9255 10.7248 23.295 11.286C23.6993 11.44 24.1457 11.4421 24.5514 11.2917C24.957 11.1413 25.2942 10.8488 25.5004 10.4684C27.0632 7.56855 29.5143 5.24591 32.4941 3.84134C35.4738 2.43678 38.8253 2.02424 42.0567 2.66428C45.2881 3.30432 48.2293 4.96322 50.4487 7.39756C52.6681 9.8319 54.0488 12.9135 54.3883 16.1902C54.4365 16.6126 54.6347 17.0037 54.947 17.2923C55.2592 17.5809 55.6647 17.7477 56.0896 17.7626C58.732 17.8555 61.283 18.7524 63.4021 20.3335C65.5212 21.9147 67.1074 24.1048 67.9488 26.6113C68.7902 29.1178 68.8468 31.8214 68.111 34.3609C67.3752 36.9004 65.8821 39.155 63.831 40.8234Z" fill="#047BDC"></path><path d="M35.4964 22.4844C31.5183 22.4844 27.6296 23.664 24.3219 25.8741C21.0142 28.0842 18.4362 31.2255 16.9139 34.9008C15.3915 38.5761 14.9932 42.6203 15.7693 46.5219C16.5454 50.4236 18.461 54.0075 21.274 56.8204C24.0869 59.6334 27.6708 61.549 31.5724 62.3251C35.4741 63.1012 39.5183 62.7029 43.1936 61.1805C46.8688 59.6582 50.0101 57.0801 52.2203 53.7725C54.4304 50.4648 55.61 46.5761 55.61 42.598C55.6041 37.2653 53.483 32.1528 49.7123 28.3821C45.9416 24.6113 40.829 22.4903 35.4964 22.4844ZM35.4964 60.3453C31.9863 60.3453 28.5551 59.3044 25.6365 57.3543C22.718 55.4042 20.4433 52.6325 19.1001 49.3896C17.7568 46.1467 17.4054 42.5783 18.0901 39.1356C18.7749 35.693 20.4652 32.5307 22.9472 30.0487C25.4292 27.5667 28.5915 25.8765 32.0341 25.1917C35.4767 24.5069 39.0451 24.8584 42.288 26.2016C45.5309 27.5449 48.3027 29.8196 50.2527 32.7381C52.2028 35.6566 53.2437 39.0879 53.2437 42.598C53.2384 47.3032 51.3669 51.8142 48.0398 55.1413C44.7127 58.4684 40.2017 60.3399 35.4964 60.3453Z" fill="#047BDC"></path><path d="M35.497 29.5841C33.4753 29.5768 31.4801 30.0441 29.6718 30.9482C27.8635 31.8524 26.2925 33.1682 25.0853 34.7899C24.992 34.9142 24.9242 35.0557 24.8856 35.2062C24.8471 35.3567 24.8386 35.5133 24.8605 35.6672C24.8825 35.821 24.9346 35.9689 25.0137 36.1026C25.0929 36.2363 25.1976 36.3531 25.3219 36.4464C25.4462 36.5396 25.5876 36.6074 25.7382 36.646C25.8887 36.6845 26.0453 36.6931 26.1991 36.6711C26.3529 36.6491 26.5009 36.5971 26.6346 36.5179C26.7683 36.4387 26.8851 36.334 26.9783 36.2097C28.2916 34.457 30.1137 33.1523 32.1961 32.4737C34.2784 31.7951 36.5195 31.7757 38.6133 32.4181C40.7071 33.0606 42.5516 34.3335 43.895 36.0633C45.2383 37.793 46.0152 39.8952 46.1194 42.0829L45.7987 41.7623C45.5756 41.5467 45.2767 41.4275 44.9665 41.4302C44.6563 41.4329 44.3595 41.5573 44.1402 41.7767C43.9208 41.996 43.7964 42.2928 43.7937 42.603C43.791 42.9132 43.9102 43.2121 44.1257 43.4352L46.492 45.8015C46.7139 46.0233 47.0148 46.148 47.3285 46.148C47.6423 46.148 47.9431 46.0233 48.165 45.8015L50.5313 43.4352C50.7468 43.2121 50.8661 42.9132 50.8634 42.603C50.8607 42.2928 50.7363 41.996 50.5169 41.7767C50.2976 41.5573 50.0008 41.4329 49.6906 41.4302C49.3804 41.4275 49.0815 41.5467 48.8583 41.7623L48.488 42.1326C48.3659 38.7669 46.9444 35.5794 44.5221 33.2396C42.0997 30.8997 38.8649 29.5895 35.497 29.5841Z" fill="#047BDC"></path><path d="M44.016 48.9871C42.7028 50.7398 40.8806 52.0445 38.7982 52.7231C36.7159 53.4017 34.4748 53.4211 32.381 52.7787C30.2872 52.1362 28.4427 50.8632 27.0993 49.1335C25.756 47.4037 24.9791 45.3015 24.875 43.1139L25.1956 43.4345C25.4197 43.6521 25.7197 43.7738 26.0321 43.7738C26.3444 43.7738 26.6445 43.6521 26.8686 43.4345C27.0904 43.2126 27.215 42.9118 27.215 42.598C27.215 42.2843 27.0904 41.9834 26.8686 41.7615L24.5023 39.3952C24.2804 39.1734 23.9795 39.0488 23.6658 39.0488C23.352 39.0488 23.0512 39.1734 22.8293 39.3952L20.463 41.7615C20.2475 41.9847 20.1282 42.2836 20.1309 42.5938C20.1336 42.904 20.258 43.2007 20.4774 43.4201C20.6968 43.6395 20.9935 43.7639 21.3037 43.7666C21.614 43.7693 21.9128 43.65 22.136 43.4345L22.5063 43.0642C22.6012 45.7531 23.5277 48.3465 25.1582 50.4868C26.7887 52.6271 29.0429 54.209 31.6101 55.0144C34.1774 55.8199 36.9312 55.8093 39.4922 54.9841C42.0531 54.1589 44.2951 52.5596 45.909 50.4068C46.0973 50.1558 46.1782 49.8403 46.1338 49.5296C46.0894 49.219 45.9234 48.9387 45.6724 48.7504C45.4214 48.5622 45.1058 48.4813 44.7952 48.5257C44.4846 48.5701 44.2043 48.736 44.016 48.9871Z" fill="#047BDC"></path></svg>