<svg xmlns="http://www.w3.org/2000/svg" width="93" height="93" viewBox="0 0 93 93" fill="none"><path d="M6.95605 34.6872V85.5884C6.95605 88.5771 9.37869 90.9997 12.3674 90.9997H85.5889C88.5776 90.9997 91.0002 88.5771 91.0002 85.5884V29.3672" stroke="#047BDC" stroke-width="2.5" stroke-miterlimit="10" stroke-linecap="round" stroke-linejoin="round"></path><path d="M26.8454 17.0412V15.7167C26.8454 13.1992 24.8045 11.1582 22.287 11.1582H19.6378C17.1202 11.1582 15.0793 13.1992 15.0793 15.7167C15.0793 17.6788 16.3349 19.4207 18.1962 20.0412L23.7283 21.8852C25.5898 22.5057 26.8452 24.2476 26.8452 26.2097C26.8452 28.7272 24.8043 30.7682 22.2868 30.7682H19.6376C17.1201 30.7682 15.0791 28.7272 15.0791 26.2097V24.8852" stroke="#047BDC" stroke-width="2.5" stroke-miterlimit="10" stroke-linecap="round" stroke-linejoin="round"></path><path d="M20.9639 9.75586V32.1677" stroke="#047BDC" stroke-width="2.5" stroke-miterlimit="10" stroke-linecap="round" stroke-linejoin="round"></path><path d="M38.686 12.5592C39.8961 15.1065 40.5733 17.9561 40.5733 20.9637C40.5733 24.6607 39.5502 28.1187 37.7718 31.07V37.7725H31.0694C28.1179 39.5508 24.6599 40.5739 20.9631 40.5739C10.1324 40.5742 1.35254 31.7942 1.35254 20.9639C1.35254 10.1335 10.1324 1.35352 20.9629 1.35352C26.4501 1.35352 31.4112 3.60732 34.9704 7.23975" stroke="#047BDC" stroke-width="2.5" stroke-miterlimit="10" stroke-linecap="round" stroke-linejoin="round"></path><path d="M37.8694 62.4844L40.5731 72.5746L37.3389 73.4412C36.1362 73.7635 34.8997 73.0496 34.5775 71.8468L32.768 65.0939C32.3555 63.5546 30.9606 62.4844 29.3672 62.4844" stroke="#047BDC" stroke-width="2.5" stroke-miterlimit="10" stroke-linecap="round" stroke-linejoin="round"></path><path d="M50.8047 48.4766L53.9019 50.0251C55.4377 50.793 56.4077 52.3624 56.4077 54.0794C56.4077 55.7964 55.4377 57.3659 53.9019 58.1337L50.8047 59.6823" stroke="#047BDC" stroke-width="2.5" stroke-miterlimit="10" stroke-linecap="round" stroke-linejoin="round"></path><path d="M32.1698 45.6777H29.3683C24.7267 45.6777 20.9639 49.4406 20.9639 54.0822C20.9639 58.7238 24.7267 62.4867 29.3683 62.4867H32.1698" stroke="#047BDC" stroke-width="2.5" stroke-miterlimit="10" stroke-linecap="round" stroke-linejoin="round"></path><path d="M50.8053 42.6011C50.8053 41.5207 49.6011 40.8762 48.7021 41.4756L45.3547 43.7072C43.4288 44.9911 41.1658 45.6764 38.851 45.6764H32.1689V62.4853H38.851C41.1658 62.4853 43.4286 63.1704 45.3547 64.4545L48.7021 66.6861C49.6011 67.2855 50.8053 66.641 50.8053 65.5606V42.6011Z" stroke="#047BDC" stroke-width="2.5" stroke-miterlimit="10" stroke-linecap="round" stroke-linejoin="round"></path><path d="M45.2021 50.0742V58.0846" stroke="#047BDC" stroke-width="2.5" stroke-miterlimit="10" stroke-linecap="round" stroke-linejoin="round"></path><path d="M21.4414 56.8809H26.5661" stroke="#047BDC" stroke-width="2.5" stroke-miterlimit="10" stroke-linecap="round" stroke-linejoin="round"></path><path d="M21.4414 51.2773H26.5661" stroke="#047BDC" stroke-width="2.5" stroke-miterlimit="10" stroke-linecap="round" stroke-linejoin="round"></path><path d="M12.5586 85.3965H85.3968" stroke="#047BDC" stroke-width="2.5" stroke-miterlimit="10" stroke-linecap="round" stroke-linejoin="round"></path><path d="M76.9932 37.7715H85.3976" stroke="#047BDC" stroke-width="2.5" stroke-miterlimit="10" stroke-linecap="round" stroke-linejoin="round"></path><path d="M71.3896 43.375H85.3972" stroke="#047BDC" stroke-width="2.5" stroke-miterlimit="10" stroke-linecap="round" stroke-linejoin="round"></path><path d="M71.3896 48.9785H85.3972" stroke="#047BDC" stroke-width="2.5" stroke-miterlimit="10" stroke-linecap="round" stroke-linejoin="round"></path><path d="M71.3896 54.582H79.7941" stroke="#047BDC" stroke-width="2.5" stroke-miterlimit="10" stroke-linecap="round" stroke-linejoin="round"></path><path d="M76.9932 62.9844H85.3976" stroke="#047BDC" stroke-width="2.5" stroke-miterlimit="10" stroke-linecap="round" stroke-linejoin="round"></path><path d="M71.3896 74.1914H85.3972" stroke="#047BDC" stroke-width="2.5" stroke-miterlimit="10" stroke-linecap="round" stroke-linejoin="round"></path><path d="M71.3896 68.5898H85.3972" stroke="#047BDC" stroke-width="2.5" stroke-miterlimit="10" stroke-linecap="round" stroke-linejoin="round"></path><path d="M71.3896 79.7949H79.7941" stroke="#047BDC" stroke-width="2.5" stroke-miterlimit="10" stroke-linecap="round" stroke-linejoin="round"></path><path d="M79.6985 29.368H91.0002V23.5734C91.0002 20.5847 88.5776 18.1621 85.5889 18.1621H40.375" stroke="#047BDC" stroke-width="2.5" stroke-miterlimit="10" stroke-linecap="round" stroke-linejoin="round"></path><path d="M38.6865 29.3672H73.3854" stroke="#047BDC" stroke-width="2.5" stroke-miterlimit="10" stroke-linecap="round" stroke-linejoin="round"></path><path d="M12.5586 74.8996V79.7923H65.7866V34.9688H37.7718" stroke="#047BDC" stroke-width="2.5" stroke-miterlimit="10" stroke-linecap="round" stroke-linejoin="round"></path><path d="M12.5586 38.6875V68.5894" stroke="#047BDC" stroke-width="2.5" stroke-miterlimit="10" stroke-linecap="round" stroke-linejoin="round"></path></svg>