<svg xmlns="http://www.w3.org/2000/svg" width="72" height="72" viewBox="0 0 72 72" fill="none"><path d="M15.5999 16.7999C18.9082 16.7999 21.5998 14.1083 21.5998 10.7999C21.5998 7.49154 18.9082 4.79996 15.5999 4.79996C12.2915 4.79996 9.59992 7.49154 9.59992 10.7999C9.59992 14.1083 12.2915 16.7999 15.5999 16.7999ZM15.5999 7.19994C17.5848 7.19994 19.1998 8.81498 19.1998 10.7999C19.1998 12.7848 17.5848 14.3999 15.5999 14.3999C13.6149 14.3999 11.9999 12.7848 11.9999 10.7999C11.9999 8.81498 13.6149 7.19994 15.5999 7.19994ZM61.7767 33.5997H68.3995C70.3839 33.5997 71.9994 31.9842 71.9994 29.9998C71.9994 28.0153 70.3839 26.3998 68.3995 26.3998H61.7803C60.2943 22.2097 56.2927 19.1998 51.5996 19.1998C46.9064 19.1998 42.9051 22.2097 41.4189 26.3998H3.59997C1.61549 26.3998 0 28.0153 0 29.9998C0 31.9842 1.61549 33.5997 3.59997 33.5997H41.4189C42.7765 37.4275 46.2337 40.2687 50.3996 40.7314V45.5996H45.8636L44.6996 44.3741C44.0147 43.6529 43.0516 43.2349 42.0576 43.2274C41.1129 43.2235 40.2394 43.5682 39.5718 44.207C37.7661 40.759 34.1543 38.3997 29.9998 38.3997C25.3066 38.3997 21.3052 41.4096 19.819 45.5996H3.59997C1.61549 45.5996 0 47.2151 0 49.1996C0 51.1841 1.61549 52.7996 3.59997 52.7996H19.819C21.3051 56.9896 25.3066 59.9995 29.9998 59.9995C35.2538 59.9995 39.6411 56.2276 40.602 51.2499C42.4663 53.8362 44.974 57.5349 45.6893 59.1943C46.0363 59.9994 46.4803 63.2824 46.4854 63.3073C47.4877 68.3438 51.9423 71.9993 57.0774 71.9993H60.5295C65.6597 71.9993 70.1136 68.348 71.1198 63.3173L71.9763 59.0347C71.9919 58.9572 71.9996 58.8784 71.9996 58.7994V49.2673C71.9996 47.3033 70.494 45.6941 68.572 45.6035C68.0459 45.5786 67.5334 45.6656 67.0615 45.8546C66.6479 44.3765 65.3504 43.278 63.772 43.2035C63.2461 43.1786 62.7334 43.2657 62.2615 43.4547C61.848 41.9766 60.5505 40.878 58.972 40.8036C58.4974 40.7811 58.0329 40.8499 57.5997 41.0028V38.9809C59.5512 37.6741 61.0056 35.7716 61.7767 33.5997ZM68.3995 28.7998C69.0609 28.7998 69.5994 29.3383 69.5994 29.9998C69.5994 30.6613 69.0609 31.1997 68.3995 31.1997H62.3308C62.3755 30.8036 62.3995 30.4033 62.3995 29.9998C62.3995 29.594 62.3751 29.194 62.3313 28.7998H68.3995ZM3.59997 31.1997C2.93848 31.1997 2.39998 30.6613 2.39998 29.9998C2.39998 29.3383 2.93848 28.7998 3.59997 28.7998H40.8679C40.8241 29.194 40.7997 29.594 40.7997 29.9998C40.7997 30.4055 40.8241 30.8055 40.8679 31.1997H3.59997ZM43.1997 29.9998C43.1997 25.3681 46.9678 21.5998 51.5996 21.5998C56.2314 21.5998 59.9995 25.3681 59.9995 29.9998C59.9995 32.2176 59.1138 34.3236 57.5995 35.8752V32.3997C57.5995 32.0367 57.5452 31.6865 57.4452 31.356C57.5476 30.9144 57.5995 30.4601 57.5995 29.9998C57.5995 26.6914 54.908 23.9998 51.5996 23.9998C48.2912 23.9998 45.5996 26.6914 45.5996 29.9998C45.5996 32.8973 47.6644 35.3216 50.3996 35.879V38.3125C46.3343 37.7284 43.1997 34.224 43.1997 29.9998ZM50.3996 32.3997V33.3933C49.003 32.898 47.9996 31.5641 47.9996 29.9998C47.9996 28.0148 49.6147 26.3998 51.5996 26.3998C53.2211 26.3998 54.5952 27.4777 55.0443 28.9544C54.7136 28.8542 54.3629 28.7998 53.9996 28.7998C52.0121 28.7998 50.3996 30.4123 50.3996 32.3997ZM50.3996 47.9996V50.3756L48.143 47.9996H50.3996ZM3.59997 50.3996C2.93848 50.3996 2.39998 49.8611 2.39998 49.1996C2.39998 48.5381 2.93848 47.9996 3.59997 47.9996H19.2681C19.2243 48.3938 19.1998 48.7939 19.1998 49.1996C19.1998 49.6053 19.2243 50.0054 19.2681 50.3996H3.59997ZM29.9998 57.5995C25.3679 57.5995 21.5998 53.8313 21.5998 49.1996C21.5998 44.5679 25.3679 40.7997 29.9998 40.7997C34.6316 40.7997 38.3997 44.5679 38.3997 49.1996C38.3997 53.8313 34.6316 57.5995 29.9998 57.5995ZM58.7995 43.1996C59.4622 43.1996 59.9995 43.7369 59.9995 44.3996V51.5996C59.9995 52.2623 60.5368 52.7996 61.1995 52.7996C61.8622 52.7996 62.3995 52.2623 62.3995 51.5996V46.7996C62.3995 46.1369 62.9368 45.5996 63.5995 45.5996C64.2622 45.5996 64.7995 46.1369 64.7995 46.7996V51.5996C64.7995 52.2623 65.3368 52.7996 65.9995 52.7996C66.6622 52.7996 67.1995 52.2623 67.1995 51.5996V49.1996C67.1995 48.5369 67.7368 47.9996 68.3995 47.9996C69.0621 47.9996 69.5994 48.5369 69.5994 49.1996V58.6806L68.7662 62.8468C67.9837 66.7595 64.5196 69.5994 60.5293 69.5994H57.0772C53.0954 69.5994 49.6397 66.7736 48.8462 62.8747C48.7568 62.2135 48.3551 59.3698 47.9099 58.2841C46.7278 55.4004 41.4943 48.3968 41.0214 47.7667C40.669 47.2034 40.7445 46.4356 41.2024 45.9679C41.4177 45.7481 41.7112 45.6274 42.0298 45.6274H42.0393C42.3853 45.6299 42.7207 45.7756 42.9594 46.027L49.037 52.4261C49.2637 52.6646 49.5781 52.7997 49.9072 52.7997H51.5996C52.2623 52.7997 52.7996 52.2624 52.7996 51.5997V32.3997C52.7996 31.7367 53.3366 31.1997 53.9996 31.1997C54.6626 31.1997 55.1996 31.7367 55.1996 32.3997V51.5996C55.1996 52.2623 55.7369 52.7996 56.3995 52.7996C57.0622 52.7996 57.5995 52.2623 57.5995 51.5996V44.3996C57.5995 43.7369 58.1368 43.1996 58.7995 43.1996ZM29.9998 43.1996C26.6914 43.1996 23.9998 45.8912 23.9998 49.1996C23.9998 52.508 26.6914 55.1996 29.9998 55.1996C33.3081 55.1996 35.9997 52.508 35.9997 49.1996C35.9997 45.8912 33.3081 43.1996 29.9998 43.1996ZM29.9998 52.7996C28.0148 52.7996 26.3998 51.1845 26.3998 49.1996C26.3998 47.2147 28.0148 45.5996 29.9998 45.5996C31.9847 45.5996 33.5997 47.2147 33.5997 49.1996C33.5997 51.1845 31.9847 52.7996 29.9998 52.7996ZM3.59997 14.3999H5.41916C6.90519 18.5899 10.9067 21.5998 15.5999 21.5998C20.293 21.5998 24.2944 18.5899 25.7806 14.3999H68.3995C70.3839 14.3999 71.9994 12.7844 71.9994 10.7999C71.9994 8.81543 70.3839 7.19994 68.3995 7.19994H25.7806C24.2944 3.00988 20.293 0 15.5999 0C10.9067 0 6.90534 3.00988 5.41916 7.19994H3.59997C1.61549 7.19994 0 8.81543 0 10.7999C0 12.7844 1.61549 14.3999 3.59997 14.3999ZM68.3995 9.59992C69.0609 9.59992 69.5994 10.1384 69.5994 10.7999C69.5994 11.4614 69.0609 11.9999 68.3995 11.9999H26.3315C26.3753 11.6057 26.3998 11.2057 26.3998 10.7999C26.3998 10.3942 26.3753 9.99412 26.3315 9.59992H68.3995ZM15.5999 2.39998C20.2317 2.39998 23.9998 6.16825 23.9998 10.7999C23.9998 15.4316 20.2317 19.1998 15.5999 19.1998C10.9681 19.1998 7.19994 15.4316 7.19994 10.7999C7.19994 6.16825 10.9681 2.39998 15.5999 2.39998ZM3.59997 9.59992H4.86821C4.82441 9.99412 4.79996 10.3942 4.79996 10.7999C4.79996 11.2057 4.82441 11.6057 4.86821 11.9999H3.59997C2.93848 11.9999 2.39998 11.4614 2.39998 10.7999C2.39998 10.1384 2.93848 9.59992 3.59997 9.59992Z" fill="#048DEF"></path></svg>