<svg xmlns="http://www.w3.org/2000/svg" width="71" height="66" viewBox="0 0 71 66" fill="none"><path d="M32.4739 34.8788L27.1295 36.9728C27.0147 37.0177 26.8956 37.0392 26.7778 37.0392C26.4754 37.0392 26.182 36.8969 25.9962 36.6407L23.5442 33.2591C22.9822 33.2812 22.4158 33.2708 21.8512 33.2281L19.2696 36.514C18.9983 36.8596 18.5281 36.978 18.1252 36.8026L15.5976 35.701C15.109 35.4881 14.8856 34.9194 15.0985 34.4309C15.3115 33.9421 15.88 33.719 16.3686 33.9318L18.2126 34.7355L20.6585 31.6223C20.8651 31.3595 21.1931 31.2223 21.5252 31.2594C22.3302 31.3502 23.1429 31.3648 23.9409 31.3031C24.2751 31.2757 24.5995 31.427 24.7966 31.6986L27.1202 34.9034L31.0744 33.3541L30.601 29.419C30.5611 29.0869 30.6961 28.7575 30.9578 28.549C31.5922 28.0437 32.1778 27.4801 32.6983 26.874C32.9166 26.62 33.2506 26.4966 33.5817 26.5497L37.4933 27.171L39.1896 23.2811L36.0772 20.8393C35.8141 20.6328 35.6766 20.305 35.7139 19.9725C35.8046 19.164 35.8194 18.3496 35.7576 17.5525C35.7317 17.218 35.8815 16.8939 36.1533 16.6971L39.358 14.3733L37.8087 10.4191L33.8777 10.8925C33.545 10.9325 33.2161 10.7974 33.0075 10.5357C32.5 9.89858 31.9359 9.31356 31.3309 8.79703C31.0751 8.5786 30.9515 8.24288 31.0045 7.91089L31.629 4.00357L27.7356 2.30404L25.2939 5.41631C25.0875 5.67926 24.7591 5.81707 24.4273 5.77958C23.6181 5.68904 22.8039 5.67429 22.0073 5.7359C21.6728 5.76277 21.3487 5.61214 21.1518 5.34037L18.8281 2.13563L14.8746 3.68467L15.3512 7.61514C15.3914 7.94741 15.2566 8.27692 14.9949 8.48571C14.357 8.99466 13.7699 9.55942 13.2499 10.165C13.0317 10.4192 12.6975 10.5411 12.3664 10.4894L8.45823 9.86813L6.75884 13.7584L9.87083 16.1999C10.1339 16.4063 10.2715 16.7343 10.2341 17.0666C10.1434 17.8749 10.1287 18.6892 10.1904 19.4866C10.2163 19.8211 10.0665 20.1452 9.79475 20.342L6.5896 22.6661L7.42738 24.8078C7.62156 25.3042 7.37652 25.8637 6.88025 26.058C6.38357 26.2519 5.82418 26.0073 5.63 25.5109L4.52045 22.6745C4.36045 22.2654 4.49702 21.7997 4.85259 21.5418L8.23428 19.0896C8.21223 18.5272 8.22256 17.9596 8.26529 17.3934L4.97979 14.8157C4.63387 14.5442 4.51508 14.0731 4.69121 13.6702L6.9883 8.4117C7.16429 8.00901 7.59069 7.77679 8.02397 7.84501L12.1488 8.50073C12.5309 8.08839 12.9398 7.69479 13.3715 7.32448L12.8684 3.17517C12.8155 2.73843 13.0647 2.32113 13.4744 2.16044L18.8187 0.0664837C19.2279 -0.0936567 19.694 0.0426419 19.9518 0.398479L22.404 3.78017C22.9661 3.75785 23.5335 3.76832 24.1003 3.81118L26.6781 0.525544C26.9494 0.179767 27.4201 0.0609711 27.8234 0.236822L33.0858 2.53405C33.4889 2.71004 33.722 3.1363 33.6526 3.57069L32.9938 7.69341C33.4062 8.0742 33.7997 8.4824 34.17 8.91376L38.3195 8.41418C38.7569 8.3614 39.1728 8.61085 39.3332 9.02015L41.4272 14.3646C41.5876 14.7739 41.451 15.2399 41.0952 15.4978L37.7135 17.9501C37.7357 18.5124 37.7252 19.0799 37.6825 19.6463L40.968 22.2242C41.3138 22.4955 41.4326 22.9663 41.2568 23.3691L38.9636 28.6276C38.7879 29.0307 38.3616 29.2635 37.9278 29.1948L33.7991 28.5391C33.4174 28.951 33.0096 29.3434 32.5798 29.712L33.0795 33.8655C33.1324 34.3017 32.8832 34.7184 32.4739 34.8788ZM18.9233 28.8215L7.79741 39.9446C6.93703 40.8051 5.78931 41.2791 4.56607 41.2791C3.34283 41.2791 2.19511 40.8051 1.3346 39.9446C0.473944 39.084 0 37.9357 0 36.7112C0 35.4867 0.473944 34.3385 1.33446 33.4777L12.5549 22.2574C11.6076 19.6127 11.6987 16.6715 12.8293 14.0875C15.2685 8.49522 21.8078 5.9298 27.4052 8.3705C32.9986 10.8146 35.5634 17.3534 33.1234 22.9471C31.3075 27.1061 27.2286 29.5919 22.9567 29.592C21.6096 29.5917 20.2438 29.3413 18.9233 28.8215ZM14.0977 20.7145L15.9828 18.8297C15.6883 16.5366 16.4648 14.2338 18.113 12.5817C20.1143 10.5804 23.032 9.88218 25.7282 10.7594C26.0474 10.8631 26.2898 11.1254 26.368 11.4519C26.4463 11.7784 26.3494 12.1219 26.112 12.3594L23.803 14.6683C23.032 15.442 23.0314 16.7006 23.803 17.4722C24.577 18.2461 25.8366 18.2463 26.6107 17.4722L28.9151 15.1639C29.1523 14.9265 29.4959 14.8293 29.8222 14.9072C30.1487 14.985 30.4113 15.227 30.5153 15.5462C31.3954 18.2426 30.6976 21.1622 28.6942 23.1654C27.0453 24.8144 24.744 25.5917 22.4493 25.2963L20.4413 27.3037C24.7749 28.5594 29.4975 26.4282 31.3546 22.1751C33.3693 17.5567 31.2512 12.1572 26.6332 10.1393C22.0117 8.12464 16.6122 10.2422 14.5979 14.8602C13.7762 16.7379 13.6101 18.7715 14.0977 20.7145ZM21.4346 23.5819C21.6628 23.3537 21.99 23.2546 22.3064 23.3181C24.1353 23.6847 26.013 23.1173 27.3297 21.8005C28.399 20.7314 28.9671 19.3102 28.9587 17.8519L27.9761 18.8361C26.4489 20.3631 23.9651 20.3631 22.4385 18.8368C20.9157 17.3138 20.9151 14.8322 22.4373 13.3048L23.4239 12.3182C23.4143 12.3182 23.4048 12.3181 23.3951 12.3181C21.9471 12.3181 20.539 12.885 19.4784 13.9456C18.1622 15.2652 17.5945 17.1447 17.9608 18.9728C18.0242 19.2894 17.9253 19.6166 17.6969 19.8448L2.6991 34.8425C2.2031 35.3385 1.92982 36.0022 1.92982 36.7112C1.92982 37.4203 2.20296 38.0839 2.6991 38.5799C3.19523 39.076 3.85812 39.3491 4.56593 39.3491C5.27375 39.3491 5.93664 39.076 6.43263 38.5799L21.4346 23.5819ZM69.9344 46.0398L66.3023 48.1004C66.2608 48.6632 66.1867 49.2256 66.0805 49.7818L69.0571 52.7131C69.3702 53.0214 69.4354 53.5024 69.2157 53.8829L66.3482 58.8522C66.1284 59.2331 65.6789 59.4171 65.2553 59.3L61.2282 58.1867C60.8021 58.5548 60.352 58.8999 59.8829 59.2184L59.9142 63.3986C59.9175 63.8381 59.6235 64.2241 59.199 64.3379L53.6593 65.8225C53.5762 65.8448 53.4924 65.8554 53.4095 65.8554C53.0686 65.8554 52.7449 65.6742 52.5703 65.3669L50.506 61.7308C49.9372 61.6893 49.3758 61.6155 48.8274 61.5101L45.8972 64.4888C45.5888 64.8022 45.1074 64.8676 44.7266 64.6476L39.7573 61.7761C39.3768 61.5561 39.1929 61.107 39.3099 60.6834L40.4233 56.6564C40.0552 56.2302 39.7103 55.7803 39.3919 55.3115L35.2122 55.3461C35.2094 55.3462 35.2068 55.3462 35.204 55.3462C34.7676 55.3462 34.385 55.0531 34.272 54.6308L32.7874 49.0872C32.6738 48.6626 32.8613 48.2149 33.2438 47.9981L36.8792 45.9375C36.9206 45.3686 36.9945 44.8062 37.1001 44.2556L34.1209 41.3253C33.8074 41.017 33.7421 40.5353 33.9622 40.1547L36.8337 35.1853C37.0535 34.8048 37.5026 34.6209 37.9263 34.7381L41.9534 35.8514C42.3792 35.4834 42.8292 35.1385 43.2983 34.82L43.2637 30.6441C43.2601 30.2046 43.5539 29.8183 43.9784 29.7042L49.522 28.2158C49.9465 28.102 50.3948 28.2894 50.6117 28.672L52.6724 32.3078C53.2336 32.3493 53.7958 32.4235 54.3531 32.5295L57.2848 29.5527C57.593 29.2395 58.0738 29.1741 58.4546 29.3941L63.4239 32.2616C63.8047 32.4814 63.9888 32.9308 63.8716 33.3546L62.7582 37.3816C63.1265 37.808 63.4714 38.2579 63.7899 38.7269L67.9663 38.6958C67.9687 38.6956 67.9711 38.6956 67.9736 38.6956C68.41 38.6956 68.7925 38.9887 68.9056 39.4109L70.3901 44.9506C70.504 45.3751 70.3165 45.8228 69.9344 46.0398ZM68.3328 44.7294L67.2346 40.6314L63.277 40.6609C63.2746 40.661 63.2722 40.661 63.2698 40.661C62.9374 40.661 62.6283 40.4898 62.4517 40.2079C62.0222 39.5213 61.5277 38.8764 60.982 38.2914C60.7532 38.0461 60.6681 37.6995 60.7576 37.376L61.8127 33.5601L58.1364 31.4387L55.3588 34.2591C55.1242 34.4975 54.7825 34.5972 54.4566 34.5227C53.6644 34.3418 52.8574 34.2355 52.0578 34.2064C51.723 34.1943 51.4186 34.0094 51.2534 33.7179L49.3011 30.2736L45.1999 31.3748L45.2326 35.332C45.2354 35.6674 45.0638 35.9801 44.7797 36.158C44.0926 36.5879 43.4478 37.0825 42.8632 37.6278C42.6179 37.8567 42.2714 37.942 41.9478 37.8522L38.1315 36.7971L36.0072 40.4734L38.8305 43.2507C39.0701 43.4865 39.1698 43.8299 39.0936 44.1573C38.914 44.9284 38.8079 45.7342 38.7782 46.552C38.7661 46.8869 38.5812 47.1913 38.2897 47.3564L34.8447 49.3091L35.943 53.4102L39.9036 53.3774C39.9064 53.3773 39.909 53.3773 39.9116 53.3773C40.244 53.3773 40.5532 53.5483 40.7297 53.8304C41.1593 54.517 41.6539 55.1618 42.1995 55.7469C42.4283 55.9922 42.5133 56.3388 42.4239 56.6622L41.3686 60.4784L45.0449 62.6028L47.8223 59.7796C48.0059 59.593 48.2545 59.4913 48.5102 59.4913C48.5833 59.4913 48.6569 59.4997 48.73 59.5168C49.4968 59.6961 50.3008 59.802 51.1197 59.8318C51.4541 59.8439 51.7584 60.0286 51.9238 60.3197L53.88 63.7652L57.9783 62.6669L57.9488 58.7053C57.9463 58.3703 58.1179 58.058 58.4019 57.8801C59.0888 57.4504 59.7335 56.9559 60.3182 56.4104C60.5636 56.1818 60.9104 56.0965 61.2336 56.1861L65.0495 57.241L67.1711 53.5647L64.3507 50.7872C64.1121 50.5524 64.0124 50.2104 64.0873 49.8841C64.268 49.0961 64.3744 48.2893 64.4033 47.4864C64.4155 47.1516 64.6003 46.8472 64.8915 46.682L68.3328 44.7294ZM60.1464 44.728C60.759 47.0137 60.4446 49.4008 59.2612 51.4494C57.622 54.287 54.6388 55.875 51.5758 55.875C50.0734 55.8752 48.5522 55.4931 47.1604 54.6891C42.9318 52.2466 41.4784 46.8199 43.9204 42.5923C45.1032 40.5425 47.0131 39.076 49.2976 38.4634C51.5822 37.8512 53.9686 38.1653 56.0172 39.3486C58.0673 40.5317 59.5337 42.4421 60.1464 44.728ZM58.2823 45.2276C57.8031 43.4397 56.6561 41.9454 55.0525 41.0201C55.0523 41.02 55.0522 41.02 55.0522 41.0199C53.9851 40.4035 52.8009 40.0886 51.6011 40.0886C50.9996 40.0886 50.3942 40.1678 49.7978 40.3276C48.0111 40.8068 46.5175 41.9537 45.5921 43.5573C43.6821 46.8639 44.8188 51.1077 48.1259 53.0181C51.4339 54.9289 55.6794 53.792 57.5902 50.4841C58.5155 48.882 58.7613 47.0152 58.2823 45.2276ZM42.0894 17.3414C41.9757 16.9168 42.1632 16.469 42.5455 16.2521L44.7441 15.0056C44.7674 14.7476 44.8007 14.4924 44.8439 14.241L43.0442 12.4703C42.7306 12.1619 42.6654 11.6805 42.8854 11.2999L44.7449 8.08081C44.9649 7.70003 45.4143 7.51618 45.8379 7.63346L48.2708 8.30724C48.4684 8.14352 48.6722 7.98737 48.8816 7.83922L48.862 5.31267C48.8587 4.87304 49.1528 4.48688 49.5774 4.37305L53.1676 3.41193C53.5925 3.29823 54.0401 3.48621 54.2567 3.86865L55.5 6.06348C55.7548 6.08705 56.0107 6.12068 56.2666 6.16436L58.0391 4.36602C58.3474 4.05318 58.8282 3.98827 59.2087 4.20767L62.4239 6.06321C62.8043 6.28288 62.9884 6.73161 62.8719 7.15511L62.2011 9.5925C62.3649 9.7904 62.5215 9.9945 62.6696 10.2041L65.1963 10.1847C65.1988 10.1845 65.2013 10.1845 65.2038 10.1845C65.6402 10.1845 66.0227 10.4777 66.1358 10.8998L67.0968 14.486C67.2105 14.9106 67.0231 15.3584 66.6406 15.5753L64.4422 16.8218C64.4189 17.0798 64.3856 17.3352 64.3424 17.5866L66.1421 19.3572C66.4557 19.6656 66.521 20.147 66.3009 20.5277L64.4412 23.7467C64.2213 24.1277 63.7716 24.3114 63.3481 24.1939L60.9154 23.5202C60.7179 23.6839 60.5139 23.84 60.3046 23.9882L60.324 26.5149C60.3273 26.9545 60.0332 27.3407 59.6086 27.4545L56.0184 28.4156C55.9355 28.4378 55.8515 28.4484 55.7688 28.4484C55.4276 28.4484 55.1036 28.2668 54.9293 27.9589L53.6861 25.7639C53.4318 25.7405 53.1767 25.7069 52.9223 25.6633L51.1463 27.4619C50.8378 27.7744 50.3574 27.8389 49.9772 27.6199L46.762 25.7642C46.3812 25.5444 46.1971 25.0948 46.3144 24.6712L46.9877 22.2364C46.823 22.0388 46.6658 21.8341 46.5165 21.6234L43.9897 21.6429C43.9872 21.643 43.9847 21.643 43.9823 21.643C43.5458 21.643 43.1634 21.3499 43.0502 20.9277L42.0894 17.3414ZM44.1468 17.5629L44.7215 19.7074L47.0224 19.6898C47.0249 19.6896 47.0274 19.6896 47.0299 19.6896C47.3616 19.6896 47.6705 19.8601 47.847 20.1412C48.1148 20.5676 48.4228 20.9681 48.7626 21.3321C48.9918 21.5774 49.0769 21.9243 48.9874 22.2479L48.3739 24.466L50.2969 25.576L51.9142 23.938C52.0976 23.7523 52.3457 23.651 52.6009 23.651C52.672 23.651 52.7435 23.659 52.8145 23.6749C53.3098 23.7874 53.8106 23.8531 54.3028 23.8704C54.6381 23.8821 54.9433 24.0672 55.1087 24.3592L56.241 26.3583L58.389 25.7834L58.3713 23.4825C58.3687 23.1479 58.5397 22.8359 58.823 22.658C59.2474 22.3913 59.6491 22.0836 60.0168 21.7433C60.2621 21.5162 60.6075 21.4323 60.9299 21.5217L63.1441 22.135L64.2567 20.2092L62.617 18.5959C62.3771 18.3598 62.2774 18.0159 62.3542 17.6881C62.4651 17.2142 62.5303 16.7157 62.5482 16.2064C62.5599 15.8711 62.7447 15.5661 63.0366 15.4006L65.0399 14.2645L64.4652 12.1202L62.1643 12.1378C62.1618 12.1379 62.1593 12.1379 62.1568 12.1379C61.8251 12.1379 61.5163 11.9675 61.3397 11.6863C61.0736 11.2625 60.7657 10.8608 60.4249 10.4922C60.1983 10.2473 60.1144 9.90258 60.203 9.58078L60.8138 7.36197L58.8905 6.25201L57.2772 7.88897C57.0431 8.12629 56.703 8.22579 56.3777 8.15289C55.8773 8.04016 55.3747 7.97428 54.8841 7.95705C54.5488 7.94534 54.2435 7.76025 54.0781 7.46823L52.9456 5.46936L50.7976 6.04433L50.8154 8.345C50.818 8.67961 50.647 8.99163 50.3636 9.16955C49.9396 9.43594 49.5378 9.74368 49.1696 10.0844C48.9243 10.3115 48.5791 10.3946 48.2569 10.306L46.0424 9.69269L44.93 11.6185L46.5697 13.2318C46.8095 13.4678 46.9092 13.8118 46.8325 14.1395C46.7217 14.6134 46.6564 15.1118 46.6385 15.6215C46.6268 15.9566 46.4418 16.2618 46.1501 16.4271L44.1468 17.5629ZM50.108 13.3248C51.5382 10.8531 54.7111 10.005 57.1814 11.4312C59.6509 12.8573 60.5018 16.0297 59.0785 18.5028C58.1189 20.1611 56.3747 21.0887 54.5847 21.0888C53.7067 21.0888 52.818 20.8657 52.005 20.3962C49.5355 18.9702 48.6846 15.798 50.108 13.3248ZM52.9701 18.7251C54.5198 19.6203 56.5101 19.0878 57.4069 17.5382C58.2991 15.9881 57.7656 13.9972 56.2163 13.1025C55.7064 12.8078 55.1487 12.668 54.598 12.668C53.4751 12.668 52.3812 13.2498 51.7797 14.2895C50.8873 15.8398 51.4208 17.8304 52.9701 18.7251Z" fill="#0369CA"></path></svg>