<svg xmlns="http://www.w3.org/2000/svg" width="36" height="36" viewBox="0 0 36 36" fill="none"><mask id="mask0_309_89" style="mask-type:luminance" maskUnits="userSpaceOnUse" x="-1" y="0" width="38" height="37"><path d="M0 0.99939V0.49939H0.5H35.1666H35.6666V0.99939V35.666V36.166H35.1666H0.5H0V35.666V0.99939Z" fill="white" stroke="white"></path></mask><g mask="url(#mask0_309_89)"><path d="M9.69691 26.2924V26.9093C9.69691 28.5483 8.36826 29.877 6.72935 29.877C5.09037 29.877 3.76172 28.5483 3.76172 26.9093V26.2924C3.76172 24.6534 5.09039 23.3249 6.72935 23.3249C8.36824 23.3249 9.69691 24.6535 9.69691 26.2924Z" stroke="#048DEF" stroke-miterlimit="10" stroke-linecap="round" stroke-linejoin="round"></path><path d="M1.17969 35.4883C0.903545 35.4883 0.679688 35.2644 0.679688 34.9883V32.4616C0.679688 30.4819 2.28444 28.8771 4.26414 28.8771H9.19932C11.179 28.8771 12.7838 30.4819 12.7838 32.4616V34.9883C12.7838 35.2644 12.56 35.4883 12.2838 35.4883H1.17969Z" stroke="#048DEF" stroke-miterlimit="10" stroke-linecap="round" stroke-linejoin="round"></path><path d="M20.8063 26.2924V26.9093C20.8063 28.5483 19.4776 29.877 17.8387 29.877C16.1997 29.877 14.8711 28.5483 14.8711 26.9093V26.2924C14.8711 24.6534 16.1998 23.3249 17.8387 23.3249C19.4776 23.3249 20.8063 24.6535 20.8063 26.2924Z" stroke="#048DEF" stroke-miterlimit="10" stroke-linecap="round" stroke-linejoin="round"></path><path d="M12.2891 35.4883C12.0129 35.4883 11.7891 35.2644 11.7891 34.9883V32.4616C11.7891 30.4819 13.3938 28.8771 15.3735 28.8771H20.3087C22.2884 28.8771 23.8932 30.4819 23.8932 32.4616V34.9883C23.8932 35.2644 23.6694 35.4883 23.3932 35.4883H12.2891Z" stroke="#048DEF" stroke-miterlimit="10" stroke-linecap="round" stroke-linejoin="round"></path><path d="M31.9157 26.2924V26.9093C31.9157 28.5483 30.587 29.877 28.9481 29.877C27.3091 29.877 25.9805 28.5483 25.9805 26.9093V26.2924C25.9805 24.6534 27.3091 23.3249 28.9481 23.3249C30.587 23.3249 31.9157 24.6535 31.9157 26.2924Z" stroke="#048DEF" stroke-miterlimit="10" stroke-linecap="round" stroke-linejoin="round"></path><path d="M23.3906 35.4883C23.1145 35.4883 22.8906 35.2644 22.8906 34.9883V32.4616C22.8906 30.4819 24.4954 28.8771 26.4751 28.8771H31.4103C33.3899 28.8771 34.9948 30.4819 34.9948 32.4616V34.9883C34.9948 35.2644 34.7709 35.4883 34.4948 35.4883H23.3906Z" stroke="#048DEF" stroke-miterlimit="10" stroke-linecap="round" stroke-linejoin="round"></path><mask id="path-8-outside-1_309_89" maskUnits="userSpaceOnUse" x="8.58984" y="10.2852" width="10" height="6" fill="black"><rect fill="white" x="8.58984" y="10.2852" width="10" height="6"></rect><path d="M16.7333 11.4428V15.2852L13.1615 11.8533L9.58984 15.2852V11.4428"></path></mask><path d="M15.7333 11.4428C15.7333 10.8905 16.181 10.4428 16.7333 10.4428C17.2856 10.4428 17.7333 10.8905 17.7333 11.4428H15.7333ZM16.7333 15.2852H17.7333C17.7333 15.686 17.4939 16.0481 17.1252 16.2052C16.7564 16.3622 16.3295 16.284 16.0404 16.0062L16.7333 15.2852ZM13.1615 11.8533L12.4687 11.1322C12.8557 10.7603 13.4673 10.7603 13.8544 11.1322L13.1615 11.8533ZM9.58984 15.2852L10.2827 16.0062C9.99366 16.284 9.56673 16.3623 9.19796 16.2052C8.82919 16.0481 8.58984 15.686 8.58984 15.2852H9.58984ZM8.58984 11.4428C8.58984 10.8905 9.03756 10.4428 9.58984 10.4428C10.1421 10.4428 10.5898 10.8905 10.5898 11.4428H8.58984ZM17.7333 11.4428V15.2852H15.7333V11.4428H17.7333ZM16.0404 16.0062L12.4687 12.5744L13.8544 11.1322L17.4261 14.5641L16.0404 16.0062ZM13.8544 12.5744L10.2827 16.0062L8.89699 14.5641L12.4687 11.1322L13.8544 12.5744ZM8.58984 15.2852V11.4428H10.5898V15.2852H8.58984Z" fill="#048DEF" mask="url(#path-8-outside-1_309_89)"></path><mask id="path-10-outside-2_309_89" maskUnits="userSpaceOnUse" x="12.1602" y="10.4824" width="2" height="6" fill="black"><rect fill="white" x="12.1602" y="10.4824" width="2" height="6"></rect><path d="M13.1602 11.8434V15.4824Z"></path></mask><path d="M12.1602 11.8434C12.1602 11.2912 12.6079 10.8434 13.1602 10.8434C13.7124 10.8434 14.1602 11.2912 14.1602 11.8434H12.1602ZM14.1602 15.4824C14.1602 16.0347 13.7124 16.4824 13.1602 16.4824C12.6079 16.4824 12.1602 16.0347 12.1602 15.4824H14.1602ZM14.1602 11.8434V15.4824H12.1602V11.8434H14.1602Z" fill="#048DEF" mask="url(#path-10-outside-2_309_89)"></path><path d="M9.49609 6.7207C9.21995 6.7207 8.99609 6.49685 8.99609 6.2207V5.3386C8.99609 3.03866 10.8605 1.17423 13.1605 1.17423C15.4604 1.17423 17.3248 3.03866 17.3248 5.3386V6.2207C17.3248 6.40001 17.2288 6.56559 17.0732 6.65466C16.9176 6.74373 16.7262 6.74264 16.5716 6.65181L14.4674 5.41563C13.6245 6.24782 12.4836 6.7207 11.2877 6.7207H9.49609Z" stroke="#048DEF" stroke-miterlimit="10" stroke-linecap="round" stroke-linejoin="round"></path><mask id="path-13-outside-3_309_89" maskUnits="userSpaceOnUse" x="8.49609" y="4.44531" width="10" height="8" fill="black"><rect fill="white" x="8.49609" y="4.44531" width="10" height="8"></rect><path d="M16.8248 5.50445V7.78094C16.8248 9.80474 15.1843 11.4453 13.1605 11.4453C11.1367 11.4453 9.49609 9.80474 9.49609 7.78094V5.50445"></path></mask><path d="M15.8248 5.50445C15.8248 4.95217 16.2726 4.50445 16.8248 4.50445C17.3771 4.50445 17.8248 4.95217 17.8248 5.50445H15.8248ZM8.49609 5.50445C8.49609 4.95217 8.94381 4.50445 9.49609 4.50445C10.0484 4.50445 10.4961 4.95217 10.4961 5.50445H8.49609ZM17.8248 5.50445V7.78094H15.8248V5.50445H17.8248ZM17.8248 7.78094C17.8248 10.357 15.7365 12.4453 13.1605 12.4453V10.4453C14.632 10.4453 15.8248 9.25246 15.8248 7.78094H17.8248ZM13.1605 12.4453C10.5844 12.4453 8.49609 10.357 8.49609 7.78094H10.4961C10.4961 9.25246 11.6889 10.4453 13.1605 10.4453V12.4453ZM8.49609 7.78094V5.50445H10.4961V7.78094H8.49609Z" fill="#048DEF" mask="url(#path-13-outside-3_309_89)"></path><mask id="path-15-outside-4_309_89" maskUnits="userSpaceOnUse" x="3.83594" y="9.875" width="19" height="11" fill="black"><rect fill="white" x="3.83594" y="9.875" width="19" height="11"></rect><path d="M15.8724 19.875H21.4922V14.4035C21.4922 12.7689 20.167 11.4438 18.5325 11.4438H7.79567C6.16106 11.4438 4.83594 12.7689 4.83594 14.4035V19.875H10.4557"></path></mask><path d="M15.8724 20.875C15.3201 20.875 14.8724 20.4273 14.8724 19.875C14.8724 19.3227 15.3201 18.875 15.8724 18.875V20.875ZM21.4922 19.875H22.4922C22.4922 20.4273 22.0445 20.875 21.4922 20.875V19.875ZM4.83594 19.875V20.875C4.28365 20.875 3.83594 20.4273 3.83594 19.875H4.83594ZM10.4557 18.875C11.008 18.875 11.4557 19.3227 11.4557 19.875C11.4557 20.4273 11.008 20.875 10.4557 20.875V18.875ZM15.8724 18.875H21.4922V20.875H15.8724V18.875ZM20.4922 19.875V14.4035H22.4922V19.875H20.4922ZM20.4922 14.4035C20.4922 13.3212 19.6148 12.4438 18.5325 12.4438V10.4438C20.7193 10.4438 22.4922 12.2166 22.4922 14.4035H20.4922ZM18.5325 12.4438H7.79567V10.4438H18.5325V12.4438ZM7.79567 12.4438C6.71331 12.4438 5.83594 13.3212 5.83594 14.4035H3.83594C3.83594 12.2166 5.6088 10.4438 7.79567 10.4438V12.4438ZM5.83594 14.4035V19.875H3.83594V14.4035H5.83594ZM4.83594 18.875H10.4557V20.875H4.83594V18.875Z" fill="#048DEF" mask="url(#path-15-outside-4_309_89)"></path><path d="M22.9352 11.8979C22.7803 11.9706 22.599 11.9591 22.4546 11.8674C22.3101 11.7756 22.2227 11.6164 22.2227 11.4453V2.45393C22.2227 1.74926 22.7939 1.17806 23.4985 1.17806H33.7158C34.4205 1.17806 34.9917 1.74926 34.9917 2.45393V9.52748C34.9917 10.2321 34.4205 10.8033 33.7158 10.8033H25.2659L22.9352 11.8979Z" stroke="#048DEF" stroke-miterlimit="10" stroke-linecap="round" stroke-linejoin="round"></path><mask id="path-18-outside-5_309_89" maskUnits="userSpaceOnUse" x="24.3789" y="3.55859" width="9" height="2" fill="black"><rect fill="white" x="24.3789" y="3.55859" width="9" height="2"></rect><path d="M31.8323 4.55859H25.3789Z"></path></mask><path d="M31.8323 3.55859C32.3846 3.55859 32.8323 4.00631 32.8323 4.55859C32.8323 5.11088 32.3846 5.55859 31.8323 5.55859V3.55859ZM25.3789 5.55859C24.8266 5.55859 24.3789 5.11088 24.3789 4.55859C24.3789 4.00631 24.8266 3.55859 25.3789 3.55859V5.55859ZM31.8323 5.55859H25.3789V3.55859H31.8323V5.55859Z" fill="#048DEF" mask="url(#path-18-outside-5_309_89)"></path><mask id="path-20-outside-6_309_89" maskUnits="userSpaceOnUse" x="24.3789" y="6.26758" width="7" height="2" fill="black"><rect fill="white" x="24.3789" y="6.26758" width="7" height="2"></rect><path d="M25.3789 7.26758H29.8309Z"></path></mask><path d="M25.3789 8.26758C24.8266 8.26758 24.3789 7.81986 24.3789 7.26758C24.3789 6.71529 24.8266 6.26758 25.3789 6.26758V8.26758ZM29.8309 6.26758C30.3831 6.26758 30.8309 6.71529 30.8309 7.26758C30.8309 7.81986 30.3831 8.26758 29.8309 8.26758V6.26758ZM25.3789 6.26758H29.8309V8.26758H25.3789V6.26758Z" fill="#048DEF" mask="url(#path-20-outside-6_309_89)"></path></g></svg>