<svg xmlns="http://www.w3.org/2000/svg" width="47" height="56" viewBox="0 0 47 56" fill="none"><path d="M42.0522 5.70981H32.7265C32.3304 4.80583 31.4275 4.17233 30.3789 4.17233H28.4342C27.9214 1.76137 25.7437 0 23.0587 0C20.3735 0 18.1957 1.76137 17.683 4.17233H15.7384C14.69 4.17233 13.787 4.80583 13.3909 5.70981H4.06525C1.82361 5.70981 0 7.51406 0 9.73197V51.9777C-0.00010937 54.1956 1.82361 56 4.06525 56H42.0523C44.2939 56 46.1176 54.1956 46.1176 51.9777V9.73197C46.1176 7.51406 44.2938 5.70981 42.0522 5.70981ZM15.3725 6.73455C15.3725 6.53275 15.5367 6.36847 15.7384 6.36847H19.7646V5.27034C19.7646 3.51772 21.1808 2.19614 23.0588 2.19614C24.9366 2.19614 26.3527 3.51772 26.3527 5.27034V6.36836H30.3791C30.5809 6.36836 30.7452 6.53264 30.7452 6.73444V10.1019H15.3725V6.73455ZM32.9411 12.298H39.5293V48.7949H6.5882V12.298H13.1764H32.9411ZM43.9215 51.9777C43.9215 52.9847 43.0829 53.8039 42.0523 53.8039H4.06525C3.0345 53.8039 2.19603 52.9846 2.19603 51.9777V9.73197C2.19603 8.72506 3.0345 7.90595 4.06525 7.90595H13.1764V10.102H5.49019C4.8837 10.102 4.39217 10.5936 4.39217 11.2V49.893C4.39217 50.4995 4.88381 50.9911 5.49019 50.9911H40.6275C41.2339 50.9911 41.7255 50.4994 41.7255 49.893V11.2C41.7255 10.5935 41.2338 10.102 40.6275 10.102H32.9411V7.90584H42.0523C43.0829 7.90584 43.9215 8.72495 43.9215 9.73186V51.9777Z" fill="#0369CA"></path><path d="M42.0522 5.70981H32.7265C32.3304 4.80583 31.4275 4.17233 30.3789 4.17233H28.4342C27.9214 1.76137 25.7437 0 23.0587 0C20.3735 0 18.1957 1.76137 17.683 4.17233H15.7384C14.69 4.17233 13.787 4.80583 13.3909 5.70981H4.06525C1.82361 5.70981 0 7.51406 0 9.73197V51.9777C-0.00010937 54.1956 1.82361 56 4.06525 56H42.0523C44.2939 56 46.1176 54.1956 46.1176 51.9777V9.73197C46.1176 7.51406 44.2938 5.70981 42.0522 5.70981ZM15.3725 6.73455C15.3725 6.53275 15.5367 6.36847 15.7384 6.36847H19.7646V5.27034C19.7646 3.51772 21.1808 2.19614 23.0588 2.19614C24.9366 2.19614 26.3527 3.51772 26.3527 5.27034V6.36836H30.3791C30.5809 6.36836 30.7452 6.53264 30.7452 6.73444V10.1019H15.3725V6.73455ZM32.9411 12.298H39.5293V48.7949H6.5882V12.298H13.1764H32.9411ZM43.9215 51.9777C43.9215 52.9847 43.0829 53.8039 42.0523 53.8039H4.06525C3.0345 53.8039 2.19603 52.9846 2.19603 51.9777V9.73197C2.19603 8.72506 3.0345 7.90595 4.06525 7.90595H13.1764V10.102H5.49019C4.8837 10.102 4.39217 10.5936 4.39217 11.2V49.893C4.39217 50.4995 4.88381 50.9911 5.49019 50.9911H40.6275C41.2339 50.9911 41.7255 50.4994 41.7255 49.893V11.2C41.7255 10.5935 41.2338 10.102 40.6275 10.102H32.9411V7.90584H42.0523C43.0829 7.90584 43.9215 8.72495 43.9215 9.73186V51.9777Z" stroke="#0369CA"></path><path d="M23.0616 3.73291C22.0928 3.73291 21.3047 4.52107 21.3047 5.4898C21.3047 6.45854 22.0927 7.24669 23.0616 7.24669C24.0303 7.24669 24.8185 6.45854 24.8185 5.4898C24.8185 4.52107 24.0303 3.73291 23.0616 3.73291ZM23.0616 5.92905C22.8193 5.92905 22.6223 5.73207 22.6223 5.4898C22.6223 5.24754 22.8193 5.05055 23.0616 5.05055C23.3038 5.05055 23.5008 5.24754 23.5008 5.4898C23.5008 5.73207 23.3038 5.92905 23.0616 5.92905Z" fill="#0369CA"></path><path d="M23.0616 3.73291C22.0928 3.73291 21.3047 4.52107 21.3047 5.4898C21.3047 6.45854 22.0927 7.24669 23.0616 7.24669C24.0303 7.24669 24.8185 6.45854 24.8185 5.4898C24.8185 4.52107 24.0303 3.73291 23.0616 3.73291ZM23.0616 5.92905C22.8193 5.92905 22.6223 5.73207 22.6223 5.4898C22.6223 5.24754 22.8193 5.05055 23.0616 5.05055C23.3038 5.05055 23.5008 5.24754 23.5008 5.4898C23.5008 5.73207 23.3038 5.92905 23.0616 5.92905Z" stroke="#0369CA"></path><path d="M15.2598 38.2114H12.8441C12.2376 38.2114 11.7461 38.7031 11.7461 39.3094C11.7461 39.9158 12.2377 40.4075 12.8441 40.4075H15.2598C15.8663 40.4075 16.3578 39.9158 16.3578 39.3094C16.3578 38.7031 15.8661 38.2114 15.2598 38.2114Z" fill="#0369CA"></path><path d="M15.2598 38.2114H12.8441C12.2376 38.2114 11.7461 38.7031 11.7461 39.3094C11.7461 39.9158 12.2377 40.4075 12.8441 40.4075H15.2598C15.8663 40.4075 16.3578 39.9158 16.3578 39.3094C16.3578 38.7031 15.8661 38.2114 15.2598 38.2114Z" stroke="#0369CA"></path><path d="M33.2758 38.2114H18.7816C18.1751 38.2114 17.6836 38.7031 17.6836 39.3094C17.6836 39.9158 18.1752 40.4075 18.7816 40.4075H33.2758C33.8822 40.4075 34.3738 39.9158 34.3738 39.3094C34.3738 38.7031 33.8821 38.2114 33.2758 38.2114Z" fill="#0369CA"></path><path d="M33.2758 38.2114H18.7816C18.1751 38.2114 17.6836 38.7031 17.6836 39.3094C17.6836 39.9158 18.1752 40.4075 18.7816 40.4075H33.2758C33.8822 40.4075 34.3738 39.9158 34.3738 39.3094C34.3738 38.7031 33.8821 38.2114 33.2758 38.2114Z" stroke="#0369CA"></path><path d="M15.2598 43.4824H12.8441C12.2376 43.4824 11.7461 43.9741 11.7461 44.5804C11.7461 45.1868 12.2377 45.6785 12.8441 45.6785H15.2598C15.8663 45.6785 16.3578 45.1868 16.3578 44.5804C16.3578 43.9741 15.8661 43.4824 15.2598 43.4824Z" fill="#0369CA"></path><path d="M15.2598 43.4824H12.8441C12.2376 43.4824 11.7461 43.9741 11.7461 44.5804C11.7461 45.1868 12.2377 45.6785 12.8441 45.6785H15.2598C15.8663 45.6785 16.3578 45.1868 16.3578 44.5804C16.3578 43.9741 15.8661 43.4824 15.2598 43.4824Z" stroke="#0369CA"></path><path d="M33.2758 43.4824H18.7816C18.1751 43.4824 17.6836 43.9741 17.6836 44.5804C17.6836 45.1868 18.1752 45.6785 18.7816 45.6785H33.2758C33.8822 45.6785 34.3738 45.1868 34.3738 44.5804C34.3738 43.9741 33.8821 43.4824 33.2758 43.4824Z" fill="#0369CA"></path><path d="M33.2758 43.4824H18.7816C18.1751 43.4824 17.6836 43.9741 17.6836 44.5804C17.6836 45.1868 18.1752 45.6785 18.7816 45.6785H33.2758C33.8822 45.6785 34.3738 45.1868 34.3738 44.5804C34.3738 43.9741 33.8821 43.4824 33.2758 43.4824Z" stroke="#0369CA"></path><path d="M23.0594 15.8311C17.9735 15.8311 13.8359 19.9687 13.8359 25.0545C13.8359 30.1404 17.9735 34.2781 23.0594 34.2781C28.1454 34.2781 32.2829 30.1405 32.2829 25.0546C32.2829 19.9688 28.1454 15.8311 23.0594 15.8311ZM23.0594 32.0821C19.1845 32.0821 16.032 28.9296 16.032 25.0546C16.032 21.1798 19.1845 18.0272 23.0594 18.0272C26.9344 18.0272 30.0869 21.1797 30.0869 25.0546C30.0869 28.9296 26.9344 32.0821 23.0594 32.0821Z" fill="#0369CA"></path><path d="M23.0594 15.8311C17.9735 15.8311 13.8359 19.9687 13.8359 25.0545C13.8359 30.1404 17.9735 34.2781 23.0594 34.2781C28.1454 34.2781 32.2829 30.1405 32.2829 25.0546C32.2829 19.9688 28.1454 15.8311 23.0594 15.8311ZM23.0594 32.0821C19.1845 32.0821 16.032 28.9296 16.032 25.0546C16.032 21.1798 19.1845 18.0272 23.0594 18.0272C26.9344 18.0272 30.0869 21.1797 30.0869 25.0546C30.0869 28.9296 26.9344 32.0821 23.0594 32.0821Z" stroke="#0369CA"></path><path d="M27.9252 21.9651C27.4964 21.5364 26.8011 21.5364 26.3724 21.9652L21.9149 26.4226L20.812 25.3196C20.3832 24.8909 19.6879 24.8909 19.2591 25.3196C18.8303 25.7484 18.8303 26.4437 19.2591 26.8725L21.1386 28.7519C21.3261 28.9396 21.5648 29.0449 21.8098 29.0685C21.8448 29.0719 21.8799 29.0735 21.915 29.0735C21.9501 29.0735 21.9853 29.0719 22.0202 29.0685C22.2652 29.0451 22.5038 28.9395 22.6915 28.7519L22.692 28.7514L27.9253 23.5179C28.3539 23.0891 28.3539 22.3939 27.9252 21.9651Z" fill="#0369CA"></path><path d="M27.9252 21.9651C27.4964 21.5364 26.8011 21.5364 26.3724 21.9652L21.9149 26.4226L20.812 25.3196C20.3832 24.8909 19.6879 24.8909 19.2591 25.3196C18.8303 25.7484 18.8303 26.4437 19.2591 26.8725L21.1386 28.7519C21.3261 28.9396 21.5648 29.0449 21.8098 29.0685C21.8448 29.0719 21.8799 29.0735 21.915 29.0735C21.9501 29.0735 21.9853 29.0719 22.0202 29.0685C22.2652 29.0451 22.5038 28.9395 22.6915 28.7519L22.692 28.7514L27.9253 23.5179C28.3539 23.0891 28.3539 22.3939 27.9252 21.9651Z" stroke="#0369CA"></path></svg>