<svg xmlns="http://www.w3.org/2000/svg" width="75" height="76" viewBox="0 0 75 76" fill="none"><path d="M13.3455 51.4644C13.3455 64.7827 24.1808 75.6179 37.499 75.6179C50.8173 75.6179 61.6528 64.7827 61.6528 51.4644C61.6528 38.146 50.8174 27.3108 37.499 27.3108C24.1807 27.3108 13.3455 38.146 13.3455 51.4644ZM23.2499 67.938C24.3835 65.0876 26.3489 62.6445 28.8903 60.9267C31.4318 59.2089 34.4315 58.2961 37.499 58.307C40.5611 58.3197 43.5503 59.242 46.0871 60.957C48.6239 62.6719 50.5939 65.102 51.7468 67.9387C47.7917 71.3676 42.7328 73.2552 37.4982 73.2551C32.2637 73.2549 27.2048 71.3671 23.2499 67.938ZM30.5016 48.3323C30.5015 46.9481 30.9118 45.595 31.6807 44.4441C32.4496 43.2932 33.5426 42.3962 34.8213 41.8664C36.1001 41.3367 37.5072 41.1981 38.8647 41.4681C40.2223 41.7381 41.4693 42.4046 42.448 43.3833C43.4267 44.362 44.0933 45.609 44.3633 46.9666C44.6333 48.3241 44.4946 49.7312 43.9649 51.01C43.4351 52.2887 42.5381 53.3817 41.3872 54.1506C40.2363 54.9195 38.8832 55.3298 37.499 55.3297C35.6437 55.3276 33.865 54.5897 32.5531 53.2778C31.2412 51.9659 30.5032 50.1871 30.5011 48.3318L30.5016 48.3323ZM37.499 29.6738C49.5145 29.6738 59.2897 39.4489 59.2897 51.4644C59.2939 56.9137 57.2484 62.1653 53.5593 66.176C52.4603 63.82 50.8568 61.7344 48.8623 60.0669C46.8678 58.3994 44.5311 57.1909 42.0177 56.5268C43.8363 55.5244 45.2701 53.9458 46.0933 52.0393C46.9165 50.1329 47.0824 48.0068 46.5649 45.9957C46.0474 43.9846 44.8759 42.2027 43.2347 40.9303C41.5935 39.658 39.5759 38.9675 37.4993 38.9675C35.4227 38.9675 33.405 39.658 31.7638 40.9303C30.1226 42.2027 28.9511 43.9846 28.4336 45.9957C27.9161 48.0068 28.082 50.1329 28.9052 52.0393C29.7284 53.9458 31.1622 55.5244 32.9809 56.5268C30.4673 57.1907 28.1306 58.3994 26.1363 60.0671C24.1419 61.7349 22.5389 63.8209 21.4407 66.1774C17.7508 62.1666 15.7047 56.9145 15.7088 51.4645C15.7085 39.4483 25.4838 29.6738 37.499 29.6738ZM48.9763 8.33864C48.8992 8.10137 48.7489 7.8946 48.5471 7.74797C48.3452 7.60133 48.1021 7.52235 47.8526 7.52235H47.8503L40.7917 7.53579L38.6234 0.818491C38.5466 0.580692 38.3964 0.37336 38.1944 0.226293C37.9924 0.0792269 37.7489 0 37.499 0C37.2492 0 37.0057 0.0792269 36.8037 0.226293C36.6016 0.37336 36.4514 0.580692 36.3747 0.818491L34.2064 7.53579L27.1478 7.52235H27.1459C26.8962 7.52238 26.6529 7.60152 26.451 7.7484C26.2491 7.89528 26.0989 8.10235 26.022 8.3399C25.945 8.57745 25.9454 8.83326 26.0229 9.07062C26.1004 9.30798 26.2511 9.51468 26.4534 9.66107L32.1718 13.7989L29.9777 20.5078C29.9 20.7453 29.8997 21.0014 29.9767 21.2391C30.0537 21.4768 30.204 21.684 30.4062 21.8309C30.6084 21.9778 30.8519 22.0568 31.1018 22.0566C31.3517 22.0564 31.5951 21.9769 31.797 21.8296L37.499 17.6698L43.2016 21.8296C43.4034 21.9769 43.6468 22.0564 43.8967 22.0566C44.1466 22.0568 44.3901 21.9778 44.5923 21.8309C44.7945 21.684 44.9449 21.4768 45.0219 21.2391C45.0989 21.0014 45.0985 20.7453 45.0208 20.5078L42.8267 13.7989L48.5452 9.66107C48.7477 9.51457 48.8985 9.30763 48.9759 9.07001C49.0534 8.83239 49.0535 8.57633 48.9763 8.33864ZM40.7431 12.3898C40.5403 12.5366 40.3894 12.7439 40.3121 12.9819C40.2348 13.22 40.235 13.4764 40.3129 13.7143L41.6371 17.7634L38.1958 15.2527C37.9936 15.1051 37.7498 15.0256 37.4995 15.0256C37.2492 15.0256 37.0053 15.1051 36.8031 15.2527L33.3619 17.7634L34.6861 13.7143C34.7639 13.4764 34.7642 13.22 34.6869 12.9819C34.6096 12.7439 34.4586 12.5366 34.2559 12.3898L30.8036 9.89235L35.0638 9.90062H35.066C35.3159 9.90061 35.5594 9.82136 35.7614 9.67426C35.9634 9.52716 36.1136 9.3198 36.1904 9.08197L37.499 5.02769L38.8077 9.08197C38.8845 9.3198 39.0347 9.52716 39.2367 9.67426C39.4387 9.82136 39.6822 9.90061 39.9321 9.90062H39.9343L44.1945 9.89235L40.7431 12.3898ZM7.43869 23.0723L7.22129 30.1275C7.21359 30.3773 7.28528 30.6231 7.42606 30.8296C7.56684 31.0361 7.76947 31.1926 8.0048 31.2766C8.24014 31.3607 8.49607 31.368 8.73581 31.2974C8.97555 31.2269 9.18674 31.0821 9.33904 30.884L13.6404 25.2875L20.283 27.6745C20.5181 27.7589 20.774 27.7666 21.0137 27.6965C21.2535 27.6263 21.4649 27.482 21.6175 27.2842C21.7701 27.0864 21.8561 26.8453 21.8631 26.5956C21.8701 26.3458 21.7978 26.1003 21.6565 25.8943L17.6632 20.0739L21.9861 14.494C22.1392 14.2964 22.2257 14.0554 22.2331 13.8056C22.2406 13.5558 22.1687 13.3101 22.0277 13.1038C21.8867 12.8974 21.6839 12.7411 21.4485 12.6573C21.2131 12.5734 20.9571 12.5664 20.7175 12.6372L13.9477 14.6362L9.97662 8.80091C9.83601 8.59437 9.63353 8.43772 9.3983 8.35348C9.16307 8.26924 8.90718 8.26174 8.66742 8.33206C8.42765 8.40238 8.21636 8.5469 8.06389 8.74485C7.91142 8.94281 7.82563 9.184 7.81885 9.43377L7.62848 16.4897L0.851217 18.463C0.61128 18.5329 0.399672 18.677 0.246813 18.8747C0.0939537 19.0724 0.00771513 19.3135 0.000493647 19.5633C-0.00672783 19.8131 0.0654397 20.0588 0.206623 20.265C0.347805 20.4712 0.550732 20.6273 0.786233 20.7109L7.43869 23.0723ZM9.11706 18.5175C9.35737 18.4476 9.56927 18.3031 9.72218 18.1049C9.8751 17.9068 9.96114 17.6652 9.96791 17.415L10.0828 13.1565L12.4795 16.6785C12.6203 16.8854 12.8232 17.0423 13.0589 17.1265C13.2946 17.2107 13.551 17.2178 13.791 17.1469L17.8768 15.9403L15.2677 19.3077C15.1143 19.5055 15.0278 19.747 15.0206 19.9972C15.0133 20.2474 15.0857 20.4934 15.2273 20.6998L17.6377 24.2126L13.6284 22.7719C13.3929 22.6873 13.1365 22.6796 12.8963 22.7501C12.6561 22.8205 12.4445 22.9654 12.292 23.1639L9.69601 26.5416L9.82716 22.2834C9.83485 22.0332 9.76291 21.787 9.62169 21.5804C9.48048 21.3738 9.2773 21.2173 9.04144 21.1336L5.02616 19.7085L9.11706 18.5175ZM74.1475 18.463L67.3696 16.4897L67.1792 9.43377C67.1725 9.184 67.0867 8.94281 66.9342 8.74485C66.7817 8.5469 66.5704 8.40238 66.3307 8.33206C66.0909 8.26174 65.835 8.26924 65.5998 8.35348C65.3646 8.43772 65.1621 8.59437 65.0215 8.80091L61.0503 14.6362L54.2809 12.6372C54.0412 12.5664 53.7853 12.5734 53.5499 12.6573C53.3145 12.7411 53.1117 12.8974 52.9707 13.1038C52.8297 13.3101 52.7578 13.5558 52.7652 13.8056C52.7727 14.0554 52.8592 14.2964 53.0122 14.494L57.3352 20.0739L53.3419 25.8943C53.2006 26.1003 53.1283 26.3458 53.1353 26.5956C53.1423 26.8453 53.2283 27.0864 53.3809 27.2842C53.5335 27.482 53.7449 27.6263 53.9846 27.6965C54.2244 27.7666 54.4803 27.7589 54.7154 27.6745L61.358 25.2875L65.6593 30.884C65.8116 31.0821 66.0228 31.2269 66.2626 31.2974C66.5023 31.368 66.7582 31.3607 66.9936 31.2766C67.2289 31.1926 67.4315 31.0361 67.5723 30.8296C67.7131 30.6231 67.7848 30.3773 67.7771 30.1275L67.5597 23.0723L74.2116 20.7109C74.4471 20.6273 74.65 20.4712 74.7912 20.265C74.9323 20.0588 75.0045 19.8131 74.9973 19.5633C74.9901 19.3135 74.9038 19.0724 74.751 18.8747C74.5981 18.677 74.3865 18.5329 74.1466 18.463H74.1475ZM65.9572 21.1346C65.7214 21.2183 65.5182 21.3748 65.377 21.5814C65.2358 21.7881 65.1638 22.0342 65.1715 22.2844L65.3027 26.5426L62.7067 23.1649C62.5542 22.9664 62.3426 22.8215 62.1024 22.7511C61.8622 22.6806 61.6058 22.6883 61.3702 22.773L57.361 24.2137L59.7713 20.7008C59.9129 20.4944 59.9853 20.2484 59.9781 19.9982C59.9709 19.748 59.8843 19.5066 59.731 19.3087L57.1219 15.9413L61.2076 17.148C61.4477 17.2189 61.704 17.2117 61.9397 17.1275C62.1754 17.0433 62.3783 16.8864 62.5191 16.6795L64.9159 13.1575L65.0308 17.416C65.0375 17.6662 65.1236 17.9078 65.2765 18.106C65.4294 18.3041 65.6413 18.4486 65.8816 18.5186L69.9719 19.7095L65.9572 21.1346Z" fill="#048DEF"></path></svg>