<svg xmlns="http://www.w3.org/2000/svg" width="51" height="50" viewBox="0 0 51 50" fill="none"><path d="M12.9974 12.4987C13.4576 12.4987 13.8307 12.1256 13.8307 11.6654C13.8307 11.2051 13.4576 10.832 12.9974 10.832C12.5372 10.832 12.1641 11.2051 12.1641 11.6654C12.1641 12.1256 12.5372 12.4987 12.9974 12.4987Z" fill="#047BDC"></path><path d="M17.9974 12.4987C18.4576 12.4987 18.8307 12.1256 18.8307 11.6654C18.8307 11.2051 18.4576 10.832 17.9974 10.832C17.5372 10.832 17.1641 11.2051 17.1641 11.6654C17.1641 12.1256 17.5372 12.4987 17.9974 12.4987Z" fill="#047BDC"></path><path d="M13.8359 16.6654H14.6693C15.3321 16.6646 15.9675 16.401 16.4362 15.9323C16.9049 15.4636 17.1685 14.8282 17.1693 14.1654V13.332H15.5026V14.1654C15.5024 14.3863 15.4145 14.5981 15.2582 14.7543C15.102 14.9106 14.8902 14.9984 14.6693 14.9987H13.8359V16.6654Z" fill="#047BDC"></path><path d="M49.6666 17.5H23C22.779 17.5 22.567 17.5878 22.4107 17.7441C22.2544 17.9004 22.1666 18.1123 22.1666 18.3333V21.5683L19.4544 20.2122L19.2022 19.7077C20.0731 19.1259 20.7947 18.347 21.3085 17.4343C21.8223 16.5216 22.1138 15.5006 22.1593 14.4542L22.5 14C23.902 12.1225 24.6618 9.84321 24.6666 7.5C24.6644 5.51157 23.8735 3.60522 22.4675 2.19918C21.0614 0.793147 19.1551 0.00224863 17.1666 0H13.8333C11.8449 0.00224863 9.93853 0.793147 8.53249 2.19918C7.12645 3.60522 6.33556 5.51157 6.33331 7.5C6.33816 9.84321 7.09791 12.1225 8.49995 14L8.84061 14.4542C8.88618 15.5006 9.17767 16.5216 9.69144 17.4343C10.2052 18.347 10.9268 19.1259 11.7978 19.7077L11.5455 20.2122L4.96093 23.5045C4.37994 23.7965 3.87501 24.2199 3.48621 24.7411C3.09742 25.2624 2.83546 25.867 2.72114 26.5072L0.512689 39.0219C0.477793 39.2196 0.515432 39.4232 0.618687 39.5954L3.11869 43.7621C3.19273 43.8855 3.29747 43.9876 3.4227 44.0585C3.54794 44.1294 3.68939 44.1667 3.83331 44.1667H7.16664V49.1667C7.16664 49.3877 7.25444 49.5996 7.41072 49.7559C7.567 49.9122 7.77896 50 7.99997 50H49.6666C49.8877 50 50.0996 49.9122 50.2559 49.7559C50.4122 49.5996 50.5 49.3877 50.5 49.1667V45C50.5 44.779 50.4122 44.567 50.2559 44.4107C50.0996 44.2545 49.8877 44.1667 49.6666 44.1667H40.5V38.3333H49.6666C49.8877 38.3333 50.0996 38.2455 50.2559 38.0893C50.4122 37.933 50.5 37.721 50.5 37.5V18.3333C50.5 18.1123 50.4122 17.9004 50.2559 17.7441C50.0996 17.5878 49.8877 17.5 49.6666 17.5ZM7.99997 7.5C8.00172 5.95344 8.61686 4.47072 9.71044 3.37714C10.804 2.28355 12.2867 1.66841 13.8333 1.66667H17.1666C18.7132 1.66841 20.1959 2.28355 21.2895 3.37714C22.3831 4.47072 22.9982 5.95344 23 7.5C22.997 8.81455 22.7129 10.1133 22.1666 11.3089V8.33333C22.1666 8.11232 22.0788 7.90036 21.9226 7.74408C21.7663 7.5878 21.5543 7.5 21.3333 7.5C20.9577 7.5004 20.5879 7.40787 20.2568 7.23066C19.9256 7.05344 19.6435 6.79704 19.4355 6.48432L18.6933 5.37104C18.6172 5.2569 18.5141 5.16331 18.3932 5.09859C18.2722 5.03386 18.1371 4.99999 18 5C17.8628 5 17.7277 5.03388 17.6068 5.09861C17.4858 5.16335 17.3827 5.25695 17.3066 5.37109C16.8706 6.02657 16.2792 6.56399 15.5852 6.93544C14.8911 7.3069 14.1159 7.50084 13.3286 7.5H9.66664C9.44563 7.5 9.23367 7.5878 9.07739 7.74408C8.92111 7.90036 8.83331 8.11232 8.83331 8.33333V11.3089C8.28705 10.1133 8.00291 8.81455 7.99997 7.5ZM10.5 14.1667V9.16667H13.3286C14.1861 9.1676 15.035 8.99713 15.8256 8.66528C16.6163 8.33342 17.3325 7.84688 17.9324 7.23424L18.0488 7.4088C18.6172 8.26337 19.4966 8.86235 20.5 9.07827V14.1667C20.5 15.4927 19.9732 16.7645 19.0355 17.7022C18.0978 18.6399 16.8261 19.1667 15.5 19.1667C14.1739 19.1667 12.9021 18.6399 11.9644 17.7022C11.0268 16.7645 10.5 15.4927 10.5 14.1667ZM15.5 20.8333C16.2535 20.8336 17.0017 20.7055 17.7122 20.4545L17.8717 20.7734L17.3978 21.4843C17.1895 21.7968 16.9073 22.0529 16.5762 22.2301C16.2452 22.4073 15.8755 22.5 15.5 22.5C15.1245 22.5 14.7548 22.4073 14.4237 22.2301C14.0927 22.0529 13.8105 21.7968 13.6022 21.4843L13.1282 20.7734L13.2878 20.4545C13.9983 20.7055 14.7464 20.8336 15.5 20.8333ZM2.20804 39.0049L4.36238 26.7968C4.43099 26.4127 4.58818 26.0499 4.82148 25.7372C5.05477 25.4244 5.35776 25.1704 5.70638 24.9952L11.8814 21.9077L12.2155 22.4088C12.5759 22.9495 13.0643 23.3929 13.6373 23.6996C14.2103 24.0062 14.8501 24.1667 15.5 24.1667C16.1498 24.1667 16.7897 24.0062 17.3626 23.6996C17.9356 23.3929 18.424 22.9495 18.7845 22.4088L19.1186 21.9077L22.1666 23.4317V37.5C22.1666 37.721 22.2544 37.933 22.4107 38.0893C22.567 38.2455 22.779 38.3333 23 38.3333H25.5V41.063L24.7147 41.1752L22.8334 38.6667C22.7316 38.5311 22.591 38.4297 22.4302 38.3761L19.9302 37.5428C19.7432 37.4805 19.5402 37.4865 19.3572 37.5596L15.4739 39.1129L8.83331 36.8994V31.6667H7.16664V37.5C7.16663 37.6749 7.22166 37.8454 7.32392 37.9872C7.42618 38.1291 7.57048 38.2352 7.7364 38.2906L9.44585 38.8604L8.23265 42.5H4.30511L2.20804 39.0049ZM36.3333 40.8333C36.5543 40.8333 36.7663 40.7455 36.9226 40.5893C37.0788 40.433 37.1666 40.221 37.1666 40V38.3333H38.8333V41.6667H33.8333V38.3333H35.5V40C35.5 40.221 35.5878 40.433 35.7441 40.5893C35.9003 40.7455 36.1123 40.8333 36.3333 40.8333ZM32.1666 44.1667H30.5V41.6667C30.5 41.4457 30.4122 41.2337 30.2559 41.0774C30.0996 40.9211 29.8877 40.8333 29.6666 40.8333H27.1666V38.3333H32.1666V44.1667ZM15.2364 40.7906C15.4234 40.853 15.6264 40.847 15.8094 40.7737L19.6927 39.2204L21.6562 39.8749L22.8329 41.444L15.4408 42.5H9.98954L11.0271 39.3874L15.2364 40.7906ZM16.3333 44.0561L27.2258 42.5H28.8333V44.1667H16.3333V44.0561ZM8.83331 44.1667H14.6666V48.3333H8.83331V44.1667ZM48.8333 48.3333H16.3333V45.8333H48.8333V48.3333ZM33.8333 44.1667V43.3333H38.8333V44.1667H33.8333ZM48.8333 36.6667H23.8333V19.1667H48.8333V36.6667Z" fill="#047BDC"></path><path d="M32.1693 25.8346C32.6295 25.8346 33.0026 25.4615 33.0026 25.0013C33.0026 24.5411 32.6295 24.168 32.1693 24.168C31.709 24.168 31.3359 24.5411 31.3359 25.0013C31.3359 25.4615 31.709 25.8346 32.1693 25.8346Z" fill="#047BDC"></path><path d="M30.4296 34.168C30.8489 34.1668 31.2609 34.0576 31.6257 33.851C31.9906 33.6444 32.2962 33.3474 32.5129 32.9884L34.3051 30.0013H38.3615L40.1537 32.9884C40.4271 33.444 40.8423 33.7975 41.3357 33.9946C41.8291 34.1917 42.3736 34.2216 42.8856 34.0798C43.3977 33.938 43.8491 33.6322 44.1708 33.2093C44.4925 32.7864 44.6667 32.2697 44.6667 31.7384V27.5013C44.6667 27.4117 44.6522 27.3228 44.6239 27.2378L43.5247 23.9402C43.322 23.3323 42.9479 22.7959 42.4475 22.3957C41.947 21.9955 41.3415 21.7486 40.7039 21.6846C40.0663 21.6206 39.4238 21.7423 38.8538 22.0351C38.2837 22.3278 37.8105 22.7791 37.4911 23.3346H35.1756C34.8562 22.7791 34.3829 22.3278 33.8129 22.0351C33.2428 21.7423 32.6003 21.6206 31.9627 21.6846C31.3251 21.7486 30.7196 21.9956 30.2191 22.3958C29.7186 22.796 29.3445 23.3323 29.1419 23.9403L28.0427 27.2378C28.0144 27.3228 28 27.4117 28 27.5013V31.7384C28.0007 32.3826 28.2569 33.0001 28.7124 33.4556C29.1679 33.9111 29.7855 34.1673 30.4296 34.168ZM31.0837 32.1309C30.9979 32.2739 30.8675 32.3849 30.7126 32.4468C30.5576 32.5088 30.3867 32.5182 30.2259 32.4736C30.0651 32.4291 29.9234 32.3331 29.8224 32.2003C29.7213 32.0675 29.6667 31.9053 29.6667 31.7384V29.1663C30.3876 29.708 31.2649 30.001 32.1667 30.0013H32.3615L31.0837 32.1309ZM42.2371 32.5013C42.1054 32.5009 41.9761 32.4666 41.8615 32.4018C41.7469 32.3369 41.651 32.2436 41.583 32.1309L40.3052 30.0013H40.5C41.4018 30.001 42.279 29.708 43 29.1663V31.7384C42.9998 31.9407 42.9193 32.1346 42.7763 32.2776C42.6333 32.4206 42.4393 32.5011 42.2371 32.5013ZM30.7231 24.4673C30.8267 24.1565 31.0201 23.8834 31.2789 23.6825C31.5377 23.4817 31.8503 23.362 32.1771 23.3388C32.5039 23.3156 32.8303 23.3898 33.1149 23.552C33.3995 23.7143 33.6296 23.9573 33.7762 24.2503L33.9213 24.5406C33.9905 24.6791 34.0969 24.7955 34.2286 24.8768C34.3602 24.9582 34.5119 25.0013 34.6667 25.0013H38C38.1548 25.0013 38.3065 24.9582 38.4381 24.8768C38.5698 24.7955 38.6761 24.6791 38.7453 24.5406L38.8905 24.2503C39.037 23.9573 39.2671 23.7143 39.5518 23.552C39.8364 23.3898 40.1627 23.3156 40.4895 23.3388C40.8163 23.362 41.1289 23.4816 41.3877 23.6825C41.6465 23.8834 41.84 24.1565 41.9436 24.4673L42.757 26.9077C42.5539 27.3343 42.2341 27.6947 41.8347 27.9473C41.4353 28.1998 40.9725 28.3341 40.5 28.3346H32.1667C31.6941 28.3341 31.2314 28.1998 30.832 27.9473C30.4326 27.6947 30.1128 27.3343 29.9096 26.9077L30.7231 24.4673Z" fill="#047BDC"></path><path d="M40.4974 25.8346C40.9576 25.8346 41.3307 25.4615 41.3307 25.0013C41.3307 24.5411 40.9576 24.168 40.4974 24.168C40.0372 24.168 39.6641 24.5411 39.6641 25.0013C39.6641 25.4615 40.0372 25.8346 40.4974 25.8346Z" fill="#047BDC"></path><path d="M35.5026 25.832H33.8359V27.4987H35.5026V25.832Z" fill="#047BDC"></path><path d="M38.8307 25.832H37.1641V27.4987H38.8307V25.832Z" fill="#047BDC"></path></svg>