<svg xmlns="http://www.w3.org/2000/svg" width="40" height="45" viewBox="0 0 40 45" fill="none"><path fill-rule="evenodd" clip-rule="evenodd" d="M24.8051 27.8257C24.9114 28.074 25.146 28.2423 25.414 28.2623C25.4321 28.2637 25.4499 28.2643 25.4679 28.2643C25.716 28.2643 25.9485 28.1356 26.0807 27.9212L27.8285 25.0873L31.0758 25.7564C31.3394 25.8105 31.6106 25.7131 31.7802 25.5035C31.9498 25.2938 31.9895 25.0065 31.8832 24.7582L29.4716 19.1243C29.5453 19.0928 29.6208 19.0604 29.7003 19.0262C30.944 18.4903 31.6716 17.2221 31.5111 15.8705C31.4812 15.6195 31.4534 15.3961 31.4284 15.1956C31.3282 14.3913 31.2778 13.9875 31.3319 13.6791C31.386 13.3706 31.5705 13.0085 31.9381 12.2872C32.0299 12.1073 32.1319 11.907 32.2453 11.6813C32.8557 10.4664 32.6029 9.02429 31.6164 8.09286C31.4333 7.91984 31.2692 7.76678 31.122 7.62923C30.5313 7.07796 30.2348 6.80124 30.0792 6.52996C29.9235 6.25868 29.8336 5.86201 29.6544 5.07176C29.6097 4.87469 29.5599 4.65513 29.5026 4.40889C29.194 3.08351 28.0791 2.14229 26.7283 2.06671C26.4774 2.05265 26.254 2.04149 26.0534 2.03142C25.2487 1.99113 24.8448 1.9709 24.5523 1.86375C24.2597 1.7566 23.9375 1.5109 23.2952 1.02133C23.1352 0.899207 22.9567 0.763294 22.7556 0.611776C21.6725 -0.20388 20.2173 -0.203971 19.1341 0.611776C18.933 0.763294 18.7546 0.899207 18.5945 1.02133C17.9523 1.5109 17.63 1.7566 17.3375 1.86375C17.045 1.9709 16.641 1.99113 15.8364 2.03142C15.6357 2.04149 15.4123 2.05265 15.1614 2.06671C13.8107 2.14229 12.6957 3.08361 12.3872 4.40889C12.3298 4.65513 12.2801 4.8746 12.2353 5.07176C12.0562 5.86201 11.9663 6.25877 11.8105 6.52996C11.6549 6.80124 11.3584 7.07796 10.7678 7.62923C10.6205 7.76678 10.4565 7.91984 10.2733 8.09286C9.28694 9.02438 9.0341 10.4665 9.64439 11.6814C9.75774 11.9069 9.85981 12.1072 9.95143 12.287C10.3191 13.0084 10.5036 13.3705 10.5578 13.679C10.6119 13.9874 10.5615 14.3911 10.4613 15.1953C10.4363 15.3959 10.4084 15.6194 10.3786 15.8705C10.2181 17.2221 10.9457 18.4903 12.1893 19.0262C12.4204 19.1257 12.6265 19.2132 12.8116 19.2917C12.8679 19.3155 12.9213 19.3382 12.9734 19.3604L10.0151 25.7535C9.90165 25.9987 9.93312 26.2868 10.0965 26.5015C10.26 26.716 10.5284 26.8217 10.7933 26.7748L14.0587 26.2008L15.7241 29.0844C15.8537 29.3086 16.0916 29.4456 16.3478 29.4456C16.3586 29.4456 16.3696 29.4453 16.3805 29.4448C16.649 29.4326 16.8884 29.2712 17.0019 29.0261L19.9459 22.6634C20.4183 22.5205 20.7046 22.4486 20.9451 22.4486C21.2563 22.4486 21.6428 22.5685 22.4127 22.8076C22.5018 22.8353 22.5961 22.8646 22.695 22.8951L24.8051 27.8257ZM27.6254 23.5636C27.3294 23.5027 27.027 23.6337 26.8676 23.8919L25.5835 25.9742L24.3575 23.1099C25.199 22.9924 25.9691 22.518 26.4615 21.7604C26.599 21.5487 26.7204 21.3597 26.8294 21.1898C27.2665 20.5088 27.4858 20.167 27.7243 19.9656C27.8313 19.8752 27.9658 19.7936 28.1481 19.7026L30.0112 24.0551L27.6254 23.5636ZM16.2766 27.1527L15.0531 25.034C14.9012 24.7712 14.6027 24.6315 14.3052 24.6837L11.906 25.1054L14.2485 20.0431C14.4578 20.2523 14.6741 20.5889 15.0597 21.1899C15.1688 21.3598 15.2901 21.5488 15.4276 21.7604C16.0363 22.697 17.0691 23.2016 18.1367 23.1328L16.2766 27.1527ZM20.9445 20.9962C20.4536 20.9962 19.9625 21.1376 19.0514 21.4205C18.8618 21.4794 18.6508 21.5449 18.4133 21.6172C17.7264 21.8258 17.0281 21.5705 16.6351 20.9659C16.4992 20.7569 16.3793 20.5701 16.2717 20.4025C15.2372 18.7906 15.1288 18.6991 13.3714 17.954C13.1886 17.8765 12.985 17.7901 12.7569 17.6917C12.0969 17.4073 11.7255 16.76 11.8107 16.0427C11.8402 15.7948 11.8677 15.574 11.8924 15.376C12.1296 13.4723 12.105 13.332 11.2348 11.6245C11.1442 11.4469 11.0435 11.2492 10.9316 11.0264C10.6077 10.3817 10.7367 9.64569 11.2603 9.15131C11.4413 8.98047 11.6032 8.82931 11.7487 8.69349C13.1468 7.38853 13.2175 7.26523 13.6417 5.39466C13.6858 5.19996 13.7349 4.9832 13.7915 4.73996C13.9552 4.03663 14.5243 3.55621 15.2412 3.51611C15.489 3.50223 15.7096 3.49116 15.9078 3.48127C17.8124 3.38583 17.9455 3.3371 19.4655 2.1784C19.6237 2.05782 19.7998 1.92354 19.9984 1.77393C20.5733 1.34106 21.3159 1.34106 21.8908 1.77393C22.0894 1.92354 22.2656 2.05782 22.4237 2.1784C23.9437 3.3371 24.0768 3.38583 25.9814 3.48127C26.1795 3.49116 26.4003 3.50223 26.6481 3.51611C27.3649 3.55621 27.9339 4.03663 28.0977 4.73996C28.1543 4.98311 28.2035 5.19987 28.2475 5.39457C28.6717 7.26514 28.7424 7.38853 30.1406 8.6934C30.286 8.82922 30.4479 8.98038 30.6289 9.15122C31.1525 9.6456 31.2813 10.3816 30.9575 11.0263C30.8456 11.2492 30.7448 11.447 30.6542 11.6247C29.7841 13.332 29.7595 13.4723 29.9968 15.3762C30.0214 15.5742 30.049 15.7948 30.0784 16.0427C30.1636 16.76 29.7922 17.4073 29.1322 17.6917C28.9041 17.7899 28.7005 17.8763 28.5177 17.9539C26.7604 18.699 26.652 18.7906 25.6175 20.4024C25.5099 20.5701 25.3901 20.7569 25.2542 20.9659C24.8613 21.5704 24.1635 21.8262 23.4759 21.6172C23.2384 21.5449 23.0273 21.4793 22.8378 21.4205C21.9265 21.1376 21.4354 20.9962 20.9445 20.9962ZM28.104 11.5692C28.104 7.59712 24.8923 4.36561 20.9445 4.36561C16.9968 4.36561 13.7851 7.59712 13.7851 11.5692C13.7851 15.5414 16.9968 18.773 20.9445 18.773C24.8922 18.773 28.104 15.5415 28.104 11.5692ZM20.9444 17.3213C17.7922 17.3213 15.2278 14.741 15.2278 11.5692C15.2278 8.39762 17.7922 5.81728 20.9444 5.81728C24.0966 5.81728 26.6611 8.39762 26.6611 11.5692C26.6612 14.741 24.0966 17.3213 20.9444 17.3213ZM24.9065 9.85782L19.9804 14.3559C19.8426 14.4817 19.669 14.5443 19.4957 14.5443C19.3107 14.5443 19.126 14.473 18.9855 14.3317L16.9573 12.291C16.6756 12.0076 16.6756 11.548 16.9573 11.2646C17.2391 10.9811 17.6958 10.9811 17.9776 11.2646L19.5198 12.8163L23.9369 8.78295C24.2319 8.51366 24.6881 8.5358 24.9559 8.83267C25.2236 9.12935 25.2015 9.58844 24.9065 9.85782ZM38.6015 33.6394C39.5524 32.6829 40.0352 31.4761 39.998 30.1495L39.6467 17.6712C39.6121 16.439 38.3945 15.335 37.0817 15.335C37.0691 15.335 37.0566 15.3351 37.044 15.3352C36.4035 15.3456 34.3152 15.6927 34.3303 19.7259L34.3561 26.5042C34.3567 26.6592 34.3469 26.8097 34.3269 26.9564C34.2761 26.8952 34.2216 26.8354 34.1635 26.777C33.2732 25.8812 31.8151 25.8699 30.8439 26.7512C30.8197 26.773 30.797 26.7965 30.7761 26.8215C29.6894 28.1142 28.3542 29.2465 27.2812 30.1562C26.905 30.4753 26.5497 30.7766 26.2579 31.0412C25.0343 32.1508 24.871 33.6797 24.8726 35.0288L24.8784 39.8562L24.2563 39.8508C23.8351 39.8469 23.4382 40.0093 23.137 40.307C22.8358 40.6049 22.6679 41.0021 22.6643 41.4254L22.6482 43.3136C22.6446 43.7369 22.8056 44.1369 23.1016 44.4399C23.3976 44.743 23.7924 44.9118 24.213 44.9154L33.9622 44.9997C33.9668 44.9997 33.9714 44.9998 33.976 44.9998C34.3915 44.9998 34.7837 44.838 35.0815 44.5434C35.3827 44.2456 35.5505 43.8485 35.5541 43.4252L35.5702 41.537C35.5738 41.1137 35.4128 40.7137 35.1168 40.4106C34.8208 40.1076 34.426 39.9388 34.0054 39.9351L33.2033 39.9282V39.0709L38.6015 33.6394ZM34.1275 41.5245L34.1113 43.4128C34.111 43.4583 34.0887 43.4899 34.07 43.5083C34.0514 43.5268 34.0224 43.5484 33.9744 43.5482L24.2253 43.464C24.1801 43.4636 24.1487 43.4412 24.1304 43.4224C24.1121 43.4036 24.0904 43.3718 24.0908 43.3262L24.107 41.438C24.1073 41.3924 24.1296 41.3608 24.1483 41.3424C24.1667 41.3242 24.1981 41.3025 24.2425 41.3025H24.2438L33.993 41.3868C34.0666 41.3875 34.1282 41.4505 34.1275 41.5245ZM26.3212 39.8688L26.3154 35.0272C26.3136 33.5488 26.5768 32.7065 27.2239 32.1196C27.4978 31.8712 27.8282 31.5909 28.2109 31.2665C29.3139 30.3311 30.6841 29.1693 31.842 27.8014C32.247 27.4596 32.7998 27.458 33.1433 27.8036C33.5089 28.1713 33.5093 28.6088 33.1464 29.104C32.5728 29.7528 31.9697 30.3404 31.3316 30.9617C31.0252 31.26 30.7084 31.5685 30.3888 31.8902C30.1071 32.1736 30.1071 32.6331 30.3889 32.9166C30.5297 33.0583 30.7142 33.1292 30.8989 33.1292C31.0836 33.1292 31.2683 33.0583 31.409 32.9165C31.7202 32.6034 32.0327 32.2991 32.3349 32.0048C33.0017 31.3557 33.6313 30.7425 34.2482 30.0423C34.2515 30.0386 34.7314 29.4479 34.7314 29.4479C35.4537 28.5531 35.8029 27.5884 35.7988 26.4988L35.7731 19.7205C35.7664 17.9239 36.2622 16.7998 37.0671 16.7868C37.0721 16.7867 37.0768 16.7867 37.0817 16.7867C37.6174 16.7867 38.1917 17.2581 38.2045 17.7124L38.5558 30.1907C38.5819 31.1212 38.2541 31.9362 37.5813 32.613L31.9718 38.2571C31.8365 38.3932 31.7605 38.5778 31.7605 38.7703V39.9158L26.3212 39.8688ZM24.801 42.1761C24.9199 41.875 25.259 41.7279 25.5583 41.8477C25.8576 41.9674 26.0038 42.3086 25.8848 42.6097C25.7658 42.9109 25.4268 43.0579 25.1275 42.9382C24.8281 42.8184 24.6819 42.4773 24.801 42.1761ZM16.8629 40.3072C16.5617 40.0093 16.1639 39.8478 15.7435 39.851L15.1215 39.8564L15.1273 35.029C15.1289 33.6798 14.9656 32.1509 13.742 31.0414C13.4504 30.7767 13.095 30.4755 12.7188 30.1565C11.6459 29.2467 10.3106 28.1144 9.22391 26.8217C9.20299 26.7967 9.18036 26.7732 9.15619 26.7513C8.18458 25.8701 6.72639 25.8815 5.83647 26.7772C5.77831 26.8356 5.72393 26.8954 5.67308 26.9566C5.65297 26.8099 5.64332 26.6594 5.64395 26.5045L5.66965 19.726C5.6848 15.6928 3.59648 15.3458 2.95598 15.3353C2.94336 15.3351 2.931 15.3351 2.91829 15.3351C1.60546 15.3351 0.387853 16.4392 0.353317 17.6713L0.00200232 30.1497C-0.0352392 31.4763 0.447638 32.683 1.39842 33.6395L6.79663 39.0711V39.9284L5.99454 39.9353C5.57389 39.9389 5.17911 40.1078 4.88316 40.4108C4.58712 40.7139 4.42607 41.1139 4.42968 41.5371L4.44582 43.4254C4.44943 43.8486 4.61724 44.2458 4.91842 44.5436C5.21626 44.8382 5.60833 45 6.02394 45C6.02854 45 6.03323 45 6.03774 44.9999L15.7869 44.9156C16.2075 44.912 16.6023 44.7431 16.8983 44.4401C17.1943 44.1371 17.3554 43.737 17.3518 43.3138L17.3356 41.4255C17.3321 41.0023 17.1641 40.6051 16.8629 40.3072ZM8.2394 38.7703C8.2394 38.5777 8.16339 38.3932 8.02813 38.2571L2.41855 32.6129C1.74586 31.9362 1.41799 31.1212 1.44414 30.1907L1.79545 17.7123C1.80835 17.2538 2.39673 16.7789 2.93281 16.7868C3.73769 16.7998 4.23355 17.9239 4.22679 19.7204L4.20109 26.4988C4.19703 27.5884 4.54618 28.553 5.26982 29.4494L5.73295 30.02C5.73611 30.0239 5.74855 30.0386 5.7518 30.0423C6.36867 30.7425 6.99835 31.3557 7.66509 32.0048C7.96735 32.2992 8.27971 32.6034 8.59099 32.9165C8.73184 33.0582 8.91642 33.1292 9.1011 33.1292C9.28568 33.1292 9.47036 33.0583 9.61112 32.9166C9.89291 32.6331 9.89291 32.1736 9.61121 31.8902C9.29163 31.5686 8.97476 31.26 8.66845 30.9617C8.03029 30.3403 7.42721 29.7528 6.85362 29.104C6.49077 28.6089 6.49113 28.1714 6.85669 27.8037C7.20034 27.458 7.75301 27.4596 8.15807 27.8014C9.31589 29.1694 10.686 30.3312 11.7892 31.2666C12.1718 31.5911 12.5022 31.8713 12.7762 32.1198C13.4232 32.7065 13.6864 33.5489 13.6846 35.0273L13.6788 39.8689L8.23949 39.9159L8.2394 38.7703ZM15.8694 43.4225C15.8511 43.4413 15.8197 43.4637 15.7745 43.464L6.02538 43.5483C5.97931 43.5484 5.94838 43.5269 5.9298 43.5084C5.91113 43.49 5.88886 43.4585 5.8885 43.4129L5.87236 41.5246C5.87191 41.4791 5.89364 41.4471 5.91195 41.4284C5.93025 41.4097 5.96163 41.3872 6.00681 41.3869L15.7559 41.3026H15.7572C15.8018 41.3026 15.8331 41.3243 15.8515 41.3425C15.8702 41.3609 15.8925 41.3925 15.8928 41.4381L15.909 43.3263C15.9094 43.3719 15.8877 43.4037 15.8694 43.4225ZM15.199 42.1761C15.318 42.4773 15.1718 42.8184 14.8725 42.9382C14.5732 43.0579 14.2341 42.9109 14.1152 42.6097C13.9961 42.3086 14.1423 41.9675 14.4416 41.8477C14.7409 41.7279 15.0799 41.875 15.199 42.1761Z" fill="#0369CA"></path></svg>