<svg xmlns="http://www.w3.org/2000/svg" width="52" height="49" viewBox="0 0 52 49" fill="none"><path d="M41.5798 41.8082L39.664 36.4307C38.9945 34.5533 37.2864 33.1675 35.2042 32.8129L29.6735 31.8715V31.4705C30.636 30.9479 31.4735 30.2488 32.1405 29.4212H33.8114C35.1802 29.4212 36.2941 28.3792 36.2941 27.0987V17.8085C36.2941 12.2592 31.4677 7.74414 25.5356 7.74414C19.6036 7.74414 14.7772 12.2592 14.7772 17.8085V23.2278C14.7772 24.7204 15.9118 25.9692 17.4163 26.2603C17.8806 28.4853 19.3669 30.3681 21.3978 31.4705V31.8715L15.8663 32.8129C13.7849 33.1675 12.076 34.5533 11.4073 36.4307L11.0763 37.3605L8.25754 34.7236C7.93478 34.4217 7.93478 33.9301 8.25754 33.6282L11.5265 30.5709L5.39082 24.8311L1.69653 28.2871C0.602474 29.3105 0 30.6716 0 32.1193C0 33.567 0.602474 34.9272 1.69653 35.9507L12.8812 46.4138C13.9752 47.4372 15.4301 48.0016 16.9777 48.0016C18.5253 48.0016 19.9793 47.4372 21.0477 46.437L25.0788 42.9818L23.8217 41.8082H41.5798ZM34.639 27.0987C34.639 27.5261 34.2674 27.8729 33.8114 27.8729H33.1154C33.3554 27.3611 33.5375 26.8215 33.655 26.2603C34.0092 26.1914 34.3352 26.0597 34.639 25.8941V27.0987ZM33.8114 24.5609V21.8946C34.3038 22.1633 34.639 22.6572 34.639 23.2278C34.639 23.7984 34.3038 24.2923 33.8114 24.5609ZM17.2599 24.5609C16.7675 24.2923 16.4323 23.7984 16.4323 23.2278C16.4323 22.6572 16.7675 22.1633 17.2599 21.8946V24.5609ZM17.2599 19.3569V20.241C16.9653 20.313 16.6889 20.4214 16.4323 20.5615V17.8085C16.4323 13.1131 20.5164 9.29251 25.5356 9.29251C30.5549 9.29251 34.639 13.1131 34.639 17.8085V20.5615C34.3824 20.4214 34.106 20.3122 33.8114 20.241V19.3569H32.9838C30.5367 19.3569 28.236 18.465 26.5047 16.8462L25.5356 15.9396L24.5665 16.8462C22.8353 18.465 20.5346 19.3569 18.0875 19.3569H17.2599ZM18.915 24.7762V20.8758C21.4002 20.7009 23.7175 19.7416 25.5356 18.1244C27.3538 19.7416 29.671 20.7016 32.1562 20.8758V24.7762C32.1562 25.9049 31.8269 26.9609 31.2608 27.8729H25.5356V29.4212H29.9003C28.7334 30.382 27.2082 30.9696 25.5356 30.9696C21.8852 30.9696 18.915 28.1911 18.915 24.7762ZM28.0184 32.1611V32.1975L25.5356 34.52L23.0529 32.1975V32.1611C23.8375 32.3918 24.6708 32.518 25.5356 32.518C26.4004 32.518 27.2338 32.3918 28.0184 32.1611ZM12.9764 36.92C13.4539 35.5791 14.6745 34.5889 16.1617 34.335L21.9464 33.3518L25.5356 36.7094L29.124 33.3525L34.9079 34.3358C36.3951 34.5897 37.6157 35.5791 38.0933 36.9208L39.2841 40.2598H22.1666L18.9432 37.2444L15.3614 40.2753C15.0494 40.5687 14.5041 40.5687 14.1912 40.2753L12.3838 38.5845L12.9764 36.92ZM5.38999 27.0205L9.18525 30.5709L8.2865 31.4117L4.49125 27.8613L5.38999 27.0205ZM19.9015 45.3206C19.1203 46.0499 18.0808 46.4533 16.976 46.4533C15.8712 46.4533 14.8318 46.0499 14.0497 45.3191L2.86506 34.8568C2.08383 34.126 1.65349 33.1536 1.65349 32.12C1.65349 31.0857 2.08383 30.1134 2.86506 29.3825L3.32023 28.9567L7.11548 32.5071L7.08569 32.535C6.11826 33.4408 6.11826 34.9141 7.08569 35.8199L13.0202 41.3715C13.4895 41.8097 14.1126 42.052 14.7763 42.052C15.4401 42.052 16.0632 41.8105 16.5018 41.3986L16.5639 41.3468L20.3765 44.9134L19.9015 45.3206ZM21.598 43.8652L17.7937 40.3063L18.8869 39.3819L22.6846 42.9346L21.598 43.8652Z" fill="#0369CA"></path><path d="M48.7094 0H37.1233C35.7545 0 34.6406 1.04205 34.6406 2.32255V8.51601C34.6406 9.79651 35.7545 10.8386 37.1233 10.8386H39.3338L38.4781 15.5077L46.4642 10.8386H48.7094C50.0782 10.8386 51.1921 9.79651 51.1921 8.51601V2.32255C51.1921 1.04205 50.0782 0 48.7094 0ZM49.537 8.51601C49.537 8.94258 49.1654 9.29019 48.7094 9.29019H45.9892L40.7332 12.3629L41.2968 9.29019H37.1233C36.6674 9.29019 36.2958 8.94258 36.2958 8.51601V2.32255C36.2958 1.89597 36.6674 1.54837 37.1233 1.54837H48.7094C49.1654 1.54837 49.537 1.89597 49.537 2.32255V8.51601Z" fill="#0369CA"></path><path d="M47.8801 3.09766H37.9492V4.64602H47.8801V3.09766Z" fill="#0369CA"></path><path d="M44.5698 6.19141H37.9492V7.73977H44.5698V6.19141Z" fill="#0369CA"></path><path d="M47.8817 6.19141H46.2266V7.73977H47.8817V6.19141Z" fill="#0369CA"></path><path d="M25.5365 2.32422C14.7234 2.32422 5.40903 9.32128 2.98754 19.0814L1.41929 16.6358L0 17.4324L2.90892 21.9668L7.75603 19.2455L6.90445 17.9178L4.66173 19.1766C7.00707 10.248 15.5898 3.87258 25.5365 3.87258C27.7105 3.87258 29.8556 4.17451 31.9121 4.77064L32.402 3.29195C30.1866 2.64938 27.8768 2.32422 25.5365 2.32422Z" fill="#0369CA"></path><path d="M50.7887 17.1412L45.9416 14.4199L43.0335 18.9551L44.4528 19.7517L45.901 17.4934C46.6632 19.5798 47.053 21.7623 47.053 23.9989C47.053 28.6029 45.3482 33.104 42.2539 36.6722L43.5391 37.6477C46.8726 33.8047 48.7082 28.9567 48.7082 23.9989C48.7082 21.6307 48.3002 19.3182 47.5049 17.104L49.9371 18.4689L50.7887 17.1412Z" fill="#0369CA"></path></svg>