<svg xmlns="http://www.w3.org/2000/svg" width="68" height="65" viewBox="0 0 68 65" fill="none"><path d="M34.8539 62.7304C34.6074 62.4837 34.2651 62.3418 33.9163 62.3418C33.5673 62.3418 33.2251 62.4837 32.9785 62.7304C32.7318 62.9772 32.5898 63.3194 32.5898 63.6682C32.5898 64.0171 32.7316 64.3593 32.9785 64.606C33.2251 64.8527 33.5673 64.9947 33.9163 64.9947C34.2651 64.9947 34.6074 64.8527 34.8539 64.606C35.1007 64.3593 35.2427 64.0171 35.2427 63.6682C35.2427 63.3194 35.1008 62.9772 34.8539 62.7304Z" fill="#0369CA"></path><path d="M60.825 40.4647L56.4003 39.4077V37.6526C58.8563 36.1002 60.4921 33.3626 60.4921 30.2487V25.3054C60.4921 20.4781 56.5648 16.551 51.7374 16.551C49.1333 16.551 46.7925 17.6951 45.1874 19.5056C43.7817 14.6372 39.2854 11.0664 33.9705 11.0664H33.9704C28.6469 11.0664 24.1446 14.6484 22.7466 19.5288C21.1411 17.705 18.7917 16.551 16.1765 16.551C11.3491 16.551 7.4218 20.4783 7.4218 25.3054V30.2487C7.4218 33.3627 9.05756 36.1004 11.5136 37.6526V39.4077L7.08887 40.4647C2.91497 41.4617 0 45.1549 0 49.4458V58.3622C0 59.0948 0.593978 59.6886 1.32644 59.6886H11.933V63.6679C11.933 64.4005 12.527 64.9944 13.2594 64.9944H27.811C28.5434 64.9944 29.1374 64.4005 29.1374 63.6679C29.1374 62.9353 28.5434 62.3415 27.811 62.3415H21.8894V56.5036C21.8894 55.771 21.2954 55.1772 20.5629 55.1772C19.8305 55.1772 19.2365 55.771 19.2365 56.5036V62.3415H14.5857V56.3569C14.5857 51.8584 17.6411 47.9846 22.0158 46.9363L28.5396 45.3729L32.7372 54.9227C32.9489 55.4044 33.4252 55.7154 33.9513 55.7154H33.9514C34.4775 55.7154 34.954 55.4045 35.1657 54.9229L39.3591 45.387L45.8639 46.9409C50.2426 47.9868 53.3006 51.8615 53.3006 56.3631V57.8433C53.2328 58.0027 53.1951 58.1779 53.1951 58.3621C53.1951 58.5462 53.2328 58.7215 53.3006 58.8808V62.3415H48.677V56.5036C48.677 55.771 48.083 55.1772 47.3506 55.1772C46.6181 55.1772 46.0241 55.771 46.0241 56.5036V62.3415H39.5279C38.7955 62.3415 38.2015 62.9353 38.2015 63.6679C38.2015 64.4005 38.7955 64.9944 39.5279 64.9944H54.627C55.3595 64.9944 55.9534 64.4005 55.9534 63.6679V59.6886H66.5871C67.3195 59.6886 67.9135 59.0948 67.9135 58.3622V49.4458C67.9135 45.1549 64.9985 41.4617 60.825 40.4647ZM51.7372 19.2038C55.1017 19.2038 57.8391 21.9411 57.8391 25.3054V25.6339V25.7672H54.0451C51.1792 25.7672 48.363 25.0147 45.8811 23.5884C46.6247 21.0573 48.9686 19.2038 51.7372 19.2038ZM45.6354 30.0322C45.64 29.8967 45.6433 26.4657 45.6433 26.4657C48.2509 27.7481 51.1257 28.4202 54.0452 28.4202H57.8392V30.2488C57.8391 33.6132 55.1017 36.3503 51.7372 36.3503C48.3727 36.3503 45.6354 33.613 45.6354 30.2487V30.0322ZM24.9503 22.7392C24.9503 17.7656 28.9967 13.7194 33.9704 13.7194C38.944 13.7194 42.9904 17.7657 42.9904 22.7392V22.9121L38.0674 20.0198C37.5088 19.6916 36.7949 19.815 36.3788 20.3115C34.4661 22.5941 31.661 23.9033 28.6827 23.9033H24.9503V22.7392ZM10.0744 25.634V25.3054C10.0744 21.9409 12.8118 19.2038 16.1763 19.2038C18.9449 19.2038 21.2888 21.0573 22.0322 23.5885C19.5503 25.0147 16.7343 25.7673 13.8683 25.7673H10.0744V25.634ZM10.0744 30.2487V28.42H13.8684C16.7908 28.42 19.6685 27.7467 22.2781 26.4618V30.2487C22.2781 33.6132 19.5408 36.3503 16.1763 36.3503C12.8118 36.3503 10.0744 33.613 10.0744 30.2487ZM11.933 56.3569V57.0358H7.95861V51.1425C7.95861 50.4099 7.36463 49.8161 6.63218 49.8161C5.89972 49.8161 5.30574 50.4099 5.30574 51.1425V57.0358H2.65287V49.4458C2.65287 46.3877 4.73033 43.7556 7.70487 43.045L11.9094 42.0405L14.6535 48.6137C12.9373 50.7458 11.933 53.4483 11.933 56.3569ZM16.1765 45.3756L14.1621 40.5501C14.1643 40.5184 14.1662 40.4867 14.1662 40.4546V38.7677C14.812 38.92 15.4845 39.0031 16.1763 39.0031C16.865 39.0031 17.5343 38.9206 18.1776 38.7697V40.3707C18.1761 40.3956 18.1755 40.4206 18.1755 40.4455C18.1755 40.4873 18.1795 40.5288 18.1834 40.5703L16.1765 45.3756ZM21.3977 44.3565C20.6144 44.5442 19.8659 44.8054 19.1552 45.1274L20.4471 42.0339L24.6523 43.0416C24.9785 43.1197 25.2963 43.2231 25.6039 43.3485L21.3977 44.3565ZM27.9816 41.5918C27.1488 41.0753 26.2352 40.6929 25.2706 40.4618L20.8305 39.3979V37.6583C21.9347 36.9623 22.8727 36.0269 23.5718 34.9249C24.5718 36.8786 26.1066 38.5146 27.9816 39.6399V41.5918ZM37.264 43.5609L33.9517 51.0932L30.6344 43.5462V40.8105C31.6919 41.1265 32.8115 41.2969 33.9703 41.2969C35.1137 41.2969 36.219 41.1309 37.264 40.823V43.5609ZM33.9704 38.6442C28.9965 38.6441 24.9503 34.5978 24.9503 29.6243V26.5563H28.6826C32.0682 26.5563 35.277 25.2181 37.6476 22.8501L42.9826 25.9843V29.9356C42.8176 34.7653 38.8398 38.6442 33.9704 38.6442ZM39.9168 39.6649C41.8033 38.5434 43.349 36.9062 44.3567 34.9482C45.0544 36.04 45.9867 36.967 47.083 37.6583V39.3979L42.6429 40.4618C41.6725 40.6943 40.7537 41.0802 39.9168 41.6015V39.6649ZM46.4802 44.3609L42.2853 43.3586C42.6005 43.2286 42.9264 43.1218 43.2612 43.0416L47.4562 42.0364L48.7534 45.1437C48.0335 44.8158 47.2747 44.5507 46.4802 44.3609ZM49.7273 40.5901C49.7326 40.5419 49.7364 40.4935 49.7364 40.445C49.7364 40.4326 49.7363 40.4202 49.7359 40.4078V38.7697C50.3792 38.9208 51.0485 39.0031 51.7372 39.0031C52.429 39.0031 53.1015 38.92 53.7473 38.7676V40.4545C53.7473 40.4787 53.749 40.5024 53.7504 40.5263L51.7251 45.3756L49.7273 40.5901ZM65.2606 57.0358H62.6078V51.1425C62.6078 50.4099 62.0138 49.8161 61.2813 49.8161C60.5489 49.8161 59.9549 50.4099 59.9549 51.1425V57.0358H55.9534V56.3632C55.9534 53.4585 54.9525 50.7597 53.2411 48.6295L55.9939 42.0381L60.2086 43.045C63.1832 43.7556 65.2606 46.3877 65.2606 49.4458V57.0358Z" fill="#0369CA"></path><path d="M30.4399 28.1426C30.1933 27.8958 29.8511 27.7539 29.5022 27.7539C29.1534 27.7539 28.8111 27.8958 28.5644 28.1426C28.3177 28.3893 28.1758 28.7315 28.1758 29.0803C28.1758 29.4292 28.3176 29.7714 28.5644 30.0181C28.8113 30.2648 29.1534 30.4068 29.5022 30.4068C29.8524 30.4068 30.1933 30.2648 30.4399 30.0181C30.6879 29.7714 30.8287 29.4292 30.8287 29.0803C30.8287 28.7315 30.6879 28.3893 30.4399 28.1426Z" fill="#0369CA"></path><path d="M39.3149 28.1426C39.0683 27.8958 38.7261 27.7539 38.3772 27.7539C38.0284 27.7539 37.6861 27.8958 37.4394 28.1426C37.1927 28.3893 37.0508 28.7315 37.0508 29.0803C37.0508 29.4292 37.1926 29.7714 37.4394 30.0181C37.6863 30.2648 38.0284 30.4068 38.3772 30.4068C38.7261 30.4068 39.0683 30.2648 39.3149 30.0181C39.5629 29.7714 39.7037 29.4292 39.7037 29.0803C39.7037 28.7315 39.5629 28.3893 39.3149 28.1426Z" fill="#0369CA"></path><path d="M36.5123 32.6072C35.9942 32.0893 35.1545 32.0893 34.6363 32.6072C34.2441 32.9995 33.6059 32.9995 33.2137 32.6072C32.6956 32.0893 31.8559 32.0893 31.3377 32.6072C30.8197 33.1252 30.8197 33.9651 31.3377 34.4832C32.0511 35.1964 32.9879 35.5531 33.9249 35.5531C34.8619 35.5531 35.7988 35.1966 36.5121 34.4832C37.0302 33.9651 37.0302 33.1252 36.5123 32.6072Z" fill="#0369CA"></path><path d="M54.8456 4.24414H53.9358C53.2034 4.24414 52.6094 4.83799 52.6094 5.57058C52.6094 6.30317 53.2034 6.89701 53.9358 6.89701H54.8456C55.5781 6.89701 56.172 6.30317 56.172 5.57058C56.172 4.83799 55.5781 4.24414 54.8456 4.24414Z" fill="#0369CA"></path><path d="M61.2792 4.24414H60.3694C59.6369 4.24414 59.043 4.83799 59.043 5.57058C59.043 6.30317 59.6368 6.89701 60.3694 6.89701H61.2792C62.0117 6.89701 62.6056 6.30317 62.6056 5.57058C62.6056 4.83799 62.0117 4.24414 61.2792 4.24414Z" fill="#0369CA"></path><path d="M57.6116 7.00781C56.8791 7.00781 56.2852 7.60166 56.2852 8.33425V9.24405C56.2852 9.97664 56.879 10.5705 57.6116 10.5705C58.344 10.5705 58.938 9.97664 58.938 9.24405V8.33425C58.938 7.60166 58.344 7.00781 57.6116 7.00781Z" fill="#0369CA"></path><path d="M57.6116 0.572266C56.8791 0.572266 56.2852 1.16611 56.2852 1.8987V2.8085C56.2852 3.54109 56.879 4.13494 57.6116 4.13494C58.344 4.13494 58.938 3.54109 58.938 2.8085V1.8987C58.938 1.16611 58.344 0.572266 57.6116 0.572266Z" fill="#0369CA"></path><path d="M7.46267 4.24414H6.553C5.82054 4.24414 5.22656 4.83799 5.22656 5.57058C5.22656 6.30317 5.82054 6.89701 6.553 6.89701H7.46267C8.19512 6.89701 8.7891 6.30317 8.7891 5.57058C8.7891 4.83799 8.19512 4.24414 7.46267 4.24414Z" fill="#0369CA"></path><path d="M13.9041 4.24414H12.9944C12.2619 4.24414 11.668 4.83799 11.668 5.57058C11.668 6.30317 12.2618 6.89701 12.9944 6.89701H13.9041C14.6365 6.89701 15.2305 6.30317 15.2305 5.57058C15.2305 4.83799 14.6365 4.24414 13.9041 4.24414Z" fill="#0369CA"></path><path d="M10.2288 7.00781C9.49632 7.00781 8.90234 7.60166 8.90234 8.33425V9.24405C8.90234 9.97664 9.49619 10.5705 10.2288 10.5705C10.9612 10.5705 11.5552 9.97664 11.5552 9.24405V8.33425C11.5552 7.60166 10.9612 7.00781 10.2288 7.00781Z" fill="#0369CA"></path><path d="M10.2288 0.572266C9.49632 0.572266 8.90234 1.16611 8.90234 1.8987V2.8085C8.90234 3.54109 9.49619 4.13494 10.2288 4.13494C10.9612 4.13494 11.5552 3.54109 11.5552 2.8085V1.8987C11.5552 1.16611 10.9612 0.572266 10.2288 0.572266Z" fill="#0369CA"></path><path d="M33.9592 2.13477C33.2268 2.13477 32.6328 2.72861 32.6328 3.4612V6.95105C32.6328 7.68364 33.2268 8.27749 33.9592 8.27749C34.6917 8.27749 35.2857 7.68364 35.2857 6.95105V3.4612C35.2857 2.72861 34.6917 2.13477 33.9592 2.13477Z" fill="#0369CA"></path><path d="M29.311 2.4038L27.3699 0.462699C26.8518 -0.0552745 26.0122 -0.0552745 25.4939 0.462699C24.976 0.980672 24.976 1.82057 25.4939 2.33868L27.4352 4.27978C27.6942 4.53883 28.0337 4.66829 28.3731 4.66829C28.7125 4.66829 29.052 4.53883 29.311 4.27978C29.829 3.76181 29.829 2.92191 29.311 2.4038Z" fill="#0369CA"></path><path d="M42.4189 0.38848C41.9008 -0.129493 41.0611 -0.129493 40.5429 0.38848L38.5369 2.39445C38.0189 2.91242 38.0189 3.75232 38.5369 4.27043C38.7961 4.52948 39.1354 4.65894 39.475 4.65894C39.8145 4.65894 40.1538 4.52948 40.4129 4.27043L42.4189 2.26446C42.9368 1.74648 42.9368 0.906586 42.4189 0.38848Z" fill="#0369CA"></path></svg>