<svg xmlns="http://www.w3.org/2000/svg" width="77" height="66" viewBox="0 0 77 66" fill="none"><path d="M71.894 65.5167H4.15916C1.86667 65.5167 0 63.65 0 61.3575V4.15916C0 1.86667 1.86667 0 4.15916 0H71.894C74.1865 0 76.0532 1.86667 76.0532 4.15916V61.3575C76.0532 63.65 74.1865 65.5167 71.894 65.5167ZM4.15916 2.37666C3.17384 2.37666 2.37666 3.17383 2.37666 4.15916V61.3575C2.37666 62.3428 3.17384 63.14 4.15916 63.14H71.894C72.8794 63.14 73.6765 62.3428 73.6765 61.3575V4.15916C73.6765 3.17383 72.8794 2.37666 71.894 2.37666H4.15916Z" fill="#0369CA"></path><path d="M74.8649 12.8493H1.18833C0.529798 12.8493 0 12.3195 0 11.661C0 11.0025 0.529798 10.4727 1.18833 10.4727H74.8649C75.5234 10.4727 76.0532 11.0025 76.0532 11.661C76.0532 12.3195 75.5234 12.8493 74.8649 12.8493Z" fill="#0369CA"></path><path d="M68.1739 7.61494H38.6141C37.9556 7.61494 37.4258 7.08515 37.4258 6.42661C37.4258 5.76808 37.9556 5.23828 38.6141 5.23828H68.1739C68.8324 5.23828 69.3622 5.76808 69.3622 6.42661C69.3622 7.08515 68.8274 7.61494 68.1739 7.61494Z" fill="#0369CA"></path><path d="M8.88495 7.98669C9.74907 7.98669 10.4496 7.28618 10.4496 6.42206C10.4496 5.55793 9.74907 4.85742 8.88495 4.85742C8.02082 4.85742 7.32031 5.55793 7.32031 6.42206C7.32031 7.28618 8.02082 7.98669 8.88495 7.98669Z" fill="#0369CA"></path><path d="M15.4357 7.98669C16.2999 7.98669 17.0004 7.28618 17.0004 6.42206C17.0004 5.55793 16.2999 4.85742 15.4357 4.85742C14.5716 4.85742 13.8711 5.55793 13.8711 6.42206C13.8711 7.28618 14.5716 7.98669 15.4357 7.98669Z" fill="#0369CA"></path><path d="M21.9865 7.98669C22.8506 7.98669 23.5511 7.28618 23.5511 6.42206C23.5511 5.55793 22.8506 4.85742 21.9865 4.85742C21.1224 4.85742 20.4219 5.55793 20.4219 6.42206C20.4219 7.28618 21.1224 7.98669 21.9865 7.98669Z" fill="#0369CA"></path><path d="M40.5465 37.6209H7.9813C7.32277 37.6209 6.79297 37.0911 6.79297 36.4326V17.3153C6.79297 16.6568 7.32277 16.127 7.9813 16.127H40.5465C41.2051 16.127 41.7349 16.6568 41.7349 17.3153V36.4326C41.7349 37.0861 41.2051 37.6209 40.5465 37.6209ZM9.16963 35.2442H39.3582V18.5036H9.16963V35.2442Z" fill="#0369CA"></path><path d="M68.0689 20.613H47.4266C46.7681 20.613 46.2383 20.0832 46.2383 19.4247C46.2383 18.7661 46.7681 18.2363 47.4266 18.2363H68.0689C68.7275 18.2363 69.2572 18.7661 69.2572 19.4247C69.2572 20.0832 68.7225 20.613 68.0689 20.613Z" fill="#0369CA"></path><path d="M68.0689 28.0603H47.4266C46.7681 28.0603 46.2383 27.5305 46.2383 26.8719C46.2383 26.2134 46.7681 25.6836 47.4266 25.6836H68.0689C68.7275 25.6836 69.2572 26.2134 69.2572 26.8719C69.2572 27.5305 68.7225 28.0603 68.0689 28.0603Z" fill="#0369CA"></path><path d="M68.0689 35.5075H47.4266C46.7681 35.5075 46.2383 34.9777 46.2383 34.3192C46.2383 33.6607 46.7681 33.1309 47.4266 33.1309H68.0689C68.7275 33.1309 69.2572 33.6607 69.2572 34.3192C69.2572 34.9777 68.7225 35.5075 68.0689 35.5075Z" fill="#0369CA"></path><path d="M68.0723 59.8636H36.2547C35.5962 59.8636 35.0664 59.3338 35.0664 58.6752V41.8504C35.0664 41.1919 35.5962 40.6621 36.2547 40.6621H68.0723C68.7308 40.6621 69.2606 41.1919 69.2606 41.8504V58.6752C69.2606 59.3338 68.7259 59.8636 68.0723 59.8636ZM37.4431 57.4869H66.884V43.0388H37.4431V57.4869Z" fill="#0369CA"></path><path d="M30.2823 59.8636H7.9813C7.32277 59.8636 6.79297 59.3338 6.79297 58.6752V41.8504C6.79297 41.1919 7.32277 40.6621 7.9813 40.6621H30.2774C30.9359 40.6621 31.4657 41.1919 31.4657 41.8504V58.6752C31.4706 59.3338 30.9359 59.8636 30.2823 59.8636ZM9.16963 57.4869H29.089V43.0388H9.16963V57.4869Z" fill="#0369CA"></path></svg>