<svg xmlns="http://www.w3.org/2000/svg" width="61" height="57" viewBox="0 0 61 57" fill="none"><mask id="path-1-inside-1_298_115" fill="white"><path d="M37.303 44.2433C36.5349 44.0528 35.7673 43.9088 35.0015 43.808C36.2238 42.7855 37.0301 41.0465 37.0301 39.0766C37.0301 36.2159 35.239 34.3673 32.4668 34.3673C29.6947 34.3673 27.9036 36.2159 27.9036 39.0766C27.9036 41.0417 28.7059 42.7772 29.9231 43.8007C29.1514 43.9021 28.384 44.0495 27.6228 44.2454C25.0094 44.9171 23.5106 46.4378 23.5106 48.4174V55.6729C23.5106 56.208 23.9444 56.6419 24.4795 56.6419H40.454C40.9892 56.6419 41.423 56.208 41.423 55.6729V48.4174C41.423 46.4142 39.9213 44.8928 37.303 44.2433ZM32.4668 36.3053C33.6645 36.3053 35.0922 36.7862 35.0922 39.0766C35.0922 41.112 33.8899 42.8316 32.4668 42.8316C31.0438 42.8316 29.8415 41.112 29.8415 39.0766C29.8415 36.7862 31.2692 36.3053 32.4668 36.3053ZM39.4851 54.7039H37.7936V50.0852C37.7936 49.5501 37.3597 49.1162 36.8246 49.1162C36.2895 49.1162 35.8556 49.5501 35.8556 50.0852V54.7039H29.0781V50.0852C29.0781 49.5501 28.6442 49.1162 28.1091 49.1162C27.574 49.1162 27.1401 49.5501 27.1401 50.0852V54.7039H25.4486V48.4174C25.4486 47.0848 26.8934 46.4338 28.1055 46.1223C30.9475 45.3914 33.885 45.392 36.8366 46.1243C37.8258 46.3696 39.4852 46.9939 39.4852 48.4176L39.4851 54.7039ZM56.1498 0H28.0277C25.5371 0 23.5107 2.02626 23.5107 4.5169V15.1716C22.5817 15.5835 21.5927 15.8279 20.5306 15.8279H15.8296C18.2314 14.6986 19.9475 11.7682 19.9475 8.33917C19.9475 4.31475 17.5305 1.81466 13.6397 1.81466C9.74884 1.81466 7.33196 4.31475 7.33196 8.33917C7.33196 11.7682 9.04815 14.6986 11.4499 15.8279H7.78242C4.367 15.8279 0.66937 18.0543 0.651323 21.651L0.589914 33.9141C0.582404 35.4167 1.17772 36.847 2.26637 37.9411C3.22857 38.9081 4.5138 39.5256 5.87643 39.6962V55.6729C5.87643 56.208 6.31029 56.6419 6.84541 56.6419C7.38053 56.6419 7.81439 56.208 7.81439 55.6729V22.1848C7.81439 21.6497 7.38053 21.2158 6.84541 21.2158C6.31029 21.2158 5.87643 21.6497 5.87643 22.1848V37.7375C5.02991 37.5831 4.24152 37.1786 3.64014 36.5742C2.91801 35.8483 2.52291 34.9071 2.52788 33.9238L2.58929 21.6607C2.602 19.1194 5.61335 17.7659 7.78242 17.7659H20.5306C24.9999 17.7659 28.2776 14.3832 31.0951 11.3334C31.614 10.7717 32.1042 10.241 32.5868 9.75219C33.0348 9.29858 33.4948 9.12356 34.402 9.6519C34.654 9.7987 34.7195 9.95446 34.7406 10.1431C34.8929 11.5099 32.5932 14.4545 30.8741 16.0549C27.5536 19.1489 22.8844 21.6647 20.4608 21.6647C19.9263 21.6647 19.4928 22.0975 19.4918 22.632L19.4338 55.6713C19.4328 56.2065 19.866 56.6411 20.4028 56.642C20.9372 56.642 21.3708 56.2094 21.3718 55.6747L21.4282 23.5255C22.0818 23.4269 22.7835 23.2359 23.5106 22.9741V29.4367C23.5106 31.9272 25.5369 33.9536 28.0276 33.9536H56.1497C58.6404 33.9536 60.6666 31.9273 60.6666 29.4367V4.51678C60.6667 2.02626 58.6405 0 56.1498 0ZM9.26993 8.33917C9.26993 4.34854 12.0078 3.75262 13.6398 3.75262C15.2718 3.75262 18.0096 4.34842 18.0096 8.33917C18.0096 11.6739 16.0493 14.3869 13.6398 14.3869C11.2303 14.3869 9.26993 11.6739 9.26993 8.33917ZM58.7288 29.4367C58.7288 30.8587 57.5719 32.0156 56.1498 32.0156H28.0277C26.6056 32.0156 25.4486 30.8587 25.4486 29.4367V22.1416C27.8724 20.9456 30.3642 19.179 32.195 17.473C32.3916 17.29 37.0043 12.9572 36.6667 9.9283C36.5731 9.0888 36.1274 8.41427 35.3775 7.97726C33.4034 6.82756 32.0204 7.56738 31.2077 8.39053C30.7025 8.90239 30.2016 9.44442 29.6715 10.0183C28.3791 11.4173 26.9977 12.9112 25.4485 14.0342V4.51678C25.4485 3.0948 26.6055 1.93784 28.0276 1.93784H56.1497C57.5719 1.93796 58.7288 3.0948 58.7288 4.51678V29.4367ZM39.9646 17.8263H37.533C36.6773 17.8263 35.9811 18.5226 35.9811 19.3782V28.7298C35.9811 29.5855 36.6773 30.2817 37.533 30.2817H39.9646C40.8203 30.2817 41.5165 29.5855 41.5165 28.7298V19.3782C41.5165 18.5226 40.8203 17.8263 39.9646 17.8263ZM39.5786 28.3439H37.9191V19.7643H39.5786V28.3439ZM53.3242 10.6539H50.8926C50.0369 10.6539 49.3407 11.3502 49.3407 12.2058V28.7298C49.3407 29.5854 50.0369 30.2816 50.8926 30.2816H53.3242C54.1799 30.2816 54.8761 29.5854 54.8761 28.7298V12.2059C54.8761 11.3502 54.1799 10.6539 53.3242 10.6539ZM52.9381 28.3438H51.2786V12.5919H52.9381V28.3438ZM33.2847 21.4423H30.8531C29.9974 21.4423 29.3012 22.1385 29.3012 22.9942V28.7298C29.3012 29.5854 29.9974 30.2816 30.8531 30.2816H33.2847C34.1404 30.2816 34.8365 29.5854 34.8365 28.7298V22.9942C34.8366 22.1385 34.1404 21.4423 33.2847 21.4423ZM32.8986 28.3438H31.2393V23.3803H32.8986V28.3438ZM46.6445 14.0506H44.213C43.3572 14.0506 42.6611 14.7468 42.6611 15.6025V28.7299C42.6611 29.5855 43.3573 30.2817 44.213 30.2817H46.6445C47.5002 30.2817 48.1963 29.5855 48.1963 28.7299V15.6025C48.1963 14.7468 47.5002 14.0506 46.6445 14.0506ZM46.2584 28.3438H44.599V15.9886H46.2584V28.3438ZM56.5466 44.2433C55.7785 44.0528 55.0109 43.9088 54.2451 43.808C55.4674 42.7855 56.2737 41.0465 56.2737 39.0766C56.2737 36.2159 54.4826 34.3673 51.7104 34.3673C48.9383 34.3673 47.1472 36.2159 47.1472 39.0766C47.1472 41.0417 47.9495 42.7772 49.1667 43.8007C48.395 43.9021 47.6276 44.0496 46.8664 44.2454C44.253 44.9171 42.7542 46.4378 42.7542 48.4174V55.6729C42.7542 56.208 43.188 56.6419 43.7231 56.6419H59.6978C60.2329 56.6419 60.6667 56.208 60.6667 55.6729V48.4174C60.6667 46.4142 59.1651 44.8926 56.5466 44.2433ZM51.7106 36.3053C52.9082 36.3053 54.3359 36.7862 54.3359 39.0766C54.3359 41.112 53.1336 42.8316 51.7106 42.8316C50.2875 42.8316 49.0852 41.112 49.0852 39.0766C49.0852 36.7862 50.5128 36.3053 51.7106 36.3053ZM58.7288 54.7039H57.0372V50.0852C57.0372 49.5501 56.6033 49.1162 56.0682 49.1162C55.5331 49.1162 55.0992 49.5501 55.0992 50.0852V54.7039H48.3217V50.0852C48.3217 49.5501 47.8878 49.1162 47.3527 49.1162C46.8176 49.1162 46.3837 49.5501 46.3837 50.0852V54.7039H44.6922V48.4174C44.6922 47.0848 46.137 46.4338 47.3491 46.1223C50.1908 45.3914 53.1284 45.392 56.0801 46.1243C57.0693 46.3696 58.7288 46.9939 58.7288 48.4176V54.7039ZM14.4008 40.3516V55.673C14.4008 56.2082 13.9669 56.642 13.4318 56.642C12.8967 56.642 12.4628 56.2082 12.4628 55.673V40.3516C12.4628 39.8165 12.8967 39.3827 13.4318 39.3827C13.9669 39.3827 14.4008 39.8165 14.4008 40.3516ZM49.89 7.82694C45.4015 11.7161 40.4205 15.1242 35.052 17.9741C34.9072 18.051 34.7517 18.0875 34.5985 18.0875C34.2515 18.0875 33.9158 17.9006 33.7418 17.5727C33.4908 17.1001 33.6707 16.5135 34.1433 16.2625C39.3488 13.4991 44.1801 10.1997 48.5361 6.43682L47.8092 6.47631C47.2743 6.50307 46.8181 6.0955 46.7891 5.56122C46.7602 5.02683 47.1698 4.5702 47.7042 4.54113L51.1817 4.3523C51.4721 4.33704 51.7538 4.45186 51.9497 4.66637C52.1456 4.88088 52.235 5.17194 52.1931 5.45948L51.6913 8.9059C51.6211 9.38809 51.2069 9.73535 50.7336 9.73547C50.6872 9.73547 50.6402 9.7322 50.5928 9.7253C50.0632 9.64814 49.6964 9.15639 49.7736 8.62684L49.89 7.82694Z"></path></mask><path d="M37.303 44.2433C36.5349 44.0528 35.7673 43.9088 35.0015 43.808C36.2238 42.7855 37.0301 41.0465 37.0301 39.0766C37.0301 36.2159 35.239 34.3673 32.4668 34.3673C29.6947 34.3673 27.9036 36.2159 27.9036 39.0766C27.9036 41.0417 28.7059 42.7772 29.9231 43.8007C29.1514 43.9021 28.384 44.0495 27.6228 44.2454C25.0094 44.9171 23.5106 46.4378 23.5106 48.4174V55.6729C23.5106 56.208 23.9444 56.6419 24.4795 56.6419H40.454C40.9892 56.6419 41.423 56.208 41.423 55.6729V48.4174C41.423 46.4142 39.9213 44.8928 37.303 44.2433ZM32.4668 36.3053C33.6645 36.3053 35.0922 36.7862 35.0922 39.0766C35.0922 41.112 33.8899 42.8316 32.4668 42.8316C31.0438 42.8316 29.8415 41.112 29.8415 39.0766C29.8415 36.7862 31.2692 36.3053 32.4668 36.3053ZM39.4851 54.7039H37.7936V50.0852C37.7936 49.5501 37.3597 49.1162 36.8246 49.1162C36.2895 49.1162 35.8556 49.5501 35.8556 50.0852V54.7039H29.0781V50.0852C29.0781 49.5501 28.6442 49.1162 28.1091 49.1162C27.574 49.1162 27.1401 49.5501 27.1401 50.0852V54.7039H25.4486V48.4174C25.4486 47.0848 26.8934 46.4338 28.1055 46.1223C30.9475 45.3914 33.885 45.392 36.8366 46.1243C37.8258 46.3696 39.4852 46.9939 39.4852 48.4176L39.4851 54.7039ZM56.1498 0H28.0277C25.5371 0 23.5107 2.02626 23.5107 4.5169V15.1716C22.5817 15.5835 21.5927 15.8279 20.5306 15.8279H15.8296C18.2314 14.6986 19.9475 11.7682 19.9475 8.33917C19.9475 4.31475 17.5305 1.81466 13.6397 1.81466C9.74884 1.81466 7.33196 4.31475 7.33196 8.33917C7.33196 11.7682 9.04815 14.6986 11.4499 15.8279H7.78242C4.367 15.8279 0.66937 18.0543 0.651323 21.651L0.589914 33.9141C0.582404 35.4167 1.17772 36.847 2.26637 37.9411C3.22857 38.9081 4.5138 39.5256 5.87643 39.6962V55.6729C5.87643 56.208 6.31029 56.6419 6.84541 56.6419C7.38053 56.6419 7.81439 56.208 7.81439 55.6729V22.1848C7.81439 21.6497 7.38053 21.2158 6.84541 21.2158C6.31029 21.2158 5.87643 21.6497 5.87643 22.1848V37.7375C5.02991 37.5831 4.24152 37.1786 3.64014 36.5742C2.91801 35.8483 2.52291 34.9071 2.52788 33.9238L2.58929 21.6607C2.602 19.1194 5.61335 17.7659 7.78242 17.7659H20.5306C24.9999 17.7659 28.2776 14.3832 31.0951 11.3334C31.614 10.7717 32.1042 10.241 32.5868 9.75219C33.0348 9.29858 33.4948 9.12356 34.402 9.6519C34.654 9.7987 34.7195 9.95446 34.7406 10.1431C34.8929 11.5099 32.5932 14.4545 30.8741 16.0549C27.5536 19.1489 22.8844 21.6647 20.4608 21.6647C19.9263 21.6647 19.4928 22.0975 19.4918 22.632L19.4338 55.6713C19.4328 56.2065 19.866 56.6411 20.4028 56.642C20.9372 56.642 21.3708 56.2094 21.3718 55.6747L21.4282 23.5255C22.0818 23.4269 22.7835 23.2359 23.5106 22.9741V29.4367C23.5106 31.9272 25.5369 33.9536 28.0276 33.9536H56.1497C58.6404 33.9536 60.6666 31.9273 60.6666 29.4367V4.51678C60.6667 2.02626 58.6405 0 56.1498 0ZM9.26993 8.33917C9.26993 4.34854 12.0078 3.75262 13.6398 3.75262C15.2718 3.75262 18.0096 4.34842 18.0096 8.33917C18.0096 11.6739 16.0493 14.3869 13.6398 14.3869C11.2303 14.3869 9.26993 11.6739 9.26993 8.33917ZM58.7288 29.4367C58.7288 30.8587 57.5719 32.0156 56.1498 32.0156H28.0277C26.6056 32.0156 25.4486 30.8587 25.4486 29.4367V22.1416C27.8724 20.9456 30.3642 19.179 32.195 17.473C32.3916 17.29 37.0043 12.9572 36.6667 9.9283C36.5731 9.0888 36.1274 8.41427 35.3775 7.97726C33.4034 6.82756 32.0204 7.56738 31.2077 8.39053C30.7025 8.90239 30.2016 9.44442 29.6715 10.0183C28.3791 11.4173 26.9977 12.9112 25.4485 14.0342V4.51678C25.4485 3.0948 26.6055 1.93784 28.0276 1.93784H56.1497C57.5719 1.93796 58.7288 3.0948 58.7288 4.51678V29.4367ZM39.9646 17.8263H37.533C36.6773 17.8263 35.9811 18.5226 35.9811 19.3782V28.7298C35.9811 29.5855 36.6773 30.2817 37.533 30.2817H39.9646C40.8203 30.2817 41.5165 29.5855 41.5165 28.7298V19.3782C41.5165 18.5226 40.8203 17.8263 39.9646 17.8263ZM39.5786 28.3439H37.9191V19.7643H39.5786V28.3439ZM53.3242 10.6539H50.8926C50.0369 10.6539 49.3407 11.3502 49.3407 12.2058V28.7298C49.3407 29.5854 50.0369 30.2816 50.8926 30.2816H53.3242C54.1799 30.2816 54.8761 29.5854 54.8761 28.7298V12.2059C54.8761 11.3502 54.1799 10.6539 53.3242 10.6539ZM52.9381 28.3438H51.2786V12.5919H52.9381V28.3438ZM33.2847 21.4423H30.8531C29.9974 21.4423 29.3012 22.1385 29.3012 22.9942V28.7298C29.3012 29.5854 29.9974 30.2816 30.8531 30.2816H33.2847C34.1404 30.2816 34.8365 29.5854 34.8365 28.7298V22.9942C34.8366 22.1385 34.1404 21.4423 33.2847 21.4423ZM32.8986 28.3438H31.2393V23.3803H32.8986V28.3438ZM46.6445 14.0506H44.213C43.3572 14.0506 42.6611 14.7468 42.6611 15.6025V28.7299C42.6611 29.5855 43.3573 30.2817 44.213 30.2817H46.6445C47.5002 30.2817 48.1963 29.5855 48.1963 28.7299V15.6025C48.1963 14.7468 47.5002 14.0506 46.6445 14.0506ZM46.2584 28.3438H44.599V15.9886H46.2584V28.3438ZM56.5466 44.2433C55.7785 44.0528 55.0109 43.9088 54.2451 43.808C55.4674 42.7855 56.2737 41.0465 56.2737 39.0766C56.2737 36.2159 54.4826 34.3673 51.7104 34.3673C48.9383 34.3673 47.1472 36.2159 47.1472 39.0766C47.1472 41.0417 47.9495 42.7772 49.1667 43.8007C48.395 43.9021 47.6276 44.0496 46.8664 44.2454C44.253 44.9171 42.7542 46.4378 42.7542 48.4174V55.6729C42.7542 56.208 43.188 56.6419 43.7231 56.6419H59.6978C60.2329 56.6419 60.6667 56.208 60.6667 55.6729V48.4174C60.6667 46.4142 59.1651 44.8926 56.5466 44.2433ZM51.7106 36.3053C52.9082 36.3053 54.3359 36.7862 54.3359 39.0766C54.3359 41.112 53.1336 42.8316 51.7106 42.8316C50.2875 42.8316 49.0852 41.112 49.0852 39.0766C49.0852 36.7862 50.5128 36.3053 51.7106 36.3053ZM58.7288 54.7039H57.0372V50.0852C57.0372 49.5501 56.6033 49.1162 56.0682 49.1162C55.5331 49.1162 55.0992 49.5501 55.0992 50.0852V54.7039H48.3217V50.0852C48.3217 49.5501 47.8878 49.1162 47.3527 49.1162C46.8176 49.1162 46.3837 49.5501 46.3837 50.0852V54.7039H44.6922V48.4174C44.6922 47.0848 46.137 46.4338 47.3491 46.1223C50.1908 45.3914 53.1284 45.392 56.0801 46.1243C57.0693 46.3696 58.7288 46.9939 58.7288 48.4176V54.7039ZM14.4008 40.3516V55.673C14.4008 56.2082 13.9669 56.642 13.4318 56.642C12.8967 56.642 12.4628 56.2082 12.4628 55.673V40.3516C12.4628 39.8165 12.8967 39.3827 13.4318 39.3827C13.9669 39.3827 14.4008 39.8165 14.4008 40.3516ZM49.89 7.82694C45.4015 11.7161 40.4205 15.1242 35.052 17.9741C34.9072 18.051 34.7517 18.0875 34.5985 18.0875C34.2515 18.0875 33.9158 17.9006 33.7418 17.5727C33.4908 17.1001 33.6707 16.5135 34.1433 16.2625C39.3488 13.4991 44.1801 10.1997 48.5361 6.43682L47.8092 6.47631C47.2743 6.50307 46.8181 6.0955 46.7891 5.56122C46.7602 5.02683 47.1698 4.5702 47.7042 4.54113L51.1817 4.3523C51.4721 4.33704 51.7538 4.45186 51.9497 4.66637C52.1456 4.88088 52.235 5.17194 52.1931 5.45948L51.6913 8.9059C51.6211 9.38809 51.2069 9.73535 50.7336 9.73547C50.6872 9.73547 50.6402 9.7322 50.5928 9.7253C50.0632 9.64814 49.6964 9.15639 49.7736 8.62684L49.89 7.82694Z" fill="#047BDC" stroke="#047BDC" stroke-width="2" mask="url(#path-1-inside-1_298_115)"></path></svg>