<svg xmlns="http://www.w3.org/2000/svg" width="87" height="87" viewBox="0 0 87 87" fill="none"><path d="M32.2739 16.8391H29.4675C28.6929 16.8391 28.0643 16.209 28.0643 15.4359H25.2578C25.2578 17.7568 27.1466 19.6455 29.4675 19.6455H32.2739C34.5949 19.6455 36.4836 17.7568 36.4836 15.4359C36.4836 13.1149 34.5949 11.2262 32.2739 11.2262H29.4675C28.6929 11.2262 28.0643 10.5961 28.0643 9.82296C28.0643 9.04978 28.6929 8.41973 29.4675 8.41973H32.2739C33.0485 8.41973 33.6772 9.04978 33.6772 9.82296H36.4836C36.4836 7.50202 34.5949 5.61328 32.2739 5.61328H29.4675C27.1466 5.61328 25.2578 7.50202 25.2578 9.82296C25.2578 12.1439 27.1466 14.0326 29.4675 14.0326H32.2739C33.0485 14.0326 33.6772 14.6627 33.6772 15.4359C33.6772 16.209 33.0485 16.8391 32.2739 16.8391Z" fill="#048DEF"></path><path d="M43.4997 19.6455H47.7094V16.8391H43.4997C42.7251 16.8391 42.0965 16.209 42.0965 15.4359V14.0326H47.7094V11.2262H42.0965V9.82296C42.0965 9.04978 42.7251 8.41973 43.4997 8.41973H47.7094V5.61328H43.4997C41.1788 5.61328 39.29 7.50202 39.29 9.82296V15.4359C39.29 17.7568 41.1788 19.6455 43.4997 19.6455Z" fill="#048DEF"></path><path d="M54.7263 19.6455H57.5327C59.8537 19.6455 61.7424 17.7568 61.7424 15.4359V9.82296C61.7424 7.50202 59.8537 5.61328 57.5327 5.61328H54.7263C52.4053 5.61328 50.5166 7.50202 50.5166 9.82296V15.4359C50.5166 17.7568 52.4053 19.6455 54.7263 19.6455ZM53.3231 9.82296C53.3231 9.04978 53.9517 8.41973 54.7263 8.41973H57.5327C58.3073 8.41973 58.936 9.04978 58.936 9.82296V15.4359C58.936 16.209 58.3073 16.8391 57.5327 16.8391H54.7263C53.9517 16.8391 53.3231 16.209 53.3231 15.4359V9.82296Z" fill="#048DEF"></path><path d="M87 30.8387H81.3871V26.629C81.3871 22.7603 78.2397 19.6129 74.371 19.6129H67.3548V4.20968C67.3548 1.88874 65.4661 0 63.1452 0H23.8548C21.5339 0 19.6452 1.88874 19.6452 4.20968V19.6129H12.629C8.76034 19.6129 5.6129 22.7603 5.6129 26.629V35.1634C2.2634 37.1083 0 40.7272 0 44.8709C0 49.0147 2.2634 52.6336 5.6129 54.5785V65.9193C5.6129 69.788 8.76034 72.9355 12.629 72.9355H29.4677V78.5484H28.0645C24.1958 78.5484 21.0484 81.6958 21.0484 85.5645V86.9677H65.9516V85.5645C65.9516 81.6958 62.8042 78.5484 58.9355 78.5484H57.5323V72.9355H74.371C78.2397 72.9355 81.3871 69.788 81.3871 65.9193V56.0968H87V30.8387ZM22.4516 4.20968C22.4516 3.4365 23.0803 2.80645 23.8548 2.80645H63.1452C63.9197 2.80645 64.5484 3.4365 64.5484 4.20968V21.0484C64.5484 21.8216 63.9197 22.4516 63.1452 22.4516H48.6891L40.4592 27.9074C39.9919 28.2217 39.2903 27.8428 39.2903 27.2787V22.4516H23.8548C23.0803 22.4516 22.4516 21.8216 22.4516 21.0484V4.20968ZM8.41935 26.629C8.41935 24.3081 10.3081 22.4193 12.629 22.4193H19.8935C20.466 24.0653 22.0152 25.2581 23.8548 25.2581H36.4839V27.2787C36.4839 29.2418 38.0807 30.8387 40.0439 30.8387C40.7455 30.8387 41.4246 30.6338 42.0098 30.2465L49.5353 25.2581H63.1452C64.9834 25.2581 66.534 24.0653 67.1065 22.4193H74.371C76.6919 22.4193 78.5806 24.3081 78.5806 26.629V30.8387H67.3548V43.4677H58.9355V36.4516H50.5161V53.2903H47.7097V33.6451H39.2903V53.2903H36.4839V39.258H28.0645V43.4677H22.3548C21.6602 37.939 16.9397 33.6451 11.2258 33.6451C10.2548 33.6451 9.31882 33.7813 8.41935 34.0142V26.629ZM53.3226 53.2903V39.258H56.129V53.2903H53.3226ZM44.9032 53.2903H42.0968V36.4516H44.9032V53.2903ZM33.6774 53.2903H30.871V42.0645H33.6774V53.2903ZM2.80645 44.8709C2.80645 40.2277 6.58253 36.4516 11.2258 36.4516C15.8691 36.4516 19.6452 40.2277 19.6452 44.8709C19.6452 49.5142 15.8691 53.2903 11.2258 53.2903C6.58253 53.2903 2.80645 49.5142 2.80645 44.8709ZM62.9052 84.1613H24.0948C24.6743 82.5279 26.2347 81.3548 28.0645 81.3548H58.9355C60.7653 81.3548 62.3257 82.5279 62.9052 84.1613ZM54.7258 78.5484H32.2742V72.9355H54.7258V78.5484ZM74.371 70.129H12.629C10.3081 70.129 8.41935 68.2403 8.41935 65.9193V61.7097H78.5806V65.9193C78.5806 68.2403 76.6919 70.129 74.371 70.129ZM78.5806 58.9032H8.41935V55.7277C9.31882 55.9606 10.2548 56.0968 11.2258 56.0968C16.9397 56.0968 21.6602 51.8029 22.3548 46.2742H28.0645V53.2903H25.2581V56.0968H61.7419V53.2903H58.9355V46.2742H67.3548V56.0968H78.5806V58.9032ZM84.1936 53.2903H70.1613V33.6451H84.1936V53.2903Z" fill="#048DEF"></path><path d="M37.8876 67.324C38.6626 67.324 39.2908 66.6958 39.2908 65.9208C39.2908 65.1458 38.6626 64.5176 37.8876 64.5176C37.1126 64.5176 36.4844 65.1458 36.4844 65.9208C36.4844 66.6958 37.1126 67.324 37.8876 67.324Z" fill="#048DEF"></path><path d="M43.4999 67.324C44.2749 67.324 44.9031 66.6958 44.9031 65.9208C44.9031 65.1458 44.2749 64.5176 43.4999 64.5176C42.7249 64.5176 42.0967 65.1458 42.0967 65.9208C42.0967 66.6958 42.7249 67.324 43.4999 67.324Z" fill="#048DEF"></path><path d="M49.1122 67.324C49.8872 67.324 50.5154 66.6958 50.5154 65.9208C50.5154 65.1458 49.8872 64.5176 49.1122 64.5176C48.3372 64.5176 47.709 65.1458 47.709 65.9208C47.709 66.6958 48.3372 67.324 49.1122 67.324Z" fill="#048DEF"></path><path d="M16.8381 44.8727C16.8381 41.7772 14.3207 39.2598 11.2252 39.2598C8.12969 39.2598 5.6123 41.7772 5.6123 44.8727C5.6123 47.9682 8.12969 50.4856 11.2252 50.4856C14.3207 50.4856 16.8381 47.9682 16.8381 44.8727ZM8.41876 44.8727C8.41876 43.3249 9.67745 42.0662 11.2252 42.0662C12.773 42.0662 14.0317 43.3249 14.0317 44.8727C14.0317 46.4204 12.773 47.6791 11.2252 47.6791C9.67745 47.6791 8.41876 46.4204 8.41876 44.8727Z" fill="#048DEF"></path><path d="M72.9678 36.4512H81.3871V39.2576H72.9678V36.4512Z" fill="#048DEF"></path><path d="M72.9678 42.0645H81.3871V44.8709H72.9678V42.0645Z" fill="#048DEF"></path><path d="M72.9678 47.6777H81.3871V50.4842H72.9678V47.6777Z" fill="#048DEF"></path></svg>