<svg xmlns="http://www.w3.org/2000/svg" width="55" height="55" viewBox="0 0 55 55" fill="none"><path d="M12.4191 35.4834H14.1933V33.5832C15.7191 33.1867 16.8546 31.8099 16.8546 30.1608C16.8546 29.1025 16.3889 28.1497 15.6508 27.4995C16.3889 26.8493 16.8546 25.8965 16.8546 24.8382C16.8546 23.1891 15.7191 21.8123 14.1933 21.4158V19.5156H12.4191V21.2898H9.75781V33.7092H12.4191V35.4834ZM11.532 23.064H13.3062C14.2847 23.064 15.0804 23.8597 15.0804 24.8382C15.0804 25.8167 14.2847 26.6124 13.3062 26.6124H11.532V23.064ZM11.532 31.935V28.3866H13.3062C14.2847 28.3866 15.0804 29.1823 15.0804 30.1608C15.0804 31.1393 14.2847 31.935 13.3062 31.935H11.532Z" fill="#047BDC"></path><path d="M52.34 24.8398C51.185 24.8398 50.2092 25.5841 49.8419 26.614H33.7109V28.3882H49.8419C50.2092 29.4181 51.185 30.1624 52.34 30.1624C53.8072 30.1624 55.0013 28.9684 55.0013 27.5011C55.0013 26.0339 53.8072 24.8398 52.34 24.8398ZM52.34 28.3882C51.8512 28.3882 51.4529 27.9908 51.4529 27.5011C51.4529 27.0115 51.8512 26.614 52.34 26.614C52.8288 26.614 53.2271 27.0115 53.2271 27.5011C53.2271 27.9908 52.8288 28.3882 52.34 28.3882Z" fill="#047BDC"></path><path d="M46.129 31.9355C44.974 31.9355 43.9982 32.6798 43.631 33.7097H39.3995L35.8511 30.1613H28.3871V31.9355H35.1166L38.665 35.4839H43.631C43.8989 36.2352 44.4906 36.8269 45.2419 37.0948V52.3387C45.2419 52.8284 44.8436 53.2258 44.3548 53.2258H8.87097C8.38218 53.2258 7.98387 52.8284 7.98387 52.3387V38.2481C8.01403 38.2312 8.04685 38.2206 8.07702 38.2028C8.31919 38.0582 8.62258 38.0369 8.90734 38.1567C9.16992 38.2658 9.36774 38.4947 9.44226 38.7856C9.74387 39.9752 10.8128 40.8064 12.0406 40.8064H14.5723C15.8001 40.8064 16.869 39.9752 17.1769 38.7661C17.246 38.4938 17.4439 38.2658 17.7251 38.1496C17.9903 38.0369 18.2937 38.0573 18.5545 38.2126C19.611 38.8406 20.9532 38.6721 21.8217 37.8036L23.6119 36.0135C24.4803 35.145 24.648 33.8019 24.0102 32.7285C23.8656 32.4864 23.8452 32.1821 23.9649 31.8982C24.074 31.6356 24.302 31.4378 24.5939 31.3633C25.7817 31.0617 26.6129 29.9936 26.6129 28.7659V28.3871H28.3871V26.6129H26.6129V26.2341C26.6129 25.0064 25.7817 23.9383 24.5717 23.6296C24.3002 23.5604 24.0723 23.3626 23.956 23.0831C23.8443 22.817 23.8638 22.5127 24.019 22.2519C24.6471 21.1972 24.4785 19.8532 23.611 18.9848L21.8208 17.1946C20.9541 16.3261 19.6102 16.1585 18.5368 16.7954C18.2928 16.94 17.9877 16.9613 17.7056 16.8424C17.443 16.7333 17.2452 16.5053 17.1706 16.2135C16.869 15.0248 15.8001 14.1935 14.5723 14.1935H12.0406C10.8128 14.1935 9.74476 15.0248 9.43605 16.2348C9.36685 16.5071 9.16903 16.7342 8.8896 16.8504C8.62435 16.9613 8.32008 16.9418 8.05839 16.7874C8.03444 16.7732 8.00782 16.7644 7.98387 16.751V2.66129C7.98387 2.17161 8.38218 1.77419 8.87097 1.77419H36.371V7.98387C36.371 9.45113 37.565 10.6452 39.0323 10.6452H45.2419V17.9052C44.4906 18.1731 43.8989 18.7648 43.631 19.5161H38.665L35.1166 23.0645H28.3871V24.8387H35.8511L39.3995 21.2903H43.631C43.9982 22.3202 44.974 23.0645 46.129 23.0645C47.5963 23.0645 48.7903 21.8705 48.7903 20.4032C48.7903 19.2482 48.046 18.2724 47.0161 17.9052V10.4926C47.0161 9.78202 46.7394 9.11314 46.2364 8.61105L38.4051 0.779758C37.903 0.277661 37.2341 0 36.5227 0H8.87097C7.40371 0 6.20968 1.19403 6.20968 2.66129V16.461C5.68718 16.5559 5.18863 16.799 4.7921 17.1964L3.00194 18.9865C2.13347 19.855 1.96581 21.1981 2.60363 22.2715C2.74823 22.5136 2.76863 22.8179 2.64887 23.1018C2.53976 23.3644 2.31177 23.5622 2.01992 23.6367C0.83121 23.9383 0 25.0064 0 26.2341V28.7659C0 29.9936 0.83121 31.0617 2.04121 31.3704C2.31266 31.4396 2.54065 31.6374 2.65685 31.9169C2.76863 32.183 2.74911 32.4873 2.59387 32.7481C1.96581 33.8028 2.13435 35.1468 3.00194 36.0152L4.7921 37.8054C5.18863 38.2002 5.68629 38.4432 6.20968 38.5373V52.3387C6.20968 53.806 7.40371 55 8.87097 55H44.3548C45.8221 55 47.0161 53.806 47.0161 52.3387V37.0948C48.046 36.7276 48.7903 35.7518 48.7903 34.5968C48.7903 33.1295 47.5963 31.9355 46.129 31.9355ZM46.129 19.5161C46.6178 19.5161 47.0161 19.9135 47.0161 20.4032C47.0161 20.8929 46.6178 21.2903 46.129 21.2903C45.6402 21.2903 45.2419 20.8929 45.2419 20.4032C45.2419 19.9135 45.6402 19.5161 46.129 19.5161ZM38.1452 3.02855L43.9876 8.87097H39.0323C38.5435 8.87097 38.1452 8.47355 38.1452 7.98387V3.02855ZM6.04645 36.5493L4.25629 34.7591C3.96266 34.4655 3.90589 34.0104 4.12855 33.636C4.55968 32.9113 4.62089 32.0118 4.28645 31.2143C3.96355 30.4407 3.28669 29.8561 2.45815 29.645C2.0554 29.543 1.77419 29.181 1.77419 28.7659V26.2341C1.77419 25.819 2.0554 25.457 2.47766 25.3488C3.28758 25.1439 3.96355 24.5584 4.29355 23.7698C4.62177 22.9873 4.55968 22.0878 4.11879 21.3471C3.90677 20.9896 3.96355 20.5345 4.25718 20.2409L6.04734 18.4507C6.34097 18.1562 6.79516 18.0994 7.17129 18.323C7.89516 18.7515 8.79468 18.8144 9.59218 18.4809C10.3666 18.1571 10.9512 17.4802 11.1623 16.6508C11.2635 16.249 11.6245 15.9677 12.0406 15.9677H14.5723C14.9875 15.9677 15.3494 16.249 15.4568 16.6712C15.6617 17.4802 16.2472 18.1571 17.0367 18.4862C17.8182 18.8162 18.7177 18.7532 19.4602 18.3123C19.8177 18.1012 20.2728 18.158 20.5665 18.4507L22.3566 20.2409C22.6502 20.5345 22.707 20.9896 22.4844 21.364C22.0532 22.0887 21.992 22.9882 22.3265 23.7857C22.6494 24.5593 23.3262 25.1439 24.1548 25.355C24.5575 25.457 24.8387 25.819 24.8387 26.2341V28.7659C24.8387 29.181 24.5575 29.543 24.1352 29.6512C23.3253 29.8561 22.6494 30.4416 22.3194 31.2302C21.9911 32.0127 22.0532 32.9122 22.4941 33.6529C22.7061 34.0104 22.6494 34.4655 22.3557 34.7591L20.5656 36.5493C20.2702 36.8429 19.8169 36.9006 19.4425 36.6779C18.7169 36.245 17.8165 36.1856 17.0216 36.5191C16.2481 36.8429 15.6626 37.5189 15.4515 38.3492C15.3494 38.751 14.9875 39.0323 14.5723 39.0323H12.0406C11.6254 39.0323 11.2635 38.751 11.1561 38.3279C10.9503 37.5189 10.3648 36.8429 9.5771 36.5138C9.24532 36.3745 8.89314 36.3053 8.54008 36.3053C8.06016 36.3053 7.58024 36.434 7.15266 36.6885C6.79605 36.8997 6.34008 36.8429 6.04645 36.5493ZM46.129 35.4839C45.6402 35.4839 45.2419 35.0865 45.2419 34.5968C45.2419 34.1071 45.6402 33.7097 46.129 33.7097C46.6178 33.7097 47.0161 34.1071 47.0161 34.5968C47.0161 35.0865 46.6178 35.4839 46.129 35.4839Z" fill="#047BDC"></path><path d="M30.1602 26.6133H31.9343V28.3875H30.1602V26.6133Z" fill="#047BDC"></path><path d="M22.1772 12.4178V3.54688H9.75781V12.4178H22.1772ZM11.532 5.32107H20.403V10.6437H11.532V5.32107Z" fill="#047BDC"></path><path d="M23.9492 3.54688H25.7234V5.32107H23.9492V3.54688Z" fill="#047BDC"></path><path d="M27.5 3.54688H34.5968V5.32107H27.5V3.54688Z" fill="#047BDC"></path><path d="M23.9492 7.09766H34.5944V8.87185H23.9492V7.09766Z" fill="#047BDC"></path><path d="M23.9492 10.6445H34.5944V12.4187H23.9492V10.6445Z" fill="#047BDC"></path><path d="M26.6105 19.514C28.0778 19.514 29.2718 18.32 29.2718 16.8527C29.2718 15.3854 28.0778 14.1914 26.6105 14.1914C25.1433 14.1914 23.9492 15.3854 23.9492 16.8527C23.9492 18.32 25.1433 19.514 26.6105 19.514ZM26.6105 15.9656C27.0993 15.9656 27.4976 16.363 27.4976 16.8527C27.4976 17.3424 27.0993 17.7398 26.6105 17.7398C26.1217 17.7398 25.7234 17.3424 25.7234 16.8527C25.7234 16.363 26.1217 15.9656 26.6105 15.9656Z" fill="#047BDC"></path><path d="M31.0508 16.8527C31.0508 18.32 32.2448 19.514 33.7121 19.514C35.1793 19.514 36.3734 18.32 36.3734 16.8527C36.3734 15.3854 35.1793 14.1914 33.7121 14.1914C32.2448 14.1914 31.0508 15.3854 31.0508 16.8527ZM34.5992 16.8527C34.5992 17.3424 34.2009 17.7398 33.7121 17.7398C33.2233 17.7398 32.825 17.3424 32.825 16.8527C32.825 16.363 33.2233 15.9656 33.7121 15.9656C34.2009 15.9656 34.5992 16.363 34.5992 16.8527Z" fill="#047BDC"></path><path d="M22.4389 40.1797L13.308 49.3106L11.2739 47.2765L10.0195 48.5308L13.308 51.8193L23.6932 41.434L22.4389 40.1797Z" fill="#047BDC"></path><path d="M23.0658 49.3106L21.0317 47.2765L19.7773 48.5308L23.0658 51.8193L33.4511 41.434L32.1967 40.1797L23.0658 49.3106Z" fill="#047BDC"></path><path d="M29.5352 48.5308L32.8236 51.8193L43.2089 41.434L41.9545 40.1797L32.8236 49.3106L30.7895 47.2765L29.5352 48.5308Z" fill="#047BDC"></path></svg>