<svg xmlns="http://www.w3.org/2000/svg" width="46" height="54" viewBox="0 0 46 54" fill="none"><path d="M33.2084 25.9004C32.7782 25.9004 32.4295 26.2491 32.4295 26.6793V49.3343C32.4295 50.4975 31.4832 51.4437 30.32 51.4437H9.36488C8.93467 51.4437 8.58594 51.7925 8.58594 52.2227C8.58594 52.6529 8.93467 53.0016 9.36488 53.0016H30.32C32.3422 53.0016 33.9873 51.3564 33.9873 49.3344V26.6793C33.9873 26.2491 33.6385 25.9004 33.2084 25.9004Z" fill="#047BDC"></path><path d="M17.5018 27.6106C17.932 27.6106 18.2807 27.2619 18.2807 26.8317C18.2807 26.4015 17.932 26.0527 17.5018 26.0527H13.4782C13.048 26.0527 12.6992 26.4015 12.6992 26.8317C12.6992 27.2619 13.048 27.6106 13.4782 27.6106H17.5018Z" fill="#047BDC"></path><path d="M25.7361 42.8535H21.7125C21.2823 42.8535 20.9336 43.2022 20.9336 43.6325C20.9336 44.0627 21.2823 44.4114 21.7125 44.4114H25.7361C26.1663 44.4114 26.5151 44.0627 26.5151 43.6325C26.515 43.2021 26.1662 42.8535 25.7361 42.8535Z" fill="#047BDC"></path><path d="M4.91016 31.0328C4.91016 31.4631 5.25889 31.8118 5.6891 31.8118H25.7372C26.1675 31.8118 26.5162 31.4631 26.5162 31.0328C26.5162 30.6026 26.1675 30.2539 25.7372 30.2539H5.68899C5.25889 30.2539 4.91016 30.6026 4.91016 31.0328Z" fill="#047BDC"></path><path d="M5.6891 36.0091H25.7374C26.1676 36.0091 26.5163 35.6603 26.5163 35.2301C26.5163 34.7999 26.1676 34.4512 25.7374 34.4512H5.6891C5.25889 34.4512 4.91016 34.7999 4.91016 35.2301C4.91016 35.6603 5.25899 36.0091 5.6891 36.0091Z" fill="#047BDC"></path><path d="M5.6891 40.2102H25.7374C26.1676 40.2102 26.5163 39.8615 26.5163 39.4313C26.5163 39.0011 26.1676 38.6523 25.7374 38.6523H5.6891C5.25889 38.6523 4.91016 39.0011 4.91016 39.4313C4.91026 39.8615 5.25899 40.2102 5.6891 40.2102Z" fill="#047BDC"></path><path d="M41.8637 3.62402C41.0791 2.87842 40.2035 2.23065 39.2611 1.69917C38.8865 1.48776 38.4114 1.62029 38.2 1.99486C37.9886 2.36954 38.121 2.84455 38.4957 3.05596C39.3265 3.52462 40.0986 4.09559 40.7904 4.75325C40.9692 4.92319 41.1413 5.09917 41.3081 5.27953L37.4478 7.24907C36.9335 7.51153 36.3153 7.44141 35.8729 7.07059L34.2651 5.72307L34.2417 3.91086C34.2362 3.48408 33.8886 3.14202 33.4631 3.14202C33.4596 3.14202 33.4562 3.14202 33.4528 3.14213C33.0226 3.14765 32.6785 3.50086 32.684 3.93097L32.7048 5.53323L30.7151 6.20267C30.3073 6.33989 30.0881 6.78156 30.2252 7.18927C30.3623 7.46183 30.6841 7.84182 31.2118 7.67918L33.3253 6.96807L34.8723 8.26463C35.4237 8.72673 36.1058 8.9647 36.7944 8.9647C37.2579 8.9647 37.7244 8.85686 38.1558 8.63681L38.8818 8.26641L39.107 9.5538C39.2715 10.4735 40.7414 10.3443 40.6415 9.28541L40.3337 7.5256L42.3061 6.51931C43.6554 8.45583 44.4024 10.7844 44.4024 13.1695V15.5652L42.7811 13.9461L43.1723 12.1702C43.2649 11.7501 42.9994 11.3345 42.5793 11.2419C42.159 11.1492 41.7435 11.4149 41.651 11.835L41.3025 13.4169L39.8676 13.418C39.4373 13.4183 39.0889 13.7672 39.0892 14.1974C39.0896 14.6274 39.4382 14.9759 39.8682 14.9759H39.8687L41.6065 14.9746L44.0383 17.403C43.3654 18.9393 41.8311 20.0159 40.0494 20.0159H27.4152C26.0475 20.0159 24.847 19.0941 24.4959 17.7742C24.3337 17.1649 23.8941 16.6624 23.3197 16.43L19.0421 14.6986C17.3366 14.0083 16.2345 12.3734 16.2345 10.5333C16.2345 9.10234 16.9248 7.74482 18.0812 6.9019L22.3565 3.78583C23.5646 2.90519 24.9065 2.27733 26.3249 1.91672C26.3246 1.92224 26.3262 1.92777 26.3248 1.93329L25.4287 5.45311L24.2127 5.93771C23.8131 6.09691 23.6182 6.54994 23.7775 6.94962C24.006 7.24865 24.1653 7.55988 24.7894 7.38483L25.8651 6.95619L26.92 8.1494C27.2048 8.36445 27.4581 8.57929 28.0195 8.21681C28.3418 7.93184 28.372 7.43964 28.0871 7.11727L26.9422 5.82258L27.8345 2.31765C27.8923 2.09072 27.8998 1.85806 27.8613 1.63405C28.3016 1.58383 28.7469 1.55767 29.196 1.55767H32.7907C33.5366 1.55767 34.2861 1.63019 35.018 1.77325C35.4403 1.85639 35.8494 1.58049 35.9319 1.1582C36.0144 0.736118 35.739 0.326851 35.3169 0.244435C34.4867 0.0822077 33.6368 0 32.7907 0H29.196C26.3892 0 23.7069 0.87386 21.4389 2.52708L17.1635 5.64316C16.7341 5.95625 16.3543 6.32343 16.0267 6.72947H12.3358C12.1716 6.7427 11.9931 6.75853 11.785 6.95754L0.228133 18.5144C0.132797 18.6173 -0.00317347 18.8049 5.64941e-05 19.0653V49.3326C5.64941e-05 51.3548 1.64525 52.9999 3.66731 52.9999H5.4813C5.91151 52.9999 6.26024 52.6512 6.26024 52.221C6.26024 51.7907 5.91151 51.442 5.4813 51.442H3.66731C2.50411 51.442 1.55784 50.4957 1.55784 49.3325V19.8442H9.80663C11.6307 19.8442 13.1147 18.3602 13.1147 16.5361V8.28735H15.1139C14.8306 8.99419 14.6766 9.75521 14.6766 10.5334C14.6766 13.0113 16.1607 15.2131 18.4576 16.1427L22.7352 17.8741C22.8598 17.9246 22.9529 18.0341 22.9903 18.1748C23.5228 20.176 25.3423 21.5737 27.4151 21.5737H32.4805L33.7151 23.3878C33.7608 23.4549 33.8167 23.5146 33.8809 23.5645L35.9955 25.2087C36.3402 25.4593 36.9302 25.6222 37.5099 25.2565C37.9732 24.9412 38.1786 24.368 38.021 23.8301L37.3594 21.5737H40.0492C43.3084 21.5737 45.96 18.9221 45.96 15.6629V13.1695C45.9602 9.57777 44.467 6.09848 41.8637 3.62402ZM11.557 16.5361C11.557 17.5013 10.7718 18.2864 9.80663 18.2864H2.65936L11.557 9.38887V16.5361ZM35.8071 21.8159L36.2904 23.4647L34.9341 22.4101L34.365 21.5738H35.6423L35.8071 21.8159Z" fill="#047BDC"></path><path d="M22.1675 8.96254C22.1675 8.53233 21.8187 8.18359 21.3885 8.18359C20.9583 8.18359 20.6096 8.53233 20.6096 8.96254V9.69542C20.6096 10.1449 20.4345 10.5675 20.1168 10.8853L19.1501 11.852C18.8458 12.1562 18.8458 12.6494 19.1501 12.9536C19.3936 13.1783 19.8472 13.3068 20.2516 12.9536L21.2183 11.9869C21.3103 11.8949 21.3953 11.7978 21.4747 11.6972L23.0725 12.7262C23.3216 12.8876 23.8039 12.9285 24.1491 12.493C24.382 12.1313 24.2777 11.6493 23.916 11.4164L22.1181 10.2584C22.1502 10.0742 22.1675 9.8862 22.1675 9.69532V8.96254Z" fill="#047BDC"></path><path d="M33.0309 9.86914C32.6007 9.86914 32.252 10.2179 32.252 10.6481V11.6697L30.4689 11.6059C30.2188 11.5968 29.9712 11.6149 29.7293 11.6571L27.6057 10.3787C27.237 10.1567 26.7585 10.2758 26.5366 10.6443C26.3148 11.0129 26.4337 11.4915 26.8022 11.7134L28.0353 12.4557L26.144 14.0716C25.817 14.3511 25.7784 14.8428 26.0578 15.1698C26.3373 15.497 26.829 15.5353 27.156 15.256L29.049 13.6386C29.4291 13.3138 29.9138 13.1459 30.4132 13.1627L32.3184 13.2308C32.4421 13.2353 32.56 13.291 32.6417 13.384L34.2586 15.2225L33.5459 16.9103C33.3786 17.3066 33.5642 17.7635 33.9605 17.9308C34.2422 18.0409 34.7433 17.9957 34.981 17.5162L35.6312 15.9761L37.2825 16.3421C37.6082 16.4152 38.0604 16.2362 38.2115 15.7502C38.3046 15.3302 38.0395 14.9142 37.6195 14.8212L35.583 14.3697L33.8112 12.3551C33.8107 12.3544 33.81 12.3539 33.8094 12.3533V10.648C33.8099 10.2179 33.4611 9.86914 33.0309 9.86914Z" fill="#047BDC"></path></svg>