<svg xmlns="http://www.w3.org/2000/svg" width="81" height="83" viewBox="0 0 81 83" fill="none"><path d="M47.2498 71.5494H44.5498V58.3195C44.5498 57.9615 44.4075 57.6181 44.1544 57.3649C43.9012 57.1118 43.5578 56.9695 43.1998 56.9695C42.8417 56.9695 42.4984 57.1118 42.2452 57.3649C41.992 57.6181 41.8498 57.9615 41.8498 58.3195V71.5494H6.74996V44.5496H17.9819C18.3399 44.5496 18.6833 44.4074 18.9365 44.1542C19.1897 43.901 19.3319 43.5576 19.3319 43.1996C19.3319 42.8416 19.1897 42.4982 18.9365 42.245C18.6833 41.9918 18.3399 41.8496 17.9819 41.8496H5.39997C5.04193 41.8496 4.69856 41.9918 4.44538 42.245C4.19221 42.4982 4.04998 42.8416 4.04998 43.1996V71.5494H1.34999C0.991952 71.5494 0.648576 71.6917 0.395404 71.9449C0.142231 72.198 0 72.5414 0 72.8994V75.5994C0 77.3896 0.711155 79.1065 1.97702 80.3724C3.24288 81.6382 4.95976 82.3494 6.74996 82.3494H41.8498C43.64 82.3494 45.3569 81.6382 46.6227 80.3724C47.8886 79.1065 48.5997 77.3896 48.5997 75.5994V72.8994C48.5997 72.5414 48.4575 72.198 48.2043 71.9449C47.9512 71.6917 47.6078 71.5494 47.2498 71.5494ZM45.8998 75.5994C45.8998 76.6735 45.4731 77.7037 44.7135 78.4632C43.954 79.2227 42.9239 79.6494 41.8498 79.6494H39.1498V78.2994C39.1498 77.9414 39.0076 77.598 38.7544 77.3448C38.5012 77.0917 38.1578 76.9494 37.7998 76.9494C37.4418 76.9494 37.0984 77.0917 36.8452 77.3448C36.592 77.598 36.4498 77.9414 36.4498 78.2994V79.6494H12.1499V78.2994C12.1499 77.9414 12.0077 77.598 11.7545 77.3448C11.5014 77.0917 11.158 76.9494 10.7999 76.9494C10.4419 76.9494 10.0985 77.0917 9.84535 77.3448C9.59218 77.598 9.44995 77.9414 9.44995 78.2994V79.6494H6.74996C5.67584 79.6494 4.64572 79.2227 3.8862 78.4632C3.12668 77.7037 2.69999 76.6735 2.69999 75.5994V74.2494H45.8998V75.5994Z" fill="#048DEF"></path><path d="M70.1992 9.44803H72.8992C73.2572 9.44803 73.6006 9.3058 73.8538 9.05263C74.1069 8.79946 74.2492 8.45608 74.2492 8.09804C74.2492 7.74 74.1069 7.39662 73.8538 7.14345C73.6006 6.89028 73.2572 6.74805 72.8992 6.74805H70.1992C69.1251 6.74805 68.0949 7.17474 67.3354 7.93426C66.5759 8.69378 66.1492 9.7239 66.1492 10.798V12.148H64.7992C64.4412 12.148 64.0978 12.2902 63.8446 12.5434C63.5914 12.7966 63.4492 13.14 63.4492 13.498C63.4492 13.8561 63.5914 14.1994 63.8446 14.4526C64.0978 14.7058 64.4412 14.848 64.7992 14.848H66.1492V18.898C66.1492 19.256 66.2914 19.5994 66.5446 19.8526C66.7978 20.1057 67.1412 20.248 67.4992 20.248C67.8572 20.248 68.2006 20.1057 68.4538 19.8526C68.707 19.5994 68.8492 19.256 68.8492 18.898V14.848H70.1992C70.5572 14.848 70.9006 14.7058 71.1538 14.4526C71.4069 14.1994 71.5492 13.8561 71.5492 13.498C71.5492 13.14 71.4069 12.7966 71.1538 12.5434C70.9006 12.2902 70.5572 12.148 70.1992 12.148H68.8492V10.798C68.8492 10.44 68.9914 10.0966 69.2446 9.84344C69.4978 9.59026 69.8411 9.44803 70.1992 9.44803Z" fill="#048DEF"></path><path d="M76.9501 1.34961H60.7502C59.6761 1.34961 58.6459 1.7763 57.8864 2.53582C57.1269 3.29534 56.7002 4.32547 56.7002 5.39959V8.09957C56.7002 8.45761 56.8424 8.80099 57.0956 9.05416C57.3488 9.30734 57.6921 9.44957 58.0502 9.44957C58.4082 9.44957 58.7516 9.30734 59.0048 9.05416C59.258 8.80099 59.4002 8.45761 59.4002 8.09957V5.39959C59.4002 5.04155 59.5424 4.69817 59.7956 4.445C60.0488 4.19183 60.3921 4.0496 60.7502 4.0496H76.9501C77.3081 4.0496 77.6515 4.19183 77.9047 4.445C78.1579 4.69817 78.3001 5.04155 78.3001 5.39959V21.5995C78.3001 21.9575 78.1579 22.3009 77.9047 22.5541C77.6515 22.8073 77.3081 22.9495 76.9501 22.9495H60.7502C60.3921 22.9495 60.0488 22.8073 59.7956 22.5541C59.5424 22.3009 59.4002 21.9575 59.4002 21.5995V13.4995C59.4002 13.1415 59.258 12.7981 59.0048 12.545C58.7516 12.2918 58.4082 12.1496 58.0502 12.1496C57.6921 12.1496 57.3488 12.2918 57.0956 12.545C56.8424 12.7981 56.7002 13.1415 56.7002 13.4995V21.5995C56.7002 22.6736 57.1269 23.7038 57.8864 24.4633C58.6459 25.2228 59.6761 25.6495 60.7502 25.6495H76.9501C78.0242 25.6495 79.0543 25.2228 79.8139 24.4633C80.5734 23.7038 81.0001 22.6736 81.0001 21.5995V5.39959C81.0001 4.32547 80.5734 3.29534 79.8139 2.53582C79.0543 1.7763 78.0242 1.34961 76.9501 1.34961Z" fill="#048DEF"></path><path d="M63.4492 55.3492C63.4492 56.4172 63.7659 57.4612 64.3593 58.3493C64.9526 59.2373 65.796 59.9294 66.7827 60.3381C67.7694 60.7468 68.8552 60.8538 69.9027 60.6454C70.9502 60.437 71.9123 59.9227 72.6675 59.1675C73.4227 58.4123 73.937 57.4502 74.1454 56.4027C74.3538 55.3552 74.2468 54.2694 73.8381 53.2827C73.4294 52.296 72.7373 51.4526 71.8493 50.8593C70.9612 50.2659 69.9172 49.9492 68.8492 49.9492C67.417 49.9492 66.0435 50.5181 65.0308 51.5308C64.0181 52.5435 63.4492 53.917 63.4492 55.3492ZM71.5492 55.3492C71.5492 55.8832 71.3908 56.4052 71.0941 56.8492C70.7975 57.2932 70.3758 57.6393 69.8824 57.8437C69.3891 58.048 68.8462 58.1015 68.3224 57.9973C67.7987 57.8931 67.3176 57.636 66.94 57.2584C66.5624 56.8808 66.3053 56.3997 66.2011 55.8759C66.0969 55.3522 66.1504 54.8093 66.3547 54.316C66.5591 53.8226 66.9051 53.4009 67.3492 53.1042C67.7932 52.8076 68.3152 52.6492 68.8492 52.6492C69.5653 52.6492 70.252 52.9337 70.7584 53.44C71.2647 53.9464 71.5492 54.6331 71.5492 55.3492Z" fill="#048DEF"></path><path d="M76.9501 43.1992H60.7502C59.6761 43.1992 58.6459 43.6259 57.8864 44.3854C57.1269 45.145 56.7002 46.1751 56.7002 47.2492V63.4491C56.7002 64.5232 57.1269 65.5534 57.8864 66.3129C58.6459 67.0724 59.6761 67.4991 60.7502 67.4991H76.9501C78.0242 67.4991 79.0543 67.0724 79.8139 66.3129C80.5734 65.5534 81.0001 64.5232 81.0001 63.4491V60.7491C81.0001 60.3911 80.8578 60.0477 80.6047 59.7945C80.3515 59.5414 80.0081 59.3991 79.6501 59.3991C79.292 59.3991 78.9487 59.5414 78.6955 59.7945C78.4423 60.0477 78.3001 60.3911 78.3001 60.7491V63.4491C78.3001 63.8072 78.1579 64.1505 77.9047 64.4037C77.6515 64.6569 77.3081 64.7991 76.9501 64.7991H60.7502C60.3921 64.7991 60.0488 64.6569 59.7956 64.4037C59.5424 64.1505 59.4002 63.8072 59.4002 63.4491V47.2492C59.4002 46.8912 59.5424 46.5478 59.7956 46.2946C60.0488 46.0414 60.3921 45.8992 60.7502 45.8992H76.9501C77.3081 45.8992 77.6515 46.0414 77.9047 46.2946C78.1579 46.5478 78.3001 46.8912 78.3001 47.2492V55.3492C78.3001 55.7072 78.4423 56.0506 78.6955 56.3037C78.9487 56.5569 79.292 56.6991 79.6501 56.6991C80.0081 56.6991 80.3515 56.5569 80.6047 56.3037C80.8578 56.0506 81.0001 55.7072 81.0001 55.3492V47.2492C81.0001 46.1751 80.5734 45.145 79.8139 44.3854C79.0543 43.6259 78.0242 43.1992 76.9501 43.1992Z" fill="#048DEF"></path><path d="M30.3347 17.3492C30.5495 17.4824 30.7974 17.5525 31.0502 17.5517C31.2615 17.5505 31.4696 17.4996 31.6577 17.4032L39.7576 13.3532C39.9788 13.24 40.1644 13.0678 40.2939 12.8558C40.4235 12.6438 40.4921 12.4002 40.4921 12.1517C40.4921 11.9033 40.4235 11.6596 40.2939 11.4477C40.1644 11.2357 39.9788 11.0635 39.7576 10.9503L31.6577 6.90027C31.4522 6.79672 31.2236 6.74741 30.9937 6.75704C30.7638 6.76667 30.5401 6.83492 30.344 6.9553C30.1479 7.07569 29.9858 7.24421 29.8731 7.44486C29.7604 7.64551 29.7009 7.87164 29.7002 8.10177V16.2017C29.6997 16.4311 29.7578 16.6569 29.8688 16.8577C29.9798 17.0585 30.1401 17.2276 30.3347 17.3492ZM32.4002 10.2888L36.1262 12.1517L32.4002 14.0147V10.2888Z" fill="#048DEF"></path><path d="M33.7495 24.2999C36.1526 24.2999 38.5016 23.5873 40.4997 22.2522C42.4977 20.9172 44.055 19.0196 44.9746 16.7995C45.8942 14.5794 46.1348 12.1365 45.666 9.7796C45.1972 7.42275 44.04 5.25784 42.3408 3.55864C40.6416 1.85944 38.4767 0.702271 36.1199 0.233463C33.763 -0.235345 31.3201 0.00526432 29.1 0.924864C26.8799 1.84446 24.9823 3.40175 23.6472 5.3998C22.3122 7.39784 21.5996 9.74691 21.5996 12.1499C21.5996 15.3723 22.8797 18.4627 25.1582 20.7412C27.4368 23.0198 30.5272 24.2999 33.7495 24.2999ZM33.7495 2.69999C35.6186 2.69999 37.4456 3.25422 38.9997 4.29259C40.5537 5.33097 41.7649 6.80685 42.4802 8.5336C43.1954 10.2604 43.3825 12.1604 43.0179 13.9935C42.6533 15.8266 41.7533 17.5105 40.4317 18.8321C39.1101 20.1537 37.4262 21.0537 35.5931 21.4183C33.76 21.7829 31.86 21.5958 30.1332 20.8806C28.4065 20.1653 26.9306 18.9541 25.8922 17.4C24.8538 15.846 24.2996 14.019 24.2996 12.1499C24.2996 9.64366 25.2952 7.24003 27.0674 5.46782C28.8396 3.69561 31.2433 2.69999 33.7495 2.69999Z" fill="#048DEF"></path><path d="M47.2494 29.6996C47.459 29.6996 47.6657 29.6508 47.8531 29.557C48.0406 29.4633 48.2037 29.3272 48.3294 29.1596L52.3794 23.7596C52.5942 23.4732 52.6864 23.1131 52.6358 22.7587C52.5852 22.4042 52.3958 22.0844 52.1094 21.8696C51.823 21.6548 51.4629 21.5625 51.1085 21.6132C50.754 21.6638 50.4342 21.8532 50.2194 22.1396L46.1694 27.5396C45.9546 27.826 45.8624 28.1861 45.913 28.5405C45.9636 28.8949 46.153 29.2147 46.4394 29.4296C46.6731 29.6048 46.9573 29.6996 47.2494 29.6996Z" fill="#048DEF"></path><path d="M50.2202 34.5596C50.3459 34.7272 50.509 34.8633 50.6965 34.9571C50.8839 35.0508 51.0906 35.0996 51.3002 35.0996C51.5923 35.0996 51.8765 35.0048 52.1102 34.8296L57.5102 30.7796C57.7966 30.5648 57.986 30.245 58.0366 29.8905C58.0872 29.5361 57.995 29.176 57.7802 28.8896C57.5653 28.6032 57.2455 28.4138 56.8911 28.3632C56.5366 28.3125 56.1766 28.4048 55.8902 28.6196L50.4902 32.6696C50.2038 32.8844 50.0144 33.2042 49.9638 33.5587C49.9131 33.9131 50.0054 34.2732 50.2202 34.5596Z" fill="#048DEF"></path><path d="M63.4491 37.5317C63.417 37.3527 63.3491 37.1821 63.2494 37.03C63.1498 36.8779 63.0204 36.7475 62.8691 36.6467C62.7178 36.5458 62.5477 36.4765 62.369 36.443C62.1903 36.4095 62.0067 36.4125 61.8291 36.4517L55.0791 37.8017C54.9019 37.8194 54.7298 37.8719 54.5728 37.9561C54.4158 38.0403 54.2769 38.1547 54.1641 38.2926C53.9362 38.571 53.8284 38.9286 53.8642 39.2867C53.9 39.6447 54.0765 39.9739 54.355 40.2017C54.6335 40.4296 54.9911 40.5375 55.3491 40.5017H55.6191L62.3691 39.1517C62.5481 39.1196 62.7187 39.0517 62.8708 38.952C63.0229 38.8524 63.1533 38.723 63.2542 38.5717C63.355 38.4204 63.4243 38.2503 63.4578 38.0716C63.4913 37.8929 63.4883 37.7092 63.4491 37.5317Z" fill="#048DEF"></path><path d="M1.34999 37.8018H17.5499C17.9079 37.8018 18.2513 37.6596 18.5045 37.4064C18.7577 37.1532 18.8999 36.8099 18.8999 36.4518V14.8519C18.8999 14.4939 18.7577 14.1505 18.5045 13.8974C18.2513 13.6442 17.9079 13.502 17.5499 13.502H1.34999C0.991952 13.502 0.648576 13.6442 0.395404 13.8974C0.142231 14.1505 0 14.4939 0 14.8519V36.4518C0 36.8099 0.142231 37.1532 0.395404 37.4064C0.648576 37.6596 0.991952 37.8018 1.34999 37.8018ZM2.69999 16.2019H16.1999V35.1018H2.69999V16.2019Z" fill="#048DEF"></path><path d="M12.1506 18.9004H9.45058C9.09254 18.9004 8.74916 19.0426 8.49599 19.2958C8.24282 19.549 8.10059 19.8923 8.10059 20.2504C8.10059 20.6084 8.24282 20.9518 8.49599 21.205C8.74916 21.4581 9.09254 21.6004 9.45058 21.6004H12.1506C12.5086 21.6004 12.852 21.4581 13.1052 21.205C13.3583 20.9518 13.5006 20.6084 13.5006 20.2504C13.5006 19.8923 13.3583 19.549 13.1052 19.2958C12.852 19.0426 12.5086 18.9004 12.1506 18.9004Z" fill="#048DEF"></path><path d="M12.1504 24.2988H6.75038C6.39234 24.2988 6.04897 24.4411 5.79579 24.6942C5.54262 24.9474 5.40039 25.2908 5.40039 25.6488C5.40039 26.0069 5.54262 26.3502 5.79579 26.6034C6.04897 26.8566 6.39234 26.9988 6.75038 26.9988H12.1504C12.5084 26.9988 12.8518 26.8566 13.1049 26.6034C13.3581 26.3502 13.5003 26.0069 13.5003 25.6488C13.5003 25.2908 13.3581 24.9474 13.1049 24.6942C12.8518 24.4411 12.5084 24.2988 12.1504 24.2988Z" fill="#048DEF"></path><path d="M12.1504 29.6992H6.75038C6.39234 29.6992 6.04897 29.8414 5.79579 30.0946C5.54262 30.3478 5.40039 30.6912 5.40039 31.0492C5.40039 31.4073 5.54262 31.7506 5.79579 32.0038C6.04897 32.257 6.39234 32.3992 6.75038 32.3992H12.1504C12.5084 32.3992 12.8518 32.257 13.1049 32.0038C13.3581 31.7506 13.5003 31.4073 13.5003 31.0492C13.5003 30.6912 13.3581 30.3478 13.1049 30.0946C12.8518 29.8414 12.5084 29.6992 12.1504 29.6992Z" fill="#048DEF"></path><path d="M46.0621 37.3964C45.9734 37.2422 45.8553 37.1069 45.7143 36.9983C45.5734 36.8897 45.4125 36.81 45.2408 36.7636C45.069 36.7172 44.8898 36.7051 44.7134 36.728C44.537 36.7509 44.3668 36.8083 44.2126 36.8969C44.0583 36.9855 43.9231 37.1037 43.8145 37.2446C43.7059 37.3855 43.6262 37.5465 43.5798 37.7182C43.5334 37.8899 43.5213 38.0691 43.5442 38.2455C43.567 38.422 43.6244 38.5922 43.7131 38.7464L49.6665 49.0468L28.0667 57.1468C28.0667 57.1468 28.0667 57.1468 27.9722 57.1468H27.8642L24.3542 59.1718L22.0187 60.5218C21.7112 60.6995 21.3717 60.8149 21.0196 60.8612C20.6675 60.9075 20.3097 60.8839 19.9667 60.7918C19.2777 60.6056 18.6904 60.1542 18.3332 59.5363L15.6332 54.8653C15.3156 54.2542 15.2435 53.5448 15.4317 52.8822C15.6199 52.2197 16.0542 51.6542 16.6457 51.3013L21.3167 48.6013L24.6917 54.4468C24.8106 54.6528 24.9819 54.8237 25.1881 54.9423C25.3944 55.0608 25.6283 55.1227 25.8662 55.1218C26.1036 55.1227 26.3371 55.0611 26.543 54.943C26.749 54.8249 26.9202 54.6545 27.0393 54.4491C27.1584 54.2438 27.2213 54.0106 27.2215 53.7732C27.2218 53.5357 27.1594 53.3024 27.0407 53.0968L23.5577 47.0758L40.5001 33.1034L41.0536 34.0619C41.1422 34.2162 41.2604 34.3514 41.4013 34.46C41.5422 34.5686 41.7031 34.6483 41.8749 34.6947C42.0466 34.7411 42.2258 34.7532 42.4022 34.7303C42.5787 34.7074 42.7488 34.6501 42.9031 34.5614C43.0573 34.4728 43.1926 34.3546 43.3012 34.2137C43.4097 34.0728 43.4895 33.9119 43.5359 33.7401C43.5823 33.5684 43.5943 33.3892 43.5715 33.2128C43.5486 33.0363 43.4912 32.8662 43.4026 32.7119L42.0526 30.3764C41.9536 30.2073 41.8191 30.0617 41.6582 29.9498C41.4974 29.8379 41.3141 29.7624 41.1211 29.7284C40.9271 29.6919 40.7274 29.6983 40.5361 29.7473C40.3448 29.7963 40.1667 29.8866 40.0141 30.0119L21.1142 45.5909L15.3632 48.9118C14.3312 49.513 13.5275 50.4393 13.0781 51.5459C12.6286 52.6524 12.5587 53.8768 12.8792 55.0273L11.5292 55.7968C10.8337 56.1962 10.2724 56.7932 9.9165 57.5121C9.56064 58.2309 9.42624 59.0393 9.53036 59.8346C9.63447 60.6299 9.97241 61.3764 10.5013 61.9794C11.0302 62.5824 11.7263 63.0148 12.5012 63.2218C12.8448 63.3128 13.1988 63.3582 13.5542 63.3568C14.2644 63.3538 14.9619 63.1678 15.5792 62.8168L16.9292 62.0473C17.5777 62.7172 18.3933 63.2019 19.2917 63.4513C19.753 63.5803 20.2302 63.6439 20.7092 63.6403C21.6581 63.6424 22.5903 63.3907 23.4092 62.9113L24.5837 62.2363L27.2837 66.9207C27.8202 67.8484 28.7027 68.5256 29.7376 68.804C30.7725 69.0823 31.8756 68.9391 32.8051 68.4057C33.2663 68.14 33.6705 67.786 33.9948 67.364C34.3191 66.9419 34.5569 66.4601 34.6949 65.946C34.8328 65.432 34.868 64.8958 34.7986 64.3681C34.7291 63.8404 34.5563 63.3316 34.2901 62.8708L31.8331 58.5913L52.083 50.9908C52.2667 50.9218 52.4331 50.8136 52.5706 50.6737C52.7082 50.5338 52.8136 50.3656 52.8795 50.1808C52.9452 49.9982 52.9708 49.8036 52.9545 49.6103C52.9382 49.4169 52.8804 49.2293 52.785 49.0603L46.0621 37.3964ZM14.1752 60.4678C14.0215 60.5567 13.8517 60.6143 13.6757 60.6375C13.4996 60.6607 13.3207 60.6489 13.1492 60.6028C12.8034 60.5129 12.5072 60.2896 12.3257 59.9818C12.2369 59.828 12.1792 59.6583 12.156 59.4822C12.1329 59.3062 12.1447 59.1273 12.1907 58.9558C12.2368 58.7834 12.3166 58.6219 12.4255 58.4805C12.5344 58.3392 12.6703 58.2208 12.8252 58.1323L13.9997 57.4573L15.3497 59.7928L14.1752 60.4678ZM31.9411 64.2478C32.03 64.4015 32.0877 64.5712 32.1108 64.7473C32.134 64.9234 32.1222 65.1023 32.0761 65.2737C31.9799 65.6169 31.7518 65.9081 31.4416 66.0837C31.1333 66.2609 30.7675 66.3092 30.4237 66.2182C30.08 66.1272 29.786 65.9042 29.6056 65.5977L26.9057 60.9133L29.1466 59.6308H29.2546L31.9411 64.2478Z" fill="#048DEF"></path></svg>