<svg xmlns="http://www.w3.org/2000/svg" width="87" height="87" viewBox="0 0 87 87" fill="none"><path d="M75.9252 53.9953C77.0217 50.6108 77.5786 47.081 77.5786 43.4841C77.5786 39.9004 77.0257 36.3832 75.9358 33.0093C78.3326 32.1093 80.5118 30.6682 82.3212 28.752C85.4481 25.4418 87.0982 21.1115 86.9681 16.5601C86.6986 7.16327 78.8358 -0.260857 69.4376 0.00730134C64.8856 0.137398 60.6575 2.03243 57.5305 5.34325C55.9514 7.01525 54.75 8.94745 53.9635 11.037C50.5889 9.94773 47.0717 9.39482 43.4867 9.39482C39.8998 9.39482 36.3799 9.94906 33.0033 11.0396C30.568 4.59519 24.3353 0 17.0486 0C7.64781 0 0 7.64781 0 17.0479C0 24.334 4.59586 30.566 11.0403 33.0007C9.94906 36.3779 9.39548 39.8978 9.39548 43.4841C9.39548 47.081 9.95238 50.6108 11.0489 53.9953C4.59984 56.428 0 62.6627 0 69.9521C0 72.5181 0.556229 74.9853 1.65342 77.2846C1.95676 77.9198 2.71742 78.1893 3.35264 77.8859C3.98719 77.5826 4.25668 76.8219 3.954 76.1867C3.02142 74.2326 2.54883 72.1352 2.54883 69.9521C2.54883 61.9578 9.05365 55.4536 17.0486 55.4536C25.0442 55.4536 31.549 61.9578 31.549 69.9521C31.549 77.947 25.0442 84.4512 17.0486 84.4512C13.4019 84.4512 9.91653 83.0925 7.23495 80.6253C6.71656 80.1487 5.91009 80.1825 5.43418 80.7003C4.9576 81.2187 4.99079 82.0245 5.50919 82.5011C8.6627 85.4023 12.7607 87 17.0486 87C24.346 87 30.5866 82.3909 33.014 75.9318C36.3865 77.0204 39.9031 77.5733 43.4867 77.5733C47.071 77.5733 50.5883 77.0204 53.9608 75.9325C56.3882 82.3915 62.6288 87 69.9262 87C79.327 87 86.9748 79.3522 86.9748 69.9521C86.9748 62.6627 82.3749 56.4273 75.9252 53.9953ZM59.3837 7.09291C62.0427 4.27725 65.6396 2.66565 69.5113 2.5548C69.652 2.55082 69.7914 2.54883 69.9321 2.54883C77.7366 2.54883 84.1956 8.78217 84.42 16.6324C84.5308 20.5035 83.1276 24.186 80.4686 27.0023C77.8096 29.818 74.2127 31.4296 70.341 31.5404C70.2003 31.5444 70.0602 31.5464 69.9202 31.5464C62.1157 31.5464 55.6567 25.313 55.4324 17.4628C55.3208 13.5918 56.7247 9.90857 59.3837 7.09291ZM53.2459 73.4846C50.1057 74.5054 46.8287 75.0245 43.4867 75.0245C40.146 75.0245 36.8691 74.5054 33.7288 73.4846C33.9698 72.3442 34.0979 71.1628 34.0979 69.9521C34.0979 60.5519 26.4494 52.9048 17.0486 52.9048C15.8306 52.9048 14.6425 53.0342 13.4962 53.2778C12.4667 50.1263 11.9443 46.8374 11.9443 43.4841C11.9443 40.1414 12.464 36.8631 13.4869 33.7195C14.6358 33.9651 15.8273 34.0952 17.0486 34.0952C19.9691 34.0952 22.8505 33.3438 25.3827 31.9227C25.9961 31.5783 26.2144 30.8017 25.8699 30.1877C25.5254 29.5737 24.7489 29.356 24.1349 29.7005C21.983 30.9079 19.5324 31.5464 17.0486 31.5464C9.05299 31.5464 2.54883 25.0422 2.54883 17.0473C2.54883 9.05299 9.05365 2.54883 17.0486 2.54883C25.0442 2.54883 31.549 9.05299 31.549 17.0479C31.549 20.3926 30.3828 23.6556 28.2654 26.237C27.8187 26.7806 27.8984 27.5838 28.4427 28.0305C28.9863 28.4765 29.7894 28.3975 30.2361 27.8532C32.7259 24.8179 34.0979 20.98 34.0979 17.0473C34.0979 15.8266 33.9671 14.6352 33.7222 13.4862C36.8651 12.4634 40.144 11.9436 43.4867 11.9436C46.8287 11.9436 50.1064 12.4627 53.2479 13.4842C52.9698 14.7998 52.845 16.1572 52.8842 17.5358C53.149 26.7667 60.7424 34.0959 69.9195 34.0952C70.0835 34.0952 70.2488 34.0932 70.414 34.0879C71.4588 34.0581 72.4863 33.9339 73.4879 33.7222C74.5101 36.8644 75.0298 40.1427 75.0298 43.4841C75.0298 46.8374 74.5068 50.1263 73.4779 53.2778C72.3316 53.0335 71.1435 52.9048 69.9262 52.9048C60.5254 52.9048 52.8776 60.5519 52.8776 69.9521C52.8776 71.1634 53.005 72.3449 53.2459 73.4846ZM69.9262 84.4512C61.9305 84.4512 55.4264 77.947 55.4264 69.9527C55.4264 61.9578 61.9305 55.4536 69.9262 55.4536C77.9218 55.4536 84.4259 61.9578 84.4259 69.9527C84.4259 77.947 77.9218 84.4512 69.9262 84.4512Z" fill="#0369CA"></path><path d="M25.7275 9.52507C25.2881 9.22638 24.71 9.23102 24.2759 9.53768C23.8418 9.84367 23.3772 10.0992 22.8886 10.3017C21.1376 8.93167 18.6001 8.9476 16.8617 10.459C15.9583 11.2449 15.3935 12.3314 15.2621 13.505C13.3923 13.2268 11.7023 12.1974 10.5939 10.6189C10.3297 10.2433 9.88364 10.0395 9.42764 10.0833C8.97031 10.1278 8.57272 10.4145 8.3862 10.834C8.3497 10.9163 7.49212 12.8757 7.60164 15.2739C7.68528 17.1092 8.34173 19.4748 10.7359 21.3015C9.87368 21.5796 8.96301 21.7083 8.05565 21.6718C7.46491 21.6486 6.93722 22.0329 6.77792 22.6011C6.61862 23.1693 6.87018 23.7726 7.38592 24.0594C9.38516 25.1698 11.5271 25.7261 13.6199 25.7261C15.6305 25.7261 17.5952 25.2123 19.3435 24.1842C21.5359 22.8945 23.1289 20.9198 23.9938 18.5084C24.021 18.4473 24.0436 18.3836 24.0615 18.3179C24.5062 17.0083 24.7392 15.5739 24.7392 14.0526C24.7392 13.9862 24.7372 13.9191 24.7345 13.8528C25.462 12.9952 25.9811 11.979 26.2492 10.8805C26.374 10.3641 26.1669 9.82376 25.7275 9.52507ZM22.1512 13.655C22.1764 13.7877 22.1897 13.9251 22.1897 14.0565C22.1897 15.3057 22.0039 16.4627 21.6501 17.5081C21.6308 17.5559 21.6149 17.6057 21.6016 17.6568C20.9398 19.5086 19.7351 20.9961 18.0512 21.9871C16.5099 22.8945 14.741 23.2808 12.9383 23.15C13.3511 22.9456 13.75 22.7133 14.1317 22.4544C14.514 22.1942 14.7264 21.7475 14.6853 21.2862C14.6441 20.8249 14.356 20.4226 13.9332 20.2348C11.5537 19.1774 10.2812 17.4955 10.1518 15.2367C10.1252 14.7741 10.1485 14.33 10.1983 13.9231C11.9512 15.388 14.1967 16.1872 16.5405 16.1268C17.2314 16.1089 17.7824 15.544 17.7824 14.853V14.0798C17.7824 14.0745 17.7824 14.0685 17.7824 14.0625C17.7737 13.418 18.0472 12.8054 18.5344 12.3825C19.4451 11.5907 20.8297 11.6869 21.6215 12.5976C21.7808 12.7801 21.9839 12.9096 22.2056 12.9779C22.128 13.1917 22.1074 13.4246 22.1512 13.655Z" fill="#0369CA"></path><path d="M65.7334 18.0536H67.5401V25.6529C67.5401 26.3565 68.111 26.9273 68.8146 26.9273C69.5188 26.9273 70.089 26.3565 70.089 25.6529V18.0536H72.057C72.7606 18.0536 73.3314 17.4827 73.3314 16.7791C73.3314 16.0756 72.7606 15.5047 72.057 15.5047H70.089V11.939C70.089 10.715 71.0853 9.71875 72.3099 9.71875H73.96C74.6636 9.71875 75.2344 9.14792 75.2344 8.44434C75.2344 7.74009 74.6636 7.16992 73.96 7.16992H72.3099C69.6801 7.16992 67.5401 9.30921 67.5401 11.939V15.5047H65.7334C65.0298 15.5047 64.459 16.0756 64.459 16.7791C64.459 17.4827 65.0298 18.0536 65.7334 18.0536Z" fill="#0369CA"></path><path d="M14.157 76.5425C14.4603 76.5425 14.7636 76.4642 15.0338 76.3082L23.7084 71.2975C24.2494 70.9855 24.5853 70.4034 24.5853 69.7788C24.5853 69.1549 24.2494 68.5728 23.7084 68.2608L15.0338 63.2501C14.4935 62.9375 13.8218 62.9375 13.2808 63.2501C12.7398 63.5621 12.4033 64.1442 12.4033 64.7688V74.7895C12.4033 75.4141 12.7398 75.9962 13.2808 76.3082C13.551 76.4648 13.8536 76.5425 14.157 76.5425ZM14.9521 66.1467L21.2419 69.7795L14.9521 73.4122V66.1467Z" fill="#0369CA"></path><path d="M75.4636 60.9258H64.3881C62.4646 60.9258 60.8994 62.4909 60.8994 64.4152V75.4886C60.8994 77.4129 62.4646 78.978 64.3881 78.978H75.4636C77.3871 78.978 78.9523 77.4129 78.9523 75.4886V64.4152C78.9523 62.4909 77.3871 60.9258 75.4636 60.9258ZM76.4035 75.4886C76.4035 76.0077 75.982 76.4292 75.4636 76.4292H64.3881C63.8697 76.4292 63.4482 76.0077 63.4482 75.4886V64.4152C63.4482 63.8968 63.8697 63.4746 64.3881 63.4746H75.4636C75.982 63.4746 76.4035 63.8968 76.4035 64.4152V75.4886Z" fill="#0369CA"></path><path d="M69.9267 66.1016C67.8026 66.1016 66.0742 67.83 66.0742 69.954C66.0742 72.078 67.8026 73.8058 69.9267 73.8058C72.0507 73.8058 73.7791 72.078 73.7791 69.954C73.7791 67.83 72.0507 66.1016 69.9267 66.1016ZM69.9267 71.257C69.2078 71.257 68.623 70.6722 68.623 69.954C68.623 69.2352 69.2078 68.6504 69.9267 68.6504C70.6455 68.6504 71.2303 69.2352 71.2303 69.954C71.2303 70.6722 70.6455 71.257 69.9267 71.257Z" fill="#0369CA"></path><path d="M52.7111 30.2598C52.0068 30.2598 51.4366 30.8306 51.4366 31.5342V32.1057C49.6405 33.1644 47.7521 34.0784 45.8106 34.8264C44.2561 35.4251 42.6505 35.9229 41.0263 36.3126C40.7767 36.1207 40.4661 36.0046 40.1275 36.0046H34.2925C32.8826 36.0046 31.7363 37.1516 31.7363 38.5607V45.2534C31.7363 46.6632 32.8826 47.8095 34.2925 47.8095H35.4587L35.9007 56.3069C35.9359 56.9873 36.4988 57.515 37.1725 57.515C37.1944 57.515 37.217 57.5143 37.2395 57.513C37.9425 57.4765 38.4828 56.8771 38.4463 56.1742L38.0108 47.8095H40.1275C40.4654 47.8095 40.7767 47.694 41.0256 47.5022C42.0597 47.7518 43.0886 48.0451 44.0942 48.379C44.7626 48.6 45.4834 48.2383 45.7051 47.5706C45.9268 46.9022 45.5644 46.1806 44.8966 45.9596C43.8167 45.6012 42.7122 45.2859 41.6011 45.0184V38.797C43.3415 38.3802 45.0613 37.8458 46.7266 37.2047C48.3369 36.584 49.914 35.8572 51.436 35.0342V48.7832C50.8758 48.4806 50.3096 48.1918 49.7394 47.9177C49.1049 47.6124 48.3435 47.8792 48.0389 48.5138C47.7335 49.1483 48.0004 49.9096 48.6349 50.215C49.5841 50.6716 50.5227 51.1748 51.436 51.7111V52.2799C51.436 52.9842 52.0068 53.5543 52.7104 53.5543C53.414 53.5543 53.9848 52.9842 53.9848 52.2799V31.5342C53.9855 30.8306 53.4146 30.2598 52.7111 30.2598ZM39.0529 45.26L34.2852 45.2534L34.2925 38.5534H39.0529V45.26Z" fill="#0369CA"></path></svg>