<svg xmlns="http://www.w3.org/2000/svg" width="47" height="61" viewBox="0 0 47 61" fill="none"><path d="M44.6321 7.19252V3.89709C44.6321 2.70533 43.5299 1.73576 42.1751 1.73576H17.7322L17.4526 1.26313C16.9717 0.448564 16.0953 0 14.9849 0H3.8993C1.74922 0 0 1.79366 0 3.99848V38.1001C0 39.9957 1.50255 41.5379 3.34938 41.5379H7.87016C8.57253 44.3234 9.58453 46.8872 10.9047 49.2112C13.6188 53.9895 17.7261 57.9221 23.1124 60.9C23.2329 60.9666 23.3657 61 23.4985 61C23.6313 61 23.7641 60.9666 23.8846 60.9C29.2712 57.9219 33.3791 53.9893 36.0938 49.2113C37.4144 46.8871 38.4268 44.3233 39.1294 41.5379H43.6474C45.4961 41.5379 47 39.9957 47 38.1001V10.4757C47 8.93281 46.0017 7.62452 44.6321 7.19252ZM42.1751 3.40409C42.6818 3.40409 43.0051 3.6961 43.0051 3.89709V7.04109H21.9504C21.2524 7.04109 20.6705 6.70559 20.3109 6.09523L18.7189 3.40397H42.1751V3.40409ZM23.4984 59.2153C13.2269 53.3801 8.25463 44.1891 8.31122 31.1426L23.4985 22.9409L38.6889 31.1426C38.7454 44.188 33.7719 53.3789 23.4984 59.2153ZM45.3731 38.1001C45.3731 39.0759 44.599 39.8697 43.6474 39.8697H39.5076C40.0871 37.001 40.3569 33.9145 40.3111 30.6249C40.3068 30.3195 40.1402 30.041 39.8767 29.8987L23.8774 21.2602C23.6401 21.1321 23.3565 21.1321 23.1193 21.2602L7.12319 29.8987C6.85979 30.041 6.69317 30.3195 6.68887 30.6247C6.6431 33.9145 6.91277 37.001 7.49197 39.8696H3.34938C2.39965 39.8696 1.62688 39.0757 1.62688 38.1V3.99848C1.62688 2.71367 2.64632 1.66833 3.8993 1.66833H14.9849C15.3521 1.66833 15.8369 1.74791 16.0612 2.12797L18.9191 6.95912C19.5743 8.07154 20.6792 8.70942 21.9505 8.70942H43.6474C44.599 8.70942 45.3731 9.50182 45.3731 10.4757V38.1001ZM36.188 32.1578L23.8774 25.5118C23.6401 25.3837 23.3565 25.3836 23.1194 25.5118L10.812 32.1578C10.5359 32.3069 10.3673 32.6046 10.378 32.9244C10.7345 43.622 14.8863 51.3442 23.0707 56.5322C23.2017 56.6154 23.3501 56.657 23.4984 56.657C23.6466 56.657 23.7951 56.6154 23.9261 56.5322C32.1091 51.3451 36.2619 43.623 36.622 32.9246C36.6328 32.605 36.4642 32.307 36.188 32.1578ZM23.4984 54.8372C16.2259 50.0535 12.4676 43.0282 12.0245 33.3886L23.4984 27.1927L34.9752 33.3886C34.529 43.0291 30.7698 50.0542 23.4984 54.8372ZM19.4236 38.8445C19.2711 38.6879 19.0641 38.5999 18.8484 38.5999C18.8483 38.5999 18.8483 38.5999 18.8482 38.5999C18.6324 38.5999 18.4255 38.6878 18.273 38.8442L16.1225 41.0494C15.9699 41.2059 15.8842 41.418 15.8842 41.6393C15.8842 41.8605 15.9699 42.0727 16.1226 42.2292L21.4151 47.6527C21.5739 47.8154 21.782 47.8969 21.9901 47.8969C22.1982 47.8968 22.4065 47.8153 22.5653 47.6526L31.8888 38.092C32.2065 37.7663 32.2065 37.2381 31.8888 36.9124L29.7415 34.7105C29.4239 34.3848 28.9088 34.3848 28.5912 34.7105L21.9904 41.479L19.4236 38.8445ZM29.1663 36.4801L30.1632 37.5024L21.9898 45.8834L17.8481 41.6392L18.8478 40.6141L21.4144 43.2488C21.567 43.4053 21.7739 43.4934 21.9897 43.4934H21.9899C22.2057 43.4934 22.4126 43.4054 22.565 43.249L29.1663 36.4801Z" fill="#048DEF"></path></svg>