<svg xmlns="http://www.w3.org/2000/svg" width="54" height="55" viewBox="0 0 54 55" fill="none"><path d="M9.67769 35.9685C8.44604 37.1141 7.45685 38.464 6.73736 39.9806L6.35731 40.782L0.174711 48.5862C-0.102437 48.9361 -0.0434946 49.4444 0.306388 49.7215C0.454876 49.8392 0.631919 49.8962 0.807668 49.8962C1.04602 49.8962 1.28212 49.7913 1.4417 49.5899L7.68141 41.7135C7.71945 41.6655 7.75177 41.6132 7.77807 41.5581L8.19777 40.6734C8.82911 39.3424 9.69741 38.1575 10.7786 37.1518C11.1053 36.8479 11.1239 36.3365 10.8199 36.0096C10.5159 35.683 10.0046 35.6643 9.67769 35.9685Z" fill="#047BDC"></path><path d="M52.3332 30.4962C51.2257 29.1894 49.2617 29.0274 47.9552 30.1348L47.5374 30.4889C47.4396 29.9836 47.2156 29.4959 46.8598 29.0762C45.7525 27.7697 43.7884 27.6076 42.4817 28.7148L42.1111 29.0289C42.0073 28.5397 41.7841 28.0688 41.4385 27.661C40.331 26.3543 38.3672 26.1924 37.0604 27.2996L30.8486 32.5639C30.5297 32.4736 30.1938 32.4242 29.8463 32.4242H18.6854C16.6151 32.4242 14.5439 32.9207 12.696 33.8602C12.2982 34.0624 12.1396 34.5489 12.3418 34.9468C12.5441 35.3446 13.0306 35.5033 13.4284 35.301C15.0507 34.4764 16.8684 34.0405 18.6854 34.0405H29.8464C30.9874 34.0405 31.9158 34.9689 31.9158 36.1099C31.9158 36.6714 31.6946 37.1969 31.2933 37.5896C30.8921 37.982 30.3652 38.1882 29.8013 38.1788C29.7953 38.1787 29.7894 38.1786 29.7834 38.1786H22.58C22.1336 38.1786 21.7718 38.5403 21.7718 38.9867C21.7718 39.4332 22.1336 39.7949 22.58 39.7949H29.775C29.7999 39.7955 29.8248 39.7957 29.8496 39.7957C30.8176 39.7957 31.7288 39.4244 32.4234 38.7452C32.5252 38.6455 32.6198 38.5406 32.7084 38.4319H39.5371C40.2644 38.4319 40.9705 38.173 41.5254 37.7026L49.0002 31.3679C49.627 30.8367 50.5689 30.9145 51.1002 31.5411C51.6313 32.168 51.5535 33.1101 50.9269 33.6412L39.127 43.6414C38.0256 44.5746 36.686 45.1591 35.2527 45.3315L33.7969 45.5067C33.3538 45.5601 33.0377 45.9624 33.091 46.4057C33.1404 46.8161 33.4892 47.1173 33.8924 47.1173C33.9248 47.1173 33.9573 47.1153 33.9901 47.1114L35.4458 46.9362C37.1943 46.726 38.8285 46.0131 40.1719 44.8744L51.9719 34.8742C53.2784 33.7669 53.4406 31.8029 52.3332 30.4962ZM38.1055 28.5326C38.7321 28.0014 39.6743 28.0793 40.2055 28.7059C40.695 29.2836 40.676 30.1248 40.166 30.6773L33.5269 36.3037C33.5303 36.2394 33.5321 36.1747 33.5321 36.1099C33.5321 35.044 33.0768 34.0829 32.3511 33.4093L38.1055 28.5326ZM35.423 36.8156L43.5268 29.9479C44.1537 29.4166 45.0957 29.4945 45.6267 30.1211C46.1579 30.748 46.0801 31.6901 45.4534 32.2212L40.4805 36.4696C40.2173 36.6926 39.8821 36.8156 39.5371 36.8156H35.423Z" fill="#047BDC"></path><path d="M30.3622 45.9199L22.0751 46.9168C21.8707 46.9415 21.6833 47.0431 21.5514 47.2011L16.145 53.6733C15.8589 54.016 15.9045 54.5255 16.2471 54.8116C16.3982 54.9379 16.5819 54.9996 16.7648 54.9996C16.996 54.9996 17.2255 54.9009 17.3854 54.7096L22.5864 48.4833L30.5553 47.5247C30.9984 47.4713 31.3146 47.069 31.2613 46.6258C31.2079 46.1827 30.8039 45.8669 30.3622 45.9199Z" fill="#047BDC"></path><path d="M23.9468 23.1254C23.9468 23.1254 19.2239 15.7732 19.2171 15.7637C18.4177 14.6298 17.8867 13.3063 17.6817 11.9365C17.6157 11.495 17.2038 11.1904 16.7628 11.2569C16.3214 11.3228 16.0172 11.7344 16.0832 12.1757C16.3244 13.7875 16.9475 15.3447 17.8859 16.6804L22.4587 23.7993V24.978C22.4587 25.3192 22.5791 25.6328 22.7791 25.8791V28.657C22.7791 29.9571 23.8368 31.0149 25.137 31.0149H27.9881C29.2882 31.0149 30.346 29.9572 30.346 28.657V25.8791C30.546 25.6328 30.6664 25.3192 30.6664 24.978V23.7993L35.2392 16.6804C36.4955 14.892 37.1596 12.7884 37.1596 10.5958C37.1596 7.09257 35.4307 3.8197 32.5346 1.84066C29.5762 -0.180944 25.8703 -0.556688 22.3675 0.809547C19.8301 1.79928 17.8011 3.81486 16.8008 6.33957C16.5266 7.03147 16.317 7.74126 16.1775 8.44922C16.0912 8.88714 16.3763 9.31212 16.8141 9.39844C17.253 9.48507 17.677 9.19963 17.7634 8.76182C17.8838 8.15009 18.0656 7.53545 18.3035 6.93492C19.139 4.82636 20.8344 3.14257 22.955 2.31543C25.9529 1.14618 29.1122 1.45975 31.6227 3.17522C34.0774 4.85287 35.5431 7.62693 35.5431 10.5959C35.5431 12.4592 34.9776 14.2462 33.9076 15.7637C33.901 15.7732 29.1779 23.1254 29.1779 23.1254C29.0943 23.2558 29.0498 23.4073 29.0498 23.5623V24.7947H28.8524L29.3127 16.9822H30.0832C31.3228 16.9822 32.3312 15.9738 32.3312 14.7342V14.6448C32.3312 13.4052 31.3228 12.3968 30.0832 12.3968C28.8947 12.3968 27.9089 13.3262 27.8391 14.5127L27.7888 15.366H25.3435L25.2933 14.5127C25.2235 13.3262 24.2376 12.3968 23.0491 12.3968C21.8095 12.3968 20.8011 13.4052 20.8011 14.6448V14.7342C20.8011 15.9738 21.8095 16.9822 23.0491 16.9822H23.8197L24.2799 24.7947H24.0748V23.5623C24.0749 23.4073 24.0304 23.2558 23.9468 23.1254ZM29.4527 14.6077C29.4723 14.2742 29.7492 14.013 30.0833 14.013C30.4316 14.013 30.715 14.2964 30.715 14.6446V14.734C30.715 15.0822 30.4316 15.3656 30.0833 15.3656H29.408L29.4527 14.6077ZM23.0491 15.3657C22.7008 15.3657 22.4174 15.0823 22.4174 14.7341V14.6447C22.4174 14.2965 22.7008 14.0131 23.0491 14.0131C23.3831 14.0131 23.6602 14.2743 23.6798 14.6078L23.7245 15.3658L23.0491 15.3657ZM28.7294 28.6571C28.7294 29.066 28.3968 29.3987 27.9879 29.3987H25.1368C24.7278 29.3987 24.3952 29.066 24.3952 28.6571V26.4109H28.7294V28.6571ZM25.4388 16.9821H27.6936L27.2333 24.7946H25.8992L25.4388 16.9821Z" fill="#047BDC"></path><path d="M40.5586 11.4742C40.5586 11.9206 40.9203 12.2824 41.3668 12.2824H43.2719C43.7183 12.2824 44.0801 11.9206 44.0801 11.4742C44.0801 11.0278 43.7183 10.666 43.2719 10.666H41.3668C40.9203 10.666 40.5586 11.0279 40.5586 11.4742Z" fill="#047BDC"></path><path d="M40.0859 7.20088C40.1791 7.20088 40.274 7.18461 40.3666 7.15023L42.1528 6.48808C42.5714 6.33302 42.7848 5.86794 42.6298 5.44942C42.4746 5.03089 42.0096 4.81732 41.5911 4.97249L39.8048 5.63465C39.3863 5.78971 39.1729 6.25478 39.3279 6.67331C39.4488 6.99927 39.7575 7.20088 40.0859 7.20088Z" fill="#047BDC"></path><path d="M39.8088 17.3122L41.5951 17.9742C41.6876 18.0085 41.7826 18.0249 41.8758 18.0249C42.2041 18.0249 42.5129 17.8233 42.6336 17.4973C42.7887 17.0788 42.5752 16.6138 42.1567 16.4587L40.3704 15.7966C39.9519 15.6417 39.4868 15.8551 39.3318 16.2735C39.1768 16.6921 39.3903 17.157 39.8088 17.3122Z" fill="#047BDC"></path><path d="M9.85114 12.2824H11.7563C12.2027 12.2824 12.5644 11.9206 12.5644 11.4742C12.5644 11.0278 12.2027 10.666 11.7563 10.666H9.85114C9.4047 10.666 9.04297 11.0278 9.04297 11.4742C9.04297 11.9206 9.4047 12.2824 9.85114 12.2824Z" fill="#047BDC"></path><path d="M10.965 6.48795L12.7513 7.1501C12.8439 7.18437 12.9387 7.20075 13.032 7.20075C13.3603 7.20075 13.6691 6.99914 13.7899 6.67318C13.9449 6.25465 13.7315 5.78969 13.3129 5.63452L11.5267 4.97236C11.1084 4.81752 10.6433 5.03076 10.488 5.44929C10.3331 5.86781 10.5466 6.33278 10.965 6.48795Z" fill="#047BDC"></path><path d="M13.7899 16.2736C13.6349 15.8551 13.1699 15.6415 12.7513 15.7967L10.965 16.4588C10.5465 16.6138 10.333 17.0789 10.4881 17.4974C10.6089 17.8233 10.9175 18.025 11.2459 18.025C11.3391 18.025 11.4341 18.0087 11.5266 17.9743L13.3129 17.3123C13.7315 17.1571 13.9451 16.6922 13.7899 16.2736Z" fill="#047BDC"></path></svg>