<svg xmlns="http://www.w3.org/2000/svg" width="65" height="65" viewBox="0 0 65 65" fill="none"><path d="M17.2354 44.7742C16.7082 44.7742 16.2812 45.2011 16.2812 45.7283C16.2812 46.2555 16.7082 46.6824 17.2354 46.6824H47.7636C48.2908 46.6824 48.7178 46.2555 48.7178 45.7283C48.7178 45.2011 48.2908 44.7742 47.7636 44.7742H44.6473V43.5002C45.8291 43.101 46.6826 41.9827 46.6826 40.668C46.6826 39.2443 44.8968 37.4411 44.3493 36.9229C43.9813 36.5738 43.4051 36.5738 43.0371 36.9229C42.4896 37.4416 40.7039 39.2443 40.7039 40.668C40.7039 41.9827 41.5573 43.101 42.7391 43.5002V44.7742H39.5593V32.0407C39.5593 31.5135 39.1318 31.0865 38.6052 31.0865C38.0785 31.0865 37.651 31.5135 37.651 32.0407V44.7742H27.348V22.2598H37.651V27.5606C37.651 28.0878 38.0785 28.5147 38.6052 28.5147C39.1318 28.5147 39.5593 28.0878 39.5593 27.5606V21.3057C39.5593 20.7785 39.1318 20.3516 38.6052 20.3516H26.3939C25.8672 20.3516 25.4397 20.7785 25.4397 21.3057V44.7742H22.2599V43.5002C23.4417 43.101 24.2952 41.9827 24.2952 40.668C24.2952 39.2443 22.5094 37.4411 21.9619 36.9229C21.5939 36.5738 21.0177 36.5738 20.6497 36.9229C20.1022 37.4416 18.3165 39.2443 18.3165 40.668C18.3165 41.9827 19.1699 43.101 20.3517 43.5002V44.7742H17.2354ZM43.6937 38.9923C44.3007 39.6832 44.7708 40.3908 44.7743 40.668C44.7743 41.2641 44.2893 41.7491 43.6932 41.7491C43.0971 41.7491 42.6121 41.2641 42.6121 40.668C42.6161 40.3923 43.0867 39.6841 43.6937 38.9923ZM21.3063 38.9923C21.9133 39.6832 22.3829 40.3908 22.3869 40.668C22.3869 41.2641 21.9019 41.7491 21.3058 41.7491C20.7097 41.7491 20.2247 41.2641 20.2247 40.668C20.2282 40.3923 20.6988 39.6841 21.3063 38.9923Z" fill="#048DEF"></path><path d="M36.5069 25.378C36.5069 24.8508 36.0794 24.4238 35.5528 24.4238C35.0261 24.4238 34.5986 24.8508 34.5986 25.378V26.3956C34.5986 26.9227 35.0261 27.3497 35.5528 27.3497C36.0794 27.3497 36.5069 26.9227 36.5069 26.3956V25.378Z" fill="#048DEF"></path><path d="M33.4542 25.378C33.4542 24.8508 33.0267 24.4238 32.5 24.4238C31.9734 24.4238 31.5459 24.8508 31.5459 25.378V26.3956C31.5459 26.9227 31.9734 27.3497 32.5 27.3497C33.0267 27.3497 33.4542 26.9227 33.4542 26.3956V25.378Z" fill="#048DEF"></path><path d="M30.4014 25.378C30.4014 24.8508 29.974 24.4238 29.4473 24.4238C28.9206 24.4238 28.4932 24.8508 28.4932 25.378V26.3956C28.4932 26.9227 28.9206 27.3497 29.4473 27.3497C29.974 27.3497 30.4014 26.9227 30.4014 26.3956V25.378Z" fill="#048DEF"></path><path d="M36.5069 30.4639C36.5069 29.9367 36.0794 29.5098 35.5528 29.5098C35.0261 29.5098 34.5986 29.9367 34.5986 30.4639V31.4815C34.5986 32.0087 35.0261 32.4356 35.5528 32.4356C36.0794 32.4356 36.5069 32.0087 36.5069 31.4815V30.4639Z" fill="#048DEF"></path><path d="M33.4542 30.4639C33.4542 29.9367 33.0267 29.5098 32.5 29.5098C31.9734 29.5098 31.5459 29.9367 31.5459 30.4639V31.4815C31.5459 32.0087 31.9734 32.4356 32.5 32.4356C33.0267 32.4356 33.4542 32.0087 33.4542 31.4815V30.4639Z" fill="#048DEF"></path><path d="M30.4014 30.4639C30.4014 29.9367 29.974 29.5098 29.4473 29.5098C28.9206 29.5098 28.4932 29.9367 28.4932 30.4639V31.4815C28.4932 32.0087 28.9206 32.4356 29.4473 32.4356C29.974 32.4356 30.4014 32.0087 30.4014 31.4815V30.4639Z" fill="#048DEF"></path><path d="M36.5069 35.5537C36.5069 35.0266 36.0794 34.5996 35.5528 34.5996C35.0261 34.5996 34.5986 35.0266 34.5986 35.5537V36.5714C34.5986 37.0985 35.0261 37.5255 35.5528 37.5255C36.0794 37.5255 36.5069 37.0985 36.5069 36.5714V35.5537Z" fill="#048DEF"></path><path d="M33.4542 35.5537C33.4542 35.0266 33.0267 34.5996 32.5 34.5996C31.9734 34.5996 31.5459 35.0266 31.5459 35.5537V36.5714C31.5459 37.0985 31.9734 37.5255 32.5 37.5255C33.0267 37.5255 33.4542 37.0985 33.4542 36.5714V35.5537Z" fill="#048DEF"></path><path d="M30.4014 35.5537C30.4014 35.0266 29.974 34.5996 29.4473 34.5996C28.9206 34.5996 28.4932 35.0266 28.4932 35.5537V36.5714C28.4932 37.0985 28.9206 37.5255 29.4473 37.5255C29.974 37.5255 30.4014 37.0985 30.4014 36.5714V35.5537Z" fill="#048DEF"></path><path d="M35.5528 39.6855C35.0261 39.6855 34.5986 40.1125 34.5986 40.6397V41.6573C34.5986 42.1844 35.0261 42.6114 35.5528 42.6114C36.0794 42.6114 36.5069 42.1844 36.5069 41.6573V40.6397C36.5069 40.1125 36.0794 39.6855 35.5528 39.6855Z" fill="#048DEF"></path><path d="M32.5 39.6855C31.9734 39.6855 31.5459 40.1125 31.5459 40.6397V41.6573C31.5459 42.1844 31.9734 42.6114 32.5 42.6114C33.0267 42.6114 33.4542 42.1844 33.4542 41.6573V40.6397C33.4542 40.1125 33.0267 39.6855 32.5 39.6855Z" fill="#048DEF"></path><path d="M29.4473 39.6855C28.9206 39.6855 28.4932 40.1125 28.4932 40.6397V41.6573C28.4932 42.1844 28.9206 42.6114 29.4473 42.6114C29.974 42.6114 30.4014 42.1844 30.4014 41.6573V40.6397C30.4014 40.1125 29.974 39.6855 29.4473 39.6855Z" fill="#048DEF"></path><path d="M62.0107 59.0213C60.696 59.0213 59.5777 59.8753 59.1785 61.0565H49.7359V54.8239H49.7993C58.1812 54.8239 65 48.0051 65 39.6233C65 33.7884 61.6948 28.7117 56.8591 26.1647V21.0856C58.0409 20.6864 58.8943 19.5681 58.8943 18.2535C58.8943 16.6051 57.5534 15.2641 55.905 15.2641C54.2566 15.2641 52.9156 16.6051 52.9156 18.2535C52.9156 19.5681 53.7696 20.6864 54.9509 21.0856V25.3222C53.3416 24.7405 51.6069 24.4226 49.7993 24.4226C49.0391 24.4226 48.2809 24.4796 47.5315 24.5917C47.6441 23.8429 47.7007 23.0841 47.7007 22.3239C47.7007 18.859 46.5343 15.6614 44.5749 13.102H60.993C61.5202 13.102 61.9472 12.675 61.9472 12.1478V5.8215C63.1289 5.42229 63.9824 4.30401 63.9824 2.98935C63.9824 1.34094 62.6414 0 60.993 0C59.3446 0 58.0037 1.34094 58.0037 2.98935C58.0037 4.30401 58.8577 5.42229 60.0389 5.8215V11.1937H42.8407C40.3438 8.87234 37.0683 7.37915 33.4541 7.15401V2.98935C33.4541 2.4622 33.0267 2.03522 32.5 2.03522H25.1561C24.7569 0.853462 23.6386 0 22.3239 0C20.6755 0 19.3346 1.34094 19.3346 2.98935C19.3346 4.63776 20.6755 5.9787 22.3239 5.9787C23.6386 5.9787 24.7569 5.12474 25.1561 3.94348H31.5459V7.15401C28.0204 7.3727 24.6978 8.80192 22.1037 11.2349C19.5176 13.6604 17.8781 16.8704 17.4268 20.3532C17.3628 20.3527 17.2989 20.3522 17.2359 20.3522C15.8111 20.3522 14.4265 20.5272 13.1015 20.8545V8.07739C13.1015 7.55024 12.6745 7.12326 12.1478 7.12326H6.8391C6.4399 5.94151 5.32162 5.08804 4.00696 5.08804C2.35855 5.08804 1.01761 6.42899 1.01761 8.07739C1.01761 9.7258 2.35855 11.0667 4.00696 11.0667C5.32162 11.0667 6.4399 10.2128 6.8391 9.03152H11.1937V21.4462C4.66156 23.8994 0 30.2094 0 37.588C0 44.2556 3.80562 50.0503 9.35883 52.9156H2.98935C2.4622 52.9156 2.03522 53.3426 2.03522 53.8698V57.1433C0.853462 57.5425 0 58.6608 0 59.9754C0 61.6238 1.34094 62.9648 2.98935 62.9648C4.63776 62.9648 5.9787 61.6238 5.9787 59.9754C5.9787 58.6608 5.12474 57.5425 3.94348 57.1433V54.8239H24.4226V61.0565H20.068C19.6688 59.8753 18.5505 59.0213 17.2359 59.0213C15.5875 59.0213 14.2465 60.3622 14.2465 62.0107C14.2465 63.6591 15.5875 65 17.2359 65C18.5505 65 19.6688 64.1465 20.068 62.9648H25.3767C25.9034 62.9648 26.3309 62.5378 26.3309 62.0107V54.8239H40.2759C40.803 54.8239 41.23 54.3969 41.23 53.8698C41.23 53.3426 40.803 52.9156 40.2759 52.9156H17.2359C8.78407 52.9156 1.90826 46.0398 1.90826 37.588C1.90826 29.1362 8.78407 22.2604 17.2359 22.2604C17.5528 22.2604 17.886 22.2713 18.2272 22.2932C18.7514 22.3274 19.2036 21.9302 19.2398 21.406C19.7124 14.4667 25.5369 9.03152 32.5 9.03152C39.8296 9.03152 45.7924 14.9944 45.7924 22.3239C45.7924 23.4219 45.6575 24.5153 45.3917 25.5736C45.2191 26.2609 45.8628 26.9032 46.5496 26.7316C47.6079 26.4658 48.7014 26.3309 49.7993 26.3309C57.1289 26.3309 63.0917 32.2937 63.0917 39.6233C63.0917 46.9528 57.1289 52.9156 49.7993 52.9156H44.7887C44.262 52.9156 43.835 53.3426 43.835 53.8698C43.835 54.3969 44.262 54.8239 44.7887 54.8239H47.8276V62.0107C47.8276 62.5378 48.2551 62.9648 48.7817 62.9648H59.1785C59.5777 64.1465 60.696 65 62.0107 65C63.6591 65 65 63.6591 65 62.0107C65 60.3622 63.6591 59.0213 62.0107 59.0213ZM55.905 17.1724C56.5011 17.1724 56.9861 17.6574 56.9861 18.2535C56.9861 18.8496 56.5011 19.3346 55.905 19.3346C55.3089 19.3346 54.8239 18.8496 54.8239 18.2535C54.8239 17.6574 55.3089 17.1724 55.905 17.1724ZM60.993 1.90826C61.5891 1.90826 62.0741 2.39326 62.0741 2.98935C62.0741 3.58543 61.5891 4.07043 60.993 4.07043C60.397 4.07043 59.912 3.58543 59.912 2.98935C59.912 2.39326 60.397 1.90826 60.993 1.90826ZM22.3239 4.07043C21.7278 4.07043 21.2428 3.58543 21.2428 2.98935C21.2428 2.39326 21.7278 1.90826 22.3239 1.90826C22.92 1.90826 23.405 2.39326 23.405 2.98935C23.405 3.58543 22.92 4.07043 22.3239 4.07043ZM4.00696 9.15848C3.41087 9.15848 2.92587 8.67348 2.92587 8.07739C2.92587 7.48131 3.41087 6.99631 4.00696 6.99631C4.60304 6.99631 5.08804 7.48131 5.08804 8.07739C5.08804 8.67348 4.60304 9.15848 4.00696 9.15848ZM2.98935 61.0565C2.39326 61.0565 1.90826 60.5715 1.90826 59.9754C1.90826 59.3793 2.39326 58.8943 2.98935 58.8943C3.58543 58.8943 4.07043 59.3793 4.07043 59.9754C4.07043 60.5715 3.58543 61.0565 2.98935 61.0565ZM17.2359 63.0917C16.6398 63.0917 16.1548 62.6067 16.1548 62.0107C16.1548 61.4146 16.6398 60.9296 17.2359 60.9296C17.832 60.9296 18.317 61.4146 18.317 62.0107C18.317 62.6067 17.832 63.0917 17.2359 63.0917ZM62.0107 63.0917C61.4146 63.0917 60.9296 62.6067 60.9296 62.0107C60.9296 61.4146 61.4146 60.9296 62.0107 60.9296C62.6067 60.9296 63.0917 61.4146 63.0917 62.0107C63.0917 62.6067 62.6067 63.0917 62.0107 63.0917Z" fill="#048DEF"></path></svg>