<svg xmlns="http://www.w3.org/2000/svg" width="48" height="52" viewBox="0 0 48 52" fill="none"><path d="M0.851562 0.857422L19.5733 50.2148L46.805 16.1752L37.7845 7.32495L0.851562 0.857422Z" fill="white"></path><path d="M23.8253 19.5797L19.5703 50.2154L46.802 16.1758L23.8253 19.5797Z" fill="white"></path><path d="M0.851562 0.857422L23.8283 19.5792L37.7845 7.32495L0.851562 0.857422Z" fill="white"></path><path d="M23.8313 20.4314C23.4228 20.4314 23.0484 20.125 22.9973 19.6996C22.9293 19.24 23.2526 18.7975 23.7122 18.7294L46.6889 15.3255C47.1484 15.2574 47.591 15.5808 47.659 16.0403C47.7271 16.4998 47.4037 16.9423 46.9442 17.0104L23.9675 20.4144C23.9164 20.4314 23.8653 20.4314 23.8313 20.4314Z" fill="#0458B9"></path><path d="M23.8277 20.4308C23.6404 20.4308 23.4532 20.3627 23.283 20.2436L0.306291 1.52181C-0.0511248 1.21545 -0.102185 0.687841 0.187152 0.313405C0.476489 -0.0440109 1.02112 -0.11209 1.37854 0.194266L24.3553 18.916C24.7127 19.2054 24.7808 19.75 24.4744 20.1074C24.3212 20.3287 24.083 20.4308 23.8277 20.4308Z" fill="#0458B9"></path><path d="M19.5711 51.0653C19.5371 51.0653 19.486 51.0653 19.452 51.0653C18.9925 50.9972 18.6691 50.5717 18.7201 50.1122L22.9751 19.4766C23.0091 19.2723 23.1113 19.0851 23.2644 18.949L37.2207 6.6947C37.5781 6.38834 38.1057 6.42238 38.4291 6.7798C38.7354 7.13721 38.7014 7.66483 38.344 7.9882L24.626 20.0382L20.4221 50.3335C20.354 50.759 19.9966 51.0653 19.5711 51.0653Z" fill="#0458B9"></path><path d="M19.5734 51.0669C19.5224 51.0669 19.4883 51.0669 19.4373 51.0499C19.1309 50.9989 18.8756 50.7946 18.7735 50.5053L0.051708 1.14787C-0.0504108 0.875554 0.000648454 0.552177 0.187866 0.3139C0.375084 0.0756229 0.69846 -0.0264959 0.987797 0.0245635L37.9208 6.49209C38.091 6.52613 38.2441 6.59421 38.3633 6.73036L47.3838 15.5807C47.6901 15.887 47.7242 16.3806 47.4519 16.721L20.2202 50.7606C20.067 50.9478 19.8287 51.0669 19.5734 51.0669ZM2.17918 1.9478L19.8457 48.514L45.6648 16.2444L37.3761 8.12599L2.17918 1.9478Z" fill="#0458B9"></path></svg>