<svg xmlns="http://www.w3.org/2000/svg" width="60" height="66" viewBox="0 0 60 66" fill="none"><path d="M54.4935 8.58273H53.7104C55.2031 6.15255 54.6519 2.88993 52.2563 1.11251C49.675 -0.802451 46.0069 -0.186045 44.2055 2.50593L40.1391 8.58286H5.20723C2.33595 8.58286 0 10.9188 0 13.7901V47.082C0 49.9533 2.33595 52.2892 5.20723 52.2892H25.4337L23.9054 58.7081H20.607C18.4573 58.7081 16.7083 60.4569 16.7083 62.6066V63.4206H12.6421C11.9302 63.4206 11.3531 63.9979 11.3531 64.7096C11.3531 65.4214 11.9302 65.9987 12.6421 65.9987H47.0587C47.7706 65.9987 48.3477 65.4214 48.3477 64.7096C48.3477 63.9979 47.7706 63.4206 47.0587 63.4206H42.9925V62.6066C42.9925 60.4569 41.2436 58.7081 39.0939 58.7081H35.7954L34.2672 52.2892H54.4936C57.3649 52.2892 59.7008 49.9533 59.7008 47.082V39.7565V13.79C59.7008 10.9187 57.3649 8.58273 54.4935 8.58273ZM36.0242 31.2435C34.0088 32.6543 30.2332 30.7366 26.6276 32.6606C25.7478 28.0904 26.3025 23.7922 30.8817 22.8435C31.4735 22.7201 32.1106 22.6643 32.6531 22.6751C34.203 23.8251 35.7707 24.9881 37.3162 26.135C37.9928 28.1031 37.7389 30.0433 36.0242 31.2435ZM37.3233 17.4268L40.9721 20.134L38.166 23.5552C37.0108 22.6981 36.0178 21.9613 34.8626 21.1041C35.1024 20.7456 37.104 17.7543 37.3233 17.4268ZM46.3482 3.9397C47.3245 2.48041 49.3156 2.14088 50.7201 3.18305C52.1252 4.22535 52.3768 6.22925 51.2635 7.58671C49.288 9.99498 44.5917 15.7209 42.6088 18.1385L38.7585 15.2817L46.3482 3.9397ZM40.4143 62.6066V63.4206H19.2864V62.6066C19.2864 61.8786 19.8788 61.2862 20.607 61.2862H39.0937C39.8219 61.2862 40.4143 61.8786 40.4143 62.6066ZM33.1452 58.7081H26.5555L28.0838 52.2892H31.6169L33.1452 58.7081ZM57.1228 47.082C57.1228 48.5317 55.9434 49.7112 54.4936 49.7112C52.4474 49.7112 7.50799 49.7112 5.20736 49.7112C3.75761 49.7112 2.57816 48.5317 2.57816 47.082V41.0455H6.26165C6.97357 41.0455 7.55066 40.4683 7.55066 39.7565C7.55066 39.0447 6.97357 38.4675 6.26165 38.4675H2.5779V13.79C2.5779 12.3402 3.75735 11.1608 5.2071 11.1608H38.4141C37.1792 13.0062 33.5765 18.3902 32.4353 20.0954C29.9093 20.1183 27.3873 20.9983 25.7363 22.9256C23.4897 25.5481 23.095 29.6688 24.5632 35.1732C24.8142 36.1144 25.9886 36.4516 26.6992 35.7728C30.0322 32.5881 34.1834 36.0619 37.9008 33.0531C40.1699 31.2163 40.707 28.2962 39.8513 25.5655C41.0079 24.1553 50.5068 12.5743 51.6661 11.1608H54.4933C55.9431 11.1608 57.1226 12.3402 57.1226 13.79V38.4674H16.5735C15.8616 38.4674 15.2845 39.0446 15.2845 39.7564C15.2845 40.4682 15.8616 41.0454 16.5735 41.0454H57.1228V47.082Z" fill="#047BDC"></path><path d="M11.1692 38.494C10.5487 38.6208 10.1328 39.1572 10.1328 39.7587C10.1328 40.5649 10.87 41.1824 11.6732 41.0219C12.387 40.877 12.8217 40.1892 12.6851 39.506C12.5416 38.8009 11.8577 38.3554 11.1692 38.494Z" fill="#047BDC"></path></svg>