<svg xmlns="http://www.w3.org/2000/svg" width="69" height="70" viewBox="0 0 69 70" fill="none"><path d="M67.5265 43.7122C67.2931 43.4931 67.0842 43.2993 66.8965 43.1251C66.1605 42.4425 65.7911 42.0997 65.609 41.7843C65.4268 41.4688 65.3149 40.9777 65.0915 39.999C65.0345 39.7493 64.9711 39.4715 64.898 39.1597C64.4838 37.3918 62.9874 36.1362 61.1745 36.0352C60.8548 36.0175 60.57 36.0032 60.3143 35.9907C59.3117 35.9407 58.8086 35.9156 58.4662 35.791C58.124 35.6665 57.7223 35.3621 56.9222 34.7559C56.7182 34.6014 56.491 34.4292 56.2347 34.2374C54.7812 33.1493 52.8277 33.1493 51.3741 34.2374C51.1179 34.4292 50.8907 34.6012 50.6866 34.7558C49.8864 35.3621 49.4848 35.6663 49.1424 35.791C48.9991 35.8432 48.827 35.8778 48.6024 35.9041C44.8995 32.58 40.4662 30.2881 35.699 29.1843C40.8553 26.7086 44.4239 21.4351 44.4239 15.3434C44.424 6.88299 37.541 0 29.0807 0C20.6203 0 13.7373 6.88299 13.7373 15.3434C13.7373 21.4353 17.3061 26.7092 22.4628 29.1847C17.6608 30.2975 13.1904 32.615 9.47434 35.9756C4.13205 40.8068 0.769518 47.3948 0.00643481 54.5261C-0.0277183 54.8446 0.0751645 55.1626 0.289257 55.4008C0.503349 55.639 0.808611 55.7752 1.12897 55.7752L29.0787 55.7751C29.0792 55.7751 29.0799 55.7752 29.0805 55.7752C29.0811 55.7752 29.0818 55.7751 29.0823 55.7751H40.4551C40.8549 56.6999 41.5961 57.4635 42.5815 57.8856C42.8757 58.0117 43.1385 58.1225 43.3743 58.2218C43.4944 58.2723 43.6063 58.3196 43.7115 58.3642L40.5654 65.1215C40.3461 65.5927 40.4064 66.1415 40.7225 66.5536C41.0385 66.9657 41.5525 67.166 42.0645 67.0765L45.2395 66.5219L46.8588 69.3085C47.109 69.7392 47.5648 70 48.0594 70C48.0805 70 48.1018 69.9996 48.1232 69.9986C48.6419 69.975 49.1006 69.6679 49.3202 69.1967L52.4161 62.5469C53.1057 62.3364 53.4973 62.2304 53.8044 62.2304C54.1115 62.2304 54.5032 62.3364 55.1929 62.5469L58.2887 69.1966C58.5078 69.6676 58.9664 69.9749 59.4853 69.9986C59.5067 69.9996 59.5282 70 59.5495 70C60.044 70 60.4997 69.7392 60.7501 69.3085L62.3694 66.5219L65.5444 67.0767C66.0568 67.166 66.5709 66.9654 66.8869 66.5529C67.2028 66.1406 67.2626 65.5917 67.0432 65.1212L63.8973 58.3642C64.0024 58.3196 64.1143 58.2725 64.2344 58.2218C64.4702 58.1225 64.733 58.0117 65.0273 57.8856C66.6964 57.1708 67.6732 55.4791 67.4577 53.6761C67.4197 53.3581 67.3841 53.0753 67.3524 52.8212C67.2275 51.8252 67.1647 51.3253 67.228 50.9665C67.2914 50.6078 67.5212 50.1594 67.9793 49.2662C68.096 49.0384 68.2261 48.7848 68.3705 48.4992C69.1897 46.8786 68.8506 44.955 67.5265 43.7122ZM39.2384 48.4992C39.3828 48.7848 39.5129 49.0384 39.6296 49.2664C40.0877 50.1597 40.3176 50.6079 40.3808 50.9667C40.4441 51.3254 40.3814 51.8253 40.2565 52.8214C40.2301 53.032 40.2012 53.2635 40.1704 53.5172H31.6242L34.4722 50.3686C34.7135 50.1017 34.8133 49.7356 34.7406 49.3832L33.2895 42.3482L33.5718 42.6828C33.7874 42.9386 34.1038 43.0839 34.4347 43.0839C34.4701 43.0839 34.5058 43.0822 34.5415 43.0788C34.9101 43.0438 35.2382 42.8303 35.4194 42.5074L40.6048 33.2666C42.3071 34.0716 43.9284 35.0574 45.4417 36.2139C44.0925 36.6321 43.0465 37.7277 42.7109 39.1601C42.6378 39.4717 42.5744 39.7498 42.5175 39.9993C42.2943 40.978 42.1822 41.4693 42 41.7847C41.8178 42.1001 41.4485 42.4429 40.7125 43.1256C40.5248 43.2996 40.3158 43.4935 40.0823 43.7127C38.7584 44.9549 38.4193 46.8786 39.2384 48.4992ZM23.9138 39.9814L19.6451 32.3742C20.4364 32.0804 21.2452 31.8233 22.069 31.6034L27.4588 35.778L23.9138 39.9814ZM27.9235 38.7293L29.0805 37.3573L30.2373 38.7291L32.4133 49.2785L29.0804 52.9632L25.7475 49.2785L27.9235 38.7293ZM30.7025 35.778L36.0864 31.608C36.9072 31.8282 37.7162 32.087 38.5109 32.3834L34.2474 39.9814L30.7025 35.778ZM15.9953 15.3434C15.9953 8.12817 21.8654 2.25806 29.0807 2.25806C36.2959 2.25806 42.166 8.12817 42.166 15.3434C42.166 22.5567 36.299 28.4256 29.0863 28.4287C29.0843 28.4287 29.0825 28.4287 29.0805 28.4287C29.0787 28.4287 29.0768 28.4287 29.0749 28.4287C21.8623 28.4254 15.9953 22.5567 15.9953 15.3434ZM29.0807 30.6868H29.0863C30.4685 30.687 31.8375 30.7939 33.1841 30.9998L29.0805 34.1781L24.9737 30.9972C26.3123 30.7939 27.6816 30.687 29.0749 30.6868C29.0768 30.6866 29.0788 30.6868 29.0807 30.6868ZM17.5501 33.2552L22.7419 42.5071C22.9231 42.83 23.251 43.0436 23.6198 43.0786C23.6555 43.082 23.6911 43.0836 23.7267 43.0836C24.0575 43.0836 24.374 42.9381 24.5895 42.6826L24.8716 42.3481L23.4205 49.3831C23.3479 49.7356 23.4475 50.1016 23.689 50.3686L26.5369 53.5172L2.41437 53.5173C3.80985 44.4381 9.64115 36.9798 17.5501 33.2552ZM47.9754 66.7354L46.7967 64.7068C46.5592 64.2981 46.0924 64.0809 45.6262 64.1619L43.3152 64.5657L45.5831 59.6944C45.7354 59.9161 45.9141 60.1927 46.1399 60.5423C46.2787 60.7572 46.4334 60.9967 46.6086 61.2647C47.3162 62.3466 48.451 62.9939 49.673 63.0891L47.9754 66.7354ZM61.9828 64.1619C61.5171 64.0805 61.0498 64.2978 60.8123 64.7068L59.6336 66.7353L57.9368 63.0906C59.1586 62.9952 60.2931 62.3464 61.0004 61.2646C61.1756 60.9967 61.3303 60.7572 61.4691 60.5423C61.6949 60.1925 61.8736 59.9161 62.0259 59.6944L64.2938 64.5657L61.9828 64.1619ZM66.3553 47.4805C66.213 47.7618 66.085 48.0116 65.97 48.2358C64.8452 50.4293 64.8053 50.6566 65.1119 53.1022C65.1433 53.3523 65.1783 53.6309 65.2157 53.9439C65.3128 54.7556 64.8898 55.488 64.1384 55.8098C63.8486 55.9338 63.5899 56.0429 63.3576 56.1409C61.0863 57.0982 60.9093 57.2465 59.5722 59.3173C59.4355 59.529 59.2833 59.7648 59.1107 60.0287C58.6634 60.7127 57.8684 61.0021 57.0862 60.7655C56.7845 60.6744 56.5162 60.5915 56.2753 60.5171C55.0976 60.1537 54.4511 59.9721 53.8046 59.9721C53.1581 59.9721 52.5114 60.1539 51.3338 60.5171C51.0929 60.5915 50.8248 60.6742 50.5229 60.7655C49.7406 61.0015 48.9458 60.7127 48.4984 60.0287C48.3258 59.7648 48.1737 59.529 48.0369 59.3173C46.6997 57.2466 46.5229 57.0982 44.2516 56.1409C44.0193 56.0431 43.7606 55.934 43.4707 55.8098C42.7193 55.488 42.2965 54.7556 42.3935 53.9439C42.4309 53.6309 42.4659 53.3523 42.4972 53.1022C42.8039 50.6566 42.7639 50.4293 41.639 48.2358C41.524 48.0116 41.396 47.7618 41.2537 47.4805C40.8849 46.751 41.0319 45.9181 41.6277 45.3588C41.8576 45.143 42.0634 44.952 42.2482 44.7806C44.0553 43.1044 44.1707 42.9044 44.719 40.5011C44.775 40.2554 44.8375 39.9818 44.9094 39.6748C45.0958 38.8789 45.7437 38.3352 46.5599 38.2899C46.8747 38.2723 47.1552 38.2585 47.4069 38.2459C49.8686 38.1233 50.0856 38.0442 52.0505 36.5556C52.2513 36.4035 52.475 36.234 52.7273 36.045C53.3819 35.5551 54.2274 35.5553 54.8818 36.045C55.1343 36.2338 55.358 36.4035 55.5589 36.5557C57.5236 38.0441 57.7405 38.1231 60.2022 38.2457C60.454 38.2583 60.7344 38.2723 61.0493 38.2898C61.8654 38.3351 62.5133 38.8787 62.6998 39.6747C62.7718 39.9816 62.8341 40.2554 62.8903 40.5011C63.4386 42.9041 63.554 43.1041 65.361 44.7804C65.5459 44.9519 65.7517 45.1427 65.9814 45.3585C66.5773 45.9181 66.7242 46.751 66.3553 47.4805ZM53.8044 39.8092C49.1434 39.8092 45.3512 43.6013 45.3512 48.2622C45.3512 52.9231 49.1434 56.7153 53.8044 56.7153C58.4655 56.7153 62.2576 52.9233 62.2576 48.2624C62.2576 43.6014 58.4656 39.8092 53.8044 39.8092ZM53.8044 54.4573C50.3884 54.4573 47.6093 51.6782 47.6093 48.2624C47.6093 44.8465 50.3884 42.0674 53.8044 42.0674C57.2205 42.0674 59.9996 44.8465 59.9996 48.2624C59.9996 51.6782 57.2205 54.4573 53.8044 54.4573Z" fill="#048DEF"></path></svg>