<svg xmlns="http://www.w3.org/2000/svg" width="69" height="64" viewBox="0 0 69 64" fill="none"><path d="M54.0755 43.6682H12.0703C5.64688 43.6682 0.220703 38.061 0.220703 31.4244C0.220703 26.2234 3.55254 21.7168 8.43268 20.1543C9.19044 8.7794 18.4988 0 30.0134 0C39.1342 0 47.3369 5.83892 50.3858 14.3467C51.6005 14.0274 52.8365 13.8656 54.0755 13.8656C62.1827 13.8656 68.7793 20.4622 68.7793 28.5694C68.7793 36.7536 62.0451 43.6682 54.0755 43.6682ZM30.0141 2.49211C19.5502 2.49211 11.1458 10.6848 10.882 21.1444L10.8578 22.106L9.92182 22.3263C5.67754 23.325 2.71281 27.0667 2.71281 31.4251C2.71281 36.7108 6.99844 41.1768 12.0703 41.1768H54.0755C60.695 41.1768 66.2879 35.4042 66.2879 28.5701C66.2879 21.8366 60.8097 16.3584 54.0755 16.3584C52.7032 16.3584 51.331 16.5979 49.9966 17.0719L48.7555 17.5118L48.3848 16.2479C46.0132 8.14854 38.4585 2.49211 30.0141 2.49211Z" fill="#048DEF"></path><path d="M17.2075 22.4894H9.73265C9.04404 22.4894 8.4873 21.9313 8.4873 21.2434C8.4873 20.5555 9.04404 19.998 9.73265 19.998H17.2075C17.8962 19.998 18.4536 20.5555 18.4536 21.2434C18.4536 21.9313 17.8962 22.4894 17.2075 22.4894Z" fill="#048DEF"></path><path d="M62.8129 28.1223C62.2875 28.1223 61.8 27.788 61.6282 27.2619C60.4562 23.6613 57.1244 21.2433 53.3349 21.2433C52.6463 21.2433 52.0889 20.6852 52.0889 19.9973C52.0889 19.3094 52.6463 18.752 53.3349 18.752C58.2058 18.752 62.4921 21.8621 63.9977 26.4906C64.2108 27.145 63.853 27.8471 63.1986 28.0603C63.071 28.1023 62.9412 28.1223 62.8129 28.1223Z" fill="#048DEF"></path><path d="M17.076 63.8622C12.533 63.8622 9.31023 61.6973 8.00359 57.7652C7.8767 57.386 7.94157 56.9682 8.17609 56.6439C8.40991 56.3188 8.78558 56.1264 9.1862 56.1264H15.9611V53.635H9.12774C8.72997 53.635 8.35502 53.4446 8.12121 53.1232C7.88668 52.8017 7.81967 52.3875 7.94157 52.0083C9.23823 47.9664 12.6535 45.5527 17.076 45.5527C21.1927 45.5527 24.4311 47.6243 25.9088 51.1429H40.4951C41.9728 47.6243 45.212 45.5527 49.3272 45.5527C53.7761 45.5527 57.1999 47.9679 58.483 52.0118C58.6035 52.3911 58.5358 52.8038 58.3005 53.1246C58.0667 53.4446 57.6939 53.635 57.2954 53.635H52.0888V56.1264H57.1971C57.5984 56.1264 57.9741 56.3188 58.2079 56.6453C58.4424 56.9704 58.5058 57.3895 58.3782 57.7695C57.063 61.6787 53.8488 63.8315 49.3272 63.8315C45.2462 63.8315 42.2173 61.9881 40.7061 58.6178H25.6957C24.1802 62.0088 21.1527 63.8622 17.076 63.8622ZM11.1522 58.6185C12.6285 60.8504 15.0964 61.3708 17.076 61.3708C20.4299 61.3708 22.6497 59.8873 23.6769 56.9604C23.8516 56.4614 24.3228 56.1271 24.8517 56.1271H41.5508C42.0797 56.1271 42.5509 56.4614 42.7256 56.9604C43.7449 59.8667 45.9655 61.3408 49.3272 61.3408C52.0603 61.3408 54.0377 60.4263 55.2296 58.6185H50.8427C50.1541 58.6185 49.5967 58.061 49.5967 57.3724V52.3896C49.5967 51.7017 50.1541 51.1436 50.8427 51.1436H55.3722C54.1468 49.154 52.0218 48.0456 49.3272 48.0456C45.9754 48.0456 43.5047 49.7657 42.5502 52.7674C42.3863 53.2843 41.9058 53.6357 41.3633 53.6357H25.0406C24.4974 53.6357 24.0169 53.2843 23.853 52.7674C22.8992 49.7657 20.4285 48.0456 17.0753 48.0456C14.3999 48.0456 12.2856 49.154 11.056 51.1436H17.2064C17.895 51.1436 18.4525 51.7017 18.4525 52.3896V57.3724C18.4525 58.061 17.895 58.6185 17.2064 58.6185H11.1522Z" fill="#048DEF"></path></svg>