<svg xmlns="http://www.w3.org/2000/svg" width="60" height="55" viewBox="0 0 60 55" fill="none"><path d="M55.7396 3.27409C52.9837 1.18951 48.9088 0 44.5394 0C40.7236 0 37.1315 0.906852 34.4227 2.53212C31.6197 4.22805 30.0769 6.50107 30.0769 8.96253C30.0769 9.22163 30.1004 9.48073 30.1358 9.73983H4.82635C2.42378 9.73983 0.46875 11.6949 0.46875 14.0974V37.7463C0.46875 40.1488 2.42378 42.1039 4.82635 42.1039H19.0298V42.1745V50.7837V50.8544H15.1315C13.9891 50.8544 13.0587 51.7848 13.0587 52.9272C13.0587 54.0696 13.9891 55 15.1315 55H33.1508C34.2932 55 35.2236 54.0696 35.2236 52.9272C35.2236 51.7848 34.2932 50.8544 33.1508 50.8544H29.2525C29.2525 50.8308 29.2525 50.8073 29.2525 50.7837V42.1745C29.2525 42.151 29.2525 42.1274 29.2525 42.1039H43.4795C45.882 42.1039 47.8371 40.1488 47.8371 37.7463V17.7013C50.8403 17.2773 53.5726 16.2527 55.5747 14.7923C57.7889 13.1788 59.0137 11.1178 59.0137 8.96253C59.0019 6.88972 57.8478 4.86403 55.7396 3.27409ZM4.82635 10.9176H30.4184C30.9249 12.3426 31.9848 13.6734 33.5159 14.7805V23.0011C33.5159 23.4251 33.775 23.8137 34.1636 23.9786C34.2932 24.0257 34.4227 24.061 34.5523 24.061C34.8231 24.061 35.094 23.955 35.2942 23.7548L41.2771 17.7131L41.7717 17.7719C43.3617 17.9604 45.0458 17.9839 46.6593 17.8426V34.2013H1.65826V14.0974C1.65826 12.3426 3.08331 10.9176 4.82635 10.9176ZM34.0576 52.939C34.0576 53.4336 33.6572 53.834 33.1625 53.834H15.1433C14.6486 53.834 14.2482 53.4336 14.2482 52.939C14.2482 52.4443 14.6486 52.0439 15.1433 52.0439H20.2899H28.0276H33.1743C33.6572 52.0439 34.0576 52.4443 34.0576 52.939ZM28.0983 42.1745V50.7837C28.0983 50.8191 28.063 50.8544 28.0276 50.8544H20.2899C20.2546 50.8544 20.2193 50.8191 20.2193 50.7837V42.1745C20.2193 42.1392 20.2546 42.1039 20.2899 42.1039H28.0276C28.063 42.1039 28.0983 42.1392 28.0983 42.1745ZM43.4795 40.9261H28.0276H20.2899H4.82635C3.07153 40.9261 1.64648 39.5011 1.64648 37.7463V35.3672H46.6593V37.7463C46.6593 39.5011 45.2343 40.9261 43.4795 40.9261ZM47.1775 16.5942C45.458 16.8062 43.6326 16.8062 41.9013 16.5942L41.1122 16.5C40.912 16.4764 40.7118 16.5589 40.5822 16.712L40.5469 16.7591L34.6818 22.6831V14.4743C34.6818 14.2859 34.5876 14.0974 34.4227 13.9914C32.3735 12.5782 31.2428 10.788 31.2428 8.96253C31.2428 6.93683 32.5855 5.01713 35.0234 3.54497C37.5555 2.01392 40.9356 1.17773 44.5276 1.17773C48.6497 1.17773 52.4655 2.2848 55.0212 4.21627C56.8585 5.59422 57.8242 7.24304 57.8242 8.96253C57.8242 12.6488 53.3488 15.864 47.1775 16.5942Z" fill="#048DEF"></path><path d="M49.1317 6.78292H46.8469V4.49812C46.8469 4.05058 46.4818 3.69727 46.046 3.69727H43.0428C42.5953 3.69727 42.242 4.06236 42.242 4.49812V6.78292H39.9454C39.4978 6.78292 39.1445 7.14802 39.1445 7.58378V10.587C39.1445 11.0345 39.5096 11.3878 39.9454 11.3878H42.2302V13.6726C42.2302 14.1202 42.5953 14.4735 43.031 14.4735H46.0343C46.4818 14.4735 46.8351 14.1084 46.8351 13.6726V11.3878H49.1317C49.5792 11.3878 49.9325 11.0227 49.9325 10.587V7.58378C49.9325 7.14802 49.5792 6.78292 49.1317 6.78292ZM48.7548 10.2219H46.47C46.0225 10.2219 45.6692 10.587 45.6692 11.0227V13.3075H43.4079V11.0227C43.4079 10.5752 43.0428 10.2219 42.6071 10.2219H40.3223V7.96065H42.6071C43.0546 7.96065 43.4079 7.59555 43.4079 7.15979V4.875H45.6692V7.15979C45.6692 7.60733 46.0343 7.96065 46.47 7.96065H48.7548V10.2219Z" fill="#048DEF"></path></svg>