<svg xmlns="http://www.w3.org/2000/svg" width="64" height="64" viewBox="0 0 64 64" fill="none"><path d="M57.1891 12.4573V9.97079C57.0896 -2.36216 39.5848 -3.35675 37.4961 7.98161C33.5178 7.18593 29.6389 9.97079 29.1416 13.8497H22.08V1.01946C22.08 0.62162 21.881 0.323243 21.4832 0.124324C21.1848 -0.0745945 20.6875 0.0248648 20.3892 0.223783C17.5048 2.51135 14.72 2.51135 11.5373 0.223783C11.1394 -0.0745945 10.7416 -0.0745945 10.3438 0.223783C7.16107 2.51135 4.37621 2.51135 1.49189 0.223783C1.29297 0.0248648 0.895134 -0.0745945 0.596756 0.124324C0.198919 0.323243 0 0.62162 0 1.01946V14.8443C0 19.2205 2.48648 22.0054 5.07242 23.6962V52.7383C5.07242 54.3296 6.36539 55.6226 7.95674 55.6226H22.5773V61.6896H20.9859C20.3892 61.6896 19.9913 62.0875 19.9913 62.6842C19.9913 63.281 20.3892 63.6788 20.9859 63.6788H42.5686C43.1653 63.6788 43.5632 63.281 43.5632 62.6842C43.5632 62.0875 43.1653 61.6896 42.5686 61.6896H40.9772V55.6226H55.5977C57.1891 55.6226 58.4821 54.3296 58.4821 52.7383V26.7794C61.068 25.8843 63.1566 23.6962 63.5545 20.9113C64.1512 16.734 61.2669 12.9546 57.1891 12.4573ZM1.98919 14.8443V2.90918C4.8735 4.50053 7.95674 4.30161 11.04 2.21297C14.1232 4.20215 17.2065 4.50053 20.0908 2.90918V14.8443C20.0908 21.6075 12.4324 23.7956 11.04 24.1935C10.4432 23.9945 8.45404 23.4973 6.56431 22.3037C6.56431 22.3037 6.56431 22.3037 6.46485 22.3037C4.17729 20.9113 1.98919 18.5243 1.98919 14.8443ZM38.988 61.6896H24.6659V55.6226H39.0875V61.6896H38.988ZM55.5977 53.6334H8.0562C7.55891 53.6334 7.16107 53.2356 7.16107 52.7383V49.2572H56.5923V52.7383C56.5923 53.2356 56.1945 53.6334 55.5977 53.6334ZM56.5923 47.1686H7.06161V24.8897C9.05079 25.8843 10.7416 26.2821 10.7416 26.2821H11.1394C11.2389 26.2821 21.0854 24.094 21.881 15.9383H26.2572C24.0691 17.5297 23.174 20.0162 23.6713 22.4032C24.2681 25.1881 26.854 27.2767 29.8378 27.2767H55.8961H56.3934V47.1686H56.5923ZM61.5653 20.6129C61.1675 23.1989 58.7804 25.1881 55.9956 25.1881H30.0367C27.9481 25.1881 26.1578 23.7956 25.76 21.9059C25.1632 19.0216 27.6497 16.5351 30.0367 16.734C30.3351 16.734 30.6335 16.6346 30.8324 16.4356C31.0313 16.2367 31.1308 15.9383 31.1308 15.64C30.534 11.7611 34.4129 8.77728 37.9934 10.1697C38.2918 10.2692 38.5902 10.2692 38.8886 10.0703C39.187 9.87133 39.2864 9.57295 39.3859 9.27458C40.1815 -0.67135 55.1999 -0.372972 55.2994 9.97079V13.3524C55.2994 13.9492 55.6972 14.347 56.294 14.347C59.4766 14.347 62.0626 17.2313 61.5653 20.6129Z" fill="#0369CA"></path><path d="M8.25361 19.6184C8.65145 20.0162 9.2482 20.0162 9.64604 19.6184L17.5033 11.7611C17.9012 11.3633 17.9012 10.7665 17.5033 10.3687C17.1055 9.97085 16.5087 9.97085 16.1109 10.3687L8.94983 17.5298L5.86659 14.4465C5.46875 14.0487 4.872 14.0487 4.47416 14.4465C4.07632 14.8444 4.07632 15.4411 4.47416 15.839L8.25361 19.6184Z" fill="#0369CA"></path><path d="M30.3357 35.2342C30.3357 32.3499 27.9486 29.9629 25.0643 29.9629C22.18 29.9629 19.793 32.3499 19.793 35.2342C19.793 36.925 20.5886 38.4169 21.8816 39.4115L20.9865 43.4894C20.887 43.7877 20.9865 44.0861 21.1854 44.285C21.3843 44.4839 21.6827 44.6829 21.9811 44.6829H28.247C28.5454 44.6829 28.8438 44.5834 29.0427 44.285C29.2416 44.0861 29.3411 43.6883 29.2416 43.4894L28.3465 39.4115C29.54 38.4169 30.3357 36.8256 30.3357 35.2342ZM26.6557 38.0191C26.2578 38.218 26.0589 38.7153 26.1584 39.1131L26.954 42.5942H23.274L24.0697 39.1131C24.1692 38.7153 23.9703 38.218 23.5724 38.0191C22.4784 37.4223 21.8816 36.3283 21.8816 35.1348C21.8816 33.3445 23.3735 31.8526 25.1638 31.8526C26.954 31.8526 28.4459 33.3445 28.4459 35.1348C28.3465 36.4277 27.7497 37.5218 26.6557 38.0191Z" fill="#0369CA"></path></svg>