<svg xmlns="http://www.w3.org/2000/svg" width="56" height="54" viewBox="0 0 56 54" fill="none"><path d="M42.3442 27.6387C35.2188 27.6387 29.4219 33.4356 29.4219 40.561C29.4219 47.6864 35.2188 53.4833 42.3442 53.4833C49.4695 53.4833 55.2664 47.6864 55.2664 40.561C55.2664 33.4356 49.4695 27.6387 42.3442 27.6387ZM42.3442 51.8642C36.1115 51.8642 31.041 46.7936 31.041 40.561C31.041 34.3284 36.1115 29.2578 42.3442 29.2578C48.5767 29.2578 53.6473 34.3283 53.6473 40.561C53.6473 46.7935 48.5767 51.8642 42.3442 51.8642Z" fill="#0369CA"></path><path d="M27.6306 34.6076H3.40512C2.42026 34.6076 1.61912 33.8064 1.61912 32.8216V8.54054H41.5293V25.035C41.5293 25.482 41.8917 25.8445 42.3388 25.8445C42.7859 25.8445 43.1484 25.482 43.1484 25.035V3.40512C43.1484 1.52748 41.6208 5.72011e-09 39.7433 5.72011e-09H3.40512C1.52759 -0.000107936 0 1.52748 0 3.40512V32.8216C0 34.6993 1.52759 36.2267 3.40512 36.2267H27.6305C28.0776 36.2267 28.4401 35.8643 28.4401 35.4172C28.4401 34.9701 28.0777 34.6076 27.6306 34.6076ZM3.40512 1.61901H39.7432C40.728 1.61901 41.5292 2.42026 41.5292 3.40501V6.92142H1.61912V3.40512C1.61912 2.42026 2.42037 1.61901 3.40512 1.61901Z" fill="#0369CA"></path><path d="M4.2705 5.08006H5.13576C5.58285 5.08006 5.94532 4.71759 5.94532 4.2705C5.94532 3.8234 5.58285 3.46094 5.13576 3.46094H4.2705C3.8234 3.46094 3.46094 3.8234 3.46094 4.2705C3.46094 4.71759 3.8233 5.08006 4.2705 5.08006Z" fill="#0369CA"></path><path d="M12.9228 5.08006H38.8786C39.3257 5.08006 39.6882 4.71759 39.6882 4.2705C39.6882 3.8234 39.3257 3.46094 38.8786 3.46094H12.9228C12.4757 3.46094 12.1133 3.8234 12.1133 4.2705C12.1133 4.71759 12.4757 5.08006 12.9228 5.08006Z" fill="#0369CA"></path><path d="M8.59862 5.08006H9.46377C9.91087 5.08006 10.2733 4.71759 10.2733 4.2705C10.2733 3.8234 9.91087 3.46094 9.46377 3.46094H8.59862C8.15153 3.46094 7.78906 3.8234 7.78906 4.2705C7.78906 4.71759 8.15153 5.08006 8.59862 5.08006Z" fill="#0369CA"></path><path d="M43.8431 39.7809C43.616 39.7006 43.3837 39.6165 43.1521 39.529V35.8059C43.7272 35.9481 44.0696 36.2382 44.1003 36.2652C44.4292 36.563 44.9372 36.5406 45.2387 36.2138C45.5418 35.8851 45.5212 35.3729 45.1925 35.0698C45.1473 35.0282 44.3909 34.3464 43.1521 34.1563V33.4033C43.1521 32.9562 42.7896 32.5938 42.3425 32.5938C41.8954 32.5938 41.533 32.9562 41.533 33.4033V34.2184C41.4186 34.2438 41.3029 34.2728 41.1845 34.3085C40.0433 34.6523 39.1905 35.6287 38.9591 36.8569C38.748 37.9772 39.1073 39.0578 39.8967 39.677C40.3117 40.0025 40.8276 40.3007 41.533 40.6153V45.3483C40.9317 45.3017 40.5096 45.1507 39.8232 44.7016C39.4489 44.4567 38.9472 44.5617 38.7025 44.9359C38.4577 45.31 38.5626 45.8118 38.9368 46.0565C39.9492 46.7188 40.6422 46.9189 41.533 46.9706V47.8141C41.533 48.2612 41.8954 48.6237 42.3425 48.6237C42.7896 48.6237 43.1521 48.2612 43.1521 47.8141V46.9057C44.9329 46.5506 45.9729 45.0793 46.2039 43.7051C46.5018 41.9336 45.5751 40.3932 43.8431 39.7809ZM40.896 38.403C40.584 38.1583 40.4516 37.6808 40.5503 37.1568C40.6379 36.6917 40.9417 36.1335 41.533 35.9001V38.8126C41.2937 38.6815 41.0771 38.5451 40.896 38.403ZM44.6072 43.4369C44.4869 44.1528 43.9915 44.9113 43.1522 45.2213V41.2533C43.2027 41.2714 43.2518 41.2893 43.3036 41.3075C44.7589 41.822 44.6694 43.0674 44.6072 43.4369Z" fill="#0369CA"></path><path d="M31.9073 26.7661V24.847C32.912 24.5081 33.6377 23.5575 33.6377 22.4401V20.7097C33.6377 19.5922 32.912 18.6416 31.9073 18.3028V16.3837C31.9073 14.9832 30.7679 13.8438 29.3673 13.8438H13.7939C12.3933 13.8438 11.2539 14.9832 11.2539 16.3837V26.7661C11.2539 28.1666 12.3933 29.306 13.7939 29.306H29.3673C30.7679 29.306 31.9073 28.1666 31.9073 26.7661ZM32.0186 22.4401C32.0186 22.9479 31.6055 23.3609 31.0977 23.3609H28.4465V19.7888H31.0977C31.6055 19.7888 32.0186 20.2019 32.0186 20.7097V22.4401ZM25.9066 23.3609C25.3989 23.3609 24.9858 22.9479 24.9858 22.4401V20.7097C24.9858 20.2019 25.3989 19.7888 25.9066 19.7888H26.8275V23.3609H25.9066ZM29.3673 27.6869H13.7939C13.2861 27.6869 12.873 27.2738 12.873 26.7661V16.3837C12.873 15.876 13.2861 15.4629 13.7939 15.4629H29.3673C29.8751 15.4629 30.2882 15.876 30.2882 16.3837V18.1697H25.9065C24.506 18.1697 23.3665 19.3091 23.3665 20.7097V22.4401C23.3665 23.8406 24.506 24.9801 25.9065 24.9801H30.2882V26.7661C30.2882 27.2738 29.8751 27.6869 29.3673 27.6869Z" fill="#0369CA"></path></svg>