<svg xmlns="http://www.w3.org/2000/svg" width="61" height="60" viewBox="0 0 61 60" fill="none"><path d="M26.723 6.7534V5.53418C26.723 5.04926 27.115 4.65727 27.6 4.65727C28.0849 4.65727 28.4803 5.04926 28.4803 5.53418V6.7534H30.4368V5.53418C30.4368 5.04926 30.8321 4.65727 31.3171 4.65727C31.8022 4.65727 32.1975 5.04926 32.1975 5.53418V6.85641C32.8883 7.02246 33.5129 7.37789 34.0012 7.86621C34.6955 8.55387 35.124 9.50051 35.124 10.5403C35.124 11.6732 34.6125 12.7294 33.7454 13.4503C34.6123 14.1711 35.124 15.2276 35.124 16.357C35.124 17.4001 34.6955 18.3468 34.0012 19.0344C33.5129 19.5227 32.8884 19.8783 32.1975 20.0443V21.3664C32.1975 21.8515 31.8022 22.2434 31.3171 22.2434C30.8321 22.2434 30.4368 21.8514 30.4368 21.3664V20.1473H28.4803V21.3664C28.4803 21.8515 28.0849 22.2434 27.6 22.2434C27.1149 22.2434 26.723 21.8514 26.723 21.3664V20.1473H23.5473C23.0622 20.1473 22.667 19.7521 22.667 19.267C22.667 18.782 23.0622 18.39 23.5473 18.39H24.5272V13.4503V8.51062H23.5473C23.0622 8.51062 22.667 8.11863 22.667 7.63371C22.667 7.14867 23.0622 6.7534 23.5473 6.7534H26.723ZM17.6809 23.9109C17.2224 23.3627 16.8039 22.7781 16.4319 22.1636H4.88492C4.1641 22.1636 3.50633 22.4592 3.03137 22.9376C2.55301 23.4127 2.25746 24.0704 2.25746 24.7913C2.25746 25.5121 2.55312 26.1664 3.03137 26.6448C3.50645 27.1198 4.1641 27.4155 4.88492 27.4155H55.5338V22.1636H41.3625C40.9871 22.7781 40.5686 23.3627 40.1102 23.9109H52.9059C53.3943 23.9109 53.7863 24.3062 53.7863 24.7913C53.7863 25.2763 53.3943 25.6682 52.9059 25.6682H4.88492C4.39988 25.6682 4.00461 25.2762 4.00461 24.7913C4.00461 24.3062 4.39988 23.9109 4.88492 23.9109H17.6809ZM15.5182 20.4063C14.7409 18.6225 14.309 16.656 14.309 14.5863C14.309 10.5602 15.9403 6.91289 18.5811 4.27184C21.2219 1.6343 24.8694 0 28.8956 0C31.0515 0 33.1044 0.47168 34.9514 1.31543C36.8715 2.19246 38.5624 3.47145 39.9242 5.04598C40.2431 5.41137 40.2032 5.96285 39.8379 6.2816C39.4692 6.5973 38.9177 6.55746 38.5988 6.19195C37.3998 4.8068 35.9115 3.68063 34.2239 2.91C32.6061 2.16926 30.8023 1.75734 28.8956 1.75734C25.3543 1.75734 22.1455 3.1957 19.8235 5.51437C17.5016 7.83645 16.0665 11.0454 16.0665 14.5864C16.0665 16.4334 16.4551 18.1874 17.156 19.772C17.8503 21.3432 18.8502 22.7483 20.0826 23.9111H37.7086C38.941 22.745 39.9441 21.3366 40.6385 19.762C41.336 18.1807 41.7247 16.4302 41.7247 14.5864C41.7247 13.6563 41.6285 12.7561 41.4424 11.8891C41.2531 10.9955 40.9673 10.1385 40.602 9.32461C40.4027 8.8827 40.5986 8.36461 41.0404 8.16527C41.4822 7.96594 42.0038 8.16199 42.203 8.60379C42.6184 9.53062 42.9405 10.5073 43.1598 11.5238C43.3725 12.517 43.482 13.5401 43.482 14.5864C43.482 16.6527 43.0535 18.6226 42.2729 20.4064H56.4143C56.8993 20.4064 57.2912 20.8017 57.2912 21.2868V36.232C58.1648 36.232 58.9521 36.5375 59.5733 37.1588C60.1447 37.7334 60.5001 38.5207 60.5001 39.3878V41.1484C60.5001 41.6334 60.108 42.0287 59.6232 42.0287C59.1382 42.0287 58.7428 41.6333 58.7428 41.1484V39.3878C58.7428 39.0025 58.5867 38.6536 58.3343 38.4013C58.0818 38.1488 57.733 37.9894 57.3478 37.9894H42.8009C42.4156 37.9894 42.0635 38.1488 41.8111 38.4013C41.5586 38.6537 41.4025 39.0025 41.4025 39.3878V46.8953C41.4025 47.2773 41.5586 47.6261 41.8111 47.8786C42.0635 48.1311 42.4156 48.2905 42.8009 48.2905H57.3477C57.7329 48.2905 58.0817 48.131 58.3341 47.8786C58.5866 47.6262 58.7427 47.2774 58.7427 46.8953V45.1312C58.7427 44.6463 59.138 44.2509 59.6231 44.2509C60.108 44.2509 60.5 44.6463 60.5 45.1312V46.8952C60.5 47.7588 60.1446 48.5495 59.5732 49.1209C58.952 49.7421 58.1648 50.0477 57.2911 50.0477V54.8213C57.2911 56.4191 56.9422 57.6914 56.0952 58.6016C55.248 59.5184 53.9625 60 52.1122 60H30.49C30.005 60 29.6097 59.608 29.6097 59.1231C29.6097 58.6382 30.005 58.2428 30.49 58.2428H52.1122C53.4377 58.2428 54.3046 57.9538 54.8129 57.409C55.3211 56.8576 55.5338 55.9806 55.5338 54.8213V50.0477H42.8009C41.934 50.0477 41.1467 49.6923 40.5753 49.1209C40.0007 48.5495 39.6453 47.7588 39.6453 46.8952V39.3877C39.6453 38.5207 40.0007 37.7334 40.5753 37.1586C41.1467 36.5872 41.934 36.2319 42.8009 36.2319H55.5338V29.1729H4.88492C3.9016 29.1729 2.99141 28.8473 2.25734 28.296V55.6185C2.25734 56.3393 2.55301 56.9937 3.03125 57.472C3.50633 57.9471 4.16398 58.2428 4.8848 58.2428H26.5071C26.9921 58.2428 27.3874 58.638 27.3874 59.1231C27.3874 59.6081 26.9921 60 26.5072 60H4.88492C3.67906 60 2.58277 59.5084 1.78895 58.7145C0.991602 57.9205 0.5 56.8243 0.5 55.6185V24.7913C0.5 23.5854 0.991602 22.4891 1.78895 21.6953C2.58277 20.898 3.67906 20.4063 4.88492 20.4063H15.5182ZM47.1228 39.9225C48.0097 39.9225 48.8137 40.2846 49.395 40.8659C49.9763 41.4472 50.3384 42.2511 50.3384 43.1414C50.3384 44.0283 49.9763 44.8323 49.395 45.4137C48.8137 45.9983 48.0098 46.357 47.1228 46.357C46.2325 46.357 45.4285 45.9983 44.8473 45.4137C44.2659 44.8323 43.9038 44.0284 43.9038 43.1414C43.9038 42.2511 44.2659 41.4472 44.8473 40.8659C45.4285 40.2846 46.2325 39.9225 47.1228 39.9225ZM48.1525 42.1083C47.8902 41.8459 47.5248 41.6797 47.1228 41.6797C46.7176 41.6797 46.3522 41.8458 46.0898 42.1083C45.8273 42.3741 45.6611 42.7361 45.6611 43.1414C45.6611 43.5434 45.8273 43.9088 46.0898 44.1712C46.3522 44.437 46.7176 44.5997 47.1228 44.5997C47.5248 44.5997 47.8902 44.4369 48.1525 44.1712C48.4183 43.9089 48.5811 43.5434 48.5811 43.1414C48.5811 42.7362 48.4183 42.3741 48.1525 42.1083ZM31.3173 14.3272H26.2846V18.3899H31.3173C31.8819 18.3899 32.3968 18.1607 32.7655 17.7919C33.1375 17.4232 33.3668 16.9182 33.3668 16.3602C33.3668 15.7989 33.1375 15.2939 32.7655 14.9251C32.3967 14.5564 31.8819 14.3272 31.3173 14.3272ZM31.3173 8.51062H26.2846V12.57H31.3173C31.8819 12.57 32.3968 12.3441 32.7655 11.9754C33.1375 11.6067 33.3668 11.0985 33.3668 10.5403C33.3668 9.98215 33.1375 9.4773 32.7655 9.10852C32.3967 8.73984 31.8819 8.51062 31.3173 8.51062Z" fill="#048DEF"></path></svg>