<svg xmlns="http://www.w3.org/2000/svg" width="53" height="53" viewBox="0 0 53 53" fill="none"><path d="M45.749 4.9462C45.2983 4.49613 44.5704 4.49613 44.1197 4.9462L39.1735 9.8924V1.15216C39.1735 0.516448 38.6588 0 38.0214 0H12.6738C12.3683 0 12.0746 0.120955 11.8592 0.337548L0.337548 11.8592C0.120955 12.0746 0 12.3689 0 12.6738V51.8473C0 52.4836 0.516448 52.9995 1.15216 52.9995H44.9343C45.5717 52.9995 46.0865 52.4836 46.0865 51.8473C46.0865 51.2116 45.5717 50.6951 44.9343 50.6951H39.1735V26.9768L52.6619 13.4884C53.1126 13.0378 53.1126 12.3098 52.6619 11.8592L45.749 4.9462ZM37.209 25.6829C37.2079 25.684 37.2056 25.6862 37.2045 25.6874L21.414 41.4778H16.1303V36.1941L39.1735 13.1509L44.4573 18.4346L37.209 25.6829ZM13.1509 2.30432H13.826V13.8259H2.30433V13.1509L13.1509 2.30432ZM36.8692 50.6951H2.30433V16.1303H14.9781C15.6138 16.1303 16.1303 15.6144 16.1303 14.9781V2.30432H36.8692V12.1967L14.1635 34.9024C13.9469 35.1179 13.826 35.4121 13.826 35.717V41.4778H10.3695C9.73375 41.4778 9.2173 41.9943 9.2173 42.63C9.2173 43.2663 9.73375 43.7822 10.3695 43.7822H28.8041C29.4415 43.7822 29.9562 43.2663 29.9562 42.63C29.9562 41.9943 29.4415 41.4778 28.8041 41.4778H24.6725L36.8692 29.2811V50.6951ZM46.0865 16.8054L40.8028 11.5216L44.9343 7.39004L50.2181 12.6738L46.0865 16.8054Z" fill="#0369CA"></path></svg>