<svg xmlns="http://www.w3.org/2000/svg" width="62" height="62" viewBox="0 0 62 62" fill="none"><path d="M61 56.7025H5.2975V1C5.2975 0.44775 4.84975 0 4.2975 0H1C0.44775 0 0 0.44775 0 1V61C0 61.5522 0.44775 62 1 62H61C61.5522 62 62 61.5522 62 61V57.7025C62 57.1503 61.5522 56.7025 61 56.7025ZM60 60H2V2H3.2975V57.7025C3.2975 58.2548 3.74525 58.7025 4.2975 58.7025H60V60ZM15.7609 41.338L16.7215 39.674C16.877 39.4047 17.1488 39.2231 17.457 39.1825C17.7651 39.1424 18.0749 39.247 18.2946 39.4669L19.6532 40.8255C20.0437 41.216 20.0437 41.8491 19.6532 42.2396C19.2627 42.6301 18.6296 42.6301 18.2391 42.2396L17.802 41.8025L17.493 42.3378C17.3079 42.6585 16.9716 42.8379 16.626 42.8379C16.4564 42.8379 16.2845 42.7946 16.1269 42.7037C15.6486 42.4279 15.4848 41.8163 15.7609 41.338ZM34.9459 30.2966C35.4794 30.4396 35.796 30.9879 35.653 31.5214L35.1557 33.3773C35.036 33.824 34.632 34.1188 34.1904 34.1188C34.1046 34.1188 34.0176 34.1076 33.931 34.0845C33.3975 33.9415 33.0809 33.3932 33.2239 32.8597L33.7211 31.0039C33.8641 30.4702 34.4127 30.1537 34.9459 30.2966ZM26.4826 49.0691C26.2874 49.2644 26.0315 49.362 25.7755 49.362C25.5195 49.362 25.2636 49.2644 25.0684 49.0691L23.7097 47.7105C23.3192 47.32 23.3192 46.6869 23.7097 46.2964C24.1002 45.9059 24.7334 45.9059 25.1239 46.2964L26.4825 47.655C26.8731 48.0455 26.8731 48.6786 26.4826 49.0691ZM30.1814 48.0781C29.6479 47.9351 29.3312 47.3869 29.4742 46.8534L29.9715 44.9975C30.1145 44.464 30.6629 44.1478 31.1963 44.2904C31.7298 44.4334 32.0462 44.9816 31.9034 45.5151L31.4061 47.371C31.2864 47.8177 30.8824 48.1125 30.4407 48.1125C30.3551 48.1124 30.2681 48.1014 30.1814 48.0781ZM33.696 34.9611C34.2295 35.1041 34.546 35.6524 34.4031 36.1859L33.9057 38.0418C33.786 38.4885 33.382 38.7831 32.9404 38.7831C32.8546 38.7831 32.7676 38.772 32.6809 38.7489C32.1474 38.6059 31.8309 38.0576 31.9738 37.5241L32.4711 35.6683C32.6143 35.1349 33.1622 34.8184 33.696 34.9611ZM40.8604 26.8819L42.7162 27.3791C43.2497 27.5221 43.5664 28.0704 43.4234 28.6039C43.3036 29.0506 42.8996 29.3454 42.458 29.3454C42.3722 29.3454 42.2852 29.3343 42.1986 29.3111L40.3428 28.8139C39.8093 28.6709 39.4926 28.1226 39.6356 27.5891C39.7786 27.0555 40.3271 26.7392 40.8604 26.8819ZM44.3003 28.8388C44.4434 28.3054 44.9914 27.9889 45.525 28.1316L46.6396 28.4304L47.2166 27.431C47.4927 26.9528 48.1044 26.7886 48.5826 27.065C49.0609 27.3411 49.2247 27.9527 48.9486 28.431L47.9879 30.095C47.8061 30.4099 47.4726 30.595 47.1219 30.595C47.0359 30.595 46.949 30.5839 46.863 30.5609L45.0071 30.0635C44.4739 29.9206 44.1573 29.3723 44.3003 28.8388ZM34.4738 28.195L34.971 26.3391C35.1139 25.8056 35.6625 25.4895 36.1958 25.632L38.0516 26.1293C38.5851 26.2723 38.9018 26.8205 38.7588 27.354C38.6158 27.8875 38.0673 28.2037 37.534 28.0611L36.644 27.8226L36.4055 28.7126C36.2857 29.1594 35.8818 29.4541 35.4401 29.4541C35.3544 29.4541 35.2674 29.443 35.1808 29.4199C34.6475 29.2767 34.3308 28.7285 34.4738 28.195ZM48.6706 24.9129L49.6312 23.2489C49.9072 22.7706 50.519 22.6065 50.9972 22.8827C51.4756 23.1589 51.6395 23.7705 51.3634 24.2488L50.4027 25.9127C50.2176 26.2335 49.8814 26.413 49.5358 26.413C49.3661 26.413 49.1942 26.3697 49.0367 26.2789C48.5584 26.0027 48.3945 25.3911 48.6706 24.9129ZM51.0851 20.7306L52.0459 19.0666C52.322 18.5883 52.9336 18.4244 53.4119 18.7006C53.8901 18.9767 54.054 19.5884 53.7779 20.0666L52.8171 21.7306C52.6319 22.0514 52.2958 22.2307 51.9501 22.2307C51.7805 22.2307 51.6085 22.1875 51.451 22.0966C50.9729 21.8205 50.809 21.2089 51.0851 20.7306ZM55.3264 18.8846C57.2562 18.8846 58.8264 17.3145 58.8264 15.3846C58.8264 13.4547 57.2562 11.8846 55.3264 11.8846C53.3965 11.8846 51.8264 13.4547 51.8264 15.3846C51.8264 17.3145 53.3965 18.8846 55.3264 18.8846ZM55.3264 13.8845C56.1535 13.8845 56.8264 14.5574 56.8264 15.3845C56.8264 16.2116 56.1535 16.8845 55.3264 16.8845C54.4992 16.8845 53.8264 16.2116 53.8264 15.3845C53.8264 14.5574 54.4994 13.8845 55.3264 13.8845ZM54.3897 30.5042C54.3897 31.1381 54.56 31.7326 54.8559 32.2459L43.5916 44.1029C43.1155 43.8601 42.5774 43.7223 42.0074 43.7223C40.9493 43.7223 40.0001 44.1949 39.3578 44.9392L32.8402 42.0189L33.1534 40.8504C33.2964 40.3169 32.9798 39.7686 32.4463 39.6256C31.9131 39.4829 31.3645 39.7994 31.2215 40.3327L30.9916 41.1905L28.7302 40.1773C28.75 40.027 28.7613 39.8741 28.7613 39.7186C28.7613 37.7888 27.1911 36.2186 25.2613 36.2186C23.3314 36.2186 21.7612 37.7888 21.7612 39.7186C21.7612 40.167 21.8469 40.5954 22.0011 40.9896L15.2248 46.2661L16.0389 44.856C16.315 44.3777 16.1511 43.7661 15.6729 43.49C15.1946 43.2138 14.583 43.3777 14.3069 43.856L13.3461 45.52C13.07 45.9983 13.2339 46.6099 13.7121 46.886C13.8696 46.977 14.0415 47.0201 14.2113 47.0201C14.2278 47.0201 14.2441 47.0177 14.2605 47.017L13.8279 47.3539C13.2549 46.9442 12.5541 46.7021 11.7976 46.7021C9.86775 46.7021 8.29762 48.2722 8.29762 50.2021C8.29762 52.132 9.86775 53.7021 11.7976 53.7021C13.7275 53.7021 15.2976 52.132 15.2976 50.2021C15.2976 49.7537 15.212 49.3254 15.0578 48.9311L20.6084 44.609L21.6536 45.6543C21.8489 45.8495 22.1048 45.9471 22.3608 45.9471C22.6168 45.9471 22.8726 45.8495 23.0679 45.6543C23.4584 45.2638 23.4584 44.6306 23.0679 44.2401L22.1985 43.3708L23.2309 42.5669C23.8039 42.9765 24.5045 43.2186 25.2611 43.2186C26.3193 43.2186 27.2684 42.746 27.9106 42.0016L38.5381 46.7636C38.5184 46.9139 38.5071 47.0668 38.5071 47.2223C38.5071 49.1521 40.0773 50.7223 42.0071 50.7223C43.937 50.7223 45.5071 49.1521 45.5071 47.2223C45.5071 46.5884 45.3369 45.9939 45.041 45.4805L56.3052 33.6235C56.7812 33.8663 57.3194 34.0041 57.8894 34.0041C59.8192 34.0041 61.3894 32.434 61.3894 30.5041C61.3894 28.5742 59.8192 27.0041 57.8894 27.0041C55.9597 27.0042 54.3897 28.5744 54.3897 30.5042ZM11.7978 51.7024C10.9706 51.7024 10.2978 51.0295 10.2978 50.2024C10.2978 49.3752 10.9706 48.7024 11.7978 48.7024C12.6249 48.7024 13.2978 49.3752 13.2978 50.2024C13.2978 51.0294 12.6249 51.7024 11.7978 51.7024ZM25.2611 41.2187C24.434 41.2187 23.7611 40.5459 23.7611 39.7187C23.7611 38.8916 24.434 38.2187 25.2611 38.2187C26.0883 38.2187 26.7611 38.8916 26.7611 39.7187C26.7611 40.5459 26.0883 41.2187 25.2611 41.2187ZM42.0074 48.7224C41.1803 48.7224 40.5074 48.0495 40.5074 47.2224C40.5074 46.3952 41.1803 45.7224 42.0074 45.7224C42.8345 45.7224 43.5074 46.3952 43.5074 47.2224C43.5074 48.0495 42.8344 48.7224 42.0074 48.7224ZM59.3898 30.5042C59.3898 31.3314 58.7169 32.0042 57.8898 32.0042C57.0626 32.0042 56.3898 31.3314 56.3898 30.5042C56.3898 29.6771 57.0626 29.0042 57.8898 29.0042C58.7168 29.0042 59.3898 29.6771 59.3898 30.5042ZM29.1903 55.2767C31.1201 55.2767 32.6903 53.7066 32.6903 51.7767C32.6903 49.8469 31.1201 48.2767 29.1903 48.2767C27.2604 48.2767 25.6903 49.8469 25.6903 51.7767C25.6903 53.7066 27.2604 55.2767 29.1903 55.2767ZM29.1903 50.2767C30.0174 50.2767 30.6903 50.9496 30.6903 51.7767C30.6903 52.6039 30.0174 53.2767 29.1903 53.2767C28.3631 53.2767 27.6902 52.6039 27.6902 51.7767C27.6902 50.9496 28.3633 50.2767 29.1903 50.2767ZM9.05688 34.5961C9.46725 35.019 10.0137 35.2314 10.561 35.2314C11.087 35.2314 11.6138 35.0351 12.0203 34.6406L18.6386 28.2184C19.0396 27.8295 19.265 27.3065 19.2735 26.7459C19.2777 26.4667 19.2278 26.1955 19.1286 25.9439L21.6053 23.5406C23.7759 25.1508 26.4611 26.1046 29.3652 26.1046C36.5622 26.1046 42.4175 20.2494 42.4175 13.0524C42.4176 5.85525 36.5624 0 29.3654 0C22.1683 0 16.3131 5.85525 16.3131 13.0524C16.3131 15.5266 17.0051 17.8422 18.2059 19.816L15.6186 22.3265C15.3701 22.2199 15.1005 22.1618 14.8214 22.1576C14.2611 22.1501 13.7311 22.3587 13.3305 22.7477L6.71188 29.1704C6.31113 29.5593 6.08575 30.0821 6.07725 30.6426C6.06875 31.2033 6.27838 31.7327 6.66738 32.1335L9.05688 34.5961ZM29.3654 2C35.4596 2 40.4176 6.95812 40.4176 13.0524C40.4176 19.1466 35.4596 24.1046 29.3654 24.1046C23.2711 24.1046 18.3131 19.1466 18.3131 13.0524C18.313 6.95812 23.2711 2 29.3654 2ZM20.0892 22.225L17.851 24.3969L17.1264 23.6501L19.3873 21.4562C19.6111 21.7217 19.8451 21.9783 20.0892 22.225ZM8.10462 30.6055L14.7233 24.183C14.7413 24.1655 14.7638 24.157 14.7913 24.1574C14.8185 24.1577 14.8411 24.1671 14.8585 24.185L17.2481 26.6478C17.2655 26.6658 17.2741 26.6886 17.2738 26.7157C17.2734 26.7429 17.264 26.7655 17.246 26.783L10.6275 33.2052C10.5915 33.24 10.5271 33.2391 10.4921 33.2034L8.1025 30.7406C8.08512 30.7226 8.0765 30.6999 8.077 30.6729C8.07737 30.6456 8.08675 30.6229 8.10462 30.6055ZM29.3654 22.7066C34.6886 22.7066 39.0195 18.3758 39.0195 13.0524C39.0195 7.729 34.6886 3.39813 29.3654 3.39813C24.042 3.39813 19.7111 7.729 19.7111 13.0524C19.7111 18.3758 24.0419 22.7066 29.3654 22.7066ZM29.3654 5.39812C33.5859 5.39812 37.0195 8.83187 37.0195 13.0524C37.0195 17.2729 33.5859 20.7066 29.3654 20.7066C25.1448 20.7066 21.7111 17.273 21.7111 13.0524C21.7111 8.83175 25.1448 5.39812 29.3654 5.39812Z" fill="#047BDC"></path></svg>