<svg xmlns="http://www.w3.org/2000/svg" width="62" height="62" viewBox="0 0 62 62" fill="none"><path d="M58.0072 12.2217H58.5336C59.8954 12.2217 61 13.3251 61 14.6881V42.6671H1V14.6881C1 13.3251 2.10463 12.2217 3.4664 12.2217H33.2072" stroke="#0449A9" stroke-width="2" stroke-miterlimit="10" stroke-linecap="round" stroke-linejoin="round"></path><path d="M50.1612 14.7615H45.3005C44.729 14.7615 44.2656 14.2981 44.2656 13.7266V8.8659C44.2656 8.29439 44.729 7.83105 45.3005 7.83105H50.1612C50.7327 7.83105 51.196 8.29439 51.196 8.8659V13.7266C51.196 14.2983 50.7327 14.7615 50.1612 14.7615Z" stroke="#0449A9" stroke-width="2" stroke-miterlimit="10" stroke-linecap="round" stroke-linejoin="round"></path><path d="M46.1875 7.83169V5.27148" stroke="#0449A9" stroke-width="2" stroke-miterlimit="10" stroke-linecap="round" stroke-linejoin="round"></path><path d="M49.2891 7.83169V5.27148" stroke="#0449A9" stroke-width="2" stroke-miterlimit="10" stroke-linecap="round" stroke-linejoin="round"></path><path d="M46.1875 17.3229V14.7627" stroke="#0449A9" stroke-width="2" stroke-miterlimit="10" stroke-linecap="round" stroke-linejoin="round"></path><path d="M49.2891 17.3229V14.7627" stroke="#0449A9" stroke-width="2" stroke-miterlimit="10" stroke-linecap="round" stroke-linejoin="round"></path><path d="M51.2109 9.74316H53.7711" stroke="#0449A9" stroke-width="2" stroke-miterlimit="10" stroke-linecap="round" stroke-linejoin="round"></path><path d="M51.2109 12.8506H53.7711" stroke="#0449A9" stroke-width="2" stroke-miterlimit="10" stroke-linecap="round" stroke-linejoin="round"></path><path d="M41.7109 9.74316H44.271" stroke="#0449A9" stroke-width="2" stroke-miterlimit="10" stroke-linecap="round" stroke-linejoin="round"></path><path d="M41.7109 12.8506H44.271" stroke="#0449A9" stroke-width="2" stroke-miterlimit="10" stroke-linecap="round" stroke-linejoin="round"></path><path d="M47.7508 21.5953C53.438 21.5953 58.0485 16.9849 58.0485 11.2977C58.0485 5.61042 53.438 1 47.7508 1C42.0635 1 37.4531 5.61042 37.4531 11.2977C37.4531 16.9849 42.0635 21.5953 47.7508 21.5953Z" stroke="#0449A9" stroke-width="2" stroke-miterlimit="10" stroke-linecap="round" stroke-linejoin="round"></path><path d="M61 42.667H1V46.0171C1 47.3792 2.10427 48.4835 3.4664 48.4835H58.5336C59.8957 48.4835 61 47.3792 61 46.0171V42.667Z" stroke="#0449A9" stroke-width="2" stroke-miterlimit="10" stroke-linecap="round" stroke-linejoin="round"></path><path d="M42.799 52.7311V60.9245H19.2109V48.4834H42.799" stroke="#0449A9" stroke-width="2" stroke-miterlimit="10" stroke-linecap="round" stroke-linejoin="round"></path><path d="M39.5312 57.665V48.4834H22.4623V57.665H39.5312Z" stroke="#0449A9" stroke-width="2" stroke-miterlimit="10" stroke-linecap="round" stroke-linejoin="round"></path><path d="M14.9688 60.9258H47.0281" stroke="#0449A9" stroke-width="2" stroke-miterlimit="10" stroke-linecap="round" stroke-linejoin="round"></path><path d="M22.3558 36.8455C26.7635 36.8455 30.3367 33.2723 30.3367 28.8646C30.3367 24.4569 26.7635 20.8838 22.3558 20.8838C17.9481 20.8838 14.375 24.4569 14.375 28.8646C14.375 33.2723 17.9481 36.8455 22.3558 36.8455Z" stroke="#0449A9" stroke-width="2" stroke-miterlimit="10" stroke-linecap="round" stroke-linejoin="round"></path><path d="M22.3463 33.585C19.743 33.585 17.625 31.467 17.625 28.8637C17.625 26.2606 19.743 24.1426 22.3463 24.1426C24.9495 24.1426 27.0675 26.2606 27.0675 28.8637C27.0675 31.467 24.9495 33.585 22.3463 33.585Z" stroke="#0449A9" stroke-width="2" stroke-miterlimit="10" stroke-linecap="round" stroke-linejoin="round"></path><path d="M39.2626 28.8646C39.2626 28.8646 34.6277 36.8455 22.3422 36.8455C10.0567 36.8455 5.42188 28.8646 5.42188 28.8646C5.42188 28.8646 10.0567 20.8838 22.3422 20.8838C34.6277 20.8838 39.2626 28.8646 39.2626 28.8646Z" stroke="#0449A9" stroke-width="2" stroke-miterlimit="10" stroke-linecap="round" stroke-linejoin="round"></path><path d="M43.2266 33.5774L46.2307 25.6898C46.2921 25.5398 46.5045 25.5395 46.5662 25.6895L49.543 33.5774" stroke="#0449A9" stroke-width="2" stroke-miterlimit="10" stroke-linecap="round" stroke-linejoin="round"></path><path d="M44.1641 31.6133H48.6218" stroke="#0449A9" stroke-width="2" stroke-miterlimit="10" stroke-linecap="round" stroke-linejoin="round"></path><path d="M52.8672 25.5771V33.5774" stroke="#0449A9" stroke-width="2" stroke-miterlimit="10" stroke-linecap="round" stroke-linejoin="round"></path></svg>