<svg xmlns="http://www.w3.org/2000/svg" width="60" height="65" viewBox="0 0 60 65" fill="none"><path d="M22.5781 28.3667V24.9922" stroke="#0449A9" stroke-width="2" stroke-miterlimit="10" stroke-linecap="round" stroke-linejoin="round"></path><path d="M22.5781 4.37612V1" stroke="#0449A9" stroke-width="2" stroke-miterlimit="10" stroke-linecap="round" stroke-linejoin="round"></path><path d="M29.0781 28.3667V24.9922" stroke="#0449A9" stroke-width="2" stroke-miterlimit="10" stroke-linecap="round" stroke-linejoin="round"></path><path d="M29.0781 4.37612V1" stroke="#0449A9" stroke-width="2" stroke-miterlimit="10" stroke-linecap="round" stroke-linejoin="round"></path><path d="M35.6016 28.3667V24.9922" stroke="#0449A9" stroke-width="2" stroke-miterlimit="10" stroke-linecap="round" stroke-linejoin="round"></path><path d="M35.6016 4.37612V1" stroke="#0449A9" stroke-width="2" stroke-miterlimit="10" stroke-linecap="round" stroke-linejoin="round"></path><path d="M18.0156 5.91528V23.4506C18.0156 24.3013 18.7052 24.9908 19.5558 24.9908H38.6244C39.475 24.9908 40.1645 24.3011 40.1645 23.4506V5.91515C40.1645 5.06449 39.4749 4.375 38.6244 4.375H19.5558C18.7052 4.375 18.0156 5.06462 18.0156 5.91528Z" stroke="#0449A9" stroke-width="2" stroke-miterlimit="10" stroke-linecap="round" stroke-linejoin="round"></path><path d="M23.75 19.4447V10.693C23.75 10.2677 24.0947 9.92285 24.5201 9.92285H28.7616C29.1868 9.92285 29.5317 10.2676 29.5317 10.693V19.4447" stroke="#0449A9" stroke-width="2" stroke-miterlimit="10" stroke-linecap="round" stroke-linejoin="round"></path><path d="M23.75 15.1797H29.5316" stroke="#0449A9" stroke-width="2" stroke-miterlimit="10" stroke-linecap="round" stroke-linejoin="round"></path><path d="M34.4609 19.4445V9.92285" stroke="#0449A9" stroke-width="2" stroke-miterlimit="10" stroke-linecap="round" stroke-linejoin="round"></path><path d="M9.79411 56.6977L7.08939 63.5939C6.96071 63.9214 6.59125 64.0832 6.26383 63.9545L1.40476 62.0498C1.07734 61.9212 0.91554 61.5517 1.04421 61.2243L3.44827 55.0938" stroke="#0449A9" stroke-width="2" stroke-miterlimit="10" stroke-linejoin="round"></path><path d="M52.2188 36.8996V32.248" stroke="#0449A9" stroke-width="2" stroke-miterlimit="10" stroke-linecap="round" stroke-linejoin="round"></path><path d="M56.6094 36.8996V32.248" stroke="#0449A9" stroke-width="2" stroke-miterlimit="10" stroke-linecap="round" stroke-linejoin="round"></path><path d="M46.1704 43.999L43.5625 46.8655" stroke="#0449A9" stroke-width="2" stroke-miterlimit="10" stroke-linecap="round" stroke-linejoin="round"></path><path d="M50.7601 45.4375L47.0234 49.5462" stroke="#0449A9" stroke-width="2" stroke-miterlimit="10" stroke-linecap="round" stroke-linejoin="round"></path><path d="M57.8117 24.2742C57.8117 23.5877 57.2552 23.0312 56.5688 23.0312H55.7599C52.911 23.0312 50.6016 25.3408 50.6016 28.1896V31.1648C50.6016 31.7625 51.0861 32.2471 51.6838 32.2471H56.7294C57.3272 32.2471 57.8117 31.7625 57.8117 31.1648V24.2742Z" stroke="#0449A9" stroke-width="2" stroke-miterlimit="10" stroke-linecap="round" stroke-linejoin="round"></path><path d="M51.1911 45.5707L46.015 43.9536C45.369 43.7518 45.1316 42.9608 45.5598 42.4366L49.6765 37.3977C49.9341 37.0824 50.3198 36.8994 50.7271 36.8994H57.1659C57.9641 36.8994 58.4106 37.8199 57.9166 38.4467L52.661 45.1155C52.3128 45.5575 51.7279 45.7385 51.1911 45.5707Z" stroke="#0449A9" stroke-width="2" stroke-miterlimit="10" stroke-linecap="round" stroke-linejoin="round"></path><path d="M5.8125 47.2866L6.0036 46.7948C7.3566 43.3066 10.7314 41.0223 14.4732 41.063L17.9423 41.1025" stroke="#0449A9" stroke-width="2" stroke-miterlimit="10" stroke-linecap="round" stroke-linejoin="round"></path><path d="M27.8044 44.9404H39.5063C40.2988 44.9404 41.0734 45.1787 41.7282 45.6246L46.4153 48.816C46.9083 49.1523 47.2039 49.7103 47.2039 50.3078V51.192C47.2039 52.5845 46.0751 53.7133 44.6839 53.7133H13.0859" stroke="#0449A9" stroke-width="2" stroke-miterlimit="10" stroke-linecap="round" stroke-linejoin="round"></path><path d="M7.57672 57.1984C10.4021 57.1984 12.6925 54.9079 12.6925 52.0826C12.6925 49.2572 10.4021 46.9668 7.57672 46.9668C4.75135 46.9668 2.46094 49.2572 2.46094 52.0826C2.46094 54.9079 4.75135 57.1984 7.57672 57.1984Z" stroke="#0449A9" stroke-width="2" stroke-miterlimit="10" stroke-linecap="round" stroke-linejoin="round"></path><path d="M31.6516 38.4307L28.0078 41.6692" stroke="#0449A9" stroke-width="2" stroke-miterlimit="10" stroke-linecap="round" stroke-linejoin="round"></path><path d="M28.3895 34.7705L24.7344 38.0205" stroke="#0449A9" stroke-width="2" stroke-miterlimit="10" stroke-linecap="round" stroke-linejoin="round"></path><path d="M21.2863 38.1187L17.9139 41.1174C15.9633 42.8518 15.7881 45.839 17.5224 47.7896C19.2567 49.7402 22.244 49.9154 24.1946 48.1811L27.5671 45.1825C28.6766 44.196 28.7762 42.4967 27.7898 41.3873L25.0815 38.3416C24.095 37.2319 22.3959 37.1323 21.2863 38.1187Z" stroke="#0449A9" stroke-width="2" stroke-miterlimit="10" stroke-linecap="round" stroke-linejoin="round"></path><path d="M31.7474 30.1846L28.2707 33.276C27.8993 33.6062 27.8659 34.175 28.1961 34.5462L31.8487 38.6541C32.1789 39.0255 32.7477 39.0589 33.1189 38.7286L36.5957 35.6373C38.1014 34.2984 38.2367 31.9924 36.8979 30.4868C35.5591 28.9811 33.2532 28.8458 31.7474 30.1846Z" stroke="#0449A9" stroke-width="2" stroke-miterlimit="10" stroke-linecap="round" stroke-linejoin="round"></path></svg>