<svg xmlns="http://www.w3.org/2000/svg" width="62" height="62" viewBox="0 0 62 62" fill="none"><mask id="path-1-inside-1_1858_92" fill="white"><path d="M58.9497 32.8745C60.8684 31.2017 61.9902 28.791 61.9902 26.213C61.9902 21.5096 58.3003 17.6623 53.6756 17.3966C53.8921 16.6291 54.0102 15.8124 54.0102 15.0056C54.0102 10.1447 50.0546 6.19902 45.2036 6.19902C45.0363 6.19902 44.8789 6.19902 44.7116 6.20886C44.1901 2.65672 41.1693 0 37.4893 0C34.6751 0 32.225 1.60387 31.0049 3.93588C29.7848 1.60387 27.3445 0 24.5206 0C20.8405 0 17.8197 2.66656 17.2982 6.20886C17.1309 6.19902 16.9735 6.19902 16.8062 6.19902C11.9454 6.19902 7.99968 10.1546 7.99968 15.0056C7.99968 15.8223 8.11776 16.6291 8.33423 17.3966C3.68989 17.6524 0 21.5096 0 26.213C0 28.7811 1.12173 31.2017 3.04047 32.8745C1.12173 34.5275 0 36.9383 0 39.5163C0 44.1213 3.53245 47.9095 8.01936 48.3031C8.44247 53.0459 12.6834 56.7554 17.5836 56.2831C18.5675 59.2154 21.3718 61.2817 24.5107 61.2817C27.3249 61.2817 29.775 59.6778 30.9951 57.336C32.2152 59.6778 34.6555 61.2817 37.4794 61.2817C40.6774 61.2817 43.4325 59.2646 44.4164 56.2831C44.6821 56.3127 44.9478 56.3225 45.2036 56.3225C49.7988 56.3225 53.5772 52.79 53.9806 48.3031C58.4675 47.8997 62 44.1114 62 39.5163C61.9902 36.9383 60.8684 34.5275 58.9497 32.8745ZM42.5075 40.1558C42.5075 41.2579 41.6121 42.1631 40.5002 42.1631H21.4899C20.3879 42.1631 19.4826 41.2677 19.4826 40.1558V21.1357C19.4826 20.0336 20.378 19.1284 21.4899 19.1284H36.3774C36.9087 19.1284 37.4106 19.335 37.7943 19.7188L41.9172 23.8318C42.3009 24.2057 42.5075 24.7173 42.5075 25.2487V40.1558ZM24.5107 59.6385C22.0016 59.6385 19.7877 57.9264 19.089 55.5353H19.1087C19.5515 55.5353 19.9943 55.4369 20.4174 55.25C21.1947 54.8957 21.7851 54.266 22.0901 53.4788C22.2476 53.0557 22.0409 52.5736 21.608 52.4161C21.1849 52.2587 20.7027 52.4653 20.5453 52.8983C20.3977 53.282 20.1124 53.5871 19.7385 53.7543C19.3645 53.9216 18.9513 53.9413 18.5675 53.7937C17.7804 53.4985 17.3769 52.6031 17.6721 51.8159C17.8295 51.3928 17.6229 50.9106 17.19 50.7532C16.757 50.5859 16.2847 50.8123 16.1273 51.2354C15.655 52.4752 16.019 53.8232 16.9243 54.6793C16.8751 54.6793 16.8259 54.6891 16.7767 54.6891C12.831 54.6891 9.61339 51.4814 9.61339 47.5258C9.61339 47.0732 9.23949 46.6993 8.78686 46.6993C4.84114 46.6993 1.62355 43.4817 1.62355 39.5261C1.62355 37.1252 2.824 34.8916 4.82146 33.5731C5.04777 33.4255 5.19537 33.1598 5.19537 32.8843C5.19537 32.6088 5.05761 32.353 4.8313 32.1955C2.824 30.8573 1.62355 28.6237 1.62355 26.2228C1.62355 22.2673 4.8313 19.0497 8.78686 19.0497C9.00333 19.0497 9.20997 19.0694 9.42644 19.0792C9.72163 19.0989 9.99714 18.9611 10.1644 18.725C10.3317 18.4888 10.3612 18.1739 10.2333 17.9083C9.82987 17.0227 9.61339 16.019 9.61339 15.0154C9.61339 11.2566 12.5259 8.16696 16.2158 7.88161C15.8616 8.62942 15.8026 9.52484 16.1174 10.3612C16.2454 10.6859 16.5602 10.8926 16.8849 10.8926C16.9833 10.8926 17.0817 10.8729 17.1801 10.8434C17.6032 10.6859 17.8197 10.2038 17.6623 9.78067C17.3671 8.99349 17.7607 8.10792 18.5577 7.80289C18.9414 7.65529 19.3547 7.67497 19.7286 7.84225C20.1025 8.00952 20.3879 8.31455 20.5355 8.6983C20.6929 9.12141 21.1751 9.33788 21.5982 9.18045C22.0213 9.02301 22.2377 8.54087 22.0803 8.11776C21.7753 7.32074 21.1849 6.691 20.4076 6.34661C19.9549 6.13998 19.4629 6.06126 18.9808 6.08094C19.5417 3.53246 21.795 1.67275 24.5009 1.67275C27.6201 1.67275 30.1587 4.20156 30.1587 7.3109V15.901V17.5048H21.4801C19.4629 17.5048 17.8296 19.1481 17.8296 21.1554V31.0935H12.2012V28.6237C13.2934 28.2695 14.0905 27.256 14.0905 26.0555C14.0905 24.5599 12.8703 23.3496 11.3845 23.3496C9.89875 23.3496 8.67862 24.5698 8.67862 26.0555C8.67862 27.256 9.47564 28.2695 10.5678 28.6237V31.92C10.5678 32.3726 10.9418 32.7465 11.3944 32.7465H13.5591V38.6405H10.8237C10.4694 37.5483 9.45596 36.7513 8.25552 36.7513C6.75988 36.7513 5.54959 37.9714 5.54959 39.4572C5.54959 40.9529 6.76972 42.1631 8.25552 42.1631C9.45596 42.1631 10.4694 41.3661 10.8237 40.2739H14.3857C14.8383 40.2739 15.2122 39.9 15.2122 39.4474V32.7269H17.8492V40.1558C17.8492 42.173 19.4925 43.8064 21.4998 43.8064H30.1784V44.8691V53.9905C30.1685 57.0998 27.6299 59.6385 24.5107 59.6385ZM11.3845 27.0986C10.804 27.0986 10.3219 26.6262 10.3219 26.0359C10.3219 25.4553 10.7942 24.9732 11.3845 24.9732C11.9651 24.9732 12.4472 25.4455 12.4472 26.0359C12.4472 26.6164 11.9749 27.0986 11.3845 27.0986ZM9.30836 39.4474C9.30836 40.0279 8.83606 40.5101 8.24568 40.5101C7.66513 40.5101 7.18299 40.0378 7.18299 39.4474C7.18299 38.8668 7.65529 38.3847 8.24568 38.3847C8.82622 38.3847 9.29852 38.857 9.30836 39.4474ZM53.1738 46.6894C52.7212 46.6894 52.3472 47.0633 52.3472 47.516C52.3472 51.4322 49.1887 54.6104 45.2922 54.6694C46.1482 53.8134 46.4729 52.5047 46.0203 51.3042C45.8629 50.8811 45.3807 50.6647 44.9576 50.8221C44.5345 50.9795 44.318 51.4617 44.4755 51.8848C44.7707 52.672 44.3771 53.5575 43.5801 53.8626C43.1963 54.0102 42.783 54.0003 42.4091 53.8232C42.0352 53.6559 41.7499 53.3509 41.6023 52.9671C41.4448 52.544 40.9627 52.3276 40.5396 52.485C40.1165 52.6424 39.9 53.1246 40.0574 53.5477C40.3625 54.3447 40.9529 54.9745 41.7302 55.3188C42.0943 55.4861 42.478 55.5648 42.8618 55.5845C42.1435 57.9756 39.9984 59.6286 37.4598 59.6286C34.3406 59.6286 31.8019 57.09 31.8019 53.9708V44.8494V43.7867H40.4904C42.5075 43.7867 44.1409 42.1435 44.1409 40.1362V32.7072H46.778V39.4277C46.778 39.8803 47.1519 40.2542 47.6045 40.2542H51.1665C51.5207 41.3465 52.5342 42.1435 53.7346 42.1435C55.2303 42.1435 56.4406 40.9233 56.4406 39.4375C56.4406 37.9419 55.2204 36.7316 53.7346 36.7316C52.5342 36.7316 51.5207 37.5286 51.1665 38.6209H48.431V32.7269H50.5958C51.0484 32.7269 51.4223 32.353 51.4223 31.9003V28.604C52.5145 28.2498 53.3115 27.2363 53.3115 26.0359C53.3115 24.5402 52.0914 23.3299 50.6056 23.3299C49.1198 23.3299 47.8997 24.5501 47.8997 26.0359C47.8997 27.2363 48.6967 28.2498 49.7889 28.604V31.0738H44.1606V25.2487C44.1606 24.2746 43.7769 23.3496 43.0881 22.6608L38.9652 18.5478C38.2765 17.8591 37.3614 17.4753 36.3872 17.4753H31.8216V15.8714V7.28138C31.8216 4.17204 34.3603 1.64323 37.4794 1.64323C40.2149 1.64323 42.478 3.54229 43.0094 6.1203C41.74 6.13998 40.5593 6.91732 40.0771 8.16696C39.9197 8.59007 40.1263 9.07221 40.5593 9.22965C40.9824 9.38708 41.4645 9.18045 41.622 8.7475C41.7696 8.36375 42.0549 8.05872 42.4288 7.89145C42.8027 7.72417 43.216 7.71433 43.5997 7.85209C44.3869 8.14728 44.7904 9.04269 44.4952 9.82987C44.3377 10.253 44.5444 10.7351 44.9773 10.8926C45.0757 10.9319 45.1741 10.9418 45.2725 10.9418C45.607 10.9418 45.9219 10.7351 46.04 10.4104C46.3647 9.54452 46.286 8.62942 45.9022 7.86193C49.5232 8.21616 52.3669 11.2763 52.3669 14.9859C52.3669 15.9994 52.1505 16.9932 51.747 17.8787C51.6289 18.1444 51.6585 18.4495 51.8159 18.6954C51.9832 18.9316 52.2488 19.0595 52.5539 19.0497C52.7704 19.03 52.977 19.0202 53.1836 19.0202C57.1293 19.0202 60.3469 22.2377 60.3469 26.1933C60.3469 28.5942 59.1465 30.8278 57.1392 32.166C56.9129 32.3234 56.7751 32.5793 56.7751 32.8548C56.7751 33.1303 56.9129 33.3861 57.149 33.5436C59.1563 34.8719 60.3469 37.0957 60.3469 39.4966C60.3371 43.4718 57.1293 46.6894 53.1738 46.6894ZM52.6916 39.4474C52.6916 38.8668 53.1639 38.3847 53.7543 38.3847C54.3447 38.3847 54.817 38.857 54.817 39.4474C54.817 40.0279 54.3447 40.5101 53.7543 40.5101C53.1639 40.5101 52.6916 40.0279 52.6916 39.4474ZM50.6056 27.0986C50.0251 27.0986 49.5429 26.6262 49.5429 26.0359C49.5429 25.4553 50.0152 24.9732 50.6056 24.9732C51.196 24.9732 51.6683 25.4455 51.6683 26.0359C51.6683 26.6164 51.196 27.0986 50.6056 27.0986Z"></path></mask><path d="M58.9497 32.8745C60.8684 31.2017 61.9902 28.791 61.9902 26.213C61.9902 21.5096 58.3003 17.6623 53.6756 17.3966C53.8921 16.6291 54.0102 15.8124 54.0102 15.0056C54.0102 10.1447 50.0546 6.19902 45.2036 6.19902C45.0363 6.19902 44.8789 6.19902 44.7116 6.20886C44.1901 2.65672 41.1693 0 37.4893 0C34.6751 0 32.225 1.60387 31.0049 3.93588C29.7848 1.60387 27.3445 0 24.5206 0C20.8405 0 17.8197 2.66656 17.2982 6.20886C17.1309 6.19902 16.9735 6.19902 16.8062 6.19902C11.9454 6.19902 7.99968 10.1546 7.99968 15.0056C7.99968 15.8223 8.11776 16.6291 8.33423 17.3966C3.68989 17.6524 0 21.5096 0 26.213C0 28.7811 1.12173 31.2017 3.04047 32.8745C1.12173 34.5275 0 36.9383 0 39.5163C0 44.1213 3.53245 47.9095 8.01936 48.3031C8.44247 53.0459 12.6834 56.7554 17.5836 56.2831C18.5675 59.2154 21.3718 61.2817 24.5107 61.2817C27.3249 61.2817 29.775 59.6778 30.9951 57.336C32.2152 59.6778 34.6555 61.2817 37.4794 61.2817C40.6774 61.2817 43.4325 59.2646 44.4164 56.2831C44.6821 56.3127 44.9478 56.3225 45.2036 56.3225C49.7988 56.3225 53.5772 52.79 53.9806 48.3031C58.4675 47.8997 62 44.1114 62 39.5163C61.9902 36.9383 60.8684 34.5275 58.9497 32.8745ZM42.5075 40.1558C42.5075 41.2579 41.6121 42.1631 40.5002 42.1631H21.4899C20.3879 42.1631 19.4826 41.2677 19.4826 40.1558V21.1357C19.4826 20.0336 20.378 19.1284 21.4899 19.1284H36.3774C36.9087 19.1284 37.4106 19.335 37.7943 19.7188L41.9172 23.8318C42.3009 24.2057 42.5075 24.7173 42.5075 25.2487V40.1558ZM24.5107 59.6385C22.0016 59.6385 19.7877 57.9264 19.089 55.5353H19.1087C19.5515 55.5353 19.9943 55.4369 20.4174 55.25C21.1947 54.8957 21.7851 54.266 22.0901 53.4788C22.2476 53.0557 22.0409 52.5736 21.608 52.4161C21.1849 52.2587 20.7027 52.4653 20.5453 52.8983C20.3977 53.282 20.1124 53.5871 19.7385 53.7543C19.3645 53.9216 18.9513 53.9413 18.5675 53.7937C17.7804 53.4985 17.3769 52.6031 17.6721 51.8159C17.8295 51.3928 17.6229 50.9106 17.19 50.7532C16.757 50.5859 16.2847 50.8123 16.1273 51.2354C15.655 52.4752 16.019 53.8232 16.9243 54.6793C16.8751 54.6793 16.8259 54.6891 16.7767 54.6891C12.831 54.6891 9.61339 51.4814 9.61339 47.5258C9.61339 47.0732 9.23949 46.6993 8.78686 46.6993C4.84114 46.6993 1.62355 43.4817 1.62355 39.5261C1.62355 37.1252 2.824 34.8916 4.82146 33.5731C5.04777 33.4255 5.19537 33.1598 5.19537 32.8843C5.19537 32.6088 5.05761 32.353 4.8313 32.1955C2.824 30.8573 1.62355 28.6237 1.62355 26.2228C1.62355 22.2673 4.8313 19.0497 8.78686 19.0497C9.00333 19.0497 9.20997 19.0694 9.42644 19.0792C9.72163 19.0989 9.99714 18.9611 10.1644 18.725C10.3317 18.4888 10.3612 18.1739 10.2333 17.9083C9.82987 17.0227 9.61339 16.019 9.61339 15.0154C9.61339 11.2566 12.5259 8.16696 16.2158 7.88161C15.8616 8.62942 15.8026 9.52484 16.1174 10.3612C16.2454 10.6859 16.5602 10.8926 16.8849 10.8926C16.9833 10.8926 17.0817 10.8729 17.1801 10.8434C17.6032 10.6859 17.8197 10.2038 17.6623 9.78067C17.3671 8.99349 17.7607 8.10792 18.5577 7.80289C18.9414 7.65529 19.3547 7.67497 19.7286 7.84225C20.1025 8.00952 20.3879 8.31455 20.5355 8.6983C20.6929 9.12141 21.1751 9.33788 21.5982 9.18045C22.0213 9.02301 22.2377 8.54087 22.0803 8.11776C21.7753 7.32074 21.1849 6.691 20.4076 6.34661C19.9549 6.13998 19.4629 6.06126 18.9808 6.08094C19.5417 3.53246 21.795 1.67275 24.5009 1.67275C27.6201 1.67275 30.1587 4.20156 30.1587 7.3109V15.901V17.5048H21.4801C19.4629 17.5048 17.8296 19.1481 17.8296 21.1554V31.0935H12.2012V28.6237C13.2934 28.2695 14.0905 27.256 14.0905 26.0555C14.0905 24.5599 12.8703 23.3496 11.3845 23.3496C9.89875 23.3496 8.67862 24.5698 8.67862 26.0555C8.67862 27.256 9.47564 28.2695 10.5678 28.6237V31.92C10.5678 32.3726 10.9418 32.7465 11.3944 32.7465H13.5591V38.6405H10.8237C10.4694 37.5483 9.45596 36.7513 8.25552 36.7513C6.75988 36.7513 5.54959 37.9714 5.54959 39.4572C5.54959 40.9529 6.76972 42.1631 8.25552 42.1631C9.45596 42.1631 10.4694 41.3661 10.8237 40.2739H14.3857C14.8383 40.2739 15.2122 39.9 15.2122 39.4474V32.7269H17.8492V40.1558C17.8492 42.173 19.4925 43.8064 21.4998 43.8064H30.1784V44.8691V53.9905C30.1685 57.0998 27.6299 59.6385 24.5107 59.6385ZM11.3845 27.0986C10.804 27.0986 10.3219 26.6262 10.3219 26.0359C10.3219 25.4553 10.7942 24.9732 11.3845 24.9732C11.9651 24.9732 12.4472 25.4455 12.4472 26.0359C12.4472 26.6164 11.9749 27.0986 11.3845 27.0986ZM9.30836 39.4474C9.30836 40.0279 8.83606 40.5101 8.24568 40.5101C7.66513 40.5101 7.18299 40.0378 7.18299 39.4474C7.18299 38.8668 7.65529 38.3847 8.24568 38.3847C8.82622 38.3847 9.29852 38.857 9.30836 39.4474ZM53.1738 46.6894C52.7212 46.6894 52.3472 47.0633 52.3472 47.516C52.3472 51.4322 49.1887 54.6104 45.2922 54.6694C46.1482 53.8134 46.4729 52.5047 46.0203 51.3042C45.8629 50.8811 45.3807 50.6647 44.9576 50.8221C44.5345 50.9795 44.318 51.4617 44.4755 51.8848C44.7707 52.672 44.3771 53.5575 43.5801 53.8626C43.1963 54.0102 42.783 54.0003 42.4091 53.8232C42.0352 53.6559 41.7499 53.3509 41.6023 52.9671C41.4448 52.544 40.9627 52.3276 40.5396 52.485C40.1165 52.6424 39.9 53.1246 40.0574 53.5477C40.3625 54.3447 40.9529 54.9745 41.7302 55.3188C42.0943 55.4861 42.478 55.5648 42.8618 55.5845C42.1435 57.9756 39.9984 59.6286 37.4598 59.6286C34.3406 59.6286 31.8019 57.09 31.8019 53.9708V44.8494V43.7867H40.4904C42.5075 43.7867 44.1409 42.1435 44.1409 40.1362V32.7072H46.778V39.4277C46.778 39.8803 47.1519 40.2542 47.6045 40.2542H51.1665C51.5207 41.3465 52.5342 42.1435 53.7346 42.1435C55.2303 42.1435 56.4406 40.9233 56.4406 39.4375C56.4406 37.9419 55.2204 36.7316 53.7346 36.7316C52.5342 36.7316 51.5207 37.5286 51.1665 38.6209H48.431V32.7269H50.5958C51.0484 32.7269 51.4223 32.353 51.4223 31.9003V28.604C52.5145 28.2498 53.3115 27.2363 53.3115 26.0359C53.3115 24.5402 52.0914 23.3299 50.6056 23.3299C49.1198 23.3299 47.8997 24.5501 47.8997 26.0359C47.8997 27.2363 48.6967 28.2498 49.7889 28.604V31.0738H44.1606V25.2487C44.1606 24.2746 43.7769 23.3496 43.0881 22.6608L38.9652 18.5478C38.2765 17.8591 37.3614 17.4753 36.3872 17.4753H31.8216V15.8714V7.28138C31.8216 4.17204 34.3603 1.64323 37.4794 1.64323C40.2149 1.64323 42.478 3.54229 43.0094 6.1203C41.74 6.13998 40.5593 6.91732 40.0771 8.16696C39.9197 8.59007 40.1263 9.07221 40.5593 9.22965C40.9824 9.38708 41.4645 9.18045 41.622 8.7475C41.7696 8.36375 42.0549 8.05872 42.4288 7.89145C42.8027 7.72417 43.216 7.71433 43.5997 7.85209C44.3869 8.14728 44.7904 9.04269 44.4952 9.82987C44.3377 10.253 44.5444 10.7351 44.9773 10.8926C45.0757 10.9319 45.1741 10.9418 45.2725 10.9418C45.607 10.9418 45.9219 10.7351 46.04 10.4104C46.3647 9.54452 46.286 8.62942 45.9022 7.86193C49.5232 8.21616 52.3669 11.2763 52.3669 14.9859C52.3669 15.9994 52.1505 16.9932 51.747 17.8787C51.6289 18.1444 51.6585 18.4495 51.8159 18.6954C51.9832 18.9316 52.2488 19.0595 52.5539 19.0497C52.7704 19.03 52.977 19.0202 53.1836 19.0202C57.1293 19.0202 60.3469 22.2377 60.3469 26.1933C60.3469 28.5942 59.1465 30.8278 57.1392 32.166C56.9129 32.3234 56.7751 32.5793 56.7751 32.8548C56.7751 33.1303 56.9129 33.3861 57.149 33.5436C59.1563 34.8719 60.3469 37.0957 60.3469 39.4966C60.3371 43.4718 57.1293 46.6894 53.1738 46.6894ZM52.6916 39.4474C52.6916 38.8668 53.1639 38.3847 53.7543 38.3847C54.3447 38.3847 54.817 38.857 54.817 39.4474C54.817 40.0279 54.3447 40.5101 53.7543 40.5101C53.1639 40.5101 52.6916 40.0279 52.6916 39.4474ZM50.6056 27.0986C50.0251 27.0986 49.5429 26.6262 49.5429 26.0359C49.5429 25.4553 50.0152 24.9732 50.6056 24.9732C51.196 24.9732 51.6683 25.4455 51.6683 26.0359C51.6683 26.6164 51.196 27.0986 50.6056 27.0986Z" fill="#0458B9" stroke="#0458B9" stroke-width="4" mask="url(#path-1-inside-1_1858_92)"></path><mask id="path-2-inside-2_1858_92" fill="white"><path d="M36.5756 21.4999C36.4181 21.3425 36.2115 21.2539 35.995 21.2539H22.4359C21.9833 21.2539 21.6094 21.6278 21.6094 22.0804V39.2114C21.6094 39.664 21.9833 40.0379 22.4359 40.0379H39.5668C40.0195 40.0379 40.3934 39.664 40.3934 39.2114V25.6424C40.3934 25.4259 40.3048 25.2095 40.1474 25.0619L36.5756 21.4999ZM38.7403 38.3848H23.2624V22.907H35.6506L38.7403 25.9868V38.3848Z"></path></mask><path d="M36.5756 21.4999C36.4181 21.3425 36.2115 21.2539 35.995 21.2539H22.4359C21.9833 21.2539 21.6094 21.6278 21.6094 22.0804V39.2114C21.6094 39.664 21.9833 40.0379 22.4359 40.0379H39.5668C40.0195 40.0379 40.3934 39.664 40.3934 39.2114V25.6424C40.3934 25.4259 40.3048 25.2095 40.1474 25.0619L36.5756 21.4999ZM38.7403 38.3848H23.2624V22.907H35.6506L38.7403 25.9868V38.3848Z" fill="#0458B9"></path><path d="M36.5756 21.4999L35.1614 22.9141L35.1633 22.9161L36.5756 21.4999ZM40.1474 25.0619L38.7351 26.478L38.757 26.4998L38.7795 26.5209L40.1474 25.0619ZM38.7403 38.3848V40.3848H40.7403V38.3848H38.7403ZM23.2624 38.3848H21.2624V40.3848H23.2624V38.3848ZM23.2624 22.907V20.907H21.2624V22.907H23.2624ZM35.6506 22.907L37.0626 21.4905L36.4772 20.907H35.6506V22.907ZM38.7403 25.9868H40.7403V25.1565L40.1523 24.5703L38.7403 25.9868ZM37.9898 20.0857C37.4762 19.5721 36.7681 19.2539 35.995 19.2539V23.2539C35.6549 23.2539 35.3601 23.1128 35.1614 22.9141L37.9898 20.0857ZM35.995 19.2539H22.4359V23.2539H35.995V19.2539ZM22.4359 19.2539C20.8787 19.2539 19.6094 20.5232 19.6094 22.0804H23.6094C23.6094 22.7324 23.0879 23.2539 22.4359 23.2539V19.2539ZM19.6094 22.0804V39.2114H23.6094V22.0804H19.6094ZM19.6094 39.2114C19.6094 40.7686 20.8787 42.0379 22.4359 42.0379V38.0379C23.0879 38.0379 23.6094 38.5594 23.6094 39.2114H19.6094ZM22.4359 42.0379H39.5668V38.0379H22.4359V42.0379ZM39.5668 42.0379C41.124 42.0379 42.3934 40.7686 42.3934 39.2114H38.3934C38.3934 38.5594 38.9149 38.0379 39.5668 38.0379V42.0379ZM42.3934 39.2114V25.6424H38.3934V39.2114H42.3934ZM42.3934 25.6424C42.3934 24.9067 42.0999 24.1509 41.5153 23.6028L38.7795 26.5209C38.5098 26.2681 38.3934 25.9452 38.3934 25.6424H42.3934ZM41.5596 23.6457L37.9878 20.0837L35.1633 22.9161L38.7351 26.478L41.5596 23.6457ZM38.7403 36.3848H23.2624V40.3848H38.7403V36.3848ZM25.2624 38.3848V22.907H21.2624V38.3848H25.2624ZM23.2624 24.907H35.6506V20.907H23.2624V24.907ZM34.2387 24.3234L37.3284 27.4033L40.1523 24.5703L37.0626 21.4905L34.2387 24.3234ZM36.7403 25.9868V38.3848H40.7403V25.9868H36.7403Z" fill="#0458B9" mask="url(#path-2-inside-2_1858_92)"></path></svg>