<svg xmlns="http://www.w3.org/2000/svg" width="62" height="63" viewBox="0 0 62 63" fill="none"><mask id="mask0_1858_67" style="mask-type:luminance" maskUnits="userSpaceOnUse" x="0" y="0" width="62" height="63"><path d="M0 0.0746269H62V63H0V0.0746269Z" fill="white"></path></mask><g mask="url(#mask0_1858_67)"><path d="M16.1797 53.8778V60.8491C16.1797 61.5279 16.7219 62.0781 17.3906 62.0781H40.9762C41.6449 62.0781 42.1871 61.5279 42.1871 60.8491V55.0736C42.1871 54.395 42.7291 53.8446 43.3981 53.8446H50.1649C52.8401 53.8446 55.0086 51.6437 55.0086 48.9286V48.1275" stroke="#048DEF" stroke-width="2" stroke-miterlimit="10" stroke-linecap="round" stroke-linejoin="round"></path><path d="M55.015 44.158V42.3989C55.015 41.7201 55.5573 41.1699 56.2259 41.1699H59.495C60.4062 41.1699 60.991 40.1872 60.5668 39.3688L55.2238 29.0576C55.0867 28.793 55.015 28.4986 55.015 28.1995V24.8349C55.015 11.8941 44.8466 1.20074 32.0979 0.999064C19.0658 0.792836 8.4375 11.4529 8.4375 24.6323C8.4375 31.341 11.1932 37.3945 15.6163 41.6965C15.9772 42.0477 16.186 42.5297 16.186 43.037V49.7852" stroke="#048DEF" stroke-width="2" stroke-miterlimit="10" stroke-linecap="round" stroke-linejoin="round"></path><path d="M19.3687 11.5713L12.8906 4.99657C12.5499 4.65085 12.0879 4.45654 11.6062 4.45654H5.625" stroke="#048DEF" stroke-width="2" stroke-miterlimit="10" stroke-linecap="round" stroke-linejoin="round"></path><path d="M14.2291 24.0986H5.39062" stroke="#048DEF" stroke-width="2" stroke-miterlimit="10" stroke-linecap="round" stroke-linejoin="round"></path><path d="M19.3169 36.3739L10.2977 45.5277C9.95707 45.8734 9.76562 46.3423 9.76562 46.8313V49.4453" stroke="#048DEF" stroke-width="2" stroke-miterlimit="10" stroke-linecap="round" stroke-linejoin="round"></path><path d="M5.11211 4.45637C5.11211 5.52782 4.25634 6.39648 3.20053 6.39648C2.14483 6.39648 1.28906 5.52782 1.28906 4.45637C1.28906 3.38492 2.14483 2.51625 3.20053 2.51625C4.25634 2.51625 5.11211 3.38492 5.11211 4.45637Z" stroke="#048DEF" stroke-width="2" stroke-miterlimit="10" stroke-linecap="round" stroke-linejoin="round"></path><path d="M5.11211 24.098C5.11211 25.1694 4.25634 26.0381 3.20053 26.0381C2.14483 26.0381 1.28906 25.1694 1.28906 24.098C1.28906 23.0265 2.14483 22.1579 3.20053 22.1579C4.25634 22.1579 5.11211 23.0265 5.11211 24.098Z" stroke="#048DEF" stroke-width="2" stroke-miterlimit="10" stroke-linecap="round" stroke-linejoin="round"></path><path d="M11.6747 51.9036C11.6747 52.9751 10.819 53.8438 9.76315 53.8438C8.70745 53.8438 7.85156 52.9751 7.85156 51.9036C7.85156 50.8322 8.70745 49.9635 9.76315 49.9635C10.819 49.9635 11.6747 50.8322 11.6747 51.9036Z" stroke="#048DEF" stroke-width="2" stroke-miterlimit="10" stroke-linecap="round" stroke-linejoin="round"></path><path d="M22.6602 22.248C23.5036 18.0651 27.1502 14.9184 31.5211 14.9184C36.5162 14.9184 40.5656 19.0283 40.5656 24.0981C40.5656 29.1678 36.5162 33.2777 31.5211 33.2777C27.216 33.2777 23.6133 30.2249 22.7002 26.1359M47.9914 20.9565H44.0542C43.7856 20.9565 43.5502 20.7767 43.4741 20.5152C43.2235 19.6532 42.8848 18.8297 42.4686 18.0549C42.3399 17.8153 42.3808 17.5189 42.571 17.3261L45.3561 14.4994C45.5926 14.2594 45.5926 13.8702 45.3561 13.6303L41.8349 10.0565C41.5984 9.81657 41.2151 9.81657 40.9785 10.0565L38.1934 12.8832C38.0034 13.0762 37.7113 13.1177 37.4754 12.9872C36.712 12.5648 35.9006 12.2209 35.0511 11.9665C34.7935 11.8894 34.6164 11.6504 34.6164 11.3779V7.3819C34.6164 7.04257 34.3453 6.7674 34.0109 6.7674H29.0312C28.6968 6.7674 28.4257 7.04257 28.4257 7.3819V11.3779C28.4257 11.6504 28.2484 11.8894 27.991 11.9665C27.1416 12.2209 26.3302 12.5648 25.5668 12.9872C25.3308 13.1177 25.0387 13.0762 24.8486 12.8832L22.0636 10.0565C21.8271 9.81657 21.4437 9.81657 21.2073 10.0565L17.686 13.6303C17.4496 13.8702 17.4496 14.2594 17.686 14.4994L20.4712 17.3261C20.6612 17.5189 20.7022 17.8153 20.5736 18.0549C20.1574 18.8297 19.8185 19.6532 19.5679 20.5152C19.492 20.7767 19.2565 20.9565 18.988 20.9565H15.0508C14.7163 20.9565 14.4453 21.2316 14.4453 21.571V26.625C14.4453 26.9645 14.7163 27.2395 15.0508 27.2395H18.988C19.2565 27.2395 19.492 27.4195 19.5679 27.6809C19.8185 28.5429 20.1574 29.3665 20.5736 30.1412C20.7022 30.3808 20.6612 30.6771 20.4712 30.87L17.686 33.6968C17.4496 33.9367 17.4496 34.3258 17.686 34.5658L21.2073 38.1395C21.4437 38.3795 21.8271 38.3795 22.0636 38.1395L24.8486 35.3129C25.0387 35.12 25.3308 35.0783 25.5668 35.2089C26.3302 35.6313 27.1416 35.9752 27.991 36.2296C28.2484 36.3067 28.4257 36.5456 28.4257 36.8182V40.8142C28.4257 41.1535 28.6968 41.4287 29.0312 41.4287H34.0109C34.3453 41.4287 34.6164 41.1535 34.6164 40.8142V36.8182C34.6164 36.5456 34.7935 36.3067 35.0511 36.2296C35.9006 35.9752 36.712 35.6313 37.4754 35.2089C37.7113 35.0783 38.0034 35.12 38.1934 35.3129L40.9785 38.1395C41.2151 38.3795 41.5984 38.3795 41.8349 38.1395L45.3561 34.5658C45.5926 34.3258 45.5926 33.9367 45.3561 33.6968L42.571 30.87C42.3808 30.6771 42.3399 30.3808 42.4686 30.1412C42.8848 29.3665 43.2235 28.5429 43.4741 27.6809C43.5502 27.4195 43.7856 27.2395 44.0542 27.2395H47.9914C48.3258 27.2395 48.5969 26.9645 48.5969 26.625V21.571C48.5969 21.2316 48.3258 20.9565 47.9914 20.9565Z" stroke="#048DEF" stroke-width="2" stroke-miterlimit="10" stroke-linecap="round" stroke-linejoin="round"></path></g></svg>