<svg xmlns="http://www.w3.org/2000/svg" width="62" height="67" viewBox="0 0 62 67" fill="none"><path d="M23.0537 22.7734C22.3898 22.7734 21.8516 23.3117 21.8516 23.9756V27.9148C21.8516 29.0072 22.749 29.8906 23.8467 29.8906H25.5478C26.2119 29.8906 26.75 29.3524 26.75 28.6885C26.75 28.0246 26.2119 27.4863 25.5478 27.4863H24.2559V23.9756C24.2559 23.3115 23.7177 22.7734 23.0537 22.7734Z" fill="#047BDC" stroke="#047BDC" stroke-width="0.5"></path><path d="M15.5078 22.2305V25.0272C15.5078 25.6912 16.046 26.2294 16.71 26.2294C17.374 26.2294 17.9121 25.6911 17.9121 25.0272V22.2305C17.9121 21.5666 17.374 21.0283 16.71 21.0283C16.046 21.0283 15.5078 21.5666 15.5078 22.2305Z" fill="#047BDC" stroke="#047BDC" stroke-width="0.5"></path><path d="M30.5938 22.2305V25.0272C30.5938 25.6912 31.132 26.2294 31.796 26.2294C32.4601 26.2294 32.9982 25.6911 32.9982 25.0272V22.2305C32.9982 21.5666 32.4601 21.0283 31.796 21.0283C31.132 21.0283 30.5938 21.5665 30.5938 22.2305Z" fill="#047BDC" stroke="#047BDC" stroke-width="0.5"></path><path d="M20.4835 32.0046L20.4835 32.0046C20.2076 31.4005 19.4943 31.1351 18.8905 31.4105L18.8904 31.4106C18.2865 31.6864 18.0206 32.3996 18.2964 33.0036L18.2964 33.0036C19.3563 35.324 21.6918 36.8228 24.2466 36.8228C26.8015 36.8228 29.137 35.3242 30.1967 33.0036C30.4725 32.3997 30.2066 31.6865 29.6026 31.4107C28.9987 31.1348 28.2855 31.4009 28.0097 32.0048L28.0097 32.0048C27.3403 33.4706 25.8631 34.4186 24.2466 34.4186C22.6303 34.4183 21.1529 33.4704 20.4835 32.0046Z" fill="#047BDC" stroke="#047BDC" stroke-width="0.5"></path><mask id="path-5-outside-1_1781_13" maskUnits="userSpaceOnUse" x="0" y="0" width="62" height="67" fill="black"><rect fill="white" width="62" height="67"></rect><path d="M60.5028 44.8994C60.4869 44.5435 60.3337 44.2152 60.0712 43.975L57.2613 41.4032C57.0151 41.1779 56.6955 41.0537 56.3617 41.0537C56.3419 41.0537 56.323 41.0541 56.3027 41.055C55.9471 41.0707 55.6185 41.224 55.3783 41.4866L53.8075 43.2028C51.5526 41.3118 48.6449 40.1705 45.4737 40.1705C41.7834 40.1705 38.4484 41.7151 36.0857 44.1896H29.137V41.8201C30.7725 41.4225 32.3202 40.7241 33.713 39.7422C34.1428 39.4391 34.2453 38.8451 33.9424 38.4154C33.6397 37.9858 33.0456 37.8828 32.6156 38.1858C30.6504 39.5715 28.3253 40.3039 25.8913 40.3039H22.6106C16.2763 40.3039 11.1231 35.2798 11.1231 29.1042V21.045C11.1231 17.8323 12.3645 15.3989 14.8128 13.812C17.0372 12.37 20.3009 11.6078 24.251 11.6078C28.201 11.6078 31.4647 12.3699 33.6892 13.812C36.1375 15.3989 37.3789 17.8325 37.3789 21.045V29.1042C37.3789 31.3005 36.7273 33.4265 35.4947 35.2525C35.2004 35.6883 35.3152 36.2801 35.7511 36.5744C36.1871 36.8684 36.7789 36.7539 37.073 36.318C37.9993 34.9461 38.644 33.4292 38.9892 31.8388H40.2506C42.202 31.8388 43.7899 30.2895 43.7899 28.3852V25.3568C43.7899 23.4524 42.202 21.9032 40.2506 21.9032H39.2834V11.2178C39.2834 7.45582 36.2122 4.39511 32.4375 4.39511C31.4588 4.39511 30.528 4.60166 29.6854 4.97224C28.3334 2.42822 25.71 1 22.1207 1H18.9761C13.5959 1 9.21882 5.3616 9.21882 10.7227V21.9032H8.25194C6.30017 21.9032 4.71211 23.4525 4.71211 25.3568V28.3852C4.71211 30.2895 6.30017 31.8388 8.25194 31.8388H9.5131C10.5776 36.7258 14.4343 40.6127 19.3652 41.8184V44.1897H8.18491C4.22321 44.1897 1 47.3445 1 51.2223V60.2108C1 61.1812 1.79498 61.9706 2.77214 61.9706H9.2969C9.82286 61.9706 10.249 61.5443 10.249 61.0185C10.249 60.4926 9.82286 60.0663 9.2969 60.0663H2.90442V51.2223C2.90442 48.3946 5.27324 46.094 8.18504 46.094H16.8398C17.6123 49.4608 20.6572 51.9059 24.2511 51.9059C27.8451 51.9059 30.8901 49.4607 31.6625 46.094H34.5804C33.2724 48.1104 32.5122 50.511 32.5122 53.0852C32.5122 55.6551 33.2697 58.052 34.5736 60.0662H13.7403C13.2144 60.0662 12.7881 60.4925 12.7881 61.0184C12.7881 61.5442 13.2144 61.9705 13.7403 61.9705H36.0759C38.4395 64.4509 41.7782 66 45.4737 66C52.6208 66 58.4354 60.2065 58.4354 53.0853C58.4354 51.5136 58.1515 50.0071 57.6328 48.6129L60.1542 45.8584C60.3946 45.5957 60.5184 45.2551 60.5028 44.8994ZM39.2832 29.1044V25.4347V23.8076H40.2505C41.1521 23.8076 41.8855 24.5027 41.8855 25.357V28.3853C41.8855 29.2396 41.1521 29.9346 40.2505 29.9346H39.2549C39.2726 29.6589 39.2832 29.3823 39.2832 29.1044ZM32.4375 6.2994C35.1623 6.2994 37.3791 8.50585 37.3791 11.2178V14.6801C36.6831 13.7335 35.7986 12.9099 34.7252 12.214C33.5782 11.4707 32.24 10.8919 30.7216 10.4777V9.59092C30.7216 8.56184 30.6031 7.61286 30.375 6.74983C31.0031 6.46127 31.7013 6.2994 32.4375 6.2994ZM11.1231 10.7227C11.1231 6.41163 14.6459 2.9043 18.9761 2.9043H22.1207C26.4391 2.9043 28.8172 5.27908 28.8172 9.59104V10.0598C27.4192 9.82286 25.8955 9.70365 24.251 9.70365C19.8709 9.70365 16.3469 10.5483 13.7769 12.214C12.7036 12.9097 11.8189 13.7334 11.1231 14.6801V10.7227ZM8.25194 29.9345C7.35007 29.9345 6.61641 29.2395 6.61641 28.3852V25.3568C6.61641 24.5025 7.35007 23.8075 8.25194 23.8075H9.21882V25.4345V29.1042C9.21882 29.3832 9.22885 29.6598 9.24649 29.9344L8.25194 29.9345ZM24.251 50.0016C21.71 50.0016 19.5348 48.3821 18.81 46.094H20.3172C20.8432 46.094 21.2693 45.6677 21.2693 45.1419V42.1428C21.7106 42.186 22.158 42.2083 22.6106 42.2083H25.8912C26.3421 42.2083 26.7893 42.1844 27.2326 42.1413V45.142C27.2326 45.6678 27.6589 46.0941 28.1847 46.0941H29.6919C28.9673 48.3821 26.7921 50.0016 24.251 50.0016ZM46.4821 57.9744C46.2305 58.2495 45.8718 58.4073 45.4957 58.4073C45.1221 58.4066 44.7637 58.2474 44.5123 57.9705L38.6012 51.4612L40.575 49.6689L44.6137 54.1166C44.8414 54.3672 45.166 54.5111 45.5061 54.5118C45.8445 54.5118 46.1692 54.3686 46.396 54.12L48.9944 51.2817C49.3495 50.8938 49.3227 50.2916 48.9348 49.9365C48.547 49.5815 47.9447 49.6079 47.5896 49.9959L45.5085 52.2693L41.601 47.9662C41.3489 47.6883 40.9891 47.529 40.6137 47.529C40.2817 47.529 39.9633 47.6518 39.7175 47.8752L36.8985 50.4352C36.635 50.6742 36.4802 51.0016 36.4626 51.3572C36.4452 51.7133 36.5677 52.0548 36.8073 52.3184L43.1024 59.2505C43.7129 59.9231 44.5839 60.31 45.4988 60.3116C46.4049 60.3116 47.2752 59.9283 47.8867 59.2601L56.1514 50.2312C56.3975 51.1419 56.531 52.0981 56.531 53.0853C56.531 59.1565 51.5706 64.0957 45.4736 64.0957C39.3765 64.0957 34.4162 59.1565 34.4162 53.0853C34.4162 47.0142 39.3765 42.0749 45.4736 42.0749C48.1498 42.0749 50.6053 43.0282 52.52 44.6095L50.611 46.6951C50.2559 47.0831 50.2824 47.6854 50.6705 48.0403C51.0581 48.3953 51.6604 48.3688 52.0157 47.9809L56.3974 43.1939L58.3636 44.994L46.4821 57.9744Z"></path></mask><path d="M60.5028 44.8994C60.4869 44.5435 60.3337 44.2152 60.0712 43.975L57.2613 41.4032C57.0151 41.1779 56.6955 41.0537 56.3617 41.0537C56.3419 41.0537 56.323 41.0541 56.3027 41.055C55.9471 41.0707 55.6185 41.224 55.3783 41.4866L53.8075 43.2028C51.5526 41.3118 48.6449 40.1705 45.4737 40.1705C41.7834 40.1705 38.4484 41.7151 36.0857 44.1896H29.137V41.8201C30.7725 41.4225 32.3202 40.7241 33.713 39.7422C34.1428 39.4391 34.2453 38.8451 33.9424 38.4154C33.6397 37.9858 33.0456 37.8828 32.6156 38.1858C30.6504 39.5715 28.3253 40.3039 25.8913 40.3039H22.6106C16.2763 40.3039 11.1231 35.2798 11.1231 29.1042V21.045C11.1231 17.8323 12.3645 15.3989 14.8128 13.812C17.0372 12.37 20.3009 11.6078 24.251 11.6078C28.201 11.6078 31.4647 12.3699 33.6892 13.812C36.1375 15.3989 37.3789 17.8325 37.3789 21.045V29.1042C37.3789 31.3005 36.7273 33.4265 35.4947 35.2525C35.2004 35.6883 35.3152 36.2801 35.7511 36.5744C36.1871 36.8684 36.7789 36.7539 37.073 36.318C37.9993 34.9461 38.644 33.4292 38.9892 31.8388H40.2506C42.202 31.8388 43.7899 30.2895 43.7899 28.3852V25.3568C43.7899 23.4524 42.202 21.9032 40.2506 21.9032H39.2834V11.2178C39.2834 7.45582 36.2122 4.39511 32.4375 4.39511C31.4588 4.39511 30.528 4.60166 29.6854 4.97224C28.3334 2.42822 25.71 1 22.1207 1H18.9761C13.5959 1 9.21882 5.3616 9.21882 10.7227V21.9032H8.25194C6.30017 21.9032 4.71211 23.4525 4.71211 25.3568V28.3852C4.71211 30.2895 6.30017 31.8388 8.25194 31.8388H9.5131C10.5776 36.7258 14.4343 40.6127 19.3652 41.8184V44.1897H8.18491C4.22321 44.1897 1 47.3445 1 51.2223V60.2108C1 61.1812 1.79498 61.9706 2.77214 61.9706H9.2969C9.82286 61.9706 10.249 61.5443 10.249 61.0185C10.249 60.4926 9.82286 60.0663 9.2969 60.0663H2.90442V51.2223C2.90442 48.3946 5.27324 46.094 8.18504 46.094H16.8398C17.6123 49.4608 20.6572 51.9059 24.2511 51.9059C27.8451 51.9059 30.8901 49.4607 31.6625 46.094H34.5804C33.2724 48.1104 32.5122 50.511 32.5122 53.0852C32.5122 55.6551 33.2697 58.052 34.5736 60.0662H13.7403C13.2144 60.0662 12.7881 60.4925 12.7881 61.0184C12.7881 61.5442 13.2144 61.9705 13.7403 61.9705H36.0759C38.4395 64.4509 41.7782 66 45.4737 66C52.6208 66 58.4354 60.2065 58.4354 53.0853C58.4354 51.5136 58.1515 50.0071 57.6328 48.6129L60.1542 45.8584C60.3946 45.5957 60.5184 45.2551 60.5028 44.8994ZM39.2832 29.1044V25.4347V23.8076H40.2505C41.1521 23.8076 41.8855 24.5027 41.8855 25.357V28.3853C41.8855 29.2396 41.1521 29.9346 40.2505 29.9346H39.2549C39.2726 29.6589 39.2832 29.3823 39.2832 29.1044ZM32.4375 6.2994C35.1623 6.2994 37.3791 8.50585 37.3791 11.2178V14.6801C36.6831 13.7335 35.7986 12.9099 34.7252 12.214C33.5782 11.4707 32.24 10.8919 30.7216 10.4777V9.59092C30.7216 8.56184 30.6031 7.61286 30.375 6.74983C31.0031 6.46127 31.7013 6.2994 32.4375 6.2994ZM11.1231 10.7227C11.1231 6.41163 14.6459 2.9043 18.9761 2.9043H22.1207C26.4391 2.9043 28.8172 5.27908 28.8172 9.59104V10.0598C27.4192 9.82286 25.8955 9.70365 24.251 9.70365C19.8709 9.70365 16.3469 10.5483 13.7769 12.214C12.7036 12.9097 11.8189 13.7334 11.1231 14.6801V10.7227ZM8.25194 29.9345C7.35007 29.9345 6.61641 29.2395 6.61641 28.3852V25.3568C6.61641 24.5025 7.35007 23.8075 8.25194 23.8075H9.21882V25.4345V29.1042C9.21882 29.3832 9.22885 29.6598 9.24649 29.9344L8.25194 29.9345ZM24.251 50.0016C21.71 50.0016 19.5348 48.3821 18.81 46.094H20.3172C20.8432 46.094 21.2693 45.6677 21.2693 45.1419V42.1428C21.7106 42.186 22.158 42.2083 22.6106 42.2083H25.8912C26.3421 42.2083 26.7893 42.1844 27.2326 42.1413V45.142C27.2326 45.6678 27.6589 46.0941 28.1847 46.0941H29.6919C28.9673 48.3821 26.7921 50.0016 24.251 50.0016ZM46.4821 57.9744C46.2305 58.2495 45.8718 58.4073 45.4957 58.4073C45.1221 58.4066 44.7637 58.2474 44.5123 57.9705L38.6012 51.4612L40.575 49.6689L44.6137 54.1166C44.8414 54.3672 45.166 54.5111 45.5061 54.5118C45.8445 54.5118 46.1692 54.3686 46.396 54.12L48.9944 51.2817C49.3495 50.8938 49.3227 50.2916 48.9348 49.9365C48.547 49.5815 47.9447 49.6079 47.5896 49.9959L45.5085 52.2693L41.601 47.9662C41.3489 47.6883 40.9891 47.529 40.6137 47.529C40.2817 47.529 39.9633 47.6518 39.7175 47.8752L36.8985 50.4352C36.635 50.6742 36.4802 51.0016 36.4626 51.3572C36.4452 51.7133 36.5677 52.0548 36.8073 52.3184L43.1024 59.2505C43.7129 59.9231 44.5839 60.31 45.4988 60.3116C46.4049 60.3116 47.2752 59.9283 47.8867 59.2601L56.1514 50.2312C56.3975 51.1419 56.531 52.0981 56.531 53.0853C56.531 59.1565 51.5706 64.0957 45.4736 64.0957C39.3765 64.0957 34.4162 59.1565 34.4162 53.0853C34.4162 47.0142 39.3765 42.0749 45.4736 42.0749C48.1498 42.0749 50.6053 43.0282 52.52 44.6095L50.611 46.6951C50.2559 47.0831 50.2824 47.6854 50.6705 48.0403C51.0581 48.3953 51.6604 48.3688 52.0157 47.9809L56.3974 43.1939L58.3636 44.994L46.4821 57.9744Z" fill="#047BDC"></path><path d="M60.5028 44.8994C60.4869 44.5435 60.3337 44.2152 60.0712 43.975L57.2613 41.4032C57.0151 41.1779 56.6955 41.0537 56.3617 41.0537C56.3419 41.0537 56.323 41.0541 56.3027 41.055C55.9471 41.0707 55.6185 41.224 55.3783 41.4866L53.8075 43.2028C51.5526 41.3118 48.6449 40.1705 45.4737 40.1705C41.7834 40.1705 38.4484 41.7151 36.0857 44.1896H29.137V41.8201C30.7725 41.4225 32.3202 40.7241 33.713 39.7422C34.1428 39.4391 34.2453 38.8451 33.9424 38.4154C33.6397 37.9858 33.0456 37.8828 32.6156 38.1858C30.6504 39.5715 28.3253 40.3039 25.8913 40.3039H22.6106C16.2763 40.3039 11.1231 35.2798 11.1231 29.1042V21.045C11.1231 17.8323 12.3645 15.3989 14.8128 13.812C17.0372 12.37 20.3009 11.6078 24.251 11.6078C28.201 11.6078 31.4647 12.3699 33.6892 13.812C36.1375 15.3989 37.3789 17.8325 37.3789 21.045V29.1042C37.3789 31.3005 36.7273 33.4265 35.4947 35.2525C35.2004 35.6883 35.3152 36.2801 35.7511 36.5744C36.1871 36.8684 36.7789 36.7539 37.073 36.318C37.9993 34.9461 38.644 33.4292 38.9892 31.8388H40.2506C42.202 31.8388 43.7899 30.2895 43.7899 28.3852V25.3568C43.7899 23.4524 42.202 21.9032 40.2506 21.9032H39.2834V11.2178C39.2834 7.45582 36.2122 4.39511 32.4375 4.39511C31.4588 4.39511 30.528 4.60166 29.6854 4.97224C28.3334 2.42822 25.71 1 22.1207 1H18.9761C13.5959 1 9.21882 5.3616 9.21882 10.7227V21.9032H8.25194C6.30017 21.9032 4.71211 23.4525 4.71211 25.3568V28.3852C4.71211 30.2895 6.30017 31.8388 8.25194 31.8388H9.5131C10.5776 36.7258 14.4343 40.6127 19.3652 41.8184V44.1897H8.18491C4.22321 44.1897 1 47.3445 1 51.2223V60.2108C1 61.1812 1.79498 61.9706 2.77214 61.9706H9.2969C9.82286 61.9706 10.249 61.5443 10.249 61.0185C10.249 60.4926 9.82286 60.0663 9.2969 60.0663H2.90442V51.2223C2.90442 48.3946 5.27324 46.094 8.18504 46.094H16.8398C17.6123 49.4608 20.6572 51.9059 24.2511 51.9059C27.8451 51.9059 30.8901 49.4607 31.6625 46.094H34.5804C33.2724 48.1104 32.5122 50.511 32.5122 53.0852C32.5122 55.6551 33.2697 58.052 34.5736 60.0662H13.7403C13.2144 60.0662 12.7881 60.4925 12.7881 61.0184C12.7881 61.5442 13.2144 61.9705 13.7403 61.9705H36.0759C38.4395 64.4509 41.7782 66 45.4737 66C52.6208 66 58.4354 60.2065 58.4354 53.0853C58.4354 51.5136 58.1515 50.0071 57.6328 48.6129L60.1542 45.8584C60.3946 45.5957 60.5184 45.2551 60.5028 44.8994ZM39.2832 29.1044V25.4347V23.8076H40.2505C41.1521 23.8076 41.8855 24.5027 41.8855 25.357V28.3853C41.8855 29.2396 41.1521 29.9346 40.2505 29.9346H39.2549C39.2726 29.6589 39.2832 29.3823 39.2832 29.1044ZM32.4375 6.2994C35.1623 6.2994 37.3791 8.50585 37.3791 11.2178V14.6801C36.6831 13.7335 35.7986 12.9099 34.7252 12.214C33.5782 11.4707 32.24 10.8919 30.7216 10.4777V9.59092C30.7216 8.56184 30.6031 7.61286 30.375 6.74983C31.0031 6.46127 31.7013 6.2994 32.4375 6.2994ZM11.1231 10.7227C11.1231 6.41163 14.6459 2.9043 18.9761 2.9043H22.1207C26.4391 2.9043 28.8172 5.27908 28.8172 9.59104V10.0598C27.4192 9.82286 25.8955 9.70365 24.251 9.70365C19.8709 9.70365 16.3469 10.5483 13.7769 12.214C12.7036 12.9097 11.8189 13.7334 11.1231 14.6801V10.7227ZM8.25194 29.9345C7.35007 29.9345 6.61641 29.2395 6.61641 28.3852V25.3568C6.61641 24.5025 7.35007 23.8075 8.25194 23.8075H9.21882V25.4345V29.1042C9.21882 29.3832 9.22885 29.6598 9.24649 29.9344L8.25194 29.9345ZM24.251 50.0016C21.71 50.0016 19.5348 48.3821 18.81 46.094H20.3172C20.8432 46.094 21.2693 45.6677 21.2693 45.1419V42.1428C21.7106 42.186 22.158 42.2083 22.6106 42.2083H25.8912C26.3421 42.2083 26.7893 42.1844 27.2326 42.1413V45.142C27.2326 45.6678 27.6589 46.0941 28.1847 46.0941H29.6919C28.9673 48.3821 26.7921 50.0016 24.251 50.0016ZM46.4821 57.9744C46.2305 58.2495 45.8718 58.4073 45.4957 58.4073C45.1221 58.4066 44.7637 58.2474 44.5123 57.9705L38.6012 51.4612L40.575 49.6689L44.6137 54.1166C44.8414 54.3672 45.166 54.5111 45.5061 54.5118C45.8445 54.5118 46.1692 54.3686 46.396 54.12L48.9944 51.2817C49.3495 50.8938 49.3227 50.2916 48.9348 49.9365C48.547 49.5815 47.9447 49.6079 47.5896 49.9959L45.5085 52.2693L41.601 47.9662C41.3489 47.6883 40.9891 47.529 40.6137 47.529C40.2817 47.529 39.9633 47.6518 39.7175 47.8752L36.8985 50.4352C36.635 50.6742 36.4802 51.0016 36.4626 51.3572C36.4452 51.7133 36.5677 52.0548 36.8073 52.3184L43.1024 59.2505C43.7129 59.9231 44.5839 60.31 45.4988 60.3116C46.4049 60.3116 47.2752 59.9283 47.8867 59.2601L56.1514 50.2312C56.3975 51.1419 56.531 52.0981 56.531 53.0853C56.531 59.1565 51.5706 64.0957 45.4736 64.0957C39.3765 64.0957 34.4162 59.1565 34.4162 53.0853C34.4162 47.0142 39.3765 42.0749 45.4736 42.0749C48.1498 42.0749 50.6053 43.0282 52.52 44.6095L50.611 46.6951C50.2559 47.0831 50.2824 47.6854 50.6705 48.0403C51.0581 48.3953 51.6604 48.3688 52.0157 47.9809L56.3974 43.1939L58.3636 44.994L46.4821 57.9744Z" stroke="#047BDC" mask="url(#path-5-outside-1_1781_13)"></path></svg>