<svg width="500" height="500" viewBox="0 0 500 500" fill="none" xmlns="http://www.w3.org/2000/svg">
<path d="M209.353 130.131L118.544 77.6802L118.228 182.012C118.165 202.044 132.257 226.5 149.698 236.548L240.507 288.998L240.823 184.666C240.886 164.634 226.731 140.178 209.353 130.131Z" fill="#0369CA"/>
<path d="M372.262 59.9861L281.454 7.53578C264.012 -2.51193 235.765 -2.51193 218.45 7.53578L128.21 59.9861L219.019 112.436C236.46 122.547 264.708 122.547 282.022 112.436L372.262 59.9861Z" fill="#0369CA"/>
<path d="M381.995 77.6802L291.187 130.131C273.745 140.178 259.653 164.634 259.717 184.666L260.032 288.998L350.841 236.611C368.282 226.5 382.438 202.108 382.311 182.075L381.995 77.6802Z" fill="#0369CA"/>
<path d="M95.731 347.957H123.662C128.907 347.957 132.067 349.158 133.015 351.559V352.634C133.015 356.046 125.369 361.86 110.139 370.138C98.0692 377.784 90.8652 382.714 88.7166 384.988H88.2111V358.763C88.2111 351.559 90.6756 347.957 95.731 347.957ZM114.31 372.603H114.752C136.554 384.483 147.486 391.813 147.486 394.657V395.226C147.486 397.564 138.576 403.694 120.819 413.741C100.66 401.987 90.6124 395.352 90.6124 393.709L90.17 391.687C90.1069 388.085 98.1956 381.766 114.31 372.603ZM148.434 399.713H149.824V428.023C149.824 433.458 146.854 436.175 140.914 436.175H119.871C110.265 436.175 105.463 434.974 105.463 432.636V430.045C107.043 427.075 116.206 420.566 132.952 410.518C143.252 404.705 148.371 401.103 148.434 399.713Z" fill="#0369CA"/>
<path d="M200.632 346.377C204.36 346.377 206.509 350.106 207.141 357.626V378.164C207.141 380.312 203.918 382.84 197.409 385.873C178.198 397.69 167.329 404.831 164.675 407.422V407.928H163.411V376.647C163.411 369.759 168.087 364.451 177.44 360.786L200.632 346.377ZM190.394 395.731C217.251 412.478 231.723 420.819 233.808 420.819V421.388C215.482 433.647 205.055 439.777 202.591 439.777C200.379 439.777 188.435 432.763 166.697 418.797C165.812 417.596 165.307 416.143 165.244 414.689C165.244 411.087 173.648 404.768 190.394 395.731ZM214.661 301.7C232.671 310.737 241.707 317.751 241.707 322.806V411.087C241.707 415.195 239.685 417.217 235.641 417.217C232.481 416.901 224.203 412.098 210.932 402.809L210.49 400.787V309.915C210.49 304.417 211.88 301.7 214.661 301.7Z" fill="#0369CA"/>
<path d="M290.554 307.893V431.562C290.554 436.048 288.847 438.26 285.435 438.26C282.212 438.26 277.409 435.859 270.964 430.993C263.191 427.265 259.336 424.168 259.336 421.767V325.903C259.399 323.059 260.031 320.279 261.169 317.688C268.942 311.242 277.599 305.871 286.825 301.763C289.416 302.395 290.554 304.48 290.554 307.893Z" fill="#0369CA"/>
<path d="M340.035 348.4H340.477V348.968L339.845 351.054C339.656 351.686 339.592 352.318 339.592 352.95V399.713C339.592 402.051 336.117 404.894 329.102 408.18C328.66 408.37 328.218 408.686 327.839 408.939C321.646 413.741 316.717 416.143 313.051 416.143C310.334 416.143 308.754 414.184 308.375 410.203C308.375 410.013 308.375 409.823 308.375 409.571V374.498C308.375 368.495 312.546 363.819 320.95 360.343C321.33 360.217 321.646 360.027 322.025 359.838L340.035 348.4ZM381.3 377.658C383.385 376.331 385.976 376.268 388.125 377.469C403.797 386.189 411.696 391.561 411.696 393.52C411.633 396.932 376.56 423.031 356.339 434.469C356.086 434.658 355.77 434.848 355.517 435.037C353.558 436.617 351.346 437.818 348.945 438.576C347.492 438.892 346.038 438.766 344.711 438.134C340.224 436.049 330.809 430.172 316.401 420.44V419.871C318.549 419.808 355.138 394.531 381.3 377.658ZM343.384 351.938C344.332 348.4 347.934 346.314 351.473 347.262C352.105 347.452 352.737 347.705 353.242 348.02C369.862 358.258 372.579 364.261 372.579 365.967C373.148 367.61 372.958 369.443 372.137 371.023C370.81 373.424 367.587 376.773 359.688 381.071L358.614 381.766C356.212 383.535 353.116 384.104 350.335 383.219C345.343 381.639 342.815 379.68 342.815 377.279V356.741C342.815 355.098 343.005 353.455 343.384 351.938Z" fill="#0369CA"/>
<path d="M223.825 489.447C221.107 490.584 218.2 491.09 215.23 490.963C206.067 490.963 199.179 485.15 199.179 474.533C199.179 464.359 206.067 457.471 216.178 457.471C218.832 457.345 221.486 457.85 223.888 458.925L222.813 462.337C220.728 461.389 218.516 460.947 216.241 461.01C208.595 461.01 203.54 465.876 203.54 474.407C203.54 482.369 208.153 487.488 216.052 487.488C218.39 487.551 220.728 487.046 222.877 486.161L223.825 489.447Z" fill="#0369CA"/>
<path d="M249.481 478.577C249.481 487.235 243.478 490.963 237.853 490.963C231.534 490.963 226.668 486.35 226.668 478.957C226.668 471.121 231.787 466.571 238.233 466.571C244.994 466.571 249.481 471.437 249.481 478.577ZM231.029 478.83C231.029 483.949 233.999 487.804 238.106 487.804C242.214 487.804 245.184 484.012 245.184 478.704C245.184 474.723 243.225 469.73 238.169 469.73C233.114 469.73 231.029 474.407 231.029 478.83Z" fill="#0369CA"/>
<path d="M254.915 474.407C254.915 471.689 254.915 469.288 254.725 467.076H258.453L258.58 471.689H258.769C259.591 468.783 262.182 466.697 265.215 466.571C265.594 466.571 266.037 466.634 266.416 466.697V470.678C265.91 470.552 265.468 470.552 264.962 470.552C261.992 470.552 259.844 472.827 259.275 475.987C259.149 476.618 259.085 477.314 259.085 477.946V490.458H254.915V474.407Z" fill="#0369CA"/>
<path d="M270.841 474.723C270.841 471.753 270.778 469.288 270.652 467.076H274.443L274.633 471.058H274.696C276.402 468.151 279.625 466.381 282.974 466.508C288.599 466.508 292.896 471.31 292.896 478.388C292.896 486.793 287.777 490.963 282.279 490.963C279.436 491.09 276.655 489.7 275.075 487.298H275.012V500H270.841V474.723ZM275.075 480.979C275.075 481.548 275.138 482.116 275.265 482.685C275.96 485.592 278.614 487.677 281.647 487.677C286.134 487.677 288.725 484.012 288.725 478.641C288.725 473.964 286.26 469.983 281.774 469.983C278.677 470.046 276.023 472.195 275.328 475.228C275.138 475.797 275.075 476.366 275.075 476.998V480.979Z" fill="#0369CA"/>
</svg>
